<svg viewBox="0 0 24 24" xmlns="http://www.w3.org/2000/svg" xmlns:xlink="http://www.w3.org/1999/xlink" width="24.000000" height="24.000000" fill="none">
	<rect id="24 / Action / Equaliser Сlear Fill" width="24.000000" height="24.000000" x="0.000000" y="0.000000" />
	<path id="Vector-2" d="M7.92516 2.78882C7.92516 2.23882 7.47516 1.78882 6.92516 1.78882C6.37515 1.78882 5.92516 2.23882 5.92516 2.78882L5.92516 12.6288C4.40516 13.0388 3.28516 14.4288 3.28516 16.0788C3.28516 17.7288 4.39516 19.1088 5.91515 19.5288L5.91515 20.7988C5.91515 21.3488 6.36515 21.7988 6.91515 21.7988C7.46516 21.7988 7.91515 21.3488 7.91515 20.7988L7.91515 19.4988C9.37515 19.0488 10.4252 17.6888 10.4252 16.0888C10.4252 14.4888 9.37515 13.1388 7.92516 12.6788L7.92516 12.6588L7.92516 2.79882L7.92516 2.78882ZM17.0952 14.2588C16.5452 14.2588 16.0952 13.8188 16.0852 13.2688L16.0852 10.9388C16.0852 10.9388 16.0751 10.9188 16.0751 10.9088C14.6252 10.4488 13.5751 9.09882 13.5751 7.49882C13.5751 5.89882 14.6351 4.53882 16.0852 4.08882L16.0852 2.78882C16.0852 2.23882 16.5351 1.78882 17.0852 1.78882C17.6352 1.78882 18.0852 2.23882 18.0852 2.78882L18.0852 4.05882C19.5952 4.46882 20.7151 5.85882 20.7151 7.50882C20.7151 9.15882 19.6552 10.4688 18.2051 10.9188C18.1651 10.9288 18.1152 10.9488 18.0751 10.9588L18.0751 13.2588C18.0951 13.8088 17.6451 14.2588 17.0951 14.2688L17.0952 14.2588ZM15.2752 15.3688C14.8852 14.9788 14.2552 14.9788 13.8652 15.3688C13.4752 15.7588 13.4752 16.3888 13.8652 16.7788L15.7252 18.6488L13.8652 20.5088C13.4752 20.8988 13.4752 21.5288 13.8652 21.9188C14.2551 22.3088 14.8851 22.3088 15.2752 21.9188L17.1352 20.0588L18.9952 21.9188C19.3852 22.3088 20.0152 22.3088 20.4052 21.9188C20.7952 21.5288 20.7952 20.8988 20.4052 20.5088L18.5452 18.6488L20.4052 16.7788C20.7952 16.3888 20.7952 15.7588 20.4052 15.3688C20.0152 14.9788 19.3852 14.9788 18.9952 15.3688L17.1352 17.2288L15.2752 15.3688L15.2752 15.3688Z" fill="rgb(14,17,23)" fill-rule="evenodd" />
</svg>
