<svg viewBox="0 0 24 24" xmlns="http://www.w3.org/2000/svg" xmlns:xlink="http://www.w3.org/1999/xlink" width="24.000000" height="24.000000" fill="none">
	<rect id="24 / Action / Products" width="24.000000" height="24.000000" x="0.000000" y="0.000000" fill="rgb(255,255,255)" fill-opacity="0" />
	<path id="Vector 13532" d="M2 4.005C2 2.90503 2.9 2.005 4 2.005L9 2.005C10.1 2.005 11 2.90503 11 4.005L11 9.005C11 10.105 10.1 11.005 9 11.005L4 11.005C2.9 11.005 2 10.105 2 9.005L2 4.005ZM15 2.005C13.9 2.005 13 2.90503 13 4.005L13 9.005C13 10.105 13.9 11.005 15 11.005L20 11.005C21.1 11.005 22 10.105 22 9.005L22 4.005C22 2.90503 21.1 2.005 20 2.005L15 2.005ZM4 4.005L9 4.005L9 9.005L4 9.005L4 4.005ZM20 4.005L15 4.005L15 9.005L20 9.005L20 4.005ZM2 14.995C2 13.895 2.9 12.995 4 12.995L9 12.995C10.1 12.995 11 13.895 11 14.995L11 19.995C11 21.095 10.1 21.995 9 21.995L4 21.995C2.9 21.995 2 21.095 2 19.995L2 14.995ZM15 12.995C13.9 12.995 13 13.895 13 14.995L13 19.995C13 21.095 13.9 21.995 15 21.995L20 21.995C21.1 21.995 22 21.095 22 19.995L22 14.995C22 13.895 21.1 12.995 20 12.995L15 12.995ZM4 14.995L9 14.995L9 19.995L4 19.995L4 14.995ZM20 14.995L15 14.995L15 19.995L20 19.995L20 14.995Z" fill="rgb(14,17,23)" fill-rule="evenodd" />
</svg>
