<svg viewBox="0 0 24 24" xmlns="http://www.w3.org/2000/svg" xmlns:xlink="http://www.w3.org/1999/xlink" width="24.000000" height="24.000000" fill="none">
	<rect id="24 / Avatar icon / Puzzle-piece" width="24.000000" height="24.000000" x="0.000000" y="0.000000" />
	<path id="Vector" d="M10.5508 5.25C10.5508 4.60319 10.059 4.07111 9.42871 4.00684L9.30078 4C8.61043 4 8.05078 4.55964 8.05078 5.25C8.05078 5.56717 8.16808 5.8538 8.36328 6.07422C8.81121 6.57974 9.28858 7.6048 8.69531 8.55469C8.36655 9.08087 7.78941 9.40039 7.16895 9.40039L5.9668 9.40039C4.88065 9.40059 4.0002 10.281 4 11.3672L4 18.4014C4.00013 19.2842 4.71579 19.9999 5.59863 20L6.41699 20C6.6655 19.9998 6.88241 19.8315 6.94434 19.5908L6.95996 19.5312C6.97009 19.4917 6.97076 19.4502 6.96289 19.4102C6.95431 19.3665 6.9165 19.2713 6.7627 19.0791C6.31798 18.5235 6.05085 17.8164 6.05078 17.0498C6.05078 15.2549 7.50586 13.7998 9.30078 13.7998C11.0957 13.7998 12.5508 15.2549 12.5508 17.0498L12.5469 17.2109C12.5076 18.0085 12.179 18.7293 11.6689 19.2715C11.6149 19.329 11.581 19.3742 11.5605 19.4072C11.5414 19.4381 11.5383 19.4504 11.5391 19.4473C11.5365 19.4585 11.5367 19.4704 11.54 19.4814L11.5791 19.6074C11.6507 19.8405 11.8665 20 12.1104 20L12.9316 20C13.8527 20 14.5996 19.2531 14.5996 18.332L14.5996 16.8291C14.5996 16.2093 14.9189 15.6334 15.4443 15.3047L15.623 15.2051C16.5202 14.7697 17.451 15.2161 17.9248 15.6367C18.1455 15.8326 18.4326 15.9502 18.75 15.9502C19.3971 15.9502 19.929 15.4584 19.9932 14.8281L20 14.7002C20 14.0098 19.4404 13.4502 18.75 13.4502C18.4325 13.4502 18.1455 13.568 17.9248 13.7637C17.4194 14.2119 16.3941 14.6884 15.4443 14.0947C14.9189 13.766 14.5996 13.1901 14.5996 12.5703L14.5996 11.3682C14.5996 10.2816 13.7183 9.40039 12.6318 9.40039L11.4307 9.40039C10.8107 9.40026 10.2341 9.08125 9.90527 8.55566C9.31113 7.60569 9.78852 6.58021 10.2373 6.07422C10.433 5.85363 10.5508 5.56674 10.5508 5.25ZM12.5508 5.25C12.5508 6.07546 12.2409 6.82915 11.7344 7.40039L12.6318 7.40039C14.8229 7.40039 16.5996 9.17708 16.5996 11.3682L16.5996 12.2646C17.1713 11.7587 17.9254 11.4502 18.75 11.4502C20.5449 11.4502 22 12.9053 22 14.7002L21.9961 14.8672C21.9091 16.5844 20.4889 17.9502 18.75 17.9502C17.925 17.9502 17.1712 17.641 16.5996 17.1348L16.5996 18.332C16.5996 20.3576 14.9572 22 12.9316 22L12.1104 22C10.9883 22 9.99762 21.2679 9.66797 20.1953L9.62891 20.0693C9.52155 19.72 9.50867 19.3481 9.5918 18.9922C9.70594 18.5036 9.98642 18.1411 10.2119 17.9014C10.3971 17.7046 10.5176 17.4521 10.5449 17.1719L10.5508 17.0498C10.5508 16.3594 9.99114 15.7998 9.30078 15.7998C8.61043 15.7998 8.05078 16.3594 8.05078 17.0498L8.05566 17.1592C8.07747 17.412 8.17424 17.6417 8.32422 17.8291C8.53428 18.0916 8.82192 18.4966 8.92578 19.0244C8.99108 19.3566 8.9815 19.6994 8.89746 20.0273L8.88184 20.0869C8.59315 21.2123 7.57881 21.9998 6.41699 22L5.59863 22C3.61122 21.9999 2.00013 20.3888 2 18.4014L2 11.3672C2.0002 9.17647 3.77608 7.40059 5.9668 7.40039L6.86523 7.40039C6.35916 6.8288 6.05078 6.07469 6.05078 5.25C6.05078 3.45507 7.50586 2 9.30078 2L9.46777 2.00391C11.1847 2.09102 12.5508 3.51099 12.5508 5.25Z" fill="rgb(0,0,0)" fill-rule="nonzero" />
</svg>
