<svg viewBox="0 0 24 24" xmlns="http://www.w3.org/2000/svg" xmlns:xlink="http://www.w3.org/1999/xlink" width="24.000000" height="24.000000" fill="none">
	<rect id="24 / Avatar icon / Dog" width="24.000000" height="24.000000" x="0.000000" y="0.000000" />
	<path id="Vector" d="M18.7494 4.44446L20.2394 4.52442L20.2394 4.53442C21.1894 4.59442 21.9295 5.3744 21.9295 6.3244L21.9295 6.72442C21.9295 8.5744 20.5495 10.1244 18.7094 10.3344L18.6795 10.3344L18.3594 18.8544C18.3594 19.6544 18.0395 20.4444 17.4694 20.9944C16.9694 21.4844 16.3194 21.7444 15.6194 21.7444L15.5294 21.7444C13.9794 21.6944 12.8494 20.5044 12.7894 18.8544C12.7694 18.4644 12.7094 17.6444 12.6594 16.9944L8.63941 16.9944C8.35939 17.6544 7.91931 18.7044 7.65943 19.3544C7.21937 20.4544 6.14941 21.7444 4.59937 21.7444C3.79931 21.7444 3.10937 21.4144 2.64941 20.8244C2.05945 20.0544 1.90943 18.8744 2.24939 17.5944L3.79943 11.4644C3.88941 11.1245 4.02941 10.8044 4.19935 10.5144C3.01941 9.02442 3.11939 6.85443 4.49939 5.49444C4.88941 5.10443 5.51941 5.11444 5.90943 5.50446C6.29945 5.89441 6.28943 6.52442 5.89941 6.91443C5.27943 7.5144 5.20935 8.47441 5.67945 9.16442C6.00941 9.01445 6.35937 8.90442 6.73939 8.85443L11.7594 8.21441C11.9195 8.19446 12.0495 8.05444 12.0495 7.88446L12.0495 3.88446C12.0495 3.23444 12.4295 2.65442 13.0194 2.39442C13.6094 2.1344 14.2895 2.24446 14.7694 2.68446L15.3994 3.26446L16.8494 3.26446C17.6595 3.26446 18.3894 3.72444 18.7494 4.44446ZM18.4894 8.32446C19.3095 8.23444 19.9295 7.54444 19.9295 6.71442L19.9195 6.68445L19.9195 6.48444L18.4994 6.40448C17.7995 6.36444 17.1995 5.93445 16.9595 5.31446C16.9395 5.27448 16.8994 5.22449 16.8295 5.21448L14.6094 5.21448L14.0395 4.69446L14.0395 7.8545C14.0395 9.03448 13.1594 10.0245 11.9994 10.1745L6.97937 10.8145C6.36939 10.8845 5.87939 11.3245 5.72937 11.9145L4.17945 18.0544C3.96937 18.8544 4.07947 19.3644 4.22937 19.5644C4.26941 19.6144 4.33935 19.7045 4.59937 19.7045C5.07935 19.7045 5.57935 19.1244 5.79945 18.5745C6.07935 17.8644 6.55945 16.7045 6.83935 16.0544C7.11939 15.3945 7.76941 14.9645 8.48939 14.9645L12.8394 14.9645C13.7694 14.9645 14.5495 15.6945 14.6294 16.6144C14.6894 17.3144 14.7594 18.3044 14.7794 18.7544C14.7995 19.1844 14.9494 19.7045 15.5894 19.7244C15.7995 19.7244 15.9494 19.6644 16.0794 19.5344C16.2594 19.3644 16.3594 19.0944 16.3594 18.7944L16.6894 10.0244C16.7194 9.16442 17.3894 8.45445 18.2394 8.35443L18.4894 8.32446ZM15.8595 5.9444C15.9994 5.91444 16.1494 5.92444 16.2895 5.98444C16.4195 6.03442 16.5395 6.1344 16.6194 6.2544C16.7095 6.37439 16.7494 6.5144 16.7494 6.66443C16.7494 6.86444 16.6695 7.05444 16.5294 7.1944C16.3894 7.33441 16.1995 7.41443 15.9994 7.41443C15.8595 7.41443 15.7095 7.36444 15.5895 7.28442C15.4695 7.2044 15.3794 7.09442 15.3195 6.9544C15.2694 6.81439 15.2594 6.66443 15.2794 6.52442C15.2995 6.3844 15.3794 6.24444 15.4795 6.14441C15.5795 6.04444 15.7195 5.97441 15.8595 5.9444Z" fill="rgb(14,17,23)" fill-rule="evenodd" />
</svg>
