<svg viewBox="0 0 24 24" xmlns="http://www.w3.org/2000/svg" xmlns:xlink="http://www.w3.org/1999/xlink" width="24.000000" height="24.000000" fill="none">
	<rect id="24 / Avatar icon / Donkey" width="24.000000" height="24.000000" x="0.000000" y="0.000000" />
	<path id="Vector" d="M15.6825 8.7252C16.1961 8.70642 19.9489 8.5691 21.7715 11.5367L21.7915 11.5067C22.0814 11.9767 21.9315 12.5967 21.4614 12.8867C21.3015 12.9867 21.1215 13.0367 20.9415 13.0367C20.6115 13.0367 20.2815 12.8667 20.0914 12.5567C19.8514 12.1667 19.5814 11.8567 19.2915 11.6067C19.3815 12.0367 19.4015 12.3867 19.4015 12.5667L19.4015 18.7567C19.4015 20.0067 18.4115 21.3467 16.8514 21.3467C15.2915 21.3467 14.2415 20.0067 14.2415 18.7567L14.2415 16.8467L11.5615 16.8467L11.5615 18.6867C11.5615 19.9367 10.4515 21.3367 8.96142 21.3367C7.47144 21.3367 6.36144 19.9367 6.36144 18.6867L6.36152 18.6674C6.3625 18.4616 6.3709 16.6651 6.36144 15.9567C6.36144 15.5767 6.37146 15.1567 6.38146 14.7267C6.4115 14.1467 6.4215 13.4767 6.38146 12.9467C6.36144 12.9567 6.35144 12.9767 6.34142 12.9767C5.57154 13.5467 4.62146 13.4767 4.31152 13.4367C3.51148 13.3967 2.84142 12.8367 2.50146 12.3467C1.84142 11.3967 1.93152 10.0467 2.72144 8.9867L4.40148 6.7467C4.48144 6.64672 4.64148 6.38672 4.71142 6.26672C4.86282 6.01828 4.57272 5.5393 4.25 5.00642C3.74132 4.16654 3.15156 3.19276 4.08154 2.77674C4.98338 2.3705 5.58812 3.48254 5.9656 4.17668C6.05274 4.33688 6.12774 4.47484 6.19152 4.56672C6.53006 5.05462 6.73968 4.81874 6.97838 4.55014L6.98144 4.5467C7.12452 4.38608 7.26758 4.16248 7.4195 3.92506C7.87288 3.21644 8.40506 2.38468 9.25146 2.7367C10.2533 3.1612 9.34506 4.68854 8.85816 5.50728C8.77156 5.6529 8.6983 5.7761 8.65148 5.8667C8.45154 6.27674 8.93152 7.07672 8.93152 7.07672C9.00146 7.14672 10.2615 8.38672 10.2615 8.38672C10.4915 8.6167 10.8115 8.7467 11.1415 8.7467L15.6315 8.72674C15.6406 8.72674 15.6578 8.72612 15.6825 8.7252ZM16.2214 18.7867C16.2214 18.9867 16.4415 19.3767 16.8315 19.3767L16.8414 19.3867C17.2314 19.3867 17.3915 18.9967 17.3915 18.7967L17.3915 12.6167C17.3915 12.5167 17.3715 11.6167 16.8615 11.1167C16.5914 10.8567 16.1915 10.7167 15.6815 10.7467L10.5615 10.7467C10.0515 10.7467 9.57154 10.5467 9.21154 10.1867L7.73144 8.70672C6.95154 7.9267 6.11144 7.9867 5.85144 8.1767C5.33154 8.5467 4.31152 10.2167 4.31152 10.2167C4.0415 10.5667 3.97144 11.0067 4.13146 11.2367C4.19152 11.3267 4.35144 11.4567 4.4215 11.4867L4.57154 11.4867C4.71154 11.5067 5.00146 11.4967 5.14148 11.3967C5.33154 11.2467 5.52148 11.0867 5.6715 10.9467C6.02148 10.6267 6.51148 10.4867 6.97144 10.5767C7.44152 10.6667 7.83154 10.9767 8.0315 11.4067C8.44152 12.3067 8.4115 13.5867 8.37146 14.8167C8.35144 15.2067 8.35144 15.5967 8.35144 15.9467C8.36144 16.7067 8.35144 18.7167 8.35144 18.7167C8.35144 18.9467 8.6615 19.3667 8.95154 19.3667C9.26148 19.3667 9.55152 18.9667 9.55152 18.7167L9.55152 16.7867C9.55152 15.7367 10.4115 14.8767 11.4615 14.8767L14.3115 14.8767C15.3615 14.8767 16.2214 15.7367 16.2214 16.7867L16.2214 18.7867ZM6.3214 8.6767C6.4414 8.65674 6.5714 8.66668 6.6814 8.71674C6.79138 8.76672 6.89148 8.84674 6.96142 8.94672C7.0315 9.0567 7.0714 9.1767 7.0714 9.2967C7.0714 9.45672 7.01148 9.6167 6.89148 9.7367C6.7815 9.84674 6.62146 9.91668 6.45142 9.91668C6.3214 9.91668 6.20142 9.8767 6.10144 9.8067C6.00146 9.7367 5.92138 9.63672 5.87146 9.52674C5.8214 9.41668 5.8114 9.28668 5.83142 9.16668C5.85144 9.0467 5.91138 8.9367 6.00146 8.84674C6.09142 8.75672 6.20142 8.69672 6.3214 8.6767Z" fill="rgb(14,17,23)" fill-rule="evenodd" />
</svg>
