<svg viewBox="0 0 24 24" xmlns="http://www.w3.org/2000/svg" xmlns:xlink="http://www.w3.org/1999/xlink" width="24.000000" height="24.000000" fill="none">
	<rect id="24 / Avatar icon / Dog Fill" width="24.000000" height="24.000000" x="0.000000" y="0.000000" />
	<path id="Vector" d="M21.1064 4.79635L18.6564 4.65635C18.6564 3.95635 18.0964 3.38635 17.3964 3.38635L15.3564 3.38635L14.3464 2.45635C13.8964 2.04635 13.1764 2.36636 13.1764 2.97635L13.1764 7.66635C13.1764 8.27635 12.7164 8.79635 12.1164 8.87635L5.33643 9.73635C4.59642 8.91635 4.62642 7.64636 5.41643 6.86635C5.80643 6.47635 5.81642 5.84635 5.42642 5.45635C5.03642 5.06635 4.40642 5.05634 4.01642 5.44634C2.41641 7.02635 2.38641 9.61634 3.96642 11.2163C3.99641 11.2463 4.03642 11.2563 4.06642 11.2863L2.23642 18.5063C1.77641 20.2563 2.29642 21.7263 3.77641 21.7263C4.91641 21.7263 5.77641 20.6863 6.14641 19.7663C6.4364 19.0363 6.91641 17.8863 7.22641 17.1463C7.4064 16.7163 7.82642 16.4463 8.28641 16.4463L12.6964 16.4463C13.2964 16.4463 13.7964 16.9063 13.8364 17.5063C13.8964 18.2363 13.9664 19.1463 13.9764 19.5863C14.0164 20.7863 14.7464 21.6963 15.9464 21.7263C17.1064 21.7663 17.9464 20.7863 17.9464 19.5863L18.3064 9.97634C18.3264 9.49634 18.6864 9.10634 19.1564 9.05634L19.3264 9.03635C20.8064 8.87634 21.9264 7.62634 21.9264 6.13635L21.9264 5.69634C21.9264 5.22634 21.5664 4.84634 21.0964 4.81635L21.1064 4.79635ZM17.0864 5.72635C16.9664 5.84635 16.8164 5.90635 16.6464 5.90635C16.5264 5.90635 16.4064 5.86635 16.3064 5.80635C16.2064 5.73635 16.1264 5.64635 16.0764 5.52635C16.0264 5.40636 16.0164 5.28635 16.0364 5.16635C16.0564 5.04635 16.1164 4.93635 16.2064 4.84635C16.2964 4.75636 16.4064 4.70635 16.5264 4.67635C16.6464 4.65636 16.7664 4.66635 16.8864 4.71635C16.9964 4.76636 17.0964 4.84635 17.1664 4.94636C17.2364 5.04636 17.2664 5.16636 17.2664 5.28635C17.2664 5.44636 17.2064 5.60635 17.0864 5.72636L17.0864 5.72635Z" fill="rgb(14,17,23)" fill-rule="nonzero" />
</svg>
