<svg viewBox="0 0 24 24" xmlns="http://www.w3.org/2000/svg" xmlns:xlink="http://www.w3.org/1999/xlink" width="24.000000" height="24.000000" fill="none">
	<rect id="24 / Avatar icon / Donkey Fill" width="24.000000" height="24.000000" x="0.000000" y="0.000000" />
	<path id="Vector" d="M21.8506 12.0889C20.4106 9.74891 18.2706 9.27891 17.0306 9.22891C16.7806 9.17891 16.5106 9.14891 16.2006 9.15891L10.4606 9.15891C10.1906 9.15891 9.93063 9.04891 9.73063 8.85891L8.06063 7.18891C8.06063 7.18891 7.97063 7.10891 7.92064 7.06891C7.77063 6.77891 7.73064 6.43891 7.87064 6.13891C8.16064 5.51891 9.53064 3.42891 8.43064 2.92891C7.38064 2.43891 6.84064 4.12891 6.31064 4.78891C6.09064 5.06891 5.89064 5.31891 5.58064 4.80891C5.26064 4.29891 4.65064 2.45891 3.61064 2.96891C2.19064 3.66891 4.45064 5.87891 4.30064 6.63891L2.51064 9.01891C1.97063 9.73891 1.78064 10.7589 2.29063 11.4889C2.49063 11.7789 2.99063 12.2389 3.50063 12.2389C3.50063 12.2389 4.38063 12.4089 5.02063 11.9389C5.28063 11.7489 5.52063 11.5389 5.72063 11.3489C5.99063 11.0989 6.42064 11.1789 6.58064 11.5189C7.08064 12.5889 6.95063 14.6789 6.98064 16.1889C7.00064 17.0489 6.98064 19.2889 6.98064 19.2889C6.98064 20.1389 7.79064 21.1489 8.78064 21.1489C9.77063 21.1489 10.5906 20.1289 10.5906 19.2889L10.5906 17.1089C10.5906 16.5389 11.0506 16.0789 11.6206 16.0789L14.7106 16.0789C15.2806 16.0789 15.7406 16.5389 15.7406 17.1089L15.7406 19.3689C15.7406 20.2189 16.4806 21.1589 17.5506 21.1589C18.6206 21.1589 19.3006 20.2189 19.3006 19.3689L19.3006 16.0189C19.3006 16.0189 19.3006 12.5489 19.3006 12.3889C19.3006 12.3589 19.3006 12.2589 19.2906 12.1189C19.6006 12.3789 19.9006 12.7089 20.1606 13.1389C20.3506 13.4489 20.6806 13.6189 21.0106 13.6189C21.1906 13.6189 21.3706 13.5689 21.5306 13.4689C22.0006 13.1789 22.1506 12.5589 21.8606 12.0889L21.8506 12.0889ZM6.16063 8.33891C6.04063 8.45891 5.88063 8.51891 5.72063 8.51891C5.60064 8.51891 5.48063 8.47891 5.37064 8.40891C5.27064 8.33891 5.19064 8.23891 5.14064 8.12891C5.09064 8.01891 5.08064 7.88891 5.10064 7.76891C5.12064 7.64891 5.18064 7.53891 5.27063 7.44891C5.36063 7.35891 5.47063 7.29891 5.59063 7.27891C5.71063 7.25891 5.84063 7.26891 5.95063 7.31891C6.06063 7.36891 6.16063 7.44891 6.23063 7.54891C6.30063 7.64891 6.34063 7.76891 6.34063 7.89891C6.34063 8.06891 6.27063 8.22891 6.16063 8.33891Z" fill="rgb(14,17,23)" fill-rule="nonzero" />
</svg>
