<svg viewBox="0 0 24 24" xmlns="http://www.w3.org/2000/svg" xmlns:xlink="http://www.w3.org/1999/xlink" width="24.000000" height="24.000000" fill="none">
	<rect id="24 / Document / Content Tree" width="24.000000" height="24.000000" x="0.000000" y="0.000000" />
	<path id="Вектор 19" d="M10.7402 8.40002C11.2903 8.40002 11.7402 7.95 11.7402 7.40002C11.7402 6.84998 11.2903 6.40002 10.7402 6.40002L5.78027 6.40002L5.78027 3.13C5.78027 2.58002 5.33031 2.13 4.78027 2.13C4.23023 2.13 3.78027 2.58002 3.78027 3.13L3.78027 15.45C3.78027 17.68 5.59033 19.49 7.82031 19.49L10.7402 19.49C11.2903 19.49 11.7402 19.04 11.7402 18.49C11.7402 17.94 11.2903 17.49 10.7402 17.49L7.82031 17.49C6.70019 17.49 5.78027 16.58 5.78027 15.45L5.78027 8.40002L10.7402 8.40002ZM17.4602 2.98998L19.9302 5.45L19.9402 5.45C20.1204 5.64003 20.2302 5.89003 20.2302 6.16002L20.2302 10.14C20.2302 10.69 19.7803 11.14 19.2302 11.14L14.2803 11.14C13.7302 11.14 13.2803 10.69 13.2803 10.14L13.2803 3.7C13.2803 3.15002 13.7302 2.7 14.2803 2.7L16.7503 2.7C17.0203 2.7 17.2703 2.79998 17.4602 2.98998ZM15.2703 9.14002L18.2202 9.14002L18.2202 6.58002L16.3303 4.7L15.2703 4.7L15.2703 9.14002ZM17.4502 13.72C17.2603 13.53 17.0103 13.43 16.7402 13.43L14.2703 13.43C13.7202 13.43 13.2703 13.88 13.2703 14.43L13.2703 20.87C13.2703 21.42 13.7202 21.87 14.2703 21.87L19.2202 21.87C19.7703 21.87 20.2202 21.42 20.2202 20.87L20.2202 16.89C20.2202 16.62 20.1104 16.37 19.9302 16.18L17.4602 13.72L17.4502 13.72ZM18.2202 19.87L15.2703 19.87L15.2703 15.43L16.3303 15.43L18.2202 17.31L18.2202 19.87Z" fill="rgb(14,17,23)" fill-rule="evenodd" />
</svg>
