<svg viewBox="0 0 24 24" xmlns="http://www.w3.org/2000/svg" xmlns:xlink="http://www.w3.org/1999/xlink" width="24.000000" height="24.000000" fill="none">
	<rect id="24 / Editor / Delete Row Above" width="24.000000" height="24.000000" x="0.000000" y="0.000000" />
	<path id="Vector 13029" d="M20 12C20 11.45 20.4502 11 21 11C21.5498 11 22 11.45 22 12L22 19.5C22 20.88 20.8799 22 19.5 22L4.5 22C3.12012 22 2 20.88 2 19.5L2 4.5C2 3.12 3.12012 2 4.5 2L11.9902 2C12.54 2 12.9902 2.45002 12.9902 3C12.9902 3.54998 12.54 4 11.9902 4L4.5 4C4.21972 4 4 4.21998 4 4.5L4 14L20 14L20 12ZM16.5898 8.82996C16.2002 9.21998 15.5703 9.21998 15.1807 8.82996C14.79 8.44 14.79 7.81 15.1807 7.41998L16.5898 6.00994L15.1807 4.59998C14.79 4.20996 14.79 3.57996 15.1807 3.18994C15.5703 2.79998 16.2002 2.79998 16.5898 3.18994L18 4.59998L19.4102 3.18994C19.7998 2.79998 20.4307 2.79998 20.8203 3.18994C21.21 3.57996 21.21 4.20996 20.8203 4.59998L19.4102 6.00994L20.8203 7.41998C21.21 7.81 21.21 8.44 20.8203 8.82996C20.4307 9.21998 19.7998 9.21998 19.4102 8.82996L18 7.41998L16.5898 8.82996ZM19.5 20C19.7803 20 20 19.78 20 19.5L20 16L4 16L4 19.5C4 19.78 4.21972 20 4.5 20L19.5 20Z" fill="rgb(14,17,23)" fill-rule="evenodd" />
</svg>
