<svg viewBox="0 0 24 24" xmlns="http://www.w3.org/2000/svg" xmlns:xlink="http://www.w3.org/1999/xlink" width="24.000000" height="24.000000" fill="none">
	<rect id="24 / Editor / Tabs" width="24.000000" height="24.000000" x="0.000000" y="0.000000" />
	<path id="Vector 13114" d="M18.5503 8.50996L19.3804 8.50996C20.7397 8.50996 21.8501 9.57996 21.8501 10.89L21.8501 18.67C21.8501 19.22 21.3999 19.67 20.8501 19.67C20.3003 19.67 19.8501 19.22 19.8501 18.67L19.8501 10.89C19.8501 10.6899 19.6304 10.52 19.3804 10.52L9.77002 10.52L9.77002 6.33996L4.89014 6.33996C4.47998 6.33996 4.1499 6.66998 4.1499 7.07996L4.1499 18.66C4.1499 19.21 3.6997 19.66 3.1499 19.66C2.6001 19.66 2.1499 19.21 2.1499 18.66L2.1499 7.06996C2.1499 5.55994 3.38036 4.32996 4.89014 4.32996L16.2202 4.32996C17.5103 4.32996 18.5503 5.37994 18.5503 6.65998L18.5503 8.50996ZM11.7798 8.50996L16.5503 8.50996L16.5503 6.65998C16.5503 6.47998 16.3999 6.32996 16.2202 6.32996L11.7798 6.32996L11.7798 8.50996ZM16.1401 12.97L7.85986 12.97C7.31006 12.97 6.85986 13.42 6.85986 13.97C6.85986 14.52 7.31006 14.97 7.85986 14.97L16.1401 14.97C16.6899 14.97 17.1401 14.52 17.1401 13.97C17.1401 13.42 16.6899 12.97 16.1401 12.97ZM16.1401 16.14L7.85986 16.14C7.31006 16.14 6.85986 16.59 6.85986 17.14C6.85986 17.6899 7.31006 18.14 7.85986 18.14L16.1401 18.14C16.6899 18.14 17.1401 17.6899 17.1401 17.14C17.1401 16.59 16.6899 16.14 16.1401 16.14Z" fill="rgb(14,17,23)" fill-rule="evenodd" />
</svg>
