<svg viewBox="0 0 24 24" xmlns="http://www.w3.org/2000/svg" xmlns:xlink="http://www.w3.org/1999/xlink" width="24.000000" height="24.000000" fill="none">
	<rect id="24 / Editor / List" width="24.000000" height="24.000000" x="0.000000" y="0.000000" />
	<path id="Vector" d="M5 6C5 6.82842 4.32842 7.5 3.5 7.5C2.67158 7.5 2 6.82842 2 6C2 5.17158 2.67158 4.5 3.5 4.5C4.32842 4.5 5 5.17158 5 6ZM7 6C7 5.44772 7.44772 5 8 5L21 5C21.5523 5 22 5.44772 22 6C22 6.55228 21.5523 7 21 7L8 7C7.44772 7 7 6.55228 7 6ZM3.5 13.5C4.32842 13.5 5 12.8284 5 12C5 11.1716 4.32842 10.5 3.5 10.5C2.67158 10.5 2 11.1716 2 12C2 12.8284 2.67158 13.5 3.5 13.5ZM8 11C7.44772 11 7 11.4477 7 12C7 12.5523 7.44772 13 8 13L21 13C21.5523 13 22 12.5523 22 12C22 11.4477 21.5523 11 21 11L8 11ZM5 18C5 18.8284 4.32842 19.5 3.5 19.5C2.67158 19.5 2 18.8284 2 18C2 17.1716 2.67158 16.5 3.5 16.5C4.32842 16.5 5 17.1716 5 18ZM7 18C7 17.4477 7.44772 17 8 17L21 17C21.5523 17 22 17.4477 22 18C22 18.5523 21.5523 19 21 19L8 19C7.44772 19 7 18.5523 7 18Z" fill="rgb(14,17,23)" fill-rule="evenodd" />
</svg>
