<svg viewBox="0 0 24 24" xmlns="http://www.w3.org/2000/svg" xmlns:xlink="http://www.w3.org/1999/xlink" width="24.000000" height="24.000000" fill="none" customFrame="#000000">
	<rect id="24 / Logo / Divo Mono " width="24.000000" height="23.999998" x="0.000000" y="0.000000" />
	<path id="Vector 12539" d="M2 11.6875C2 7.12073 2 4.8374 3.41895 3.4187C4.8374 2 7.12061 2 11.6875 2L12.3125 2C16.8794 2 19.1626 2 20.5815 3.4187C22 4.8374 22 7.12073 22 11.6875L22 12.3125C22 16.8793 22 19.1626 20.5815 20.5814C19.1626 22 16.8794 22 12.3125 22L11.6875 22C7.12061 22 4.8374 22 3.41895 20.5814C2 19.1626 2 16.8793 2 12.3125L2 11.6875Z" fill="rgb(22,25,27)" fill-rule="evenodd" />
	<path id="Vector 12539" d="M10.3447 12.0927C7.68506 12.9915 6.98438 9.30933 9.35498 7.57556C11.7251 5.84167 14.5205 5.88208 16.4795 7.57471C18.812 9.5896 18.9507 13.7234 15.6938 17.4152L5.96191 17.4152L5.96191 14.5468C5.96191 14.5468 7.38281 15.1554 9.13086 14.5153C10.8784 13.8751 11.6133 12.2402 11.6133 12.2402C11.9951 11.3829 11.8921 10.583 11.3525 10.0731C10.8599 9.60657 10.2246 9.61987 9.67139 10.0135C8.9209 10.5468 9.27344 11.7047 10.3447 11.3282L10.3447 12.0927Z" fill="rgb(22,25,27)" fill-rule="evenodd" />
	<path id="Vector 12539" d="M10.3447 12.0927C7.68506 12.9915 6.98438 9.30933 9.35498 7.57556C11.7251 5.84167 14.5205 5.88208 16.4795 7.57471C18.812 9.5896 18.9507 13.7234 15.6938 17.4152L5.96191 17.4152L5.96191 14.5468C5.96191 14.5468 7.38281 15.1554 9.13086 14.5153C10.8784 13.8751 11.6133 12.2402 11.6133 12.2402C11.9951 11.3829 11.8921 10.583 11.3525 10.0731C10.8599 9.60657 10.2246 9.61987 9.67139 10.0135C8.9209 10.5468 9.27344 11.7047 10.3447 11.3282L10.3447 12.0927Z" fill="rgb(255,254.745,254.745)" fill-rule="evenodd" />
</svg>
