<svg viewBox="0 0 24 24" xmlns="http://www.w3.org/2000/svg" xmlns:xlink="http://www.w3.org/1999/xlink" width="24.000000" height="24.000000" fill="none" customFrame="#000000">
	<rect id="24 / Logo / Yozhka" width="24.000000" height="23.999998" x="0.000000" y="0.000000" />
	<path id="Vector 12551" d="M2 11.6875C2 7.12085 2 4.8374 3.41846 3.4187C4.8374 2 7.12061 2 11.6875 2L12.3125 2C16.8789 2 19.1626 2 20.5815 3.4187C22 4.8374 22 7.12085 22 11.6875L22 12.3125C22 16.8792 22 19.1626 20.5815 20.5813C19.1626 22 16.8789 22 12.3125 22L11.6875 22C7.12061 22 4.8374 22 3.41846 20.5813C2 19.1626 2 16.8792 2 12.3125L2 11.6875Z" fill="rgb(0,85,255)" fill-rule="evenodd" />
	<path id="Vector 12551" d="M11.0879 8.99841C11.1851 8.99841 11.2803 9.01038 11.3726 9.03333C10.7759 8.14404 9.91504 7.58557 8.95801 7.58557C7.15723 7.58557 5.69775 9.56201 5.69775 12C5.69775 14.438 7.15723 16.4144 8.95801 16.4144C10.6016 16.4144 11.9604 14.7684 12.186 12.6277C11.9033 13.004 11.5151 13.2362 11.0879 13.2362C10.2231 13.2362 9.52246 12.2875 9.52246 11.1173C9.52246 9.94714 10.2231 8.99841 11.0879 8.99841Z" fill="rgb(0,85,255)" fill-rule="evenodd" />
	<path id="Vector 12551" d="M11.0879 8.99841C11.1851 8.99841 11.2803 9.01038 11.3726 9.03333C10.7759 8.14404 9.91504 7.58557 8.95801 7.58557C7.15723 7.58557 5.69775 9.56201 5.69775 12C5.69775 14.438 7.15723 16.4144 8.95801 16.4144C10.6016 16.4144 11.9604 14.7684 12.186 12.6277C11.9033 13.004 11.5151 13.2362 11.0879 13.2362C10.2231 13.2362 9.52246 12.2875 9.52246 11.1173C9.52246 9.94714 10.2231 8.99841 11.0879 8.99841Z" fill="rgb(255,255,255)" fill-rule="evenodd" />
	<path id="Vector 12551" d="M12.3911 14.5082C12.9795 15.6599 13.9619 16.4144 15.0747 16.4144C16.7173 16.4144 18.0771 14.7684 18.3018 12.6276C18.019 13.0039 17.6318 13.2362 17.2036 13.2362C16.3394 13.2362 15.6387 12.2875 15.6387 11.1173C15.6387 9.94714 16.3394 8.99841 17.2036 8.99841C17.3013 8.99841 17.3965 9.01038 17.4883 9.03345C16.8926 8.14404 16.0312 7.58557 15.0747 7.58557C13.9619 7.58557 12.9795 8.34009 12.3911 9.49182C12.7158 10.2386 12.8965 11.0967 12.8965 12.0001C12.8965 12.9034 12.7158 13.7616 12.3911 14.5082Z" fill="rgb(0,85,255)" fill-rule="evenodd" />
	<path id="Vector 12551" d="M12.3911 14.5082C12.9795 15.6599 13.9619 16.4144 15.0747 16.4144C16.7173 16.4144 18.0771 14.7684 18.3018 12.6276C18.019 13.0039 17.6318 13.2362 17.2036 13.2362C16.3394 13.2362 15.6387 12.2875 15.6387 11.1173C15.6387 9.94714 16.3394 8.99841 17.2036 8.99841C17.3013 8.99841 17.3965 9.01038 17.4883 9.03345C16.8926 8.14404 16.0312 7.58557 15.0747 7.58557C13.9619 7.58557 12.9795 8.34009 12.3911 9.49182C12.7158 10.2386 12.8965 11.0967 12.8965 12.0001C12.8965 12.9034 12.7158 13.7616 12.3911 14.5082Z" fill="rgb(255,255,255)" fill-rule="evenodd" />
</svg>
