<svg viewBox="0 0 24 24" xmlns="http://www.w3.org/2000/svg" xmlns:xlink="http://www.w3.org/1999/xlink" width="24.000000" height="24.000000" fill="none" customFrame="#000000">
	<rect id="24 / Logo / Strelka" width="24.000000" height="23.999998" x="0.000000" y="0.000000" />
	<path id="Vector 12531" d="M3.41895 3.41882C2 4.83545 2 7.12 2 11.6871L2 12.3129C2 16.88 2 19.1625 3.41895 20.5812C4.83838 22 7.12061 22 11.688 22L12.314 22C16.8813 22 19.1641 22 20.5811 20.5812C22 19.1625 22 16.88 22 12.3129L22 11.6871C22 7.12 22 4.83545 20.5811 3.41663C19.1641 2 16.8813 2 12.312 2L11.688 2C7.12305 2 4.83594 2 3.41895 3.41882Z" fill="rgb(0,85,255)" fill-rule="evenodd" />
	<path id="Vector 12531" d="M17.8633 10.698L17.8633 6.41931L13.5845 6.41919L13.5845 8.7876L15.4946 8.7876L15.4946 10.698L17.8633 10.698ZM9.65771 6.85388C10.3564 6.56433 11.1152 6.41968 11.9341 6.41968L11.9341 8.78809C11.4424 8.78809 10.9868 8.875 10.5669 9.04883C10.1475 9.22266 9.76367 9.4834 9.41602 9.83093C9.06836 10.1786 8.80762 10.5623 8.63379 10.9819C8.46045 11.4015 8.37354 11.8571 8.37354 12.3488C8.37354 12.8403 8.46045 13.296 8.63379 13.7157C8.80762 14.1354 9.06836 14.5189 9.41602 14.8666C9.76367 15.2141 10.1475 15.4749 10.5669 15.6487C10.9868 15.8225 11.4424 15.9094 11.9341 15.9094C12.4258 15.9094 12.8813 15.8225 13.3008 15.6487C13.7202 15.475 14.104 15.2142 14.4517 14.8666C14.7993 14.5189 15.0601 14.1354 15.2339 13.7157C15.4077 13.296 15.4946 12.8405 15.4946 12.3489L17.8628 12.3489C17.8628 13.1675 17.7183 13.9261 17.4287 14.6249C17.1392 15.3236 16.7051 15.9624 16.1265 16.5413C15.5474 17.1201 14.9087 17.5543 14.21 17.8438C13.5112 18.1332 12.7524 18.2778 11.9341 18.2778C11.1152 18.2778 10.3564 18.1332 9.65771 17.8438C8.95898 17.5542 8.32031 17.1201 7.7417 16.5413C7.1626 15.9624 6.72852 15.3236 6.43896 14.6249C6.14941 13.9263 6.00488 13.1675 6.00488 12.3489C6.00488 10.7115 6.5835 9.31409 7.74121 8.15637C8.32031 7.57751 8.95898 7.14331 9.65771 6.85388Z" fill="rgb(0,85,255)" fill-rule="evenodd" />
	<path id="Vector 12531" d="M17.8633 10.698L17.8633 6.41931L13.5845 6.41919L13.5845 8.7876L15.4946 8.7876L15.4946 10.698L17.8633 10.698ZM9.65771 6.85388C10.3564 6.56433 11.1152 6.41968 11.9341 6.41968L11.9341 8.78809C11.4424 8.78809 10.9868 8.875 10.5669 9.04883C10.1475 9.22266 9.76367 9.4834 9.41602 9.83093C9.06836 10.1786 8.80762 10.5623 8.63379 10.9819C8.46045 11.4015 8.37354 11.8571 8.37354 12.3488C8.37354 12.8403 8.46045 13.296 8.63379 13.7157C8.80762 14.1354 9.06836 14.5189 9.41602 14.8666C9.76367 15.2141 10.1475 15.4749 10.5669 15.6487C10.9868 15.8225 11.4424 15.9094 11.9341 15.9094C12.4258 15.9094 12.8813 15.8225 13.3008 15.6487C13.7202 15.475 14.104 15.2142 14.4517 14.8666C14.7993 14.5189 15.0601 14.1354 15.2339 13.7157C15.4077 13.296 15.4946 12.8405 15.4946 12.3489L17.8628 12.3489C17.8628 13.1675 17.7183 13.9261 17.4287 14.6249C17.1392 15.3236 16.7051 15.9624 16.1265 16.5413C15.5474 17.1201 14.9087 17.5543 14.21 17.8438C13.5112 18.1332 12.7524 18.2778 11.9341 18.2778C11.1152 18.2778 10.3564 18.1332 9.65771 17.8438C8.95898 17.5542 8.32031 17.1201 7.7417 16.5413C7.1626 15.9624 6.72852 15.3236 6.43896 14.6249C6.14941 13.9263 6.00488 13.1675 6.00488 12.3489C6.00488 10.7115 6.5835 9.31409 7.74121 8.15637C8.32031 7.57751 8.95898 7.14331 9.65771 6.85388Z" fill="rgb(255,254.745,254.745)" fill-rule="evenodd" />
</svg>
