<svg viewBox="0 0 24 24" xmlns="http://www.w3.org/2000/svg" xmlns:xlink="http://www.w3.org/1999/xlink" width="24.000000" height="24.000000" fill="none" customFrame="#000000">
	<rect id="24 / Logo / Mera Mono" width="24.000000" height="23.999998" x="0.000000" y="0.000000" />
	<path id="Vector 12523" d="M2 11.6875C2 7.12073 2 4.8374 3.41895 3.4187C4.8374 2 7.12061 2 11.6875 2L12.3125 2C16.8794 2 19.1626 2 20.5815 3.4187C22 4.8374 22 7.12073 22 11.6875L22 12.3125C22 16.8793 22 19.1626 20.5815 20.5814C19.1626 22 16.8794 22 12.3125 22L11.6875 22C7.12061 22 4.8374 22 3.41895 20.5814C2 19.1626 2 16.8793 2 12.3125L2 11.6875Z" fill="rgb(22,25,27)" fill-rule="evenodd" />
	<path id="Vector 12523" d="M10.2695 9.31628C10.2695 8.36047 11.0439 7.58557 12 7.58557C12.9561 7.58557 13.7305 8.36047 13.7305 9.31628L13.7305 14.6838C13.7305 15.6396 12.9561 16.4146 12 16.4146C11.0439 16.4146 10.2695 15.6396 10.2695 14.6838L10.2695 9.31628ZM16.4907 7.58557C15.5347 7.58557 14.7598 8.36047 14.7598 9.31628L14.7598 14.6838C14.7598 15.6396 15.5347 16.4146 16.4907 16.4146C17.4463 16.4146 18.2212 15.6396 18.2212 14.6838L18.2212 9.31628C18.2212 8.36047 17.4463 7.58557 16.4907 7.58557ZM5.77881 13.4536C5.77881 12.4978 6.55371 11.7229 7.50928 11.7229C8.46533 11.7229 9.24023 12.4978 9.24023 13.4536L9.24023 14.6838C9.24023 15.6396 8.46533 16.4146 7.50928 16.4146C6.55371 16.4146 5.77881 15.6396 5.77881 14.6838L5.77881 13.4536Z" fill="rgb(22,25,27)" fill-rule="evenodd" />
	<path id="Vector 12523" d="M10.2695 9.31628C10.2695 8.36047 11.0439 7.58557 12 7.58557C12.9561 7.58557 13.7305 8.36047 13.7305 9.31628L13.7305 14.6838C13.7305 15.6396 12.9561 16.4146 12 16.4146C11.0439 16.4146 10.2695 15.6396 10.2695 14.6838L10.2695 9.31628ZM16.4907 7.58557C15.5347 7.58557 14.7598 8.36047 14.7598 9.31628L14.7598 14.6838C14.7598 15.6396 15.5347 16.4146 16.4907 16.4146C17.4463 16.4146 18.2212 15.6396 18.2212 14.6838L18.2212 9.31628C18.2212 8.36047 17.4463 7.58557 16.4907 7.58557ZM5.77881 13.4536C5.77881 12.4978 6.55371 11.7229 7.50928 11.7229C8.46533 11.7229 9.24023 12.4978 9.24023 13.4536L9.24023 14.6838C9.24023 15.6396 8.46533 16.4146 7.50928 16.4146C6.55371 16.4146 5.77881 15.6396 5.77881 14.6838L5.77881 13.4536Z" fill="rgb(255,254.745,254.745)" fill-rule="evenodd" />
</svg>
