<svg viewBox="0 0 24 24" xmlns="http://www.w3.org/2000/svg" xmlns:xlink="http://www.w3.org/1999/xlink" width="24.000000" height="24.000000" fill="none" customFrame="#000000">
	<rect id="24 / Logo / Yaga Mono" width="24.000000" height="23.999998" x="0.000000" y="0.000000" />
	<path id="Vector" d="M2 11.6868C2 7.11974 2 4.83684 3.41842 3.41842C4.83684 2 7.11974 2 11.6868 2L12.3118 2C16.8789 2 19.1618 2 20.5803 3.41842C22 4.83684 22 7.11974 22 11.6868L22 12.3118C22 16.8789 22 19.1618 20.5803 20.5803C19.1618 22 16.8789 22 12.3118 22L11.6868 22C7.11974 22 4.83684 22 3.41842 20.5803C2 19.1618 2 16.8789 2 12.3118L2 11.6868Z" fill="rgb(22,25,27)" fill-rule="evenodd" />
	<path id="Vector" d="M11.4382 7.19221L15.5684 7.19221C16.296 7.19221 16.8868 7.783 16.8868 8.51194C16.8868 9.23957 16.296 9.83036 15.5684 9.83036L12.0066 9.83036C11.4053 9.83036 10.8289 10.0698 10.4039 10.4948L9.67631 11.2225C9.40394 11.4856 8.9421 11.6133 8.575 11.5396C7.96973 11.4185 7.625 11.0014 7.625 10.333C7.625 10.3277 7.65658 9.99879 7.65658 9.99879C7.75131 8.77247 9.23947 7.283 11.2368 7.19615C11.3039 7.19352 11.371 7.19221 11.4382 7.19221ZM15.5605 10.7988L12.9237 10.7988C11.8684 10.7988 11.121 11.1672 10.4724 11.8198L7.58289 14.7277C7.55789 14.7527 7.53157 14.7777 7.50789 14.804L7.44868 14.8633L7.45131 14.8659C7.16315 15.2014 7.03947 15.6014 7.15131 15.9698C7.34342 16.5948 8.14868 16.9146 9.01447 16.7396C9.46184 16.6685 9.87894 16.458 10.2026 16.133L12.0526 14.2817C12.671 13.6646 13.1803 13.4527 14.0553 13.4527L15.5605 13.4527C16.2921 13.4527 16.8855 12.858 16.8855 12.1264C16.8855 11.3935 16.2921 10.8001 15.5605 10.8001L15.5605 10.7988ZM14.3868 14.4159L15.6921 14.4159C16.3526 14.4159 16.8868 14.9514 16.8868 15.6106C16.8868 16.2712 16.3526 16.8067 15.6921 16.8067L14.3868 16.8067C13.7263 16.8067 13.1908 16.2712 13.1908 15.6106C13.1908 14.9514 13.7263 14.4159 14.3868 14.4159Z" fill="rgb(22,25,27)" fill-rule="evenodd" />
	<path id="Vector" d="M11.4382 7.19221L15.5684 7.19221C16.296 7.19221 16.8868 7.783 16.8868 8.51194C16.8868 9.23957 16.296 9.83036 15.5684 9.83036L12.0066 9.83036C11.4053 9.83036 10.8289 10.0698 10.4039 10.4948L9.67631 11.2225C9.40394 11.4856 8.9421 11.6133 8.575 11.5396C7.96973 11.4185 7.625 11.0014 7.625 10.333C7.625 10.3277 7.65658 9.99879 7.65658 9.99879C7.75131 8.77247 9.23947 7.283 11.2368 7.19615C11.3039 7.19352 11.371 7.19221 11.4382 7.19221ZM15.5605 10.7988L12.9237 10.7988C11.8684 10.7988 11.121 11.1672 10.4724 11.8198L7.58289 14.7277C7.55789 14.7527 7.53157 14.7777 7.50789 14.804L7.44868 14.8633L7.45131 14.8659C7.16315 15.2014 7.03947 15.6014 7.15131 15.9698C7.34342 16.5948 8.14868 16.9146 9.01447 16.7396C9.46184 16.6685 9.87894 16.458 10.2026 16.133L12.0526 14.2817C12.671 13.6646 13.1803 13.4527 14.0553 13.4527L15.5605 13.4527C16.2921 13.4527 16.8855 12.858 16.8855 12.1264C16.8855 11.3935 16.2921 10.8001 15.5605 10.8001L15.5605 10.7988ZM14.3868 14.4159L15.6921 14.4159C16.3526 14.4159 16.8868 14.9514 16.8868 15.6106C16.8868 16.2712 16.3526 16.8067 15.6921 16.8067L14.3868 16.8067C13.7263 16.8067 13.1908 16.2712 13.1908 15.6106C13.1908 14.9514 13.7263 14.4159 14.3868 14.4159Z" fill="rgb(255,255,255)" fill-rule="evenodd" />
</svg>
