<svg viewBox="0 0 24 24" xmlns="http://www.w3.org/2000/svg" xmlns:xlink="http://www.w3.org/1999/xlink" width="24.000000" height="24.000000" fill="none" customFrame="#000000">
	<rect id="24 / Logo / Alkion" width="24.000000" height="23.999998" x="0.000000" y="0.000000" />
	<path id="Vector 12515" d="M2 11.6875C2 7.12073 2 4.8374 3.41895 3.4187C4.8374 2 7.12061 2 11.6875 2L12.3125 2C16.8794 2 19.1626 2 20.5815 3.4187C22 4.8374 22 7.12073 22 11.6875L22 12.3125C22 16.8793 22 19.1626 20.5815 20.5814C19.1626 22 16.8794 22 12.3125 22L11.6875 22C7.12061 22 4.8374 22 3.41895 20.5814C2 19.1626 2 16.8793 2 12.3125L2 11.6875Z" fill="rgb(0,85,255)" fill-rule="evenodd" />
	<path id="Vector 12515" d="M16.2358 13.4346C15.8101 12.745 15.7173 11.9456 15.9131 11.2216C16.0166 10.8353 16.2026 10.4717 16.4614 10.1573C16.5044 10.1055 16.458 10.0312 16.3926 10.0453C15.9927 10.1338 15.582 10.1338 15.1895 10.0522C14.4526 9.89758 13.7773 9.45251 13.3525 8.76501L11.4702 5.71814C11.4419 5.67212 11.3755 5.67346 11.3491 5.71936C11.1201 6.11975 10.2954 7.57922 10.1875 7.9928C9.97607 8.80273 10.0342 9.78882 10.5825 10.676C11.1309 11.5629 11.9878 12.1298 12.8257 12.2418C12.8706 12.2478 12.8965 12.2915 12.8823 12.3341C12.605 13.1287 12.7212 14.1398 13.2729 15.0325C13.8213 15.9207 14.6719 16.458 15.5005 16.5961C16.2065 16.7142 18.2783 16.6042 18.1812 16.5854L16.2373 13.4371L16.2358 13.4346Z" fill="rgb(0,85,255)" fill-rule="evenodd" />
	<path id="Vector 12515" d="M16.2358 13.4346C15.8101 12.745 15.7173 11.9456 15.9131 11.2216C16.0166 10.8353 16.2026 10.4717 16.4614 10.1573C16.5044 10.1055 16.458 10.0312 16.3926 10.0453C15.9927 10.1338 15.582 10.1338 15.1895 10.0522C14.4526 9.89758 13.7773 9.45251 13.3525 8.76501L11.4702 5.71814C11.4419 5.67212 11.3755 5.67346 11.3491 5.71936C11.1201 6.11975 10.2954 7.57922 10.1875 7.9928C9.97607 8.80273 10.0342 9.78882 10.5825 10.676C11.1309 11.5629 11.9878 12.1298 12.8257 12.2418C12.8706 12.2478 12.8965 12.2915 12.8823 12.3341C12.605 13.1287 12.7212 14.1398 13.2729 15.0325C13.8213 15.9207 14.6719 16.458 15.5005 16.5961C16.2065 16.7142 18.2783 16.6042 18.1812 16.5854L16.2373 13.4371L16.2358 13.4346Z" fill="rgb(255,255,255)" fill-rule="evenodd" />
	<path id="Vector 12515" d="M10.6064 16.2913C10.2861 16.4873 9.93457 16.5938 9.5835 16.6174C9.5835 16.6174 9.58252 16.6174 9.58008 16.6174L9.29297 16.6174L5.92969 16.6315C5.84424 16.6315 5.78955 16.5428 5.82861 16.4673L7.34912 13.5101C7.34912 13.5101 7.35107 13.5055 7.35254 13.5032L7.49609 13.2233C7.49609 13.2233 7.49707 13.2174 7.49951 13.2161C7.71582 12.8617 8.03369 12.5608 8.44531 12.3611C9.38428 11.9065 10.5425 12.1686 11.189 12.9845C12.04 14.0582 11.7407 15.5958 10.604 16.2913L10.6064 16.2913Z" fill="rgb(0,85,255)" fill-rule="evenodd" />
	<path id="Vector 12515" d="M10.6064 16.2913C10.2861 16.4873 9.93457 16.5938 9.5835 16.6174C9.5835 16.6174 9.58252 16.6174 9.58008 16.6174L9.29297 16.6174L5.92969 16.6315C5.84424 16.6315 5.78955 16.5428 5.82861 16.4673L7.34912 13.5101C7.34912 13.5101 7.35107 13.5055 7.35254 13.5032L7.49609 13.2233C7.49609 13.2233 7.49707 13.2174 7.49951 13.2161C7.71582 12.8617 8.03369 12.5608 8.44531 12.3611C9.38428 11.9065 10.5425 12.1686 11.189 12.9845C12.04 14.0582 11.7407 15.5958 10.604 16.2913L10.6064 16.2913Z" fill="rgb(255,255,255)" fill-rule="evenodd" />
</svg>
