<svg viewBox="0 0 24 24" xmlns="http://www.w3.org/2000/svg" xmlns:xlink="http://www.w3.org/1999/xlink" width="24.000000" height="24.000000" fill="none" customFrame="#000000">
	<rect id="24 / Logo / Zabava" width="24.000000" height="23.999998" x="0.000000" y="0.000000" />
	<path id="Vector 12519" d="M2 11.6875C2 7.12073 2 4.8374 3.41895 3.4187C4.8374 2 7.12061 2 11.6875 2L12.3125 2C16.8794 2 19.1626 2 20.5815 3.4187C22 4.8374 22 7.12073 22 11.6875L22 12.3125C22 16.8793 22 19.1626 20.5815 20.5814C19.1626 22 16.8794 22 12.3125 22L11.6875 22C7.12061 22 4.8374 22 3.41895 20.5814C2 19.1626 2 16.8793 2 12.3125L2 11.6875Z" fill="rgb(0,85,255)" fill-rule="evenodd" />
	<path id="Vector 12519" d="M16.1875 11.2686C15.6748 8.7168 13.4497 5.13367 11.0547 5.50854C8.27588 5.94373 6.38428 8.34583 6.68311 8.79065C6.91992 9.14258 8.45459 8.69666 9.08545 8.495C9.19189 8.46082 9.29297 8.56641 9.25244 8.6709L8.25635 11.2407C6.40576 11.516 5.18896 11.9828 5.18896 12.5123C5.18896 13.3585 8.29736 14.0446 12.1313 14.0446C13.3535 14.0446 14.502 13.9749 15.4995 13.8525C15.6323 13.8362 15.7021 14.0023 15.5918 14.0782C15.0117 14.4769 14.4287 14.6995 13.5132 14.7423C13.6006 14.9275 13.6533 15.1632 13.6533 15.4199C13.6533 16.015 13.3716 16.4974 13.0239 16.4974C12.6763 16.4974 12.3945 16.015 12.3945 15.4199C12.3945 15.1572 12.4492 14.9164 12.5405 14.7294C12.2031 14.7087 11.8281 14.6729 11.4082 14.6215C11.5352 14.8186 11.6152 15.1034 11.6152 15.4199C11.6152 16.015 11.333 16.4974 10.9854 16.4974C10.6377 16.4974 10.356 16.015 10.356 15.4199C10.356 15.064 10.457 14.7483 10.6123 14.552C9.77979 14.5293 9.16113 14.6866 8.70117 14.9021C7.99609 15.2325 7.92725 16.1561 8.39355 16.7797C9.18457 17.8373 10.4263 18.5186 11.8223 18.5186C14.2109 18.5186 16.147 16.5239 16.147 14.0634C16.147 13.9628 16.144 13.863 16.1372 13.7639C17.9141 13.4863 19.0737 13.0293 19.0737 12.5123C19.0737 12.0002 17.9355 11.5469 16.1875 11.2686Z" fill="rgb(0,85,255)" fill-rule="evenodd" />
	<path id="Vector 12519" d="M16.1875 11.2686C15.6748 8.7168 13.4497 5.13367 11.0547 5.50854C8.27588 5.94373 6.38428 8.34583 6.68311 8.79065C6.91992 9.14258 8.45459 8.69666 9.08545 8.495C9.19189 8.46082 9.29297 8.56641 9.25244 8.6709L8.25635 11.2407C6.40576 11.516 5.18896 11.9828 5.18896 12.5123C5.18896 13.3585 8.29736 14.0446 12.1313 14.0446C13.3535 14.0446 14.502 13.9749 15.4995 13.8525C15.6323 13.8362 15.7021 14.0023 15.5918 14.0782C15.0117 14.4769 14.4287 14.6995 13.5132 14.7423C13.6006 14.9275 13.6533 15.1632 13.6533 15.4199C13.6533 16.015 13.3716 16.4974 13.0239 16.4974C12.6763 16.4974 12.3945 16.015 12.3945 15.4199C12.3945 15.1572 12.4492 14.9164 12.5405 14.7294C12.2031 14.7087 11.8281 14.6729 11.4082 14.6215C11.5352 14.8186 11.6152 15.1034 11.6152 15.4199C11.6152 16.015 11.333 16.4974 10.9854 16.4974C10.6377 16.4974 10.356 16.015 10.356 15.4199C10.356 15.064 10.457 14.7483 10.6123 14.552C9.77979 14.5293 9.16113 14.6866 8.70117 14.9021C7.99609 15.2325 7.92725 16.1561 8.39355 16.7797C9.18457 17.8373 10.4263 18.5186 11.8223 18.5186C14.2109 18.5186 16.147 16.5239 16.147 14.0634C16.147 13.9628 16.144 13.863 16.1372 13.7639C17.9141 13.4863 19.0737 13.0293 19.0737 12.5123C19.0737 12.0002 17.9355 11.5469 16.1875 11.2686Z" fill="rgb(255,254.745,254.745)" fill-rule="evenodd" />
</svg>
