<svg viewBox="0 0 24 24" xmlns="http://www.w3.org/2000/svg" xmlns:xlink="http://www.w3.org/1999/xlink" width="24.000000" height="24.000000" fill="none" customFrame="#000000">
	<rect id="24 / Logo / Sirin" width="24.000000" height="23.999998" x="0.000000" y="0.000000" />
	<path id="Vector 12543" d="M2 11.6875C2 7.12085 2 4.83777 3.41895 3.41907C4.8374 2.00037 7.12061 2.00037 11.6875 2.00037L12.3125 2.00037C16.8794 2.00037 19.1626 2.00037 20.5811 3.41907C22 4.83777 22 7.12085 22 11.6875L22 12.3126C22 16.8793 22 19.1624 20.5811 20.5811C19.1626 21.9998 16.8789 21.9998 12.3125 21.9998L11.6875 21.9998C7.12061 21.9998 4.8374 21.9998 3.41895 20.5811C2 19.1624 2 16.8789 2 12.3126L2 11.6875Z" fill="rgb(0,85,255)" fill-rule="evenodd" />
	<path id="Vector 12543" d="M12.001 9.77039L12.001 6.12C12.001 5.93835 12.1484 5.79028 12.3301 5.79968C12.7676 5.82275 13.1938 5.89136 13.6025 6.00061C13.7783 6.04749 13.8726 6.23389 13.8164 6.40649L13.4067 7.6698C13.3506 7.84229 13.4453 8.02649 13.6133 8.09595C13.772 8.16174 13.9258 8.23694 14.0742 8.3208C14.1523 8.36523 14.2451 8.37915 14.332 8.35583L14.6045 8.28284C14.6772 8.26331 14.7412 8.21936 14.7856 8.15833L15.4507 7.24194C15.5571 7.09509 15.7637 7.06165 15.9048 7.1759C16.2397 7.44714 16.5459 7.75317 16.8174 8.0885C16.9316 8.22961 16.8979 8.43579 16.751 8.54248L15.6763 9.32275C15.5293 9.42932 15.3247 9.396 15.207 9.25806C15.1006 9.1333 14.9868 9.01477 14.8667 8.9032C14.7871 8.82935 14.6748 8.80469 14.5698 8.83264L14.3452 8.89294C14.2725 8.91248 14.2085 8.9563 14.1641 9.01733L13.3081 10.1956C13.2241 10.3108 13.0757 10.359 12.9399 10.3149L12.2285 10.0831C12.0928 10.0391 12.001 9.91284 12.001 9.77039ZM9.88672 11.3109L6.41504 10.1829C6.24219 10.1267 6.14697 9.9408 6.21191 9.77124C6.36914 9.36194 6.56641 8.97803 6.79639 8.6228C6.89502 8.47034 7.10156 8.43823 7.24854 8.54504L8.32324 9.32532C8.47021 9.43188 8.6748 9.39844 8.79248 9.26062C8.9043 9.12976 9.02344 9.00647 9.14893 8.89148C9.21533 8.83057 9.25732 8.74695 9.26221 8.65686L9.27686 8.37573C9.28076 8.30054 9.25879 8.22607 9.21436 8.16504L8.54785 7.24829C8.44092 7.10156 8.47266 6.89502 8.625 6.79614C8.98682 6.56116 9.37256 6.36475 9.7749 6.21021C9.94482 6.14526 10.1304 6.24072 10.1865 6.41345L10.5962 7.67688C10.6523 7.84949 10.5571 8.03357 10.3896 8.10303C10.2383 8.16577 10.0908 8.23706 9.94775 8.31677C9.85303 8.36951 9.79492 8.46887 9.78906 8.57715L9.77686 8.81091C9.77295 8.88623 9.79492 8.96057 9.83936 9.02148L10.6948 10.1995C10.7788 10.3148 10.7788 10.4711 10.6948 10.5864L10.2544 11.1915C10.1709 11.3068 10.0225 11.355 9.88672 11.3109ZM17.5894 10.182L14.1177 11.3101C13.9824 11.3541 13.8906 11.4802 13.8901 11.6228L13.8901 12.3712C13.8896 12.5138 13.9814 12.6401 14.1172 12.6842L15.5015 13.1342C15.5732 13.1575 15.6348 13.2046 15.6758 13.2678L15.8032 13.4641C15.8623 13.5551 15.8735 13.6696 15.8281 13.7681C15.7593 13.9166 15.6816 14.0613 15.5962 14.2009C15.5015 14.3556 15.5327 14.5603 15.6792 14.6671L16.7539 15.4482C16.9004 15.5551 17.1069 15.5232 17.2061 15.3708C17.4409 15.0092 17.6372 14.6235 17.792 14.2208C17.8569 14.0514 17.7612 13.8656 17.5889 13.8096L16.5107 13.46C16.439 13.4366 16.3774 13.3894 16.3364 13.3262L16.1831 13.0901C16.1343 13.0145 16.1187 12.9224 16.1367 12.834C16.1709 12.6669 16.1948 12.4972 16.2085 12.3256C16.2227 12.1447 16.3682 11.9976 16.5498 11.9974L17.8779 11.9969C18.0596 11.9969 18.2075 11.8496 18.1978 11.6683C18.1753 11.2456 18.1089 10.8192 17.9956 10.3958C17.9487 10.2202 17.7622 10.1259 17.5894 10.182ZM12.001 11.0604C11.4854 11.0604 11.0674 11.4786 11.0674 11.9944C11.0674 12.5101 11.4854 12.9282 12.001 12.9282C12.5171 12.9282 12.9351 12.5101 12.9351 11.9944C12.9351 11.4786 12.5171 11.0604 12.001 11.0604ZM8.55029 16.7456L10.6958 13.7924C10.7793 13.6771 10.7793 13.5211 10.6958 13.4058L10.2563 12.8C10.1724 12.6847 10.0239 12.6364 9.88818 12.6804L8.50293 13.1304C8.43164 13.1537 8.354 13.1516 8.28369 13.1246L8.06641 13.0413C7.96533 13.0024 7.88867 12.9164 7.86816 12.8099C7.83643 12.6489 7.81396 12.4862 7.80127 12.3225C7.78662 12.1417 7.64111 11.9946 7.45947 11.9945L6.13135 11.9939C5.94971 11.9939 5.80127 12.141 5.81104 12.3223C5.8335 12.7531 5.90137 13.1804 6.0127 13.597C6.06006 13.7725 6.24609 13.8667 6.41895 13.8104L7.49561 13.4601C7.56738 13.4368 7.64502 13.4388 7.71533 13.4658L7.97852 13.5669C8.06299 13.5992 8.12939 13.6648 8.16699 13.7468C8.2373 13.9019 8.31787 14.0531 8.40771 14.1996C8.50244 14.3544 8.4707 14.5592 8.32422 14.6658L7.25 15.4468C7.10303 15.5536 7.06982 15.7599 7.18408 15.9009C7.45068 16.2296 7.75537 16.5356 8.0957 16.8115C8.2373 16.9259 8.44336 16.8926 8.55029 16.7456ZM13.3081 13.8029L15.4536 16.7561C15.5605 16.9031 15.5283 17.1096 15.376 17.2085C15.0083 17.4473 14.623 17.6421 14.228 17.7942C14.0586 17.8594 13.8726 17.764 13.8164 17.5913L13.4058 16.3284C13.3496 16.1559 13.1646 16.0627 12.9883 16.105C12.8208 16.145 12.6523 16.1748 12.4829 16.1941C12.3931 16.2042 12.3101 16.2473 12.2534 16.3173L12.0767 16.5358C12.0293 16.5944 12.0034 16.6676 12.0034 16.7429L12.0039 17.876C12.0039 18.0575 11.8569 18.2057 11.6753 18.1963C11.2446 18.1737 10.8174 18.1061 10.4009 17.9943C10.2251 17.9473 10.1313 17.7609 10.1875 17.5883L10.5981 16.3251C10.6543 16.1526 10.8394 16.0593 11.0156 16.1018C11.1753 16.14 11.3369 16.1689 11.4995 16.1886C11.6069 16.2017 11.7124 16.1555 11.7808 16.0712L11.9272 15.8903C11.9751 15.8317 12.001 15.7587 12.001 15.6832L12.001 14.2271C12.001 14.0845 12.0928 13.9583 12.2285 13.9142L12.9404 13.6833C13.0757 13.6394 13.2241 13.6876 13.3081 13.8029Z" fill="rgb(0,85,255)" fill-rule="evenodd" />
	<path id="Vector 12543" d="M12.001 9.77039L12.001 6.12C12.001 5.93835 12.1484 5.79028 12.3301 5.79968C12.7676 5.82275 13.1938 5.89136 13.6025 6.00061C13.7783 6.04749 13.8726 6.23389 13.8164 6.40649L13.4067 7.6698C13.3506 7.84229 13.4453 8.02649 13.6133 8.09595C13.772 8.16174 13.9258 8.23694 14.0742 8.3208C14.1523 8.36523 14.2451 8.37915 14.332 8.35583L14.6045 8.28284C14.6772 8.26331 14.7412 8.21936 14.7856 8.15833L15.4507 7.24194C15.5571 7.09509 15.7637 7.06165 15.9048 7.1759C16.2397 7.44714 16.5459 7.75317 16.8174 8.0885C16.9316 8.22961 16.8979 8.43579 16.751 8.54248L15.6763 9.32275C15.5293 9.42932 15.3247 9.396 15.207 9.25806C15.1006 9.1333 14.9868 9.01477 14.8667 8.9032C14.7871 8.82935 14.6748 8.80469 14.5698 8.83264L14.3452 8.89294C14.2725 8.91248 14.2085 8.9563 14.1641 9.01733L13.3081 10.1956C13.2241 10.3108 13.0757 10.359 12.9399 10.3149L12.2285 10.0831C12.0928 10.0391 12.001 9.91284 12.001 9.77039ZM9.88672 11.3109L6.41504 10.1829C6.24219 10.1267 6.14697 9.9408 6.21191 9.77124C6.36914 9.36194 6.56641 8.97803 6.79639 8.6228C6.89502 8.47034 7.10156 8.43823 7.24854 8.54504L8.32324 9.32532C8.47021 9.43188 8.6748 9.39844 8.79248 9.26062C8.9043 9.12976 9.02344 9.00647 9.14893 8.89148C9.21533 8.83057 9.25732 8.74695 9.26221 8.65686L9.27686 8.37573C9.28076 8.30054 9.25879 8.22607 9.21436 8.16504L8.54785 7.24829C8.44092 7.10156 8.47266 6.89502 8.625 6.79614C8.98682 6.56116 9.37256 6.36475 9.7749 6.21021C9.94482 6.14526 10.1304 6.24072 10.1865 6.41345L10.5962 7.67688C10.6523 7.84949 10.5571 8.03357 10.3896 8.10303C10.2383 8.16577 10.0908 8.23706 9.94775 8.31677C9.85303 8.36951 9.79492 8.46887 9.78906 8.57715L9.77686 8.81091C9.77295 8.88623 9.79492 8.96057 9.83936 9.02148L10.6948 10.1995C10.7788 10.3148 10.7788 10.4711 10.6948 10.5864L10.2544 11.1915C10.1709 11.3068 10.0225 11.355 9.88672 11.3109ZM17.5894 10.182L14.1177 11.3101C13.9824 11.3541 13.8906 11.4802 13.8901 11.6228L13.8901 12.3712C13.8896 12.5138 13.9814 12.6401 14.1172 12.6842L15.5015 13.1342C15.5732 13.1575 15.6348 13.2046 15.6758 13.2678L15.8032 13.4641C15.8623 13.5551 15.8735 13.6696 15.8281 13.7681C15.7593 13.9166 15.6816 14.0613 15.5962 14.2009C15.5015 14.3556 15.5327 14.5603 15.6792 14.6671L16.7539 15.4482C16.9004 15.5551 17.1069 15.5232 17.2061 15.3708C17.4409 15.0092 17.6372 14.6235 17.792 14.2208C17.8569 14.0514 17.7612 13.8656 17.5889 13.8096L16.5107 13.46C16.439 13.4366 16.3774 13.3894 16.3364 13.3262L16.1831 13.0901C16.1343 13.0145 16.1187 12.9224 16.1367 12.834C16.1709 12.6669 16.1948 12.4972 16.2085 12.3256C16.2227 12.1447 16.3682 11.9976 16.5498 11.9974L17.8779 11.9969C18.0596 11.9969 18.2075 11.8496 18.1978 11.6683C18.1753 11.2456 18.1089 10.8192 17.9956 10.3958C17.9487 10.2202 17.7622 10.1259 17.5894 10.182ZM12.001 11.0604C11.4854 11.0604 11.0674 11.4786 11.0674 11.9944C11.0674 12.5101 11.4854 12.9282 12.001 12.9282C12.5171 12.9282 12.9351 12.5101 12.9351 11.9944C12.9351 11.4786 12.5171 11.0604 12.001 11.0604ZM8.55029 16.7456L10.6958 13.7924C10.7793 13.6771 10.7793 13.5211 10.6958 13.4058L10.2563 12.8C10.1724 12.6847 10.0239 12.6364 9.88818 12.6804L8.50293 13.1304C8.43164 13.1537 8.354 13.1516 8.28369 13.1246L8.06641 13.0413C7.96533 13.0024 7.88867 12.9164 7.86816 12.8099C7.83643 12.6489 7.81396 12.4862 7.80127 12.3225C7.78662 12.1417 7.64111 11.9946 7.45947 11.9945L6.13135 11.9939C5.94971 11.9939 5.80127 12.141 5.81104 12.3223C5.8335 12.7531 5.90137 13.1804 6.0127 13.597C6.06006 13.7725 6.24609 13.8667 6.41895 13.8104L7.49561 13.4601C7.56738 13.4368 7.64502 13.4388 7.71533 13.4658L7.97852 13.5669C8.06299 13.5992 8.12939 13.6648 8.16699 13.7468C8.2373 13.9019 8.31787 14.0531 8.40771 14.1996C8.50244 14.3544 8.4707 14.5592 8.32422 14.6658L7.25 15.4468C7.10303 15.5536 7.06982 15.7599 7.18408 15.9009C7.45068 16.2296 7.75537 16.5356 8.0957 16.8115C8.2373 16.9259 8.44336 16.8926 8.55029 16.7456ZM13.3081 13.8029L15.4536 16.7561C15.5605 16.9031 15.5283 17.1096 15.376 17.2085C15.0083 17.4473 14.623 17.6421 14.228 17.7942C14.0586 17.8594 13.8726 17.764 13.8164 17.5913L13.4058 16.3284C13.3496 16.1559 13.1646 16.0627 12.9883 16.105C12.8208 16.145 12.6523 16.1748 12.4829 16.1941C12.3931 16.2042 12.3101 16.2473 12.2534 16.3173L12.0767 16.5358C12.0293 16.5944 12.0034 16.6676 12.0034 16.7429L12.0039 17.876C12.0039 18.0575 11.8569 18.2057 11.6753 18.1963C11.2446 18.1737 10.8174 18.1061 10.4009 17.9943C10.2251 17.9473 10.1313 17.7609 10.1875 17.5883L10.5981 16.3251C10.6543 16.1526 10.8394 16.0593 11.0156 16.1018C11.1753 16.14 11.3369 16.1689 11.4995 16.1886C11.6069 16.2017 11.7124 16.1555 11.7808 16.0712L11.9272 15.8903C11.9751 15.8317 12.001 15.7587 12.001 15.6832L12.001 14.2271C12.001 14.0845 12.0928 13.9583 12.2285 13.9142L12.9404 13.6833C13.0757 13.6394 13.2241 13.6876 13.3081 13.8029Z" fill="rgb(255,254.745,254.745)" fill-rule="evenodd" />
</svg>
