<svg viewBox="0 0 24 24" xmlns="http://www.w3.org/2000/svg" xmlns:xlink="http://www.w3.org/1999/xlink" width="24.000000" height="24.000000" fill="none" customFrame="#000000">
	<rect id="24 / Logo / Akola Mono" width="24.000000" height="23.999998" x="0.000000" y="0.000000" />
	<path id="Vector 12535" d="M2 11.6875C2 7.12073 2 4.8374 3.41895 3.4187C4.8374 2 7.12061 2 11.6875 2L12.3125 2C16.8794 2 19.1626 2 20.5815 3.4187C22 4.8374 22 7.12073 22 11.6875L22 12.3125C22 16.8793 22 19.1626 20.5815 20.5814C19.1626 22 16.8794 22 12.3125 22L11.6875 22C7.12061 22 4.8374 22 3.41895 20.5814C2 19.1626 2 16.8793 2 12.3125L2 11.6875Z" fill="rgb(22,25,27)" fill-rule="evenodd" />
	<path id="Vector 12535" d="M10.2817 8.08435L9.60205 8.08435C8.96875 8.08435 8.4707 7.59326 8.4707 6.96826C8.4707 6.34338 8.96875 5.85229 9.60205 5.85229L16.2676 5.85229C16.9009 5.85229 17.3989 6.34338 17.3989 6.96826C17.3989 7.59326 16.9009 8.08435 16.2676 8.08435L13.7144 8.08435L13.7041 8.06628C12.9551 6.74646 11.041 6.74646 10.292 8.06628L10.2817 8.08435ZM10.084 8.43384L8.81836 10.6658L6.27783 10.6658C5.64795 10.6658 5.15283 10.1747 5.15283 9.5498C5.15283 8.92493 5.64795 8.43384 6.27783 8.43384L10.084 8.43384ZM15.3188 10.6658L15.1782 10.6658L13.9126 8.43384L15.3188 8.43384C15.9487 8.43384 16.4443 8.92493 16.4443 9.5498C16.4443 10.1747 15.9487 10.6658 15.3188 10.6658ZM8.62012 11.0154L7.36377 13.2314C6.83398 13.1425 6.44092 12.6906 6.44092 12.1313C6.44092 11.5063 6.93164 11.0154 7.55566 11.0154L8.62012 11.0154ZM16.6416 13.2473L15.3765 11.0154L16.8809 11.0154C17.5049 11.0154 17.9956 11.5063 17.9956 12.1313C17.9956 12.7562 17.5049 13.2473 16.8809 13.2473L16.6416 13.2473ZM10.8545 15.8289L6.27832 15.8289C5.64795 15.8289 5.15283 15.3378 5.15283 14.7129C5.15283 14.0879 5.64795 13.5968 6.27832 13.5968L10.8545 13.5968C11.4849 13.5968 11.98 14.0879 11.98 14.7129C11.98 15.3378 11.4849 15.8289 10.8545 15.8289ZM17.1528 14.1489L16.8398 13.5968L17.7236 13.5968C18.3525 13.5968 18.8472 14.0879 18.8472 14.7129C18.8472 15.3378 18.3525 15.8289 17.7236 15.8289L17.2632 15.8289C17.3564 15.6001 17.4067 15.3531 17.4067 15.1008C17.4067 14.7833 17.3271 14.4574 17.1528 14.1489ZM11.8174 17.0441L15.2598 17.0441C15.2778 17.1244 15.2871 17.2079 15.2871 17.2943C15.2871 17.9193 14.7915 18.4104 14.1606 18.4104L12.9165 18.4104C12.2856 18.4104 11.79 17.9193 11.79 17.2943C11.79 17.2079 11.7998 17.1244 11.8174 17.0441Z" fill="rgb(22,25,27)" fill-rule="evenodd" />
	<path id="Vector 12535" d="M10.2817 8.08435L9.60205 8.08435C8.96875 8.08435 8.4707 7.59326 8.4707 6.96826C8.4707 6.34338 8.96875 5.85229 9.60205 5.85229L16.2676 5.85229C16.9009 5.85229 17.3989 6.34338 17.3989 6.96826C17.3989 7.59326 16.9009 8.08435 16.2676 8.08435L13.7144 8.08435L13.7041 8.06628C12.9551 6.74646 11.041 6.74646 10.292 8.06628L10.2817 8.08435ZM10.084 8.43384L8.81836 10.6658L6.27783 10.6658C5.64795 10.6658 5.15283 10.1747 5.15283 9.5498C5.15283 8.92493 5.64795 8.43384 6.27783 8.43384L10.084 8.43384ZM15.3188 10.6658L15.1782 10.6658L13.9126 8.43384L15.3188 8.43384C15.9487 8.43384 16.4443 8.92493 16.4443 9.5498C16.4443 10.1747 15.9487 10.6658 15.3188 10.6658ZM8.62012 11.0154L7.36377 13.2314C6.83398 13.1425 6.44092 12.6906 6.44092 12.1313C6.44092 11.5063 6.93164 11.0154 7.55566 11.0154L8.62012 11.0154ZM16.6416 13.2473L15.3765 11.0154L16.8809 11.0154C17.5049 11.0154 17.9956 11.5063 17.9956 12.1313C17.9956 12.7562 17.5049 13.2473 16.8809 13.2473L16.6416 13.2473ZM10.8545 15.8289L6.27832 15.8289C5.64795 15.8289 5.15283 15.3378 5.15283 14.7129C5.15283 14.0879 5.64795 13.5968 6.27832 13.5968L10.8545 13.5968C11.4849 13.5968 11.98 14.0879 11.98 14.7129C11.98 15.3378 11.4849 15.8289 10.8545 15.8289ZM17.1528 14.1489L16.8398 13.5968L17.7236 13.5968C18.3525 13.5968 18.8472 14.0879 18.8472 14.7129C18.8472 15.3378 18.3525 15.8289 17.7236 15.8289L17.2632 15.8289C17.3564 15.6001 17.4067 15.3531 17.4067 15.1008C17.4067 14.7833 17.3271 14.4574 17.1528 14.1489ZM11.8174 17.0441L15.2598 17.0441C15.2778 17.1244 15.2871 17.2079 15.2871 17.2943C15.2871 17.9193 14.7915 18.4104 14.1606 18.4104L12.9165 18.4104C12.2856 18.4104 11.79 17.9193 11.79 17.2943C11.79 17.2079 11.7998 17.1244 11.8174 17.0441Z" fill="rgb(255,255,255)" fill-rule="evenodd" />
</svg>
