<svg viewBox="0 0 24 24" xmlns="http://www.w3.org/2000/svg" xmlns:xlink="http://www.w3.org/1999/xlink" width="24.000000" height="24.000000" fill="none" customFrame="#000000">
	<rect id="24 / Logo / Sokol" width="24.000000" height="23.999998" x="0.000000" y="0.000000" />
	<path id="Вектор 49" d="M2 11.6875C2 7.12073 2 4.8374 3.41895 3.4187C4.83789 2 7.12109 2 11.6875 2L12.3125 2C16.8789 2 19.1621 2 20.5811 3.4187C22 4.8374 22 7.12073 22 11.6875L22 12.3125C22 16.8793 22 19.1626 20.5811 20.5814C19.1621 22 16.8789 22 12.3125 22L11.6875 22C7.12109 22 4.83789 22 3.41895 20.5814C2 19.1626 2 16.8793 2 12.3125L2 11.6875Z" fill="rgb(0,85,255)" fill-rule="evenodd" />
	<path id="Вектор 49" d="M16.1631 11.5638C16.082 12.3062 15.6289 12.9155 14.957 13.2004C14.0703 13.5752 13.0146 13.2795 12.4561 12.4545C12.0459 11.8488 12.0068 11.0813 12.3506 10.4347C12.6943 9.78821 13.2793 9.41943 13.957 9.32837C14.083 9.31165 14.123 9.14648 14.0225 9.06982C13.2812 8.57654 12.3506 8.46155 11.5312 8.81958C10.8057 9.13574 10.291 9.73914 10.0527 10.4982C9.66309 11.7433 10.0615 13.0879 10.9248 14.0505C12.0586 15.3173 13.8369 15.8201 15.4629 15.328C16.3809 15.0502 17.1533 14.4468 17.6299 13.6099C18.168 12.6688 18.2461 11.468 17.9834 10.418C17.6943 9.26624 17.0557 8.24976 16.1846 7.46423C14.1484 5.62646 11.1445 5.35352 8.80859 6.77588C7.06543 7.83789 5.9375 9.72473 5.87402 11.7913C5.83691 13.0029 6.14648 14.1726 6.77539 15.1963C8.10352 17.3586 10.5605 18.4457 13.0469 18.0482C14.2646 17.853 15.376 17.3094 16.2715 16.4606C16.4248 16.3145 16.5723 16.1661 16.71 16.0116C16.8213 15.8859 16.666 15.7039 16.5234 15.7937C16.3154 15.923 16.0947 16.0356 15.8594 16.129C14.0762 16.8413 12.0498 16.7432 10.3467 15.8524C8.88574 15.0873 7.79004 13.6829 7.74707 11.9948C7.70898 10.4766 8.48535 9.06262 9.74805 8.25085C11.3398 7.22961 13.415 7.37927 14.8477 8.61487C15.6729 9.32605 16.2842 10.4347 16.1621 11.5638L16.1631 11.5638Z" fill="rgb(0,85,255)" fill-rule="evenodd" />
	<path id="Вектор 49" d="M16.1631 11.5638C16.082 12.3062 15.6289 12.9155 14.957 13.2004C14.0703 13.5752 13.0146 13.2795 12.4561 12.4545C12.0459 11.8488 12.0068 11.0813 12.3506 10.4347C12.6943 9.78821 13.2793 9.41943 13.957 9.32837C14.083 9.31165 14.123 9.14648 14.0225 9.06982C13.2812 8.57654 12.3506 8.46155 11.5312 8.81958C10.8057 9.13574 10.291 9.73914 10.0527 10.4982C9.66309 11.7433 10.0615 13.0879 10.9248 14.0505C12.0586 15.3173 13.8369 15.8201 15.4629 15.328C16.3809 15.0502 17.1533 14.4468 17.6299 13.6099C18.168 12.6688 18.2461 11.468 17.9834 10.418C17.6943 9.26624 17.0557 8.24976 16.1846 7.46423C14.1484 5.62646 11.1445 5.35352 8.80859 6.77588C7.06543 7.83789 5.9375 9.72473 5.87402 11.7913C5.83691 13.0029 6.14648 14.1726 6.77539 15.1963C8.10352 17.3586 10.5605 18.4457 13.0469 18.0482C14.2646 17.853 15.376 17.3094 16.2715 16.4606C16.4248 16.3145 16.5723 16.1661 16.71 16.0116C16.8213 15.8859 16.666 15.7039 16.5234 15.7937C16.3154 15.923 16.0947 16.0356 15.8594 16.129C14.0762 16.8413 12.0498 16.7432 10.3467 15.8524C8.88574 15.0873 7.79004 13.6829 7.74707 11.9948C7.70898 10.4766 8.48535 9.06262 9.74805 8.25085C11.3398 7.22961 13.415 7.37927 14.8477 8.61487C15.6729 9.32605 16.2842 10.4347 16.1621 11.5638L16.1631 11.5638Z" fill="rgb(255,254.745,254.745)" fill-rule="evenodd" />
</svg>
