<svg viewBox="0 0 24 24" xmlns="http://www.w3.org/2000/svg" xmlns:xlink="http://www.w3.org/1999/xlink" width="24.000000" height="24.000000" fill="none" customFrame="#000000">
	<rect id="24 / Logo / Teremok" width="24.000000" height="23.999998" x="0.000000" y="0.000000" />
	<path id="Vector 12527" d="M2 11.6875C2 7.12073 2 4.8374 3.41895 3.4187C4.8374 2 7.12061 2 11.6875 2L12.3125 2C16.8794 2 19.1626 2 20.5815 3.4187C22 4.8374 22 7.12073 22 11.6875L22 12.3125C22 16.8793 22 19.1626 20.5815 20.5814C19.1626 22 16.8794 22 12.3125 22L11.6875 22C7.12061 22 4.8374 22 3.41895 20.5814C2 19.1626 2 16.8793 2 12.3125L2 11.6875Z" fill="rgb(0,85,255)" fill-rule="evenodd" />
	<path id="Vector 12527" d="M13.2891 6.20569L11.1763 6.20569C10.9507 6.20569 10.8296 6.47083 10.9771 6.64124L16.0098 12.4475C16.1577 12.6179 16.0366 12.8831 15.811 12.8831L14.6899 12.8831C14.5718 12.8831 14.4683 12.9615 14.4365 13.0751L13.6636 15.8285C13.6318 15.942 13.5283 16.0205 13.4102 16.0205L10.6099 16.0205C10.4917 16.0205 10.3882 15.942 10.3564 15.8285L9.58154 13.0676C9.54932 12.9541 9.4458 12.8756 9.32812 12.8756L8.21191 12.8756C7.98535 12.8756 7.86475 12.608 8.01465 12.4381L11.1738 8.86267C11.2598 8.76514 11.2617 8.61926 11.1782 8.51941L10.0293 7.14832C9.9248 7.02393 9.73389 7.02271 9.62793 7.14563L4.90723 12.6285C4.76025 12.7992 4.88135 13.0635 5.10645 13.0635L6.91992 13.0635C7.0376 13.0635 7.14111 13.142 7.17334 13.2555L8.39014 17.5918C8.42236 17.7054 8.52588 17.7838 8.64355 17.7838L10.1104 17.7838L13.8721 17.7928L15.3745 17.7915C15.4922 17.7915 15.5957 17.713 15.6274 17.5995L16.8477 13.2523C16.8799 13.1388 16.9834 13.0603 17.1011 13.0603L18.8931 13.0603C19.1187 13.0603 19.2397 12.7952 19.0923 12.6248L13.687 6.38733C13.5869 6.27197 13.4419 6.20569 13.2891 6.20569Z" fill="rgb(0,85,255)" fill-rule="evenodd" />
	<path id="Vector 12527" d="M13.2891 6.20569L11.1763 6.20569C10.9507 6.20569 10.8296 6.47083 10.9771 6.64124L16.0098 12.4475C16.1577 12.6179 16.0366 12.8831 15.811 12.8831L14.6899 12.8831C14.5718 12.8831 14.4683 12.9615 14.4365 13.0751L13.6636 15.8285C13.6318 15.942 13.5283 16.0205 13.4102 16.0205L10.6099 16.0205C10.4917 16.0205 10.3882 15.942 10.3564 15.8285L9.58154 13.0676C9.54932 12.9541 9.4458 12.8756 9.32812 12.8756L8.21191 12.8756C7.98535 12.8756 7.86475 12.608 8.01465 12.4381L11.1738 8.86267C11.2598 8.76514 11.2617 8.61926 11.1782 8.51941L10.0293 7.14832C9.9248 7.02393 9.73389 7.02271 9.62793 7.14563L4.90723 12.6285C4.76025 12.7992 4.88135 13.0635 5.10645 13.0635L6.91992 13.0635C7.0376 13.0635 7.14111 13.142 7.17334 13.2555L8.39014 17.5918C8.42236 17.7054 8.52588 17.7838 8.64355 17.7838L10.1104 17.7838L13.8721 17.7928L15.3745 17.7915C15.4922 17.7915 15.5957 17.713 15.6274 17.5995L16.8477 13.2523C16.8799 13.1388 16.9834 13.0603 17.1011 13.0603L18.8931 13.0603C19.1187 13.0603 19.2397 12.7952 19.0923 12.6248L13.687 6.38733C13.5869 6.27197 13.4419 6.20569 13.2891 6.20569Z" fill="rgb(255,255,255)" fill-rule="evenodd" />
</svg>
