<svg viewBox="0 0 24 24" xmlns="http://www.w3.org/2000/svg" xmlns:xlink="http://www.w3.org/1999/xlink" width="24.000000" height="24.000000" fill="none" customFrame="#000000">
	<rect id="24 / Logo / Yarmarka" width="24.000000" height="23.999998" x="0.000000" y="0.000000" />
	<path id="Vector 12547" d="M22 11.6875C22 7.12073 22 4.83765 20.5815 3.41882C19.1626 2.00012 16.8794 2.00012 12.3125 2.00012L11.6875 2.00012C7.12061 2.00012 4.8374 2.00012 3.41895 3.41882C2 4.83765 2 7.12073 2 11.6875L2 12.3127C2 16.8795 2 19.1625 3.41895 20.5813C4.8374 22 7.12109 22 11.6875 22L12.3125 22C16.8794 22 19.1626 22 20.5815 20.5813C22 19.1625 22 16.8789 22 12.3127L22 11.6875Z" fill="rgb(0,85,255)" fill-rule="evenodd" />
	<path id="Vector 12547" d="M10.4956 6.51355L10.4956 8.36975L12 9.87378L13.5034 8.36975L13.5034 6.51355C13.5034 6.20825 13.2563 5.96057 12.9502 5.96057L11.0483 5.96057C10.7432 5.96057 10.4956 6.20825 10.4956 6.51355Z" fill="rgb(0,85,255)" fill-rule="evenodd" />
	<path id="Vector 12547" d="M10.4956 6.51355L10.4956 8.36975L12 9.87378L13.5034 8.36975L13.5034 6.51355C13.5034 6.20825 13.2563 5.96057 12.9502 5.96057L11.0483 5.96057C10.7432 5.96057 10.4956 6.20825 10.4956 6.51355Z" fill="rgb(255,255,255)" fill-rule="evenodd" />
	<path id="Vector 12547" d="M10.4956 8.36975L9.18311 7.05737C8.96729 6.84131 8.61768 6.84131 8.40186 7.05737L7.05664 8.40186C6.84033 8.61792 6.84033 8.96826 7.05664 9.18433L8.36816 10.496L10.4956 10.496L10.4956 8.36975Z" fill="rgb(0,85,255)" fill-rule="evenodd" />
	<path id="Vector 12547" d="M10.4956 8.36975L9.18311 7.05737C8.96729 6.84131 8.61768 6.84131 8.40186 7.05737L7.05664 8.40186C6.84033 8.61792 6.84033 8.96826 7.05664 9.18433L8.36816 10.496L10.4956 10.496L10.4956 8.36975Z" fill="rgb(255,255,255)" fill-rule="evenodd" />
	<path id="Vector 12547" d="M14.8159 7.05737L13.5034 8.36975L13.5034 10.496L15.6309 10.496L16.9429 9.18433C17.1587 8.96826 17.1587 8.61792 16.9429 8.40186L15.5981 7.05737C15.3823 6.84131 15.0317 6.84131 14.8159 7.05737Z" fill="rgb(0,85,255)" fill-rule="evenodd" />
	<path id="Vector 12547" d="M14.8159 7.05737L13.5034 8.36975L13.5034 10.496L15.6309 10.496L16.9429 9.18433C17.1587 8.96826 17.1587 8.61792 16.9429 8.40186L15.5981 7.05737C15.3823 6.84131 15.0317 6.84131 14.8159 7.05737Z" fill="rgb(255,255,255)" fill-rule="evenodd" />
	<path id="Vector 12547" d="M16.9429 14.8164L15.6304 13.5042L13.5034 13.5042L13.5034 15.631L14.8159 16.9434C15.0317 17.1588 15.3823 17.1588 15.5972 16.9434L16.9429 15.5983C17.1587 15.3822 17.1587 15.032 16.9429 14.8164Z" fill="rgb(0,85,255)" fill-rule="evenodd" />
	<path id="Vector 12547" d="M16.9429 14.8164L15.6304 13.5042L13.5034 13.5042L13.5034 15.631L14.8159 16.9434C15.0317 17.1588 15.3823 17.1588 15.5972 16.9434L16.9429 15.5983C17.1587 15.3822 17.1587 15.032 16.9429 14.8164Z" fill="rgb(255,255,255)" fill-rule="evenodd" />
	<path id="Vector 12547" d="M10.4956 15.6317L10.4956 17.4866C10.4956 17.7919 10.7432 18.0396 11.0483 18.0396L12.9502 18.0396C13.2563 18.0396 13.5034 17.7919 13.5034 17.4866L13.5034 15.631L12 14.1276L10.4956 15.6317Z" fill="rgb(0,85,255)" fill-rule="evenodd" />
	<path id="Vector 12547" d="M10.4956 15.6317L10.4956 17.4866C10.4956 17.7919 10.7432 18.0396 11.0483 18.0396L12.9502 18.0396C13.2563 18.0396 13.5034 17.7919 13.5034 17.4866L13.5034 15.631L12 14.1276L10.4956 15.6317Z" fill="rgb(255,255,255)" fill-rule="evenodd" />
	<path id="Vector 12547" d="M8.36963 13.5042L10.4956 13.5042L10.4956 15.6317L9.18408 16.9434C8.96777 17.1588 8.61768 17.1588 8.40186 16.9434L7.05713 15.5983C6.84082 15.3822 6.84082 15.032 7.05713 14.8164L8.36963 13.5042Z" fill="rgb(0,85,255)" fill-rule="evenodd" />
	<path id="Vector 12547" d="M8.36963 13.5042L10.4956 13.5042L10.4956 15.6317L9.18408 16.9434C8.96777 17.1588 8.61768 17.1588 8.40186 16.9434L7.05713 15.5983C6.84082 15.3822 6.84082 15.032 7.05713 14.8164L8.36963 13.5042Z" fill="rgb(255,255,255)" fill-rule="evenodd" />
	<path id="Vector 12547" d="M8.36963 13.5042L6.51318 13.5042C6.20801 13.5042 5.96045 13.2565 5.96045 12.9513L5.96045 11.0488C5.96045 10.7437 6.20801 10.496 6.51318 10.496L8.36816 10.496L9.87305 12.0006L8.36963 13.5042Z" fill="rgb(0,85,255)" fill-rule="evenodd" />
	<path id="Vector 12547" d="M8.36963 13.5042L6.51318 13.5042C6.20801 13.5042 5.96045 13.2565 5.96045 12.9513L5.96045 11.0488C5.96045 10.7437 6.20801 10.496 6.51318 10.496L8.36816 10.496L9.87305 12.0006L8.36963 13.5042Z" fill="rgb(255,255,255)" fill-rule="evenodd" />
	<path id="Vector 12547" d="M17.4863 13.5042L15.6304 13.5042L14.127 12.0006L15.6309 10.496L17.4863 10.496C17.7915 10.496 18.0396 10.7437 18.0396 11.0488L18.0396 12.9513C18.0396 13.2565 17.7915 13.5042 17.4863 13.5042Z" fill="rgb(0,85,255)" fill-rule="evenodd" />
	<path id="Vector 12547" d="M17.4863 13.5042L15.6304 13.5042L14.127 12.0006L15.6309 10.496L17.4863 10.496C17.7915 10.496 18.0396 10.7437 18.0396 11.0488L18.0396 12.9513C18.0396 13.2565 17.7915 13.5042 17.4863 13.5042Z" fill="rgb(255,255,255)" fill-rule="evenodd" />
</svg>
