<svg viewBox="0 0 24 24" xmlns="http://www.w3.org/2000/svg" xmlns:xlink="http://www.w3.org/1999/xlink" width="24.000000" height="24.000000" fill="none" customFrame="#000000">
	<rect id="24 / Lukit / Yozhka" width="24.000000" height="24.000000" x="0.000000" y="0.000000" />
	<path id="Avatar" d="M11.0618 8.01187C10.9165 7.97575 10.7667 7.95687 10.6137 7.95687C9.25281 7.95687 8.14955 9.45025 8.14955 11.2924C8.14955 13.1346 9.25281 14.628 10.6137 14.628C11.287 14.628 11.8973 14.2625 12.342 13.67C11.9878 17.0399 9.84799 19.631 7.26121 19.631C4.42673 19.631 2.12891 16.5198 2.12891 12.682C2.12891 8.84411 4.42673 5.73291 7.26121 5.73291C8.76787 5.73291 10.1229 6.61193 11.0618 8.01187ZM16.8893 19.631C15.138 19.631 13.5916 18.4433 12.6654 16.6304C13.1768 15.4549 13.4612 14.1041 13.4612 12.6821C13.4612 11.26 13.1768 9.90919 12.6654 8.73369C13.5915 6.92067 15.138 5.73291 16.8893 5.73291C18.396 5.73291 19.751 6.61195 20.6899 8.01191C20.5446 7.97575 20.3948 7.95687 20.2417 7.95687C18.8808 7.95687 17.7775 9.45025 17.7775 11.2924C17.7775 13.1346 18.8808 14.628 20.2417 14.628C20.9151 14.628 21.5254 14.2624 21.9702 13.6698C21.616 17.0398 19.4762 19.631 16.8893 19.631Z" fill="rgb(14,17,23)" fill-rule="evenodd" />
</svg>
