<svg viewBox="0 0 24 24" xmlns="http://www.w3.org/2000/svg" xmlns:xlink="http://www.w3.org/1999/xlink" width="24.000000" height="24.000000" fill="none" customFrame="#000000">
	<rect id="24 / Lukit / Akola" width="24.000000" height="24.000000" x="0.000000" y="0.000000" />
	<path id="Avatar" d="M9.49078 6.08945L8.49776 6.08945C7.57272 6.08945 6.84579 5.37227 6.84579 4.45958C6.84579 3.5469 7.57272 2.82971 8.49776 2.82971L18.2328 2.82971C19.1578 2.82971 19.8848 3.5469 19.8848 4.45958C19.8848 5.37227 19.1578 6.08945 18.2328 6.08945L14.504 6.08945L14.489 6.06324C13.3951 4.13563 10.5997 4.13563 9.50576 6.06324L9.49078 6.08945ZM9.20147 6.59991L7.35326 9.85966L3.64335 9.85966C2.72318 9.85966 2 9.14247 2 8.22978C2 7.3171 2.72318 6.59991 3.64335 6.59991L9.20147 6.59991ZM16.8471 9.85966L16.6415 9.85966L14.7933 6.59991L16.8471 6.59991C17.7673 6.59991 18.4905 7.3171 18.4905 8.22978C18.4905 9.14247 17.7673 9.85966 16.8471 9.85966ZM7.06376 10.3701L5.22866 13.6066C4.45492 13.4767 3.88154 12.8168 3.88154 12C3.88154 11.0873 4.59779 10.3701 5.50917 10.3701L7.06376 10.3701ZM18.7792 13.6299L16.931 10.3701L19.1286 10.3701C20.04 10.3701 20.7563 11.0873 20.7563 12C20.7563 12.9127 20.04 13.6299 19.1286 13.6299L18.7792 13.6299ZM10.3271 17.4001L3.64392 17.4001C2.72337 17.4001 2 16.6829 2 15.7702C2 14.8575 2.72337 14.1403 3.64392 14.1403L10.3271 14.1403C11.2476 14.1403 11.971 14.8575 11.971 15.7702C11.971 16.6829 11.2476 17.4001 10.3271 17.4001ZM19.5254 14.9466L19.0683 14.1403L20.3593 14.1403C21.2779 14.1403 22 14.8575 22 15.7702C22 16.6829 21.2779 17.4001 20.3593 17.4001L19.6866 17.4001C19.823 17.066 19.8966 16.7053 19.8966 16.3368C19.8966 15.8732 19.7801 15.3972 19.5254 14.9466ZM11.7335 19.1749L16.761 19.1749C16.7872 19.2921 16.801 19.4142 16.801 19.5404C16.801 20.4531 16.0771 21.1703 15.1556 21.1703L13.3389 21.1703C12.4174 21.1703 11.6935 20.4531 11.6935 19.5404C11.6935 19.4142 11.7073 19.2921 11.7335 19.1749Z" fill="rgb(14,17,23)" fill-rule="evenodd" />
</svg>
