<svg viewBox="0 0 24 24" xmlns="http://www.w3.org/2000/svg" xmlns:xlink="http://www.w3.org/1999/xlink" width="24.000000" height="24.000000" fill="none" customFrame="#000000">
	<rect id="24 / Lukit / Teremok" width="24.000000" height="24.000000" x="0.000000" y="0.000000" />
	<path id="Avatar" d="M13.8013 3.90515L10.849 3.90515C10.5341 3.90515 10.3646 4.27554 10.5711 4.51369L17.6028 12.6264C17.8093 12.8645 17.6401 13.2349 17.3252 13.2349L15.7586 13.2349C15.5938 13.2349 15.4491 13.3445 15.4045 13.5033L14.3248 17.3503C14.2803 17.509 14.1356 17.6186 13.9708 17.6186L10.0576 17.6186C9.89278 17.6186 9.74807 17.509 9.70355 17.3503L8.62094 13.4928C8.57642 13.3341 8.43171 13.2244 8.2669 13.2244L6.70745 13.2244C6.39074 13.2244 6.22234 12.8507 6.43204 12.6133L10.8458 7.61761C10.9661 7.48125 10.9686 7.27738 10.8519 7.13797L9.24645 5.22223C9.10102 5.04844 8.83423 5.04664 8.68594 5.21846L2.08977 12.8794C1.88438 13.1177 2.05386 13.487 2.36841 13.487L4.90203 13.487C5.06684 13.487 5.21155 13.5966 5.25607 13.7553L6.95664 19.8141C7.00117 19.9729 7.14587 20.0825 7.31069 20.0825L9.35992 20.0825L14.6157 20.0949L16.7152 20.0931C16.8796 20.0931 17.0243 19.9834 17.0689 19.8248L18.7737 13.7508C18.8183 13.5922 18.963 13.4825 19.1278 13.4825L21.6316 13.4825C21.9469 13.4825 22.116 13.1121 21.9095 12.8741L14.3571 4.15893C14.2175 3.99779 14.0146 3.90515 13.8013 3.90515Z" fill="rgb(14,17,23)" fill-rule="evenodd" />
</svg>
