<svg viewBox="0 0 24 24" xmlns="http://www.w3.org/2000/svg" xmlns:xlink="http://www.w3.org/1999/xlink" width="24.000000" height="24.000000" fill="none">
	<rect id="24 / Lukit / Snowflake 3" width="24.000000" height="24.000000" x="0.000000" y="0.000000" />
	<path id="Vector 8471" d="M20.7821 13.6924L20.1202 12.5717C19.9578 12.2967 19.6031 12.2055 19.3281 12.3679L17.2369 13.6035L16.1756 12.9907C15.4127 12.5502 15.4127 11.4492 16.1756 11.0087L17.2369 10.3959L19.3281 11.6316C19.6031 11.7939 19.9578 11.7027 20.1202 11.4278L20.7821 10.307C20.9445 10.032 20.8533 9.67729 20.5783 9.51494L19.6808 8.98471L20.7747 8.3533C21.0514 8.19351 21.146 7.83993 20.9865 7.56324L20.3357 6.4359C20.1759 6.15921 19.8223 6.0646 19.5456 6.2241L18.4517 6.85551L18.4411 5.81306C18.438 5.49378 18.1765 5.23739 17.8572 5.24053L16.5555 5.25368C16.2362 5.25683 15.9798 5.51837 15.9829 5.83765L16.0075 8.2664L14.9462 8.87924C14.1833 9.31971 13.2298 8.76919 13.2298 7.88824L13.2298 6.66286L15.3455 5.46977C15.6236 5.31285 15.722 4.96013 15.5651 4.68201L14.9256 3.54838C14.7687 3.27026 14.416 3.17193 14.1379 3.32886L13.2298 3.84108L13.2298 2.57825C13.2298 2.25897 12.9708 2 12.6515 2L11.3498 2C11.0305 2 10.7716 2.25897 10.7716 2.57825L10.7716 3.84136L9.86346 3.32914C9.58534 3.17222 9.23262 3.27054 9.0757 3.54866L8.43628 4.68229C8.27935 4.96041 8.37768 5.31313 8.6558 5.47006L10.7716 6.66314L10.7716 7.88852C10.7716 8.76947 9.81801 9.31999 9.05511 8.87952L7.9938 8.26669L8.01838 5.83793C8.02153 5.51865 7.76542 5.25711 7.44585 5.25397L6.14415 5.24082C5.82487 5.23767 5.56333 5.49378 5.56019 5.81335L5.54961 6.8558L4.45571 6.22438C4.17902 6.0646 3.82544 6.1595 3.66566 6.43619L3.0151 7.56353C2.85532 7.84022 2.95022 8.1938 3.22691 8.35358L4.3208 8.98499L3.42328 9.51522C3.1483 9.67758 3.05712 10.0323 3.21947 10.3073L3.88147 11.428C4.04383 11.703 4.39855 11.7942 4.67353 11.6318L6.76471 10.3962L7.82602 11.009C8.58892 11.4495 8.58892 12.5505 7.82602 12.991L6.76471 13.6038L4.67353 12.3682C4.39855 12.2058 4.04383 12.297 3.88147 12.572L3.21947 13.6927C3.05712 13.9677 3.1483 14.3224 3.42328 14.4848L4.3208 15.015L3.22691 15.6464C2.95022 15.8062 2.8556 16.1598 3.0151 16.4365L3.66595 17.5638C3.82573 17.8405 4.17931 17.9351 4.456 17.7756L5.5499 17.1442L5.56048 18.1867C5.56362 18.5059 5.82516 18.7623 6.14444 18.7592L7.44614 18.746C7.76542 18.7429 8.02182 18.4813 8.01867 18.1621L7.99409 15.7333L9.05541 15.1205C9.8183 14.68 10.7719 15.2305 10.7719 16.1115L10.7719 17.3369L8.65609 18.5299C8.37797 18.6869 8.27964 19.0396 8.43657 19.3177L9.07599 20.4513C9.23291 20.7295 9.58563 20.8278 9.86375 20.6709L10.7719 20.1586L10.7719 21.4218C10.7719 21.741 11.0308 22 11.3501 22L12.6518 22C12.9711 22 13.2301 21.741 13.2301 21.4218L13.2301 20.1586L14.1382 20.6709C14.4163 20.8278 14.769 20.7295 14.9259 20.4513L15.5653 19.3177C15.7223 19.0396 15.6239 18.6869 15.3458 18.5299L13.2301 17.3369L13.2301 16.1115C13.2301 15.2305 14.1836 14.68 14.9465 15.1205L16.0078 15.7333L15.9832 18.1621C15.9801 18.4813 16.2362 18.7429 16.5558 18.746L17.8575 18.7592C18.1767 18.7623 18.4383 18.5062 18.4414 18.1867L18.452 17.1442L19.5459 17.7756C19.8226 17.9354 20.1762 17.8405 20.336 17.5638L20.9868 16.4365C21.1466 16.1598 21.0517 15.8062 20.775 15.6464L19.6811 15.015L20.5786 14.4848C20.8536 14.3224 20.9448 13.9677 20.7824 13.6927L20.7821 13.6924Z" fill="rgb(29,29,27)" fill-rule="nonzero" />
</svg>
