<svg viewBox="0 0 24 24" xmlns="http://www.w3.org/2000/svg" xmlns:xlink="http://www.w3.org/1999/xlink" width="24.000000" height="24.000000" fill="none" customFrame="#000000">
	<rect id="24 / Lukit / Sokol" width="24.000000" height="24.000000" x="0.000000" y="0.000000" />
	<path id="Вектор 42" d="M18.7918 11.2882C18.6599 12.4994 17.9207 13.4937 16.8244 13.9586C15.377 14.57 13.656 14.088 12.7441 12.7416C12.0747 11.7532 12.0107 10.501 12.5714 9.44608C13.1321 8.39128 14.0867 7.78958 15.1927 7.64108C15.3983 7.61378 15.4643 7.34418 15.2994 7.21918C14.0906 6.41438 12.5714 6.22678 11.2346 6.81088C10.051 7.32658 9.21091 8.31119 8.82281 9.54968C8.18641 11.5812 8.83641 13.775 10.245 15.346C12.096 17.412 14.9967 18.233 17.649 17.43C19.1469 16.977 20.4081 15.992 21.1861 14.627C22.0631 13.0913 22.1912 11.132 21.7624 9.41879C21.2909 7.53958 20.249 5.88109 18.8268 4.59959C15.5051 1.60108 10.604 1.15569 6.7933 3.47639C3.94891 5.20908 2.1076 8.28768 2.00481 11.6594C1.94471 13.6363 2.4491 15.545 3.47551 17.215C5.64281 20.743 9.65131 22.517 13.7084 21.868C15.6952 21.55 17.5074 20.663 18.9684 19.278C19.2187 19.04 19.4593 18.797 19.6844 18.545C19.8667 18.34 19.6126 18.043 19.3797 18.19C19.0402 18.401 18.6812 18.584 18.2971 18.737C15.3867 19.899 12.0805 19.739 9.30211 18.285C6.91951 17.037 5.13061 14.746 5.06071 11.9915C4.9986 9.51449 6.26561 7.20748 8.32611 5.88299C10.9222 4.21668 14.3079 4.46088 16.6459 6.47688C17.9925 7.63718 18.9897 9.44608 18.7899 11.2882L18.7918 11.2882Z" fill="rgb(14,17,23)" fill-rule="nonzero" />
</svg>
