<svg viewBox="0 0 24 24" xmlns="http://www.w3.org/2000/svg" xmlns:xlink="http://www.w3.org/1999/xlink" width="24.000000" height="24.000000" fill="none" customFrame="#000000">
	<rect id="24 / Lukit / Mera" width="24.000000" height="24.000000" x="0.000000" y="0.000000" />
	<path id="Avatar" d="M9.21806 7.68612C9.21806 6.14967 10.4636 4.90417 12 4.90417C13.5364 4.90417 14.7819 6.14967 14.7819 7.68612L14.7819 16.314C14.7819 17.8504 13.5364 19.0959 12 19.0959C10.4636 19.0959 9.21806 17.8504 9.21806 16.314L9.21806 7.68612ZM19.2181 4.90417C17.6816 4.90417 16.4361 6.14967 16.4361 7.68612L16.4361 16.314C16.4361 17.8504 17.6816 19.0959 19.2181 19.0959C20.7545 19.0959 22 17.8504 22 16.314L22 7.68612C22 6.14967 20.7545 4.90417 19.2181 4.90417ZM2 14.3365C2 12.8001 3.24551 11.5546 4.78193 11.5546C6.31835 11.5546 7.56387 12.8001 7.56387 14.3365L7.56387 16.3139C7.56387 17.8503 6.31835 19.0959 4.78193 19.0959C3.24551 19.0959 2 17.8503 2 16.3139L2 14.3365Z" fill="rgb(14,17,23)" fill-rule="evenodd" />
</svg>
