<svg viewBox="0 0 24 24" xmlns="http://www.w3.org/2000/svg" xmlns:xlink="http://www.w3.org/1999/xlink" width="24.000000" height="24.000000" fill="none">
	<rect id="24 / Lukit / Kokoshnik 4" width="24.000000" height="24.000000" x="0.000000" y="0.000000" />
	<path id="Vector 12439" d="M20.9128 12.8351C21.4828 11.2551 21.1428 9.41507 19.8828 8.15507C18.8928 7.16507 17.5628 6.75507 16.2728 6.88507C15.7128 5.04507 14.0228 3.69507 12.0028 3.69507C9.98278 3.69507 8.29278 5.04507 7.73278 6.88507C6.44278 6.75507 5.11278 7.16507 4.12278 8.15507C2.85278 9.42506 2.52278 11.2551 3.09278 12.8351C1.65278 14.5951 1.72278 17.1851 3.37278 18.8351C3.92278 19.3851 5.01278 19.8451 6.24278 20.2151C6.29278 17.1651 8.77278 14.7051 11.8328 14.7051C14.8928 14.7051 17.4328 17.2151 17.4328 20.3051C18.7928 19.9151 20.0328 19.4351 20.6328 18.8351C22.2728 17.1951 22.3528 14.5951 20.9128 12.8351L20.9128 12.8351Z" fill="rgb(14,17,23)" fill-rule="nonzero" />
</svg>
