<svg viewBox="0 0 24 24" xmlns="http://www.w3.org/2000/svg" xmlns:xlink="http://www.w3.org/1999/xlink" width="24.000000" height="24.000000" fill="none">
	<rect id="24 / Lukit / Snowflake 2" width="24.000000" height="24.000000" x="0.000000" y="0.000000" />
	<path id="Vector 8469" d="M20.0671 13.4137L18.0485 14.6064L17.7246 14.4195L19.1888 13.5542C19.3998 13.4296 19.4699 13.1575 19.345 12.9465L19.0158 12.3892C18.8912 12.1782 18.6191 12.1081 18.4081 12.233L16.1987 13.5386L15.2723 13.0037C14.5003 12.558 14.5003 11.4438 15.2723 10.9981L16.1987 10.4633L18.4081 11.7689C18.6191 11.8935 18.8912 11.8236 19.0158 11.6127L19.345 11.0553C19.4696 10.8443 19.3998 10.5722 19.1888 10.4476L17.7246 9.58232L18.0485 9.39542L20.0671 10.5882C20.278 10.7128 20.5501 10.6429 20.6747 10.432L21.004 9.87456C21.1286 9.66358 21.0588 9.3915 20.8478 9.2669L19.5744 8.51448L20.6603 7.88756C20.8725 7.76507 20.9453 7.49359 20.8228 7.28141L20.499 6.7207C20.3765 6.50852 20.105 6.43568 19.8928 6.55818L18.8069 7.1851L18.7919 5.70614C18.7895 5.46115 18.5887 5.26431 18.3437 5.26702L17.6963 5.27364C17.4513 5.27605 17.2545 5.4768 17.2572 5.72179L17.281 8.06634L16.9572 8.25324L16.94 6.55276C16.9376 6.30777 16.7368 6.11094 16.4919 6.11365L15.8445 6.12027C15.5995 6.12268 15.4026 6.32342 15.4054 6.56841L15.4312 9.13478L14.5049 9.6696C13.7329 10.1153 12.7677 9.55824 12.7677 8.66677L12.7677 7.59713L15.003 6.33637C15.2163 6.21598 15.2919 5.94541 15.1715 5.73172L14.8534 5.1677C14.733 4.95432 14.4624 4.87877 14.2487 4.99916L12.7674 5.83465L12.7674 5.46085L14.8094 4.30904C15.0228 4.18865 15.0984 3.91808 14.978 3.70439L14.6599 3.14037C14.5395 2.92699 14.2689 2.85144 14.0552 2.97183L12.7671 3.69837L12.7671 2.44363C12.7671 2.19864 12.5684 2 12.3234 2L11.676 2C11.4311 2 11.2324 2.19864 11.2324 2.44363L11.2324 3.69747L9.94427 2.97093C9.73088 2.85054 9.46001 2.92608 9.33962 3.13947L9.0215 3.70349C8.90111 3.91687 8.97666 4.18775 9.19004 4.30813L11.2321 5.45994L11.2321 5.83375L9.75075 4.99825C9.53736 4.87787 9.26649 4.95341 9.1461 5.1668L8.82798 5.73081C8.70759 5.9442 8.78313 6.21507 8.99652 6.33546L11.2318 7.59622L11.2318 8.66586C11.2318 9.55733 10.2669 10.1144 9.49462 9.66869L8.56824 9.13387L8.59412 6.56751C8.59653 6.32252 8.4 6.12177 8.15501 6.11937L7.50763 6.11274C7.26264 6.11034 7.06189 6.30687 7.05948 6.55186L7.04233 8.25233L6.71848 8.06543L6.74226 5.72088C6.74467 5.47589 6.54814 5.27515 6.30315 5.27274L5.65576 5.26612C5.41077 5.26371 5.21003 5.46024 5.20762 5.70523L5.19257 7.18419L4.10667 6.55727C3.89449 6.43478 3.62302 6.50731 3.50052 6.7198L3.17668 7.2805C3.05419 7.49269 3.12672 7.76416 3.3392 7.88666L4.4251 8.51357L3.1517 9.266C2.94072 9.3906 2.87059 9.66267 2.9955 9.87365L3.32476 10.431C3.44936 10.642 3.72143 10.7122 3.93241 10.5873L5.95101 9.39451L6.27486 9.58141L4.81064 10.4467C4.59966 10.5713 4.52954 10.8434 4.65444 11.0544L4.9837 11.6117C5.1083 11.8227 5.38038 11.8929 5.59136 11.768L7.80077 10.4623L8.72715 10.9972C9.49914 11.4429 9.49914 12.5571 8.72715 13.0028L7.80077 13.5377L5.59136 12.232C5.38038 12.1074 5.1083 12.1773 4.9837 12.3882L4.65444 12.9456C4.52984 13.1566 4.59966 13.4287 4.81064 13.5533L6.27486 14.4186L5.95101 14.6055L3.93241 13.4127C3.72143 13.2881 3.44936 13.358 3.32476 13.569L2.9955 14.1263C2.87089 14.3373 2.94072 14.6094 3.1517 14.734L4.4251 15.4864L3.3392 16.1133C3.12702 16.2358 3.05419 16.5073 3.17668 16.7195L3.50052 17.2802C3.62302 17.4924 3.89449 17.5652 4.10667 17.4427L5.19257 16.8158L5.20762 18.2948C5.21003 18.5398 5.41077 18.7366 5.65576 18.7339L6.30315 18.7273C6.54814 18.7249 6.74497 18.5241 6.74226 18.2791L6.71848 15.9346L7.04233 15.7477L7.05948 17.4481C7.06189 17.6931 7.26264 17.89 7.50763 17.8873L8.15501 17.8806C8.4 17.8782 8.59683 17.6775 8.59412 17.4325L8.56824 14.8661L9.49462 14.3313C10.2666 13.8856 11.2318 14.4427 11.2318 15.3341L11.2318 16.4038L8.99652 17.6645C8.78313 17.7849 8.70759 18.0555 8.82798 18.2692L9.1461 18.8332C9.26649 19.0466 9.53706 19.1221 9.75075 19.0017L11.2321 18.1663L11.2321 18.5401L9.19004 19.6919C8.97666 19.8123 8.90111 20.0828 9.0215 20.2965L9.33962 20.8605C9.46001 21.0739 9.73058 21.1495 9.94427 21.0291L11.2324 20.3025L11.2324 21.5564C11.2324 21.8014 11.4311 22 11.676 22L12.3234 22C12.5684 22 12.7671 21.8014 12.7671 21.5564L12.7671 20.3025L14.0552 21.0291C14.2686 21.1495 14.5395 21.0739 14.6599 20.8605L14.978 20.2965C15.0984 20.0831 15.0228 19.8126 14.8094 19.6919L12.7674 18.5401L12.7674 18.1663L14.2487 19.0017C14.4621 19.1221 14.733 19.0466 14.8534 18.8332L15.1715 18.2692C15.2919 18.0558 15.2163 17.7849 15.003 17.6645L12.7677 16.4038L12.7677 15.3341C12.7677 14.4427 13.7326 13.8856 14.5049 14.3313L15.4312 14.8661L15.4054 17.4325C15.4029 17.6775 15.5995 17.8782 15.8445 17.8806L16.4919 17.8873C16.7368 17.8897 16.9376 17.6931 16.94 17.4481L16.9572 15.7477L17.281 15.9346L17.2572 18.2791C17.2548 18.5241 17.4513 18.7249 17.6963 18.7273L18.3437 18.7339C18.5887 18.7363 18.7895 18.5398 18.7919 18.2948L18.8069 16.8158L19.8928 17.4427C20.105 17.5652 20.3765 17.4927 20.499 17.2802L20.8228 16.7195C20.9453 16.5073 20.8728 16.2358 20.6603 16.1133L19.5744 15.4864L20.8478 14.734C21.0588 14.6094 21.1289 14.3373 21.004 14.1263L20.6747 13.569C20.5501 13.358 20.278 13.2878 20.0671 13.4127L20.0671 13.4137Z" fill="rgb(29,29,27)" fill-rule="nonzero" />
</svg>
