<svg viewBox="0 0 24 24" xmlns="http://www.w3.org/2000/svg" xmlns:xlink="http://www.w3.org/1999/xlink" width="24.000000" height="24.000000" fill="none" customFrame="#000000">
	<rect id="24 / Lukit / Sirin" width="24.000000" height="24.000000" x="0.000000" y="0.000000" />
	<path id="Avatar" d="M11.9947 8.40357L11.9947 2.51012C11.9947 2.21687 12.2326 1.97764 12.5255 1.993C13.2323 2.03015 13.9202 2.14092 14.5803 2.31723C14.8636 2.3929 15.016 2.69383 14.9255 2.97268L14.2635 5.01211C14.173 5.29068 14.3264 5.58804 14.597 5.70019C14.8534 5.80644 15.1019 5.92776 15.3413 6.06322C15.4679 6.13492 15.6171 6.1574 15.7576 6.11984L16.1974 6.00193C16.3151 5.9704 16.4183 5.89939 16.4898 5.80095L17.5637 4.32142C17.7359 4.08425 18.0688 4.03023 18.2966 4.21476C18.8378 4.65278 19.3319 5.14687 19.7701 5.68812C19.9545 5.91597 19.9006 6.24884 19.6633 6.42103L17.9278 7.6808C17.6908 7.85286 17.3608 7.79898 17.1705 7.57634C16.9984 7.37494 16.8147 7.18356 16.6207 7.00341C16.4924 6.88428 16.3108 6.84438 16.1417 6.88963L15.7788 6.98696C15.6613 7.01836 15.5581 7.08924 15.4866 7.18767L14.1044 9.08987C13.9691 9.27604 13.7292 9.35391 13.5104 9.28262L12.3613 8.90849C12.1426 8.83734 11.9947 8.63348 11.9947 8.40357ZM8.58126 10.8907L2.97612 9.06944C2.6972 8.97882 2.54317 8.67858 2.64832 8.4048C2.90209 7.74414 3.22001 7.1242 3.59168 6.55073C3.75119 6.30464 4.08446 6.25282 4.32171 6.42515L6.05678 7.68491C6.29382 7.85697 6.62395 7.80309 6.8143 7.58045C6.99472 7.36918 7.187 7.17026 7.3899 6.9845C7.49718 6.8862 7.56476 6.75116 7.57237 6.60584L7.59616 6.15192C7.60253 6.03045 7.56696 5.91035 7.49533 5.81178L6.41899 4.3317C6.24652 4.09466 6.29814 3.76139 6.54395 3.60167C7.12791 3.22233 7.75046 2.90523 8.40063 2.65571C8.67434 2.55084 8.97417 2.70493 9.06465 2.98378L9.72648 5.02362C9.81683 5.3022 9.66362 5.59942 9.39307 5.71157C9.14883 5.81288 8.91056 5.92804 8.67962 6.05663C8.52662 6.14177 8.43258 6.30217 8.42339 6.47711L8.40358 6.85453C8.39721 6.976 8.43278 7.09609 8.50428 7.19453L9.88585 9.09631C10.0211 9.28248 10.021 9.53474 9.88565 9.72092L9.17481 10.698C9.03957 10.884 8.79992 10.9618 8.58126 10.8907ZM21.0168 9.06807L15.4117 10.8894C15.1929 10.9604 15.0448 11.1641 15.0447 11.3942L15.044 12.6025C15.0439 12.8327 15.1921 13.0367 15.411 13.1079L17.6461 13.8342C17.7618 13.8719 17.8612 13.948 17.9274 14.0501L18.1332 14.3669C18.2285 14.5138 18.2467 14.6987 18.173 14.8576C18.0617 15.0975 17.9366 15.331 17.7984 15.5565C17.6454 15.8063 17.6962 16.1368 17.9331 16.3092L19.6675 17.5703C19.9046 17.7428 20.2378 17.6912 20.3975 17.4454C20.7768 16.8614 21.0941 16.2388 21.3435 15.5887C21.4486 15.3151 21.2944 15.0151 21.0155 14.9246L19.2754 14.3602C19.1595 14.3227 19.0601 14.2464 18.9938 14.1443L18.7464 13.7632C18.6671 13.6412 18.6425 13.4923 18.6715 13.3497C18.7264 13.0799 18.7651 12.8058 18.787 12.5288C18.81 12.2367 19.0454 11.9992 19.3384 11.999L21.4825 11.9983C21.7757 11.9982 22.0149 11.7603 21.9992 11.4676C21.9629 10.7852 21.8557 10.0968 21.6726 9.41314C21.5967 9.12976 21.2957 8.97745 21.0168 9.06807ZM11.9947 10.4863C11.1619 10.4863 10.4869 11.1614 10.4869 11.9941C10.4869 12.8268 11.1619 13.5019 11.9947 13.5019C12.8274 13.5019 13.5024 12.8268 13.5024 11.9941C13.5024 11.1614 12.8274 10.4863 11.9947 10.4863ZM6.4231 19.6648L9.88709 14.8969C10.0223 14.7109 10.0223 14.4589 9.88729 14.2728L9.17748 13.2949C9.04231 13.1085 8.80253 13.0305 8.58359 13.1017L6.34715 13.8282C6.23144 13.8657 6.10635 13.8624 5.99276 13.8188L5.64235 13.6843C5.47893 13.6217 5.35547 13.4827 5.32175 13.3109C5.27061 13.051 5.23449 12.7881 5.21365 12.524C5.19062 12.232 4.95522 11.9945 4.66239 11.9944L2.51781 11.9934C2.2247 11.9933 1.9854 12.2309 2.00069 12.5236C2.03702 13.219 2.14635 13.909 2.32663 14.5816C2.40258 14.8649 2.70357 15.0169 2.98236 14.9261L4.72045 14.3605C4.83629 14.3228 4.96146 14.3261 5.07511 14.3697L5.50052 14.533C5.63631 14.5851 5.7438 14.691 5.80412 14.8235C5.91811 15.0737 6.0478 15.3178 6.19278 15.5545C6.34578 15.8042 6.29506 16.1349 6.05809 16.3071L4.32383 17.568C4.08673 17.7404 4.03305 18.0734 4.21779 18.3012C4.64827 18.8319 5.13969 19.3258 5.68964 19.7712C5.91756 19.9559 6.25071 19.9022 6.4231 19.6648ZM14.1044 14.9139L17.5684 19.6818C17.7408 19.9192 17.6889 20.2526 17.443 20.4123C16.8493 20.7977 16.2277 21.1123 15.5899 21.3577C15.3163 21.463 15.0162 21.3092 14.9255 21.0303L14.2623 18.9913C14.1717 18.7127 13.8729 18.5623 13.588 18.6306C13.318 18.6953 13.0456 18.7433 12.7723 18.7744C12.6277 18.7909 12.4937 18.8604 12.4022 18.9733L12.1165 19.3261C12.0398 19.4207 11.9981 19.5389 11.9981 19.6606L11.9989 21.4899C11.999 21.783 11.7615 22.0222 11.4687 22.007C10.7733 21.9705 10.0832 21.8612 9.41061 21.6808C9.12744 21.605 8.97547 21.304 9.06616 21.0252L9.72984 18.9859C9.82046 18.7075 10.1191 18.557 10.4039 18.6254C10.6613 18.6871 10.922 18.7338 11.1846 18.7656C11.3585 18.7866 11.5288 18.7122 11.639 18.576L11.8757 18.2839C11.9522 18.1893 11.994 18.0714 11.994 17.9496L11.9942 15.5987C11.9942 15.3686 12.1425 15.1647 12.3615 15.0937L13.5109 14.7209C13.7297 14.6499 13.9692 14.7279 14.1044 14.9139Z" fill="rgb(14,17,23)" fill-rule="evenodd" />
</svg>
