<svg viewBox="0 0 24 24" xmlns="http://www.w3.org/2000/svg" xmlns:xlink="http://www.w3.org/1999/xlink" width="24.000000" height="24.000000" fill="none">
	<rect id="24 / Lukit / Snowflake" width="24.000000" height="24.000000" x="0.000000" y="0.000000" />
	<path id="Vector 8468" d="M20.2659 13.4564L18.0504 14.7656L17.4571 14.423L19.2497 13.3637C19.3897 13.2809 19.4363 13.1003 19.3535 12.96L19.0101 12.379C18.9273 12.2391 18.7467 12.1924 18.6064 12.2752L16.2 13.6972L14.9158 12.9558C14.1819 12.532 14.1819 11.4727 14.9158 11.0488L16.2 10.3074L18.6064 11.7294C18.7464 11.8122 18.9273 11.7659 19.0101 11.6256L19.3535 11.0446C19.4363 10.9046 19.39 10.7237 19.2497 10.6409L17.4571 9.58162L18.0504 9.23905L20.2659 10.5482C20.4059 10.631 20.5868 10.5846 20.6696 10.4444L21.0131 9.86337C21.0959 9.7234 21.0495 9.54248 20.9092 9.4597L19.3078 8.51328L20.7238 7.69569C20.8647 7.61442 20.9132 7.4341 20.8316 7.29322L20.4941 6.70863C20.4128 6.56775 20.2325 6.51929 20.0917 6.60086L18.6756 7.41845L18.657 5.55841C18.6555 5.39556 18.5221 5.26522 18.3593 5.26672L17.6844 5.27364C17.5215 5.27515 17.3912 5.4085 17.3927 5.57136L17.4186 8.14452L16.8255 8.48709L16.8045 6.4052C16.803 6.24234 16.6696 6.112 16.5067 6.1135L15.8318 6.12043C15.669 6.12193 15.5386 6.25529 15.5402 6.41814L15.5685 9.21316L14.2843 9.95458C13.5504 10.3784 12.6329 9.84862 12.6329 9.00124L12.6329 7.51839L15.0675 6.14541C15.2093 6.06534 15.2593 5.88563 15.1795 5.74385L14.8478 5.15594C14.7677 5.01416 14.588 4.96419 14.4465 5.04396L12.6329 6.06685L12.6329 5.38201L14.8743 4.11801C15.0161 4.03794 15.066 3.85822 14.9863 3.71644L14.6545 3.12854C14.5745 2.98676 14.3948 2.93679 14.2533 3.01656L12.6329 3.93047L12.6329 2.2947C12.6329 2.13185 12.501 2 12.3381 2L11.6633 2C11.5004 2 11.3685 2.13185 11.3685 2.2947L11.3685 3.92987L9.74813 3.01596C9.60635 2.93589 9.42664 2.98616 9.34686 3.12794L9.01513 3.71584C8.93506 3.85763 8.98533 4.03734 9.12711 4.11741L11.3685 5.38141L11.3685 6.06625L9.55487 5.04336C9.41309 4.96329 9.23338 5.01356 9.1536 5.15534L8.82187 5.74325C8.7418 5.88503 8.79207 6.06474 8.93385 6.14481L11.3685 7.51779L11.3685 9.00064C11.3685 9.84802 10.451 10.3778 9.71712 9.95399L8.43295 9.21256L8.46125 6.41754C8.46275 6.25469 8.33241 6.12164 8.16955 6.11983L7.49466 6.11291C7.3318 6.1114 7.19875 6.24174 7.19694 6.4046L7.17587 8.48649L6.58285 8.14392L6.60874 5.57076C6.61024 5.4079 6.4799 5.27485 6.31704 5.27305L5.64215 5.26612C5.47929 5.26462 5.34624 5.39496 5.34443 5.55782L5.32577 7.41785L3.90975 6.60027C3.76887 6.51899 3.58855 6.56715 3.50728 6.70803L3.16983 7.29262C3.08855 7.4335 3.13671 7.61382 3.27759 7.69509L4.69362 8.51268L3.09216 9.4591C2.95218 9.54188 2.90553 9.7225 2.98831 9.86277L3.33178 10.4438C3.41456 10.5837 3.59517 10.6304 3.73545 10.5476L5.95099 9.23845L6.54432 9.58102L4.75171 10.6403C4.61173 10.7231 4.56507 10.9037 4.64786 11.044L4.99133 11.625C5.07411 11.765 5.25472 11.8116 5.395 11.7288L7.80139 10.3068L9.08557 11.0482C9.81947 11.4721 9.81947 12.5314 9.08557 12.9552L7.80139 13.6966L5.395 12.2746C5.25502 12.1918 5.07411 12.2382 4.99133 12.3784L4.64786 12.9594C4.56507 13.0994 4.61143 13.2803 4.75171 13.3631L6.54432 14.4224L5.95099 14.765L3.73545 13.4558C3.59547 13.373 3.41456 13.4194 3.33178 13.5597L2.98831 14.1406C2.90553 14.2806 2.95188 14.4615 3.09216 14.5443L4.69362 15.4907L3.27759 16.3083C3.13671 16.3896 3.08825 16.5699 3.16983 16.7108L3.50728 17.2954C3.58855 17.4363 3.76887 17.4847 3.90975 17.4032L5.32577 16.5856L5.34443 18.4456C5.34594 18.6085 5.47929 18.7388 5.64215 18.7373L6.31704 18.7304C6.4799 18.7289 6.61024 18.5955 6.60874 18.4327L6.58285 15.8595L7.17587 15.5169L7.19694 17.5988C7.19845 17.7617 7.3318 17.892 7.49466 17.8905L8.16955 17.8836C8.33241 17.8821 8.46275 17.7487 8.46125 17.5859L8.43295 14.7909L9.71712 14.0494C10.451 13.6256 11.3685 14.1554 11.3685 15.0028L11.3685 16.4856L8.93385 17.8586C8.79207 17.9387 8.7421 18.1184 8.82187 18.2602L9.1536 18.8481C9.23368 18.9899 9.41339 19.0398 9.55487 18.9601L11.3685 17.9372L11.3685 18.622L9.12711 19.886C8.98533 19.9661 8.93536 20.1458 9.01513 20.2876L9.34686 20.8755C9.42694 21.0173 9.60665 21.0672 9.74813 20.9875L11.3685 20.0735L11.3685 21.7087C11.3685 21.8716 11.5004 22.0034 11.6633 22.0034L12.3381 22.0034C12.501 22.0034 12.6329 21.8716 12.6329 21.7087L12.6329 20.0735L14.2533 20.9875C14.3951 21.0675 14.5748 21.0173 14.6545 20.8755L14.9863 20.2876C15.0663 20.1458 15.0161 19.9661 14.8743 19.886L12.6329 18.622L12.6329 17.9372L14.4465 18.9601C14.5883 19.0401 14.768 18.9899 14.8478 18.8481L15.1795 18.2602C15.2596 18.1184 15.2093 17.9387 15.0675 17.8586L12.6329 16.4856L12.6329 15.0028C12.6329 14.1554 13.5504 13.6256 14.2843 14.0494L15.5684 14.7909L15.5402 17.5859C15.5386 17.7487 15.669 17.8818 15.8318 17.8836L16.5067 17.8905C16.6696 17.892 16.8027 17.7617 16.8045 17.5988L16.8255 15.5169L17.4185 15.8595L17.3927 18.4327C17.3912 18.5955 17.5215 18.7286 17.6843 18.7304L18.3592 18.7373C18.5221 18.7388 18.6552 18.6085 18.657 18.4456L18.6756 16.5856L20.0917 17.4032C20.2325 17.4844 20.4128 17.4363 20.4941 17.2954L20.8316 16.7108C20.9128 16.5699 20.8647 16.3896 20.7238 16.3083L19.3078 15.4907L20.9092 14.5443C21.0492 14.4615 21.0959 14.2809 21.0131 14.1406L20.6696 13.5597C20.5868 13.4197 20.4062 13.373 20.2659 13.4558L20.2659 13.4564Z" fill="rgb(14,17,23)" fill-rule="nonzero" />
</svg>
