<svg viewBox="0 0 24 24" xmlns="http://www.w3.org/2000/svg" xmlns:xlink="http://www.w3.org/1999/xlink" width="24.000000" height="24.000000" fill="none" customFrame="#000000">
	<rect id="24 / Lukit / Yarmarka" width="24.000000" height="24.000000" x="0.000000" y="0.000000" />
	<path id="Avatar" d="M14.4905 5.98894L14.4905 2.91558C14.4905 2.41004 14.0804 2 13.5749 2L10.4261 2C9.9196 2 9.51056 2.41004 9.51056 2.91558L9.51056 5.98894L7.33768 3.81608C6.9799 3.45828 6.4 3.45828 6.0422 3.81608L3.81608 6.0422C3.45828 6.4 3.45828 6.9799 3.81608 7.33768L5.98794 9.50954L9.51054 9.50954L9.51056 5.98894L12 8.4794L14.4905 5.98894ZM14.4905 5.98894L16.6633 3.81608C17.0211 3.45828 17.6 3.45828 17.9578 3.81608L20.1849 6.0422C20.5427 6.4 20.5427 6.9799 20.1849 7.33768L18.013 9.50954L14.4904 9.50954L14.4905 5.98894ZM5.98894 14.4904L2.91558 14.4905C2.41004 14.4905 2 14.0804 2 13.5749L2 10.4252C2 9.91962 2.41004 9.50958 2.91558 9.50958L5.98794 9.50954L8.47838 12.001L5.98894 14.4904ZM5.98894 14.4904L9.51054 14.4904L9.51054 18.0121L7.33768 20.1849C6.9799 20.5417 6.4 20.5417 6.0432 20.1849L3.81608 17.9578C3.45828 17.6 3.45828 17.0201 3.81608 16.6633L5.98894 14.4904ZM21.0844 14.4905L18.011 14.4904L15.5216 12.001L18.013 9.50954L21.0844 9.50958C21.59 9.50958 22 9.91962 22 10.4252L22 13.5749C22 14.0804 21.59 14.4905 21.0844 14.4905ZM14.4904 18.0131L16.6623 20.1849C17.0201 20.5417 17.6 20.5417 17.9578 20.1849L20.1839 17.9578C20.5417 17.6 20.5417 17.0201 20.1839 16.6633L18.011 14.4904L14.4904 14.4904L14.4904 18.0131ZM14.4904 18.0131L14.4905 21.0844C14.4905 21.5899 14.0804 22 13.5749 22L10.4261 22C9.9196 22 9.51056 21.5899 9.51056 21.0844L9.51054 18.0121L12 15.5226L14.4904 18.0131Z" fill="rgb(14,17,23)" fill-rule="evenodd" />
</svg>
