<svg viewBox="0 0 24 24" xmlns="http://www.w3.org/2000/svg" xmlns:xlink="http://www.w3.org/1999/xlink" width="24.000000" height="24.000000" fill="none">
	<rect id="24 / Lukit / Kokoshnik 1" width="24.000000" height="24.000000" x="0.000000" y="0.000000" />
	<path id="Vector 12451" d="M21.8387 12.0634C21.6287 10.9334 20.6787 10.0834 19.5187 9.99339C19.5187 9.99339 19.5187 9.97339 19.5187 9.96339C19.7987 9.07339 19.8287 8.06339 18.7387 6.83339C18.2187 6.24339 17.5087 5.79339 16.7287 5.71339C16.1587 5.65339 15.6287 5.75339 15.1387 5.95339C14.5587 3.79339 12.0187 2.36339 12.0087 2.35339C11.9987 2.35339 9.44866 3.79339 8.87866 5.95339C8.39866 5.75339 7.85866 5.66339 7.28866 5.71339C6.49866 5.79339 5.79866 6.23339 5.27866 6.83339C4.18866 8.07339 4.21866 9.07339 4.49866 9.96339C4.49866 9.96339 4.49866 9.98339 4.49866 9.99339C3.33866 10.0834 2.38866 10.9434 2.17866 12.0634C1.62866 14.1634 2.35866 18.1234 5.81866 20.6234C5.81866 20.6234 5.81866 20.6234 5.82866 20.6234C6.52866 21.1234 7.33866 21.4434 8.17866 21.6334C8.54866 21.7134 8.63866 21.4134 8.44866 21.1934C7.30866 19.9234 6.88866 18.0834 7.50866 16.3734C8.20866 14.4234 10.0487 13.2234 11.9987 13.2234C13.9587 13.2234 15.7887 14.4334 16.4887 16.3734C17.1087 18.0834 16.6887 19.9234 15.5487 21.1934C15.3587 21.4134 15.4487 21.7134 15.8187 21.6334C16.6587 21.4434 17.4687 21.1234 18.1687 20.6234C18.1687 20.6234 18.1687 20.6234 18.1787 20.6234C21.6387 18.1234 22.3787 14.1634 21.8187 12.0634L21.8387 12.0634Z" fill="rgb(14,17,23)" fill-rule="nonzero" />
</svg>
