<svg viewBox="0 0 24 24" xmlns="http://www.w3.org/2000/svg" xmlns:xlink="http://www.w3.org/1999/xlink" width="24.000000" height="24.000000" fill="none" customFrame="#000000">
	<rect id="24 / Lukit / Alkion" width="24.000000" height="24.000000" x="0.000000" y="0.000000" />
	<path id="Avatar" d="M18.3275 11.2096C18.0111 12.3802 18.1607 13.673 18.8495 14.7879L18.8516 14.7921L21.9946 19.8831C22.1519 19.9135 18.8017 20.0913 17.6599 19.9002C16.3204 19.677 14.9447 18.8081 14.0581 17.3719C13.1659 15.9282 12.9778 14.2934 13.4268 13.0085C13.4497 12.9395 13.4075 12.8689 13.3346 12.8593C11.9799 12.6782 10.5944 11.7614 9.708 10.3273C8.8214 8.89281 8.72728 7.29831 9.06888 5.98847C9.24362 5.31983 10.5771 2.95987 10.9476 2.31243C10.9898 2.23803 11.0972 2.23595 11.1433 2.31035L14.1867 7.23721C14.8736 8.34885 15.9655 9.06859 17.1571 9.31875C17.7923 9.45049 18.4561 9.45049 19.1028 9.30753C19.2083 9.28469 19.2833 9.40477 19.2141 9.48873C18.7959 9.99695 18.4946 10.585 18.3275 11.2096ZM8.0923 19.9347C8.66016 19.8964 9.22824 19.7244 9.74644 19.4073L9.7425 19.4073C11.5807 18.2828 12.0644 15.7965 10.6885 14.0603C9.64276 12.7409 7.76984 12.317 6.252 13.0522C5.58628 13.375 5.07202 13.8617 4.72274 14.4347C4.7188 14.4368 4.71692 14.4464 4.71692 14.4464L4.48484 14.8989C4.48276 14.9026 4.47902 14.9101 4.47902 14.9101L2.02078 19.692C1.95762 19.8141 2.04592 19.9575 2.18388 19.9575L7.6221 19.9347L8.0923 19.9347Z" fill="rgb(14,17,23)" fill-rule="evenodd" />
</svg>
