<svg viewBox="0 0 24 24" xmlns="http://www.w3.org/2000/svg" xmlns:xlink="http://www.w3.org/1999/xlink" width="24.000000" height="24.000000" fill="none" customFrame="#000000">
	<rect id="24 / Lukit / Strelka" width="24.000000" height="24.000000" x="0.000000" y="0.000000" />
	<path id="Avatar" d="M22 9.21624L21.9999 2.00022L14.7835 2L14.7835 5.99441L18.0054 5.99441L18.0054 9.21624L22 9.21624ZM8.16109 2.73313C9.33955 2.24488 10.6191 2.00087 11.9998 2.00087L11.9998 5.99528C11.1707 5.99528 10.4022 6.14184 9.69454 6.43498C8.98679 6.72812 8.33976 7.16782 7.75344 7.7541C7.16715 8.34037 6.72742 8.9874 6.43428 9.69518C6.14113 10.4028 5.99455 11.1712 5.99455 12.0003C5.99455 12.8295 6.14114 13.5979 6.43428 14.3057C6.72742 15.0135 7.16715 15.6605 7.75347 16.2468C8.33977 16.833 8.98679 17.2727 9.69451 17.5659C10.4022 17.859 11.1707 18.0056 11.9999 18.0056C12.829 18.0056 13.5975 17.859 14.3052 17.5659C15.0129 17.2727 15.6599 16.833 16.2462 16.2468C16.8325 15.6605 17.2723 15.0135 17.5654 14.3057C17.8586 13.5979 18.0051 12.8297 18.0051 12.0005L21.9997 12.0005C21.9997 13.3811 21.7556 14.6607 21.2675 15.8391C20.7793 17.0176 20.0471 18.0949 19.0708 19.0712C18.0945 20.0474 17.0171 20.7797 15.8386 21.2677C14.6602 21.756 13.3805 22 11.9999 22C10.6192 22 9.33959 21.7559 8.16109 21.2677C6.98259 20.7796 5.90519 20.0474 4.9289 19.0712C3.9526 18.0949 3.22037 17.0176 2.73221 15.8391C2.24411 14.6608 2 13.3811 2 12.0005C2 9.23922 2.97629 6.88227 4.92884 4.92971C5.90516 3.9535 6.98257 3.22131 8.16109 2.73313Z" fill="rgb(14,17,23)" fill-rule="evenodd" />
</svg>
