<svg viewBox="0 0 24 24" xmlns="http://www.w3.org/2000/svg" xmlns:xlink="http://www.w3.org/1999/xlink" width="24.000000" height="24.000000" fill="none">
	<rect id="24 / Lukit / Kokoshnik 2" width="24.000000" height="24.000000" x="0.000000" y="0.000000" />
	<path id="Vector 12447" d="M20.2407 10.455C18.9407 6.73499 14.8107 4.23499 11.9907 1.98499C9.1707 4.23499 5.0407 6.73499 3.7407 10.455C1.2107 17.705 7.2707 22.015 7.2707 22.015L7.4407 22.015C6.8507 20.465 6.5107 18.875 6.5107 17.735C6.5107 14.705 8.9707 12.245 12.0007 12.245C15.0307 12.245 17.4907 14.705 17.4907 17.735C17.4907 18.865 17.1507 20.465 16.5607 22.015L16.7307 22.015C16.7307 22.015 22.7907 17.705 20.2607 10.455L20.2407 10.455Z" fill="rgb(14,17,23)" fill-rule="nonzero" />
</svg>
