<svg viewBox="0 0 24 24" xmlns="http://www.w3.org/2000/svg" xmlns:xlink="http://www.w3.org/1999/xlink" width="24.000000" height="24.000000" fill="none" customFrame="#000000">
	<rect id="24 / Lukit / Zabava" width="24.000000" height="24.000000" x="0.000000" y="0.000000" />
	<path id="Avatar" d="M17.8424 10.9466C17.1043 7.27082 13.8994 2.10957 10.4493 2.64951C6.44647 3.27638 3.7218 6.73647 4.1525 7.3773C4.49318 7.88422 6.70375 7.24183 7.61246 6.95131C7.76616 6.90219 7.91174 7.05418 7.85341 7.20466L6.4183 10.9065C3.75302 11.3029 2 11.9753 2 12.7381C2 13.9571 6.47717 14.9452 12 14.9452C13.7605 14.9452 15.4147 14.8448 16.8516 14.6685C17.0431 14.6451 17.1437 14.8844 16.9846 14.9937C16.1488 15.568 15.3096 15.8886 13.9906 15.9503C14.1167 16.2169 14.1923 16.5565 14.1923 16.9264C14.1923 17.7836 13.7864 18.4784 13.2856 18.4784C12.7848 18.4784 12.3789 17.7836 12.3789 16.9264C12.3789 16.5478 12.4581 16.2009 12.5896 15.9316C12.1034 15.902 11.5636 15.8502 10.9585 15.7762C11.1414 16.0602 11.2564 16.4703 11.2564 16.9264C11.2564 17.7836 10.8504 18.4784 10.3497 18.4784C9.84889 18.4784 9.44295 17.7836 9.44295 16.9264C9.44295 16.4135 9.58826 15.9588 9.81225 15.6762C8.61266 15.6433 7.72153 15.8701 7.05931 16.1804C6.04375 16.6563 5.94411 17.9868 6.61583 18.885C7.75512 20.4083 9.54383 21.3897 11.5546 21.3897C14.9956 21.3897 17.7845 18.5165 17.7845 14.9722C17.7845 14.8274 17.7798 14.6836 17.7705 14.5409C20.3295 14.1411 22 13.4827 22 12.7381C22 12.0005 20.3607 11.3474 17.8424 10.9466Z" fill="rgb(14,17,23)" fill-rule="evenodd" />
</svg>
