<svg viewBox="0 0 24 24" xmlns="http://www.w3.org/2000/svg" xmlns:xlink="http://www.w3.org/1999/xlink" width="24.000000" height="24.000000" fill="none">
	<rect id="24 / Navigation / Close All" width="24.000000" height="24.000000" x="0.000000" y="0.000000" />
	<path id="Форма 787" d="M10.2997 5C10.2997 4.45002 9.84951 4 9.29972 4C8.74893 4 8.29974 4.45002 8.29974 5L8.29974 19C8.29974 19.55 8.74893 20 9.29972 20C9.84951 20 10.2997 19.55 10.2997 19L10.2997 5ZM14.6991 4C15.2489 4 15.6991 4.45002 15.6991 5L15.6991 19C15.6991 19.55 15.2489 20 14.6991 20C14.1493 20 13.6991 19.55 13.6991 19L13.6991 5C13.6991 4.45002 14.1493 4 14.6991 4ZM21.4089 8.29C21.7986 8.68002 21.7986 9.31 21.4089 9.70002L19.1189 11.99L21.4089 14.28C21.7986 14.67 21.7986 15.3 21.4089 15.69C21.0183 16.08 20.3884 16.08 19.9988 15.69L16.9988 12.69C16.8084 12.5 16.7088 12.25 16.7088 11.98C16.7088 11.71 16.8192 11.46 16.9988 11.27L19.9988 8.27002C20.3884 7.88 21.0183 7.88 21.4089 8.27002L21.4089 8.29ZM3.99899 8.29C3.60935 7.9 2.97948 7.9 2.58983 8.29L2.58983 8.31C2.19921 8.70002 2.19921 9.32998 2.58983 9.72L4.87887 12.01L2.58983 14.3C2.19921 14.69 2.19921 15.32 2.58983 15.71C2.97948 16.1 3.60935 16.1 3.99899 15.71L6.99895 12.71C7.17964 12.52 7.28899 12.27 7.28899 12C7.28899 11.73 7.18939 11.48 6.99895 11.29L3.99899 8.29Z" fill="rgb(14,17,23)" fill-rule="evenodd" />
</svg>
