<svg viewBox="0 0 24 24" xmlns="http://www.w3.org/2000/svg" xmlns:xlink="http://www.w3.org/1999/xlink" width="24.000000" height="24.000000" fill="none">
	<rect id="24 / Special / Ancor" width="24.000000" height="24.000000" x="0.000000" y="0.000000" fill="rgb(255,255,255)" fill-opacity="0" />
	<path id="Vector 8271" d="M3.6398 16.65C5.3798 19.71 8.3898 21.9 12.0398 21.9C16.0998 21.9 19.4998 19.3 20.8898 15.57C21.2398 14.64 21.6998 12.55 21.6998 12.55L17.3498 14.74L18.4698 16.07C17.3698 18.1 15.3698 19.5 13.0298 19.82L13.0298 13.26L14.8898 13.26C15.4398 13.26 15.8898 12.81 15.8898 12.26C15.8898 11.71 15.4398 11.26 14.8898 11.26L13.0298 11.26L13.0298 9.33998C14.5798 8.89998 15.7298 7.48997 15.7298 5.79998C15.7298 3.75998 14.0698 2.09998 12.0298 2.09998C9.9898 2.09998 8.3298 3.75998 8.3298 5.79998C8.3298 7.48997 9.4798 8.89997 11.0298 9.33998L11.0298 11.26L9.3298 11.26C8.7798 11.26 8.3298 11.71 8.3298 12.26C8.3298 12.81 8.7798 13.26 9.3298 13.26L11.0298 13.26L11.0298 19.82C8.6798 19.5 6.6698 18.08 5.5698 16.02L6.6498 14.74L2.2998 12.55C2.2998 12.55 2.65981 14.94 3.62981 16.65L3.6398 16.65ZM10.3398 5.78998C10.3398 4.84998 11.0998 4.08998 12.0398 4.08998C12.9798 4.08998 13.7398 4.84998 13.7398 5.78998C13.7398 6.72997 12.9798 7.48997 12.0398 7.48997C11.0998 7.48997 10.3398 6.72997 10.3398 5.78998Z" fill="rgb(14,17,23)" fill-rule="nonzero" />
</svg>
