<svg viewBox="0 0 24 24" xmlns="http://www.w3.org/2000/svg" xmlns:xlink="http://www.w3.org/1999/xlink" width="24.000000" height="24.000000" fill="none">
	<rect id="24 / Text / H4" width="24.000000" height="24.000000" x="0.000000" y="0.000000" />
	<path id="Vector 13504" d="M3.50488 10.7599L8.99512 10.7599L8.99512 5.54999L10.9951 5.54999L10.9951 18.45L8.99512 18.45L8.99512 12.7599L3.50488 12.7599L3.50488 18.45L1.50488 18.45L1.50488 5.54999L3.50488 5.54999L3.50488 10.7599ZM20.8242 14.17L22.4951 14.17L22.4951 16.0201L20.8242 16.0201L20.8242 18.4401L18.6846 18.4401L18.6846 16.0201L12.5547 16.0201L12.5547 14.24L18.0547 5.55999L20.8242 5.55999L20.8242 14.17ZM18.625 8.12005L14.8643 14.07L14.8643 14.1701L18.7246 14.1701L18.7246 8.12005L18.625 8.12005Z" fill="rgb(14,17,23)" fill-rule="evenodd" />
</svg>
