<svg viewBox="0 0 24 24" xmlns="http://www.w3.org/2000/svg" xmlns:xlink="http://www.w3.org/1999/xlink" width="24.000000" height="24.000000" fill="none">
	<rect id="24 / Text / H6" width="24.000000" height="24.000000" x="0.000000" y="0.000000" />
	<path id="Vector 13512" d="M20.3096 10.5253C20.9092 10.8853 21.3896 11.3853 21.7393 12.0152L21.7598 12.0149C22.1094 12.6549 22.29 13.355 22.29 14.1949C22.29 15.0349 22.0996 15.7849 21.71 16.4549C21.3193 17.1249 20.7793 17.6549 20.0898 18.0449C19.3994 18.4249 18.5996 18.6149 17.6797 18.6149C17.0693 18.6149 16.4795 18.5049 15.8994 18.2949C15.3193 18.0849 14.7998 17.7449 14.3291 17.2649C13.8691 16.7948 13.5 16.1549 13.2197 15.3548C12.9492 14.5549 12.8096 13.5648 12.8096 12.3749C12.8096 11.2749 12.9297 10.2849 13.1592 9.42493C13.3896 8.55493 13.7197 7.82495 14.1592 7.22497C14.5996 6.62501 15.1299 6.17493 15.7393 5.85499C16.3594 5.54505 17.0098 5.38501 17.8193 5.38501C18.6299 5.38501 19.3291 5.54493 19.9492 5.85499C20.5693 6.17505 21.0693 6.60499 21.4492 7.14501C21.8398 7.69495 22.0791 8.30505 22.1699 9.00501L19.96 9.00501C19.8398 8.49499 19.5996 8.09509 19.2295 7.78503C18.8594 7.47509 18.3896 7.32507 17.8193 7.32507C16.9199 7.32507 16.2197 7.71509 15.7295 8.50513C15.2393 9.29517 14.9795 10.3751 14.9795 11.7651L15.0693 11.7651C15.2695 11.3851 15.54 11.0752 15.8691 10.8152C16.1992 10.5452 16.5693 10.3452 16.9795 10.2052C17.3896 10.0552 17.8193 9.98523 18.2793 9.98523C19.0293 9.98523 19.71 10.1653 20.3096 10.5253ZM3.70996 10.7552L9.2002 10.7552L9.2002 5.54517L11.2002 5.54517L11.2002 18.4452L9.2002 18.4452L9.2002 12.7552L3.70996 12.7552L3.70996 18.4452L1.70996 18.4452L1.70996 5.54517L3.70996 5.54517L3.70996 10.7552ZM18.9199 16.4552C19.2793 16.2251 19.5791 15.9152 19.79 15.5251C20 15.1451 20.1094 14.7051 20.1094 14.2351C20.1094 13.7651 20.0098 13.3351 19.7998 12.9651C19.5898 12.5851 19.2998 12.275 18.9395 12.055C18.5791 11.8251 18.1699 11.7151 17.6992 11.7151C17.3594 11.7151 17.0293 11.775 16.7295 11.915C16.4297 12.045 16.1699 12.2351 15.9492 12.4651C15.7295 12.7052 15.5498 12.9751 15.4199 13.2751C15.29 13.5851 15.2295 13.9051 15.2295 14.2551C15.2295 14.7051 15.3291 15.1251 15.54 15.5151C15.7598 15.9051 16.0498 16.2152 16.4092 16.4452C16.7793 16.6752 17.1992 16.7952 17.6699 16.7952C18.1396 16.7952 18.5596 16.6752 18.9199 16.4552Z" fill="rgb(0,0,0)" fill-rule="evenodd" />
</svg>
