<svg viewBox="0 0 24 24" xmlns="http://www.w3.org/2000/svg" xmlns:xlink="http://www.w3.org/1999/xlink" width="24.000000" height="24.000000" fill="none">
	<rect id="24 / Text / H5" width="24.000000" height="24.000000" x="0.000000" y="0.000000" />
	<path id="Vector 13509" d="M3.85498 10.675L9.34522 10.675L9.34522 5.46497L11.3452 5.46497L11.3452 18.365L9.34522 18.365L9.34522 12.675L3.85498 12.675L3.85498 18.365L1.85498 18.365L1.85498 5.46497L3.85498 5.46497L3.85498 10.675ZM20.1753 10.425C20.7954 10.795 21.2749 11.295 21.6255 11.9351L21.6147 11.9351C21.9751 12.585 22.145 13.3151 22.145 14.145C22.145 14.995 21.9546 15.745 21.5649 16.405C21.1753 17.0651 20.6353 17.5851 19.9448 17.9651C19.2651 18.3451 18.4653 18.535 17.5649 18.535C16.7349 18.535 15.9946 18.3851 15.3452 18.0751C14.6948 17.755 14.1851 17.3251 13.7954 16.775C13.4155 16.225 13.2153 15.595 13.1851 14.895L15.355 14.895C15.395 15.425 15.6353 15.8651 16.0552 16.2051C16.4849 16.545 16.9849 16.7151 17.5747 16.7151C18.0454 16.7151 18.4653 16.6051 18.8247 16.3951C19.1948 16.1752 19.4751 15.8751 19.6851 15.4951C19.895 15.1151 19.9946 14.6951 19.9946 14.1951C19.9946 13.6951 19.8853 13.2551 19.6753 12.8751C19.4653 12.4851 19.1655 12.1851 18.7954 11.9751C18.4253 11.7451 17.9946 11.6351 17.5151 11.6351C17.1353 11.6351 16.7446 11.7051 16.3647 11.8451C15.9849 11.985 15.6851 12.175 15.4546 12.415L13.4351 12.0851L14.1147 5.48511L21.4946 5.48511L21.4946 7.35511L15.9653 7.35511L15.5854 10.8151L15.6655 10.8151C15.9048 10.545 16.2446 10.3251 16.6753 10.145C17.105 9.95497 17.5747 9.86499 18.0854 9.86499C18.8647 9.86499 19.5649 10.055 20.1753 10.425Z" fill="rgb(14,17,23)" fill-rule="evenodd" />
</svg>
