<svg viewBox="0 0 24 24" xmlns="http://www.w3.org/2000/svg" xmlns:xlink="http://www.w3.org/1999/xlink" width="24.000000" height="24.000000" fill="none" clip-path="url(#clipPath_57)" customFrame="url(#clipPath_57)">
	<defs>
		<clipPath id="clipPath_57">
			<rect width="24.000000" height="24.000000" x="0.000000" y="0.000000" rx="7.000000" fill="rgb(255,255,255)" />
		</clipPath>
	</defs>
	<rect id="24 / Yaga / Project-Pages / Article_gray" width="24.000000" height="24.000000" x="0.000000" y="0.000000" rx="7.000000" fill="rgb(241,243,249)" />
	<path id="Vector" d="M14.8107 8.77288L17.2107 8.77288C17.9051 8.77288 18.2566 7.92437 17.7592 7.43577L15.3592 5.07005C14.8711 4.58145 14.0309 4.93294 14.0309 5.6272L14.0309 7.99292C14.0309 8.42146 14.3824 8.77288 14.8107 8.77288Z" fill="rgb(161,169,184)" fill-rule="evenodd" />
	<path id="Vector" d="M16.4396 16.2815C16.6459 16.2815 16.8516 16.2387 17.0396 16.1787C17.7516 15.9387 18.2742 15.3044 18.334 14.5329C18.334 14.4815 18.3516 14.4215 18.3516 14.3701L18.3516 10.0329C18.3516 10.0329 18.2912 10.0672 18.2654 10.0844C18.1629 10.1358 18.0516 10.1787 17.9314 10.2215C17.8459 10.2472 17.7686 10.273 17.683 10.2901C17.5283 10.3244 17.3742 10.3329 17.2113 10.3329L14.8113 10.3329C14.6484 10.3329 14.4855 10.3158 14.3314 10.2815C14.1855 10.2472 14.0396 10.2044 13.9025 10.1444C13.7654 10.0844 13.6371 10.0158 13.517 9.93867C13.3887 9.85298 13.2686 9.75865 13.1654 9.64724C13.0629 9.53584 12.9598 9.4158 12.8742 9.29583C12.7969 9.17579 12.7201 9.04725 12.6686 8.91006C12.6082 8.77295 12.5654 8.62727 12.5314 8.48152C12.4969 8.32727 12.4799 8.16438 12.4799 8.00149L12.4799 5.63584C12.4799 5.47295 12.4969 5.31863 12.5227 5.17295C12.5396 5.08726 12.5572 5.01006 12.583 4.92437C12.617 4.81297 12.6598 4.70149 12.7201 4.59866C12.7201 4.59009 12.7283 4.58152 12.7371 4.57295L10.3541 4.57295C10.2773 4.57295 10.2082 4.59009 10.1314 4.59866C9.19687 4.71006 8.46855 5.49009 8.44277 6.45008C8.44277 6.46722 8.44277 6.47578 8.44277 6.49292L8.44277 14.3873C8.44277 14.4472 8.45156 14.4987 8.45977 14.5501C8.52832 15.3215 9.04277 15.9558 9.7541 16.1958C9.94277 16.2558 10.1396 16.2987 10.3541 16.2987L16.4484 16.2987L16.4396 16.2815Z" fill="rgb(161,169,184)" fill-rule="evenodd" />
	<path id="Vector" d="M16.4396 16.2815C16.6459 16.2815 16.8516 16.2387 17.0396 16.1787C17.7516 15.9387 18.2742 15.3044 18.334 14.5329C18.334 14.4815 18.3516 14.4215 18.3516 14.3701L18.3516 10.0329C18.3516 10.0329 18.2912 10.0672 18.2654 10.0844C18.1629 10.1358 18.0516 10.1787 17.9314 10.2215C17.8459 10.2472 17.7686 10.273 17.683 10.2901C17.5283 10.3244 17.3742 10.3329 17.2113 10.3329L14.8113 10.3329C14.6484 10.3329 14.4855 10.3158 14.3314 10.2815C14.1855 10.2472 14.0396 10.2044 13.9025 10.1444C13.7654 10.0844 13.6371 10.0158 13.517 9.93867C13.3887 9.85298 13.2686 9.75865 13.1654 9.64724C13.0629 9.53584 12.9598 9.4158 12.8742 9.29583C12.7969 9.17579 12.7201 9.04725 12.6686 8.91006C12.6082 8.77295 12.5654 8.62727 12.5314 8.48152C12.4969 8.32727 12.4799 8.16438 12.4799 8.00149L12.4799 5.63584C12.4799 5.47295 12.4969 5.31863 12.5227 5.17295C12.5396 5.08726 12.5572 5.01006 12.583 4.92437C12.617 4.81297 12.6598 4.70149 12.7201 4.59866C12.7201 4.59009 12.7283 4.58152 12.7371 4.57295L10.3541 4.57295C10.2773 4.57295 10.2082 4.59009 10.1314 4.59866C9.19687 4.71006 8.46855 5.49009 8.44277 6.45008C8.44277 6.46722 8.44277 6.47578 8.44277 6.49292L8.44277 14.3873C8.44277 14.4472 8.45156 14.4987 8.45977 14.5501C8.52832 15.3215 9.04277 15.9558 9.7541 16.1958C9.94277 16.2558 10.1396 16.2987 10.3541 16.2987L16.4484 16.2987L16.4396 16.2815Z" fill="rgb(161,169,184)" fill-rule="evenodd" />
	<path id="Vector" d="M16.4396 17.5586L10.3453 17.5586C8.58867 17.5586 7.15723 16.1272 7.15723 14.37L7.15723 7.21289C6.24844 7.8386 5.64844 8.86722 5.64844 10.05L5.64844 15.9729C5.64844 17.8758 7.2 19.4272 9.10254 19.4272L13.4396 19.4272C14.7686 19.4272 15.917 18.6643 16.4912 17.55C16.4742 17.55 16.4572 17.55 16.4396 17.55L16.4396 17.5586ZM6.92578 15.9729C6.92578 15.9729 6.92578 16.0157 6.92578 16.0414C6.92578 16.0157 6.92578 15.9986 6.92578 15.9729Z" fill="rgb(161,169,184)" fill-rule="evenodd" />
	<path id="Vector" d="M16.4396 17.5586L10.3453 17.5586C8.58867 17.5586 7.15723 16.1272 7.15723 14.37L7.15723 7.21289C6.24844 7.8386 5.64844 8.86722 5.64844 10.05L5.64844 15.9729C5.64844 17.8758 7.2 19.4272 9.10254 19.4272L13.4396 19.4272C14.7686 19.4272 15.917 18.6643 16.4912 17.55C16.4742 17.55 16.4572 17.55 16.4396 17.55L16.4396 17.5586ZM6.92578 15.9729C6.92578 15.9729 6.92578 16.0157 6.92578 16.0414C6.92578 16.0157 6.92578 15.9986 6.92578 15.9729Z" fill="rgb(208,212,220)" fill-rule="evenodd" />
</svg>
