<svg viewBox="0 0 24 24" xmlns="http://www.w3.org/2000/svg" xmlns:xlink="http://www.w3.org/1999/xlink" width="24.000000" height="24.000000" fill="none" clip-path="url(#clipPath_69)" customFrame="url(#clipPath_69)">
	<defs>
		<clipPath id="clipPath_69">
			<rect width="24.000000" height="24.000000" x="0.000000" y="0.000000" rx="7.000000" fill="rgb(255,255,255)" />
		</clipPath>
	</defs>
	<rect id="24 / Yaga / Project-Pages / Article_accent" width="24.000000" height="24.000000" x="0.000000" y="0.000000" rx="7.000000" fill="rgb(0,85,255)" fill-opacity="0.100000001" />
	<path id="Vector" d="M14.8117 8.77282L17.2117 8.77282C17.9061 8.77282 18.2576 7.9243 17.7602 7.43571L15.3602 5.06998C14.8721 4.58138 14.0318 4.93287 14.0318 5.62714L14.0318 7.99286C14.0318 8.4214 14.3834 8.77282 14.8117 8.77282Z" fill="rgb(0,85,255)" fill-rule="evenodd" />
	<path id="Vector" d="M16.44 16.2814C16.6463 16.2814 16.852 16.2385 17.04 16.1786C17.752 15.9385 18.2746 15.3043 18.3344 14.5328C18.3344 14.4814 18.352 14.4214 18.352 14.37L18.352 10.0328C18.352 10.0328 18.2916 10.0671 18.2658 10.0842C18.1633 10.1357 18.052 10.1786 17.9318 10.2214C17.8463 10.2471 17.7689 10.2728 17.6834 10.29C17.5287 10.3242 17.3746 10.3328 17.2117 10.3328L14.8117 10.3328C14.6488 10.3328 14.4859 10.3157 14.3318 10.2814C14.1859 10.2471 14.04 10.2043 13.9029 10.1443C13.7658 10.0842 13.6375 10.0157 13.5174 9.93854C13.3891 9.85284 13.2689 9.75851 13.1658 9.64711C13.0633 9.53571 12.9602 9.41566 12.8746 9.29569C12.7973 9.17565 12.7205 9.04711 12.6689 8.90992C12.6086 8.77282 12.5658 8.62714 12.5318 8.48138C12.4973 8.32714 12.4803 8.16425 12.4803 8.00136L12.4803 5.63571C12.4803 5.47282 12.4973 5.31849 12.523 5.17281C12.54 5.08712 12.5576 5.00992 12.5834 4.92423C12.6174 4.81283 12.6602 4.70135 12.7205 4.59852C12.7205 4.58995 12.7287 4.58138 12.7375 4.57281L10.3545 4.57281C10.2777 4.57281 10.2086 4.58995 10.1318 4.59852C9.19727 4.70992 8.46895 5.48995 8.44316 6.44994C8.44316 6.46708 8.44316 6.47565 8.44316 6.49279L8.44316 14.3871C8.44316 14.4471 8.45195 14.4985 8.46016 14.5499C8.52871 15.3214 9.04316 15.9557 9.75449 16.1957C9.94316 16.2557 10.14 16.2985 10.3545 16.2985L16.4488 16.2985L16.44 16.2814Z" fill="rgb(0,85,255)" fill-rule="evenodd" />
	<path id="Vector" d="M16.44 16.2814C16.6463 16.2814 16.852 16.2385 17.04 16.1786C17.752 15.9385 18.2746 15.3043 18.3344 14.5328C18.3344 14.4814 18.352 14.4214 18.352 14.37L18.352 10.0328C18.352 10.0328 18.2916 10.0671 18.2658 10.0842C18.1633 10.1357 18.052 10.1786 17.9318 10.2214C17.8463 10.2471 17.7689 10.2728 17.6834 10.29C17.5287 10.3242 17.3746 10.3328 17.2117 10.3328L14.8117 10.3328C14.6488 10.3328 14.4859 10.3157 14.3318 10.2814C14.1859 10.2471 14.04 10.2043 13.9029 10.1443C13.7658 10.0842 13.6375 10.0157 13.5174 9.93854C13.3891 9.85284 13.2689 9.75851 13.1658 9.64711C13.0633 9.53571 12.9602 9.41566 12.8746 9.29569C12.7973 9.17565 12.7205 9.04711 12.6689 8.90992C12.6086 8.77282 12.5658 8.62714 12.5318 8.48138C12.4973 8.32714 12.4803 8.16425 12.4803 8.00136L12.4803 5.63571C12.4803 5.47282 12.4973 5.31849 12.523 5.17281C12.54 5.08712 12.5576 5.00992 12.5834 4.92423C12.6174 4.81283 12.6602 4.70135 12.7205 4.59852C12.7205 4.58995 12.7287 4.58138 12.7375 4.57281L10.3545 4.57281C10.2777 4.57281 10.2086 4.58995 10.1318 4.59852C9.19727 4.70992 8.46895 5.48995 8.44316 6.44994C8.44316 6.46708 8.44316 6.47565 8.44316 6.49279L8.44316 14.3871C8.44316 14.4471 8.45195 14.4985 8.46016 14.5499C8.52871 15.3214 9.04316 15.9557 9.75449 16.1957C9.94316 16.2557 10.14 16.2985 10.3545 16.2985L16.4488 16.2985L16.44 16.2814Z" fill="rgb(0,85,255)" fill-rule="evenodd" />
	<path id="Vector" d="M16.4406 17.5585L10.3463 17.5585C8.58965 17.5585 7.1582 16.1271 7.1582 14.37L7.1582 7.21283C6.24941 7.83854 5.64941 8.86715 5.64941 10.0499L5.64941 15.9728C5.64941 17.8757 7.20098 19.4271 9.10352 19.4271L13.4406 19.4271C14.7695 19.4271 15.918 18.6642 16.4922 17.5499C16.4752 17.5499 16.4582 17.5499 16.4406 17.5499L16.4406 17.5585ZM6.92676 15.9728C6.92676 15.9728 6.92676 16.0157 6.92676 16.0414C6.92676 16.0157 6.92676 15.9985 6.92676 15.9728Z" fill="rgb(0,85,255)" fill-rule="evenodd" />
	<path id="Vector" d="M16.4406 17.5585L10.3463 17.5585C8.58965 17.5585 7.1582 16.1271 7.1582 14.37L7.1582 7.21283C6.24941 7.83854 5.64941 8.86715 5.64941 10.0499L5.64941 15.9728C5.64941 17.8757 7.20098 19.4271 9.10352 19.4271L13.4406 19.4271C14.7695 19.4271 15.918 18.6642 16.4922 17.5499C16.4752 17.5499 16.4582 17.5499 16.4406 17.5499L16.4406 17.5585ZM6.92676 15.9728C6.92676 15.9728 6.92676 16.0157 6.92676 16.0414C6.92676 16.0157 6.92676 15.9985 6.92676 15.9728Z" fill="rgb(0,85,255)" fill-opacity="0.300000012" fill-rule="evenodd" />
</svg>
