<svg viewBox="0 0 24 24" xmlns="http://www.w3.org/2000/svg" xmlns:xlink="http://www.w3.org/1999/xlink" width="24.000000" height="24.000000" fill="none" clip-path="url(#clipPath_121)" customFrame="url(#clipPath_121)">
	<defs>
		<clipPath id="clipPath_121">
			<rect width="24.000000" height="24.000000" x="0.000000" y="0.000000" rx="7.000000" fill="rgb(255,255,255)" />
		</clipPath>
	</defs>
	<rect id="24 / Yaga / Project-Pages / Analytics_gray" width="24.000000" height="24.000000" x="0.000000" y="0.000000" rx="7.000000" fill="rgb(241,243,249)" />
	<path id="Vector" d="M17.9477 7.95001C17.21 6.88719 16.2414 6.09003 15.1446 5.57572C14.81 5.4129 14.4163 5.60143 14.2874 5.95292L12.41 11.1215C12.2477 11.5586 12.5729 12.03 13.0446 12.03L18.5389 12.0814C18.9162 12.0814 19.2244 11.7814 19.1904 11.4129C19.0785 10.1357 18.6332 8.95291 17.9389 7.95858L17.9477 7.95001Z" fill="rgb(208,212,220)" fill-rule="evenodd" />
	<path id="Vector" d="M18.5301 13.4358L13.0358 13.3844C12.8559 13.3844 12.6848 13.3586 12.5132 13.3158C12.3591 13.273 12.2132 13.213 12.0761 13.1358C11.939 13.0586 11.8188 12.973 11.6987 12.8701C11.5792 12.7672 11.4673 12.6387 11.3729 12.5015C11.2792 12.3644 11.2019 12.2186 11.1421 12.073C11.0905 11.9358 11.0478 11.7815 11.0302 11.6272C11.0044 11.4644 11.0044 11.3101 11.0132 11.1558C11.0302 10.9844 11.0647 10.813 11.1245 10.6415L13.0188 5.4901C13.0704 5.35299 13.1301 5.22438 13.2075 5.10441C12.7616 5.01864 12.3075 4.96722 11.8446 4.96722C7.95347 4.95865 4.80762 8.1044 4.80762 11.9958C4.80762 15.8873 7.95347 19.0329 11.8446 19.0329C15.2389 19.0329 18.076 16.6244 18.7357 13.4186C18.6672 13.4186 18.5986 13.4358 18.5301 13.4358Z" fill="rgb(208,212,220)" fill-rule="evenodd" />
	<path id="Vector" d="M18.5301 13.4358L13.0358 13.3844C12.8559 13.3844 12.6848 13.3586 12.5132 13.3158C12.3591 13.273 12.2132 13.213 12.0761 13.1358C11.939 13.0586 11.8188 12.973 11.6987 12.8701C11.5792 12.7672 11.4673 12.6387 11.3729 12.5015C11.2792 12.3644 11.2019 12.2186 11.1421 12.073C11.0905 11.9358 11.0478 11.7815 11.0302 11.6272C11.0044 11.4644 11.0044 11.3101 11.0132 11.1558C11.0302 10.9844 11.0647 10.813 11.1245 10.6415L13.0188 5.4901C13.0704 5.35299 13.1301 5.22438 13.2075 5.10441C12.7616 5.01864 12.3075 4.96722 11.8446 4.96722C7.95347 4.95865 4.80762 8.1044 4.80762 11.9958C4.80762 15.8873 7.95347 19.0329 11.8446 19.0329C15.2389 19.0329 18.076 16.6244 18.7357 13.4186C18.6672 13.4186 18.5986 13.4358 18.5301 13.4358Z" fill="rgb(161,169,184)" fill-rule="evenodd" />
</svg>
