<svg viewBox="0 0 24 24" xmlns="http://www.w3.org/2000/svg" xmlns:xlink="http://www.w3.org/1999/xlink" width="24.000000" height="24.000000" fill="none" clip-path="url(#clipPath_45)" customFrame="url(#clipPath_45)">
	<defs>
		<clipPath id="clipPath_45">
			<rect width="24.000000" height="24.000000" x="0.000000" y="0.000000" rx="7.000000" fill="rgb(255,255,255)" />
		</clipPath>
	</defs>
	<rect id="24 / Yaga / Project-Pages / File_color" width="24.000000" height="24.000000" x="0.000000" y="0.000000" rx="7.000000" fill="rgb(25,152,255)" fill-opacity="0.100000001" />
	<path id="Vector" d="M8.77987 12.0295C9.9201 8.13802 15.2515 7.83802 16.8799 11.438L17.634 11.6009C21.4396 12.4238 20.8396 18.0295 16.9484 18.0295L9.27675 18.0295C5.86543 17.9952 5.40254 13.1266 8.65976 12.398L8.77987 12.0295L8.77987 12.0295Z" fill="rgb(25,152,255)" fill-rule="evenodd" />
	<path id="Vector" d="M5.23144 14.1981C5.30879 13.8637 5.42011 13.5466 5.56601 13.2466C5.63457 13.1181 5.70312 12.9894 5.78867 12.8609C5.92578 12.6466 6.08867 12.4409 6.26035 12.2609C6.44023 12.0723 6.6371 11.9095 6.85156 11.7552C6.90312 11.7209 6.95468 11.6866 7.00566 11.6523C7.19433 11.5324 7.39179 11.4295 7.59745 11.3438C7.74335 10.9238 7.93144 10.5295 8.16288 10.1695C8.20566 10.1095 8.24023 10.0409 8.283 9.98087C8.45468 9.72379 8.65155 9.49234 8.86601 9.26947C9.05468 9.0723 9.26034 8.89234 9.483 8.72088C9.6371 8.60091 9.79999 8.48951 9.97167 8.39518C10.2805 8.20665 10.6057 8.05233 10.949 7.93236C11.1547 7.85516 11.3603 7.79517 11.566 7.74376C11.883 7.66663 12.2176 7.61522 12.5515 7.59808C12.8685 7.58087 13.1773 7.58087 13.4861 7.60665C13.5547 7.60665 13.6232 7.63236 13.6918 7.64093C11.6773 4.9752 7.16035 5.53235 6.11445 9.08087L6.00312 9.4495C3.29434 10.0581 3.17481 13.4952 5.15469 14.6695C5.17168 14.5152 5.19746 14.3523 5.23144 14.1981L5.23144 14.1981Z" fill="rgb(25,152,255)" fill-rule="evenodd" />
	<path id="Vector" d="M5.23144 14.1981C5.30879 13.8637 5.42011 13.5466 5.56601 13.2466C5.63457 13.1181 5.70312 12.9894 5.78867 12.8609C5.92578 12.6466 6.08867 12.4409 6.26035 12.2609C6.44023 12.0723 6.6371 11.9095 6.85156 11.7552C6.90312 11.7209 6.95468 11.6866 7.00566 11.6523C7.19433 11.5324 7.39179 11.4295 7.59745 11.3438C7.74335 10.9238 7.93144 10.5295 8.16288 10.1695C8.20566 10.1095 8.24023 10.0409 8.283 9.98087C8.45468 9.72379 8.65155 9.49234 8.86601 9.26947C9.05468 9.0723 9.26034 8.89234 9.483 8.72088C9.6371 8.60091 9.79999 8.48951 9.97167 8.39518C10.2805 8.20665 10.6057 8.05233 10.949 7.93236C11.1547 7.85516 11.3603 7.79517 11.566 7.74376C11.883 7.66663 12.2176 7.61522 12.5515 7.59808C12.8685 7.58087 13.1773 7.58087 13.4861 7.60665C13.5547 7.60665 13.6232 7.63236 13.6918 7.64093C11.6773 4.9752 7.16035 5.53235 6.11445 9.08087L6.00312 9.4495C3.29434 10.0581 3.17481 13.4952 5.15469 14.6695C5.17168 14.5152 5.19746 14.3523 5.23144 14.1981L5.23144 14.1981Z" fill="rgb(47,154,255)" fill-opacity="0.300000012" fill-rule="evenodd" />
</svg>
