<svg viewBox="0 0 24 24" xmlns="http://www.w3.org/2000/svg" xmlns:xlink="http://www.w3.org/1999/xlink" width="24.000000" height="24.000000" fill="none" clip-path="url(#clipPath_77)" customFrame="url(#clipPath_77)">
	<defs>
		<clipPath id="clipPath_77">
			<rect width="24.000000" height="24.000000" x="0.000000" y="0.000000" rx="7.000000" fill="rgb(255,255,255)" />
		</clipPath>
	</defs>
	<rect id="24 / Yaga / Project-Pages / Scrum_color" width="24.000000" height="24.000000" x="0.000000" y="0.000000" rx="7.000000" fill="rgb(255,71,71)" fill-opacity="0.100000001" />
	<path id="Vector" d="M12.4419 6.60589C12.647 6.44302 12.9304 6.41729 13.1787 6.53732C13.4102 6.65735 13.5647 6.89731 13.5647 7.16308L13.5647 10.0773C13.5647 10.583 13.9756 10.9945 14.4817 10.9945C14.9871 10.9945 15.3987 10.583 15.3987 10.0773L15.3987 9.75164C15.3987 9.47735 15.5532 9.2373 15.7927 9.12588C16.033 9.01446 16.3245 9.04019 16.5303 9.21166C17.4128 9.91451 18.0215 10.6773 18.3987 11.5259C18.7847 12.3659 18.9128 13.2488 18.9128 14.1659C18.9128 17.1402 16.3757 19.5231 13.5046 19.5231C10.6328 19.5231 8.27588 17.1059 8.27588 14.1659C8.27588 11.903 9.34741 10.0087 10.3669 8.70593C10.8818 8.05444 11.3872 7.53158 11.7812 7.1802C11.9702 7.00021 12.1416 6.86306 12.2529 6.76877C12.3042 6.71731 12.3562 6.68307 12.3899 6.65735L12.45 6.62301L12.4419 6.60589Z" fill="rgb(255,71,71)" fill-rule="evenodd" />
	<path id="Vector" d="M7.95801 18.0058C7.70093 17.6286 7.48706 17.2257 7.31567 16.7972C7.16113 16.4115 7.04102 16.0257 6.95532 15.6314C6.85278 15.1515 6.80151 14.6629 6.80151 14.1572C6.80151 14.0543 6.80151 13.9514 6.80151 13.8486C6.84399 12.7172 7.10107 11.5943 7.58154 10.48C7.97559 9.55435 8.51538 8.65429 9.20093 7.78006C9.42432 7.49716 9.64697 7.23147 9.88721 6.96579C10.1699 6.65716 10.4695 6.35724 10.7786 6.07434C10.813 6.04001 10.8811 5.98004 10.9324 5.93719L10.9324 5.24295C10.9324 4.95145 10.761 4.68576 10.5039 4.55722C10.238 4.42859 9.92969 4.45432 9.69824 4.63431L9.63818 4.67715C9.60376 4.70288 9.55249 4.74573 9.49243 4.79718C9.37231 4.9086 9.18408 5.05435 8.97827 5.25146C8.5498 5.64578 7.98438 6.22009 7.41821 6.94006C6.26978 8.38009 5.08691 10.4714 5.08691 12.9658C5.08691 15.1857 6.28662 17.14 8.07812 18.1515C8.0437 18.1 7.99243 18.0572 7.95801 18.0058Z" fill="rgb(255,71,71)" fill-rule="evenodd" />
	<path id="Vector" d="M7.95801 18.0058C7.70093 17.6286 7.48706 17.2257 7.31567 16.7972C7.16113 16.4115 7.04102 16.0257 6.95532 15.6314C6.85278 15.1515 6.80151 14.6629 6.80151 14.1572C6.80151 14.0543 6.80151 13.9514 6.80151 13.8486C6.84399 12.7172 7.10107 11.5943 7.58154 10.48C7.97559 9.55435 8.51538 8.65429 9.20093 7.78006C9.42432 7.49716 9.64697 7.23147 9.88721 6.96579C10.1699 6.65716 10.4695 6.35724 10.7786 6.07434C10.813 6.04001 10.8811 5.98004 10.9324 5.93719L10.9324 5.24295C10.9324 4.95145 10.761 4.68576 10.5039 4.55722C10.238 4.42859 9.92969 4.45432 9.69824 4.63431L9.63818 4.67715C9.60376 4.70288 9.55249 4.74573 9.49243 4.79718C9.37231 4.9086 9.18408 5.05435 8.97827 5.25146C8.5498 5.64578 7.98438 6.22009 7.41821 6.94006C6.26978 8.38009 5.08691 10.4714 5.08691 12.9658C5.08691 15.1857 6.28662 17.14 8.07812 18.1515C8.0437 18.1 7.99243 18.0572 7.95801 18.0058Z" fill="rgb(255,71,71)" fill-opacity="0.300000012" fill-rule="evenodd" />
</svg>
