<svg viewBox="0 0 24 24" xmlns="http://www.w3.org/2000/svg" xmlns:xlink="http://www.w3.org/1999/xlink" width="24.000000" height="24.000000" fill="none" clip-path="url(#clipPath_24)" customFrame="url(#clipPath_24)">
	<defs>
		<clipPath id="clipPath_24">
			<rect width="24.000000" height="24.000000" x="0.000000" y="0.000000" rx="7.000000" fill="rgb(255,255,255)" />
		</clipPath>
	</defs>
	<rect id="24 / Yaga / Project-Pages / Task_black" width="24.000000" height="24.000000" x="0.000000" y="0.000000" rx="7.000000" fill="rgb(241,243,249)" />
	<path id="Vector" d="M12.9252 13.7742C12.8309 13.8685 12.7278 13.9542 12.6164 14.0228C12.5133 14.0914 12.402 14.1428 12.2907 14.1943C12.1793 14.2371 12.0592 14.2714 11.9479 14.2971C11.8278 14.3228 11.6995 14.3314 11.5706 14.3314C11.4423 14.3314 11.3221 14.3228 11.1938 14.2971C11.0737 14.2714 10.9624 14.2371 10.8511 14.1943C10.7391 14.1513 10.6278 14.0914 10.5253 14.0228C10.4134 13.9542 10.3108 13.8685 10.2165 13.7742C10.1222 13.6799 10.0366 13.577 9.96806 13.4656C9.89951 13.3628 9.84795 13.2513 9.79638 13.1399C9.75361 13.0285 9.71963 12.9085 9.69385 12.7971C9.66807 12.677 9.65928 12.5485 9.65928 12.42C9.65928 12.2914 9.66807 12.1714 9.69385 12.0428C9.71963 11.9228 9.75361 11.8114 9.79638 11.6999C9.83916 11.5885 9.89951 11.477 9.96806 11.3742C10.0366 11.2628 10.1222 11.1599 10.2165 11.0656L12.5133 8.76848C12.2133 8.69135 11.9051 8.63994 11.5794 8.63994C9.50518 8.63994 7.81654 10.3285 7.81654 12.4114C7.81654 14.4942 9.50518 16.1828 11.5794 16.1828C13.6535 16.1828 15.351 14.4943 15.351 12.4114C15.351 12.0856 15.2994 11.777 15.2221 11.477L12.9252 13.7742L12.9252 13.7742Z" fill="rgb(58,71,96)" fill-rule="evenodd" />
	<path id="Vector" d="M18.1195 10.1228C18.0767 10.1571 18.0257 10.1828 17.9824 10.2086C17.9314 10.2343 17.888 10.26 17.8371 10.2857C17.7339 10.3285 17.6314 10.3714 17.5195 10.3971C17.4082 10.4228 17.3056 10.4485 17.1943 10.4571C17.1427 10.4571 17.0824 10.4571 17.0314 10.4571C16.9711 10.4571 16.9195 10.4571 16.8685 10.4571C16.7572 10.4485 16.6453 10.4314 16.5427 10.3971L16.3711 10.3542L16.2597 10.4656C16.517 11.0656 16.6541 11.7257 16.6541 12.42C16.6541 15.2057 14.3824 17.4771 11.5969 17.4771C8.81144 17.4771 6.5398 15.2057 6.5398 12.42C6.5398 9.63427 8.81144 7.36281 11.5969 7.36281C12.2913 7.36281 12.951 7.49999 13.551 7.75707L13.6629 7.64567L13.6114 7.46564C13.5686 7.30283 13.5428 7.13137 13.5428 6.96855C13.5428 6.80566 13.5686 6.63427 13.6114 6.47138C13.6541 6.30856 13.7227 6.15424 13.8 6.00856C13.8686 5.88852 13.9629 5.78569 14.0572 5.67421C13.2856 5.39142 12.4629 5.22853 11.5969 5.22853C7.63725 5.22853 4.42285 8.44284 4.42285 12.4028C4.42285 16.3628 7.63725 19.5771 11.5969 19.5771C15.5572 19.5771 18.771 16.3628 18.771 12.4028C18.771 11.5371 18.6081 10.7057 18.3257 9.94284C18.2654 10.0028 18.1968 10.0628 18.1283 10.1057L18.1195 10.1228Z" fill="rgb(58,71,96)" fill-rule="evenodd" />
	<path id="Vector" d="M18.1195 10.1228C18.0767 10.1571 18.0257 10.1828 17.9824 10.2086C17.9314 10.2343 17.888 10.26 17.8371 10.2857C17.7339 10.3285 17.6314 10.3714 17.5195 10.3971C17.4082 10.4228 17.3056 10.4485 17.1943 10.4571C17.1427 10.4571 17.0824 10.4571 17.0314 10.4571C16.9711 10.4571 16.9195 10.4571 16.8685 10.4571C16.7572 10.4485 16.6453 10.4314 16.5427 10.3971L16.3711 10.3542L16.2597 10.4656C16.517 11.0656 16.6541 11.7257 16.6541 12.42C16.6541 15.2057 14.3824 17.4771 11.5969 17.4771C8.81144 17.4771 6.5398 15.2057 6.5398 12.42C6.5398 9.63427 8.81144 7.36281 11.5969 7.36281C12.2913 7.36281 12.951 7.49999 13.551 7.75707L13.6629 7.64567L13.6114 7.46564C13.5686 7.30283 13.5428 7.13137 13.5428 6.96855C13.5428 6.80566 13.5686 6.63427 13.6114 6.47138C13.6541 6.30856 13.7227 6.15424 13.8 6.00856C13.8686 5.88852 13.9629 5.78569 14.0572 5.67421C13.2856 5.39142 12.4629 5.22853 11.5969 5.22853C7.63725 5.22853 4.42285 8.44284 4.42285 12.4028C4.42285 16.3628 7.63725 19.5771 11.5969 19.5771C15.5572 19.5771 18.771 16.3628 18.771 12.4028C18.771 11.5371 18.6081 10.7057 18.3257 9.94284C18.2654 10.0028 18.1968 10.0628 18.1283 10.1057L18.1195 10.1228Z" fill="rgb(208,212,220)" fill-rule="evenodd" />
	<path id="Vector" d="M15.0855 8.03144L14.8453 7.13144C14.8195 7.02004 14.8195 6.91713 14.8453 6.80573C14.8711 6.69433 14.9309 6.60856 15.0082 6.52287L16.9453 4.58576C17.0654 4.46572 17.2107 4.40573 17.3824 4.40573C17.4679 4.40573 17.5453 4.42287 17.6226 4.44858C17.6994 4.48286 17.7597 4.5257 17.8283 4.58576C17.8453 4.6029 17.8623 4.62861 17.8798 4.64575C17.8968 4.66288 17.9138 4.68859 17.9226 4.7143C17.9484 4.75715 17.9736 4.80856 17.9824 4.86005L18.2308 5.76005L19.1308 6.00856C19.2169 6.03427 19.2855 6.06862 19.3452 6.12004C19.405 6.17145 19.4566 6.23144 19.4993 6.30856C19.5855 6.45432 19.6025 6.61713 19.5597 6.78002C19.5421 6.83144 19.5251 6.88286 19.4993 6.9257C19.4735 6.96862 19.4396 7.01147 19.405 7.05432L17.4679 8.99142C17.4679 8.99142 17.3824 9.06005 17.3396 9.09433C17.2968 9.12004 17.2453 9.14575 17.1855 9.15432C17.1339 9.17145 17.0736 9.18002 17.0226 9.17145C16.9711 9.17145 16.9107 9.17145 16.8597 9.14575L15.9679 8.90573L12.0083 12.8657C11.768 13.1057 11.3737 13.1057 11.1253 12.8657C10.8856 12.6257 10.8856 12.2314 11.1253 11.9829L15.0855 8.02287L15.0855 8.03144Z" fill="rgb(58,71,96)" fill-rule="evenodd" />
	<path id="Vector" d="M15.0855 8.03144L14.8453 7.13144C14.8195 7.02004 14.8195 6.91713 14.8453 6.80573C14.8711 6.69433 14.9309 6.60856 15.0082 6.52287L16.9453 4.58576C17.0654 4.46572 17.2107 4.40573 17.3824 4.40573C17.4679 4.40573 17.5453 4.42287 17.6226 4.44858C17.6994 4.48286 17.7597 4.5257 17.8283 4.58576C17.8453 4.6029 17.8623 4.62861 17.8798 4.64575C17.8968 4.66288 17.9138 4.68859 17.9226 4.7143C17.9484 4.75715 17.9736 4.80856 17.9824 4.86005L18.2308 5.76005L19.1308 6.00856C19.2169 6.03427 19.2855 6.06862 19.3452 6.12004C19.405 6.17145 19.4566 6.23144 19.4993 6.30856C19.5855 6.45432 19.6025 6.61713 19.5597 6.78002C19.5421 6.83144 19.5251 6.88286 19.4993 6.9257C19.4735 6.96862 19.4396 7.01147 19.405 7.05432L17.4679 8.99142C17.4679 8.99142 17.3824 9.06005 17.3396 9.09433C17.2968 9.12004 17.2453 9.14575 17.1855 9.15432C17.1339 9.17145 17.0736 9.18002 17.0226 9.17145C16.9711 9.17145 16.9107 9.17145 16.8597 9.14575L15.9679 8.90573L12.0083 12.8657C11.768 13.1057 11.3737 13.1057 11.1253 12.8657C10.8856 12.6257 10.8856 12.2314 11.1253 11.9829L15.0855 8.02287L15.0855 8.03144Z" fill="rgb(58,71,96)" fill-rule="evenodd" />
</svg>
