<svg viewBox="0 0 24 24" xmlns="http://www.w3.org/2000/svg" xmlns:xlink="http://www.w3.org/1999/xlink" width="24.000000" height="24.000000" fill="none" clip-path="url(#clipPath_97)" customFrame="url(#clipPath_97)">
	<defs>
		<clipPath id="clipPath_97">
			<rect width="24.000000" height="24.000000" x="0.000000" y="0.000000" rx="7.000000" fill="rgb(255,255,255)" />
		</clipPath>
	</defs>
	<rect id="24 / Yaga / Project-Pages / Dashboard_black" width="24.000000" height="24.000000" x="0.000000" y="0.000000" rx="7.000000" fill="rgb(241,243,249)" />
	<path id="Vector" d="M6.37286 16.2259C6.22696 15.9002 6.09864 15.5659 5.99552 15.223C5.90118 14.9145 5.82442 14.5973 5.77286 14.2802C5.69551 13.8173 5.65274 13.3545 5.65274 12.8745C5.65274 12.2745 5.71251 11.683 5.84141 11.1087C5.94395 10.6288 6.09864 10.1573 6.29552 9.6945C6.49298 9.23161 6.72442 8.7945 6.99864 8.37445C7.29865 7.92021 7.64962 7.49159 8.04396 7.09733C8.4383 6.70307 8.86721 6.35158 9.32131 6.05158C9.73264 5.77736 10.1785 5.54591 10.6414 5.34874C11.1043 5.15158 11.5754 5.0059 12.0553 4.8945C12.1069 4.88593 12.1672 4.87736 12.2182 4.86879C8.84142 3.76305 5.18106 5.55448 3.99863 8.92304C2.99551 11.7859 4.10117 14.8802 6.50118 16.5087C6.45841 16.4145 6.40685 16.3288 6.37286 16.2344L6.37286 16.2259Z" fill="rgb(208,212,220)" fill-rule="evenodd" />
	<path id="Vector" d="M13.8213 6.32587C10.2043 6.32587 7.27286 9.25732 7.27286 12.8745C7.27286 14.1859 7.65841 15.403 8.31877 16.4316L7.58986 18.3602C7.34142 19.0116 7.97599 19.6459 8.62697 19.4059L10.7012 18.643C11.627 19.1488 12.6899 19.4316 13.8213 19.4316C17.4383 19.4316 20.3698 16.5002 20.3698 12.883C20.3698 9.26589 17.4383 6.33444 13.8213 6.33444L13.8213 6.32587ZM13.8213 9.25732C14.5584 9.25732 15.1672 9.85732 15.1672 10.603C15.1672 11.3487 14.5672 11.9487 13.8213 11.9487C13.076 11.9487 12.476 11.3487 12.476 10.603C12.476 9.85732 13.076 9.25732 13.8213 9.25732ZM15.1584 15.883C15.1584 16.2344 14.876 16.5173 14.5245 16.5173L13.1012 16.5173C12.7502 16.5173 12.4672 16.2344 12.4672 15.883L12.4672 13.2344C12.4672 12.883 12.7502 12.6002 13.1012 12.6002L14.5245 12.6002C14.876 12.6002 15.1584 12.883 15.1584 13.2344L15.1584 15.883Z" fill="rgb(208,212,220)" fill-rule="evenodd" />
	<path id="Vector" d="M13.8213 6.32587C10.2043 6.32587 7.27286 9.25732 7.27286 12.8745C7.27286 14.1859 7.65841 15.403 8.31877 16.4316L7.58986 18.3602C7.34142 19.0116 7.97599 19.6459 8.62697 19.4059L10.7012 18.643C11.627 19.1488 12.6899 19.4316 13.8213 19.4316C17.4383 19.4316 20.3698 16.5002 20.3698 12.883C20.3698 9.26589 17.4383 6.33444 13.8213 6.33444L13.8213 6.32587ZM13.8213 9.25732C14.5584 9.25732 15.1672 9.85732 15.1672 10.603C15.1672 11.3487 14.5672 11.9487 13.8213 11.9487C13.076 11.9487 12.476 11.3487 12.476 10.603C12.476 9.85732 13.076 9.25732 13.8213 9.25732ZM15.1584 15.883C15.1584 16.2344 14.876 16.5173 14.5245 16.5173L13.1012 16.5173C12.7502 16.5173 12.4672 16.2344 12.4672 15.883L12.4672 13.2344C12.4672 12.883 12.7502 12.6002 13.1012 12.6002L14.5245 12.6002C14.876 12.6002 15.1584 12.883 15.1584 13.2344L15.1584 15.883Z" fill="rgb(58,71,96)" fill-rule="evenodd" />
</svg>
