<svg viewBox="0 0 24 24" xmlns="http://www.w3.org/2000/svg" xmlns:xlink="http://www.w3.org/1999/xlink" width="24.000000" height="24.000000" fill="none" clip-path="url(#clipPath_101)" customFrame="url(#clipPath_101)">
	<defs>
		<clipPath id="clipPath_101">
			<rect width="24.000000" height="24.000000" x="0.000000" y="0.000000" rx="7.000000" fill="rgb(255,255,255)" />
		</clipPath>
	</defs>
	<rect id="24 / Yaga / Project-Pages / Dashboard_accent" width="24.000000" height="24.000000" x="0.000000" y="0.000000" rx="7.000000" fill="rgb(0,85,255)" fill-opacity="0.100000001" />
	<path id="Vector" d="M6.37384 16.2257C6.22794 15.9 6.09962 15.5657 5.99649 15.2229C5.90216 14.9143 5.8254 14.5972 5.77384 14.28C5.69649 13.8171 5.65372 13.3543 5.65372 12.8743C5.65372 12.2743 5.71348 11.6828 5.84239 11.1085C5.94493 10.6286 6.09962 10.1571 6.29649 9.69431C6.49396 9.23142 6.7254 8.79432 6.99962 8.37427C7.29962 7.92002 7.6506 7.49141 8.04494 7.09715C8.43927 6.70288 8.86818 6.35139 9.32228 6.05139C9.73361 5.77717 10.1795 5.54573 10.6424 5.34856C11.1053 5.15139 11.5764 5.00571 12.0563 4.89431C12.1078 4.88574 12.1682 4.87717 12.2192 4.8686C8.8424 3.76287 5.18204 5.5543 3.99961 8.92286C2.99648 11.7857 4.10215 14.88 6.50216 16.5086C6.45938 16.4143 6.40782 16.3286 6.37384 16.2343L6.37384 16.2257Z" fill="rgb(0,85,255)" fill-opacity="0.300000012" fill-rule="evenodd" />
	<path id="Vector" d="M13.8223 6.32569C10.2053 6.32569 7.27384 9.25713 7.27384 12.8743C7.27384 14.1857 7.65939 15.4028 8.31974 16.4314L7.59083 18.36C7.3424 19.0114 7.97697 19.6457 8.62795 19.4057L10.7022 18.6428C11.628 19.1486 12.6909 19.4314 13.8223 19.4314C17.4393 19.4314 20.3708 16.5 20.3708 12.8828C20.3708 9.2657 17.4393 6.33425 13.8223 6.33425L13.8223 6.32569ZM13.8223 9.25713C14.5594 9.25713 15.1682 9.85713 15.1682 10.6028C15.1682 11.3486 14.5682 11.9486 13.8223 11.9486C13.077 11.9486 12.477 11.3486 12.477 10.6028C12.477 9.85713 13.077 9.25713 13.8223 9.25713ZM15.1594 15.8828C15.1594 16.2343 14.877 16.5171 14.5254 16.5171L13.1022 16.5171C12.7512 16.5171 12.4682 16.2343 12.4682 15.8828L12.4682 13.2343C12.4682 12.8828 12.7512 12.6 13.1022 12.6L14.5254 12.6C14.877 12.6 15.1594 12.8828 15.1594 13.2343L15.1594 15.8828Z" fill="rgb(0,85,255)" fill-opacity="0.300000012" fill-rule="evenodd" />
	<path id="Vector" d="M13.8223 6.32569C10.2053 6.32569 7.27384 9.25713 7.27384 12.8743C7.27384 14.1857 7.65939 15.4028 8.31974 16.4314L7.59083 18.36C7.3424 19.0114 7.97697 19.6457 8.62795 19.4057L10.7022 18.6428C11.628 19.1486 12.6909 19.4314 13.8223 19.4314C17.4393 19.4314 20.3708 16.5 20.3708 12.8828C20.3708 9.2657 17.4393 6.33425 13.8223 6.33425L13.8223 6.32569ZM13.8223 9.25713C14.5594 9.25713 15.1682 9.85713 15.1682 10.6028C15.1682 11.3486 14.5682 11.9486 13.8223 11.9486C13.077 11.9486 12.477 11.3486 12.477 10.6028C12.477 9.85713 13.077 9.25713 13.8223 9.25713ZM15.1594 15.8828C15.1594 16.2343 14.877 16.5171 14.5254 16.5171L13.1022 16.5171C12.7512 16.5171 12.4682 16.2343 12.4682 15.8828L12.4682 13.2343C12.4682 12.8828 12.7512 12.6 13.1022 12.6L14.5254 12.6C14.877 12.6 15.1594 12.8828 15.1594 13.2343L15.1594 15.8828Z" fill="rgb(0,85,255)" fill-rule="evenodd" />
</svg>
