<svg viewBox="0 0 24 24" xmlns="http://www.w3.org/2000/svg" xmlns:xlink="http://www.w3.org/1999/xlink" width="24.000000" height="24.000000" fill="none" clip-path="url(#clipPath_81)" customFrame="url(#clipPath_81)">
	<defs>
		<clipPath id="clipPath_81">
			<rect width="24.000000" height="24.000000" x="0.000000" y="0.000000" rx="7.000000" fill="rgb(255,255,255)" />
		</clipPath>
	</defs>
	<rect id="24 / Yaga / Project-Pages / Scrum_black" width="24.000000" height="24.000000" x="0.000000" y="0.000000" rx="7.000000" fill="rgb(241,243,249)" />
	<path id="Vector" d="M12.441 6.606C12.6473 6.4431 12.9297 6.4174 13.1787 6.53737C13.4102 6.65741 13.5643 6.89735 13.5643 7.16308L13.5643 10.0774C13.5643 10.5831 13.9756 10.9945 14.4813 10.9945C14.9869 10.9945 15.3982 10.5831 15.3982 10.0774L15.3982 9.75168C15.3982 9.47738 15.5529 9.23737 15.7926 9.12597C16.0328 9.01457 16.324 9.04027 16.5297 9.21166C17.4127 9.91457 18.0215 10.6774 18.3982 11.526C18.7844 12.366 18.9127 13.2488 18.9127 14.166C18.9127 17.1403 16.3756 19.5231 13.5039 19.5231C10.6328 19.5231 8.27559 17.1059 8.27559 14.166C8.27559 11.9031 9.34727 10.0088 10.3668 8.70592C10.8813 8.05451 11.3869 7.5317 11.7813 7.18021C11.9699 7.00026 12.141 6.86308 12.2529 6.76881C12.3039 6.7174 12.3555 6.68312 12.39 6.65741L12.4498 6.62313L12.441 6.606Z" fill="rgb(58,71,96)" fill-rule="evenodd" />
	<path id="Vector" d="M7.95859 18.0059C7.70137 17.6288 7.48691 17.2259 7.31523 16.7974C7.16113 16.4117 7.04102 16.0259 6.95547 15.6316C6.85234 15.1516 6.80137 14.6631 6.80137 14.1573C6.80137 14.0545 6.80137 13.9516 6.80137 13.8488C6.84414 12.7173 7.10137 11.5945 7.58125 10.4802C7.97559 9.55451 8.51523 8.65451 9.20137 7.78021C9.42402 7.49735 9.64668 7.23163 9.88692 6.96591C10.1699 6.65734 10.4699 6.35734 10.7781 6.07448C10.8127 6.0402 10.8813 5.98021 10.9328 5.93737L10.9328 5.24303C10.9328 4.9516 10.7611 4.68595 10.5039 4.55734C10.2385 4.4288 9.92969 4.4545 9.69824 4.63446L9.63848 4.67738C9.60391 4.70309 9.55234 4.74594 9.49258 4.79735C9.37246 4.90875 9.18379 5.0545 8.97813 5.2516C8.5498 5.64594 7.98379 6.22023 7.41836 6.9402C6.26992 8.38021 5.08691 10.4716 5.08691 12.9659C5.08691 15.186 6.28691 17.1402 8.07812 18.1516C8.04414 18.1002 7.99258 18.0573 7.95859 18.0059Z" fill="rgb(58,71,96)" fill-rule="evenodd" />
	<path id="Vector" d="M7.95859 18.0059C7.70137 17.6288 7.48691 17.2259 7.31523 16.7974C7.16113 16.4117 7.04102 16.0259 6.95547 15.6316C6.85234 15.1516 6.80137 14.6631 6.80137 14.1573C6.80137 14.0545 6.80137 13.9516 6.80137 13.8488C6.84414 12.7173 7.10137 11.5945 7.58125 10.4802C7.97559 9.55451 8.51523 8.65451 9.20137 7.78021C9.42402 7.49735 9.64668 7.23163 9.88692 6.96591C10.1699 6.65734 10.4699 6.35734 10.7781 6.07448C10.8127 6.0402 10.8813 5.98021 10.9328 5.93737L10.9328 5.24303C10.9328 4.9516 10.7611 4.68595 10.5039 4.55734C10.2385 4.4288 9.92969 4.4545 9.69824 4.63446L9.63848 4.67738C9.60391 4.70309 9.55234 4.74594 9.49258 4.79735C9.37246 4.90875 9.18379 5.0545 8.97813 5.2516C8.5498 5.64594 7.98379 6.22023 7.41836 6.9402C6.26992 8.38021 5.08691 10.4716 5.08691 12.9659C5.08691 15.186 6.28691 17.1402 8.07812 18.1516C8.04414 18.1002 7.99258 18.0573 7.95859 18.0059Z" fill="rgb(208,212,220)" fill-rule="evenodd" />
</svg>
