<svg viewBox="0 0 24 24" xmlns="http://www.w3.org/2000/svg" xmlns:xlink="http://www.w3.org/1999/xlink" width="24.000000" height="24.000000" fill="none" clip-path="url(#clipPath_109)" customFrame="url(#clipPath_109)">
	<defs>
		<clipPath id="clipPath_109">
			<rect width="24.000000" height="24.000000" x="0.000000" y="0.000000" rx="7.000000" fill="rgb(255,255,255)" />
		</clipPath>
	</defs>
	<rect id="24 / Yaga / Project-Pages / Team_color" width="24.000000" height="24.000000" x="0.000000" y="0.000000" rx="7.000000" fill="rgb(241,167,79)" fill-opacity="0.200000003" />
	<path id="Vector" d="M16.3059 9.67296C16.3059 8.23294 15.1147 7.1015 13.692 7.1015C12.2687 7.1015 11.0775 8.23294 11.0775 9.67296C11.0775 11.1129 12.2687 12.2443 13.692 12.2443C15.1147 12.2443 16.3059 11.1129 16.3059 9.67296ZM18.2606 15.4158C16.0317 12.3129 11.3001 12.0043 9.23465 15.1415C9.06297 15.3987 8.83152 15.8701 8.78054 16.2472C8.76296 16.3587 8.74597 16.6929 8.74597 16.6929C8.74597 17.7815 9.629 18.6558 10.7089 18.6558L16.6663 18.6558C17.755 18.6558 18.6808 17.773 18.6292 16.6929C18.6116 16.3672 18.5003 15.7415 18.2606 15.4158Z" fill="rgb(238,145,35)" fill-rule="evenodd" />
	<path id="Vector" d="M9.75791 10.4443C9.70634 10.1957 9.67236 9.93853 9.67236 9.67281C9.67236 9.37281 9.70634 9.08138 9.7667 8.79859C9.81767 8.55858 9.89502 8.32713 9.99756 8.10425C10.0919 7.88995 10.2038 7.68428 10.3233 7.49568C10.478 7.26424 10.6579 7.04144 10.8636 6.8357C11.0435 6.65567 11.2409 6.50142 11.4466 6.36424C11.6265 6.24427 11.8234 6.14144 12.0291 6.05567C11.5667 5.61856 10.9322 5.34427 10.2466 5.34427C8.82332 5.34427 7.63208 6.47571 7.63208 7.91573C7.63208 9.18428 8.55788 10.2214 9.75791 10.4443Z" fill="rgb(238,145,35)" fill-rule="evenodd" />
	<path id="Vector" d="M9.75791 10.4443C9.70634 10.1957 9.67236 9.93853 9.67236 9.67281C9.67236 9.37281 9.70634 9.08138 9.7667 8.79859C9.81767 8.55858 9.89502 8.32713 9.99756 8.10425C10.0919 7.88995 10.2038 7.68428 10.3233 7.49568C10.478 7.26424 10.6579 7.04144 10.8636 6.8357C11.0435 6.65567 11.2409 6.50142 11.4466 6.36424C11.6265 6.24427 11.8234 6.14144 12.0291 6.05567C11.5667 5.61856 10.9322 5.34427 10.2466 5.34427C8.82332 5.34427 7.63208 6.47571 7.63208 7.91573C7.63208 9.18428 8.55788 10.2214 9.75791 10.4443Z" fill="rgb(238,145,35)" fill-opacity="0.300000012" fill-rule="evenodd" />
	<path id="Vector" d="M7.34086 16.6928L7.31508 16.2899C7.30629 15.5013 7.6063 15.0299 7.77798 14.7471C7.82896 14.6613 8.12897 14.2671 8.12897 14.2671L8.12897 14.2499C8.3862 13.9499 8.65222 13.6671 8.94344 13.4099C9.08055 13.2899 9.21766 13.1785 9.36356 13.0671C9.56923 12.9128 9.78369 12.7671 10.0064 12.6299C10.2208 12.5013 10.4347 12.3899 10.6579 12.287C10.529 12.1499 10.4177 11.9956 10.3151 11.8414C10.2038 11.6699 10.1007 11.4814 10.0151 11.2842C8.43776 11.3442 6.64651 12.0557 5.72891 13.5299C5.52325 13.8899 5.36914 14.4471 5.36914 15.0557C5.38613 16.1356 6.18361 16.8985 7.26352 16.8985L7.36606 16.8985C7.36606 16.8985 7.34086 16.7613 7.34086 16.6928Z" fill="rgb(238,145,35)" fill-rule="evenodd" />
	<path id="Vector" d="M7.34086 16.6928L7.31508 16.2899C7.30629 15.5013 7.6063 15.0299 7.77798 14.7471C7.82896 14.6613 8.12897 14.2671 8.12897 14.2671L8.12897 14.2499C8.3862 13.9499 8.65222 13.6671 8.94344 13.4099C9.08055 13.2899 9.21766 13.1785 9.36356 13.0671C9.56923 12.9128 9.78369 12.7671 10.0064 12.6299C10.2208 12.5013 10.4347 12.3899 10.6579 12.287C10.529 12.1499 10.4177 11.9956 10.3151 11.8414C10.2038 11.6699 10.1007 11.4814 10.0151 11.2842C8.43776 11.3442 6.64651 12.0557 5.72891 13.5299C5.52325 13.8899 5.36914 14.4471 5.36914 15.0557C5.38613 16.1356 6.18361 16.8985 7.26352 16.8985L7.36606 16.8985C7.36606 16.8985 7.34086 16.7613 7.34086 16.6928Z" fill="rgb(238,145,35)" fill-opacity="0.300000012" fill-rule="evenodd" />
</svg>
