<svg viewBox="0 0 24 24" xmlns="http://www.w3.org/2000/svg" xmlns:xlink="http://www.w3.org/1999/xlink" width="24.000000" height="24.000000" fill="none" clip-path="url(#clipPath_73)" customFrame="url(#clipPath_73)">
	<defs>
		<clipPath id="clipPath_73">
			<rect width="24.000000" height="24.000000" x="0.000000" y="0.000000" rx="7.000000" fill="rgb(255,255,255)" />
		</clipPath>
	</defs>
	<rect id="24 / Yaga / Project-Pages / Scrum_gray" width="24.000000" height="24.000000" x="0.000000" y="0.000000" rx="7.000000" fill="rgb(241,243,249)" />
	<path id="Vector" d="M12.4421 6.60598C12.6472 6.44311 12.9307 6.41739 13.179 6.53741C13.4104 6.65744 13.5649 6.8974 13.5649 7.16317L13.5649 10.0774C13.5649 10.5831 13.9758 10.9946 14.4819 10.9946C14.9873 10.9946 15.3989 10.5831 15.3989 10.0774L15.3989 9.75173C15.3989 9.47744 15.5535 9.23739 15.793 9.12597C16.0332 9.01455 16.3247 9.04028 16.5305 9.21176C17.4131 9.9146 18.0217 10.6774 18.3989 11.526C18.7849 12.366 18.9131 13.2489 18.9131 14.166C18.9131 17.1403 16.376 19.5231 13.5049 19.5231C10.6331 19.5231 8.27612 17.106 8.27612 14.166C8.27612 11.9031 9.34766 10.0088 10.3672 8.70602C10.8821 8.05453 11.3875 7.53167 11.7815 7.18029C11.9705 7.0003 12.1418 6.86316 12.2532 6.76886C12.3044 6.7174 12.3564 6.68316 12.3901 6.65744L12.4502 6.62311L12.4421 6.60598Z" fill="rgb(161,169,184)" fill-rule="evenodd" />
	<path id="Vector" d="M7.95898 18.0059C7.7019 17.6288 7.48804 17.2259 7.31665 16.7973C7.16211 16.4116 7.04199 16.0259 6.9563 15.6316C6.85376 15.1517 6.80249 14.6631 6.80249 14.1573C6.80249 14.0545 6.80249 13.9516 6.80249 13.8488C6.84497 12.7174 7.10205 11.5945 7.58252 10.4802C7.97656 9.55453 8.51636 8.65447 9.2019 7.78024C9.42529 7.49734 9.64795 7.23166 9.88818 6.96597C10.1709 6.65735 10.4705 6.35742 10.7795 6.07452C10.814 6.04019 10.8821 5.98022 10.9333 5.93738L10.9333 5.24313C10.9333 4.95163 10.762 4.68594 10.5049 4.5574C10.239 4.42877 9.93066 4.4545 9.69922 4.63449L9.63916 4.67734C9.60474 4.70306 9.55347 4.74591 9.49341 4.79736C9.37329 4.90878 9.18506 5.05453 8.97925 5.25165C8.55078 5.64596 7.98535 6.22027 7.41919 6.94024C6.27075 8.38027 5.08789 10.4716 5.08789 12.966C5.08789 15.1859 6.2876 17.1402 8.0791 18.1517C8.04468 18.1002 7.99341 18.0574 7.95898 18.0059Z" fill="rgb(161,169,184)" fill-rule="evenodd" />
	<path id="Vector" d="M7.95898 18.0059C7.7019 17.6288 7.48804 17.2259 7.31665 16.7973C7.16211 16.4116 7.04199 16.0259 6.9563 15.6316C6.85376 15.1517 6.80249 14.6631 6.80249 14.1573C6.80249 14.0545 6.80249 13.9516 6.80249 13.8488C6.84497 12.7174 7.10205 11.5945 7.58252 10.4802C7.97656 9.55453 8.51636 8.65447 9.2019 7.78024C9.42529 7.49734 9.64795 7.23166 9.88818 6.96597C10.1709 6.65735 10.4705 6.35742 10.7795 6.07452C10.814 6.04019 10.8821 5.98022 10.9333 5.93738L10.9333 5.24313C10.9333 4.95163 10.762 4.68594 10.5049 4.5574C10.239 4.42877 9.93066 4.4545 9.69922 4.63449L9.63916 4.67734C9.60474 4.70306 9.55347 4.74591 9.49341 4.79736C9.37329 4.90878 9.18506 5.05453 8.97925 5.25165C8.55078 5.64596 7.98535 6.22027 7.41919 6.94024C6.27075 8.38027 5.08789 10.4716 5.08789 12.966C5.08789 15.1859 6.2876 17.1402 8.0791 18.1517C8.04468 18.1002 7.99341 18.0574 7.95898 18.0059Z" fill="rgb(208,212,220)" fill-rule="evenodd" />
</svg>
