<svg viewBox="0 0 24 24" xmlns="http://www.w3.org/2000/svg" xmlns:xlink="http://www.w3.org/1999/xlink" width="24.000000" height="24.000000" fill="none" clip-path="url(#clipPath_65)" customFrame="url(#clipPath_65)">
	<defs>
		<clipPath id="clipPath_65">
			<rect width="24.000000" height="24.000000" x="0.000000" y="0.000000" rx="7.000000" fill="rgb(255,255,255)" />
		</clipPath>
	</defs>
	<rect id="24 / Yaga / Project-Pages / Article_black" width="24.000000" height="24.000000" x="0.000000" y="0.000000" rx="7.000000" fill="rgb(241,243,249)" />
	<path id="Vector" d="M14.8107 8.77286L17.2107 8.77286C17.9051 8.77286 18.2566 7.92435 17.7592 7.43575L15.3592 5.07003C14.8711 4.58143 14.0309 4.93292 14.0309 5.62718L14.0309 7.99291C14.0309 8.42145 14.3824 8.77286 14.8107 8.77286Z" fill="rgb(58,71,96)" fill-rule="evenodd" />
	<path id="Vector" d="M16.4396 16.2815C16.6459 16.2815 16.8516 16.2387 17.0396 16.1787C17.7516 15.9387 18.2742 15.3044 18.334 14.5329C18.334 14.4815 18.3516 14.4215 18.3516 14.3701L18.3516 10.0329C18.3516 10.0329 18.2912 10.0672 18.2654 10.0843C18.1629 10.1358 18.0516 10.1787 17.9314 10.2215C17.8459 10.2472 17.7686 10.2729 17.683 10.2901C17.5283 10.3244 17.3742 10.3329 17.2113 10.3329L14.8113 10.3329C14.6484 10.3329 14.4855 10.3158 14.3314 10.2815C14.1855 10.2472 14.0396 10.2044 13.9025 10.1444C13.7654 10.0843 13.6371 10.0158 13.517 9.93866C13.3887 9.85297 13.2686 9.75863 13.1654 9.64723C13.0629 9.53583 12.9598 9.41578 12.8742 9.29581C12.7969 9.17577 12.7201 9.04723 12.6686 8.91005C12.6082 8.77294 12.5654 8.62726 12.5314 8.48151C12.4969 8.32726 12.4799 8.16437 12.4799 8.00148L12.4799 5.63583C12.4799 5.47294 12.4969 5.31862 12.5227 5.17294C12.5396 5.08724 12.5572 5.01005 12.583 4.92435C12.617 4.81295 12.6598 4.70148 12.7201 4.59865C12.7201 4.59008 12.7283 4.58151 12.7371 4.57294L10.3541 4.57294C10.2773 4.57294 10.2082 4.59008 10.1314 4.59865C9.19687 4.71005 8.46855 5.49008 8.44277 6.45006C8.44277 6.4672 8.44277 6.47577 8.44277 6.49291L8.44277 14.3872C8.44277 14.4472 8.45156 14.4986 8.45977 14.5501C8.52832 15.3215 9.04277 15.9558 9.7541 16.1958C9.94277 16.2558 10.1396 16.2986 10.3541 16.2986L16.4484 16.2986L16.4396 16.2815Z" fill="rgb(58,71,96)" fill-rule="evenodd" />
	<path id="Vector" d="M16.4396 16.2815C16.6459 16.2815 16.8516 16.2387 17.0396 16.1787C17.7516 15.9387 18.2742 15.3044 18.334 14.5329C18.334 14.4815 18.3516 14.4215 18.3516 14.3701L18.3516 10.0329C18.3516 10.0329 18.2912 10.0672 18.2654 10.0843C18.1629 10.1358 18.0516 10.1787 17.9314 10.2215C17.8459 10.2472 17.7686 10.2729 17.683 10.2901C17.5283 10.3244 17.3742 10.3329 17.2113 10.3329L14.8113 10.3329C14.6484 10.3329 14.4855 10.3158 14.3314 10.2815C14.1855 10.2472 14.0396 10.2044 13.9025 10.1444C13.7654 10.0843 13.6371 10.0158 13.517 9.93866C13.3887 9.85297 13.2686 9.75863 13.1654 9.64723C13.0629 9.53583 12.9598 9.41578 12.8742 9.29581C12.7969 9.17577 12.7201 9.04723 12.6686 8.91005C12.6082 8.77294 12.5654 8.62726 12.5314 8.48151C12.4969 8.32726 12.4799 8.16437 12.4799 8.00148L12.4799 5.63583C12.4799 5.47294 12.4969 5.31862 12.5227 5.17294C12.5396 5.08724 12.5572 5.01005 12.583 4.92435C12.617 4.81295 12.6598 4.70148 12.7201 4.59865C12.7201 4.59008 12.7283 4.58151 12.7371 4.57294L10.3541 4.57294C10.2773 4.57294 10.2082 4.59008 10.1314 4.59865C9.19687 4.71005 8.46855 5.49008 8.44277 6.45006C8.44277 6.4672 8.44277 6.47577 8.44277 6.49291L8.44277 14.3872C8.44277 14.4472 8.45156 14.4986 8.45977 14.5501C8.52832 15.3215 9.04277 15.9558 9.7541 16.1958C9.94277 16.2558 10.1396 16.2986 10.3541 16.2986L16.4484 16.2986L16.4396 16.2815Z" fill="rgb(58,71,96)" fill-rule="evenodd" />
	<path id="Vector" d="M16.4396 17.5586L10.3453 17.5586C8.58867 17.5586 7.15723 16.1272 7.15723 14.37L7.15723 7.21288C6.24844 7.83859 5.64844 8.8672 5.64844 10.05L5.64844 15.9729C5.64844 17.8758 7.2 19.4272 9.10254 19.4272L13.4396 19.4272C14.7686 19.4272 15.917 18.6643 16.4912 17.55C16.4742 17.55 16.4572 17.55 16.4396 17.55L16.4396 17.5586ZM6.92578 15.9729C6.92578 15.9729 6.92578 16.0157 6.92578 16.0414C6.92578 16.0157 6.92578 15.9986 6.92578 15.9729Z" fill="rgb(58,71,96)" fill-rule="evenodd" />
	<path id="Vector" d="M16.4396 17.5586L10.3453 17.5586C8.58867 17.5586 7.15723 16.1272 7.15723 14.37L7.15723 7.21288C6.24844 7.83859 5.64844 8.8672 5.64844 10.05L5.64844 15.9729C5.64844 17.8758 7.2 19.4272 9.10254 19.4272L13.4396 19.4272C14.7686 19.4272 15.917 18.6643 16.4912 17.55C16.4742 17.55 16.4572 17.55 16.4396 17.55L16.4396 17.5586ZM6.92578 15.9729C6.92578 15.9729 6.92578 16.0157 6.92578 16.0414C6.92578 16.0157 6.92578 15.9986 6.92578 15.9729Z" fill="rgb(208,212,220)" fill-rule="evenodd" />
</svg>
