<svg viewBox="0 0 24 24" xmlns="http://www.w3.org/2000/svg" xmlns:xlink="http://www.w3.org/1999/xlink" width="24.000000" height="24.000000" fill="none" clip-path="url(#clipPath_85)" customFrame="url(#clipPath_85)">
	<defs>
		<clipPath id="clipPath_85">
			<rect width="24.000000" height="24.000000" x="0.000000" y="0.000000" rx="7.000000" fill="rgb(255,255,255)" />
		</clipPath>
	</defs>
	<rect id="24 / Yaga / Project-Pages / Scrum_accent" width="24.000000" height="24.000000" x="0.000000" y="0.000000" rx="7.000000" fill="rgb(0,85,255)" fill-opacity="0.100000001" />
	<path id="Vector" d="M12.4416 6.60595C12.6479 6.44306 12.9303 6.41735 13.1793 6.53732C13.4107 6.65736 13.5648 6.8973 13.5648 7.16303L13.5648 10.0773C13.5648 10.5831 13.9762 10.9945 14.4818 10.9945C14.9875 10.9945 15.3988 10.5831 15.3988 10.0773L15.3988 9.75163C15.3988 9.47733 15.5535 9.23732 15.7932 9.12592C16.0334 9.01452 16.3246 9.04023 16.5303 9.21161C17.4133 9.91452 18.0221 10.6773 18.3988 11.5259C18.785 12.3659 18.9133 13.2488 18.9133 14.1659C18.9133 17.1402 16.3762 19.5231 13.5045 19.5231C10.6334 19.5231 8.27617 17.106 8.27617 14.1659C8.27617 11.903 9.34785 10.0088 10.3674 8.70587C10.8818 8.05446 11.3875 7.53165 11.7818 7.18017C11.9705 7.00021 12.1416 6.86303 12.2535 6.76876C12.3045 6.71735 12.3561 6.68307 12.3906 6.65736L12.4504 6.62309L12.4416 6.60595Z" fill="rgb(0,85,255)" fill-rule="evenodd" />
	<path id="Vector" d="M7.95859 18.0058C7.70137 17.6287 7.48691 17.2258 7.31523 16.7972C7.16113 16.4115 7.04102 16.0258 6.95547 15.6315C6.85234 15.1515 6.80137 14.663 6.80137 14.1572C6.80137 14.0544 6.80137 13.9515 6.80137 13.8487C6.84414 12.7172 7.10137 11.5944 7.58125 10.4801C7.97559 9.55439 8.51523 8.65438 9.20137 7.78009C9.42402 7.49723 9.64668 7.23151 9.88691 6.96579C10.1699 6.65722 10.4699 6.35722 10.7781 6.07435C10.8127 6.04008 10.8813 5.98009 10.9328 5.93724L10.9328 5.24291C10.9328 4.95148 10.7611 4.68583 10.5039 4.55721C10.2385 4.42867 9.92969 4.45438 9.69824 4.63434L9.63848 4.67726C9.60391 4.70297 9.55234 4.74581 9.49258 4.79723C9.37246 4.90863 9.18379 5.05438 8.97812 5.25148C8.5498 5.64581 7.98379 6.22011 7.41836 6.94008C6.26992 8.38009 5.08691 10.4715 5.08691 12.9658C5.08691 15.1858 6.28691 17.1401 8.07812 18.1515C8.04414 18.1001 7.99258 18.0572 7.95859 18.0058Z" fill="rgb(0,85,255)" fill-rule="evenodd" />
	<path id="Vector" d="M7.95859 18.0058C7.70137 17.6287 7.48691 17.2258 7.31523 16.7972C7.16113 16.4115 7.04102 16.0258 6.95547 15.6315C6.85234 15.1515 6.80137 14.663 6.80137 14.1572C6.80137 14.0544 6.80137 13.9515 6.80137 13.8487C6.84414 12.7172 7.10137 11.5944 7.58125 10.4801C7.97559 9.55439 8.51523 8.65438 9.20137 7.78009C9.42402 7.49723 9.64668 7.23151 9.88691 6.96579C10.1699 6.65722 10.4699 6.35722 10.7781 6.07435C10.8127 6.04008 10.8813 5.98009 10.9328 5.93724L10.9328 5.24291C10.9328 4.95148 10.7611 4.68583 10.5039 4.55721C10.2385 4.42867 9.92969 4.45438 9.69824 4.63434L9.63848 4.67726C9.60391 4.70297 9.55234 4.74581 9.49258 4.79723C9.37246 4.90863 9.18379 5.05438 8.97812 5.25148C8.5498 5.64581 7.98379 6.22011 7.41836 6.94008C6.26992 8.38009 5.08691 10.4715 5.08691 12.9658C5.08691 15.1858 6.28691 17.1401 8.07812 18.1515C8.04414 18.1001 7.99258 18.0572 7.95859 18.0058Z" fill="rgb(0,85,255)" fill-opacity="0.300000012" fill-rule="evenodd" />
</svg>
