<svg viewBox="0 0 24 24" xmlns="http://www.w3.org/2000/svg" xmlns:xlink="http://www.w3.org/1999/xlink" width="24.000000" height="24.000000" fill="none" clip-path="url(#clipPath_61)" customFrame="url(#clipPath_61)">
	<defs>
		<clipPath id="clipPath_61">
			<rect width="24.000000" height="24.000000" x="0.000000" y="0.000000" rx="7.000000" fill="rgb(255,255,255)" />
		</clipPath>
	</defs>
	<rect id="24 / Yaga / Project-Pages / Article_color" width="24.000000" height="24.000000" x="0.000000" y="0.000000" rx="7.000000" fill="rgb(0,85,255)" fill-opacity="0.100000001" />
	<path id="Vector" d="M14.8117 8.7728L17.2117 8.7728C17.9061 8.7728 18.2576 7.92429 17.7602 7.43569L15.3602 5.06997C14.8721 4.58137 14.0318 4.93286 14.0318 5.62712L14.0318 7.99284C14.0318 8.42138 14.3834 8.7728 14.8117 8.7728Z" fill="rgb(0,85,255)" fill-rule="evenodd" />
	<path id="Vector" d="M16.44 16.2814C16.6463 16.2814 16.852 16.2385 17.04 16.1785C17.752 15.9385 18.2746 15.3042 18.3344 14.5328C18.3344 14.4814 18.352 14.4214 18.352 14.37L18.352 10.0328C18.352 10.0328 18.2916 10.0671 18.2658 10.0842C18.1633 10.1357 18.052 10.1785 17.9318 10.2214C17.8463 10.2471 17.7689 10.2728 17.6834 10.2899C17.5287 10.3242 17.3746 10.3328 17.2117 10.3328L14.8117 10.3328C14.6488 10.3328 14.4859 10.3156 14.3318 10.2814C14.1859 10.2471 14.04 10.2042 13.9029 10.1443C13.7658 10.0842 13.6375 10.0156 13.5174 9.93852C13.3891 9.85283 13.2689 9.75849 13.1658 9.64709C13.0633 9.53569 12.9602 9.41565 12.8746 9.29568C12.7973 9.17563 12.7205 9.04709 12.6689 8.90991C12.6086 8.7728 12.5658 8.62712 12.5318 8.48137C12.4973 8.32712 12.4803 8.16423 12.4803 8.00134L12.4803 5.63569C12.4803 5.4728 12.4973 5.31848 12.523 5.1728C12.54 5.08711 12.5576 5.00991 12.5834 4.92422C12.6174 4.81281 12.6602 4.70134 12.7205 4.59851C12.7205 4.58994 12.7287 4.58137 12.7375 4.5728L10.3545 4.5728C10.2777 4.5728 10.2086 4.58994 10.1318 4.59851C9.19727 4.70991 8.46895 5.48994 8.44316 6.44992C8.44316 6.46706 8.44316 6.47563 8.44316 6.49277L8.44316 14.3871C8.44316 14.4471 8.45195 14.4985 8.46016 14.5499C8.52871 15.3214 9.04316 15.9557 9.75449 16.1957C9.94316 16.2557 10.14 16.2985 10.3545 16.2985L16.4488 16.2985L16.44 16.2814Z" fill="rgb(0,85,255)" fill-rule="evenodd" />
	<path id="Vector" d="M16.44 16.2814C16.6463 16.2814 16.852 16.2385 17.04 16.1785C17.752 15.9385 18.2746 15.3042 18.3344 14.5328C18.3344 14.4814 18.352 14.4214 18.352 14.37L18.352 10.0328C18.352 10.0328 18.2916 10.0671 18.2658 10.0842C18.1633 10.1357 18.052 10.1785 17.9318 10.2214C17.8463 10.2471 17.7689 10.2728 17.6834 10.2899C17.5287 10.3242 17.3746 10.3328 17.2117 10.3328L14.8117 10.3328C14.6488 10.3328 14.4859 10.3156 14.3318 10.2814C14.1859 10.2471 14.04 10.2042 13.9029 10.1443C13.7658 10.0842 13.6375 10.0156 13.5174 9.93852C13.3891 9.85283 13.2689 9.75849 13.1658 9.64709C13.0633 9.53569 12.9602 9.41565 12.8746 9.29568C12.7973 9.17563 12.7205 9.04709 12.6689 8.90991C12.6086 8.7728 12.5658 8.62712 12.5318 8.48137C12.4973 8.32712 12.4803 8.16423 12.4803 8.00134L12.4803 5.63569C12.4803 5.4728 12.4973 5.31848 12.523 5.1728C12.54 5.08711 12.5576 5.00991 12.5834 4.92422C12.6174 4.81281 12.6602 4.70134 12.7205 4.59851C12.7205 4.58994 12.7287 4.58137 12.7375 4.5728L10.3545 4.5728C10.2777 4.5728 10.2086 4.58994 10.1318 4.59851C9.19727 4.70991 8.46895 5.48994 8.44316 6.44992C8.44316 6.46706 8.44316 6.47563 8.44316 6.49277L8.44316 14.3871C8.44316 14.4471 8.45195 14.4985 8.46016 14.5499C8.52871 15.3214 9.04316 15.9557 9.75449 16.1957C9.94316 16.2557 10.14 16.2985 10.3545 16.2985L16.4488 16.2985L16.44 16.2814Z" fill="rgb(0,85,255)" fill-rule="evenodd" />
	<path id="Vector" d="M16.4406 17.5585L10.3463 17.5585C8.58965 17.5585 7.1582 16.1271 7.1582 14.37L7.1582 7.21281C6.24941 7.83852 5.64941 8.86714 5.64941 10.0499L5.64941 15.9728C5.64941 17.8757 7.20098 19.4271 9.10352 19.4271L13.4406 19.4271C14.7695 19.4271 15.918 18.6642 16.4922 17.5499C16.4752 17.5499 16.4582 17.5499 16.4406 17.5499L16.4406 17.5585ZM6.92676 15.9728C6.92676 15.9728 6.92676 16.0156 6.92676 16.0414C6.92676 16.0156 6.92676 15.9985 6.92676 15.9728Z" fill="rgb(0,85,255)" fill-rule="evenodd" />
	<path id="Vector" d="M16.4406 17.5585L10.3463 17.5585C8.58965 17.5585 7.1582 16.1271 7.1582 14.37L7.1582 7.21281C6.24941 7.83852 5.64941 8.86714 5.64941 10.0499L5.64941 15.9728C5.64941 17.8757 7.20098 19.4271 9.10352 19.4271L13.4406 19.4271C14.7695 19.4271 15.918 18.6642 16.4922 17.5499C16.4752 17.5499 16.4582 17.5499 16.4406 17.5499L16.4406 17.5585ZM6.92676 15.9728C6.92676 15.9728 6.92676 16.0156 6.92676 16.0414C6.92676 16.0156 6.92676 15.9985 6.92676 15.9728Z" fill="rgb(0,85,255)" fill-opacity="0.300000012" fill-rule="evenodd" />
</svg>
