<svg viewBox="0 0 24 24" xmlns="http://www.w3.org/2000/svg" xmlns:xlink="http://www.w3.org/1999/xlink" width="24.000000" height="24.000000" fill="none" clip-path="url(#clipPath_41)" customFrame="url(#clipPath_41)">
	<defs>
		<clipPath id="clipPath_41">
			<rect width="24.000000" height="24.000000" x="0.000000" y="0.000000" rx="7.000000" fill="rgb(255,255,255)" />
		</clipPath>
	</defs>
	<rect id="24 / Yaga / Project-Pages / File_gray" width="24.000000" height="24.000000" x="0.000000" y="0.000000" rx="7.000000" fill="rgb(241,243,249)" />
	<path id="Vector" d="M8.77987 12.0295C9.9201 8.13809 15.2515 7.83809 16.8799 11.4381L17.634 11.601C21.4396 12.4239 20.8396 18.0295 16.9484 18.0295L9.27675 18.0295C5.86543 17.9953 5.40254 13.1267 8.65976 12.3981L8.77987 12.0295L8.77987 12.0295Z" fill="rgb(161,169,184)" fill-rule="evenodd" />
	<path id="Vector" d="M5.23144 14.1982C5.30879 13.8639 5.42011 13.5467 5.56601 13.2467C5.63457 13.1182 5.70312 12.9897 5.78867 12.861C5.92578 12.6467 6.08867 12.4411 6.26035 12.261C6.44023 12.0724 6.6371 11.9096 6.85156 11.7553C6.90312 11.721 6.95468 11.6867 7.00566 11.6525C7.19433 11.5325 7.39179 11.4296 7.59745 11.3439C7.74335 10.9239 7.93144 10.5296 8.16288 10.1696C8.20566 10.1096 8.24023 10.0411 8.283 9.98101C8.45468 9.72393 8.65155 9.49248 8.86601 9.26961C9.05468 9.07244 9.26034 8.89248 9.483 8.72102C9.6371 8.60105 9.79999 8.48965 9.97167 8.39531C10.2805 8.20679 10.6057 8.05247 10.949 7.9325C11.1547 7.8553 11.3603 7.79531 11.566 7.7439C11.883 7.66677 12.2176 7.61536 12.5515 7.59822C12.8685 7.58101 13.1773 7.58101 13.4861 7.60679C13.5547 7.60679 13.6232 7.63249 13.6918 7.64106C11.6773 4.97534 7.16035 5.53249 6.11445 9.08101L6.00312 9.44964C3.29434 10.0582 3.17481 13.4953 5.15469 14.6696C5.17168 14.5154 5.19746 14.3525 5.23144 14.1982L5.23144 14.1982Z" fill="rgb(161,169,184)" fill-rule="evenodd" />
	<path id="Vector" d="M5.23144 14.1982C5.30879 13.8639 5.42011 13.5467 5.56601 13.2467C5.63457 13.1182 5.70312 12.9897 5.78867 12.861C5.92578 12.6467 6.08867 12.4411 6.26035 12.261C6.44023 12.0724 6.6371 11.9096 6.85156 11.7553C6.90312 11.721 6.95468 11.6867 7.00566 11.6525C7.19433 11.5325 7.39179 11.4296 7.59745 11.3439C7.74335 10.9239 7.93144 10.5296 8.16288 10.1696C8.20566 10.1096 8.24023 10.0411 8.283 9.98101C8.45468 9.72393 8.65155 9.49248 8.86601 9.26961C9.05468 9.07244 9.26034 8.89248 9.483 8.72102C9.6371 8.60105 9.79999 8.48965 9.97167 8.39531C10.2805 8.20679 10.6057 8.05247 10.949 7.9325C11.1547 7.8553 11.3603 7.79531 11.566 7.7439C11.883 7.66677 12.2176 7.61536 12.5515 7.59822C12.8685 7.58101 13.1773 7.58101 13.4861 7.60679C13.5547 7.60679 13.6232 7.63249 13.6918 7.64106C11.6773 4.97534 7.16035 5.53249 6.11445 9.08101L6.00312 9.44964C3.29434 10.0582 3.17481 13.4953 5.15469 14.6696C5.17168 14.5154 5.19746 14.3525 5.23144 14.1982L5.23144 14.1982Z" fill="rgb(208,212,220)" fill-rule="evenodd" />
</svg>
