<svg viewBox="0 0 24 24" xmlns="http://www.w3.org/2000/svg" xmlns:xlink="http://www.w3.org/1999/xlink" width="24.000000" height="24.000000" fill="none" clip-path="url(#clipPath_117)" customFrame="url(#clipPath_117)">
	<defs>
		<clipPath id="clipPath_117">
			<rect width="24.000000" height="24.000000" x="0.000000" y="0.000000" rx="7.000000" fill="rgb(255,255,255)" />
		</clipPath>
	</defs>
	<rect id="24 / Yaga / Project-Pages / Team_accent" width="24.000000" height="24.000000" x="0.000000" y="0.000000" rx="7.000000" fill="rgb(0,85,255)" fill-opacity="0.100000001" />
	<path id="Vector" d="M16.3059 9.67292C16.3059 8.23291 15.1147 7.10146 13.692 7.10146C12.2687 7.10146 11.0775 8.23291 11.0775 9.67292C11.0775 11.1129 12.2687 12.2443 13.692 12.2443C15.1147 12.2443 16.3059 11.1129 16.3059 9.67292ZM18.2606 15.4158C16.0317 12.3129 11.3001 12.0043 9.23465 15.1415C9.06297 15.3986 8.83152 15.87 8.78054 16.2471C8.76296 16.3586 8.74597 16.6929 8.74597 16.6929C8.74597 17.7815 9.629 18.6558 10.7089 18.6558L16.6663 18.6558C17.755 18.6558 18.6808 17.7729 18.6292 16.6929C18.6116 16.3672 18.5003 15.7415 18.2606 15.4158Z" fill="rgb(0,85,255)" fill-rule="evenodd" />
	<path id="Vector" d="M9.75791 10.4442C9.70634 10.1957 9.67236 9.9385 9.67236 9.67278C9.67236 9.37278 9.70634 9.08135 9.7667 8.79856C9.81767 8.55855 9.89502 8.3271 9.99756 8.10422C10.0919 7.88992 10.2038 7.68425 10.3233 7.49565C10.478 7.26421 10.6579 7.04141 10.8636 6.83567C11.0435 6.65564 11.2409 6.50139 11.4466 6.36421C11.6265 6.24424 11.8234 6.14141 12.0291 6.05564C11.5667 5.61853 10.9322 5.34424 10.2466 5.34424C8.82332 5.34424 7.63208 6.47568 7.63208 7.9157C7.63208 9.18425 8.55788 10.2214 9.75791 10.4442Z" fill="rgb(0,85,255)" fill-rule="evenodd" />
	<path id="Vector" d="M9.75791 10.4442C9.70634 10.1957 9.67236 9.9385 9.67236 9.67278C9.67236 9.37278 9.70634 9.08135 9.7667 8.79856C9.81767 8.55855 9.89502 8.3271 9.99756 8.10422C10.0919 7.88992 10.2038 7.68425 10.3233 7.49565C10.478 7.26421 10.6579 7.04141 10.8636 6.83567C11.0435 6.65564 11.2409 6.50139 11.4466 6.36421C11.6265 6.24424 11.8234 6.14141 12.0291 6.05564C11.5667 5.61853 10.9322 5.34424 10.2466 5.34424C8.82332 5.34424 7.63208 6.47568 7.63208 7.9157C7.63208 9.18425 8.55788 10.2214 9.75791 10.4442Z" fill="rgb(0,85,255)" fill-opacity="0.300000012" fill-rule="evenodd" />
	<path id="Vector" d="M7.34086 16.6927L7.31508 16.2899C7.30629 15.5013 7.6063 15.0299 7.77798 14.7471C7.82896 14.6613 8.12897 14.267 8.12897 14.267L8.12897 14.2499C8.3862 13.9499 8.65222 13.667 8.94344 13.4099C9.08055 13.2899 9.21766 13.1784 9.36356 13.067C9.56923 12.9127 9.78369 12.767 10.0064 12.6299C10.2208 12.5013 10.4347 12.3899 10.6579 12.287C10.529 12.1499 10.4177 11.9956 10.3151 11.8413C10.2038 11.6699 10.1007 11.4813 10.0151 11.2842C8.43776 11.3442 6.64651 12.0556 5.72891 13.5299C5.52325 13.8899 5.36914 14.4471 5.36914 15.0556C5.38613 16.1356 6.18361 16.8985 7.26352 16.8985L7.36606 16.8985C7.36606 16.8985 7.34086 16.7613 7.34086 16.6927Z" fill="rgb(0,85,255)" fill-rule="evenodd" />
	<path id="Vector" d="M7.34086 16.6927L7.31508 16.2899C7.30629 15.5013 7.6063 15.0299 7.77798 14.7471C7.82896 14.6613 8.12897 14.267 8.12897 14.267L8.12897 14.2499C8.3862 13.9499 8.65222 13.667 8.94344 13.4099C9.08055 13.2899 9.21766 13.1784 9.36356 13.067C9.56923 12.9127 9.78369 12.767 10.0064 12.6299C10.2208 12.5013 10.4347 12.3899 10.6579 12.287C10.529 12.1499 10.4177 11.9956 10.3151 11.8413C10.2038 11.6699 10.1007 11.4813 10.0151 11.2842C8.43776 11.3442 6.64651 12.0556 5.72891 13.5299C5.52325 13.8899 5.36914 14.4471 5.36914 15.0556C5.38613 16.1356 6.18361 16.8985 7.26352 16.8985L7.36606 16.8985C7.36606 16.8985 7.34086 16.7613 7.34086 16.6927Z" fill="rgb(0,85,255)" fill-opacity="0.300000012" fill-rule="evenodd" />
</svg>
