<svg viewBox="0 0 24 24" xmlns="http://www.w3.org/2000/svg" xmlns:xlink="http://www.w3.org/1999/xlink" width="24.000000" height="24.000000" fill="none" clip-path="url(#clipPath_49)" customFrame="url(#clipPath_49)">
	<defs>
		<clipPath id="clipPath_49">
			<rect width="24.000000" height="24.000000" x="0.000000" y="0.000000" rx="7.000000" fill="rgb(255,255,255)" />
		</clipPath>
	</defs>
	<rect id="24 / Yaga / Project-Pages / File_black" width="24.000000" height="24.000000" x="0.000000" y="0.000000" rx="7.000000" fill="rgb(241,243,249)" />
	<path id="Vector" d="M8.77987 12.0295C9.9201 8.1381 15.2515 7.8381 16.8799 11.4381L17.634 11.601C21.4396 12.4239 20.8396 18.0295 16.9484 18.0295L9.27675 18.0295C5.86543 17.9953 5.40254 13.1267 8.65976 12.3981L8.77987 12.0295L8.77987 12.0295Z" fill="rgb(58,71,96)" fill-rule="evenodd" />
	<path id="Vector" d="M5.23144 14.1982C5.30879 13.8639 5.42011 13.5468 5.56601 13.2468C5.63457 13.1182 5.70312 12.9897 5.78867 12.8611C5.92578 12.6468 6.08867 12.4411 6.26035 12.2611C6.44023 12.0725 6.6371 11.9096 6.85156 11.7553C6.90312 11.721 6.95468 11.6868 7.00566 11.6525C7.19433 11.5325 7.39179 11.4296 7.59745 11.3439C7.74335 10.9239 7.93144 10.5296 8.16288 10.1696C8.20566 10.1096 8.24023 10.0411 8.283 9.98102C8.45468 9.72394 8.65155 9.4925 8.86601 9.26962C9.05468 9.07245 9.26034 8.8925 9.483 8.72104C9.6371 8.60107 9.79999 8.48966 9.97167 8.39533C10.2805 8.2068 10.6057 8.05248 10.949 7.93251C11.1547 7.85531 11.3603 7.79533 11.566 7.74391C11.883 7.66679 12.2176 7.61537 12.5515 7.59823C12.8685 7.58102 13.1773 7.58102 13.4861 7.6068C13.5547 7.6068 13.6232 7.63251 13.6918 7.64108C11.6773 4.97535 7.16035 5.53251 6.11445 9.08102L6.00312 9.44965C3.29434 10.0582 3.17481 13.4953 5.15469 14.6696C5.17168 14.5154 5.19746 14.3525 5.23144 14.1982L5.23144 14.1982Z" fill="rgb(58,71,96)" fill-rule="evenodd" />
	<path id="Vector" d="M5.23144 14.1982C5.30879 13.8639 5.42011 13.5468 5.56601 13.2468C5.63457 13.1182 5.70312 12.9897 5.78867 12.8611C5.92578 12.6468 6.08867 12.4411 6.26035 12.2611C6.44023 12.0725 6.6371 11.9096 6.85156 11.7553C6.90312 11.721 6.95468 11.6868 7.00566 11.6525C7.19433 11.5325 7.39179 11.4296 7.59745 11.3439C7.74335 10.9239 7.93144 10.5296 8.16288 10.1696C8.20566 10.1096 8.24023 10.0411 8.283 9.98102C8.45468 9.72394 8.65155 9.4925 8.86601 9.26962C9.05468 9.07245 9.26034 8.8925 9.483 8.72104C9.6371 8.60107 9.79999 8.48966 9.97167 8.39533C10.2805 8.2068 10.6057 8.05248 10.949 7.93251C11.1547 7.85531 11.3603 7.79533 11.566 7.74391C11.883 7.66679 12.2176 7.61537 12.5515 7.59823C12.8685 7.58102 13.1773 7.58102 13.4861 7.6068C13.5547 7.6068 13.6232 7.63251 13.6918 7.64108C11.6773 4.97535 7.16035 5.53251 6.11445 9.08102L6.00312 9.44965C3.29434 10.0582 3.17481 13.4953 5.15469 14.6696C5.17168 14.5154 5.19746 14.3525 5.23144 14.1982L5.23144 14.1982Z" fill="rgb(208,212,220)" fill-rule="evenodd" />
</svg>
