<svg viewBox="0 0 28 28" xmlns="http://www.w3.org/2000/svg" xmlns:xlink="http://www.w3.org/1999/xlink" width="28.000000" height="28.000000" fill="none">
	<rect id="28 / Action / Check Edit Fill" width="28.000000" height="28.000000" x="0.000000" y="0.000000" />
	<path id="Vector" d="M24.7671 8.72819C27.1671 5.11819 22.8771 0.828194 19.2671 3.22819C19.1971 3.27819 19.1371 3.32819 19.0771 3.38819L16.5571 5.90819L8.49712 13.9682C8.19711 14.2682 8.03712 14.6682 8.03712 15.0882L8.03712 18.3782C8.03712 19.2482 8.74712 19.9582 9.61712 19.9582L12.9071 19.9582C13.3271 19.9582 13.7271 19.7882 14.0271 19.4982L24.6171 8.9082C24.6771 8.8482 24.7271 8.78819 24.7771 8.71819L24.7671 8.72819ZM5.28711 6.79819C4.87711 6.79819 4.53711 7.13819 4.53711 7.54819L4.53711 22.7182C4.53711 23.1282 4.87711 23.4682 5.28711 23.4682L20.4571 23.4682C20.8671 23.4682 21.2071 23.1282 21.2071 22.7182L21.2071 17.7982C21.2071 17.2482 21.6571 16.7982 22.2071 16.7982C22.7571 16.7982 23.2071 17.2482 23.2071 17.7982L23.2071 22.7182C23.2071 24.2382 21.9771 25.4682 20.4571 25.4682L5.28711 25.4682C3.76711 25.4682 2.53711 24.2382 2.53711 22.7182L2.53711 7.54819C2.53711 6.02819 3.76711 4.79819 5.28711 4.79819L10.2071 4.79819C10.7571 4.79819 11.2071 5.24819 11.2071 5.79819C11.2071 6.34819 10.7571 6.79819 10.2071 6.79819L5.28711 6.79819Z" fill="rgb(14,17,23)" fill-rule="evenodd" />
</svg>
