<svg viewBox="0 0 28 28" xmlns="http://www.w3.org/2000/svg" xmlns:xlink="http://www.w3.org/1999/xlink" width="28.000000" height="28.000000" fill="none">
	<rect id="28 / Action / Catalog Fill" width="28.000000" height="28.000000" x="0.000000" y="0.000000" />
	<path id="Vector" d="M15.3509 7.15009L18.7093 3.79161C19.3928 3.10819 20.5009 3.10819 21.1843 3.79161L24.5427 7.15009C25.2261 7.83349 25.2261 8.94153 24.5427 9.62495L21.1843 12.9835C20.5009 13.6669 19.3928 13.6669 18.7093 12.9835L15.3509 9.62495C14.6675 8.94153 14.6675 7.83349 15.3509 7.15009ZM3.61377 6.05445L3.61377 10.7211C3.61377 12.0098 4.65845 13.0544 5.94711 13.0544L10.6138 13.0544C11.9025 13.0544 12.9471 12.0098 12.9471 10.7211L12.9471 6.05445C12.9471 4.76577 11.9025 3.72111 10.6138 3.72111L5.94711 3.72111C4.65845 3.72111 3.61377 4.76577 3.61377 6.05445ZM5.94711 15.3878L10.6138 15.3878C11.9025 15.3878 12.9471 16.4325 12.9471 17.7211L12.9471 22.3878C12.9471 23.6765 11.9025 24.7211 10.6138 24.7211L5.94711 24.7211C4.65845 24.7211 3.61377 23.6765 3.61377 22.3878L3.61377 17.7211C3.61377 16.4325 4.65845 15.3878 5.94711 15.3878ZM17.6138 15.3878L22.2804 15.3878C23.5691 15.3878 24.6138 16.4325 24.6138 17.7211L24.6138 22.3878C24.6138 23.6765 23.5691 24.7211 22.2804 24.7211L17.6138 24.7211C16.3251 24.7211 15.2804 23.6765 15.2804 22.3878L15.2804 17.7211C15.2804 16.4325 16.3251 15.3878 17.6138 15.3878Z" fill="rgb(133,143,163)" fill-rule="evenodd" />
</svg>
