<svg viewBox="0 0 28 28" xmlns="http://www.w3.org/2000/svg" xmlns:xlink="http://www.w3.org/1999/xlink" width="28.000000" height="28.000000" fill="none">
	<rect id="28 / Action / Products" width="28.000000" height="28.000000" x="0.000000" y="0.000000" fill="rgb(255,255,255)" fill-opacity="0" />
	<path id="Vector 13531" d="M2.34 4.66504C2.34 3.375 3.38 2.33502 4.67002 2.33502L10.5 2.33502C11.79 2.33502 12.83 3.375 12.83 4.66504L12.83 10.495C12.83 11.785 11.79 12.825 10.5 12.825L4.67002 12.825C3.38 12.825 2.34 11.785 2.34 10.495L2.34 4.66504ZM17.5 2.33502C16.21 2.33502 15.17 3.375 15.17 4.66504L15.17 10.495C15.17 11.785 16.21 12.825 17.5 12.825L23.33 12.825C24.62 12.825 25.66 11.785 25.66 10.495L25.66 4.66504C25.66 3.375 24.62 2.33502 23.33 2.33502L17.5 2.33502ZM4.68 4.33502L10.51 4.33502C10.69 4.33502 10.84 4.48504 10.84 4.66504L10.84 10.495C10.84 10.675 10.69 10.825 10.51 10.825L4.68 10.825C4.5 10.825 4.35 10.675 4.35 10.495L4.35 4.66504C4.35 4.48504 4.5 4.33502 4.68 4.33502ZM23.34 4.33502L17.51 4.33502C17.33 4.33502 17.18 4.48504 17.18 4.66504L17.18 10.495C17.18 10.675 17.33 10.825 17.51 10.825L23.34 10.825C23.52 10.825 23.67 10.675 23.67 10.495L23.67 4.66504C23.67 4.48504 23.52 4.33502 23.34 4.33502ZM2.34 17.495C2.34 16.205 3.38 15.165 4.67002 15.165L10.5 15.165C11.79 15.165 12.83 16.205 12.83 17.495L12.83 23.325C12.83 24.615 11.79 25.655 10.5 25.655L4.67002 25.655C3.38 25.655 2.34 24.615 2.34 23.325L2.34 17.495ZM17.5 15.175C16.21 15.175 15.17 16.215 15.17 17.505L15.17 23.335C15.17 24.625 16.21 25.665 17.5 25.665L23.33 25.665C24.62 25.665 25.66 24.625 25.66 23.335L25.66 17.505C25.66 16.215 24.62 15.175 23.33 15.175L17.5 15.175ZM4.68 17.165L10.51 17.165C10.69 17.165 10.84 17.315 10.84 17.495L10.84 23.325C10.84 23.505 10.69 23.655 10.51 23.655L4.68 23.655C4.5 23.655 4.35 23.505 4.35 23.325L4.35 17.495C4.35 17.315 4.5 17.165 4.68 17.165ZM23.34 17.165L17.51 17.165C17.33 17.165 17.18 17.315 17.18 17.495L17.18 23.325C17.18 23.505 17.33 23.655 17.51 23.655L23.34 23.655C23.52 23.655 23.67 23.505 23.67 23.325L23.67 17.495C23.67 17.315 23.52 17.165 23.34 17.165Z" fill="rgb(14,17,23)" fill-rule="evenodd" />
</svg>
