<svg viewBox="0 0 28 28" xmlns="http://www.w3.org/2000/svg" xmlns:xlink="http://www.w3.org/1999/xlink" width="28.000000" height="28.000000" fill="none">
	<rect id="28 / Action / Equaliser Сlear Fill" width="28.000000" height="28.000000" x="0.000000" y="0.000000" />
	<path id="Vector 12619" d="M9.08984 3.25867C9.08984 2.70862 8.63965 2.25867 8.08984 2.25867C7.54004 2.25867 7.08984 2.70862 7.08984 3.25867L7.08984 14.7587C7.08984 14.7587 7.08984 14.8286 7.08984 14.8587C5.32031 15.2687 4 16.8587 4 18.7587C4 20.6587 5.30957 22.2287 7.07031 22.6487L7.07031 24.2587C7.07031 24.8088 7.51953 25.2587 8.07031 25.2587C8.62012 25.2587 9.07031 24.8088 9.07031 24.2587L9.07031 22.6187C10.7598 22.1487 12 20.5987 12 18.7587C12 16.9187 10.7598 15.3787 9.07031 14.9087C9.07031 14.8587 9.08008 14.8087 9.08008 14.7587L9.08008 3.25867L9.08984 3.25867ZM19.9502 16.4787C19.4004 16.4787 18.9502 16.0387 18.9404 15.4887L18.9199 12.7687C18.9199 12.7187 18.9199 12.6687 18.9297 12.6187C17.2402 12.1487 16 10.5987 16 8.76869C16 6.93873 17.2402 5.37867 18.9297 4.9087L18.9297 3.26868C18.9297 2.71863 19.3799 2.26868 19.9297 2.26868C20.4805 2.26868 20.9297 2.71863 20.9297 3.26868L20.9297 4.87867C22.6904 5.29871 24 6.87867 24 8.76869C24 10.6587 22.6797 12.2487 20.9102 12.6687C20.9102 12.6986 20.9102 12.7387 20.9102 12.7687L20.9297 15.4887C20.9297 16.0387 20.4902 16.4887 19.9404 16.4987L19.9502 16.4787ZM17.71 18.0487C17.3203 17.6587 16.6904 17.6587 16.2998 18.0487C15.9102 18.4388 15.9102 19.0688 16.2998 19.4587L18.5898 21.7487L16.2998 24.0388C15.9102 24.4288 15.9102 25.0588 16.2998 25.4488C16.6904 25.8387 17.3203 25.8387 17.71 25.4488L20 23.1587L22.29 25.4488C22.6797 25.8387 23.3096 25.8387 23.7002 25.4488C24.0898 25.0588 24.0898 24.4288 23.7002 24.0388L21.4102 21.7487L23.7002 19.4587C24.0898 19.0688 24.0898 18.4388 23.7002 18.0487C23.3096 17.6587 22.6797 17.6587 22.29 18.0487L20 20.3387L17.71 18.0487L17.71 18.0487Z" fill="rgb(14,17,23)" fill-rule="evenodd" />
</svg>
