<svg viewBox="0 0 28 28" xmlns="http://www.w3.org/2000/svg" xmlns:xlink="http://www.w3.org/1999/xlink" width="28.000000" height="28.000000" fill="none">
	<rect id="28 / Avatar icon / Puzzle-piece" width="28.000000" height="28.000000" x="0.000000" y="0.000000" />
	<path id="Vector" d="M12.4756 6.125C12.4756 5.22754 11.748 4.5 10.8506 4.5C9.95311 4.50017 9.22559 5.22781 9.22559 6.125C9.22559 6.53703 9.37878 6.91065 9.63281 7.19727C10.1335 7.76237 10.6384 8.8756 10.0029 9.89258C9.64981 10.4575 9.03046 10.8006 8.36426 10.8008L6.96191 10.8008C5.60224 10.8008 4.50001 11.903 4.5 13.2627L4.5 21.4688C4.50025 22.5905 5.40953 23.4997 6.53125 23.5L7.48535 23.5C7.852 23.5 8.1727 23.2517 8.26367 22.8965L8.28125 22.8281C8.29929 22.7577 8.3011 22.6837 8.28711 22.6123C8.26907 22.5203 8.20313 22.3831 8.01855 22.1523C7.52357 21.5336 7.22574 20.7464 7.22559 19.8916C7.22559 17.8896 8.84892 16.2668 10.8506 16.2666C12.8526 16.2666 14.4756 17.8896 14.4756 19.8916L14.4707 20.0703C14.4271 20.9597 14.0615 21.7636 13.4922 22.3691C13.3477 22.5228 13.3096 22.6128 13.3008 22.6504C13.2909 22.6926 13.292 22.7369 13.3047 22.7783L13.3506 22.9258C13.4557 23.267 13.7708 23.5 14.1279 23.5L15.0879 23.5C16.2544 23.4998 17.2 22.5542 17.2002 21.3877L17.2002 19.6338C17.2003 18.9683 17.5432 18.3499 18.1074 17.9971L18.2988 17.8906C19.2607 17.4242 20.2714 17.8976 20.8008 18.3672C21.0876 18.6218 21.4622 18.7754 21.875 18.7754C22.7163 18.7754 23.408 18.1359 23.4912 17.3164L23.5 17.1504C23.5 16.2529 22.7725 15.5254 21.875 15.5254C21.4621 15.5254 21.0875 15.6783 20.8008 15.9326C20.2363 16.4332 19.1239 16.9381 18.1074 16.3027C17.5432 15.9499 17.2004 15.3315 17.2002 14.666L17.2002 13.2617C17.2 11.9027 16.0983 10.801 14.7393 10.8008L13.3369 10.8008C12.6707 10.8007 12.0513 10.4575 11.6982 9.89258C11.0626 8.87534 11.5686 7.76216 12.0693 7.19727C12.3231 6.91085 12.4756 6.53724 12.4756 6.125ZM14.4756 6.125C14.4756 7.04541 14.1305 7.88588 13.5654 8.52344C13.4811 8.61861 13.4304 8.72411 13.4121 8.80078L14.7393 8.80078C17.2029 8.80098 19.2 10.7981 19.2002 13.2617L19.2002 14.5879C19.2762 14.5693 19.3798 14.5197 19.4736 14.4365C20.1117 13.8707 20.9539 13.5254 21.875 13.5254C23.877 13.5254 25.5 15.1484 25.5 17.1504L25.4951 17.3369C25.398 19.2521 23.8145 20.7754 21.875 20.7754C20.9534 20.7754 20.1116 20.4296 19.4736 19.8633C19.3799 19.78 19.2762 19.7295 19.2002 19.7109L19.2002 21.3877C19.2 23.6588 17.359 25.4998 15.0879 25.5L14.1279 25.5C12.8926 25.5 11.8017 24.6943 11.4385 23.5137L11.3936 23.3662C11.2766 22.9858 11.2626 22.5808 11.3535 22.1934C11.4775 21.6653 11.7819 21.2684 12.0352 20.999C12.2752 20.7437 12.4323 20.4151 12.4678 20.0498L12.4756 19.8916C12.4756 18.9941 11.748 18.2666 10.8506 18.2666C9.95311 18.2668 9.22559 18.9944 9.22559 19.8916L9.23145 20.0332C9.25977 20.3606 9.38546 20.6589 9.58008 20.9023C9.82103 21.2036 10.1369 21.651 10.25 22.2275C10.3212 22.5908 10.3106 22.9656 10.2188 23.3242L10.2002 23.3926C9.88256 24.6326 8.76542 25.5 7.48535 25.5L6.53125 25.5C4.30496 25.4997 2.50025 23.695 2.5 21.4688L2.5 13.2627C2.50001 10.7985 4.49767 8.80079 6.96191 8.80078L8.28906 8.80078C8.27085 8.72411 8.22012 8.61863 8.13574 8.52344C7.5708 7.88597 7.22559 7.04544 7.22559 6.125C7.22559 4.12296 8.84892 2.50024 10.8506 2.5C12.8526 2.5 14.4756 4.12297 14.4756 6.125Z" fill="rgb(0,0,0)" fill-rule="nonzero" />
</svg>
