<svg viewBox="0 0 28 28" xmlns="http://www.w3.org/2000/svg" xmlns:xlink="http://www.w3.org/1999/xlink" width="28.000000" height="28.000000" fill="none">
	<rect id="28 / Avatar icon / Donkey" width="28.000000" height="28.000000" x="0.000000" y="0.000000" />
	<path id="Vector" d="M18.5465 10.3251C19.1611 10.3038 23.6356 10.1492 25.7561 13.8268L25.7561 13.8168C26.0262 14.2968 25.8661 14.9067 25.3862 15.1868C25.2161 15.2767 25.0362 15.3168 24.8561 15.3168C24.5162 15.3068 24.1961 15.1268 24.0162 14.8168C23.5961 14.0867 23.0861 13.5767 22.5662 13.2067C22.7762 13.9167 22.8162 14.5468 22.8162 14.8168L22.8162 22.3668C22.8162 23.7867 21.6961 25.3068 19.9262 25.3068C18.1562 25.3068 16.9661 23.7867 16.9661 22.3668L16.9661 19.9268C16.9661 19.8668 16.9162 19.8168 16.8561 19.8168L13.3762 19.8168C13.3162 19.8168 13.2662 19.8668 13.2662 19.9268L13.2662 22.2767C13.2662 23.7067 12.0062 25.2968 10.3163 25.2968C8.6262 25.2968 7.3662 23.6968 7.3662 22.2767C7.3662 22.2767 7.3862 19.8668 7.3662 18.9468C7.35618 18.4868 7.36618 17.9767 7.3862 17.4567C7.38706 17.4202 7.38794 17.3833 7.38882 17.3462C7.40854 16.5196 7.43152 15.5562 7.32616 14.8768C7.21616 14.9667 7.10618 15.0568 6.98618 15.1467C6.09618 15.8068 4.9962 15.7167 4.65624 15.6667C3.69628 15.6168 2.92626 14.8768 2.6162 14.4268C1.8562 13.3367 1.96618 11.7968 2.87622 10.5767C2.87622 10.5767 5.25622 7.37678 5.33616 7.20672C5.48246 6.88722 5.15452 6.29208 4.79166 5.6335C4.2119 4.58132 3.54294 3.36726 4.57616 2.85676C5.57452 2.36168 6.24344 3.711 6.6632 4.55772C6.76064 4.75426 6.84466 4.92372 6.91624 5.03674C7.28624 5.63678 7.52622 5.33674 7.78624 5.00678C7.94372 4.8118 8.10184 4.53994 8.26995 4.25092C8.77432 3.3837 9.3687 2.36172 10.3062 2.79676C11.4103 3.31088 10.4259 5.14638 9.88566 6.15364C9.78494 6.34146 9.69964 6.50048 9.64622 6.61676C9.41624 7.11676 9.71616 7.80676 9.95614 8.09674C10.0761 8.24676 11.7662 9.80676 12.3462 10.0668C13.0262 10.3568 18.4861 10.3268 18.4861 10.3268C18.4973 10.3268 18.5177 10.3261 18.5465 10.3251ZM18.9761 22.3668C18.9761 22.7468 19.3461 23.3068 19.9362 23.3068L19.9461 23.2968C20.5262 23.2968 20.8361 22.7468 20.8361 22.3568L20.8361 14.8168C20.8361 14.6868 20.8162 13.5068 20.1262 12.8367C19.7562 12.4767 19.2462 12.3068 18.5262 12.3268L12.2862 12.3268C11.7262 12.3268 11.1963 12.1068 10.7962 11.7067L8.99618 9.90674C7.90622 8.80676 6.95616 8.65674 6.41624 9.22674C5.8662 9.80676 4.4962 11.7767 4.4962 11.7767C4.16624 12.2067 3.9862 12.8668 4.27624 13.2767C4.39622 13.4567 4.66624 13.6567 4.76622 13.6567L4.94628 13.6768C5.07616 13.6968 5.54624 13.7167 5.80626 13.5267C6.05626 13.3367 6.28624 13.1368 6.47618 12.9567C6.85618 12.6068 7.3762 12.4567 7.86618 12.5568C8.35618 12.6567 8.78622 12.9868 8.99618 13.4468C9.47814 14.4894 9.43777 15.977 9.3982 17.4339C9.39754 17.4582 9.39688 17.4825 9.39622 17.5068C9.3762 17.9968 9.3762 18.4767 9.3762 18.9067C9.39622 19.8467 9.3762 22.2867 9.3762 22.2867C9.3762 22.6667 9.80624 23.2968 10.3261 23.2968C10.8462 23.2968 11.2762 22.6768 11.2762 22.2767L11.2762 19.9268C11.2762 18.7667 12.2262 17.8168 13.3862 17.8168L16.8662 17.8168C18.0262 17.8168 18.9761 18.7667 18.9761 19.9268L18.9761 22.3668ZM7.15622 9.76672C7.30626 9.73676 7.45616 9.74676 7.58616 9.80676C7.71616 9.85676 7.83616 9.95672 7.91624 10.0767C7.9962 10.1967 8.03624 10.3367 8.03624 10.4868C8.03624 10.6768 7.95616 10.8668 7.81626 11.0068C7.67624 11.1467 7.4962 11.2267 7.29624 11.2267C7.14622 11.2267 7.0062 11.1868 6.88622 11.1068C6.76622 11.0267 6.67626 10.9067 6.6162 10.7767C6.56626 10.6367 6.54624 10.4968 6.57616 10.3467C6.60618 10.1967 6.67626 10.0668 6.77622 9.96674C6.88622 9.86676 7.01622 9.79676 7.15622 9.76672Z" fill="rgb(14,17,23)" fill-rule="evenodd" />
</svg>
