<svg viewBox="0 0 28 28" xmlns="http://www.w3.org/2000/svg" xmlns:xlink="http://www.w3.org/1999/xlink" width="28.000000" height="28.000000" fill="none">
	<rect id="28 / Avatar icon / Donkey Fill" width="28.000000" height="28.000000" x="0.000000" y="0.000000" />
	<path id="Vector" d="M25.7252 14.0168C23.9252 11.0968 21.1952 10.6968 19.8452 10.6968C19.5952 10.6568 19.3252 10.6368 19.0252 10.6368L12.2052 10.6368C11.8852 10.6368 11.5752 10.5068 11.3452 10.2768L9.36521 8.2968C9.31521 8.2468 9.25521 8.1968 9.20521 8.1468C9.02521 7.8068 8.97521 7.3968 9.14521 7.0368C9.48521 6.2968 11.1152 3.8268 9.80521 3.2168C8.55521 2.6368 7.91521 4.6468 7.28521 5.4268C7.02521 5.7568 6.78521 6.0568 6.41521 5.4568C6.03521 4.8568 5.30521 2.6668 4.07521 3.2768C2.39521 4.1068 5.07521 6.7368 4.88521 7.6368L2.75521 10.4668C2.11521 11.3168 1.88521 12.5368 2.48521 13.4068C2.72521 13.7568 3.31521 14.2968 3.92521 14.2968C3.92521 14.2968 4.97521 14.4968 5.72521 13.9368C6.02521 13.7168 6.31521 13.4568 6.55521 13.2368C6.87521 12.9368 7.38521 13.0368 7.57521 13.4368C8.16521 14.7068 8.01521 17.1868 8.04521 18.9868C8.06521 20.0068 8.04521 22.6668 8.04521 22.6668C8.04521 23.6768 9.00521 24.8868 10.1852 24.8868C11.3652 24.8868 12.3352 23.6768 12.3352 22.6668L12.3352 20.0768C12.3352 19.4068 12.8852 18.8568 13.5552 18.8568L17.2252 18.8568C17.8952 18.8568 18.4452 19.4068 18.4452 20.0768L18.4452 22.7568C18.4452 23.7668 19.3252 24.8868 20.6052 24.8868C21.8852 24.8868 22.6852 23.7668 22.6852 22.7568L22.6852 18.7768C22.6852 18.7768 22.6852 14.6568 22.6852 14.4668C22.6852 14.3968 22.6852 14.0068 22.5852 13.5168C23.0952 13.8668 23.5952 14.3568 24.0152 15.0468C24.2052 15.3568 24.5352 15.5268 24.8652 15.5268C25.0452 15.5268 25.2252 15.4768 25.3852 15.3768C25.8552 15.0868 26.0052 14.4668 25.7152 13.9968L25.7252 14.0168ZM7.07521 9.7268C6.93521 9.8668 6.74521 9.9468 6.55521 9.9468C6.40521 9.9468 6.26521 9.9068 6.14521 9.8268C6.02521 9.7468 5.92521 9.6268 5.87521 9.4968C5.81521 9.3668 5.80521 9.2168 5.83521 9.0668C5.86521 8.9268 5.93521 8.79679 6.03521 8.6868C6.13521 8.5868 6.26521 8.5168 6.41521 8.4868C6.55521 8.4568 6.70521 8.4768 6.84521 8.5268C6.97521 8.5868 7.09521 8.6768 7.17521 8.7968C7.25521 8.9168 7.29521 9.0568 7.29521 9.2068C7.29521 9.4068 7.21521 9.5868 7.07521 9.7268L7.07521 9.7268Z" fill="rgb(14,17,23)" fill-rule="nonzero" />
</svg>
