<svg viewBox="0 0 28 28" xmlns="http://www.w3.org/2000/svg" xmlns:xlink="http://www.w3.org/1999/xlink" width="28.000000" height="28.000000" fill="none">
	<rect id="28 / Avatar icon / Dog Fill" width="28.000000" height="28.000000" x="0.000000" y="0.000000" />
	<path id="Vecto" d="M24.8839 5.38937L21.9539 5.21938C21.9539 4.37938 21.2739 3.69938 20.4439 3.69938L17.9939 3.69938L16.7839 2.57938C16.2439 2.08938 15.3839 2.46938 15.3839 3.19938L15.3839 8.80938C15.3839 9.53938 14.8339 10.1594 14.1139 10.2594L5.76389 11.3194C4.90389 10.2594 4.95389 8.68938 5.95389 7.70937C6.34389 7.31937 6.35388 6.68938 5.96388 6.29937C5.57388 5.90937 4.94388 5.89937 4.55388 6.28937C3.66388 7.16937 3.16388 8.33937 3.15388 9.58937C3.14388 10.8394 3.62388 12.0194 4.50388 12.9194C4.50388 12.9194 4.52388 12.9294 4.53387 12.9394L2.29388 21.7894C1.73388 23.8894 2.36388 25.6394 4.14388 25.6394C5.50388 25.6394 6.54387 24.3894 6.98387 23.2894C7.33388 22.4194 7.91387 21.0394 8.28388 20.1494C8.49388 19.6394 8.99388 19.3094 9.55388 19.3094L14.8439 19.3094C15.5639 19.3094 16.1539 19.8594 16.2139 20.5794C16.2839 21.4494 16.3639 22.5494 16.3839 23.0694C16.4339 24.5094 17.3039 25.5894 18.7439 25.6394C20.1339 25.6894 21.1439 24.5194 21.1439 23.0694L21.5739 11.5594C21.5939 10.9894 22.0339 10.5194 22.5939 10.4594L22.7939 10.4394C24.5639 10.2394 25.9039 8.74937 25.9039 6.96937L25.9039 6.43937C25.9039 5.87937 25.4639 5.41937 24.9139 5.38937L24.8839 5.38937ZM20.0839 6.49937C19.9439 6.63937 19.7539 6.71938 19.5639 6.71938C19.4139 6.71938 19.2739 6.67938 19.1539 6.59937C19.0339 6.51937 18.9339 6.39938 18.8839 6.26937C18.8239 6.13937 18.8139 5.98937 18.8439 5.83937C18.8739 5.68937 18.9439 5.56937 19.0439 5.45937C19.1439 5.35938 19.2739 5.28938 19.4239 5.25938C19.5639 5.22938 19.7139 5.24937 19.8539 5.29938C19.9939 5.34938 20.1039 5.44938 20.1839 5.56937C20.2639 5.68938 20.3039 5.82938 20.3039 5.97938C20.3039 6.17938 20.2239 6.35938 20.0839 6.49937L20.0839 6.49937Z" fill="rgb(14,17,23)" fill-rule="nonzero" />
</svg>
