<svg viewBox="0 0 28 28" xmlns="http://www.w3.org/2000/svg" xmlns:xlink="http://www.w3.org/1999/xlink" width="28.000000" height="28.000000" fill="none">
	<rect id="28 / Avatar icon / Dog" width="28.000000" height="28.000000" x="0.000000" y="0.000000" />
	<path id="Vector" d="M22.1067 5.00311L24.0468 5.1131L24.0468 5.14307C25.0868 5.20307 25.8968 6.06312 25.8968 7.1031L25.8968 7.58308C25.8968 9.72309 24.2868 11.5131 22.1568 11.7531L21.9268 11.7731L21.5368 22.3531C21.5368 23.2731 21.1668 24.1831 20.5167 24.8131C19.9468 25.3631 19.1968 25.6631 18.4068 25.6631L18.3068 25.6631C16.5067 25.6031 15.2467 24.2731 15.1768 22.3531C15.1668 21.8231 15.0768 20.6531 15.0067 19.8431L9.7367 19.8731C9.43678 20.6331 8.84669 22.0331 8.50672 22.8831C7.9867 24.1631 6.75672 25.6631 4.9767 25.6631C4.06678 25.6631 3.27674 25.2931 2.76672 24.6231C2.08668 23.7331 1.91676 22.3631 2.31678 20.8731L4.20668 13.3931C4.31678 12.9431 4.50672 12.5431 4.74672 12.1731C4.06666 11.3731 3.68678 10.3731 3.68678 9.30311C3.69666 8.14307 4.16676 7.0431 4.99672 6.22309C5.38672 5.83308 6.01674 5.84307 6.40674 6.2331C6.79676 6.62312 6.78676 7.25312 6.39674 7.64314C5.94666 8.09307 5.68678 8.68312 5.68678 9.32311C5.68678 9.88311 5.87672 10.4031 6.2267 10.8331C6.64674 10.6131 7.1067 10.4531 7.6067 10.3931L13.7367 9.61309C14.0468 9.57311 14.2868 9.31312 14.2868 8.99311L14.2868 4.1131C14.2868 3.40308 14.6868 2.78308 15.3367 2.4931C15.9867 2.20311 16.7067 2.32312 17.2367 2.8031L18.0668 3.56312L19.9268 3.56312C20.8867 3.57312 21.7267 4.13311 22.1067 5.00311ZM21.9368 9.75311C23.0568 9.62312 23.8968 8.68312 23.8968 7.56312L23.9068 7.55317L23.9068 7.10316L21.9667 6.99318C21.2067 6.95314 20.5468 6.48315 20.2768 5.81312C20.2267 5.69312 20.0967 5.56312 19.9168 5.55315L17.2968 5.55315L16.2968 4.63311L16.2968 8.98315C16.2968 10.3032 15.3068 11.4232 13.9967 11.5932L7.86672 12.3731C7.03676 12.4732 6.3667 13.0731 6.15674 13.8831L4.25672 21.3731C3.9767 22.4232 4.12672 23.1032 4.3567 23.4032C4.43678 23.5131 4.59668 23.6632 4.9767 23.6632C5.67676 23.6632 6.34668 22.9032 6.64674 22.1431C6.9867 21.2832 7.58668 19.8631 7.91676 19.0731C8.21667 18.3432 8.93678 17.8731 9.7267 17.8731L15.0268 17.8731C16.0468 17.8731 16.9068 18.6731 16.9867 19.6831C17.0568 20.5231 17.1468 21.7331 17.1668 22.2731C17.1868 22.6831 17.3268 23.6231 18.3667 23.6631C18.6367 23.6731 18.9068 23.5731 19.1167 23.3731C19.3767 23.1131 19.5268 22.7231 19.5268 22.3031L19.9268 11.6131C19.9567 10.6731 20.6868 9.88311 21.6267 9.78309L21.9368 9.75311ZM18.9368 6.19312C19.1068 6.15314 19.2868 6.17309 19.4568 6.24311C19.6267 6.30309 19.7667 6.4231 19.8668 6.57311C19.9668 6.71313 20.0167 6.89314 20.0167 7.07311C20.0167 7.31312 19.9168 7.54316 19.7467 7.71313C19.5768 7.88311 19.3468 7.9831 19.1068 7.9831C18.9268 7.9831 18.7567 7.93312 18.6068 7.83314C18.4568 7.7331 18.3468 7.59313 18.2768 7.42309C18.2068 7.26313 18.1968 7.08314 18.2268 6.90313C18.2667 6.7331 18.3468 6.57311 18.4768 6.44311C18.5968 6.31312 18.7567 6.2331 18.9368 6.19312Z" fill="rgb(14,17,23)" fill-rule="evenodd" />
</svg>
