<svg viewBox="0 0 28 28" xmlns="http://www.w3.org/2000/svg" xmlns:xlink="http://www.w3.org/1999/xlink" width="28.000000" height="28.000000" fill="none">
	<rect id="28 / Document / Content Tree" width="28.000000" height="28.000000" x="0.000000" y="0.000000" />
	<path id="Вектор 23" d="M12.5049 9.34497C13.0549 9.34497 13.5049 8.89495 13.5049 8.34497C13.5049 7.79499 13.0549 7.34497 12.5049 7.34497L6.125 7.34497L6.125 3.09497C6.125 2.54499 5.67504 2.09497 5.125 2.09497C4.57496 2.09497 4.125 2.54499 4.125 3.09497L4.125 18.235C4.125 20.845 6.24512 22.975 8.85498 22.975L12.5049 22.975C13.0549 22.975 13.5049 22.525 13.5049 21.975C13.5049 21.425 13.0549 20.975 12.5049 20.975L8.85498 20.975C7.34498 20.975 6.125 19.745 6.125 18.235L6.125 9.34497L12.5049 9.34497ZM23.585 6.11499L20.5449 3.08497C20.355 2.89495 20.105 2.79499 19.835 2.79499L16.7949 2.79499C16.2449 2.79499 15.7949 3.24499 15.7949 3.79499L15.7949 11.715C15.7949 12.265 16.2449 12.715 16.7949 12.715L22.875 12.715C23.4248 12.715 23.875 12.265 23.875 11.715L23.875 6.82501C23.875 6.55499 23.7649 6.30499 23.585 6.11499ZM17.7949 10.715L17.7949 4.79499L19.4248 4.79499L21.875 7.23499L21.875 10.715L17.7949 10.715ZM19.835 15.985C20.105 15.985 20.355 16.085 20.5449 16.275L23.585 19.305C23.7649 19.495 23.875 19.745 23.875 20.015L23.875 24.905C23.875 25.455 23.4248 25.905 22.875 25.905L16.7949 25.905C16.2449 25.905 15.7949 25.455 15.7949 24.905L15.7949 16.985C15.7949 16.435 16.2449 15.985 16.7949 15.985L19.835 15.985ZM17.7949 17.985L17.7949 23.905L21.875 23.905L21.875 20.425L19.4248 17.985L17.7949 17.985Z" fill="rgb(14,17,23)" fill-rule="evenodd" />
</svg>
