<svg viewBox="0 0 28 28" xmlns="http://www.w3.org/2000/svg" xmlns:xlink="http://www.w3.org/1999/xlink" width="28.000000" height="28.000000" fill="none">
	<rect id="28 / Editor / Tabs" width="28.000000" height="28.000000" x="0.000000" y="0.000000" />
	<path id="Vector 13115" d="M21.8101 9.95001L23.0601 9.95001L23.0601 9.94001C24.6001 9.94001 25.8599 11.15 25.8599 12.63L25.8599 22.18C25.8599 22.73 25.4097 23.18 24.8599 23.18C24.3101 23.18 23.8599 22.73 23.8599 22.18L23.8599 12.63C23.8599 12.25 23.5005 11.94 23.0601 11.94L11.5005 11.94L11.5005 6.82001L5.27978 6.82001C4.6499 6.82001 4.14014 7.33001 4.14014 7.96003L4.14014 22.18C4.14014 22.73 3.68994 23.18 3.14014 23.18C2.59034 23.18 2.14014 22.73 2.14014 22.18L2.14014 7.96003C2.14014 6.22999 3.5503 4.82001 5.27978 4.82001L19.1802 4.82001C20.6304 4.82001 21.8101 6.00001 21.8101 7.45001L21.8101 9.95001ZM13.5005 9.95001L19.8101 9.95001L19.8101 7.46003C19.8101 7.10999 19.5298 6.83001 19.1802 6.83001L13.5005 6.83001L13.5005 9.95001ZM19.0806 15.56L8.92042 15.56C8.3706 15.56 7.92042 16.01 7.92042 16.56C7.92042 17.11 8.3706 17.56 8.92042 17.56L19.0806 17.56C19.6304 17.56 20.0806 17.11 20.0806 16.56C20.0806 16.01 19.6304 15.56 19.0806 15.56ZM19.0806 19.31L8.92042 19.31C8.3706 19.31 7.92042 19.76 7.92042 20.31C7.92042 20.86 8.3706 21.31 8.92042 21.31L19.0806 21.31C19.6304 21.31 20.0806 20.86 20.0806 20.31C20.0806 19.76 19.6304 19.31 19.0806 19.31Z" fill="rgb(14,17,23)" fill-rule="evenodd" />
</svg>
