<svg viewBox="0 0 28 28" xmlns="http://www.w3.org/2000/svg" xmlns:xlink="http://www.w3.org/1999/xlink" width="28.000000" height="28.000000" fill="none">
	<rect id="28 / Logo / Zabava" width="28.000000" height="28.000000" x="0.000000" y="0.000000" />
	<path id="Vector 12518" d="M2.33496 13.6354C2.33496 8.30835 2.33496 5.64478 3.98975 3.98999C5.64453 2.33496 8.30811 2.33496 13.6353 2.33496L14.3643 2.33496C19.6914 2.33496 22.355 2.33496 24.0103 3.98999C25.665 5.64478 25.665 8.30835 25.665 13.6354L25.665 14.3645C25.665 19.6917 25.665 22.3551 24.0103 24.0101C22.355 25.6649 19.6914 25.6649 14.3643 25.6649L13.6353 25.6649C8.30811 25.6649 5.64453 25.6649 3.98975 24.0101C2.33496 22.3551 2.33496 19.6917 2.33496 14.3645L2.33496 13.6354Z" fill="rgb(0,85,255)" fill-rule="evenodd" />
	<path id="Vector 12518" d="M18.8843 13.1467C18.2866 10.17 15.6909 5.99036 12.897 6.42761C9.65576 6.9353 7.44922 9.7373 7.79785 10.2562C8.07373 10.6667 9.86377 10.1466 10.5996 9.91125C10.7241 9.87146 10.8423 9.99463 10.7949 10.1165L9.63281 13.1143C7.47412 13.4353 6.05469 13.9799 6.05469 14.5975C6.05469 15.5847 9.68018 16.3849 14.1528 16.3849C15.5786 16.3849 16.9185 16.3036 18.082 16.1609C18.2368 16.1418 18.3184 16.3357 18.1895 16.4242C17.5127 16.8893 16.833 17.1489 15.7651 17.1989C15.8672 17.4148 15.9282 17.6898 15.9282 17.9893C15.9282 18.6835 15.5996 19.2462 15.1938 19.2462C14.7886 19.2462 14.46 18.6835 14.46 17.9893C14.46 17.6827 14.5239 17.4019 14.6304 17.1837C14.2368 17.1597 13.7993 17.1178 13.3096 17.0579C13.4575 17.2878 13.5508 17.62 13.5508 17.9893C13.5508 18.6835 13.2222 19.2462 12.8164 19.2462C12.4111 19.2462 12.082 18.6835 12.082 17.9893C12.082 17.574 12.1997 17.2057 12.3813 16.9769C11.4097 16.9503 10.688 17.1339 10.1519 17.3853C9.32959 17.7706 9.24854 18.848 9.79248 19.5754C10.7153 20.8091 12.1641 21.6038 13.792 21.6038C16.5786 21.6038 18.8374 19.277 18.8374 16.4067C18.8374 16.2896 18.8335 16.1731 18.8262 16.0575C20.8984 15.7338 22.251 15.2006 22.251 14.5975C22.251 14.0002 20.9238 13.4713 18.8843 13.1467Z" fill="rgb(0,85,255)" fill-rule="evenodd" />
	<path id="Vector 12518" d="M18.8843 13.1467C18.2866 10.17 15.6909 5.99036 12.897 6.42761C9.65576 6.9353 7.44922 9.7373 7.79785 10.2562C8.07373 10.6667 9.86377 10.1466 10.5996 9.91125C10.7241 9.87146 10.8423 9.99463 10.7949 10.1165L9.63281 13.1143C7.47412 13.4353 6.05469 13.9799 6.05469 14.5975C6.05469 15.5847 9.68018 16.3849 14.1528 16.3849C15.5786 16.3849 16.9185 16.3036 18.082 16.1609C18.2368 16.1418 18.3184 16.3357 18.1895 16.4242C17.5127 16.8893 16.833 17.1489 15.7651 17.1989C15.8672 17.4148 15.9282 17.6898 15.9282 17.9893C15.9282 18.6835 15.5996 19.2462 15.1938 19.2462C14.7886 19.2462 14.46 18.6835 14.46 17.9893C14.46 17.6827 14.5239 17.4019 14.6304 17.1837C14.2368 17.1597 13.7993 17.1178 13.3096 17.0579C13.4575 17.2878 13.5508 17.62 13.5508 17.9893C13.5508 18.6835 13.2222 19.2462 12.8164 19.2462C12.4111 19.2462 12.082 18.6835 12.082 17.9893C12.082 17.574 12.1997 17.2057 12.3813 16.9769C11.4097 16.9503 10.688 17.1339 10.1519 17.3853C9.32959 17.7706 9.24854 18.848 9.79248 19.5754C10.7153 20.8091 12.1641 21.6038 13.792 21.6038C16.5786 21.6038 18.8374 19.277 18.8374 16.4067C18.8374 16.2896 18.8335 16.1731 18.8262 16.0575C20.8984 15.7338 22.251 15.2006 22.251 14.5975C22.251 14.0002 20.9238 13.4713 18.8843 13.1467Z" fill="rgb(255,254.745,254.745)" fill-rule="evenodd" />
</svg>
