<svg viewBox="0 0 28 28" xmlns="http://www.w3.org/2000/svg" xmlns:xlink="http://www.w3.org/1999/xlink" width="28.000000" height="28.000000" fill="none">
	<rect id="28 / Logo / Akola Mono" width="28.000000" height="28.000000" x="0.000000" y="0.000000" />
	<path id="Vector 12534" d="M2.33496 13.6355C2.33496 8.30847 2.33496 5.6449 3.98975 3.99011C5.64453 2.33508 8.30811 2.33508 13.6353 2.33508L14.3643 2.33508C19.6914 2.33508 22.355 2.33508 24.0103 3.99011C25.665 5.6449 25.665 8.30847 25.665 13.6355L25.665 14.3646C25.665 19.6918 25.665 22.3552 24.0103 24.0103C22.355 25.665 19.6914 25.665 14.3643 25.665L13.6353 25.665C8.30811 25.665 5.64453 25.665 3.98975 24.0103C2.33496 22.3552 2.33496 19.6918 2.33496 14.3646L2.33496 13.6355Z" fill="rgb(22,25,27)" fill-rule="evenodd" />
	<path id="Vector 12534" d="M11.9956 9.43237L11.2026 9.43237C10.4639 9.43237 9.8833 8.8595 9.8833 8.13049C9.8833 7.40161 10.4639 6.82874 11.2026 6.82874L18.978 6.82874C19.7168 6.82874 20.2979 7.40161 20.2979 8.13049C20.2979 8.8595 19.7168 9.43237 18.978 9.43237L16 9.43237L15.9878 9.41138C15.1143 7.87183 12.8813 7.87183 12.0078 9.41138L11.9956 9.43237ZM11.7646 9.84009L10.2886 12.4437L7.3252 12.4437C6.59033 12.4437 6.0127 11.8708 6.0127 11.1418C6.0127 10.413 6.59033 9.84009 7.3252 9.84009L11.7646 9.84009ZM17.8716 12.4437L17.707 12.4437L16.231 9.84009L17.8716 9.84009C18.6064 9.84009 19.1841 10.413 19.1841 11.1418C19.1841 11.8708 18.6064 12.4437 17.8716 12.4437ZM10.0571 12.8514L8.59131 15.4365C7.97363 15.3326 7.51562 14.8057 7.51562 14.1532C7.51562 13.4242 8.0874 12.8514 8.81543 12.8514L10.0571 12.8514ZM19.4146 15.4551L17.9385 12.8514L19.6938 12.8514C20.4214 12.8514 20.9937 13.4242 20.9937 14.1532C20.9937 14.8822 20.4214 15.4551 19.6938 15.4551L19.4146 15.4551ZM12.6636 18.4664L7.32568 18.4664C6.59033 18.4664 6.0127 17.8936 6.0127 17.1646C6.0127 16.4355 6.59033 15.8628 7.32568 15.8628L12.6636 15.8628C13.3989 15.8628 13.9766 16.4355 13.9766 17.1646C13.9766 17.8936 13.3989 18.4664 12.6636 18.4664ZM20.0107 16.5067L19.6455 15.8628L20.6768 15.8628C21.4102 15.8628 21.9873 16.4355 21.9873 17.1646C21.9873 17.8936 21.4102 18.4664 20.6768 18.4664L20.1392 18.4664C20.248 18.1996 20.3071 17.9115 20.3071 17.6172C20.3071 17.2468 20.2139 16.8666 20.0107 16.5067ZM13.7871 19.8839L17.8027 19.8839C17.8237 19.9775 17.8345 20.0751 17.8345 20.1759C17.8345 20.9049 17.2563 21.4777 16.5205 21.4777L15.0693 21.4777C14.3335 21.4777 13.7549 20.9049 13.7549 20.1759C13.7549 20.0751 13.7661 19.9775 13.7871 19.8839Z" fill="rgb(22,25,27)" fill-rule="evenodd" />
	<path id="Vector 12534" d="M11.9956 9.43237L11.2026 9.43237C10.4639 9.43237 9.8833 8.8595 9.8833 8.13049C9.8833 7.40161 10.4639 6.82874 11.2026 6.82874L18.978 6.82874C19.7168 6.82874 20.2979 7.40161 20.2979 8.13049C20.2979 8.8595 19.7168 9.43237 18.978 9.43237L16 9.43237L15.9878 9.41138C15.1143 7.87183 12.8813 7.87183 12.0078 9.41138L11.9956 9.43237ZM11.7646 9.84009L10.2886 12.4437L7.3252 12.4437C6.59033 12.4437 6.0127 11.8708 6.0127 11.1418C6.0127 10.413 6.59033 9.84009 7.3252 9.84009L11.7646 9.84009ZM17.8716 12.4437L17.707 12.4437L16.231 9.84009L17.8716 9.84009C18.6064 9.84009 19.1841 10.413 19.1841 11.1418C19.1841 11.8708 18.6064 12.4437 17.8716 12.4437ZM10.0571 12.8514L8.59131 15.4365C7.97363 15.3326 7.51562 14.8057 7.51562 14.1532C7.51562 13.4242 8.0874 12.8514 8.81543 12.8514L10.0571 12.8514ZM19.4146 15.4551L17.9385 12.8514L19.6938 12.8514C20.4214 12.8514 20.9937 13.4242 20.9937 14.1532C20.9937 14.8822 20.4214 15.4551 19.6938 15.4551L19.4146 15.4551ZM12.6636 18.4664L7.32568 18.4664C6.59033 18.4664 6.0127 17.8936 6.0127 17.1646C6.0127 16.4355 6.59033 15.8628 7.32568 15.8628L12.6636 15.8628C13.3989 15.8628 13.9766 16.4355 13.9766 17.1646C13.9766 17.8936 13.3989 18.4664 12.6636 18.4664ZM20.0107 16.5067L19.6455 15.8628L20.6768 15.8628C21.4102 15.8628 21.9873 16.4355 21.9873 17.1646C21.9873 17.8936 21.4102 18.4664 20.6768 18.4664L20.1392 18.4664C20.248 18.1996 20.3071 17.9115 20.3071 17.6172C20.3071 17.2468 20.2139 16.8666 20.0107 16.5067ZM13.7871 19.8839L17.8027 19.8839C17.8237 19.9775 17.8345 20.0751 17.8345 20.1759C17.8345 20.9049 17.2563 21.4777 16.5205 21.4777L15.0693 21.4777C14.3335 21.4777 13.7549 20.9049 13.7549 20.1759C13.7549 20.0751 13.7661 19.9775 13.7871 19.8839Z" fill="rgb(255,255,255)" fill-rule="evenodd" />
</svg>
