<svg viewBox="0 0 28 28" xmlns="http://www.w3.org/2000/svg" xmlns:xlink="http://www.w3.org/1999/xlink" width="28.000000" height="28.000000" fill="none">
	<rect id="28 / Logo / Alkion" width="28.000000" height="28.000000" x="0.000000" y="0.000000" />
	<path id="Vector 12514" d="M2.33496 13.6354C2.33496 8.30835 2.33496 5.64478 3.98975 3.98999C5.64453 2.33496 8.30811 2.33496 13.6353 2.33496L14.3643 2.33496C19.6914 2.33496 22.355 2.33496 24.0103 3.98999C25.665 5.64478 25.665 8.30835 25.665 13.6354L25.665 14.3645C25.665 19.6917 25.665 22.3551 24.0103 24.0101C22.355 25.6649 19.6914 25.6649 14.3643 25.6649L13.6353 25.6649C8.30811 25.6649 5.64453 25.6649 3.98975 24.0101C2.33496 22.3551 2.33496 19.6917 2.33496 14.3645L2.33496 13.6354Z" fill="rgb(0,85,255)" fill-rule="evenodd" />
	<path id="Vector 12514" d="M18.9409 15.6733C18.4443 14.869 18.3364 13.9364 18.5645 13.0919C18.6851 12.6414 18.9023 12.2172 19.2041 11.8506C19.2539 11.79 19.2002 11.7034 19.124 11.7198C18.6572 11.823 18.1787 11.823 17.7202 11.7279C16.8608 11.5475 16.0732 11.0282 15.5776 10.2263L13.3818 6.67212C13.3486 6.61853 13.2715 6.62 13.2407 6.67358C12.9736 7.14075 12.0117 8.84314 11.8857 9.32544C11.6392 10.2704 11.707 11.4207 12.3467 12.4554C12.9858 13.49 13.9854 14.1514 14.9629 14.2821C15.0156 14.2889 15.0459 14.34 15.0293 14.3896C14.7056 15.3167 14.8408 16.496 15.4849 17.5374C16.1245 18.5734 17.1167 19.2002 18.083 19.3612C18.9067 19.4991 21.3237 19.3708 21.21 19.3489L18.9429 15.6764L18.9409 15.6733Z" fill="rgb(0,85,255)" fill-rule="evenodd" />
	<path id="Vector 12514" d="M18.9409 15.6733C18.4443 14.869 18.3364 13.9364 18.5645 13.0919C18.6851 12.6414 18.9023 12.2172 19.2041 11.8506C19.2539 11.79 19.2002 11.7034 19.124 11.7198C18.6572 11.823 18.1787 11.823 17.7202 11.7279C16.8608 11.5475 16.0732 11.0282 15.5776 10.2263L13.3818 6.67212C13.3486 6.61853 13.2715 6.62 13.2407 6.67358C12.9736 7.14075 12.0117 8.84314 11.8857 9.32544C11.6392 10.2704 11.707 11.4207 12.3467 12.4554C12.9858 13.49 13.9854 14.1514 14.9629 14.2821C15.0156 14.2889 15.0459 14.34 15.0293 14.3896C14.7056 15.3167 14.8408 16.496 15.4849 17.5374C16.1245 18.5734 17.1167 19.2002 18.083 19.3612C18.9067 19.4991 21.3237 19.3708 21.21 19.3489L18.9429 15.6764L18.9409 15.6733Z" fill="rgb(255,255,255)" fill-rule="evenodd" />
	<path id="Vector 12514" d="M12.3745 19.0057C12.0005 19.2344 11.5908 19.3585 11.1812 19.3861C11.1812 19.3861 11.1797 19.3861 11.1768 19.3861L10.8418 19.3861L6.91895 19.4026C6.81934 19.4026 6.75537 19.2992 6.80127 19.2111L8.57471 15.7615C8.57471 15.7615 8.57715 15.7561 8.57861 15.7534L8.74609 15.4269C8.74609 15.4269 8.74756 15.42 8.75049 15.4186C9.00244 15.0051 9.37305 14.6541 9.85352 14.4211C10.9482 13.8909 12.2993 14.1967 13.0537 15.1484C14.0464 16.4009 13.6978 18.1945 12.3716 19.0057L12.3745 19.0057Z" fill="rgb(0,85,255)" fill-rule="evenodd" />
	<path id="Vector 12514" d="M12.3745 19.0057C12.0005 19.2344 11.5908 19.3585 11.1812 19.3861C11.1812 19.3861 11.1797 19.3861 11.1768 19.3861L10.8418 19.3861L6.91895 19.4026C6.81934 19.4026 6.75537 19.2992 6.80127 19.2111L8.57471 15.7615C8.57471 15.7615 8.57715 15.7561 8.57861 15.7534L8.74609 15.4269C8.74609 15.4269 8.74756 15.42 8.75049 15.4186C9.00244 15.0051 9.37305 14.6541 9.85352 14.4211C10.9482 13.8909 12.2993 14.1967 13.0537 15.1484C14.0464 16.4009 13.6978 18.1945 12.3716 19.0057L12.3745 19.0057Z" fill="rgb(255,255,255)" fill-rule="evenodd" />
</svg>
