<svg viewBox="0 0 28 28" xmlns="http://www.w3.org/2000/svg" xmlns:xlink="http://www.w3.org/1999/xlink" width="28.000000" height="28.000000" fill="none">
	<rect id="28 / Logo / Yozhka" width="28.000000" height="28.000000" x="0.000000" y="0.000000" />
	<path id="Vector 12550" d="M2.33496 13.6355C2.33496 8.30847 2.33496 5.6449 3.98975 3.98999C5.64502 2.33508 8.30811 2.33508 13.6353 2.33508L14.3643 2.33508C19.6914 2.33508 22.355 2.33508 24.0103 3.98999C25.665 5.6449 25.665 8.30847 25.665 13.6355L25.665 14.3646C25.665 19.6917 25.665 22.3552 24.0103 24.0101C22.355 25.665 19.6914 25.665 14.3643 25.665L13.6353 25.665C8.30811 25.665 5.64502 25.665 3.98975 24.0101C2.33496 22.3552 2.33496 19.6917 2.33496 14.3646L2.33496 13.6355Z" fill="rgb(0,85,255)" fill-rule="evenodd" />
	<path id="Vector 12550" d="M12.936 10.4987C13.0493 10.4987 13.1602 10.5127 13.2681 10.5394C12.5723 9.50208 11.5679 8.85071 10.4517 8.85071C8.35107 8.85071 6.64844 11.1561 6.64844 14.0001C6.64844 16.844 8.35107 19.1495 10.4517 19.1495C12.3687 19.1495 13.9541 17.2294 14.2168 14.7323C13.8872 15.1713 13.4346 15.4421 12.936 15.4421C11.9272 15.4421 11.1099 14.3354 11.1099 12.9705C11.1099 11.6053 11.9272 10.4987 12.936 10.4987Z" fill="rgb(0,85,255)" fill-rule="evenodd" />
	<path id="Vector 12550" d="M12.936 10.4987C13.0493 10.4987 13.1602 10.5127 13.2681 10.5394C12.5723 9.50208 11.5679 8.85071 10.4517 8.85071C8.35107 8.85071 6.64844 11.1561 6.64844 14.0001C6.64844 16.844 8.35107 19.1495 10.4517 19.1495C12.3687 19.1495 13.9541 17.2294 14.2168 14.7323C13.8872 15.1713 13.4346 15.4421 12.936 15.4421C11.9272 15.4421 11.1099 14.3354 11.1099 12.9705C11.1099 11.6053 11.9272 10.4987 12.936 10.4987Z" fill="rgb(255,255,255)" fill-rule="evenodd" />
	<path id="Vector 12550" d="M14.4561 16.9259C15.1426 18.2694 16.2886 19.1495 17.5864 19.1495C19.5029 19.1495 21.0889 17.2294 21.3511 14.7321C21.0215 15.1711 20.5693 15.4421 20.0703 15.4421C19.062 15.4421 18.2446 14.3354 18.2446 12.9705C18.2446 11.6053 19.062 10.4987 20.0703 10.4987C20.1841 10.4987 20.2949 10.5127 20.4023 10.5396C19.707 9.50208 18.7026 8.85071 17.5864 8.85071C16.2886 8.85071 15.1426 9.73083 14.4561 11.0743C14.835 11.9454 15.0459 12.9464 15.0459 14.0002C15.0459 15.054 14.835 16.0549 14.4561 16.9259Z" fill="rgb(0,85,255)" fill-rule="evenodd" />
	<path id="Vector 12550" d="M14.4561 16.9259C15.1426 18.2694 16.2886 19.1495 17.5864 19.1495C19.5029 19.1495 21.0889 17.2294 21.3511 14.7321C21.0215 15.1711 20.5693 15.4421 20.0703 15.4421C19.062 15.4421 18.2446 14.3354 18.2446 12.9705C18.2446 11.6053 19.062 10.4987 20.0703 10.4987C20.1841 10.4987 20.2949 10.5127 20.4023 10.5396C19.707 9.50208 18.7026 8.85071 17.5864 8.85071C16.2886 8.85071 15.1426 9.73083 14.4561 11.0743C14.835 11.9454 15.0459 12.9464 15.0459 14.0002C15.0459 15.054 14.835 16.0549 14.4561 16.9259Z" fill="rgb(255,255,255)" fill-rule="evenodd" />
</svg>
