<svg viewBox="0 0 28 28" xmlns="http://www.w3.org/2000/svg" xmlns:xlink="http://www.w3.org/1999/xlink" width="28.000000" height="28.000000" fill="none">
	<rect id="28 / Logo / Divo" width="28.000000" height="28.000000" x="0.000000" y="0.000000" />
	<path id="Vector 12538" d="M2.33496 13.6355C2.33496 8.30847 2.33496 5.6449 3.98975 3.99011C5.64453 2.33508 8.30811 2.33508 13.6353 2.33508L14.3643 2.33508C19.6914 2.33508 22.355 2.33508 24.0103 3.99011C25.665 5.6449 25.665 8.30847 25.665 13.6355L25.665 14.3646C25.665 19.6918 25.665 22.3552 24.0103 24.0103C22.355 25.665 19.6914 25.665 14.3643 25.665L13.6353 25.665C8.30811 25.665 5.64453 25.665 3.98975 24.0103C2.33496 22.3552 2.33496 19.6918 2.33496 14.3646L2.33496 13.6355Z" fill="rgb(0,85,255)" fill-rule="evenodd" />
	<path id="Vector 12538" d="M12.0693 14.108C8.9668 15.1566 8.1499 10.8613 10.915 8.83887C13.6797 6.81628 16.9404 6.86353 19.2261 8.83789C21.9468 11.1882 22.1084 16.0104 18.3096 20.3168L6.95703 20.3168L6.95703 16.9708C6.95703 16.9708 8.61426 17.6808 10.6533 16.9341C12.6924 16.1873 13.5493 14.2802 13.5493 14.2802C13.9951 13.2802 13.8745 12.347 13.2451 11.7522C12.6704 11.208 11.9292 11.2236 11.2842 11.6829C10.4087 12.3048 10.8198 13.6556 12.0693 13.2164L12.0693 14.108Z" fill="rgb(0,85,255)" fill-rule="evenodd" />
	<path id="Vector 12538" d="M12.0693 14.108C8.9668 15.1566 8.1499 10.8613 10.915 8.83887C13.6797 6.81628 16.9404 6.86353 19.2261 8.83789C21.9468 11.1882 22.1084 16.0104 18.3096 20.3168L6.95703 20.3168L6.95703 16.9708C6.95703 16.9708 8.61426 17.6808 10.6533 16.9341C12.6924 16.1873 13.5493 14.2802 13.5493 14.2802C13.9951 13.2802 13.8745 12.347 13.2451 11.7522C12.6704 11.208 11.9292 11.2236 11.2842 11.6829C10.4087 12.3048 10.8198 13.6556 12.0693 13.2164L12.0693 14.108Z" fill="rgb(255,254.745,254.745)" fill-rule="evenodd" />
</svg>
