<svg viewBox="0 0 28 28" xmlns="http://www.w3.org/2000/svg" xmlns:xlink="http://www.w3.org/1999/xlink" width="28.000000" height="28.000000" fill="none">
	<rect id="28 / Logo / Mera Mono" width="28.000000" height="28.000000" x="0.000000" y="0.000000" />
	<path id="Vector 12522" d="M2.33496 13.6355C2.33496 8.30847 2.33496 5.6449 3.98975 3.99011C5.64453 2.33508 8.30811 2.33508 13.6353 2.33508L14.3643 2.33508C19.6914 2.33508 22.355 2.33508 24.0103 3.99011C25.665 5.6449 25.665 8.30847 25.665 13.6355L25.665 14.3646C25.665 19.6918 25.665 22.3552 24.0103 24.0103C22.355 25.665 19.6914 25.665 14.3643 25.665L13.6353 25.665C8.30811 25.665 5.64453 25.665 3.98975 24.0103C2.33496 22.3552 2.33496 19.6918 2.33496 14.3646L2.33496 13.6355Z" fill="rgb(22,25,27)" fill-rule="evenodd" />
	<path id="Vector 12522" d="M11.981 10.8695C11.981 9.75439 12.8848 8.85059 13.9995 8.85059C15.1147 8.85059 16.0186 9.75439 16.0186 10.8695L16.0186 17.1307C16.0186 18.2457 15.1147 19.1495 13.9995 19.1495C12.8848 19.1495 11.981 18.2457 11.981 17.1307L11.981 10.8695ZM19.2378 8.85059C18.123 8.85059 17.2192 9.75439 17.2192 10.8695L17.2192 17.1307C17.2192 18.2457 18.123 19.1495 19.2378 19.1495C20.353 19.1495 21.2568 18.2457 21.2568 17.1307L21.2568 10.8695C21.2568 9.75439 20.353 8.85059 19.2378 8.85059ZM6.74268 15.6957C6.74268 14.5807 7.64648 13.6768 8.76172 13.6768C9.87646 13.6768 10.7803 14.5807 10.7803 15.6957L10.7803 17.1307C10.7803 18.2456 9.87646 19.1495 8.76172 19.1495C7.64648 19.1495 6.74268 18.2456 6.74268 17.1307L6.74268 15.6957Z" fill="rgb(22,25,27)" fill-rule="evenodd" />
	<path id="Vector 12522" d="M11.981 10.8695C11.981 9.75439 12.8848 8.85059 13.9995 8.85059C15.1147 8.85059 16.0186 9.75439 16.0186 10.8695L16.0186 17.1307C16.0186 18.2457 15.1147 19.1495 13.9995 19.1495C12.8848 19.1495 11.981 18.2457 11.981 17.1307L11.981 10.8695ZM19.2378 8.85059C18.123 8.85059 17.2192 9.75439 17.2192 10.8695L17.2192 17.1307C17.2192 18.2457 18.123 19.1495 19.2378 19.1495C20.353 19.1495 21.2568 18.2457 21.2568 17.1307L21.2568 10.8695C21.2568 9.75439 20.353 8.85059 19.2378 8.85059ZM6.74268 15.6957C6.74268 14.5807 7.64648 13.6768 8.76172 13.6768C9.87646 13.6768 10.7803 14.5807 10.7803 15.6957L10.7803 17.1307C10.7803 18.2456 9.87646 19.1495 8.76172 19.1495C7.64648 19.1495 6.74268 18.2456 6.74268 17.1307L6.74268 15.6957Z" fill="rgb(255,254.745,254.745)" fill-rule="evenodd" />
</svg>
