<svg viewBox="0 0 28 28" xmlns="http://www.w3.org/2000/svg" xmlns:xlink="http://www.w3.org/1999/xlink" width="28.000000" height="28.000000" fill="none">
	<rect id="28 / Logo / Sokol" width="28.000000" height="28.000000" x="0.000000" y="0.000000" />
	<path id="Вектор 48" d="M2 13.625C2 8.1449 2 5.40491 3.70215 3.70251C5.40527 2 8.14453 2 13.625 2L14.375 2C19.8555 2 22.5947 2 24.2979 3.70251C26 5.40491 26 8.1449 26 13.625L26 14.375C26 19.8551 26 22.5951 24.2979 24.2976C22.5947 26 19.8555 26 14.375 26L13.625 26C8.14453 26 5.40527 26 3.70215 24.2976C2 22.5951 2 19.8551 2 14.375L2 13.625Z" fill="rgb(0,85,255)" fill-rule="evenodd" />
	<path id="Вектор 48" d="M18.9951 13.4764C18.8984 14.3673 18.3555 15.0986 17.5479 15.4404C16.4844 15.8901 15.2178 15.5353 14.5469 14.5454C14.0547 13.8184 14.0078 12.8975 14.4199 12.1217C14.833 11.3458 15.5352 10.9033 16.3486 10.7941C16.499 10.7739 16.5479 10.5757 16.4268 10.4838C15.5381 9.89185 14.4199 9.75391 13.4375 10.1835C12.5674 10.5627 11.9492 11.2869 11.6631 12.1978C11.1953 13.692 11.6729 15.3055 12.709 16.4606C14.0713 17.9807 16.2041 18.5841 18.1553 17.9935C19.2559 17.6603 20.1846 16.9362 20.7559 15.9319C21.4014 14.8026 21.4951 13.3616 21.1797 12.1016C20.833 10.7194 20.0674 9.49963 19.0215 8.55713C16.5781 6.35168 12.9736 6.02417 10.1709 7.73096C8.0791 9.00537 6.72461 11.2697 6.64941 13.7495C6.60449 15.2035 6.97559 16.6071 7.73047 17.8354C9.32422 20.4303 12.2734 21.7347 15.2559 21.2578C16.7178 21.0237 18.0508 20.3713 19.125 19.3527C19.3096 19.1775 19.4863 18.9993 19.6523 18.814C19.7861 18.6631 19.5996 18.4447 19.4277 18.5525C19.1777 18.7076 18.9141 18.8427 18.6309 18.9548C16.4912 19.8096 14.0596 19.6918 12.0166 18.6229C10.2627 17.7048 8.94824 16.0195 8.89648 13.9937C8.85156 12.172 9.78223 10.4752 11.2979 9.5011C13.207 8.27551 15.6973 8.45508 17.417 9.93787C18.4072 10.7913 19.1416 12.1217 18.9941 13.4764L18.9951 13.4764Z" fill="rgb(0,85,255)" fill-rule="evenodd" />
	<path id="Вектор 48" d="M18.9951 13.4764C18.8984 14.3673 18.3555 15.0986 17.5479 15.4404C16.4844 15.8901 15.2178 15.5353 14.5469 14.5454C14.0547 13.8184 14.0078 12.8975 14.4199 12.1217C14.833 11.3458 15.5352 10.9033 16.3486 10.7941C16.499 10.7739 16.5479 10.5757 16.4268 10.4838C15.5381 9.89185 14.4199 9.75391 13.4375 10.1835C12.5674 10.5627 11.9492 11.2869 11.6631 12.1978C11.1953 13.692 11.6729 15.3055 12.709 16.4606C14.0713 17.9807 16.2041 18.5841 18.1553 17.9935C19.2559 17.6603 20.1846 16.9362 20.7559 15.9319C21.4014 14.8026 21.4951 13.3616 21.1797 12.1016C20.833 10.7194 20.0674 9.49963 19.0215 8.55713C16.5781 6.35168 12.9736 6.02417 10.1709 7.73096C8.0791 9.00537 6.72461 11.2697 6.64941 13.7495C6.60449 15.2035 6.97559 16.6071 7.73047 17.8354C9.32422 20.4303 12.2734 21.7347 15.2559 21.2578C16.7178 21.0237 18.0508 20.3713 19.125 19.3527C19.3096 19.1775 19.4863 18.9993 19.6523 18.814C19.7861 18.6631 19.5996 18.4447 19.4277 18.5525C19.1777 18.7076 18.9141 18.8427 18.6309 18.9548C16.4912 19.8096 14.0596 19.6918 12.0166 18.6229C10.2627 17.7048 8.94824 16.0195 8.89648 13.9937C8.85156 12.172 9.78223 10.4752 11.2979 9.5011C13.207 8.27551 15.6973 8.45508 17.417 9.93787C18.4072 10.7913 19.1416 12.1217 18.9941 13.4764L18.9951 13.4764Z" fill="rgb(255,254.745,254.745)" fill-rule="evenodd" />
</svg>
