<svg viewBox="0 0 28 28" xmlns="http://www.w3.org/2000/svg" xmlns:xlink="http://www.w3.org/1999/xlink" width="28.000000" height="28.000000" fill="none">
	<rect id="28 / Logo / Yaga Mono" width="28.000000" height="28.000000" x="0.000000" y="0.000000" />
	<path id="Vector" d="M2.33398 13.6353C2.33398 8.30701 2.33398 5.64363 3.98881 3.98881C5.64363 2.33398 8.30701 2.33398 13.6353 2.33398L14.3645 2.33398C19.6928 2.33398 22.3561 2.33398 24.011 3.98881C25.6673 5.64363 25.6673 8.30701 25.6673 13.6353L25.6673 14.3645C25.6673 19.6928 25.6673 22.3561 24.011 24.011C22.3561 25.6673 19.6928 25.6673 14.3645 25.6673L13.6353 25.6673C8.30701 25.6673 5.64363 25.6673 3.98881 24.011C2.33398 22.3561 2.33398 19.6928 2.33398 14.3645L2.33398 13.6353Z" fill="rgb(22,25,27)" fill-rule="evenodd" />
	<path id="Vector" d="M13.345 8.39176L18.1637 8.39176C19.0126 8.39176 19.7018 9.08102 19.7018 9.93146C19.7018 10.7804 19.0126 11.4696 18.1637 11.4696L14.0082 11.4696C13.3066 11.4696 12.6343 11.749 12.1384 12.2448L11.2895 13.0937C10.9718 13.4008 10.433 13.5497 10.0047 13.4637C9.29853 13.3225 8.89634 12.8358 8.89634 12.056C8.89634 12.0499 8.93318 11.6661 8.93318 11.6661C9.04371 10.2354 10.7799 8.49769 13.1102 8.39637C13.1884 8.3933 13.2667 8.39176 13.345 8.39176ZM18.1545 12.5994L15.0781 12.5994C13.847 12.5994 12.9751 13.0293 12.2183 13.7907L8.84721 17.1832C8.81805 17.2124 8.78735 17.2415 8.75971 17.2722L8.69064 17.3413L8.69371 17.3444C8.35752 17.7358 8.21322 18.2025 8.34371 18.6323C8.56783 19.3615 9.5073 19.7345 10.5174 19.5304C11.0393 19.4475 11.5259 19.2019 11.9036 18.8227L14.0619 16.6628C14.7834 15.9429 15.3775 15.6957 16.3983 15.6957L18.1545 15.6957C19.008 15.6957 19.7003 15.0019 19.7003 14.1483C19.7003 13.2933 19.008 12.601 18.1545 12.601L18.1545 12.5994ZM16.7852 16.8194L18.308 16.8194C19.0786 16.8194 19.7018 17.4442 19.7018 18.2133C19.7018 18.9839 19.0786 19.6087 18.308 19.6087L16.7852 19.6087C16.0145 19.6087 15.3898 18.9839 15.3898 18.2133C15.3898 17.4442 16.0145 16.8194 16.7852 16.8194Z" fill="rgb(22,25,27)" fill-rule="evenodd" />
	<path id="Vector" d="M13.345 8.39176L18.1637 8.39176C19.0126 8.39176 19.7018 9.08102 19.7018 9.93146C19.7018 10.7804 19.0126 11.4696 18.1637 11.4696L14.0082 11.4696C13.3066 11.4696 12.6343 11.749 12.1384 12.2448L11.2895 13.0937C10.9718 13.4008 10.433 13.5497 10.0047 13.4637C9.29853 13.3225 8.89634 12.8358 8.89634 12.056C8.89634 12.0499 8.93318 11.6661 8.93318 11.6661C9.04371 10.2354 10.7799 8.49769 13.1102 8.39637C13.1884 8.3933 13.2667 8.39176 13.345 8.39176ZM18.1545 12.5994L15.0781 12.5994C13.847 12.5994 12.9751 13.0293 12.2183 13.7907L8.84721 17.1832C8.81805 17.2124 8.78735 17.2415 8.75971 17.2722L8.69064 17.3413L8.69371 17.3444C8.35752 17.7358 8.21322 18.2025 8.34371 18.6323C8.56783 19.3615 9.5073 19.7345 10.5174 19.5304C11.0393 19.4475 11.5259 19.2019 11.9036 18.8227L14.0619 16.6628C14.7834 15.9429 15.3775 15.6957 16.3983 15.6957L18.1545 15.6957C19.008 15.6957 19.7003 15.0019 19.7003 14.1483C19.7003 13.2933 19.008 12.601 18.1545 12.601L18.1545 12.5994ZM16.7852 16.8194L18.308 16.8194C19.0786 16.8194 19.7018 17.4442 19.7018 18.2133C19.7018 18.9839 19.0786 19.6087 18.308 19.6087L16.7852 19.6087C16.0145 19.6087 15.3898 18.9839 15.3898 18.2133C15.3898 17.4442 16.0145 16.8194 16.7852 16.8194Z" fill="rgb(255,255,255)" fill-rule="evenodd" />
</svg>
