<svg viewBox="0 0 28 28" xmlns="http://www.w3.org/2000/svg" xmlns:xlink="http://www.w3.org/1999/xlink" width="28.000000" height="28.000000" fill="none">
	<rect id="28 / Logo / Sirin Mono" width="28.000000" height="28.000000" x="0.000000" y="0.000000" />
	<path id="Vector 12542" d="M2.33496 13.6354C2.33496 8.30835 2.33496 5.64514 3.98975 3.99023C5.64502 2.33533 8.30811 2.33533 13.6353 2.33533L14.3647 2.33533C19.6919 2.33533 22.355 2.33533 24.0098 3.99023C25.665 5.64514 25.665 8.30835 25.665 13.6354L25.665 14.3646C25.665 19.6917 25.665 22.3549 24.0098 24.0098C22.355 25.6647 19.6914 25.6647 14.3647 25.6647L13.6353 25.6647C8.30811 25.6647 5.64502 25.6647 3.98975 24.0098C2.33496 22.3549 2.33496 19.691 2.33496 14.3646L2.33496 13.6354Z" fill="rgb(22,25,27)" fill-rule="evenodd" />
	<path id="Vector 12542" d="M14.001 11.399L14.001 7.14087C14.001 6.92896 14.1729 6.7561 14.3848 6.76721C14.8955 6.79407 15.3926 6.87415 15.8691 7.00146C16.0742 7.05615 16.1841 7.27356 16.1187 7.4751L15.6406 8.94861C15.5752 9.1499 15.686 9.36475 15.8813 9.4458C16.0669 9.52246 16.2461 9.61023 16.4189 9.70801C16.5107 9.75989 16.6187 9.77612 16.7202 9.7489L17.0376 9.66382C17.1226 9.64099 17.1973 9.58972 17.249 9.51855L18.0249 8.44958C18.1494 8.2782 18.3896 8.23914 18.5547 8.37244C18.9453 8.68896 19.3027 9.04602 19.6191 9.43701C19.7524 9.60168 19.7134 9.84216 19.542 9.96655L18.2881 10.8768C18.1167 11.0011 17.8784 10.9622 17.7407 10.8013C17.6167 10.6558 17.4839 10.5176 17.3438 10.3873C17.251 10.3013 17.1196 10.2725 16.9976 10.3052L16.7354 10.3755C16.6504 10.3982 16.5757 10.4493 16.5244 10.5205L15.5254 11.8949C15.4277 12.0294 15.2544 12.0857 15.0962 12.0342L14.2661 11.7638C14.1079 11.7124 14.001 11.5652 14.001 11.399ZM11.5347 13.196L7.48486 11.8801C7.28369 11.8147 7.17236 11.5977 7.24805 11.3999C7.43164 10.9226 7.66113 10.4746 7.92969 10.0603C8.04492 9.88245 8.28564 9.84509 8.45703 9.9696L9.71094 10.8798C9.88232 11.004 10.1206 10.9652 10.2583 10.8043C10.3887 10.6516 10.5273 10.5079 10.6743 10.3737C10.7515 10.3027 10.8003 10.2051 10.8062 10.1001L10.8232 9.77209C10.8276 9.68433 10.8022 9.59766 10.7505 9.52637L9.97266 8.45703C9.84814 8.28577 9.88525 8.04492 10.063 7.92957C10.4849 7.6554 10.9346 7.42627 11.4043 7.24609C11.6021 7.17029 11.8188 7.28162 11.8843 7.48303L12.3623 8.95691C12.4277 9.1582 12.3169 9.37292 12.1216 9.45398C11.9448 9.52722 11.7729 9.61035 11.606 9.70325C11.4956 9.76477 11.4272 9.88074 11.4209 10.0071L11.4067 10.2798C11.4019 10.3676 11.4277 10.4543 11.4795 10.5254L12.4775 11.8995C12.5752 12.0341 12.5752 12.2163 12.4775 12.3508L11.9639 13.0568C11.8662 13.1912 11.6929 13.2473 11.5347 13.196ZM20.52 11.8792L16.4702 13.1951C16.312 13.2463 16.2051 13.3936 16.2051 13.5598L16.2046 14.4329C16.2041 14.5991 16.3115 14.7466 16.4697 14.798L18.0845 15.3228C18.168 15.35 18.2397 15.405 18.2876 15.4788L18.4365 15.7076C18.5054 15.8137 18.5186 15.9474 18.4653 16.0623C18.3848 16.2356 18.2944 16.4043 18.1943 16.5671C18.084 16.7477 18.1206 16.9865 18.292 17.111L19.5449 18.0222C19.7163 18.1469 19.957 18.1096 20.0723 17.932C20.3467 17.51 20.5757 17.0602 20.7559 16.5905C20.832 16.3927 20.7202 16.176 20.519 16.1106L19.2617 15.7029C19.1777 15.6757 19.106 15.6206 19.0581 15.5469L18.8794 15.2715C18.8223 15.1833 18.8042 15.0757 18.8252 14.9727C18.8652 14.7777 18.8931 14.5797 18.9087 14.3795C18.9253 14.1686 19.0957 13.9969 19.3071 13.9968L20.8564 13.9963C21.0684 13.9962 21.2412 13.8243 21.2295 13.6129C21.2036 13.1198 21.126 12.6224 20.9937 12.1284C20.939 11.9237 20.7212 11.8136 20.52 11.8792ZM14.001 12.9038C13.3994 12.9038 12.9116 13.3916 12.9116 13.9933C12.9116 14.5948 13.3994 15.0826 14.001 15.0826C14.603 15.0826 15.0903 14.5948 15.0903 13.9933C15.0903 13.3916 14.603 12.9038 14.001 12.9038ZM9.97559 19.5355L12.4785 16.0906C12.5762 15.9562 12.5762 15.7742 12.4785 15.6396L11.9658 14.9331C11.8682 14.7985 11.6948 14.7421 11.5366 14.7935L9.9209 15.3184C9.83691 15.3456 9.74658 15.3431 9.66455 15.3116L9.41162 15.2145C9.29346 15.1692 9.2041 15.0687 9.17969 14.9447C9.14307 14.7568 9.1167 14.567 9.10156 14.3761C9.08496 14.1652 8.91504 13.9935 8.70361 13.9934L7.15381 13.9928C6.94189 13.9927 6.76904 14.1643 6.78027 14.3759C6.80664 14.8783 6.88574 15.3768 7.01562 15.8628C7.0708 16.0675 7.28809 16.1772 7.48975 16.1117L8.74561 15.703C8.8291 15.6758 8.91943 15.6782 9.00146 15.7097L9.30908 15.8276C9.40723 15.8652 9.48486 15.9419 9.52832 16.0376C9.61084 16.2183 9.70459 16.3948 9.80908 16.5657C9.91992 16.7462 9.8833 16.9851 9.71191 17.1095L8.45898 18.0205C8.2876 18.1451 8.24854 18.3857 8.38232 18.5503C8.69336 18.9337 9.04834 19.2906 9.4458 19.6124C9.61035 19.7458 9.85107 19.707 9.97559 19.5355ZM15.5254 16.1029L18.0283 19.5479C18.1528 19.7192 18.1152 19.9602 17.9375 20.0756C17.5088 20.354 17.0596 20.5814 16.5986 20.7587C16.4009 20.8347 16.1841 20.7236 16.1187 20.5221L15.6396 19.049C15.5742 18.8477 15.3584 18.739 15.1523 18.7883C14.9575 18.8351 14.7603 18.8698 14.563 18.8922C14.4585 18.9041 14.3618 18.9543 14.2954 19.0359L14.0894 19.2908C14.0337 19.3591 14.0034 19.4446 14.0039 19.5325L14.0044 20.8541C14.0044 21.0659 13.8325 21.2388 13.6211 21.2278C13.1187 21.2014 12.6201 21.1226 12.1343 20.9922C11.9297 20.9374 11.8198 20.7198 11.8853 20.5184L12.3647 19.045C12.4302 18.8439 12.646 18.7351 12.8516 18.7845C13.0376 18.8291 13.2261 18.8629 13.416 18.8859C13.5415 18.901 13.6646 18.8472 13.7441 18.7489L13.915 18.5377C13.9707 18.4695 14.0005 18.3843 14.0005 18.2963L14.001 16.5977C14.001 16.4314 14.1079 16.2841 14.2661 16.2328L15.0967 15.9635C15.2549 15.9121 15.4277 15.9685 15.5254 16.1029Z" fill="rgb(22,25,27)" fill-rule="evenodd" />
	<path id="Vector 12542" d="M14.001 11.399L14.001 7.14087C14.001 6.92896 14.1729 6.7561 14.3848 6.76721C14.8955 6.79407 15.3926 6.87415 15.8691 7.00146C16.0742 7.05615 16.1841 7.27356 16.1187 7.4751L15.6406 8.94861C15.5752 9.1499 15.686 9.36475 15.8813 9.4458C16.0669 9.52246 16.2461 9.61023 16.4189 9.70801C16.5107 9.75989 16.6187 9.77612 16.7202 9.7489L17.0376 9.66382C17.1226 9.64099 17.1973 9.58972 17.249 9.51855L18.0249 8.44958C18.1494 8.2782 18.3896 8.23914 18.5547 8.37244C18.9453 8.68896 19.3027 9.04602 19.6191 9.43701C19.7524 9.60168 19.7134 9.84216 19.542 9.96655L18.2881 10.8768C18.1167 11.0011 17.8784 10.9622 17.7407 10.8013C17.6167 10.6558 17.4839 10.5176 17.3438 10.3873C17.251 10.3013 17.1196 10.2725 16.9976 10.3052L16.7354 10.3755C16.6504 10.3982 16.5757 10.4493 16.5244 10.5205L15.5254 11.8949C15.4277 12.0294 15.2544 12.0857 15.0962 12.0342L14.2661 11.7638C14.1079 11.7124 14.001 11.5652 14.001 11.399ZM11.5347 13.196L7.48486 11.8801C7.28369 11.8147 7.17236 11.5977 7.24805 11.3999C7.43164 10.9226 7.66113 10.4746 7.92969 10.0603C8.04492 9.88245 8.28564 9.84509 8.45703 9.9696L9.71094 10.8798C9.88232 11.004 10.1206 10.9652 10.2583 10.8043C10.3887 10.6516 10.5273 10.5079 10.6743 10.3737C10.7515 10.3027 10.8003 10.2051 10.8062 10.1001L10.8232 9.77209C10.8276 9.68433 10.8022 9.59766 10.7505 9.52637L9.97266 8.45703C9.84814 8.28577 9.88525 8.04492 10.063 7.92957C10.4849 7.6554 10.9346 7.42627 11.4043 7.24609C11.6021 7.17029 11.8188 7.28162 11.8843 7.48303L12.3623 8.95691C12.4277 9.1582 12.3169 9.37292 12.1216 9.45398C11.9448 9.52722 11.7729 9.61035 11.606 9.70325C11.4956 9.76477 11.4272 9.88074 11.4209 10.0071L11.4067 10.2798C11.4019 10.3676 11.4277 10.4543 11.4795 10.5254L12.4775 11.8995C12.5752 12.0341 12.5752 12.2163 12.4775 12.3508L11.9639 13.0568C11.8662 13.1912 11.6929 13.2473 11.5347 13.196ZM20.52 11.8792L16.4702 13.1951C16.312 13.2463 16.2051 13.3936 16.2051 13.5598L16.2046 14.4329C16.2041 14.5991 16.3115 14.7466 16.4697 14.798L18.0845 15.3228C18.168 15.35 18.2397 15.405 18.2876 15.4788L18.4365 15.7076C18.5054 15.8137 18.5186 15.9474 18.4653 16.0623C18.3848 16.2356 18.2944 16.4043 18.1943 16.5671C18.084 16.7477 18.1206 16.9865 18.292 17.111L19.5449 18.0222C19.7163 18.1469 19.957 18.1096 20.0723 17.932C20.3467 17.51 20.5757 17.0602 20.7559 16.5905C20.832 16.3927 20.7202 16.176 20.519 16.1106L19.2617 15.7029C19.1777 15.6757 19.106 15.6206 19.0581 15.5469L18.8794 15.2715C18.8223 15.1833 18.8042 15.0757 18.8252 14.9727C18.8652 14.7777 18.8931 14.5797 18.9087 14.3795C18.9253 14.1686 19.0957 13.9969 19.3071 13.9968L20.8564 13.9963C21.0684 13.9962 21.2412 13.8243 21.2295 13.6129C21.2036 13.1198 21.126 12.6224 20.9937 12.1284C20.939 11.9237 20.7212 11.8136 20.52 11.8792ZM14.001 12.9038C13.3994 12.9038 12.9116 13.3916 12.9116 13.9933C12.9116 14.5948 13.3994 15.0826 14.001 15.0826C14.603 15.0826 15.0903 14.5948 15.0903 13.9933C15.0903 13.3916 14.603 12.9038 14.001 12.9038ZM9.97559 19.5355L12.4785 16.0906C12.5762 15.9562 12.5762 15.7742 12.4785 15.6396L11.9658 14.9331C11.8682 14.7985 11.6948 14.7421 11.5366 14.7935L9.9209 15.3184C9.83691 15.3456 9.74658 15.3431 9.66455 15.3116L9.41162 15.2145C9.29346 15.1692 9.2041 15.0687 9.17969 14.9447C9.14307 14.7568 9.1167 14.567 9.10156 14.3761C9.08496 14.1652 8.91504 13.9935 8.70361 13.9934L7.15381 13.9928C6.94189 13.9927 6.76904 14.1643 6.78027 14.3759C6.80664 14.8783 6.88574 15.3768 7.01562 15.8628C7.0708 16.0675 7.28809 16.1772 7.48975 16.1117L8.74561 15.703C8.8291 15.6758 8.91943 15.6782 9.00146 15.7097L9.30908 15.8276C9.40723 15.8652 9.48486 15.9419 9.52832 16.0376C9.61084 16.2183 9.70459 16.3948 9.80908 16.5657C9.91992 16.7462 9.8833 16.9851 9.71191 17.1095L8.45898 18.0205C8.2876 18.1451 8.24854 18.3857 8.38232 18.5503C8.69336 18.9337 9.04834 19.2906 9.4458 19.6124C9.61035 19.7458 9.85107 19.707 9.97559 19.5355ZM15.5254 16.1029L18.0283 19.5479C18.1528 19.7192 18.1152 19.9602 17.9375 20.0756C17.5088 20.354 17.0596 20.5814 16.5986 20.7587C16.4009 20.8347 16.1841 20.7236 16.1187 20.5221L15.6396 19.049C15.5742 18.8477 15.3584 18.739 15.1523 18.7883C14.9575 18.8351 14.7603 18.8698 14.563 18.8922C14.4585 18.9041 14.3618 18.9543 14.2954 19.0359L14.0894 19.2908C14.0337 19.3591 14.0034 19.4446 14.0039 19.5325L14.0044 20.8541C14.0044 21.0659 13.8325 21.2388 13.6211 21.2278C13.1187 21.2014 12.6201 21.1226 12.1343 20.9922C11.9297 20.9374 11.8198 20.7198 11.8853 20.5184L12.3647 19.045C12.4302 18.8439 12.646 18.7351 12.8516 18.7845C13.0376 18.8291 13.2261 18.8629 13.416 18.8859C13.5415 18.901 13.6646 18.8472 13.7441 18.7489L13.915 18.5377C13.9707 18.4695 14.0005 18.3843 14.0005 18.2963L14.001 16.5977C14.001 16.4314 14.1079 16.2841 14.2661 16.2328L15.0967 15.9635C15.2549 15.9121 15.4277 15.9685 15.5254 16.1029Z" fill="rgb(255,254.745,254.745)" fill-rule="evenodd" />
</svg>
