<svg viewBox="0 0 28 28" xmlns="http://www.w3.org/2000/svg" xmlns:xlink="http://www.w3.org/1999/xlink" width="28.000000" height="28.000000" fill="none">
	<rect id="28 / Logo / Yarmarka" width="28.000000" height="28.000000" x="0.000000" y="0.000000" />
	<path id="Vector 12546" d="M25.665 13.6355C25.665 8.30835 25.665 5.64502 24.0103 3.98999C22.355 2.33508 19.6919 2.33508 14.3647 2.33508L13.6353 2.33508C8.30811 2.33508 5.64502 2.33508 3.99023 3.98999C2.33496 5.64502 2.33496 8.30835 2.33496 13.6355L2.33496 14.3647C2.33496 19.6919 2.33496 22.3551 3.99023 24.0101C5.64502 25.665 8.30859 25.665 13.6353 25.665L14.3647 25.665C19.6919 25.665 22.355 25.665 24.0103 24.0101C25.665 22.3551 25.665 19.6913 25.665 14.3647L25.665 13.6355Z" fill="rgb(0,85,255)" fill-rule="evenodd" />
	<path id="Vector 12546" d="M12.2451 7.59998L12.2451 9.76526L14 11.5198L15.7539 9.76526L15.7539 7.59998C15.7539 7.2439 15.4653 6.95496 15.1084 6.95496L12.8901 6.95496C12.5342 6.95496 12.2451 7.2439 12.2451 7.59998Z" fill="rgb(0,85,255)" fill-rule="evenodd" />
	<path id="Vector 12546" d="M12.2451 7.59998L12.2451 9.76526L14 11.5198L15.7539 9.76526L15.7539 7.59998C15.7539 7.2439 15.4653 6.95496 15.1084 6.95496L12.8901 6.95496C12.5342 6.95496 12.2451 7.2439 12.2451 7.59998Z" fill="rgb(255,255,255)" fill-rule="evenodd" />
	<path id="Vector 12546" d="M12.2451 9.76526L10.7144 8.23438C10.4624 7.9823 10.0547 7.9823 9.80273 8.23438L8.2334 9.80273C7.98145 10.0548 7.98145 10.4634 8.2334 10.7155L9.76367 12.2455L12.2451 12.2455L12.2451 9.76526Z" fill="rgb(0,85,255)" fill-rule="evenodd" />
	<path id="Vector 12546" d="M12.2451 9.76526L10.7144 8.23438C10.4624 7.9823 10.0547 7.9823 9.80273 8.23438L8.2334 9.80273C7.98145 10.0548 7.98145 10.4634 8.2334 10.7155L9.76367 12.2455L12.2451 12.2455L12.2451 9.76526Z" fill="rgb(255,255,255)" fill-rule="evenodd" />
	<path id="Vector 12546" d="M17.2847 8.23438L15.7539 9.76526L15.7539 12.2455L18.2354 12.2455L19.7656 10.7155C20.0176 10.4634 20.0176 10.0548 19.7656 9.80273L18.1973 8.23438C17.9453 7.9823 17.5366 7.9823 17.2847 8.23438Z" fill="rgb(0,85,255)" fill-rule="evenodd" />
	<path id="Vector 12546" d="M17.2847 8.23438L15.7539 9.76526L15.7539 12.2455L18.2354 12.2455L19.7656 10.7155C20.0176 10.4634 20.0176 10.0548 19.7656 9.80273L18.1973 8.23438C17.9453 7.9823 17.5366 7.9823 17.2847 8.23438Z" fill="rgb(255,255,255)" fill-rule="evenodd" />
	<path id="Vector 12546" d="M19.7656 17.2854L18.2349 15.7546L15.7539 15.7546L15.7539 18.2356L17.2847 19.7664C17.5366 20.0178 17.9453 20.0178 18.1963 19.7664L19.7656 18.1974C20.0176 17.9453 20.0176 17.5367 19.7656 17.2854Z" fill="rgb(0,85,255)" fill-rule="evenodd" />
	<path id="Vector 12546" d="M19.7656 17.2854L18.2349 15.7546L15.7539 15.7546L15.7539 18.2356L17.2847 19.7664C17.5366 20.0178 17.9453 20.0178 18.1963 19.7664L19.7656 18.1974C20.0176 17.9453 20.0176 17.5367 19.7656 17.2854Z" fill="rgb(255,255,255)" fill-rule="evenodd" />
	<path id="Vector 12546" d="M12.2451 18.2363L12.2451 20.4001C12.2451 20.7562 12.5342 21.0452 12.8901 21.0452L15.1084 21.0452C15.4653 21.0452 15.7539 20.7562 15.7539 20.4001L15.7539 18.2356L14 16.4818L12.2451 18.2363Z" fill="rgb(0,85,255)" fill-rule="evenodd" />
	<path id="Vector 12546" d="M12.2451 18.2363L12.2451 20.4001C12.2451 20.7562 12.5342 21.0452 12.8901 21.0452L15.1084 21.0452C15.4653 21.0452 15.7539 20.7562 15.7539 20.4001L15.7539 18.2356L14 16.4818L12.2451 18.2363Z" fill="rgb(255,255,255)" fill-rule="evenodd" />
	<path id="Vector 12546" d="M9.76514 15.7546L12.2451 15.7546L12.2451 18.2363L10.7153 19.7664C10.4629 20.0178 10.0547 20.0178 9.80273 19.7664L8.23438 18.1974C7.98193 17.9453 7.98193 17.5367 8.23438 17.2854L9.76514 15.7546Z" fill="rgb(0,85,255)" fill-rule="evenodd" />
	<path id="Vector 12546" d="M9.76514 15.7546L12.2451 15.7546L12.2451 18.2363L10.7153 19.7664C10.4629 20.0178 10.0547 20.0178 9.80273 19.7664L8.23438 18.1974C7.98193 17.9453 7.98193 17.5367 8.23438 17.2854L9.76514 15.7546Z" fill="rgb(255,255,255)" fill-rule="evenodd" />
	<path id="Vector 12546" d="M9.76514 15.7546L7.59961 15.7546C7.24365 15.7546 6.95459 15.4657 6.95459 15.1096L6.95459 12.8905C6.95459 12.5344 7.24365 12.2455 7.59961 12.2455L9.76367 12.2455L11.519 14.0007L9.76514 15.7546Z" fill="rgb(0,85,255)" fill-rule="evenodd" />
	<path id="Vector 12546" d="M9.76514 15.7546L7.59961 15.7546C7.24365 15.7546 6.95459 15.4657 6.95459 15.1096L6.95459 12.8905C6.95459 12.5344 7.24365 12.2455 7.59961 12.2455L9.76367 12.2455L11.519 14.0007L9.76514 15.7546Z" fill="rgb(255,255,255)" fill-rule="evenodd" />
	<path id="Vector 12546" d="M20.3999 15.7546L18.2349 15.7546L16.481 14.0007L18.2354 12.2455L20.3999 12.2455C20.7559 12.2455 21.0449 12.5344 21.0449 12.8905L21.0449 15.1096C21.0449 15.4657 20.7559 15.7546 20.3999 15.7546Z" fill="rgb(0,85,255)" fill-rule="evenodd" />
	<path id="Vector 12546" d="M20.3999 15.7546L18.2349 15.7546L16.481 14.0007L18.2354 12.2455L20.3999 12.2455C20.7559 12.2455 21.0449 12.5344 21.0449 12.8905L21.0449 15.1096C21.0449 15.4657 20.7559 15.7546 20.3999 15.7546Z" fill="rgb(255,255,255)" fill-rule="evenodd" />
</svg>
