<svg viewBox="0 0 28 28" xmlns="http://www.w3.org/2000/svg" xmlns:xlink="http://www.w3.org/1999/xlink" width="28.000000" height="28.000000" fill="none">
	<rect id="28 / Logo / Teremok Mono" width="28.000000" height="28.000000" x="0.000000" y="0.000000" />
	<path id="Vector 12526" d="M2.33496 13.6355C2.33496 8.30847 2.33496 5.6449 3.98975 3.99011C5.64453 2.33508 8.30811 2.33508 13.6353 2.33508L14.3643 2.33508C19.6914 2.33508 22.355 2.33508 24.0103 3.99011C25.665 5.6449 25.665 8.30847 25.665 13.6355L25.665 14.3646C25.665 19.6918 25.665 22.3552 24.0103 24.0103C22.355 25.665 19.6914 25.665 14.3643 25.665L13.6353 25.665C8.30811 25.665 5.64453 25.665 3.98975 24.0103C2.33496 22.3552 2.33496 19.6918 2.33496 14.3646L2.33496 13.6355Z" fill="rgb(22,25,27)" fill-rule="evenodd" />
	<path id="Vector 12526" d="M15.5039 7.24097L13.0391 7.24097C12.7764 7.24097 12.6348 7.55017 12.8071 7.74902L18.6777 14.5221C18.8501 14.7208 18.709 15.0302 18.4458 15.0302L17.1382 15.0302C17.0005 15.0302 16.8794 15.1216 16.8423 15.2542L15.9409 18.4659C15.9038 18.5984 15.7832 18.6899 15.6455 18.6899L12.3784 18.6899C12.2407 18.6899 12.1201 18.5984 12.083 18.4659L11.1792 15.2454C11.1416 15.1129 11.021 15.0214 10.8833 15.0214L9.58154 15.0214C9.31689 15.0214 9.17627 14.7094 9.35156 14.5111L13.0366 10.3403C13.1367 10.2266 13.1392 10.0564 13.0415 9.93994L11.7012 8.34058C11.5796 8.19543 11.3569 8.19397 11.2334 8.3374L5.72607 14.7333C5.55469 14.9323 5.69629 15.2406 5.95898 15.2406L8.07422 15.2406C8.21191 15.2406 8.33252 15.332 8.36963 15.4646L9.78955 20.5229C9.82666 20.6554 9.94727 20.7469 10.085 20.7469L11.7959 20.7469L16.1836 20.7573L17.9365 20.7559C18.0737 20.7559 18.1948 20.6643 18.2319 20.5319L19.6553 15.4608C19.6924 15.3284 19.8135 15.2368 19.9507 15.2368L22.041 15.2368C22.3042 15.2368 22.4458 14.9276 22.2734 14.7289L15.9678 7.45288C15.8516 7.31836 15.6821 7.24097 15.5039 7.24097Z" fill="rgb(22,25,27)" fill-rule="evenodd" />
	<path id="Vector 12526" d="M15.5039 7.24097L13.0391 7.24097C12.7764 7.24097 12.6348 7.55017 12.8071 7.74902L18.6777 14.5221C18.8501 14.7208 18.709 15.0302 18.4458 15.0302L17.1382 15.0302C17.0005 15.0302 16.8794 15.1216 16.8423 15.2542L15.9409 18.4659C15.9038 18.5984 15.7832 18.6899 15.6455 18.6899L12.3784 18.6899C12.2407 18.6899 12.1201 18.5984 12.083 18.4659L11.1792 15.2454C11.1416 15.1129 11.021 15.0214 10.8833 15.0214L9.58154 15.0214C9.31689 15.0214 9.17627 14.7094 9.35156 14.5111L13.0366 10.3403C13.1367 10.2266 13.1392 10.0564 13.0415 9.93994L11.7012 8.34058C11.5796 8.19543 11.3569 8.19397 11.2334 8.3374L5.72607 14.7333C5.55469 14.9323 5.69629 15.2406 5.95898 15.2406L8.07422 15.2406C8.21191 15.2406 8.33252 15.332 8.36963 15.4646L9.78955 20.5229C9.82666 20.6554 9.94727 20.7469 10.085 20.7469L11.7959 20.7469L16.1836 20.7573L17.9365 20.7559C18.0737 20.7559 18.1948 20.6643 18.2319 20.5319L19.6553 15.4608C19.6924 15.3284 19.8135 15.2368 19.9507 15.2368L22.041 15.2368C22.3042 15.2368 22.4458 14.9276 22.2734 14.7289L15.9678 7.45288C15.8516 7.31836 15.6821 7.24097 15.5039 7.24097Z" fill="rgb(255,255,255)" fill-rule="evenodd" />
</svg>
