<svg viewBox="0 0 28 28" xmlns="http://www.w3.org/2000/svg" xmlns:xlink="http://www.w3.org/1999/xlink" width="28.000000" height="28.000000" fill="none">
	<rect id="28 / Logo / Strelka Mono" width="28.000000" height="28.000000" x="0.000000" y="0.000000" />
	<path id="Vector 12530" d="M3.99023 3.98999C2.33496 5.64246 2.33496 8.3075 2.33496 13.635L2.33496 14.365C2.33496 19.6925 2.33496 22.355 3.99023 24.01C5.64551 25.6649 8.30811 25.6649 13.6357 25.6649L14.3662 25.6649C19.6943 25.6649 22.3564 25.6649 24.0098 24.01C25.665 22.355 25.665 19.6925 25.665 14.365L25.665 13.635C25.665 8.3075 25.665 5.64246 24.0098 3.98743C22.3564 2.33496 19.6943 2.33496 14.3638 2.33496L13.6357 2.33496C8.31104 2.33496 5.64307 2.33496 3.99023 3.98999Z" fill="rgb(22,25,27)" fill-rule="evenodd" />
	<path id="Vector 12530" d="M20.8389 12.4811L20.8389 7.48999L15.8477 7.48987L15.8477 10.2527L18.0762 10.2527L18.0762 12.4811L20.8389 12.4811ZM11.2676 7.99695C12.0825 7.6593 12.9678 7.49048 13.9224 7.49048L13.9224 10.2532C13.3491 10.2532 12.8174 10.3546 12.3281 10.5574C11.8389 10.7601 11.3911 11.0642 10.9858 11.4697C10.5801 11.8752 10.2759 12.3228 10.0732 12.8123C9.87061 13.3018 9.76904 13.8333 9.76904 14.4066C9.76904 14.9801 9.87061 15.5116 10.0732 16.0012C10.2759 16.4907 10.5801 16.9382 10.9858 17.3438C11.3911 17.7491 11.8389 18.0533 12.3281 18.2561C12.8174 18.4589 13.3491 18.5603 13.9224 18.5603C14.4961 18.5603 15.0273 18.4589 15.5171 18.2561C16.0063 18.0533 16.4541 17.7493 16.8594 17.3438C17.2651 16.9382 17.5693 16.4907 17.772 16.0012C17.9746 15.5116 18.0762 14.9803 18.0762 14.4069L20.8389 14.4069C20.8389 15.3617 20.6699 16.2467 20.3325 17.0618C19.9946 17.877 19.4883 18.6221 18.813 19.2972C18.1377 19.9725 17.3926 20.479 16.5776 20.8165C15.7627 21.1543 14.8774 21.323 13.9224 21.323C12.9678 21.323 12.0825 21.1542 11.2676 20.8165C10.4526 20.4789 9.70752 19.9724 9.03223 19.2972C8.35693 18.6221 7.85059 17.877 7.5127 17.0618C7.17529 16.2468 7.00635 15.3617 7.00635 14.4069C7.00635 12.4969 7.68164 10.8667 9.03223 9.51624C9.70752 8.84106 10.4526 8.33459 11.2676 7.99695Z" fill="rgb(22,25,27)" fill-rule="evenodd" />
	<path id="Vector 12530" d="M20.8389 12.4811L20.8389 7.48999L15.8477 7.48987L15.8477 10.2527L18.0762 10.2527L18.0762 12.4811L20.8389 12.4811ZM11.2676 7.99695C12.0825 7.6593 12.9678 7.49048 13.9224 7.49048L13.9224 10.2532C13.3491 10.2532 12.8174 10.3546 12.3281 10.5574C11.8389 10.7601 11.3911 11.0642 10.9858 11.4697C10.5801 11.8752 10.2759 12.3228 10.0732 12.8123C9.87061 13.3018 9.76904 13.8333 9.76904 14.4066C9.76904 14.9801 9.87061 15.5116 10.0732 16.0012C10.2759 16.4907 10.5801 16.9382 10.9858 17.3438C11.3911 17.7491 11.8389 18.0533 12.3281 18.2561C12.8174 18.4589 13.3491 18.5603 13.9224 18.5603C14.4961 18.5603 15.0273 18.4589 15.5171 18.2561C16.0063 18.0533 16.4541 17.7493 16.8594 17.3438C17.2651 16.9382 17.5693 16.4907 17.772 16.0012C17.9746 15.5116 18.0762 14.9803 18.0762 14.4069L20.8389 14.4069C20.8389 15.3617 20.6699 16.2467 20.3325 17.0618C19.9946 17.877 19.4883 18.6221 18.813 19.2972C18.1377 19.9725 17.3926 20.479 16.5776 20.8165C15.7627 21.1543 14.8774 21.323 13.9224 21.323C12.9678 21.323 12.0825 21.1542 11.2676 20.8165C10.4526 20.4789 9.70752 19.9724 9.03223 19.2972C8.35693 18.6221 7.85059 17.877 7.5127 17.0618C7.17529 16.2468 7.00635 15.3617 7.00635 14.4069C7.00635 12.4969 7.68164 10.8667 9.03223 9.51624C9.70752 8.84106 10.4526 8.33459 11.2676 7.99695Z" fill="rgb(255,254.745,254.745)" fill-rule="evenodd" />
</svg>
