<svg viewBox="0 0 28 28" xmlns="http://www.w3.org/2000/svg" xmlns:xlink="http://www.w3.org/1999/xlink" width="28.000000" height="28.000000" fill="none" customFrame="#000000">
	<rect id="28 / Lukit / Yarmarka" width="28.000000" height="28.000000" x="0.000000" y="0.000000" />
	<path id="Avatar" d="M16.9887 6.78669L16.9887 3.09861C16.9887 2.49197 16.4966 1.99991 15.89 1.99991L12.1114 1.99991C11.5036 1.99991 11.0127 2.49197 11.0127 3.09861L11.0127 6.78669L8.40526 4.17921C7.97592 3.74987 7.28004 3.74987 6.85068 4.17921L4.1793 6.85059C3.74996 7.27995 3.74996 7.97583 4.1793 8.40519L6.78556 11.0114L11.0127 11.0114L11.0127 6.78669L14.0001 9.77525L16.9887 6.78669ZM16.9887 6.78669L19.5961 4.17921C20.0255 3.74987 20.7201 3.74987 21.1495 4.17921L23.8221 6.85059C24.2514 7.27995 24.2514 7.97583 23.8221 8.40519L21.2158 11.0114L16.9886 11.0114L16.9887 6.78669ZM6.78676 16.9886L3.0987 16.9886C2.49206 16.9886 2 16.4965 2 15.8899L2 12.1102C2 11.5035 2.49206 11.0115 3.0987 11.0115L6.78556 11.0114L9.77412 14.0012L6.78676 16.9886ZM6.78676 16.9886L11.0127 16.9886L11.0127 21.2145L8.40526 23.822C7.97592 24.2501 7.28004 24.2501 6.85188 23.822L4.1793 21.1494C3.74996 20.72 3.74996 20.0242 4.1793 19.596L6.78676 16.9886ZM24.9015 16.9886L21.2134 16.9886L18.2261 14.0012L21.2158 11.0114L24.9015 11.0115C25.5081 11.0115 26.0002 11.5035 26.0002 12.1102L26.0002 15.8899C26.0002 16.4965 25.5081 16.9886 24.9015 16.9886ZM16.9886 21.2157L19.5949 23.822C20.0242 24.2501 20.7201 24.2501 21.1495 23.822L23.8209 21.1494C24.2502 20.72 24.2502 20.0242 23.8209 19.596L21.2134 16.9886L16.9886 16.9886L16.9886 21.2157ZM16.9886 21.2157L16.9887 24.9014C16.9887 25.508 16.4966 26.0001 15.89 26.0001L12.1114 26.0001C11.5036 26.0001 11.0127 25.508 11.0127 24.9014L11.0127 21.2145L14.0001 18.2272L16.9886 21.2157Z" fill="rgb(14,17,23)" fill-rule="evenodd" />
</svg>
