<svg viewBox="0 0 28 28" xmlns="http://www.w3.org/2000/svg" xmlns:xlink="http://www.w3.org/1999/xlink" width="28.000000" height="28.000000" fill="none">
	<rect id="28 / Lukit / Kokoshnik 2" width="28.000000" height="28.000000" x="0.000000" y="0.000000" />
	<path id="Vector 12446" d="M23.8494 12.155C22.2994 7.70502 17.3594 4.71503 13.9894 2.02502C10.6194 4.71502 5.67936 7.70502 4.12936 12.155C1.10936 20.815 8.34936 25.975 8.34936 25.975L8.54936 25.975C7.84936 24.125 7.43936 22.215 7.43936 20.865C7.43936 17.245 10.3794 14.305 13.9994 14.305C17.6194 14.305 20.5594 17.245 20.5594 20.865C20.5594 22.215 20.1494 24.125 19.4494 25.975L19.6494 25.975C19.6494 25.975 26.8894 20.825 23.8694 12.155L23.8494 12.155Z" fill="rgb(14,17,23)" fill-rule="nonzero" />
</svg>
