<svg viewBox="0 0 28 28" xmlns="http://www.w3.org/2000/svg" xmlns:xlink="http://www.w3.org/1999/xlink" width="28.000000" height="28.000000" fill="none" customFrame="#000000">
	<rect id="28 / Lukit / Zabava" width="28.000000" height="28.000000" x="0.000000" y="0.000000" />
	<path id="Avatar" d="M21.0109 12.7359C20.1252 8.32499 16.2793 2.13148 12.1391 2.77941C7.33576 3.53166 4.06616 7.68377 4.583 8.45276C4.99182 9.06106 7.6445 8.29019 8.73495 7.94158C8.91939 7.88262 9.09409 8.06502 9.02409 8.24559L7.30196 12.6878C4.10362 13.1635 2 13.9704 2 14.8857C2 16.3485 7.3726 17.5343 14 17.5343C16.1126 17.5343 18.0977 17.4138 19.8219 17.2022C20.0517 17.1741 20.1724 17.4612 19.9815 17.5924C18.9786 18.2816 17.9715 18.6663 16.3887 18.7403C16.5401 19.0603 16.6308 19.4678 16.6308 19.9117C16.6308 20.9403 16.1436 21.7741 15.5427 21.7741C14.9418 21.7741 14.4547 20.9403 14.4547 19.9117C14.4547 19.4574 14.5497 19.0411 14.7075 18.7179C14.124 18.6824 13.4763 18.6203 12.7502 18.5315C12.9697 18.8722 13.1076 19.3643 13.1076 19.9117C13.1076 20.9403 12.6205 21.7741 12.0196 21.7741C11.4187 21.7741 10.9315 20.9403 10.9315 19.9117C10.9315 19.2963 11.1059 18.7506 11.3747 18.4114C9.93519 18.372 8.86584 18.6441 8.07117 19.0165C6.8525 19.5876 6.73294 21.1842 7.53899 22.2619C8.90615 24.09 11.0526 25.2676 13.4655 25.2676C17.5947 25.2676 20.9414 21.8198 20.9414 17.5666C20.9414 17.3929 20.9358 17.2203 20.9246 17.0491C23.9954 16.5694 26 15.7792 26 14.8857C26 14.0006 24.0328 13.2168 21.0109 12.7359Z" fill="rgb(14,17,23)" fill-rule="evenodd" />
</svg>
