<svg viewBox="0 0 28 28" xmlns="http://www.w3.org/2000/svg" xmlns:xlink="http://www.w3.org/1999/xlink" width="28.000000" height="28.000000" fill="none" customFrame="#000000">
	<rect id="28 / Lukit / Strelka" width="28.000000" height="28.000000" x="0.000000" y="0.000000" />
	<path id="Avatar" d="M25 10.9379L24.9999 3.00024L17.0619 3L17.0618 7.39385L20.606 7.39385L20.606 10.9379L25 10.9379ZM9.7772 3.80644C11.0735 3.26937 12.481 3.00095 13.9997 3.00095L13.9997 7.3948C13.0877 7.3948 12.2425 7.55603 11.464 7.87848C10.6855 8.20093 9.97373 8.68461 9.32879 9.32951C8.68386 9.97441 8.20017 10.6861 7.8777 11.4647C7.55524 12.2431 7.39401 13.0883 7.39401 14.0004C7.39401 14.9124 7.55525 15.7577 7.8777 16.5363C8.20017 17.3148 8.68387 18.0265 9.32882 18.6714C9.97375 19.3163 10.6855 19.7999 11.464 20.1225C12.2424 20.4449 13.0878 20.6061 13.9998 20.6061C14.9119 20.6061 15.7572 20.4449 16.5357 20.1225C17.3142 19.8 18.0259 19.3163 18.6709 18.6714C19.3158 18.0265 19.7995 17.3148 20.122 16.5363C20.4444 15.7577 20.6057 14.9126 20.6057 14.0006L24.9997 14.0006C24.9997 15.5192 24.7312 16.9267 24.1942 18.223C23.6573 19.5194 22.8518 20.7044 21.7779 21.7783C20.704 22.8522 19.5188 23.6577 18.2225 24.1945C16.9262 24.7316 15.5186 25 13.9998 25C12.4811 25 11.0735 24.7315 9.7772 24.1945C8.48085 23.6575 7.29571 22.8521 6.22179 21.7783C5.14786 20.7044 4.34241 19.5194 3.80543 18.223C3.26852 16.9269 3 15.5192 3 14.0006C3 10.9631 4.07392 8.3705 6.22173 6.22268C7.29567 5.14885 8.48083 4.34344 9.7772 3.80644Z" fill="rgb(14,17,23)" fill-rule="evenodd" />
</svg>
