<svg viewBox="0 0 28 28" xmlns="http://www.w3.org/2000/svg" xmlns:xlink="http://www.w3.org/1999/xlink" width="28.000000" height="28.000000" fill="none" customFrame="#000000">
	<rect id="28 / Lukit / Akola" width="28.000000" height="28.000000" x="0.000000" y="0.000000" />
	<path id="Avatar" d="M10.9889 6.90736L9.79731 6.90736C8.68727 6.90736 7.81495 6.04673 7.81495 4.95151C7.81495 3.85629 8.68727 2.99567 9.79731 2.99567L21.4794 2.99567C22.5894 2.99567 23.4617 3.85629 23.4617 4.95151C23.4617 6.04673 22.5894 6.90736 21.4794 6.90736L17.0048 6.90736L16.9868 6.8759C15.6741 4.56277 12.3196 4.56277 11.0069 6.8759L10.9889 6.90736ZM10.6418 7.51991L8.42391 11.4316L3.97202 11.4316C2.86782 11.4316 2 10.571 2 9.47575C2 8.38053 2.86782 7.51991 3.97202 7.51991L10.6418 7.51991ZM19.8165 11.4316L19.5698 11.4316L17.3519 7.51991L19.8165 7.51991C20.9207 7.51991 21.7886 8.38053 21.7886 9.47575C21.7886 10.571 20.9207 11.4316 19.8165 11.4316ZM8.07651 12.0441L5.87439 15.928C4.9459 15.772 4.25785 14.9802 4.25785 14C4.25785 12.9048 5.11735 12.0441 6.211 12.0441L8.07651 12.0441ZM22.135 15.9558L19.9172 12.0441L22.5543 12.0441C23.648 12.0441 24.5075 12.9048 24.5075 14C24.5075 15.0952 23.648 15.9558 22.5543 15.9558L22.135 15.9558ZM11.9925 20.4801L3.9727 20.4801C2.86804 20.4801 2 19.6195 2 18.5242C2 17.429 2.86804 16.5684 3.9727 16.5684L11.9925 16.5684C13.0971 16.5684 13.9652 17.429 13.9652 18.5242C13.9652 19.6195 13.0971 20.4801 11.9925 20.4801ZM23.0305 17.536L22.482 16.5684L24.0311 16.5684C25.1335 16.5684 26 17.429 26 18.5242C26 19.6195 25.1335 20.4801 24.0311 20.4801L23.224 20.4801C23.3876 20.0792 23.4759 19.6464 23.4759 19.2042C23.4759 18.6478 23.3361 18.0766 23.0305 17.536ZM13.6802 22.6098L19.7132 22.6098C19.7446 22.7505 19.7612 22.897 19.7612 23.0485C19.7612 24.1437 18.8925 25.0043 17.7868 25.0043L15.6067 25.0043C14.5009 25.0043 13.6322 24.1437 13.6322 23.0485C13.6322 22.897 13.6488 22.7505 13.6802 22.6098Z" fill="rgb(14,17,23)" fill-rule="evenodd" />
</svg>
