<svg viewBox="0 0 28 28" xmlns="http://www.w3.org/2000/svg" xmlns:xlink="http://www.w3.org/1999/xlink" width="28.000000" height="28.000000" fill="none" customFrame="#000000">
	<rect id="28 / Lukit / Sirin" width="28.000000" height="28.000000" x="0.000000" y="0.000000" />
	<path id="Avatar" d="M13.9936 9.68423L13.9936 2.61209C13.9936 2.2602 14.2791 1.97312 14.6306 1.99155C15.4787 2.03613 16.3042 2.16906 17.0964 2.38062C17.4364 2.47143 17.6191 2.83254 17.5106 3.16716L16.7162 5.61448C16.6076 5.94877 16.7916 6.3056 17.1164 6.44018C17.4241 6.56767 17.7223 6.71327 18.0095 6.87581C18.1615 6.96185 18.3405 6.98883 18.5092 6.94375L19.0369 6.80227C19.1781 6.76443 19.302 6.67921 19.3878 6.56109L20.6765 4.78566C20.8831 4.50105 21.2826 4.43623 21.556 4.65766C22.2054 5.18329 22.7983 5.7762 23.3241 6.4257C23.5454 6.69912 23.4807 7.09856 23.196 7.30519L21.1133 8.81691C20.8289 9.02338 20.4329 8.95872 20.2046 8.69155C19.998 8.44988 19.7777 8.22022 19.5448 8.00405C19.3909 7.86108 19.173 7.81321 18.9701 7.8675L18.5345 7.98431C18.3935 8.02198 18.2697 8.10703 18.1839 8.22515L16.5253 10.5078C16.3629 10.7312 16.0751 10.8246 15.8125 10.7391L14.4336 10.2901C14.1712 10.2048 13.9936 9.96012 13.9936 9.68423ZM9.89751 12.6689L3.17134 10.4833C2.83664 10.3745 2.65181 10.0142 2.77799 9.68571C3.0825 8.89292 3.46401 8.14898 3.91001 7.46082C4.10142 7.16552 4.50136 7.10333 4.78605 7.31013L6.86814 8.82185C7.15259 9.02831 7.54874 8.96366 7.77717 8.69649C7.99367 8.44297 8.2244 8.20426 8.46788 7.98135C8.59661 7.86339 8.67772 7.70134 8.68685 7.52696L8.71539 6.98225C8.72304 6.83649 8.68035 6.69238 8.59439 6.57409L7.30279 4.79799C7.09583 4.51355 7.15777 4.11362 7.45274 3.92196C8.15349 3.46674 8.90055 3.08622 9.68076 2.78681C10.0092 2.66095 10.369 2.84587 10.4776 3.18049L11.2718 5.6283C11.3802 5.96259 11.1963 6.31926 10.8717 6.45383C10.5786 6.57541 10.2927 6.7136 10.0155 6.86791C9.83195 6.97008 9.71909 7.16256 9.70807 7.37248L9.6843 7.82539C9.67665 7.97115 9.71934 8.11526 9.80513 8.23338L11.463 10.5155C11.6253 10.7389 11.6252 11.0416 11.4628 11.2651L10.6098 12.4375C10.4475 12.6608 10.1599 12.7541 9.89751 12.6689ZM24.8201 10.4816L18.094 12.6672C17.8315 12.7524 17.6538 12.9969 17.6536 13.2729L17.6528 14.723C17.6527 14.9992 17.8305 15.244 18.0932 15.3294L20.7754 16.201C20.9142 16.2462 21.0334 16.3375 21.1129 16.4601L21.3598 16.8403C21.4742 17.0165 21.496 17.2384 21.4076 17.4291C21.274 17.717 21.1239 17.9971 20.958 18.2678C20.7745 18.5675 20.8355 18.9642 21.1197 19.1709L23.201 20.6843C23.4855 20.8913 23.8853 20.8294 24.077 20.5344C24.5322 19.8336 24.9129 19.0866 25.2122 18.3064C25.3383 17.9781 25.1532 17.6181 24.8186 17.5095L22.7304 16.8322C22.5914 16.7871 22.4722 16.6957 22.3926 16.5731L22.0957 16.1158C22.0006 15.9693 21.971 15.7907 22.0058 15.6196C22.0717 15.2958 22.1181 14.967 22.1444 14.6345C22.172 14.2841 22.4545 13.9989 22.806 13.9988L25.379 13.998C25.7309 13.9978 26.0178 13.7124 25.9991 13.3611C25.9555 12.5422 25.8268 11.7161 25.6071 10.8957C25.5161 10.5557 25.1548 10.3729 24.8201 10.4816ZM13.9936 12.1835C12.9943 12.1835 12.1843 12.9936 12.1843 13.9929C12.1843 14.9921 12.9943 15.8022 13.9936 15.8022C14.9928 15.8022 15.8029 14.9921 15.8029 13.9929C15.8029 12.9936 14.9928 12.1835 13.9936 12.1835ZM7.30772 23.1978L11.4645 17.4763C11.6267 17.253 11.6268 16.9507 11.4648 16.7273L10.613 15.5538C10.4508 15.3302 10.163 15.2366 9.9003 15.322L7.21658 16.1937C7.07773 16.2388 6.92761 16.2349 6.79131 16.1825L6.37081 16.0212C6.17471 15.946 6.02657 15.7792 5.9861 15.573C5.92474 15.2611 5.88139 14.9457 5.85638 14.6287C5.82874 14.2783 5.54627 13.9934 5.19487 13.9932L2.62137 13.992C2.26964 13.9919 1.98248 14.277 2.00082 14.6282C2.04442 15.4628 2.17562 16.2908 2.39196 17.0979C2.4831 17.4378 2.84429 17.6202 3.17883 17.5113L5.26454 16.8325C5.40355 16.7873 5.55375 16.7912 5.69014 16.8436L6.20062 17.0395C6.36358 17.102 6.49256 17.2292 6.56494 17.3881C6.70174 17.6883 6.85737 17.9813 7.03134 18.2653C7.21494 18.565 7.15407 18.9618 6.8697 19.1685L4.7886 20.6815C4.50407 20.8885 4.43966 21.2881 4.66135 21.5613C5.17792 22.1982 5.76762 22.7909 6.42757 23.3254C6.70108 23.547 7.10085 23.4825 7.30772 23.1978ZM16.5253 17.4967L20.6821 23.2182C20.889 23.5029 20.8267 23.903 20.5315 24.0947C19.8191 24.5571 19.0732 24.9347 18.3079 25.2292C17.9795 25.3555 17.6194 25.1709 17.5106 24.8363L16.7147 22.3895C16.606 22.0552 16.2475 21.8747 15.9057 21.9567C15.5816 22.0343 15.2547 22.0919 14.9267 22.1292C14.7532 22.149 14.5924 22.2324 14.4826 22.368L14.1398 22.7912C14.0478 22.9048 13.9977 23.0466 13.9978 23.1927L13.9987 25.3878C13.9988 25.7395 13.7137 26.0266 13.3624 26.0083C12.5279 25.9646 11.6998 25.8334 10.8927 25.6169C10.5529 25.526 10.3706 25.1647 10.4794 24.8302L11.2758 22.3831C11.3846 22.049 11.7429 21.8683 12.0846 21.9504C12.3935 22.0244 12.7063 22.0805 13.0216 22.1187C13.2302 22.1439 13.4346 22.0546 13.5668 21.8912L13.8508 21.5406C13.9427 21.4271 13.9928 21.2856 13.9928 21.1395L13.993 18.3184C13.993 18.0422 14.171 17.7976 14.4337 17.7124L15.8131 17.2651C16.0756 17.1798 16.3631 17.2734 16.5253 17.4967Z" fill="rgb(14,17,23)" fill-rule="evenodd" />
</svg>
