<svg viewBox="0 0 28 28" xmlns="http://www.w3.org/2000/svg" xmlns:xlink="http://www.w3.org/1999/xlink" width="28.000000" height="28.000000" fill="none" customFrame="#000000">
	<rect id="28 / Lukit / Sokol" width="28.000000" height="28.000000" x="0.000000" y="0.000000" />
	<path id="Вектор 43" d="M22.1498 13.1458C21.9918 14.5991 21.1048 15.7923 19.7888 16.3499C18.0518 17.0839 15.9868 16.5049 14.8928 14.8898C14.0898 13.7037 14.0128 12.2011 14.6858 10.9353C15.3588 9.66938 16.5038 8.94738 17.8308 8.76928C18.0778 8.73638 18.1568 8.41298 17.9588 8.26288C16.5088 7.29708 14.6858 7.07207 13.0808 7.77298C11.6608 8.39188 10.6528 9.57328 10.1868 11.0595C9.42376 13.4974 10.2038 16.1299 11.8938 18.0149C14.1148 20.4949 17.5958 21.4789 20.7788 20.5159C22.5758 19.9719 24.0898 18.7909 25.0228 17.1519C26.0758 15.3094 26.2288 12.9582 25.7148 10.9024C25.1488 8.64738 23.8988 6.65718 22.1918 5.11938C18.2058 1.52118 12.3248 0.986679 7.75176 3.77158C4.33875 5.85078 2.12875 9.54518 2.00575 13.5912C1.93375 15.9634 2.53876 18.2539 3.77076 20.2579C6.37076 24.4919 11.1818 26.6199 16.0498 25.8419C18.4338 25.4599 20.6088 24.3949 22.3618 22.7329C22.6618 22.4469 22.9508 22.1569 23.2208 21.8539C23.4398 21.6079 23.1348 21.2519 22.8558 21.4279C22.4478 21.6809 22.0168 21.9009 21.5558 22.0839C18.0638 23.4789 14.0968 23.2869 10.7628 21.5429C7.90276 20.0449 5.75676 17.2949 5.67275 13.9897C5.59776 11.0173 7.11876 8.24888 9.59076 6.65948C12.7068 4.65998 16.7698 4.95298 19.5748 7.37218C21.1908 8.76458 22.3878 10.9353 22.1478 13.1458L22.1498 13.1458Z" fill="rgb(14,17,23)" fill-rule="nonzero" />
</svg>
