<svg viewBox="0 0 28 28" xmlns="http://www.w3.org/2000/svg" xmlns:xlink="http://www.w3.org/1999/xlink" width="28.000000" height="28.000000" fill="none">
	<rect id="28 / Lukit / Snowflake 3" width="28.000000" height="28.000000" x="0.000000" y="0.000000" />
	<path id="Vector 8471" d="M24.5366 16.0309L23.7422 14.686C23.5474 14.356 23.1217 14.2466 22.7918 14.4414L20.2823 15.9243L19.0088 15.1889C18.0933 14.6603 18.0933 13.339 19.0088 12.8105L20.2823 12.0751L22.7918 13.5579C23.1217 13.7527 23.5474 13.6433 23.7422 13.3133L24.5366 11.9684C24.7315 11.6384 24.622 11.2128 24.2921 11.0179L23.215 10.3817L24.5277 9.62396C24.8597 9.43222 24.9733 9.00792 24.7819 8.67589L24.0009 7.32308C23.8091 6.99106 23.3848 6.87752 23.0528 7.06892L21.7401 7.82661L21.7274 6.57568C21.7236 6.19254 21.4098 5.88487 21.0267 5.88864L19.4646 5.90442C19.0815 5.90819 18.7738 6.22204 18.7776 6.60518L18.8071 9.51968L17.5335 10.2551C16.618 10.7837 15.4738 10.123 15.4738 9.06589L15.4738 7.59543L18.0127 6.16373C18.3464 5.97542 18.4644 5.55215 18.2761 5.21841L17.5088 3.85805C17.3205 3.52431 16.8972 3.40632 16.5635 3.59463L15.4738 4.20929L15.4738 2.6939C15.4738 2.31076 15.163 2 14.7799 2L13.2178 2C12.8347 2 12.5239 2.31076 12.5239 2.6939L12.5239 4.20963L11.4342 3.59497C11.1005 3.40666 10.6772 3.52465 10.4889 3.8584L9.72158 5.21875C9.53327 5.55249 9.65127 5.97576 9.98501 6.16407L12.5239 7.59577L12.5239 9.06623C12.5239 10.1234 11.3797 10.784 10.4642 10.2554L9.19061 9.52002L9.22011 6.60552C9.22388 6.22238 8.91655 5.90853 8.53307 5.90476L6.97103 5.88898C6.58789 5.88521 6.27405 6.19254 6.27027 6.57602L6.25758 7.82695L4.9449 7.06926C4.61288 6.87752 4.18858 6.9914 3.99684 7.32343L3.21617 8.67623C3.02443 9.00826 3.13831 9.43256 3.47033 9.6243L4.78301 10.382L3.70598 11.0183C3.37601 11.2131 3.26659 11.6388 3.46142 11.9687L4.25581 13.3136C4.45064 13.6436 4.87631 13.753 5.20628 13.5582L7.7157 12.0754L8.98927 12.8108C9.90475 13.3394 9.90475 14.6606 8.98927 15.1892L7.7157 15.9246L5.20628 14.4418C4.87631 14.247 4.45064 14.3564 4.25581 14.6864L3.46142 16.0313C3.26659 16.3612 3.37601 16.7869 3.70598 16.9817L4.78301 17.618L3.47033 18.3757C3.13831 18.5674 3.02477 18.9917 3.21617 19.3238L3.99719 20.6766C4.18893 21.0086 4.61322 21.1221 4.94525 20.9307L6.25793 20.173L6.27062 21.424C6.27439 21.8071 6.58824 22.1148 6.97138 22.111L8.53342 22.0952C8.91656 22.0915 9.22423 21.7776 9.22046 21.3945L9.19096 18.48L10.4645 17.7446C11.38 17.216 12.5243 17.8766 12.5243 18.9338L12.5243 20.4042L9.98536 21.8359C9.65162 22.0242 9.53362 22.4475 9.72193 22.7812L10.4892 24.1416C10.6775 24.4753 11.1008 24.5933 11.4346 24.405L12.5243 23.7904L12.5243 25.3061C12.5243 25.6892 12.835 26 13.2182 26L14.7802 26C15.1634 26 15.4741 25.6892 15.4741 25.3061L15.4741 23.7904L16.5638 24.405C16.8976 24.5933 17.3208 24.4753 17.5092 24.1416L18.2765 22.7812C18.4648 22.4475 18.3468 22.0242 18.013 21.8359L15.4741 20.4042L15.4741 18.9338C15.4741 17.8766 16.6184 17.216 17.5339 17.7446L18.8074 18.48L18.7779 21.3945C18.7742 21.7776 19.0815 22.0915 19.465 22.0952L21.027 22.111C21.4101 22.1148 21.724 21.8075 21.7278 21.424L21.7405 20.173L23.0531 20.9307C23.3852 21.1225 23.8095 21.0086 24.0012 20.6766L24.7822 19.3238C24.974 18.9917 24.8601 18.5674 24.5281 18.3757L23.2154 17.618L24.2924 16.9817C24.6224 16.7869 24.7318 16.3612 24.537 16.0313L24.5366 16.0309Z" fill="rgb(29,29,27)" fill-rule="nonzero" />
</svg>
