<svg viewBox="0 0 28 28" xmlns="http://www.w3.org/2000/svg" xmlns:xlink="http://www.w3.org/1999/xlink" width="28.000000" height="28.000000" fill="none">
	<rect id="28 / Lukit / Kokoshnik 4" width="28.000000" height="28.000000" x="0.000000" y="0.000000" />
	<path id="Vector 12438" d="M24.7476 15.01C25.4376 13.1 25.0276 10.88 23.4976 9.34997C22.3076 8.15997 20.6976 7.65997 19.1376 7.81997C18.4676 5.59997 16.4276 3.96997 13.9876 3.96997C11.5476 3.96997 9.50759 5.59997 8.83759 7.81997C7.27759 7.66997 5.66759 8.15997 4.47759 9.34997C2.94759 10.88 2.53759 13.1 3.22759 15.01C1.47759 17.14 1.57759 20.27 3.56759 22.25C4.23759 22.92 5.54759 23.47 7.03759 23.92C7.09759 20.23 10.0976 17.26 13.7976 17.26C17.4976 17.26 20.5676 20.29 20.5676 24.03C22.2176 23.56 23.7076 22.98 24.4376 22.25C26.4276 20.26 26.5176 17.13 24.7776 15.01L24.7476 15.01Z" fill="rgb(14,17,23)" fill-rule="nonzero" />
</svg>
