<svg viewBox="0 0 28 28" xmlns="http://www.w3.org/2000/svg" xmlns:xlink="http://www.w3.org/1999/xlink" width="28.000000" height="28.000000" fill="none" customFrame="#000000">
	<rect id="28 / Lukit / Mera" width="28.000000" height="28.000000" x="0.000000" y="0.000000" />
	<path id="Avatar" d="M10.6617 8.82331C10.6617 6.97958 12.1563 5.48499 14 5.48499C15.8437 5.48499 17.3383 6.97958 17.3383 8.82331L17.3383 19.1768C17.3383 21.0204 15.8437 22.515 14 22.515C12.1563 22.515 10.6617 21.0204 10.6617 19.1768L10.6617 8.82331ZM22.6617 5.48499C20.818 5.48499 19.3234 6.97958 19.3234 8.82331L19.3234 19.1768C19.3234 21.0204 20.818 22.515 22.6617 22.515C24.5054 22.515 26 21.0204 26 19.1768L26 8.82331C26 6.97958 24.5054 5.48499 22.6617 5.48499ZM2 16.8038C2 14.9601 3.49461 13.4655 5.33832 13.4655C7.18202 13.4655 8.67664 14.9601 8.67664 16.8038L8.67664 19.1767C8.67664 21.0204 7.18202 22.515 5.33832 22.515C3.49461 22.515 2 21.0204 2 19.1767L2 16.8038Z" fill="rgb(14,17,23)" fill-rule="evenodd" />
</svg>
