<svg viewBox="0 0 28 28" xmlns="http://www.w3.org/2000/svg" xmlns:xlink="http://www.w3.org/1999/xlink" width="28.000000" height="28.000000" fill="none">
	<rect id="28 / Lukit / Kokoshnik 1" width="28.000000" height="28.000000" x="0.000000" y="0.000000" />
	<path id="Vector 12450" d="M25.8982 14.1326C25.6462 12.7821 24.5073 11.754 23.1164 11.6431C23.1164 11.6331 23.1164 11.623 23.1164 11.6129C23.449 10.5445 23.4893 9.33504 22.179 7.85343C21.5541 7.13782 20.7075 6.61371 19.76 6.51292C19.0848 6.44237 18.4397 6.55324 17.8551 6.79514C17.1597 4.20483 14.1057 2.4914 14.0957 2.48132C14.0856 2.48132 11.0316 4.20483 10.3362 6.79514C9.76168 6.55324 9.11663 6.44237 8.43125 6.51292C7.48383 6.60363 6.64727 7.13782 6.01229 7.85343C4.70202 9.33504 4.74234 10.5445 5.07495 11.6129C5.07495 11.623 5.07495 11.6331 5.07495 11.6431C3.67397 11.754 2.54512 12.7821 2.29314 14.1326C1.62793 16.6524 2.51488 21.4097 6.66743 24.4031C6.66743 24.4031 6.67751 24.4031 6.68759 24.4132C7.52414 25.018 8.50181 25.401 9.50971 25.6227C9.95318 25.7235 10.0641 25.3607 9.83224 25.0986C8.47157 23.5767 7.96762 21.3694 8.70339 19.3133C9.55002 16.9749 11.7472 15.5336 14.0957 15.5336C16.4441 15.5336 18.6413 16.985 19.4879 19.3133C20.2338 21.3694 19.7298 23.5767 18.3591 25.0986C18.1273 25.3607 18.2381 25.7235 18.6816 25.6227C19.6895 25.401 20.6672 25.0079 21.5037 24.4132C21.5037 24.4132 21.5138 24.4132 21.5239 24.4031C25.6764 21.4097 26.5533 16.6625 25.8982 14.1326L25.8982 14.1326Z" fill="rgb(14,17,23)" fill-rule="nonzero" />
</svg>
