<svg viewBox="0 0 28 28" xmlns="http://www.w3.org/2000/svg" xmlns:xlink="http://www.w3.org/1999/xlink" width="28.000000" height="28.000000" fill="none" customFrame="#000000">
	<rect id="28 / Lukit / Alkion" width="28.000000" height="28.000000" x="0.000000" y="0.000000" />
	<path id="Avatar" d="M21.593 12.5018C21.2133 13.9066 21.3928 15.458 22.2194 16.7959L22.2219 16.8009L25.9936 22.9101C26.1823 22.9465 22.162 23.16 20.7919 22.9306C19.1845 22.6628 17.5336 21.6201 16.4697 19.8966C15.399 18.1643 15.1734 16.2025 15.7122 14.6606C15.7396 14.5778 15.689 14.493 15.6015 14.4816C13.9758 14.2641 12.3133 13.1641 11.2496 11.4432C10.1857 9.72174 10.0727 7.80834 10.4826 6.23652C10.6923 5.43416 12.2926 2.6022 12.7371 1.82528C12.7878 1.73602 12.9167 1.73352 12.972 1.82278L16.624 7.73504C17.4483 9.06898 18.7586 9.93268 20.1885 10.2329C20.9507 10.391 21.7474 10.391 22.5233 10.2194C22.65 10.192 22.74 10.3361 22.6569 10.4368C22.155 11.0467 21.7935 11.7523 21.593 12.5018ZM9.31076 22.972C9.9922 22.9261 10.6739 22.7196 11.2957 22.3391L11.291 22.3391C13.4969 20.9897 14.0773 18.0062 12.4262 15.9227C11.1713 14.3394 8.9238 13.8308 7.1024 14.7129C6.30354 15.1004 5.68642 15.6844 5.2673 16.372C5.26256 16.3745 5.26032 16.386 5.26032 16.386L4.9818 16.929C4.97932 16.9335 4.97482 16.9425 4.97482 16.9425L2.02494 22.6807C1.94914 22.8273 2.0551 22.9994 2.22066 22.9994L8.74652 22.972L9.31076 22.972Z" fill="rgb(14,17,23)" fill-rule="evenodd" />
</svg>
