<svg viewBox="0 0 28 28" xmlns="http://www.w3.org/2000/svg" xmlns:xlink="http://www.w3.org/1999/xlink" width="28.000000" height="28.000000" fill="none" customFrame="#000000">
	<rect id="28 / Lukit / Yozhka" width="28.000000" height="28.000000" x="0.000000" y="0.000000" />
	<path id="Avatar" d="M12.9018 9.12471C12.7274 9.08135 12.5476 9.05869 12.3639 9.05869C10.7301 9.05869 9.40563 10.8515 9.40563 13.0631C9.40563 15.2746 10.7301 17.0675 12.3639 17.0675C13.1722 17.0675 13.9048 16.6286 14.4388 15.9174C14.0135 19.963 11.4446 23.0737 8.33915 23.0737C4.93629 23.0737 2.17773 19.3387 2.17773 14.7313C2.17773 10.1239 4.93629 6.38879 8.33915 6.38879C10.1479 6.38879 11.7746 7.44407 12.9018 9.12471ZM19.8979 23.0737C17.7954 23.0737 15.9389 21.6479 14.827 19.4714C15.441 18.0602 15.7824 16.4385 15.7824 14.7314C15.7824 13.0242 15.441 11.4025 14.8269 9.99129C15.9388 7.81471 17.7954 6.38879 19.8979 6.38879C21.7067 6.38879 23.3334 7.44409 24.4606 9.12477C24.2861 9.08137 24.1062 9.05869 23.9225 9.05869C22.2887 9.05869 20.9642 10.8515 20.9642 13.0631C20.9642 15.2746 22.2887 17.0675 23.9225 17.0675C24.7309 17.0675 25.4636 16.6285 25.9976 15.9171C25.5724 19.9629 23.0034 23.0737 19.8979 23.0737Z" fill="rgb(14,17,23)" fill-rule="evenodd" />
</svg>
