<svg viewBox="0 0 28 28" xmlns="http://www.w3.org/2000/svg" xmlns:xlink="http://www.w3.org/1999/xlink" width="28.000000" height="28.000000" fill="none">
	<rect id="28 / Lukit / Snowflake 2" width="28.000000" height="28.000000" x="0.000000" y="0.000000" />
	<path id="Vector 8469" d="M23.6813 15.6964L21.2589 17.1277L20.8703 16.9034L22.6274 15.865C22.8806 15.7155 22.9647 15.389 22.8148 15.1359L22.4197 14.467C22.2702 14.2138 21.9437 14.1297 21.6905 14.2795L19.0392 15.8463L17.9276 15.2045C17.0012 14.6696 17.0012 13.3326 17.9276 12.7977L19.0392 12.1559L21.6905 13.7226C21.9437 13.8722 22.2702 13.7884 22.4197 13.5352L22.8148 12.8663C22.9644 12.6131 22.8806 12.2866 22.6274 12.1371L20.8703 11.0988L21.2589 10.8745L23.6813 12.3058C23.9344 12.4553 24.2609 12.3715 24.4104 12.1183L24.8056 11.4495C24.9551 11.1963 24.8713 10.8698 24.6181 10.7203L23.09 9.81737L24.3931 9.06507C24.6477 8.91808 24.7351 8.59231 24.5881 8.33769L24.1995 7.66484C24.0525 7.41022 23.7268 7.32282 23.4721 7.46981L22.1691 8.22212L22.151 6.44736C22.1481 6.15338 21.9072 5.91718 21.6132 5.92043L20.8364 5.92837C20.5424 5.93126 20.3062 6.17216 20.3094 6.46614L20.338 9.2796L19.9494 9.50389L19.9288 7.46332C19.9259 7.16933 19.685 6.93313 19.391 6.93638L18.6141 6.94432C18.3202 6.94721 18.084 7.18811 18.0872 7.4821L18.1183 10.5617L17.0066 11.2035C16.0802 11.7384 14.922 11.0699 14.922 10.0001L14.922 8.71655L17.6043 7.20364C17.8604 7.05917 17.951 6.73449 17.8066 6.47806L17.4248 5.80124C17.2804 5.54518 16.9557 5.45453 16.6993 5.59899L14.9216 6.60158L14.9216 6.15302L17.3721 4.77085C17.6282 4.62638 17.7188 4.30169 17.5744 4.04527L17.1926 3.36845C17.0481 3.11238 16.7235 3.02173 16.467 3.1662L14.9213 4.03805L14.9213 2.53235C14.9213 2.23837 14.6829 2 14.3889 2L13.612 2C13.3181 2 13.0797 2.23837 13.0797 2.53235L13.0797 4.03696L11.5339 3.16511C11.2778 3.02065 10.9528 3.1113 10.8083 3.36736L10.4266 4.04418C10.2821 4.30025 10.3728 4.62529 10.6288 4.76976L13.0793 6.15193L13.0793 6.60049L11.3017 5.59791C11.0456 5.45344 10.7206 5.54409 10.5761 5.80016L10.1944 6.47698C10.0499 6.73304 10.1405 7.05809 10.3966 7.20255L13.079 8.71546L13.079 9.99904C13.079 11.0688 11.9211 11.7373 10.9943 11.2024L9.88267 10.5606L9.91373 7.48101C9.91662 7.18702 9.68078 6.94613 9.38679 6.94324L8.60993 6.93529C8.31595 6.9324 8.07505 7.16824 8.07216 7.46223L8.05157 9.5028L7.66296 9.27852L7.69149 6.46506C7.69438 6.17107 7.45854 5.93018 7.16456 5.92729L6.3877 5.91934C6.09371 5.91645 5.85281 6.15229 5.84993 6.44628L5.83187 8.22103L4.52879 7.46873C4.27417 7.32174 3.9484 7.40878 3.80141 7.66376L3.4128 8.33661C3.2658 8.59122 3.35284 8.91699 3.60783 9.06399L4.9109 9.81629L3.38282 10.7192C3.12965 10.8687 3.04549 11.1952 3.19538 11.4484L3.59049 12.1173C3.74001 12.3704 4.0665 12.4546 4.31968 12.3047L6.742 10.8734L7.13061 11.0977L5.37355 12.136C5.12038 12.2856 5.03622 12.6121 5.18611 12.8652L5.58122 13.5341C5.73074 13.7873 6.05723 13.8714 6.31041 13.7215L8.9617 12.1548L10.0734 12.7966C10.9997 13.3315 10.9997 14.6685 10.0734 15.2034L8.9617 15.8452L6.31041 14.2785C6.05723 14.1289 5.73074 14.2127 5.58122 14.4659L5.18611 15.1348C5.03659 15.3879 5.12038 15.7144 5.37355 15.864L7.13061 16.9023L6.742 17.1266L4.31968 15.6953C4.0665 15.5458 3.74001 15.6296 3.59049 15.8827L3.19538 16.5516C3.04586 16.8048 3.12965 17.1313 3.38282 17.2808L4.9109 18.1837L3.60782 18.936C3.3532 19.083 3.2658 19.4088 3.4128 19.6634L3.80141 20.3362C3.9484 20.5909 4.27417 20.6783 4.52879 20.5313L5.83187 19.779L5.84992 21.5537C5.85281 21.8477 6.09371 22.0839 6.3877 22.0807L7.16456 22.0727C7.45854 22.0698 7.69474 21.8289 7.69149 21.5349L7.66296 18.7215L8.05157 18.4972L8.07216 20.5378C8.07505 20.8318 8.31595 21.068 8.60993 21.0647L9.38679 21.0568C9.68078 21.0539 9.91698 20.813 9.91373 20.519L9.88267 17.4394L10.9943 16.7976C11.9207 16.2627 13.079 16.9312 13.079 18.001L13.079 19.2845L10.3966 20.7975C10.1405 20.9419 10.0499 21.2666 10.1944 21.523L10.5761 22.1998C10.7206 22.4559 11.0453 22.5466 11.3017 22.4021L13.0793 21.3995L13.0793 21.8481L10.6288 23.2302C10.3728 23.3747 10.2821 23.6994 10.4266 23.9558L10.8083 24.6326C10.9528 24.8887 11.2775 24.9794 11.5339 24.8349L13.0797 23.963L13.0797 25.4676C13.0797 25.7616 13.3181 26 13.612 26L14.3889 26C14.6829 26 14.9213 25.7616 14.9213 25.4676L14.9213 23.963L16.467 24.8349C16.7231 24.9794 17.0481 24.8887 17.1926 24.6326L17.5744 23.9558C17.7188 23.6998 17.6282 23.3751 17.3721 23.2302L14.9216 21.8481L14.9216 21.3995L16.6993 22.4021C16.9553 22.5466 17.2804 22.4559 17.4248 22.1998L17.8066 21.523C17.951 21.267 17.8604 20.9419 17.6043 20.7975L14.922 19.2845L14.922 18.001C14.922 16.9312 16.0799 16.2627 17.0066 16.7976L18.1183 17.4394L18.0872 20.519C18.0843 20.813 18.3202 21.0539 18.6141 21.0568L19.391 21.0647C19.685 21.0676 19.9259 20.8318 19.9288 20.5378L19.9494 18.4972L20.338 18.7215L20.3094 21.5349C20.3066 21.8289 20.5424 22.0698 20.8364 22.0727L21.6132 22.0807C21.9072 22.0835 22.1481 21.8477 22.151 21.5537L22.1691 19.779L23.4721 20.5313C23.7268 20.6783 24.0525 20.5912 24.1995 20.3362L24.5881 19.6634C24.7351 19.4088 24.6481 19.083 24.3931 18.936L23.09 18.1837L24.6181 17.2808C24.8713 17.1313 24.9554 16.8048 24.8056 16.5516L24.4104 15.8827C24.2609 15.6296 23.9344 15.5454 23.6813 15.6953L23.6813 15.6964Z" fill="rgb(29,29,27)" fill-rule="nonzero" />
</svg>
