<svg viewBox="0 0 28 28" xmlns="http://www.w3.org/2000/svg" xmlns:xlink="http://www.w3.org/1999/xlink" width="28.000000" height="28.000000" fill="none">
	<rect id="28 / Lukit / Snowflake" width="28.000000" height="28.000000" x="0.000000" y="0.000000" />
	<path id="Vector 8468" d="M23.9156 15.7454L21.2574 17.3161L20.5455 16.9051L22.6963 15.6341C22.8642 15.5348 22.9202 15.3181 22.8209 15.1498L22.4088 14.4527C22.3095 14.2848 22.0928 14.2288 21.9245 14.3281L19.0373 16.0343L17.4965 15.1447C16.616 14.6362 16.616 13.3653 17.4965 12.8567L19.0373 11.9672L21.9245 13.6733C22.0924 13.7726 22.3095 13.717 22.4088 13.5487L22.8209 12.8517C22.9202 12.6837 22.8646 12.4667 22.6963 12.3673L20.5455 11.0964L21.2574 10.6854L23.9156 12.2561C24.0835 12.3554 24.3006 12.2998 24.3999 12.1315L24.812 11.4344C24.9113 11.2665 24.8557 11.0494 24.6874 10.9501L22.766 9.8146L24.4649 8.83367C24.634 8.73615 24.6921 8.51981 24.5942 8.35079L24.1894 7.6494C24.0919 7.48037 23.8755 7.42222 23.7065 7.5201L22.0075 8.50103L21.9852 6.26937C21.9833 6.07398 21.8234 5.91759 21.628 5.9194L20.8182 5.92771C20.6228 5.92951 20.4664 6.08951 20.4682 6.2849L20.4993 9.37217L19.7878 9.78318L19.7625 7.28534C19.7607 7.08995 19.6007 6.93356 19.4053 6.93537L18.5956 6.94367C18.4002 6.94548 18.2438 7.10548 18.2456 7.30087L18.2796 10.6543L16.7388 11.5439C15.8583 12.0524 14.7574 11.4167 14.7574 10.4001L14.7574 8.62094L17.6786 6.97365C17.8487 6.87758 17.9086 6.66196 17.8129 6.49185L17.4149 5.78649C17.3189 5.61638 17.1032 5.55642 16.9335 5.65213L14.7574 6.87938L14.7574 6.05773L17.4467 4.54118C17.6168 4.44511 17.6768 4.22949 17.5811 4.05938L17.1831 3.35402C17.087 3.18391 16.8714 3.12395 16.7016 3.21966L14.7574 4.31617L14.7574 2.35358C14.7574 2.15819 14.5993 2 14.4039 2L13.5941 2C13.3987 2 13.2405 2.15819 13.2405 2.35358L13.2405 4.31545L11.2964 3.21894C11.1263 3.12287 10.9106 3.18319 10.8149 3.3533L10.4169 4.05866C10.3209 4.22877 10.3812 4.44439 10.5513 4.54046L13.2405 6.05701L13.2405 6.87867L11.0645 5.65141C10.8944 5.55534 10.6788 5.61566 10.5831 5.78577L10.185 6.49113C10.089 6.66124 10.1493 6.87686 10.3194 6.97293L13.2405 8.62022L13.2405 10.3993C13.2405 11.416 12.1397 12.0517 11.2592 11.5432L9.71842 10.6536L9.75237 7.30015C9.75418 7.10476 9.59779 6.94512 9.4024 6.94295L8.59266 6.93465C8.39727 6.93284 8.23763 7.08923 8.23546 7.28462L8.21018 9.78246L7.49868 9.37145L7.52974 6.28418C7.53154 6.08879 7.37516 5.92915 7.17976 5.92699L6.37002 5.91868C6.17463 5.91687 6.015 6.07326 6.01283 6.26865L5.99044 8.50031L4.2915 7.51938C4.12247 7.42186 3.90613 7.47965 3.80862 7.64868L3.40375 8.35007C3.30623 8.51909 3.36402 8.73543 3.53305 8.83295L5.23198 9.81388L3.31056 10.9494C3.14262 11.0487 3.08664 11.2654 3.18596 11.4337L3.59805 12.1308C3.69737 12.2987 3.91408 12.3547 4.08238 12.2554L6.74058 10.6847L7.45244 11.0957L5.30168 12.3666C5.13374 12.4659 5.07776 12.6826 5.17708 12.8509L5.58917 13.548C5.6885 13.7159 5.9052 13.7719 6.0735 13.6726L8.96068 11.9664L10.5014 12.856C11.382 13.3645 11.382 14.6355 10.5014 15.144L8.96068 16.0336L6.0735 14.3274C5.90556 14.2281 5.6885 14.2837 5.58917 14.452L5.17708 15.1491C5.07776 15.317 5.13338 15.5341 5.30168 15.6334L7.45244 16.9043L6.74058 17.3154L4.08238 15.7446C3.91443 15.6453 3.69737 15.7009 3.59805 15.8692L3.18596 16.5663C3.08664 16.7342 3.14226 16.9513 3.31056 17.0506L5.23198 18.1861L3.53305 19.1671C3.36402 19.2646 3.30587 19.4809 3.40375 19.65L3.80862 20.3513C3.90613 20.5204 4.12247 20.5785 4.2915 20.4806L5.99044 19.4997L6.01283 21.7314C6.01463 21.9268 6.17463 22.0831 6.37002 22.0813L7.17976 22.073C7.37516 22.0712 7.53154 21.9112 7.52974 21.7158L7.49868 18.6286L8.21018 18.2176L8.23546 20.7154C8.23727 20.9108 8.39726 21.0672 8.59266 21.0654L9.4024 21.0571C9.59779 21.0553 9.75418 20.8953 9.75237 20.6999L9.71842 17.3464L11.2592 16.4569C12.1397 15.9483 13.2405 16.584 13.2405 17.6007L13.2405 19.3798L10.3194 21.0271C10.1493 21.1232 10.0893 21.3388 10.185 21.5089L10.5831 22.2143C10.6791 22.3844 10.8947 22.4443 11.0645 22.3486L13.2405 21.1214L13.2405 21.943L10.5513 23.4596C10.3812 23.5556 10.3212 23.7712 10.4169 23.9414L10.8149 24.6467C10.911 24.8168 11.1266 24.8768 11.2964 24.7811L13.2405 23.6846L13.2405 25.6464C13.2405 25.8418 13.3987 26 13.5941 26L14.4039 26C14.5993 26 14.7574 25.8418 14.7574 25.6464L14.7574 23.6846L16.7016 24.7811C16.8717 24.8771 17.0873 24.8168 17.1831 24.6467L17.5811 23.9414C17.6771 23.7712 17.6168 23.5556 17.4467 23.4596L14.7574 21.943L14.7574 21.1214L16.9335 22.3486C17.1036 22.4447 17.3192 22.3844 17.4149 22.2143L17.8129 21.5089C17.909 21.3388 17.8487 21.1232 17.6786 21.0271L14.7574 19.3798L14.7574 17.6007C14.7574 16.584 15.8583 15.9483 16.7388 16.4569L18.2796 17.3464L18.2456 20.6999C18.2438 20.8953 18.4002 21.0549 18.5956 21.0571L19.4053 21.0654C19.6007 21.0672 19.7604 20.9108 19.7625 20.7154L19.7878 18.2176L20.4993 18.6286L20.4682 21.7158C20.4664 21.9112 20.6228 22.0709 20.8182 22.073L21.628 22.0813C21.8233 22.0831 21.983 21.9268 21.9851 21.7314L22.0075 19.4997L23.7065 20.4806C23.8755 20.5782 24.0919 20.5204 24.1894 20.3513L24.5942 19.65C24.6917 19.4809 24.634 19.2646 24.4649 19.1671L22.766 18.1861L24.6874 17.0506C24.8554 16.9513 24.9113 16.7346 24.812 16.5663L24.3999 15.8692C24.3006 15.7013 24.0839 15.6453 23.9156 15.7446L23.9156 15.7454Z" fill="rgb(14,17,23)" fill-rule="nonzero" />
</svg>
