<svg viewBox="0 0 28 28" xmlns="http://www.w3.org/2000/svg" xmlns:xlink="http://www.w3.org/1999/xlink" width="28.000000" height="28.000000" fill="none" customFrame="#000000">
	<rect id="28 / Lukit / Teremok" width="28.000000" height="28.000000" x="0.000000" y="0.000000" />
	<path id="Avatar" d="M16.1615 4.28613L12.6188 4.28613C12.2409 4.28613 12.0375 4.73059 12.2853 5.01638L20.7234 14.7516C20.9711 15.0373 20.7682 15.4819 20.3903 15.4819L18.5103 15.4819C18.3125 15.4819 18.1389 15.6134 18.0855 15.8039L16.7898 20.4203C16.7364 20.6107 16.5627 20.7423 16.3649 20.7423L11.6691 20.7423C11.4713 20.7423 11.2977 20.6107 11.2443 20.4203L9.94513 15.7913C9.8917 15.6009 9.71806 15.4693 9.52028 15.4693L7.64893 15.4693C7.26889 15.4693 7.06681 15.0208 7.31844 14.7359L12.6149 8.74108C12.7593 8.57745 12.7623 8.33281 12.6222 8.16552L10.6957 5.86663C10.5212 5.65808 10.2011 5.65592 10.0231 5.8621L2.10772 15.0552C1.86125 15.3412 2.06463 15.7844 2.44209 15.7844L5.48243 15.7844C5.68021 15.7844 5.85386 15.9159 5.90729 16.1063L7.94797 23.3769C8.0014 23.5674 8.17505 23.6989 8.37283 23.6989L10.8319 23.6989L17.1388 23.7139L19.6582 23.7117C19.8555 23.7117 20.0292 23.5801 20.0826 23.3897L22.1285 16.101C22.1819 15.9106 22.3556 15.779 22.5533 15.779L25.5579 15.779C25.9362 15.779 26.1392 15.3345 25.8914 15.0488L16.8286 4.59066C16.6609 4.3973 16.4175 4.28613 16.1615 4.28613Z" fill="rgb(14,17,23)" fill-rule="evenodd" />
</svg>
