<svg viewBox="0 0 28 28" xmlns="http://www.w3.org/2000/svg" xmlns:xlink="http://www.w3.org/1999/xlink" width="28.000000" height="28.000000" fill="none">
	<rect id="28 / Navigation / Close All" width="28.000000" height="28.000000" x="0.000000" y="0.000000" />
	<path id="Форма 786" d="M11.3192 5.83496C11.3192 5.28498 10.869 4.83496 10.3192 4.83496C9.76849 4.83496 9.31927 5.28498 9.31927 5.83496L9.31927 22.1649C9.31927 22.715 9.76849 23.1649 10.3192 23.1649C10.869 23.1649 11.3192 22.715 11.3192 22.1649L11.3192 5.83496ZM17.6893 4.83496C18.2391 4.83496 18.6893 5.28498 18.6893 5.83496L18.6893 22.1649C18.6893 22.715 18.2391 23.1649 17.6893 23.1649C17.1395 23.1649 16.6893 22.715 16.6893 22.1649L16.6893 5.83496C16.6893 5.28498 17.1395 4.83496 17.6893 4.83496ZM7.52925 13.295C7.70893 13.485 7.81929 13.735 7.81929 14.005L7.80855 13.995C7.80855 14.265 7.70893 14.515 7.51851 14.705L4.01855 18.205C3.62889 18.595 2.99903 18.595 2.60937 18.205C2.21875 17.815 2.21875 17.185 2.60937 16.795L5.40915 13.995L2.61915 11.205C2.22853 10.815 2.22853 10.185 2.61915 9.79496C3.00879 9.40496 3.63867 9.40496 4.02929 9.79496L7.52925 13.295ZM20.1893 13.9952C20.1919 13.729 20.3018 13.4827 20.4793 13.295L23.9793 9.79498C24.3689 9.40496 24.9988 9.40496 25.3894 9.79498C25.779 10.185 25.779 10.815 25.3894 11.205L22.5994 13.995L25.3894 16.785C25.779 17.175 25.779 17.805 25.3894 18.195C24.9988 18.585 24.3689 18.585 23.9793 18.195L20.4793 14.695C20.2913 14.5074 20.1918 14.2613 20.1893 13.9952ZM20.1893 13.9952L20.1893 14.005L20.1893 13.985L20.1893 13.9952Z" fill="rgb(14,17,23)" fill-rule="evenodd" />
</svg>
