<svg viewBox="0 0 28 28" xmlns="http://www.w3.org/2000/svg" xmlns:xlink="http://www.w3.org/1999/xlink" width="28.000000" height="28.000000" fill="none">
	<rect id="28 / Special / Ancor" width="28.000000" height="28.000000" x="0.000000" y="0.000000" fill="rgb(255,255,255)" fill-opacity="0" />
	<path id="Vector 8270" d="M25.6101 14.675L20.2901 17.355L21.9801 19.355C20.5301 21.845 17.9701 23.525 15.0301 23.835L15.0301 15.315L17.5301 15.315C18.0801 15.315 18.5301 14.865 18.5301 14.315C18.5301 13.765 18.0801 13.315 17.5301 13.315L15.0301 13.315L15.0301 10.575C16.9201 10.125 18.3301 8.42498 18.3301 6.40498C18.3301 4.03498 16.4001 2.10498 14.0301 2.10498C11.6601 2.10498 9.73012 4.03498 9.73012 6.40498C9.73012 8.43498 11.1401 10.125 13.0301 10.575L13.0301 13.315L10.7301 13.315C10.1801 13.315 9.73012 13.765 9.73012 14.315C9.73012 14.865 10.1801 15.315 10.7301 15.315L13.0301 15.315L13.0301 23.835C10.0701 23.515 7.50012 21.805 6.05012 19.285L7.69012 17.345L2.37012 14.665C2.37012 14.665 2.60012 16.295 3.16012 17.865C3.43012 18.605 3.77012 19.275 4.06012 19.805C5.94012 23.485 9.74012 25.895 14.0401 25.895C18.9001 25.895 23.0201 22.805 24.6501 18.335C25.3801 16.325 25.6301 14.675 25.6301 14.675L25.6101 14.675ZM11.7301 6.40498C11.7301 5.13498 12.7601 4.10498 14.0301 4.10498C15.3001 4.10498 16.3301 5.13498 16.3301 6.40498C16.3301 7.67498 15.3001 8.70498 14.0301 8.70498C12.7601 8.70498 11.7301 7.67498 11.7301 6.40498Z" fill="rgb(14,17,23)" fill-rule="nonzero" />
</svg>
