<svg viewBox="0 0 28 28" xmlns="http://www.w3.org/2000/svg" xmlns:xlink="http://www.w3.org/1999/xlink" width="28.000000" height="28.000000" fill="none">
	<rect id="28 / Text / H4" width="28.000000" height="28.000000" x="0.000000" y="0.000000" />
	<path id="Vector 13503" d="M24.0547 16.66L26.0449 16.66L26.0449 18.58L24.0547 18.58L24.0547 21.5199L21.8848 21.5199L21.8848 18.58L14.7549 18.58L14.7549 16.75L21.2549 6.47998L24.0547 6.47998L24.0547 16.66ZM3.95508 12.92L10.6553 12.92L10.6553 6.55004L12.6553 6.55004L12.6553 21.52L10.6553 21.52L10.6553 14.92L3.95508 14.92L3.95508 21.52L1.95508 21.52L1.95508 6.55004L3.95508 6.55004L3.95508 12.92ZM21.7949 9.18006L17.1445 16.54L17.1445 16.66L21.915 16.66L21.915 9.18006L21.7949 9.18006Z" fill="rgb(14,17,23)" fill-rule="evenodd" />
</svg>
