<svg viewBox="0 0 28 28" xmlns="http://www.w3.org/2000/svg" xmlns:xlink="http://www.w3.org/1999/xlink" width="28.000000" height="28.000000" fill="none">
	<rect id="28 / Text / H5" width="28.000000" height="28.000000" x="0.000000" y="0.000000" />
	<path id="Vector 13510" d="M23.3147 12.1849C24.0344 12.6149 24.6047 13.2149 25.0148 13.9649L25.0148 13.965C25.4347 14.715 25.6349 15.575 25.6349 16.555C25.6447 17.525 25.425 18.395 24.9748 19.165C24.5344 19.925 23.9143 20.5251 23.135 20.965C22.3547 21.4051 21.4651 21.6251 20.4543 21.6251C19.5344 21.6251 18.7044 21.445 17.9749 21.095C17.2444 20.735 16.6644 20.2451 16.2249 19.6251C15.7845 19.0051 15.555 18.2951 15.5247 17.4951L17.7249 17.4951C17.7845 18.1351 18.0647 18.675 18.5843 19.085C19.095 19.5051 19.7249 19.715 20.4446 19.715C21.0246 19.715 21.5344 19.575 21.9846 19.315C22.4348 19.045 22.7844 18.675 23.0442 18.205C23.3049 17.735 23.4348 17.205 23.4348 16.595C23.4348 15.985 23.2941 15.435 23.0344 14.955C22.7746 14.475 22.4143 14.105 21.9446 13.825C21.4846 13.555 20.9543 13.415 20.3547 13.405C19.9045 13.405 19.4446 13.4849 18.9846 13.645C18.5247 13.805 18.1448 14.0049 17.8645 14.265L15.7845 13.9549L16.6243 6.37494L24.8947 6.37494L24.8947 8.3249L18.5149 8.3249L18.0345 12.5248L18.1243 12.5248C18.4251 12.2449 18.8147 12.0048 19.2942 11.8149C19.7844 11.6248 20.3049 11.5248 20.8645 11.5248C21.7844 11.5248 22.6047 11.7449 23.3147 12.1849ZM4.36473 12.8149L11.0648 12.8149L11.0648 6.44488L13.0648 6.44488L13.0648 21.4149L11.0648 21.4149L11.0648 14.8149L4.36473 14.8149L4.36473 21.4149L2.36475 21.4149L2.36475 6.44488L4.36473 6.44488L4.36473 12.8149Z" fill="rgb(14,17,23)" fill-rule="evenodd" />
</svg>
