<svg viewBox="0 0 28 28" xmlns="http://www.w3.org/2000/svg" xmlns:xlink="http://www.w3.org/1999/xlink" width="28.000000" height="28.000000" fill="none">
	<rect id="28 / Text / H6" width="28.000000" height="28.000000" x="0.000000" y="0.000000" />
	<path id="Vector 13511" d="M23.4805 12.2998C24.1904 12.7198 24.7598 13.3098 25.1797 14.0498L25.1504 14.0497C25.5703 14.7997 25.7803 15.6498 25.7803 16.6097C25.7803 17.5697 25.5703 18.4397 25.1299 19.2098C24.7002 19.9898 24.0898 20.6098 23.3105 21.0697C22.5205 21.5198 21.6103 21.7398 20.5605 21.7298C19.8896 21.7198 19.2305 21.5898 18.5801 21.3598C17.9404 21.1197 17.3496 20.7298 16.8203 20.1797C16.29 19.6398 15.8701 18.8998 15.5498 17.9697C15.2402 17.0498 15.0801 15.8297 15.0801 14.5098C15.0801 13.1898 15.21 12.0298 15.4697 11.0098C15.7402 9.98985 16.1201 9.12976 16.6103 8.42982C17.0996 7.72986 17.7002 7.18982 18.4004 6.81982C19.0996 6.45972 19.8603 6.26978 20.7598 6.26978C21.6602 6.26978 22.4502 6.44984 23.1504 6.7998C23.8496 7.1598 24.4102 7.63978 24.8398 8.25976C25.2803 8.88978 25.5498 9.58972 25.6699 10.3898L23.4297 10.3898C23.2803 9.75976 22.9805 9.24976 22.5303 8.84974C22.0801 8.45971 21.5 8.25976 20.7705 8.25976C19.6699 8.25976 18.8105 8.73974 18.1904 9.6997C17.5801 10.6597 17.2705 11.9897 17.2705 13.6997L17.3799 13.6997C17.6396 13.2698 17.96 12.9098 18.3398 12.6097C18.7197 12.3098 19.1504 12.0798 19.6201 11.9098C20.0996 11.7498 20.5996 11.6598 21.1201 11.6598C21.9902 11.6598 22.7705 11.8798 23.4805 12.2998ZM4.21973 12.9198L10.9199 12.9198L10.9199 6.5498L12.9199 6.5498L12.9199 21.5198L10.9199 21.5198L10.9199 14.9198L4.21973 14.9198L4.21973 21.5198L2.21973 21.5198L2.21973 6.5498L4.21973 6.5498L4.21973 12.9198ZM22.1299 19.3898C22.5898 19.1098 22.9502 18.7297 23.21 18.2497L23.2002 18.2499C23.4697 17.7699 23.5996 17.2198 23.5996 16.6399C23.5996 16.0599 23.4697 15.5299 23.21 15.0599C22.9502 14.5799 22.5996 14.21 22.1504 13.9299C21.7002 13.6499 21.1904 13.5099 20.6201 13.5099C20.1904 13.5099 19.7803 13.5898 19.4102 13.7599C19.04 13.9198 18.7197 14.1498 18.4404 14.4498C18.1602 14.7399 17.9404 15.0798 17.7803 15.4598C17.6299 15.8398 17.5498 16.2397 17.5498 16.6598C17.5498 17.2198 17.6797 17.7399 17.9404 18.2198C18.2002 18.6998 18.5605 19.0899 19.0205 19.3799C19.4805 19.6698 20 19.8199 20.5801 19.8199C21.1602 19.8199 21.6699 19.6698 22.1299 19.3898Z" fill="rgb(0,0,0)" fill-rule="evenodd" />
</svg>
