<svg viewBox="0 0 28 28" xmlns="http://www.w3.org/2000/svg" xmlns:xlink="http://www.w3.org/1999/xlink" width="28.000000" height="28.000000" fill="none" clip-path="url(#clipPath_84)" customFrame="url(#clipPath_84)">
	<defs>
		<clipPath id="clipPath_84">
			<rect width="28.000000" height="28.000000" x="0.000000" y="0.000000" rx="8.000000" fill="rgb(255,255,255)" />
		</clipPath>
	</defs>
	<rect id="28 / Yaga / Project-Pages / Scrum_accent" width="28.000000" height="28.000000" x="0.000000" y="0.000000" rx="8.000000" fill="rgb(0,85,255)" fill-opacity="0.100000001" />
	<path id="Vector" d="M14.515 7.70695C14.7557 7.51691 15.0852 7.48692 15.3757 7.62688C15.6457 7.76693 15.8255 8.04686 15.8255 8.35687L15.8255 11.7569C15.8255 12.3469 16.3054 12.8269 16.8953 12.8269C17.4853 12.8269 17.9651 12.3469 17.9651 11.7569L17.9651 11.3769C17.9651 11.0569 18.1456 10.7769 18.4252 10.6469C18.7055 10.5169 19.0452 10.5469 19.2852 10.7469C20.3153 11.5669 21.0256 12.4569 21.4651 13.4469C21.9156 14.4269 22.0653 15.4569 22.0653 16.5269C22.0653 19.9969 19.1054 22.777 15.7551 22.777C12.4055 22.777 9.65537 19.957 9.65537 16.5269C9.65537 13.8869 10.9057 11.6769 12.0951 10.1569C12.6953 9.39688 13.2853 8.78694 13.7453 8.37687C13.9654 8.16692 14.165 8.00687 14.2956 7.8969C14.3551 7.83692 14.4152 7.79693 14.4556 7.76693L14.5253 7.72694L14.515 7.70695Z" fill="rgb(0,85,255)" fill-rule="evenodd" />
	<path id="Vector" d="M9.28486 21.0068C8.98477 20.5668 8.73457 20.0968 8.53428 19.5968C8.35449 19.1468 8.21436 18.6968 8.11455 18.2368C7.99424 17.6767 7.93477 17.1068 7.93477 16.5168C7.93477 16.3968 7.93477 16.2767 7.93477 16.1568C7.98467 14.8367 8.28477 13.5268 8.84463 12.2268C9.30469 11.1468 9.93428 10.0968 10.7348 9.07679C10.9945 8.74678 11.2543 8.43677 11.5346 8.12676C11.8647 7.76676 12.2147 7.41676 12.5743 7.08676C12.6146 7.04677 12.6946 6.97678 12.7548 6.9268L12.7548 6.11674C12.7548 5.77673 12.5545 5.46681 12.2544 5.31676C11.9447 5.1668 11.5845 5.19679 11.3145 5.40674L11.2447 5.45681C11.2044 5.4868 11.1442 5.53679 11.0745 5.59678C10.9344 5.72675 10.7143 5.89679 10.4743 6.12673C9.97461 6.58679 9.31426 7.2568 8.65459 8.09677C7.31475 9.77678 5.93457 12.2168 5.93457 15.1268C5.93457 17.7168 7.33457 19.9968 9.42432 21.1767C9.38467 21.1168 9.32451 21.0668 9.28486 21.0068Z" fill="rgb(0,85,255)" fill-rule="evenodd" />
	<path id="Vector" d="M9.28486 21.0068C8.98477 20.5668 8.73457 20.0968 8.53428 19.5968C8.35449 19.1468 8.21436 18.6968 8.11455 18.2368C7.99424 17.6767 7.93477 17.1068 7.93477 16.5168C7.93477 16.3968 7.93477 16.2767 7.93477 16.1568C7.98467 14.8367 8.28477 13.5268 8.84463 12.2268C9.30469 11.1468 9.93428 10.0968 10.7348 9.07679C10.9945 8.74678 11.2543 8.43677 11.5346 8.12676C11.8647 7.76676 12.2147 7.41676 12.5743 7.08676C12.6146 7.04677 12.6946 6.97678 12.7548 6.9268L12.7548 6.11674C12.7548 5.77673 12.5545 5.46681 12.2544 5.31676C11.9447 5.1668 11.5845 5.19679 11.3145 5.40674L11.2447 5.45681C11.2044 5.4868 11.1442 5.53679 11.0745 5.59678C10.9344 5.72675 10.7143 5.89679 10.4743 6.12673C9.97461 6.58679 9.31426 7.2568 8.65459 8.09677C7.31475 9.77678 5.93457 12.2168 5.93457 15.1268C5.93457 17.7168 7.33457 19.9968 9.42432 21.1767C9.38467 21.1168 9.32451 21.0668 9.28486 21.0068Z" fill="rgb(0,85,255)" fill-opacity="0.300000012" fill-rule="evenodd" />
</svg>
