<svg viewBox="0 0 28 28" xmlns="http://www.w3.org/2000/svg" xmlns:xlink="http://www.w3.org/1999/xlink" width="28.000000" height="28.000000" fill="none" clip-path="url(#clipPath_60)" customFrame="url(#clipPath_60)">
	<defs>
		<clipPath id="clipPath_60">
			<rect width="28.000000" height="28.000000" x="0.000000" y="0.000000" rx="8.000000" fill="rgb(255,255,255)" />
		</clipPath>
	</defs>
	<rect id="28 / Yaga / Project-Pages / Article_color" width="28.000000" height="28.000000" x="0.000000" y="0.000000" rx="8.000000" fill="rgb(0,85,255)" fill-opacity="0.100000001" />
	<path id="Vector" d="M17.2802 10.2349L20.0802 10.2349C20.8902 10.2349 21.3004 9.245 20.72 8.67497L17.92 5.91496C17.3506 5.34493 16.3703 5.755 16.3703 6.56497L16.3703 9.32498C16.3703 9.82495 16.7805 10.2349 17.2802 10.2349Z" fill="rgb(0,85,255)" fill-rule="evenodd" />
	<path id="Vector" d="M19.1799 18.9949C19.4205 18.9949 19.6604 18.9449 19.8799 18.875C20.7104 18.5949 21.3202 17.8549 21.3899 16.9549C21.3899 16.8949 21.4104 16.8249 21.4104 16.765L21.4104 11.7049C21.4104 11.7049 21.34 11.7449 21.31 11.7649C21.1903 11.825 21.0605 11.875 20.9203 11.9249C20.8205 11.9549 20.7303 11.9849 20.6305 12.0049C20.45 12.0449 20.2702 12.0549 20.0802 12.0549L17.2802 12.0549C17.0901 12.0549 16.9001 12.0349 16.7203 11.9949C16.5501 11.9549 16.3799 11.905 16.2199 11.835C16.06 11.7649 15.9103 11.6849 15.7701 11.5949C15.6204 11.495 15.4803 11.3849 15.36 11.2549C15.2403 11.125 15.12 10.9849 15.0202 10.845C14.93 10.7049 14.8404 10.5549 14.7803 10.3949C14.7099 10.2349 14.66 10.065 14.6203 9.89493C14.58 9.71497 14.5602 9.52493 14.5602 9.33489L14.5602 6.57497C14.5602 6.38493 14.58 6.20489 14.6101 6.03493C14.6299 5.93495 14.6504 5.84489 14.6805 5.74492C14.7201 5.61495 14.77 5.48489 14.8404 5.36492C14.8404 5.35493 14.85 5.34493 14.8603 5.33493L12.0801 5.33493C11.9905 5.33493 11.9099 5.35493 11.8203 5.36492C10.73 5.49489 9.88027 6.40493 9.8502 7.52491C9.8502 7.5449 9.8502 7.5549 9.8502 7.5749L9.8502 16.785C9.8502 16.8549 9.86045 16.9149 9.87002 16.9749C9.95 17.8749 10.5502 18.6149 11.3801 18.895C11.6002 18.9649 11.8299 19.0149 12.0801 19.0149L19.1901 19.0149L19.1799 18.9949Z" fill="rgb(0,85,255)" fill-rule="evenodd" />
	<path id="Vector" d="M19.1799 18.9949C19.4205 18.9949 19.6604 18.9449 19.8799 18.875C20.7104 18.5949 21.3202 17.8549 21.3899 16.9549C21.3899 16.8949 21.4104 16.8249 21.4104 16.765L21.4104 11.7049C21.4104 11.7049 21.34 11.7449 21.31 11.7649C21.1903 11.825 21.0605 11.875 20.9203 11.9249C20.8205 11.9549 20.7303 11.9849 20.6305 12.0049C20.45 12.0449 20.2702 12.0549 20.0802 12.0549L17.2802 12.0549C17.0901 12.0549 16.9001 12.0349 16.7203 11.9949C16.5501 11.9549 16.3799 11.905 16.2199 11.835C16.06 11.7649 15.9103 11.6849 15.7701 11.5949C15.6204 11.495 15.4803 11.3849 15.36 11.2549C15.2403 11.125 15.12 10.9849 15.0202 10.845C14.93 10.7049 14.8404 10.5549 14.7803 10.3949C14.7099 10.2349 14.66 10.065 14.6203 9.89493C14.58 9.71497 14.5602 9.52493 14.5602 9.33489L14.5602 6.57497C14.5602 6.38493 14.58 6.20489 14.6101 6.03493C14.6299 5.93495 14.6504 5.84489 14.6805 5.74492C14.7201 5.61495 14.77 5.48489 14.8404 5.36492C14.8404 5.35493 14.85 5.34493 14.8603 5.33493L12.0801 5.33493C11.9905 5.33493 11.9099 5.35493 11.8203 5.36492C10.73 5.49489 9.88027 6.40493 9.8502 7.52491C9.8502 7.5449 9.8502 7.5549 9.8502 7.5749L9.8502 16.785C9.8502 16.8549 9.86045 16.9149 9.87002 16.9749C9.95 17.8749 10.5502 18.6149 11.3801 18.895C11.6002 18.9649 11.8299 19.0149 12.0801 19.0149L19.1901 19.0149L19.1799 18.9949Z" fill="rgb(0,85,255)" fill-rule="evenodd" />
	<path id="Vector" d="M19.1806 20.4849L12.0705 20.4849C10.0211 20.4849 8.35107 18.815 8.35107 16.765L8.35107 8.41495C7.29082 9.14494 6.59082 10.345 6.59082 11.7249L6.59082 18.6349C6.59082 20.855 8.40098 22.665 10.6206 22.665L15.6806 22.665C17.231 22.665 18.5708 21.7749 19.2407 20.4749C19.2209 20.4749 19.2011 20.4749 19.1806 20.4749L19.1806 20.4849ZM8.08105 18.6349C8.08105 18.6349 8.08105 18.6849 8.08105 18.7149C8.08105 18.6849 8.08105 18.6649 8.08105 18.6349Z" fill="rgb(0,85,255)" fill-rule="evenodd" />
	<path id="Vector" d="M19.1806 20.4849L12.0705 20.4849C10.0211 20.4849 8.35107 18.815 8.35107 16.765L8.35107 8.41495C7.29082 9.14494 6.59082 10.345 6.59082 11.7249L6.59082 18.6349C6.59082 20.855 8.40098 22.665 10.6206 22.665L15.6806 22.665C17.231 22.665 18.5708 21.7749 19.2407 20.4749C19.2209 20.4749 19.2011 20.4749 19.1806 20.4749L19.1806 20.4849ZM8.08105 18.6349C8.08105 18.6349 8.08105 18.6849 8.08105 18.7149C8.08105 18.6849 8.08105 18.6649 8.08105 18.6349Z" fill="rgb(0,85,255)" fill-opacity="0.300000012" fill-rule="evenodd" />
</svg>
