<svg viewBox="0 0 28 28" xmlns="http://www.w3.org/2000/svg" xmlns:xlink="http://www.w3.org/1999/xlink" width="28.000000" height="28.000000" fill="none" clip-path="url(#clipPath_132)" customFrame="url(#clipPath_132)">
	<defs>
		<clipPath id="clipPath_132">
			<rect width="28.000000" height="28.000000" x="0.000000" y="0.000000" rx="8.000000" fill="rgb(255,255,255)" />
		</clipPath>
	</defs>
	<rect id="28 / Yaga / Project-Pages / Analytics_accent" width="28.000000" height="28.000000" x="0.000000" y="0.000000" rx="8.000000" fill="rgb(0,85,255)" fill-opacity="0.100000001" />
	<path id="Vector" d="M20.9394 9.27502C20.0788 8.03507 18.9488 7.10504 17.6692 6.50502C17.2788 6.31506 16.8195 6.53501 16.6691 6.94508L14.4789 12.9751C14.2895 13.485 14.6689 14.035 15.2192 14.035L21.6291 14.095C22.0694 14.095 22.4289 13.745 22.3893 13.3151C22.2587 11.825 21.7392 10.4451 20.9292 9.28502L20.9394 9.27502Z" fill="rgb(0,85,255)" fill-opacity="0.300000012" fill-rule="evenodd" />
	<path id="Vector" d="M21.6189 15.6751L15.2089 15.6151C14.9991 15.6151 14.7995 15.5851 14.5992 15.5351C14.4194 15.4851 14.2492 15.4151 14.0892 15.3251C13.9293 15.2351 13.7891 15.1351 13.649 15.0152C13.5095 14.8951 13.379 14.7451 13.2689 14.5851C13.1596 14.4251 13.0693 14.2551 12.9996 14.0851C12.9394 13.9251 12.8895 13.7451 12.869 13.5651C12.839 13.3751 12.839 13.1951 12.8492 13.0151C12.869 12.8151 12.9094 12.6151 12.9791 12.4151L15.1891 6.40513C15.2493 6.24517 15.319 6.09512 15.4092 5.95515C14.889 5.85509 14.3592 5.7951 13.8192 5.7951C9.27953 5.78511 5.60938 9.45515 5.60938 13.9951C5.60938 18.5351 9.27953 22.2051 13.8192 22.2051C17.7792 22.2051 21.0891 19.3951 21.8588 15.6551C21.7789 15.6551 21.6989 15.6751 21.6189 15.6751Z" fill="rgb(0,85,255)" fill-opacity="0.300000012" fill-rule="evenodd" />
	<path id="Vector" d="M21.6189 15.6751L15.2089 15.6151C14.9991 15.6151 14.7995 15.5851 14.5992 15.5351C14.4194 15.4851 14.2492 15.4151 14.0892 15.3251C13.9293 15.2351 13.7891 15.1351 13.649 15.0152C13.5095 14.8951 13.379 14.7451 13.2689 14.5851C13.1596 14.4251 13.0693 14.2551 12.9996 14.0851C12.9394 13.9251 12.8895 13.7451 12.869 13.5651C12.839 13.3751 12.839 13.1951 12.8492 13.0151C12.869 12.8151 12.9094 12.6151 12.9791 12.4151L15.1891 6.40513C15.2493 6.24517 15.319 6.09512 15.4092 5.95515C14.889 5.85509 14.3592 5.7951 13.8192 5.7951C9.27953 5.78511 5.60938 9.45515 5.60938 13.9951C5.60938 18.5351 9.27953 22.2051 13.8192 22.2051C17.7792 22.2051 21.0891 19.3951 21.8588 15.6551C21.7789 15.6551 21.6989 15.6751 21.6189 15.6751Z" fill="rgb(0,85,255)" fill-rule="evenodd" />
</svg>
