<svg viewBox="0 0 28 28" xmlns="http://www.w3.org/2000/svg" xmlns:xlink="http://www.w3.org/1999/xlink" width="28.000000" height="28.000000" fill="none" clip-path="url(#clipPath_27)" customFrame="url(#clipPath_27)">
	<defs>
		<clipPath id="clipPath_27">
			<rect width="28.000000" height="28.000000" x="0.000000" y="0.000000" rx="8.000000" fill="rgb(255,255,255)" />
		</clipPath>
	</defs>
	<rect id="28 / Yaga / Project-Pages / Task_accent" width="28.000000" height="28.000000" x="0.000000" y="0.000000" rx="8.000000" fill="rgb(0,85,255)" fill-opacity="0.100000001" />
	<path id="Vector" d="M21.1395 11.8099C21.0896 11.8499 21.0302 11.8799 20.9796 11.91C20.9201 11.94 20.8695 11.97 20.8101 12C20.6898 12.05 20.5701 12.0999 20.4396 12.1299C20.3097 12.1599 20.1901 12.1899 20.0602 12.1999C20 12.1999 19.9296 12.1999 19.8701 12.1999C19.7997 12.1999 19.7396 12.1999 19.6801 12.1999C19.5502 12.1899 19.4197 12.1699 19.3 12.1299L19.0997 12.0799L18.9699 12.2099C19.27 12.9099 19.4299 13.68 19.4299 14.49C19.4299 17.7399 16.7797 20.39 13.5299 20.39C10.2802 20.39 7.62993 17.7399 7.62993 14.49C7.62993 11.24 10.2802 8.58994 13.5299 8.58994C14.34 8.58994 15.1097 8.74999 15.8097 9.04991L15.9402 8.91995L15.8801 8.70991C15.8302 8.51996 15.8001 8.31992 15.8001 8.12997C15.8001 7.93993 15.8302 7.73998 15.8801 7.54994C15.93 7.35999 16.01 7.17994 16.1002 7.00999C16.1802 6.86993 16.2902 6.74996 16.4003 6.61991C15.5 6.28999 14.5403 6.09995 13.5299 6.09995C8.91028 6.09995 5.16016 9.84998 5.16016 14.47C5.16016 19.0899 8.91028 22.84 13.5299 22.84C18.1502 22.84 21.8997 19.0899 21.8997 14.47C21.8997 13.4599 21.7097 12.4899 21.3802 11.6C21.3098 11.67 21.2298 11.7399 21.1498 11.7899L21.1395 11.8099Z" fill="rgb(0,85,255)" fill-opacity="0.300000012" fill-rule="evenodd" />
	<path id="Vector" d="M15.0796 16.0699C14.9695 16.1799 14.8492 16.2799 14.7194 16.3599C14.599 16.4399 14.4692 16.4999 14.3393 16.56C14.2094 16.6099 14.0693 16.6499 13.9394 16.6799C13.7993 16.7099 13.6495 16.7199 13.4992 16.7199C13.3495 16.7199 13.2093 16.7099 13.0596 16.6799C12.9195 16.6499 12.7896 16.6099 12.6597 16.56C12.5292 16.5099 12.3993 16.4399 12.2797 16.3599C12.1491 16.2799 12.0295 16.1799 11.9194 16.0699C11.8093 15.9599 11.7095 15.8399 11.6296 15.7099C11.5496 15.5899 11.4894 15.4599 11.4293 15.3299C11.3794 15.2 11.3397 15.0599 11.3097 14.9299C11.2796 14.7899 11.2693 14.6399 11.2693 14.49C11.2693 14.3399 11.2796 14.1999 11.3097 14.0499C11.3397 13.9099 11.3794 13.78 11.4293 13.6499C11.4792 13.5199 11.5496 13.3899 11.6296 13.2699C11.7095 13.1399 11.8093 13.0199 11.9194 12.9099L14.599 10.2299C14.2491 10.1399 13.8895 10.0799 13.5094 10.0799C11.0895 10.0799 9.11946 12.05 9.11946 14.48C9.11946 16.9099 11.0895 18.8799 13.5094 18.8799C15.9293 18.8799 17.9096 16.91 17.9096 14.48C17.9096 14.0999 17.8495 13.7399 17.7592 13.3899L15.0796 16.0699L15.0796 16.0699Z" fill="rgb(0,85,255)" fill-opacity="0.300000012" fill-rule="evenodd" />
	<path id="Vector" d="M15.0796 16.0699C14.9695 16.1799 14.8492 16.2799 14.7194 16.3599C14.599 16.4399 14.4692 16.4999 14.3393 16.56C14.2094 16.6099 14.0693 16.6499 13.9394 16.6799C13.7993 16.7099 13.6495 16.7199 13.4992 16.7199C13.3495 16.7199 13.2093 16.7099 13.0596 16.6799C12.9195 16.6499 12.7896 16.6099 12.6597 16.56C12.5292 16.5099 12.3993 16.4399 12.2797 16.3599C12.1491 16.2799 12.0295 16.1799 11.9194 16.0699C11.8093 15.9599 11.7095 15.8399 11.6296 15.7099C11.5496 15.5899 11.4894 15.4599 11.4293 15.3299C11.3794 15.2 11.3397 15.0599 11.3097 14.9299C11.2796 14.7899 11.2693 14.6399 11.2693 14.49C11.2693 14.3399 11.2796 14.1999 11.3097 14.0499C11.3397 13.9099 11.3794 13.78 11.4293 13.6499C11.4792 13.5199 11.5496 13.3899 11.6296 13.2699C11.7095 13.1399 11.8093 13.0199 11.9194 12.9099L14.599 10.2299C14.2491 10.1399 13.8895 10.0799 13.5094 10.0799C11.0895 10.0799 9.11946 12.05 9.11946 14.48C9.11946 16.9099 11.0895 18.8799 13.5094 18.8799C15.9293 18.8799 17.9096 16.91 17.9096 14.48C17.9096 14.0999 17.8495 13.7399 17.7592 13.3899L15.0796 16.0699L15.0796 16.0699Z" fill="rgb(0,85,255)" fill-rule="evenodd" />
	<path id="Vector" d="M17.6 9.37001L17.3197 8.32001C17.2896 8.19004 17.2896 8.06998 17.3197 7.94001C17.3498 7.81005 17.4195 7.70999 17.5097 7.61001L19.7696 5.35005C19.9098 5.21 20.0793 5.14001 20.2796 5.14001C20.3794 5.14001 20.4696 5.16001 20.5599 5.19C20.6494 5.22999 20.7198 5.27998 20.7998 5.35005C20.8196 5.37004 20.8395 5.40004 20.86 5.42003C20.8798 5.44003 20.8996 5.47002 20.9099 5.50001C20.9399 5.55 20.9693 5.60999 20.9796 5.67006L21.2694 6.72006L22.3194 7.00999C22.4199 7.03998 22.4999 7.08005 22.5696 7.14004C22.6393 7.20002 22.6995 7.27001 22.7494 7.35999C22.8499 7.53003 22.8697 7.71998 22.8198 7.91002C22.7993 7.97001 22.7795 8.02999 22.7494 8.07998C22.7193 8.13005 22.6797 8.18004 22.6393 8.23003L20.3794 10.49C20.3794 10.49 20.2796 10.5701 20.2297 10.61C20.1798 10.64 20.1196 10.67 20.0499 10.68C19.9898 10.7 19.9194 10.71 19.8599 10.7C19.7997 10.7 19.7293 10.7 19.6698 10.67L18.6294 10.39L14.0098 15.01C13.7295 15.29 13.2695 15.29 12.9796 15.01C12.7001 14.73 12.7001 14.27 12.9796 13.98L17.6 9.36001L17.6 9.37001Z" fill="rgb(0,85,255)" fill-opacity="0.300000012" fill-rule="evenodd" />
	<path id="Vector" d="M17.6 9.37001L17.3197 8.32001C17.2896 8.19004 17.2896 8.06998 17.3197 7.94001C17.3498 7.81005 17.4195 7.70999 17.5097 7.61001L19.7696 5.35005C19.9098 5.21 20.0793 5.14001 20.2796 5.14001C20.3794 5.14001 20.4696 5.16001 20.5599 5.19C20.6494 5.22999 20.7198 5.27998 20.7998 5.35005C20.8196 5.37004 20.8395 5.40004 20.86 5.42003C20.8798 5.44003 20.8996 5.47002 20.9099 5.50001C20.9399 5.55 20.9693 5.60999 20.9796 5.67006L21.2694 6.72006L22.3194 7.00999C22.4199 7.03998 22.4999 7.08005 22.5696 7.14004C22.6393 7.20002 22.6995 7.27001 22.7494 7.35999C22.8499 7.53003 22.8697 7.71998 22.8198 7.91002C22.7993 7.97001 22.7795 8.02999 22.7494 8.07998C22.7193 8.13005 22.6797 8.18004 22.6393 8.23003L20.3794 10.49C20.3794 10.49 20.2796 10.5701 20.2297 10.61C20.1798 10.64 20.1196 10.67 20.0499 10.68C19.9898 10.7 19.9194 10.71 19.8599 10.7C19.7997 10.7 19.7293 10.7 19.6698 10.67L18.6294 10.39L14.0098 15.01C13.7295 15.29 13.2695 15.29 12.9796 15.01C12.7001 14.73 12.7001 14.27 12.9796 13.98L17.6 9.36001L17.6 9.37001Z" fill="rgb(0,85,255)" fill-rule="evenodd" />
</svg>
