<svg viewBox="0 0 28 28" xmlns="http://www.w3.org/2000/svg" xmlns:xlink="http://www.w3.org/1999/xlink" width="28.000000" height="28.000000" fill="none" clip-path="url(#clipPath_52)" customFrame="url(#clipPath_52)">
	<defs>
		<clipPath id="clipPath_52">
			<rect width="28.000000" height="28.000000" x="0.000000" y="0.000000" rx="8.000000" fill="rgb(255,255,255)" />
		</clipPath>
	</defs>
	<rect id="28 / Yaga / Project-Pages / File_accent" width="28.000000" height="28.000000" x="0.000000" y="0.000000" rx="8.000000" fill="rgb(0,85,255)" fill-opacity="0.100000001" />
	<path id="Vector" d="M10.2433 14.0344C11.5736 9.49436 17.7936 9.14436 19.6933 13.3444L20.5731 13.5344C25.013 14.4944 24.313 21.0344 19.7733 21.0344L10.823 21.0344C6.84316 20.9944 6.30312 15.3144 10.1032 14.4644L10.2433 14.0344L10.2433 14.0344Z" fill="rgb(0,85,255)" fill-rule="evenodd" />
	<path id="Vector" d="M6.10351 16.5644C6.19375 16.1744 6.32363 15.8044 6.49384 15.4544C6.57382 15.3044 6.6538 15.1544 6.75361 15.0044C6.91357 14.7544 7.10361 14.5144 7.3039 14.3044C7.51376 14.0844 7.74345 13.8944 7.99365 13.7144C8.0538 13.6744 8.11396 13.6344 8.17343 13.5944C8.39355 13.4544 8.62392 13.3344 8.86386 13.2344C9.03407 12.7444 9.25351 12.2844 9.52353 11.8644C9.57343 11.7944 9.61376 11.7144 9.66366 11.6444C9.86395 11.3444 10.0936 11.0744 10.3438 10.8144C10.564 10.5844 10.8039 10.3744 11.0637 10.1744C11.2434 10.0344 11.4335 9.90444 11.6338 9.79438C11.994 9.57443 12.3734 9.39439 12.774 9.25442C13.0139 9.16436 13.2539 9.09438 13.4938 9.03439C13.8637 8.94441 14.254 8.88443 14.6436 8.86443C15.0135 8.84435 15.3737 8.84435 15.734 8.87443C15.8139 8.87443 15.8939 8.90442 15.9739 8.91442C13.6237 5.80441 8.3539 6.45442 7.13369 10.5944L7.0038 11.0244C3.84356 11.7344 3.7041 15.7444 6.01396 17.1144C6.03379 16.9344 6.06386 16.7444 6.10351 16.5644L6.10351 16.5644Z" fill="rgb(0,85,255)" fill-rule="evenodd" />
	<path id="Vector" d="M6.10351 16.5644C6.19375 16.1744 6.32363 15.8044 6.49384 15.4544C6.57382 15.3044 6.6538 15.1544 6.75361 15.0044C6.91357 14.7544 7.10361 14.5144 7.3039 14.3044C7.51376 14.0844 7.74345 13.8944 7.99365 13.7144C8.0538 13.6744 8.11396 13.6344 8.17343 13.5944C8.39355 13.4544 8.62392 13.3344 8.86386 13.2344C9.03407 12.7444 9.25351 12.2844 9.52353 11.8644C9.57343 11.7944 9.61376 11.7144 9.66366 11.6444C9.86395 11.3444 10.0936 11.0744 10.3438 10.8144C10.564 10.5844 10.8039 10.3744 11.0637 10.1744C11.2434 10.0344 11.4335 9.90444 11.6338 9.79438C11.994 9.57443 12.3734 9.39439 12.774 9.25442C13.0139 9.16436 13.2539 9.09438 13.4938 9.03439C13.8637 8.94441 14.254 8.88443 14.6436 8.86443C15.0135 8.84435 15.3737 8.84435 15.734 8.87443C15.8139 8.87443 15.8939 8.90442 15.9739 8.91442C13.6237 5.80441 8.3539 6.45442 7.13369 10.5944L7.0038 11.0244C3.84356 11.7344 3.7041 15.7444 6.01396 17.1144C6.03379 16.9344 6.06386 16.7444 6.10351 16.5644L6.10351 16.5644Z" fill="rgb(0,85,255)" fill-opacity="0.300000012" fill-rule="evenodd" />
</svg>
