<svg viewBox="0 0 28 28" xmlns="http://www.w3.org/2000/svg" xmlns:xlink="http://www.w3.org/1999/xlink" width="28.000000" height="28.000000" fill="none" clip-path="url(#clipPath_92)" customFrame="url(#clipPath_92)">
	<defs>
		<clipPath id="clipPath_92">
			<rect width="28.000000" height="28.000000" x="0.000000" y="0.000000" rx="8.000000" fill="rgb(255,255,255)" />
		</clipPath>
	</defs>
	<rect id="28 / Yaga / Project-Pages / Dashboard_color" width="28.000000" height="28.000000" x="0.000000" y="0.000000" rx="8.000000" fill="rgb(59,188,158)" fill-opacity="0.100000001" />
	<path id="Vector" d="M7.43566 18.93C7.26544 18.55 7.11573 18.16 6.99542 17.76C6.88536 17.4 6.79581 17.0301 6.73565 16.6601C6.64542 16.12 6.59552 15.5801 6.59552 15.02C6.59552 14.32 6.66524 13.63 6.81563 12.96C6.93526 12.4001 7.11573 11.85 7.34542 11.3101C7.57579 10.77 7.84581 10.2601 8.16574 9.77002C8.51574 9.24007 8.92521 8.74002 9.38527 8.28004C9.84533 7.82007 10.3457 7.41 10.8755 7.06C11.3554 6.74008 11.8756 6.47006 12.4157 6.24003C12.9557 6.01 13.5053 5.84004 14.0652 5.71007C14.1253 5.70007 14.1957 5.69008 14.2552 5.68008C10.3156 4.39005 6.04522 6.48005 4.66572 10.41C3.49541 13.7501 4.78535 17.3601 7.58536 19.26C7.53546 19.15 7.4753 19.0501 7.43566 18.94L7.43566 18.93Z" fill="rgb(59,188,158)" fill-opacity="0.300000012" fill-rule="evenodd" />
	<path id="Vector" d="M16.1255 7.38001C11.9057 7.38001 8.48566 10.8 8.48566 15.02C8.48566 16.55 8.93546 17.97 9.70588 19.17L8.85548 21.42C8.56564 22.18 9.30597 22.92 10.0654 22.6401L12.4854 21.75C13.5655 22.34 14.8055 22.67 16.1255 22.67C20.3454 22.67 23.7654 19.25 23.7654 15.03C23.7654 10.81 20.3454 7.39 16.1255 7.39L16.1255 7.38001ZM16.1255 10.8C16.9855 10.8 17.6957 11.5 17.6957 12.37C17.6957 13.24 16.9957 13.94 16.1255 13.94C15.256 13.94 14.556 13.24 14.556 12.37C14.556 11.5 15.256 10.8 16.1255 10.8ZM17.6855 18.53C17.6855 18.94 17.356 19.27 16.9458 19.27L15.2854 19.27C14.8759 19.27 14.5457 18.94 14.5457 18.53L14.5457 15.44C14.5457 15.03 14.8759 14.7 15.2854 14.7L16.9458 14.7C17.356 14.7 17.6855 15.03 17.6855 15.44L17.6855 18.53Z" fill="rgb(59,188,158)" fill-opacity="0.300000012" fill-rule="evenodd" />
	<path id="Vector" d="M16.1255 7.38001C11.9057 7.38001 8.48566 10.8 8.48566 15.02C8.48566 16.55 8.93546 17.97 9.70588 19.17L8.85548 21.42C8.56564 22.18 9.30597 22.92 10.0654 22.6401L12.4854 21.75C13.5655 22.34 14.8055 22.67 16.1255 22.67C20.3454 22.67 23.7654 19.25 23.7654 15.03C23.7654 10.81 20.3454 7.39 16.1255 7.39L16.1255 7.38001ZM16.1255 10.8C16.9855 10.8 17.6957 11.5 17.6957 12.37C17.6957 13.24 16.9957 13.94 16.1255 13.94C15.256 13.94 14.556 13.24 14.556 12.37C14.556 11.5 15.256 10.8 16.1255 10.8ZM17.6855 18.53C17.6855 18.94 17.356 19.27 16.9458 19.27L15.2854 19.27C14.8759 19.27 14.5457 18.94 14.5457 18.53L14.5457 15.44C14.5457 15.03 14.8759 14.7 15.2854 14.7L16.9458 14.7C17.356 14.7 17.6855 15.03 17.6855 15.44L17.6855 18.53Z" fill="rgb(59,188,158)" fill-rule="evenodd" />
</svg>
