<svg viewBox="0 0 28 28" xmlns="http://www.w3.org/2000/svg" xmlns:xlink="http://www.w3.org/1999/xlink" width="28.000000" height="28.000000" fill="none" clip-path="url(#clipPath_40)" customFrame="url(#clipPath_40)">
	<defs>
		<clipPath id="clipPath_40">
			<rect width="28.000000" height="28.000000" x="0.000000" y="0.000000" rx="8.000000" fill="rgb(255,255,255)" />
		</clipPath>
	</defs>
	<rect id="28 / Yaga / Project-Pages / File_gray" width="28.000000" height="28.000000" x="0.000000" y="0.000000" rx="8.000000" fill="rgb(241,243,249)" />
	<path id="Vector" d="M10.2433 14.0344C11.5736 9.49443 17.7936 9.14443 19.6933 13.3444L20.5731 13.5345C25.013 14.4945 24.313 21.0345 19.7733 21.0345L10.823 21.0345C6.84316 20.9945 6.30312 15.3145 10.1032 14.4644L10.2433 14.0344L10.2433 14.0344Z" fill="rgb(161,169,184)" fill-rule="evenodd" />
	<path id="Vector" d="M6.10351 16.5646C6.19375 16.1745 6.32363 15.8045 6.49384 15.4545C6.57382 15.3046 6.6538 15.1546 6.75361 15.0045C6.91357 14.7545 7.10361 14.5146 7.3039 14.3045C7.51376 14.0845 7.74345 13.8946 7.99365 13.7145C8.0538 13.6745 8.11396 13.6345 8.17343 13.5945C8.39355 13.4546 8.62392 13.3345 8.86386 13.2345C9.03407 12.7446 9.25351 12.2845 9.52353 11.8645C9.57343 11.7946 9.61376 11.7146 9.66366 11.6445C9.86395 11.3446 10.0936 11.0746 10.3438 10.8145C10.564 10.5845 10.8039 10.3746 11.0637 10.1745C11.2434 10.0346 11.4335 9.90459 11.6338 9.79453C11.994 9.57458 12.3734 9.39454 12.774 9.25457C13.0139 9.16451 13.2539 9.09453 13.4938 9.03454C13.8637 8.94456 14.254 8.88458 14.6436 8.86458C15.0135 8.8445 15.3737 8.8445 15.734 8.87458C15.8139 8.87458 15.8939 8.90457 15.9739 8.91457C13.6237 5.80456 8.3539 6.45457 7.13369 10.5945L7.0038 11.0246C3.84356 11.7346 3.7041 15.7445 6.01396 17.1145C6.03379 16.9346 6.06386 16.7446 6.10351 16.5646L6.10351 16.5646Z" fill="rgb(161,169,184)" fill-rule="evenodd" />
	<path id="Vector" d="M6.10351 16.5646C6.19375 16.1745 6.32363 15.8045 6.49384 15.4545C6.57382 15.3046 6.6538 15.1546 6.75361 15.0045C6.91357 14.7545 7.10361 14.5146 7.3039 14.3045C7.51376 14.0845 7.74345 13.8946 7.99365 13.7145C8.0538 13.6745 8.11396 13.6345 8.17343 13.5945C8.39355 13.4546 8.62392 13.3345 8.86386 13.2345C9.03407 12.7446 9.25351 12.2845 9.52353 11.8645C9.57343 11.7946 9.61376 11.7146 9.66366 11.6445C9.86395 11.3446 10.0936 11.0746 10.3438 10.8145C10.564 10.5845 10.8039 10.3746 11.0637 10.1745C11.2434 10.0346 11.4335 9.90459 11.6338 9.79453C11.994 9.57458 12.3734 9.39454 12.774 9.25457C13.0139 9.16451 13.2539 9.09453 13.4938 9.03454C13.8637 8.94456 14.254 8.88458 14.6436 8.86458C15.0135 8.8445 15.3737 8.8445 15.734 8.87458C15.8139 8.87458 15.8939 8.90457 15.9739 8.91457C13.6237 5.80456 8.3539 6.45457 7.13369 10.5945L7.0038 11.0246C3.84356 11.7346 3.7041 15.7445 6.01396 17.1145C6.03379 16.9346 6.06386 16.7446 6.10351 16.5646L6.10351 16.5646Z" fill="rgb(208,212,220)" fill-rule="evenodd" />
</svg>
