<svg viewBox="0 0 28 28" xmlns="http://www.w3.org/2000/svg" xmlns:xlink="http://www.w3.org/1999/xlink" width="28.000000" height="28.000000" fill="none" clip-path="url(#clipPath_72)" customFrame="url(#clipPath_72)">
	<defs>
		<clipPath id="clipPath_72">
			<rect width="28.000000" height="28.000000" x="0.000000" y="0.000000" rx="8.000000" fill="rgb(255,255,255)" />
		</clipPath>
	</defs>
	<rect id="28 / Yaga / Project-Pages / Scrum_gray" width="28.000000" height="28.000000" x="0.000000" y="0.000000" rx="8.000000" fill="rgb(241,243,249)" />
	<path id="Vector" d="M14.5155 7.707C14.7548 7.51698 15.0854 7.48697 15.3751 7.627C15.6451 7.76703 15.8254 8.04698 15.8254 8.35705L15.8254 11.757C15.8254 12.347 16.3048 12.827 16.8953 12.827C17.4849 12.827 17.9651 12.347 17.9651 11.757L17.9651 11.377C17.9651 11.057 18.1454 10.777 18.4248 10.647C18.7051 10.517 19.0452 10.547 19.2853 10.7471C20.3149 11.5671 21.025 12.457 21.4651 13.447C21.9154 14.427 22.0649 15.457 22.0649 16.5271C22.0649 19.997 19.105 22.777 15.7554 22.777C12.4049 22.777 9.65515 19.957 9.65515 16.5271C9.65515 13.887 10.9053 11.677 12.0947 10.157C12.6954 9.39697 13.285 8.78697 13.7448 8.37703C13.9652 8.16703 14.1652 8.00703 14.295 7.89702C14.3549 7.83699 14.4155 7.79704 14.4548 7.76703L14.5249 7.72697L14.5155 7.707Z" fill="rgb(161,169,184)" fill-rule="evenodd" />
	<path id="Vector" d="M9.28516 21.0069C8.98523 20.567 8.73572 20.0969 8.53577 19.5969C8.35547 19.1469 8.21533 18.6969 8.11536 18.2369C7.99573 17.677 7.93591 17.1069 7.93591 16.5169C7.93591 16.397 7.93591 16.2769 7.93591 16.157C7.98547 14.837 8.2854 13.5269 8.84595 12.2269C9.30566 11.147 9.93542 10.0969 10.7352 9.07696C10.9958 8.74691 11.2556 8.43695 11.5359 8.12698C11.8657 7.76692 12.2152 7.417 12.5758 7.08696C12.616 7.0469 12.6954 6.97694 12.7552 6.92695L12.7552 6.117C12.7552 5.77692 12.5553 5.46695 12.2554 5.31699C11.9452 5.16692 11.5854 5.19693 11.3154 5.40692L11.2454 5.45691C11.2052 5.48692 11.1454 5.53691 11.0753 5.59694C10.9352 5.72693 10.7156 5.89697 10.4755 6.12694C9.97559 6.58697 9.31592 7.257 8.6554 8.09697C7.31555 9.777 5.93555 12.2169 5.93555 15.127C5.93555 17.7169 7.33521 19.9969 9.42529 21.177C9.38513 21.117 9.32532 21.067 9.28516 21.0069Z" fill="rgb(161,169,184)" fill-rule="evenodd" />
	<path id="Vector" d="M9.28516 21.0069C8.98523 20.567 8.73572 20.0969 8.53577 19.5969C8.35547 19.1469 8.21533 18.6969 8.11536 18.2369C7.99573 17.677 7.93591 17.1069 7.93591 16.5169C7.93591 16.397 7.93591 16.2769 7.93591 16.157C7.98547 14.837 8.2854 13.5269 8.84595 12.2269C9.30566 11.147 9.93542 10.0969 10.7352 9.07696C10.9958 8.74691 11.2556 8.43695 11.5359 8.12698C11.8657 7.76692 12.2152 7.417 12.5758 7.08696C12.616 7.0469 12.6954 6.97694 12.7552 6.92695L12.7552 6.117C12.7552 5.77692 12.5553 5.46695 12.2554 5.31699C11.9452 5.16692 11.5854 5.19693 11.3154 5.40692L11.2454 5.45691C11.2052 5.48692 11.1454 5.53691 11.0753 5.59694C10.9352 5.72693 10.7156 5.89697 10.4755 6.12694C9.97559 6.58697 9.31592 7.257 8.6554 8.09697C7.31555 9.777 5.93555 12.2169 5.93555 15.127C5.93555 17.7169 7.33521 19.9969 9.42529 21.177C9.38513 21.117 9.32532 21.067 9.28516 21.0069Z" fill="rgb(208,212,220)" fill-rule="evenodd" />
</svg>
