<svg viewBox="0 0 28 28" xmlns="http://www.w3.org/2000/svg" xmlns:xlink="http://www.w3.org/1999/xlink" width="28.000000" height="28.000000" fill="none" clip-path="url(#clipPath_96)" customFrame="url(#clipPath_96)">
	<defs>
		<clipPath id="clipPath_96">
			<rect width="28.000000" height="28.000000" x="0.000000" y="0.000000" rx="8.000000" fill="rgb(255,255,255)" />
		</clipPath>
	</defs>
	<rect id="28 / Yaga / Project-Pages / Dashboard_black" width="28.000000" height="28.000000" x="0.000000" y="0.000000" rx="8.000000" fill="rgb(241,243,249)" />
	<path id="Vector" d="M7.43566 18.9302C7.26544 18.5502 7.11573 18.1602 6.99542 17.7602C6.88536 17.4002 6.79581 17.0302 6.73565 16.6602C6.64542 16.1202 6.59552 15.5802 6.59552 15.0202C6.59552 14.3202 6.66524 13.6302 6.81563 12.9602C6.93526 12.4003 7.11573 11.8502 7.34542 11.3103C7.57579 10.7702 7.84581 10.2603 8.16574 9.77021C8.51574 9.24025 8.92521 8.7402 9.38527 8.28023C9.84533 7.82025 10.3457 7.41018 10.8755 7.06018C11.3554 6.74026 11.8756 6.47024 12.4157 6.24021C12.9557 6.01018 13.5053 5.84022 14.0652 5.71025C14.1253 5.70026 14.1957 5.69026 14.2552 5.68026C10.3156 4.39023 6.04522 6.48024 4.66572 10.4102C3.49541 13.7503 4.78535 17.3602 7.58536 19.2602C7.53546 19.1502 7.4753 19.0503 7.43566 18.9402L7.43566 18.9302Z" fill="rgb(208,212,220)" fill-rule="evenodd" />
	<path id="Vector" d="M16.1255 7.38019C11.9057 7.38019 8.48566 10.8002 8.48566 15.0202C8.48566 16.5502 8.93546 17.9702 9.70588 19.1702L8.85548 21.4202C8.56564 22.1802 9.30597 22.9202 10.0654 22.6402L12.4854 21.7502C13.5655 22.3402 14.8055 22.6702 16.1255 22.6702C20.3454 22.6702 23.7654 19.2502 23.7654 15.0302C23.7654 10.8102 20.3454 7.39019 16.1255 7.39019L16.1255 7.38019ZM16.1255 10.8002C16.9855 10.8002 17.6957 11.5002 17.6957 12.3702C17.6957 13.2402 16.9957 13.9402 16.1255 13.9402C15.256 13.9402 14.556 13.2402 14.556 12.3702C14.556 11.5002 15.256 10.8002 16.1255 10.8002ZM17.6855 18.5302C17.6855 18.9402 17.356 19.2702 16.9458 19.2702L15.2854 19.2702C14.8759 19.2702 14.5457 18.9402 14.5457 18.5302L14.5457 15.4402C14.5457 15.0302 14.8759 14.7002 15.2854 14.7002L16.9458 14.7002C17.356 14.7002 17.6855 15.0302 17.6855 15.4402L17.6855 18.5302Z" fill="rgb(208,212,220)" fill-rule="evenodd" />
	<path id="Vector" d="M16.1255 7.38019C11.9057 7.38019 8.48566 10.8002 8.48566 15.0202C8.48566 16.5502 8.93546 17.9702 9.70588 19.1702L8.85548 21.4202C8.56564 22.1802 9.30597 22.9202 10.0654 22.6402L12.4854 21.7502C13.5655 22.3402 14.8055 22.6702 16.1255 22.6702C20.3454 22.6702 23.7654 19.2502 23.7654 15.0302C23.7654 10.8102 20.3454 7.39019 16.1255 7.39019L16.1255 7.38019ZM16.1255 10.8002C16.9855 10.8002 17.6957 11.5002 17.6957 12.3702C17.6957 13.2402 16.9957 13.9402 16.1255 13.9402C15.256 13.9402 14.556 13.2402 14.556 12.3702C14.556 11.5002 15.256 10.8002 16.1255 10.8002ZM17.6855 18.5302C17.6855 18.9402 17.356 19.2702 16.9458 19.2702L15.2854 19.2702C14.8759 19.2702 14.5457 18.9402 14.5457 18.5302L14.5457 15.4402C14.5457 15.0302 14.8759 14.7002 15.2854 14.7002L16.9458 14.7002C17.356 14.7002 17.6855 15.0302 17.6855 15.4402L17.6855 18.5302Z" fill="rgb(58,71,96)" fill-rule="evenodd" />
</svg>
