<svg viewBox="0 0 28 28" xmlns="http://www.w3.org/2000/svg" xmlns:xlink="http://www.w3.org/1999/xlink" width="28.000000" height="28.000000" fill="none" clip-path="url(#clipPath_116)" customFrame="url(#clipPath_116)">
	<defs>
		<clipPath id="clipPath_116">
			<rect width="28.000000" height="28.000000" x="0.000000" y="0.000000" rx="8.000000" fill="rgb(255,255,255)" />
		</clipPath>
	</defs>
	<rect id="28 / Yaga / Project-Pages / Team_accent" width="28.000000" height="28.000000" x="0.000000" y="0.000000" rx="8.000000" fill="rgb(0,85,255)" fill-opacity="0.100000001" />
	<path id="Vector" d="M19.0242 11.2851C19.0242 9.6051 17.6344 8.28508 15.9746 8.28508C14.3141 8.28508 12.9244 9.6051 12.9244 11.2851C12.9244 12.9651 14.3141 14.2851 15.9746 14.2851C17.6344 14.2851 19.0242 12.9651 19.0242 11.2851ZM21.3047 17.9851C18.7043 14.3651 13.1841 14.0051 10.7744 17.6651C10.5741 17.9651 10.3041 18.5151 10.2446 18.955C10.2241 19.0851 10.2043 19.4751 10.2043 19.4751C10.2043 20.7451 11.2345 21.7651 12.4944 21.7651L19.4446 21.7651C20.7148 21.7651 21.7949 20.7351 21.7347 19.4751C21.7142 19.0951 21.5843 18.3651 21.3047 17.9851Z" fill="rgb(0,85,255)" fill-rule="evenodd" />
	<path id="Vector" d="M11.3849 12.185C11.3247 11.895 11.2851 11.595 11.2851 11.2849C11.2851 10.9349 11.3247 10.5949 11.3951 10.265C11.4546 9.98501 11.5448 9.71499 11.6645 9.45497C11.7745 9.20494 11.9051 8.965 12.0446 8.74497C12.225 8.47495 12.4349 8.21501 12.6748 7.97499C12.8847 7.76495 13.1151 7.585 13.355 7.42495C13.5649 7.28499 13.7946 7.16501 14.0345 7.06495C13.4952 6.55499 12.7548 6.23499 11.955 6.23499C10.2945 6.23499 8.90475 7.55501 8.90475 9.23502C8.90475 10.715 9.98485 11.925 11.3849 12.185Z" fill="rgb(0,85,255)" fill-rule="evenodd" />
	<path id="Vector" d="M11.3849 12.185C11.3247 11.895 11.2851 11.595 11.2851 11.2849C11.2851 10.9349 11.3247 10.5949 11.3951 10.265C11.4546 9.98501 11.5448 9.71499 11.6645 9.45497C11.7745 9.20494 11.9051 8.965 12.0446 8.74497C12.225 8.47495 12.4349 8.21501 12.6748 7.97499C12.8847 7.76495 13.1151 7.585 13.355 7.42495C13.5649 7.28499 13.7946 7.16501 14.0345 7.06495C13.4952 6.55499 12.7548 6.23499 11.955 6.23499C10.2945 6.23499 8.90475 7.55501 8.90475 9.23502C8.90475 10.715 9.98485 11.925 11.3849 12.185Z" fill="rgb(0,85,255)" fill-opacity="0.300000012" fill-rule="evenodd" />
	<path id="Vector" d="M8.56499 19.4749L8.53491 19.0049C8.52466 18.0849 8.87467 17.5349 9.07496 17.205C9.13444 17.1049 9.48445 16.6449 9.48445 16.6449L9.48445 16.6249C9.78455 16.2749 10.0949 15.9449 10.4347 15.6449C10.5946 15.5049 10.7546 15.3749 10.9248 15.2449C11.1648 15.0649 11.415 14.8949 11.6747 14.7349C11.9249 14.5849 12.1744 14.4549 12.4349 14.3349C12.2845 14.1749 12.1546 13.9949 12.035 13.8149C11.9051 13.6149 11.7848 13.3949 11.685 13.1649C9.84471 13.2349 7.75492 14.065 6.68438 15.7849C6.44444 16.2049 6.26465 16.855 6.26465 17.565C6.28447 18.8249 7.21486 19.7149 8.47476 19.7149L8.59439 19.7149C8.59439 19.7149 8.56499 19.5549 8.56499 19.4749Z" fill="rgb(0,85,255)" fill-rule="evenodd" />
	<path id="Vector" d="M8.56499 19.4749L8.53491 19.0049C8.52466 18.0849 8.87467 17.5349 9.07496 17.205C9.13444 17.1049 9.48445 16.6449 9.48445 16.6449L9.48445 16.6249C9.78455 16.2749 10.0949 15.9449 10.4347 15.6449C10.5946 15.5049 10.7546 15.3749 10.9248 15.2449C11.1648 15.0649 11.415 14.8949 11.6747 14.7349C11.9249 14.5849 12.1744 14.4549 12.4349 14.3349C12.2845 14.1749 12.1546 13.9949 12.035 13.8149C11.9051 13.6149 11.7848 13.3949 11.685 13.1649C9.84471 13.2349 7.75492 14.065 6.68438 15.7849C6.44444 16.2049 6.26465 16.855 6.26465 17.565C6.28447 18.8249 7.21486 19.7149 8.47476 19.7149L8.59439 19.7149C8.59439 19.7149 8.56499 19.5549 8.56499 19.4749Z" fill="rgb(0,85,255)" fill-opacity="0.300000012" fill-rule="evenodd" />
</svg>
