<svg viewBox="0 0 28 28" xmlns="http://www.w3.org/2000/svg" xmlns:xlink="http://www.w3.org/1999/xlink" width="28.000000" height="28.000000" fill="none" clip-path="url(#clipPath_76)" customFrame="url(#clipPath_76)">
	<defs>
		<clipPath id="clipPath_76">
			<rect width="28.000000" height="28.000000" x="0.000000" y="0.000000" rx="8.000000" fill="rgb(255,255,255)" />
		</clipPath>
	</defs>
	<rect id="28 / Yaga / Project-Pages / Scrum_color" width="28.000000" height="28.000000" x="0.000000" y="0.000000" rx="8.000000" fill="rgb(255,71,71)" fill-opacity="0.100000001" />
	<path id="Vector" d="M14.5154 7.70686C14.7546 7.51684 15.0853 7.48683 15.375 7.62686C15.645 7.76689 15.8253 8.04684 15.8253 8.35691L15.8253 11.7568C15.8253 12.3469 16.3047 12.8269 16.8951 12.8269C17.4847 12.8269 17.965 12.3469 17.965 11.7568L17.965 11.3769C17.965 11.0569 18.1453 10.7768 18.4247 10.6468C18.705 10.5169 19.045 10.5469 19.2852 10.7469C20.3148 11.5669 21.0249 12.4569 21.465 13.4469C21.9153 14.4269 22.0648 15.4569 22.0648 16.5269C22.0648 19.9969 19.1049 22.7769 15.7552 22.7769C12.4048 22.7769 9.65503 19.9568 9.65503 16.5269C9.65503 13.8869 10.9052 11.6768 12.0946 10.1569C12.6953 9.39683 13.2849 8.78683 13.7446 8.37689C13.9651 8.1669 14.165 8.00689 14.2949 7.89688C14.3547 7.83685 14.4154 7.7969 14.4547 7.76689L14.5248 7.72683L14.5154 7.70686Z" fill="rgb(255,71,71)" fill-rule="evenodd" />
	<path id="Vector" d="M9.28418 21.0067C8.98425 20.5667 8.73474 20.0967 8.53479 19.5967C8.35449 19.1467 8.21436 18.6967 8.11438 18.2366C7.99475 17.6767 7.93494 17.1067 7.93494 16.5167C7.93494 16.3967 7.93494 16.2767 7.93494 16.1567C7.9845 14.8367 8.28442 13.5267 8.84497 12.2267C9.30469 11.1467 9.93445 10.0967 10.7343 9.07672C10.9949 8.74667 11.2546 8.4367 11.5349 8.12674C11.8647 7.76667 12.2142 7.41676 12.5748 7.08671C12.615 7.04666 12.6945 6.9767 12.7543 6.92671L12.7543 6.11676C12.7543 5.77667 12.5543 5.4667 12.2544 5.31674C11.9442 5.16667 11.5845 5.19669 11.3145 5.40668L11.2444 5.45666C11.2042 5.48668 11.1444 5.53667 11.0743 5.59669C10.9342 5.72668 10.7146 5.89673 10.4745 6.12669C9.97461 6.58673 9.31494 7.25676 8.65442 8.09672C7.31458 9.77676 5.93457 12.2167 5.93457 15.1267C5.93457 17.7167 7.33423 19.9967 9.42432 21.1767C9.38416 21.1167 9.32434 21.0667 9.28418 21.0067Z" fill="rgb(255,71,71)" fill-rule="evenodd" />
	<path id="Vector" d="M9.28418 21.0067C8.98425 20.5667 8.73474 20.0967 8.53479 19.5967C8.35449 19.1467 8.21436 18.6967 8.11438 18.2366C7.99475 17.6767 7.93494 17.1067 7.93494 16.5167C7.93494 16.3967 7.93494 16.2767 7.93494 16.1567C7.9845 14.8367 8.28442 13.5267 8.84497 12.2267C9.30469 11.1467 9.93445 10.0967 10.7343 9.07672C10.9949 8.74667 11.2546 8.4367 11.5349 8.12674C11.8647 7.76667 12.2142 7.41676 12.5748 7.08671C12.615 7.04666 12.6945 6.9767 12.7543 6.92671L12.7543 6.11676C12.7543 5.77667 12.5543 5.4667 12.2544 5.31674C11.9442 5.16667 11.5845 5.19669 11.3145 5.40668L11.2444 5.45666C11.2042 5.48668 11.1444 5.53667 11.0743 5.59669C10.9342 5.72668 10.7146 5.89673 10.4745 6.12669C9.97461 6.58673 9.31494 7.25676 8.65442 8.09672C7.31458 9.77676 5.93457 12.2167 5.93457 15.1267C5.93457 17.7167 7.33423 19.9967 9.42432 21.1767C9.38416 21.1167 9.32434 21.0667 9.28418 21.0067Z" fill="rgb(255,71,71)" fill-opacity="0.300000012" fill-rule="evenodd" />
</svg>
