<svg viewBox="0 0 28 28" xmlns="http://www.w3.org/2000/svg" xmlns:xlink="http://www.w3.org/1999/xlink" width="28.000000" height="28.000000" fill="none" clip-path="url(#clipPath_64)" customFrame="url(#clipPath_64)">
	<defs>
		<clipPath id="clipPath_64">
			<rect width="28.000000" height="28.000000" x="0.000000" y="0.000000" rx="8.000000" fill="rgb(255,255,255)" />
		</clipPath>
	</defs>
	<rect id="28 / Yaga / Project-Pages / Article_black" width="28.000000" height="28.000000" x="0.000000" y="0.000000" rx="8.000000" fill="rgb(241,243,249)" />
	<path id="Vector" d="M17.2792 10.235L20.0792 10.235C20.8893 10.235 21.2994 9.2451 20.719 8.67507L17.919 5.91506C17.3496 5.34503 16.3693 5.7551 16.3693 6.56507L16.3693 9.32508C16.3693 9.82504 16.7795 10.235 17.2792 10.235Z" fill="rgb(58,71,96)" fill-rule="evenodd" />
	<path id="Vector" d="M19.1796 18.9951C19.4202 18.9951 19.6602 18.9451 19.8796 18.8751C20.7102 18.5951 21.3199 17.8551 21.3896 16.9551C21.3896 16.8951 21.4102 16.8251 21.4102 16.7651L21.4102 11.7051C21.4102 11.7051 21.3397 11.7451 21.3097 11.7651C21.19 11.8252 21.0602 11.8751 20.92 11.9251C20.8202 11.9551 20.73 11.9851 20.6302 12.0051C20.4497 12.0451 20.2699 12.0551 20.0799 12.0551L17.2799 12.0551C17.0898 12.0551 16.8998 12.0351 16.72 11.9951C16.5498 11.9551 16.3796 11.9051 16.2196 11.8351C16.0597 11.7651 15.91 11.6851 15.7698 11.5951C15.6201 11.4951 15.48 11.3851 15.3597 11.2551C15.24 11.1252 15.1197 10.9851 15.0199 10.8451C14.9297 10.7051 14.8401 10.5551 14.78 10.3951C14.7096 10.2351 14.6597 10.0652 14.62 9.89511C14.5797 9.71515 14.5599 9.52512 14.5599 9.33508L14.5599 6.57515C14.5599 6.38511 14.5797 6.20507 14.6098 6.03511C14.6296 5.93514 14.6501 5.84507 14.6802 5.7451C14.7198 5.61513 14.7697 5.48508 14.8401 5.36511C14.8401 5.35511 14.8497 5.34511 14.86 5.33511L12.0798 5.33511C11.9902 5.33511 11.9096 5.35511 11.82 5.36511C10.7297 5.49507 9.87998 6.40511 9.8499 7.52509C9.8499 7.54509 9.8499 7.55508 9.8499 7.57508L9.8499 16.7851C9.8499 16.8551 9.86016 16.9151 9.86973 16.9751C9.94971 17.8751 10.5499 18.6151 11.3798 18.8951C11.5999 18.9651 11.8296 19.0151 12.0798 19.0151L19.1898 19.0151L19.1796 18.9951Z" fill="rgb(58,71,96)" fill-rule="evenodd" />
	<path id="Vector" d="M19.1796 18.9951C19.4202 18.9951 19.6602 18.9451 19.8796 18.8751C20.7102 18.5951 21.3199 17.8551 21.3896 16.9551C21.3896 16.8951 21.4102 16.8251 21.4102 16.7651L21.4102 11.7051C21.4102 11.7051 21.3397 11.7451 21.3097 11.7651C21.19 11.8252 21.0602 11.8751 20.92 11.9251C20.8202 11.9551 20.73 11.9851 20.6302 12.0051C20.4497 12.0451 20.2699 12.0551 20.0799 12.0551L17.2799 12.0551C17.0898 12.0551 16.8998 12.0351 16.72 11.9951C16.5498 11.9551 16.3796 11.9051 16.2196 11.8351C16.0597 11.7651 15.91 11.6851 15.7698 11.5951C15.6201 11.4951 15.48 11.3851 15.3597 11.2551C15.24 11.1252 15.1197 10.9851 15.0199 10.8451C14.9297 10.7051 14.8401 10.5551 14.78 10.3951C14.7096 10.2351 14.6597 10.0652 14.62 9.89511C14.5797 9.71515 14.5599 9.52512 14.5599 9.33508L14.5599 6.57515C14.5599 6.38511 14.5797 6.20507 14.6098 6.03511C14.6296 5.93514 14.6501 5.84507 14.6802 5.7451C14.7198 5.61513 14.7697 5.48508 14.8401 5.36511C14.8401 5.35511 14.8497 5.34511 14.86 5.33511L12.0798 5.33511C11.9902 5.33511 11.9096 5.35511 11.82 5.36511C10.7297 5.49507 9.87998 6.40511 9.8499 7.52509C9.8499 7.54509 9.8499 7.55508 9.8499 7.57508L9.8499 16.7851C9.8499 16.8551 9.86016 16.9151 9.86973 16.9751C9.94971 17.8751 10.5499 18.6151 11.3798 18.8951C11.5999 18.9651 11.8296 19.0151 12.0798 19.0151L19.1898 19.0151L19.1796 18.9951Z" fill="rgb(58,71,96)" fill-rule="evenodd" />
	<path id="Vector" d="M19.1796 20.485L12.0695 20.485C10.0201 20.485 8.3501 18.8151 8.3501 16.7651L8.3501 8.41504C7.28984 9.14504 6.58984 10.3451 6.58984 11.725L6.58984 18.635C6.58984 20.8551 8.4 22.6651 10.6196 22.6651L15.6796 22.6651C17.23 22.6651 18.5698 21.775 19.2397 20.475C19.2199 20.475 19.2001 20.475 19.1796 20.475L19.1796 20.485ZM8.08008 18.635C8.08008 18.635 8.08008 18.685 8.08008 18.715C8.08008 18.685 8.08008 18.665 8.08008 18.635Z" fill="rgb(58,71,96)" fill-rule="evenodd" />
	<path id="Vector" d="M19.1796 20.485L12.0695 20.485C10.0201 20.485 8.3501 18.8151 8.3501 16.7651L8.3501 8.41504C7.28984 9.14504 6.58984 10.3451 6.58984 11.725L6.58984 18.635C6.58984 20.8551 8.4 22.6651 10.6196 22.6651L15.6796 22.6651C17.23 22.6651 18.5698 21.775 19.2397 20.475C19.2199 20.475 19.2001 20.475 19.1796 20.475L19.1796 20.485ZM8.08008 18.635C8.08008 18.635 8.08008 18.685 8.08008 18.715C8.08008 18.685 8.08008 18.665 8.08008 18.635Z" fill="rgb(208,212,220)" fill-rule="evenodd" />
</svg>
