<svg viewBox="0 0 28 28" xmlns="http://www.w3.org/2000/svg" xmlns:xlink="http://www.w3.org/1999/xlink" width="28.000000" height="28.000000" fill="none" clip-path="url(#clipPath_80)" customFrame="url(#clipPath_80)">
	<defs>
		<clipPath id="clipPath_80">
			<rect width="28.000000" height="28.000000" x="0.000000" y="0.000000" rx="8.000000" fill="rgb(255,255,255)" />
		</clipPath>
	</defs>
	<rect id="28 / Yaga / Project-Pages / Scrum_black" width="28.000000" height="28.000000" x="0.000000" y="0.000000" rx="8.000000" fill="rgb(241,243,249)" />
	<path id="Vector" d="M14.5144 7.70698C14.755 7.51694 15.0845 7.48695 15.375 7.62692C15.645 7.76697 15.8248 8.0469 15.8248 8.35691L15.8248 11.7569C15.8248 12.347 16.3047 12.8269 16.8946 12.8269C17.4846 12.8269 17.9645 12.347 17.9645 11.7569L17.9645 11.3769C17.9645 11.0569 18.1449 10.7769 18.4245 10.647C18.7048 10.517 19.0445 10.547 19.2845 10.7469C20.3146 11.567 21.0249 12.4569 21.4645 13.447C21.9149 14.427 22.0646 15.457 22.0646 16.527C22.0646 19.997 19.1047 22.777 15.7544 22.777C12.4048 22.777 9.65469 19.9569 9.65469 16.527C9.65469 13.8869 10.905 11.677 12.0944 10.1569C12.6946 9.39691 13.2846 8.78698 13.7446 8.37691C13.9647 8.16696 14.1644 8.00691 14.2949 7.89694C14.3544 7.83695 14.4146 7.79696 14.4549 7.76697L14.5246 7.72698L14.5144 7.70698Z" fill="rgb(58,71,96)" fill-rule="evenodd" />
	<path id="Vector" d="M9.28486 21.0069C8.98477 20.5669 8.73457 20.0969 8.53428 19.5969C8.35449 19.1469 8.21436 18.6969 8.11455 18.2369C7.99424 17.6769 7.93477 17.1069 7.93477 16.5169C7.93477 16.3969 7.93477 16.2769 7.93477 16.1569C7.98467 14.8369 8.28477 13.5269 8.84463 12.2269C9.30469 11.1469 9.93428 10.0969 10.7348 9.07691C10.9945 8.7469 11.2543 8.43689 11.5346 8.12688C11.8647 7.76688 12.2147 7.41688 12.5743 7.08688C12.6146 7.04689 12.6946 6.97691 12.7548 6.92692L12.7548 6.11686C12.7548 5.77686 12.5545 5.46693 12.2544 5.31688C11.9447 5.16692 11.5845 5.19691 11.3145 5.40686L11.2447 5.45693C11.2044 5.48693 11.1442 5.53691 11.0745 5.5969C10.9344 5.72687 10.7143 5.89691 10.4743 6.12686C9.97461 6.58692 9.31426 7.25692 8.65459 8.09689C7.31475 9.77691 5.93457 12.2169 5.93457 15.1269C5.93457 17.7169 7.33457 19.9969 9.42432 21.1769C9.38467 21.1169 9.32451 21.0669 9.28486 21.0069Z" fill="rgb(58,71,96)" fill-rule="evenodd" />
	<path id="Vector" d="M9.28486 21.0069C8.98477 20.5669 8.73457 20.0969 8.53428 19.5969C8.35449 19.1469 8.21436 18.6969 8.11455 18.2369C7.99424 17.6769 7.93477 17.1069 7.93477 16.5169C7.93477 16.3969 7.93477 16.2769 7.93477 16.1569C7.98467 14.8369 8.28477 13.5269 8.84463 12.2269C9.30469 11.1469 9.93428 10.0969 10.7348 9.07691C10.9945 8.7469 11.2543 8.43689 11.5346 8.12688C11.8647 7.76688 12.2147 7.41688 12.5743 7.08688C12.6146 7.04689 12.6946 6.97691 12.7548 6.92692L12.7548 6.11686C12.7548 5.77686 12.5545 5.46693 12.2544 5.31688C11.9447 5.16692 11.5845 5.19691 11.3145 5.40686L11.2447 5.45693C11.2044 5.48693 11.1442 5.53691 11.0745 5.5969C10.9344 5.72687 10.7143 5.89691 10.4743 6.12686C9.97461 6.58692 9.31426 7.25692 8.65459 8.09689C7.31475 9.77691 5.93457 12.2169 5.93457 15.1269C5.93457 17.7169 7.33457 19.9969 9.42432 21.1769C9.38467 21.1169 9.32451 21.0669 9.28486 21.0069Z" fill="rgb(208,212,220)" fill-rule="evenodd" />
</svg>
