<svg viewBox="0 0 20 20" xmlns="http://www.w3.org/2000/svg" xmlns:xlink="http://www.w3.org/1999/xlink" width="20.000000" height="20.000000" fill="none">
	<rect id="20 / Action / Products" width="20.000000" height="20.000000" x="0.000000" y="0.000000" fill="rgb(255,255,255)" fill-opacity="0" />
	<path id="Vector 13533" d="M1.65997 3.33001C1.65997 2.41003 2.40997 1.66003 3.32995 1.66003L7.49997 1.66003C8.41999 1.66003 9.16999 2.41003 9.16999 3.33001L9.16999 7.50005C9.16999 8.42005 8.41999 9.17005 7.49997 9.17005L3.32995 9.17005C2.40997 9.17005 1.65997 8.42005 1.65997 7.50005L1.65997 3.33001ZM12.5 1.66003C11.58 1.66003 10.83 2.41003 10.83 3.33001L10.83 7.50005C10.83 8.42005 11.58 9.17005 12.5 9.17005L16.67 9.17005C17.59 9.17005 18.34 8.42005 18.34 7.50005L18.34 3.33001C18.34 2.41003 17.59 1.66003 16.67 1.66003L12.5 1.66003ZM3.45995 7.36005L3.45995 3.46001L7.35999 3.46001L7.35999 7.36005L3.45995 7.36005ZM12.63 3.46001L12.63 7.36005L16.53 7.36005L16.53 3.46001L12.63 3.46001ZM1.65997 12.5C1.65997 11.58 2.40997 10.83 3.32995 10.83L7.49997 10.83C8.41999 10.83 9.16999 11.58 9.16999 12.5L9.16999 16.6701C9.16999 17.59 8.41999 18.34 7.49997 18.34L3.32995 18.34C2.40997 18.34 1.65997 17.59 1.65997 16.6701L1.65997 12.5ZM12.5 10.83C11.58 10.83 10.83 11.58 10.83 12.5L10.83 16.6701C10.83 17.59 11.58 18.34 12.5 18.34L16.67 18.34C17.59 18.34 18.34 17.59 18.34 16.6701L18.34 12.5C18.34 11.58 17.59 10.83 16.67 10.83L12.5 10.83ZM3.45995 16.53L3.45995 12.63L7.35999 12.63L7.35999 16.53L3.45995 16.53ZM12.63 12.63L12.63 16.53L16.53 16.53L16.53 12.63L12.63 12.63Z" fill="rgb(14,17,23)" fill-rule="evenodd" />
</svg>
