<svg viewBox="0 0 20 20" xmlns="http://www.w3.org/2000/svg" xmlns:xlink="http://www.w3.org/1999/xlink" width="20.000000" height="20.000000" fill="none">
	<rect id="20 / Action / Equaliser Сlear Fill" width="20.000000" height="20.000000" x="0.000000" y="0.000000" />
	<path id="Vector 12618" d="M5.77339 1.4187C6.27338 1.4187 6.67376 1.81872 6.67376 2.31872L6.67376 10.4986C7.8837 10.8987 8.75381 12.0387 8.75381 13.3887C8.75381 14.7386 7.87394 15.8786 6.664 16.2787L6.664 17.3187C6.664 17.8187 6.26361 18.2187 5.76362 18.2187C5.26363 18.2187 4.86422 17.8187 4.86422 17.3187L4.86422 16.3087C3.59373 15.9387 2.67383 14.7687 2.67383 13.3887C2.67383 12.0086 3.6035 10.8287 4.87399 10.4587L4.87399 2.31872C4.87399 1.81872 5.27339 1.4187 5.77339 1.4187L5.77339 1.4187ZM13.3338 11.0587C13.3338 11.5587 13.744 11.9587 14.2439 11.9487C14.7439 11.9487 15.1433 11.5387 15.1336 11.0487L15.1336 9.1787C16.3933 8.81871 17.324 7.63866 17.324 6.25866C17.324 4.87866 16.4041 3.70874 15.1336 3.33874L15.1336 2.32873C15.1336 1.82873 14.7332 1.42871 14.2332 1.42871C13.7332 1.42871 13.3338 1.82873 13.3338 2.32873L13.3338 3.36865C12.1141 3.76867 11.2333 4.90869 11.2333 6.25866C11.2333 7.60863 12.1034 8.74864 13.3133 9.14867L13.3133 11.0587L13.3338 11.0587ZM12.7733 12.7586C12.4237 12.4087 11.8534 12.4087 11.5038 12.7586C11.1542 13.1086 11.1542 13.6787 11.5038 14.0287L13.0135 15.5387L11.5038 17.0487C11.1542 17.3987 11.1542 17.9687 11.5038 18.3187C11.8534 18.6687 12.4237 18.6687 12.7733 18.3187L14.284 16.8087L15.7937 18.3187C16.1433 18.6687 16.7136 18.6687 17.0632 18.3187C17.4138 17.9687 17.4138 17.3987 17.0632 17.0487L15.5535 15.5387L17.0632 14.0287C17.4138 13.6787 17.4138 13.1086 17.0632 12.7586C16.7136 12.4087 16.1433 12.4087 15.7937 12.7586L14.284 14.2687L12.7733 12.7586Z" fill="rgb(14,17,23)" fill-rule="evenodd" />
</svg>
