<svg viewBox="0 0 20 20" xmlns="http://www.w3.org/2000/svg" xmlns:xlink="http://www.w3.org/1999/xlink" width="20.000000" height="20.000000" fill="none">
	<rect id="20 / Action / Check Edit Fill" width="20.000000" height="20.000000" x="0.000000" y="0.000000" />
	<path id="Vector-3" d="M17.8399 6.34048C19.6699 3.60048 16.3999 0.330479 13.6599 2.16048C13.5999 2.20048 13.5499 2.24048 13.4999 2.29048L5.93988 9.85048C5.68988 10.1005 5.54988 10.4305 5.54988 10.7805L5.54988 13.1305C5.54988 13.8605 6.13988 14.4505 6.86988 14.4505L9.21988 14.4505C9.56988 14.4505 9.89988 14.3105 10.1499 14.0605L17.7099 6.50048C17.7599 6.45048 17.8099 6.39048 17.8399 6.34048ZM3.77988 5.04048C3.58988 5.04048 3.42988 5.20048 3.42988 5.39048L3.42988 16.2205C3.42988 16.4105 3.58988 16.5705 3.77988 16.5705L14.6099 16.5705C14.7999 16.5705 14.9599 16.4105 14.9599 16.2205L14.9599 12.7105C14.9599 12.2105 15.3599 11.8105 15.8599 11.8105C16.3599 11.8105 16.7599 12.2105 16.7599 12.7105L16.7599 16.2205C16.7599 17.4105 15.7999 18.3705 14.6099 18.3705L3.77988 18.3705C2.58988 18.3705 1.62988 17.4105 1.62988 16.2205L1.62988 5.39048C1.62988 4.20048 2.58988 3.24048 3.77988 3.24048L7.28988 3.24048C7.78988 3.24048 8.18988 3.64048 8.18988 4.14048C8.18988 4.64048 7.78988 5.04048 7.28988 5.04048L3.77988 5.04048Z" fill="rgb(14,17,23)" fill-rule="evenodd" />
</svg>
