<svg viewBox="0 0 20 20" xmlns="http://www.w3.org/2000/svg" xmlns:xlink="http://www.w3.org/1999/xlink" width="20.000000" height="20.000000" fill="none">
	<rect id="20 / Avatar icon / Donkey Fill" width="20.000000" height="20.000000" x="0.000000" y="0.000000" />
	<path id="Vector" d="M18.1213 10.55C17.0013 8.73002 15.3713 8.26002 14.3113 8.17002C14.0713 8.11002 13.8013 8.08002 13.4913 8.08002L8.75129 8.08002C8.52129 8.08002 8.31129 7.99002 8.15129 7.83002L6.77129 6.45002C6.77129 6.45002 6.70129 6.40002 6.66129 6.36002C6.5313 6.12002 6.49129 5.83002 6.61129 5.58002C6.85129 5.07002 7.98129 3.35002 7.07129 2.93002C6.20129 2.53002 5.76129 3.92002 5.32129 4.47002C5.14129 4.70002 4.98129 4.91002 4.71129 4.49002C4.45129 4.07002 3.94129 2.55002 3.09129 2.97002C1.92129 3.55002 3.78129 5.38002 3.66129 6.00002L2.18128 7.97002C1.74128 8.56002 1.57128 9.41002 1.99128 10.01C2.16128 10.25 2.57128 10.63 2.99128 10.63C2.99128 10.63 3.72128 10.77 4.24128 10.38C4.45128 10.22 4.65128 10.05 4.82128 9.89002C5.04128 9.68002 5.40128 9.75002 5.53128 10.03C5.94128 10.91 5.83128 12.64 5.86128 13.89C5.87128 14.6 5.86128 16.45 5.86128 16.45C5.86128 17.15 6.53128 17.99 7.35128 17.99C8.17128 17.99 8.84128 17.15 8.84128 16.45L8.84128 14.65C8.84128 14.18 9.22127 13.8 9.69128 13.8L12.2413 13.8C12.7113 13.8 13.0913 14.18 13.0913 14.65L13.0913 16.52C13.0913 17.22 13.7013 18 14.5913 18C15.4813 18 16.0313 17.22 16.0313 16.52L16.0313 13.75C16.0313 13.75 16.0313 11.27 16.0313 10.82C16.2213 11.01 16.4113 11.22 16.5813 11.49C16.7513 11.77 17.0413 11.92 17.3513 11.92C17.5113 11.92 17.6713 11.88 17.8213 11.79C18.2413 11.53 18.3813 10.98 18.1113 10.55L18.1213 10.55ZM5.20128 7.41002C5.10128 7.51002 4.97127 7.56002 4.84128 7.56002C4.74128 7.56002 4.64128 7.53002 4.55128 7.47002C4.47128 7.41002 4.40128 7.33002 4.36127 7.24002C4.32127 7.15002 4.31127 7.04002 4.33128 6.94002C4.35127 6.84002 4.40128 6.75002 4.47128 6.68002C4.54128 6.61002 4.63128 6.56002 4.73128 6.54002C4.83128 6.52002 4.93127 6.54002 5.03128 6.57002C5.13129 6.60002 5.20128 6.68002 5.26128 6.76002C5.32128 6.84002 5.35128 6.94002 5.35128 7.05002C5.35128 7.19002 5.30128 7.32002 5.20128 7.41002Z" fill="rgb(14,17,23)" fill-rule="nonzero" />
</svg>
