<svg viewBox="0 0 20 20" xmlns="http://www.w3.org/2000/svg" xmlns:xlink="http://www.w3.org/1999/xlink" width="20.000000" height="20.000000" fill="none">
	<rect id="20 / Avatar icon / Dog Fill" width="20.000000" height="20.000000" x="0.000000" y="0.000000" />
	<path id="Vector" d="M17.619 3.99182L15.569 3.87182C15.569 3.29182 15.099 2.81182 14.519 2.81182L12.809 2.81182L11.959 2.03182C11.589 1.69183 10.979 1.95182 10.979 2.46182L10.979 6.37183C10.979 6.88183 10.599 7.31183 10.089 7.38183L4.49901 8.09183C4.19901 7.77183 4.039 7.36182 4.039 6.93182C4.039 6.48183 4.21899 6.06182 4.539 5.75182C4.88901 5.40182 4.899 4.83183 4.549 4.48183C4.19899 4.12183 3.629 4.12183 3.27899 4.47182C2.61899 5.12183 2.24899 5.99182 2.239 6.92182C2.239 7.85182 2.589 8.72182 3.239 9.38182C3.269 9.41182 3.319 9.43182 3.349 9.46182L1.839 15.4318C1.44901 16.8918 1.88901 18.1218 3.129 18.1218C4.07899 18.1218 4.799 17.2518 5.10899 16.4818C5.349 15.8718 5.75899 14.9118 6.00899 14.2918C6.15898 13.9318 6.50899 13.7018 6.88899 13.7018L10.579 13.7018C11.079 13.7018 11.499 14.0818 11.539 14.5818C11.589 15.1918 11.649 15.9518 11.659 16.3218C11.699 17.3318 12.299 18.0818 13.309 18.1118C14.279 18.1418 14.979 17.3318 14.979 16.3218L15.279 8.30183C15.289 7.90182 15.599 7.58182 15.989 7.53183L16.129 7.51183C17.359 7.37183 18.299 6.33183 18.299 5.09183L18.299 4.72183C18.299 4.33183 17.999 4.01183 17.609 3.99183L17.619 3.99182ZM14.269 4.76182C14.169 4.86182 14.039 4.91182 13.909 4.91182C13.809 4.91182 13.709 4.88182 13.619 4.82182C13.539 4.76183 13.469 4.68182 13.429 4.59182C13.389 4.50182 13.379 4.39182 13.399 4.29182C13.419 4.19182 13.469 4.10181 13.539 4.03181C13.609 3.96181 13.699 3.91181 13.799 3.89181C13.899 3.87182 13.999 3.89181 14.099 3.92181C14.189 3.96181 14.269 4.02181 14.329 4.11182C14.389 4.19182 14.419 4.29182 14.419 4.40182C14.419 4.54182 14.369 4.67181 14.269 4.76182Z" fill="rgb(14,17,23)" fill-rule="nonzero" />
</svg>
