<svg viewBox="0 0 20 20" xmlns="http://www.w3.org/2000/svg" xmlns:xlink="http://www.w3.org/1999/xlink" width="20.000000" height="20.000000" fill="none">
	<rect id="20 / Avatar icon / Puzzle-piece" width="20.000000" height="20.000000" x="0.000000" y="0.000000" />
	<path id="Vector" d="M8.7207 4.27539C8.6741 3.81672 8.30952 3.45199 7.85059 3.40527L7.75098 3.40039C7.2125 3.40039 6.77637 3.83652 6.77637 4.375L6.78027 4.4668C6.79988 4.67774 6.88607 4.86806 7.01953 5.01855C7.40181 5.44963 7.8203 6.3352 7.30371 7.16309C7.01772 7.62133 6.51575 7.90035 5.97559 7.90039L4.97266 7.90039C4.10419 7.90058 3.40058 8.60419 3.40039 9.47266L3.40039 15.334C3.40039 16.0331 3.96692 16.5996 4.66602 16.5996L5.34668 16.5996C5.52375 16.5995 5.6785 16.4801 5.72266 16.3086L5.73535 16.2588C5.7413 16.2356 5.74189 16.211 5.7373 16.1875C5.73618 16.1818 5.73039 16.1589 5.70605 16.1152C5.68085 16.0701 5.64271 16.0138 5.58398 15.9404C5.25171 15.5254 5.03523 15.0116 4.98633 14.4512L4.97559 14.208C4.97585 12.6758 6.21834 11.4326 7.75098 11.4326C9.28319 11.4329 10.5261 12.6758 10.5264 14.208L10.5127 14.4805C10.4509 15.108 10.1787 15.6728 9.77246 16.1045C9.72984 16.1498 9.70452 16.1834 9.69043 16.2061C9.68734 16.211 9.6833 16.2147 9.68164 16.2178L9.71289 16.3193C9.76413 16.4859 9.91848 16.5996 10.0928 16.5996L10.7773 16.5996C11.5077 16.5994 12.0994 16.0077 12.0996 15.2773L12.0996 14.0234C12.0997 13.4839 12.3784 12.9821 12.8359 12.6963L12.9912 12.6104C13.7722 12.2315 14.5764 12.6218 14.9805 12.9805C15.1527 13.1334 15.3771 13.2246 15.625 13.2246C16.1635 13.2246 16.5996 12.7885 16.5996 12.25C16.5995 11.7115 16.1633 11.2754 15.625 11.2754C15.3772 11.2754 15.1529 11.3667 14.9805 11.5195C14.5494 11.9016 13.6633 12.3195 12.8359 11.8027C12.3782 11.5168 12.0996 11.0143 12.0996 10.4746L12.0996 9.47266C12.0996 8.60417 11.3958 7.90039 10.5273 7.90039L9.52637 7.90039C8.98655 7.90039 8.48439 7.6218 8.19824 7.16406C7.68084 6.33613 8.09871 5.44908 8.48145 5.01758C8.6342 4.84541 8.72559 4.62208 8.72559 4.375L8.7207 4.27539ZM10.5264 4.375C10.5264 5.02788 10.2971 5.62691 9.91992 6.09961L10.5273 6.09961C12.3899 6.09961 13.9004 7.61006 13.9004 9.47266L13.9004 10.0801C14.3735 9.70326 14.9727 9.47461 15.625 9.47461C17.1576 9.47461 18.4003 10.7176 18.4004 12.25L18.3857 12.5342C18.2434 13.9333 17.0617 15.0254 15.625 15.0254C14.9724 15.0254 14.3735 14.7961 13.9004 14.4189L13.9004 15.2773C13.9001 17.0018 12.5018 18.4001 10.7773 18.4004L10.0928 18.4004C9.1282 18.4004 8.27673 17.7706 7.99316 16.8486L7.95996 16.7432C7.86691 16.4405 7.85658 16.1179 7.92871 15.8096L7.97168 15.6562C8.08696 15.3105 8.29331 15.0493 8.46094 14.8711C8.60582 14.7172 8.70042 14.5206 8.72168 14.3027L8.72559 14.208C8.72542 13.7034 8.34204 13.2884 7.85059 13.2383L7.75098 13.2334C7.21281 13.2334 6.77654 13.6695 6.77637 14.208L6.79004 14.377C6.81863 14.5412 6.88904 14.6902 6.98926 14.8154C7.16601 15.0362 7.41304 15.3835 7.50293 15.8389C7.55961 16.1262 7.55136 16.4224 7.47852 16.7061L7.46582 16.7559C7.21735 17.7233 6.3455 18.4003 5.34668 18.4004L4.66602 18.4004C2.9728 18.4004 1.59961 17.0272 1.59961 15.334L1.59961 9.47266C1.5998 7.61007 3.11007 6.0998 4.97266 6.09961L5.58105 6.09961C5.20405 5.62673 4.97559 5.02749 4.97559 4.375C4.97559 2.84241 6.21839 1.59961 7.75098 1.59961C9.28314 1.59987 10.5264 2.84237 10.5264 4.375Z" fill="rgb(0,0,0)" fill-rule="nonzero" />
</svg>
