<svg viewBox="0 0 20 20" xmlns="http://www.w3.org/2000/svg" xmlns:xlink="http://www.w3.org/1999/xlink" width="20.000000" height="20.000000" fill="none">
	<rect id="20 / Avatar icon / Donkey" width="20.000000" height="20.000000" x="0.000000" y="0.000000" />
	<path id="Vector" d="M13.0619 7.14754C13.4909 7.12712 16.6169 6.97846 18.1678 9.50928L18.1678 9.5293C18.4378 9.95928 18.2978 10.5093 17.8778 10.7693C17.7278 10.8592 17.5678 10.8993 17.4077 10.8993C17.0978 10.8993 16.8078 10.7493 16.6378 10.4693C16.4878 10.2193 16.3178 10.0193 16.1479 9.8493C16.1878 10.1092 16.1978 10.3193 16.1978 10.4393L16.1978 15.5593C16.1978 16.6293 15.3478 17.7793 14.0178 17.7793C12.6878 17.7793 11.7877 16.6293 11.7877 15.5593L11.7877 14.0492L9.7178 14.0492L9.7178 15.4993C9.7178 16.5693 8.75782 17.7693 7.4878 17.7693C6.21778 17.7693 5.26784 16.5693 5.26784 15.4993L5.26794 15.4802C5.26896 15.2953 5.27712 13.8217 5.26784 13.2392C5.25804 12.9359 5.26742 12.5943 5.27708 12.2424L5.27772 12.2193C5.27908 12.1631 5.28064 12.1053 5.28224 12.0462C5.29226 11.6738 5.30362 11.2517 5.27772 10.8893C4.63782 11.3193 3.88782 11.2693 3.62782 11.2293C2.93776 11.1893 2.3678 10.7093 2.07776 10.2893C1.50782 9.4693 1.57776 8.31928 2.25782 7.4193L3.65772 5.55926C3.66774 5.5393 3.70778 5.50928 3.70778 5.50928L4.04774 5.06928C4.0946 4.84936 3.87372 4.47734 3.62874 4.06478C3.19426 3.33306 2.68404 2.47378 3.45778 2.10932C4.17582 1.76658 4.66086 2.69552 4.96176 3.27182C5.02962 3.4018 5.08812 3.51384 5.13782 3.5893C5.40298 3.99206 5.57176 3.79648 5.75784 3.58086C5.76116 3.57702 5.7645 3.57314 5.76784 3.56928C5.87948 3.43778 5.99174 3.25518 6.11118 3.06088C6.47312 2.47212 6.90106 1.77604 7.57778 2.06928C8.37682 2.41784 7.65114 3.68418 7.26204 4.36316C7.19342 4.48288 7.13528 4.58436 7.0978 4.6593C6.93776 4.98932 7.05776 5.38928 7.32778 5.64928C7.44776 5.73932 8.54774 6.8593 8.93776 7.01928C9.89772 7.4193 13.0178 7.14928 13.0178 7.14928C13.0251 7.14928 13.04 7.14858 13.0619 7.14754ZM13.5778 15.5493C13.5778 15.6993 13.7378 15.9693 14.0078 15.9693L13.9878 15.9793C14.2578 15.9793 14.3678 15.6793 14.3678 15.5593L14.3678 10.4393C14.3678 10.1493 14.2877 9.56926 13.9578 9.24932C13.7478 9.0393 13.4478 8.95928 13.0277 8.95928L8.78774 8.95928C8.3478 8.95928 7.92774 8.7793 7.61782 8.4693L6.39784 7.24932C5.75782 6.5293 5.15772 6.6693 4.93776 6.81928C4.50782 7.11932 3.67774 8.49932 3.67774 8.49932C3.4878 8.75928 3.41774 9.08928 3.53772 9.25928C3.57776 9.31926 3.68776 9.4093 3.7378 9.42932C3.94776 9.50928 4.17774 9.44928 4.26784 9.37926C4.42774 9.25928 4.58778 9.12926 4.70778 9.00928C5.01784 8.7193 5.44776 8.5993 5.84778 8.67932C6.24782 8.75928 6.5978 9.0293 6.76784 9.4093C7.11782 10.1793 7.08778 11.2393 7.05776 12.2693C7.04774 12.5893 7.04774 12.9093 7.04774 13.1993C7.05776 13.8393 7.04774 15.4993 7.04774 15.4993C7.04774 15.6493 7.26784 15.9593 7.46778 15.9593C7.68776 15.9593 7.89772 15.6593 7.89772 15.4893L7.89772 13.8893C7.89772 12.9693 8.64772 12.2293 9.55776 12.2293L11.9177 12.2293C12.8378 12.2293 13.5778 12.9793 13.5778 13.8893L13.5778 15.5493ZM5.31776 7.1593C5.41774 7.13928 5.52772 7.14928 5.61768 7.18926C5.70778 7.2293 5.78774 7.29932 5.84778 7.37926C5.90772 7.4693 5.93776 7.56928 5.93776 7.6693C5.93776 7.79932 5.8877 7.92932 5.78774 8.0293C5.69776 8.12926 5.56776 8.17932 5.42774 8.17932C5.31776 8.17932 5.21778 8.14928 5.1377 8.08928C5.05774 8.0293 4.97768 7.95928 4.94776 7.8593C4.91774 7.75928 4.89772 7.6593 4.91774 7.55926C4.93776 7.45928 4.98768 7.36932 5.05774 7.29932C5.1277 7.2293 5.21778 7.17932 5.31776 7.1593Z" fill="rgb(14,17,23)" fill-rule="evenodd" />
</svg>
