<svg viewBox="0 0 20 20" xmlns="http://www.w3.org/2000/svg" xmlns:xlink="http://www.w3.org/1999/xlink" width="20.000000" height="20.000000" fill="none">
	<rect id="20 / Avatar icon / Dog" width="20.000000" height="20.000000" x="0.000000" y="0.000000" />
	<path id="Vector" d="M15.6565 3.66621L16.8464 3.73615L16.8464 3.74615C17.6665 3.78619 18.3164 4.46619 18.3164 5.29621L18.3164 5.62617C18.3164 7.17621 17.1465 8.48621 15.6064 8.67621L15.3464 15.6862C15.3464 16.3662 15.0664 17.0462 14.5864 17.5162C14.1565 17.9262 13.5964 18.1562 12.9964 18.1562L12.9165 18.1562C11.5864 18.1062 10.6265 17.0962 10.5764 15.6862C10.5664 15.3862 10.5164 14.7362 10.4764 14.2162L7.24645 14.2162C7.01647 14.7662 6.66649 15.5962 6.45641 16.1262C6.08641 17.0662 5.17651 18.1562 3.85645 18.1562C3.17651 18.1562 2.57641 17.8762 2.18639 17.3662C1.67639 16.7062 1.54639 15.7062 1.83643 14.6262L3.12647 9.53621C3.19641 9.26619 3.29639 9.00617 3.43639 8.77619C2.46643 7.51617 2.55639 5.70617 3.71643 4.55615C4.06641 4.20617 4.63647 4.20617 4.98645 4.56617C5.33641 4.91621 5.32641 5.48621 4.97643 5.83619C4.50647 6.29621 4.45641 7.01617 4.79651 7.55615C5.04651 7.44617 5.32641 7.36615 5.61645 7.32617L9.78649 6.79621C9.88645 6.77619 9.96641 6.68617 9.96641 6.58619L9.96641 3.26617C9.96641 2.70617 10.3065 2.19617 10.8164 1.96619C11.3364 1.73621 11.9265 1.83619 12.3464 2.21619L12.5064 2.41619L12.6665 2.67615L14.0265 2.67615C14.7264 2.68615 15.3364 3.06617 15.6565 3.66621ZM15.3864 6.88617C16.0265 6.81617 16.5164 6.26617 16.5164 5.61615L16.5463 5.60621L16.5463 5.50617L15.4364 5.44617C14.8364 5.41621 14.3064 5.04621 14.0964 4.50617L11.8064 4.46619L11.8064 6.58619C11.8064 7.59619 11.0464 8.44617 10.0464 8.57617L5.87645 9.10621C5.39647 9.17615 5.01647 9.50617 4.89647 9.97621L3.60645 15.0662C3.44641 15.6562 3.50647 16.0862 3.63647 16.2562C3.66649 16.2862 3.70641 16.3462 3.88647 16.3462C4.25647 16.3462 4.64647 15.8762 4.81639 15.4462C5.05639 14.8562 5.45641 13.8962 5.68639 13.3562C5.92639 12.7762 6.48643 12.4062 7.11645 12.4062L10.7264 12.4062C11.5265 12.4062 12.2164 13.0362 12.2765 13.8362C12.3164 14.4062 12.3864 15.2361 12.3965 15.6062C12.4065 15.9362 12.5164 16.3262 12.9964 16.3462C13.1465 16.3561 13.2464 16.3062 13.3464 16.2162C13.4764 16.0862 13.5564 15.8762 13.5564 15.6462L13.8264 8.36615C13.8464 7.61615 14.4265 6.98615 15.1765 6.90619L15.3864 6.88617ZM13.2064 4.97613C13.3264 4.95617 13.4564 4.96613 13.5664 5.01617C13.6864 5.06617 13.7764 5.14619 13.8464 5.24615C13.9065 5.34613 13.9464 5.46613 13.9464 5.58613C13.9464 5.75617 13.8864 5.90613 13.7664 6.02613C13.6465 6.13617 13.4864 6.20619 13.3264 6.20619C13.2064 6.20619 13.0864 6.17615 12.9864 6.10615C12.8864 6.03613 12.8064 5.94617 12.7564 5.82617C12.7064 5.70617 12.6964 5.58619 12.7164 5.46613C12.7364 5.34613 12.7965 5.23615 12.8864 5.14619C12.9764 5.05615 13.0864 4.99615 13.2064 4.97613Z" fill="rgb(14,17,23)" fill-rule="evenodd" />
</svg>
