<svg viewBox="0 0 20 20" xmlns="http://www.w3.org/2000/svg" xmlns:xlink="http://www.w3.org/1999/xlink" width="20.000000" height="20.000000" fill="none">
	<rect id="20 / Document / Content Tree" width="20.000000" height="20.000000" x="0.000000" y="0.000000" />
	<path id="Вектор 15" d="M8.87451 7.26001C9.37451 7.26001 9.77441 6.86005 9.77441 6.36005C9.77441 5.86005 9.37451 5.46003 8.87451 5.46003L5.19457 5.46003L5.19457 2.99005C5.19457 2.49005 4.79443 2.09003 4.29443 2.09003C3.79443 2.09003 3.39453 2.49005 3.39453 2.99005L3.39453 12.72C3.39453 14.54 4.87451 16.02 6.69457 16.02L8.87451 16.02C9.37451 16.02 9.77441 15.6201 9.77441 15.1201C9.77441 14.6201 9.37451 14.22 8.87451 14.22L6.69457 14.22C5.86451 14.22 5.19457 13.55 5.19457 12.72L5.19457 7.26001L8.87451 7.26001ZM16.3445 4.75001L14.3845 2.79999C14.2146 2.63001 13.9846 2.53999 13.7546 2.53999L11.8045 2.53999C11.3045 2.53999 10.9046 2.94001 10.9046 3.44001L10.9046 8.52997C10.9046 9.02997 11.3045 9.42999 11.8045 9.42999L15.7146 9.42999C16.2146 9.42999 16.6145 9.02997 16.6145 8.52997L16.6145 5.38995C16.6145 5.14997 16.5147 4.91999 16.3445 4.75001ZM14.8045 7.63001L12.6946 7.63001L12.6946 4.33997L13.3745 4.33997L14.8045 5.75995L14.8045 7.63001ZM13.7546 11.02C13.9846 11.02 14.2146 11.11 14.3845 11.28L16.3445 13.23C16.5147 13.4 16.6145 13.63 16.6145 13.87L16.6145 17.01C16.6145 17.51 16.2146 17.91 15.7146 17.91L11.8045 17.91C11.3045 17.91 10.9046 17.51 10.9046 17.01L10.9046 11.92C10.9046 11.42 11.3045 11.02 11.8045 11.02L13.7546 11.02ZM12.6946 16.11L14.8045 16.11L14.8045 14.24L13.3745 12.82L12.6946 12.82L12.6946 16.11Z" fill="rgb(14,17,23)" fill-rule="evenodd" />
</svg>
