<svg viewBox="0 0 20 20" xmlns="http://www.w3.org/2000/svg" xmlns:xlink="http://www.w3.org/1999/xlink" width="20.000000" height="20.000000" fill="none">
	<rect id="20 / Editor / Delete Row Above" width="20.000000" height="20.000000" x="0.000000" y="0.000000" />
	<path id="Vector 13030" d="M16.6001 10.07C16.6001 9.56996 17.0005 9.16998 17.5005 9.16998C18.0005 9.16998 18.3999 9.56996 18.3999 10.07L18.3999 16.25C18.3999 17.44 17.4399 18.4 16.2505 18.4L3.7505 18.4C2.56006 18.4 1.6001 17.44 1.6001 16.25L1.6001 3.75C1.6001 2.56 2.56006 1.59998 3.7505 1.59998L10.0103 1.59998C10.5103 1.59998 10.9097 2 10.9097 2.5C10.9097 3 10.5103 3.39996 10.0103 3.39996L3.7505 3.39996C3.56006 3.39996 3.3999 3.56 3.3999 3.75L3.3999 11.6L16.6001 11.6L16.6001 10.07ZM13.8696 7.40998C13.52 7.75996 12.9497 7.75996 12.6001 7.40998C12.2495 7.05994 12.2495 6.48994 12.6001 6.13996L13.73 5.00996L12.6001 3.87994C12.2495 3.52998 12.2495 2.95996 12.6001 2.60998C12.9497 2.25996 13.52 2.25996 13.8696 2.60998L14.9995 3.74L16.1304 2.60998C16.48 2.25996 17.0503 2.25996 17.3999 2.60998C17.7495 2.95996 17.7495 3.52998 17.3999 3.87994L16.27 5.00996L17.3999 6.13996C17.7495 6.48994 17.7495 7.05994 17.3999 7.40998C17.0503 7.75996 16.48 7.75996 16.1304 7.40998L14.9995 6.27998L13.8696 7.40998ZM16.2505 16.6C16.4399 16.6 16.6001 16.44 16.6001 16.25L16.6001 13.4L3.3999 13.4L3.3999 16.25C3.3999 16.4399 3.56006 16.6 3.7505 16.6L16.2505 16.6Z" fill="rgb(14,17,23)" fill-rule="evenodd" />
</svg>
