<svg viewBox="0 0 20 20" xmlns="http://www.w3.org/2000/svg" xmlns:xlink="http://www.w3.org/1999/xlink" width="20.000000" height="20.000000" fill="none">
	<rect id="20 / Editor / Tabs" width="20.000000" height="20.000000" x="0.000000" y="0.000000" />
	<path id="Vector 13113" d="M15.2744 7.14002L15.8144 7.14002C16.9443 7.14002 17.8652 8.03004 17.8652 9.12006L17.8652 15.2501C17.8652 15.7501 17.4648 16.15 16.9648 16.15C16.4648 16.15 16.0644 15.7501 16.0644 15.2501L16.0644 9.12006C16.0644 9.04004 15.9648 8.94006 15.8144 8.94006L8.13477 8.94006L8.13477 5.65002L4.40431 5.65002C4.14453 5.65002 3.93457 5.86004 3.93457 6.12006L3.93457 15.2401C3.93457 15.7401 3.53517 16.14 3.03517 16.14C2.53517 16.14 2.13477 15.7401 2.13477 15.2401L2.13477 6.12006C2.13477 4.87006 3.15431 3.85004 4.40431 3.85004L13.3252 3.85004C14.4043 3.85004 15.2744 4.73004 15.2744 5.80006L15.2744 7.14002ZM9.94435 7.14002L13.4844 7.14002L13.4844 5.80006C13.4844 5.72004 13.415 5.65002 13.335 5.65002L9.94435 5.65002L9.94435 7.14002ZM13.2646 10.4901L6.74513 10.4901C6.24513 10.4901 5.84473 10.8901 5.84473 11.3901C5.84473 11.8901 6.24513 12.29 6.74513 12.29L13.2646 12.29C13.7646 12.29 14.165 11.8901 14.165 11.3901C14.165 10.8901 13.7646 10.4901 13.2646 10.4901ZM13.2646 13.32L6.74513 13.32C6.24513 13.32 5.84473 13.72 5.84473 14.22C5.84473 14.72 6.24513 15.12 6.74513 15.12L13.2646 15.12C13.7646 15.12 14.165 14.72 14.165 14.22C14.165 13.72 13.7646 13.32 13.2646 13.32Z" fill="rgb(14,17,23)" fill-rule="evenodd" />
</svg>
