<svg viewBox="0 0 20 20" xmlns="http://www.w3.org/2000/svg" xmlns:xlink="http://www.w3.org/1999/xlink" width="20.000000" height="20.000000" fill="none">
	<rect id="20 / Logo / Yarmarka Mono" width="20.000000" height="20.000000" x="0.000000" y="0.000000" />
	<path id="Vector 12548" d="M18.335 9.7395C18.335 5.93311 18.335 4.03003 17.1528 2.84753C15.9697 1.66504 14.0669 1.66504 10.2607 1.66504L9.73926 1.66504C5.93311 1.66504 4.03027 1.66504 2.84766 2.84753C1.66504 4.03003 1.66504 5.93311 1.66504 9.7395L1.66504 10.2606C1.66504 14.067 1.66504 15.97 2.84766 17.1525C4.03027 18.335 5.93359 18.335 9.73926 18.335L10.2607 18.335C14.0669 18.335 15.9697 18.335 17.1528 17.1525C18.335 15.97 18.335 14.0665 18.335 10.2606L18.335 9.7395Z" fill="rgb(22,25,27)" fill-rule="evenodd" />
	<path id="Vector 12548" d="M8.74609 5.427L8.74609 6.97412L10 8.22778L11.2534 6.97412L11.2534 5.427C11.2534 5.17249 11.0469 4.96606 10.792 4.96606L9.20703 4.96606C8.95264 4.96606 8.74609 5.17249 8.74609 5.427Z" fill="rgb(22,25,27)" fill-rule="evenodd" />
	<path id="Vector 12548" d="M8.74609 5.427L8.74609 6.97412L10 8.22778L11.2534 6.97412L11.2534 5.427C11.2534 5.17249 11.0469 4.96606 10.792 4.96606L9.20703 4.96606C8.95264 4.96606 8.74609 5.17249 8.74609 5.427Z" fill="rgb(255,255,255)" fill-rule="evenodd" />
	<path id="Vector 12548" d="M8.74609 6.97412L7.65234 5.88025C7.47217 5.7002 7.18115 5.7002 7.00098 5.88025L5.87988 7.00085C5.69971 7.18103 5.69971 7.4729 5.87988 7.65308L6.97314 8.74634L8.74609 8.74634L8.74609 6.97412Z" fill="rgb(22,25,27)" fill-rule="evenodd" />
	<path id="Vector 12548" d="M8.74609 6.97412L7.65234 5.88025C7.47217 5.7002 7.18115 5.7002 7.00098 5.88025L5.87988 7.00085C5.69971 7.18103 5.69971 7.4729 5.87988 7.65308L6.97314 8.74634L8.74609 8.74634L8.74609 6.97412Z" fill="rgb(255,255,255)" fill-rule="evenodd" />
	<path id="Vector 12548" d="M12.3472 5.88025L11.2534 6.97412L11.2534 8.74634L13.0264 8.74634L14.1196 7.65308C14.2998 7.4729 14.2998 7.18103 14.1196 7.00085L12.999 5.88025C12.8188 5.7002 12.5269 5.7002 12.3472 5.88025Z" fill="rgb(22,25,27)" fill-rule="evenodd" />
	<path id="Vector 12548" d="M12.3472 5.88025L11.2534 6.97412L11.2534 8.74634L13.0264 8.74634L14.1196 7.65308C14.2998 7.4729 14.2998 7.18103 14.1196 7.00085L12.999 5.88025C12.8188 5.7002 12.5269 5.7002 12.3472 5.88025Z" fill="rgb(255,255,255)" fill-rule="evenodd" />
	<path id="Vector 12548" d="M14.1196 12.3474L13.0259 11.2537L11.2534 11.2537L11.2534 13.0264L12.3472 14.1201C12.5269 14.2998 12.8188 14.2998 12.9985 14.1201L14.1196 12.9991C14.2998 12.819 14.2998 12.5271 14.1196 12.3474Z" fill="rgb(22,25,27)" fill-rule="evenodd" />
	<path id="Vector 12548" d="M14.1196 12.3474L13.0259 11.2537L11.2534 11.2537L11.2534 13.0264L12.3472 14.1201C12.5269 14.2998 12.8188 14.2998 12.9985 14.1201L14.1196 12.9991C14.2998 12.819 14.2998 12.5271 14.1196 12.3474Z" fill="rgb(255,255,255)" fill-rule="evenodd" />
	<path id="Vector 12548" d="M8.74609 13.027L8.74609 14.573C8.74609 14.8275 8.95264 15.0339 9.20703 15.0339L10.792 15.0339C11.0469 15.0339 11.2534 14.8275 11.2534 14.573L11.2534 13.0264L10 11.7733L8.74609 13.027Z" fill="rgb(22,25,27)" fill-rule="evenodd" />
	<path id="Vector 12548" d="M8.74609 13.027L8.74609 14.573C8.74609 14.8275 8.95264 15.0339 9.20703 15.0339L10.792 15.0339C11.0469 15.0339 11.2534 14.8275 11.2534 14.573L11.2534 13.0264L10 11.7733L8.74609 13.027Z" fill="rgb(255,255,255)" fill-rule="evenodd" />
	<path id="Vector 12548" d="M6.97412 11.2537L8.74609 11.2537L8.74609 13.027L7.65283 14.1201C7.47266 14.2998 7.18115 14.2998 7.00098 14.1201L5.88037 12.9991C5.7002 12.819 5.7002 12.5271 5.88037 12.3474L6.97412 11.2537Z" fill="rgb(22,25,27)" fill-rule="evenodd" />
	<path id="Vector 12548" d="M6.97412 11.2537L8.74609 11.2537L8.74609 13.027L7.65283 14.1201C7.47266 14.2998 7.18115 14.2998 7.00098 14.1201L5.88037 12.9991C5.7002 12.819 5.7002 12.5271 5.88037 12.3474L6.97412 11.2537Z" fill="rgb(255,255,255)" fill-rule="evenodd" />
	<path id="Vector 12548" d="M6.97412 11.2537L5.42676 11.2537C5.17236 11.2537 4.96582 11.0472 4.96582 10.7928L4.96582 9.20715C4.96582 8.95276 5.17236 8.74634 5.42676 8.74634L6.97314 8.74634L8.22754 10.0005L6.97412 11.2537Z" fill="rgb(22,25,27)" fill-rule="evenodd" />
	<path id="Vector 12548" d="M6.97412 11.2537L5.42676 11.2537C5.17236 11.2537 4.96582 11.0472 4.96582 10.7928L4.96582 9.20715C4.96582 8.95276 5.17236 8.74634 5.42676 8.74634L6.97314 8.74634L8.22754 10.0005L6.97412 11.2537Z" fill="rgb(255,255,255)" fill-rule="evenodd" />
	<path id="Vector 12548" d="M14.5728 11.2537L13.0259 11.2537L11.7729 10.0005L13.0264 8.74634L14.5728 8.74634C14.8271 8.74634 15.0337 8.95276 15.0337 9.20715L15.0337 10.7928C15.0337 11.0472 14.8271 11.2537 14.5728 11.2537Z" fill="rgb(22,25,27)" fill-rule="evenodd" />
	<path id="Vector 12548" d="M14.5728 11.2537L13.0259 11.2537L11.7729 10.0005L13.0264 8.74634L14.5728 8.74634C14.8271 8.74634 15.0337 8.95276 15.0337 9.20715L15.0337 10.7928C15.0337 11.0472 14.8271 11.2537 14.5728 11.2537Z" fill="rgb(255,255,255)" fill-rule="evenodd" />
</svg>
