<svg viewBox="0 0 20 20" xmlns="http://www.w3.org/2000/svg" xmlns:xlink="http://www.w3.org/1999/xlink" width="20.000000" height="20.000000" fill="none">
	<rect id="20 / Logo / Yaga Mono" width="20.000000" height="20.000000" x="0.000000" y="0.000000" />
	<path id="Vector" d="M1.66602 9.73863C1.66602 5.93271 1.66602 4.03029 2.84803 2.84828C4.03005 1.66626 5.93246 1.66626 9.73838 1.66626L10.2592 1.66626C14.0651 1.66626 15.9676 1.66626 17.1496 2.84828C18.3327 4.03029 18.3327 5.93271 18.3327 9.73863L18.3327 10.2595C18.3327 14.0654 18.3327 15.9678 17.1496 17.1498C15.9676 18.3329 14.0651 18.3329 10.2592 18.3329L9.73838 18.3329C5.93246 18.3329 4.03005 18.3329 2.84803 17.1498C1.66602 15.9678 1.66602 14.0654 1.66602 10.2595L1.66602 9.73863Z" fill="rgb(22,25,27)" fill-rule="evenodd" />
	<path id="Vector" d="M9.53104 5.99325L12.9729 5.99325C13.5793 5.99325 14.0716 6.48557 14.0716 7.09303C14.0716 7.69939 13.5793 8.19171 12.9729 8.19171L10.0047 8.19171C9.50363 8.19171 9.02337 8.39127 8.6692 8.74544L8.06284 9.3518C7.83587 9.5711 7.451 9.67746 7.14508 9.61605C6.64069 9.51517 6.35341 9.16759 6.35341 8.61057C6.35341 8.60618 6.37973 8.33206 6.37973 8.33206C6.45867 7.31013 7.6988 6.0689 9.36328 5.99654C9.4192 5.99434 9.47512 5.99325 9.53104 5.99325ZM12.9663 8.99873L10.769 8.99873C9.88959 8.99873 9.26679 9.30575 8.72622 9.8496L6.31832 12.2729C6.29749 12.2937 6.27556 12.3145 6.25582 12.3364L6.20648 12.3858L6.20867 12.388C5.96854 12.6676 5.86547 13.0009 5.95867 13.3079C6.11876 13.8288 6.78981 14.0952 7.51131 13.9494C7.88411 13.8902 8.2317 13.7147 8.50144 13.4439L10.0431 11.9011C10.5585 11.3869 10.9828 11.2104 11.712 11.2104L12.9663 11.2104C13.576 11.2104 14.0705 10.7147 14.0705 10.1051C14.0705 9.49434 13.576 8.99982 12.9663 8.99982L12.9663 8.99873ZM11.9883 12.013L13.076 12.013C13.6264 12.013 14.0716 12.4593 14.0716 13.0086C14.0716 13.559 13.6264 14.0053 13.076 14.0053L11.9883 14.0053C11.4378 14.0053 10.9916 13.559 10.9916 13.0086C10.9916 12.4593 11.4378 12.013 11.9883 12.013Z" fill="rgb(22,25,27)" fill-rule="evenodd" />
	<path id="Vector" d="M9.53104 5.99325L12.9729 5.99325C13.5793 5.99325 14.0716 6.48557 14.0716 7.09303C14.0716 7.69939 13.5793 8.19171 12.9729 8.19171L10.0047 8.19171C9.50363 8.19171 9.02337 8.39127 8.6692 8.74544L8.06284 9.3518C7.83587 9.5711 7.451 9.67746 7.14508 9.61605C6.64069 9.51517 6.35341 9.16759 6.35341 8.61057C6.35341 8.60618 6.37973 8.33206 6.37973 8.33206C6.45867 7.31013 7.6988 6.0689 9.36328 5.99654C9.4192 5.99434 9.47512 5.99325 9.53104 5.99325ZM12.9663 8.99873L10.769 8.99873C9.88959 8.99873 9.26679 9.30575 8.72622 9.8496L6.31832 12.2729C6.29749 12.2937 6.27556 12.3145 6.25582 12.3364L6.20648 12.3858L6.20867 12.388C5.96854 12.6676 5.86547 13.0009 5.95867 13.3079C6.11876 13.8288 6.78981 14.0952 7.51131 13.9494C7.88411 13.8902 8.2317 13.7147 8.50144 13.4439L10.0431 11.9011C10.5585 11.3869 10.9828 11.2104 11.712 11.2104L12.9663 11.2104C13.576 11.2104 14.0705 10.7147 14.0705 10.1051C14.0705 9.49434 13.576 8.99982 12.9663 8.99982L12.9663 8.99873ZM11.9883 12.013L13.076 12.013C13.6264 12.013 14.0716 12.4593 14.0716 13.0086C14.0716 13.559 13.6264 14.0053 13.076 14.0053L11.9883 14.0053C11.4378 14.0053 10.9916 13.559 10.9916 13.0086C10.9916 12.4593 11.4378 12.013 11.9883 12.013Z" fill="rgb(255,255,255)" fill-rule="evenodd" />
</svg>
