<svg viewBox="0 0 20 20" xmlns="http://www.w3.org/2000/svg" xmlns:xlink="http://www.w3.org/1999/xlink" width="20.000000" height="20.000000" fill="none">
	<rect id="20 / Logo / Mera Mono" width="20.000000" height="20.000000" x="0.000000" y="0.000000" />
	<path id="Vector 12524" d="M1.66504 9.7395C1.66504 5.93311 1.66504 4.02991 2.84766 2.84741C4.02979 1.66492 5.93311 1.66492 9.73975 1.66492L10.2607 1.66492C14.0669 1.66492 15.9702 1.66492 17.1528 2.84741C18.335 4.02991 18.335 5.93311 18.335 9.7395L18.335 10.2604C18.335 14.0668 18.335 15.97 17.1528 17.1525C15.9702 18.335 14.0669 18.335 10.2607 18.335L9.73975 18.335C5.93311 18.335 4.02979 18.335 2.84766 17.1525C1.66504 15.97 1.66504 14.0668 1.66504 10.2604L1.66504 9.7395Z" fill="rgb(22,25,27)" fill-rule="evenodd" />
	<path id="Vector 12524" d="M8.55713 7.76294C8.55713 6.96631 9.20312 6.32043 10 6.32043C10.7964 6.32043 11.4424 6.96631 11.4424 7.76294L11.4424 12.2368C11.4424 13.0336 10.7964 13.6793 10 13.6793C9.20312 13.6793 8.55713 13.0336 8.55713 12.2368L8.55713 7.76294ZM13.7427 6.32043C12.9458 6.32043 12.3003 6.96631 12.3003 7.76294L12.3003 12.2368C12.3003 13.0336 12.9458 13.6793 13.7427 13.6793C14.5396 13.6793 15.1851 13.0336 15.1851 12.2368L15.1851 7.76294C15.1851 6.96631 14.5396 6.32043 13.7427 6.32043ZM4.81445 11.2114C4.81445 10.4148 5.46045 9.76892 6.25684 9.76892C7.05371 9.76892 7.69971 10.4148 7.69971 11.2114L7.69971 12.2368C7.69971 13.0334 7.05371 13.6793 6.25684 13.6793C5.46045 13.6793 4.81445 13.0334 4.81445 12.2368L4.81445 11.2114Z" fill="rgb(22,25,27)" fill-rule="evenodd" />
	<path id="Vector 12524" d="M8.55713 7.76294C8.55713 6.96631 9.20312 6.32043 10 6.32043C10.7964 6.32043 11.4424 6.96631 11.4424 7.76294L11.4424 12.2368C11.4424 13.0336 10.7964 13.6793 10 13.6793C9.20312 13.6793 8.55713 13.0336 8.55713 12.2368L8.55713 7.76294ZM13.7427 6.32043C12.9458 6.32043 12.3003 6.96631 12.3003 7.76294L12.3003 12.2368C12.3003 13.0336 12.9458 13.6793 13.7427 13.6793C14.5396 13.6793 15.1851 13.0336 15.1851 12.2368L15.1851 7.76294C15.1851 6.96631 14.5396 6.32043 13.7427 6.32043ZM4.81445 11.2114C4.81445 10.4148 5.46045 9.76892 6.25684 9.76892C7.05371 9.76892 7.69971 10.4148 7.69971 11.2114L7.69971 12.2368C7.69971 13.0334 7.05371 13.6793 6.25684 13.6793C5.46045 13.6793 4.81445 13.0334 4.81445 12.2368L4.81445 11.2114Z" fill="rgb(255,254.745,254.745)" fill-rule="evenodd" />
</svg>
