<svg viewBox="0 0 20 20" xmlns="http://www.w3.org/2000/svg" xmlns:xlink="http://www.w3.org/1999/xlink" width="20.000000" height="20.000000" fill="none">
	<rect id="20 / Logo / Divo Mono" width="20.000000" height="20.000000" x="0.000000" y="0.000000" />
	<path id="Vector 12540" d="M1.66504 9.73962C1.66504 5.93323 1.66504 4.03003 2.84766 2.84753C4.02979 1.66504 5.93311 1.66504 9.73975 1.66504L10.2607 1.66504C14.0669 1.66504 15.9702 1.66504 17.1528 2.84753C18.335 4.03003 18.335 5.93323 18.335 9.73962L18.335 10.2605C18.335 14.0669 18.335 15.9701 17.1528 17.1526C15.9702 18.3351 14.0669 18.3351 10.2607 18.3351L9.73975 18.3351C5.93311 18.3351 4.02979 18.3351 2.84766 17.1526C1.66504 15.9701 1.66504 14.0669 1.66504 10.2605L1.66504 9.73962Z" fill="rgb(22,25,27)" fill-rule="evenodd" />
	<path id="Vector 12540" d="M8.62012 10.0773C6.40332 10.8264 5.81982 7.75732 7.79541 6.31213C9.771 4.86707 12.1006 4.90076 13.7339 6.31152C15.6777 7.99084 15.7935 11.4364 13.0791 14.5135L4.96729 14.5135L4.96729 12.1228C4.96729 12.1228 6.15137 12.63 7.6084 12.0964C9.06543 11.5629 9.67773 10.2002 9.67773 10.2002C9.99609 9.48572 9.91016 8.81897 9.46045 8.39392C9.0498 8.005 8.52002 8.01624 8.05908 8.34436C7.43359 8.7887 7.72705 9.75391 8.62012 9.44006L8.62012 10.0773Z" fill="rgb(22,25,27)" fill-rule="evenodd" />
	<path id="Vector 12540" d="M8.62012 10.0773C6.40332 10.8264 5.81982 7.75732 7.79541 6.31213C9.771 4.86707 12.1006 4.90076 13.7339 6.31152C15.6777 7.99084 15.7935 11.4364 13.0791 14.5135L4.96729 14.5135L4.96729 12.1228C4.96729 12.1228 6.15137 12.63 7.6084 12.0964C9.06543 11.5629 9.67773 10.2002 9.67773 10.2002C9.99609 9.48572 9.91016 8.81897 9.46045 8.39392C9.0498 8.005 8.52002 8.01624 8.05908 8.34436C7.43359 8.7887 7.72705 9.75391 8.62012 9.44006L8.62012 10.0773Z" fill="rgb(255,254.745,254.745)" fill-rule="evenodd" />
</svg>
