<svg viewBox="0 0 20 20" xmlns="http://www.w3.org/2000/svg" xmlns:xlink="http://www.w3.org/1999/xlink" width="20.000000" height="20.000000" fill="none">
	<rect id="20 / Logo / Alkion" width="20.000000" height="20.000000" x="0.000000" y="0.000000" />
	<path id="Vector 12516" d="M1.66504 9.73962C1.66504 5.93323 1.66504 4.03003 2.84766 2.84753C4.02979 1.66504 5.93311 1.66504 9.73975 1.66504L10.2607 1.66504C14.0669 1.66504 15.9702 1.66504 17.1528 2.84753C18.335 4.03003 18.335 5.93323 18.335 9.73962L18.335 10.2605C18.335 14.0669 18.335 15.9701 17.1528 17.1526C15.9702 18.3351 14.0669 18.3351 10.2607 18.3351L9.73975 18.3351C5.93311 18.3351 4.02979 18.3351 2.84766 17.1526C1.66504 15.9701 1.66504 14.0669 1.66504 10.2605L1.66504 9.73962Z" fill="rgb(0,85,255)" fill-rule="evenodd" />
	<path id="Vector 12516" d="M13.5308 11.1958C13.1758 10.6211 13.0986 9.95471 13.2617 9.3512C13.3481 9.0293 13.5034 8.7262 13.7188 8.46423C13.7544 8.42102 13.7158 8.35901 13.6616 8.37085C13.3281 8.44458 12.9858 8.44458 12.6587 8.37659C12.0444 8.24768 11.4814 7.87671 11.1274 7.30371L9.55859 4.76416C9.53467 4.72583 9.47949 4.72681 9.45801 4.76514C9.2666 5.09888 8.57959 6.31531 8.48926 6.66003C8.31348 7.33521 8.36182 8.1571 8.81885 8.89648C9.27588 9.63574 9.98975 10.1083 10.688 10.2017C10.7256 10.2065 10.7476 10.2429 10.7358 10.2786C10.5044 10.9408 10.6011 11.7836 11.061 12.5277C11.5181 13.2679 12.2271 13.7158 12.9175 13.8308C13.5063 13.9294 15.2329 13.8378 15.1519 13.822L13.5317 11.1979L13.5308 11.1958Z" fill="rgb(0,85,255)" fill-rule="evenodd" />
	<path id="Vector 12516" d="M13.5308 11.1958C13.1758 10.6211 13.0986 9.95471 13.2617 9.3512C13.3481 9.0293 13.5034 8.7262 13.7188 8.46423C13.7544 8.42102 13.7158 8.35901 13.6616 8.37085C13.3281 8.44458 12.9858 8.44458 12.6587 8.37659C12.0444 8.24768 11.4814 7.87671 11.1274 7.30371L9.55859 4.76416C9.53467 4.72583 9.47949 4.72681 9.45801 4.76514C9.2666 5.09888 8.57959 6.31531 8.48926 6.66003C8.31348 7.33521 8.36182 8.1571 8.81885 8.89648C9.27588 9.63574 9.98975 10.1083 10.688 10.2017C10.7256 10.2065 10.7476 10.2429 10.7358 10.2786C10.5044 10.9408 10.6011 11.7836 11.061 12.5277C11.5181 13.2679 12.2271 13.7158 12.9175 13.8308C13.5063 13.9294 15.2329 13.8378 15.1519 13.822L13.5317 11.1979L13.5308 11.1958Z" fill="rgb(255,255,255)" fill-rule="evenodd" />
	<path id="Vector 12516" d="M8.83887 13.5768C8.57129 13.7402 8.27881 13.829 7.98584 13.8486C7.98584 13.8486 7.98486 13.8486 7.98291 13.8486L7.74365 13.8486L4.94043 13.8605C4.86914 13.8605 4.82373 13.7865 4.85645 13.7235L6.12354 11.2587C6.12354 11.2587 6.12549 11.2549 6.12646 11.2529L6.24609 11.0197C6.24609 11.0197 6.24707 11.0148 6.24902 11.0137C6.4292 10.7183 6.69434 10.4674 7.0376 10.301C7.81982 9.92212 8.78516 10.1406 9.32422 10.8207C10.0337 11.7156 9.78418 12.9972 8.83643 13.5768L8.83887 13.5768Z" fill="rgb(0,85,255)" fill-rule="evenodd" />
	<path id="Vector 12516" d="M8.83887 13.5768C8.57129 13.7402 8.27881 13.829 7.98584 13.8486C7.98584 13.8486 7.98486 13.8486 7.98291 13.8486L7.74365 13.8486L4.94043 13.8605C4.86914 13.8605 4.82373 13.7865 4.85645 13.7235L6.12354 11.2587C6.12354 11.2587 6.12549 11.2549 6.12646 11.2529L6.24609 11.0197C6.24609 11.0197 6.24707 11.0148 6.24902 11.0137C6.4292 10.7183 6.69434 10.4674 7.0376 10.301C7.81982 9.92212 8.78516 10.1406 9.32422 10.8207C10.0337 11.7156 9.78418 12.9972 8.83643 13.5768L8.83887 13.5768Z" fill="rgb(255,255,255)" fill-rule="evenodd" />
</svg>
