<svg viewBox="0 0 20 20" xmlns="http://www.w3.org/2000/svg" xmlns:xlink="http://www.w3.org/1999/xlink" width="20.000000" height="20.000000" fill="none">
	<rect id="20 / Logo / Sirin" width="20.000000" height="20.000000" x="0.000000" y="0.000000" />
	<path id="Vector 12544" d="M1.66504 9.73938C1.66504 5.93311 1.66504 4.03015 2.84766 2.84766C4.03027 1.66516 5.93311 1.66516 9.73975 1.66516L10.2607 1.66516C14.0669 1.66516 15.9702 1.66516 17.1523 2.84766C18.335 4.03015 18.335 5.93311 18.335 9.73938L18.335 10.2605C18.335 14.0668 18.335 15.9697 17.1523 17.1522C15.9702 18.3347 14.0664 18.3347 10.2607 18.3347L9.73975 18.3347C5.93311 18.3347 4.03027 18.3347 2.84766 17.1522C1.66504 15.9697 1.66504 14.0664 1.66504 10.2605L1.66504 9.73938Z" fill="rgb(0,85,255)" fill-rule="evenodd" />
	<path id="Vector 12544" d="M10.0005 8.14148L10.0005 5.09888C10.0005 4.94751 10.1235 4.82397 10.2749 4.83191C10.6396 4.85107 10.9946 4.90833 11.3354 4.99927C11.4819 5.03833 11.5605 5.19373 11.5137 5.33765L11.1719 6.3905C11.1255 6.53442 11.2046 6.68787 11.3442 6.74585C11.4766 6.80066 11.605 6.86328 11.7285 6.93323C11.7939 6.97021 11.8711 6.98181 11.9434 6.9624L12.1704 6.90161C12.231 6.88525 12.2847 6.84863 12.3213 6.79785L12.876 6.03394C12.9648 5.9115 13.1367 5.88367 13.2544 5.97888C13.5337 6.20508 13.7886 6.46008 14.0151 6.73962C14.1104 6.85718 14.0825 7.02905 13.96 7.11792L13.064 7.76831C12.9414 7.85718 12.771 7.82935 12.6729 7.71436C12.584 7.61035 12.4893 7.5116 12.3892 7.41858C12.3228 7.35706 12.229 7.33655 12.1416 7.35986L11.9541 7.41016C11.8936 7.42627 11.8403 7.46289 11.8037 7.51367L11.0898 8.49573C11.02 8.59192 10.896 8.63208 10.7832 8.59534L10.1899 8.4021C10.0771 8.36536 10.0005 8.26013 10.0005 8.14148ZM8.23828 9.42554L5.34473 8.48523C5.20068 8.43848 5.12109 8.28345 5.17529 8.14209C5.30664 7.80103 5.4707 7.48096 5.6626 7.18494C5.74512 7.05786 5.91699 7.03113 6.03955 7.12012L6.93506 7.77039C7.05762 7.85925 7.22803 7.83142 7.32617 7.71655C7.41943 7.60742 7.51855 7.50476 7.62354 7.40881C7.67871 7.35803 7.71387 7.28833 7.71777 7.21338L7.72998 6.979C7.7334 6.91626 7.71484 6.85425 7.67773 6.80334L7.12207 6.03931C7.0332 5.91687 7.05957 5.74487 7.18652 5.66235C7.48828 5.46655 7.80957 5.30286 8.14502 5.17407C8.28662 5.11987 8.44141 5.19946 8.48828 5.34338L8.82959 6.39648C8.87646 6.54028 8.79736 6.69373 8.65771 6.75171C8.53174 6.80396 8.40869 6.8634 8.28906 6.92981C8.21045 6.97375 8.16162 7.05652 8.15723 7.14685L8.14697 7.3418C8.14355 7.40442 8.16162 7.46643 8.19873 7.51721L8.91211 8.49915C8.98193 8.59521 8.98193 8.72546 8.91211 8.82153L8.54492 9.32593C8.4751 9.422 8.35156 9.46216 8.23828 9.42554ZM14.6587 8.4845L11.7646 9.4248C11.6519 9.46143 11.5752 9.56665 11.5752 9.68542L11.5752 10.3092C11.5747 10.4281 11.6514 10.5333 11.7646 10.5701L12.9185 10.9451C12.978 10.9646 13.0293 11.0038 13.0635 11.0565L13.1699 11.2201C13.2192 11.2959 13.2285 11.3914 13.1904 11.4734C13.1328 11.5973 13.0684 11.7179 12.9971 11.8342C12.918 11.9633 12.9443 12.1339 13.0664 12.2229L13.9619 12.8739C14.0845 12.963 14.2563 12.9364 14.3389 12.8094C14.5347 12.5079 14.6982 12.1865 14.8271 11.851C14.8813 11.7096 14.8018 11.5548 14.6577 11.5081L13.7593 11.2167C13.6997 11.1973 13.6484 11.158 13.6143 11.1052L13.4863 10.9084C13.4453 10.8455 13.4326 10.7686 13.4478 10.6949C13.4761 10.5557 13.4961 10.4142 13.5073 10.2711C13.519 10.1204 13.6406 9.99768 13.792 9.99768L14.8989 9.99731C15.0503 9.99719 15.1738 9.87439 15.1655 9.72339C15.147 9.37097 15.0918 9.01562 14.9971 8.66272C14.958 8.51636 14.8027 8.43774 14.6587 8.4845ZM10.0005 9.21667C9.5708 9.21667 9.22217 9.56519 9.22217 9.99512C9.22217 10.425 9.5708 10.7736 10.0005 10.7736C10.4307 10.7736 10.7793 10.425 10.7793 9.99512C10.7793 9.56519 10.4307 9.21667 10.0005 9.21667ZM7.12451 13.9553L8.9126 11.4938C8.98242 11.3977 8.98242 11.2676 8.9126 11.1715L8.54639 10.6666C8.47656 10.5704 8.35254 10.5302 8.23975 10.5669L7.08496 10.942C7.02539 10.9614 6.96094 10.9597 6.90234 10.9371L6.72119 10.8677C6.63672 10.8353 6.57324 10.7637 6.55566 10.6749C6.5293 10.5408 6.51074 10.405 6.5 10.2687C6.48779 10.1179 6.3667 9.99536 6.21533 9.99524L5.10791 9.99475C4.95703 9.99475 4.8335 10.1173 4.84131 10.2684C4.85986 10.6276 4.9165 10.9838 5.00928 11.3309C5.04883 11.4772 5.2041 11.5557 5.34814 11.5088L6.24512 11.2168C6.30518 11.1974 6.36963 11.1991 6.42822 11.2216L6.64795 11.3058C6.71826 11.3328 6.77344 11.3875 6.80469 11.4558C6.86377 11.585 6.93066 11.7111 7.00537 11.8333C7.08447 11.9622 7.05811 12.1329 6.93604 12.2218L6.04053 12.8727C5.91797 12.9618 5.89062 13.1337 5.98584 13.2512C6.20801 13.5253 6.46191 13.7803 6.74561 14.0101C6.86328 14.1055 7.03516 14.0778 7.12451 13.9553ZM11.0898 11.5026L12.8784 13.964C12.9673 14.0865 12.9404 14.2587 12.8135 14.3412C12.5068 14.54 12.186 14.7025 11.8569 14.8292C11.7153 14.8835 11.5605 14.8042 11.5137 14.6602L11.1714 13.6075C11.1245 13.4637 10.9702 13.3861 10.8232 13.4213C10.6841 13.4547 10.5435 13.4795 10.4023 13.4956C10.3276 13.504 10.2583 13.5399 10.2109 13.5983L10.0635 13.7804C10.0239 13.8292 10.0024 13.8903 10.0024 13.9531L10.0029 14.8975C10.0029 15.0488 9.88037 15.1722 9.729 15.1644C9.37012 15.1456 9.01367 15.0892 8.6665 14.9961C8.52051 14.9569 8.44189 14.8015 8.48877 14.6576L8.83154 13.6047C8.87842 13.4611 9.03223 13.3833 9.17969 13.4186C9.3125 13.4504 9.44678 13.4746 9.58252 13.4911C9.67236 13.5018 9.76025 13.4634 9.81689 13.3932L9.93945 13.2423C9.979 13.1935 10.0005 13.1326 10.0005 13.0698L10.0005 11.8561C10.0005 11.7372 10.0771 11.632 10.1899 11.5953L10.7837 11.4028C10.8965 11.3662 11.02 11.4065 11.0898 11.5026Z" fill="rgb(0,85,255)" fill-rule="evenodd" />
	<path id="Vector 12544" d="M10.0005 8.14148L10.0005 5.09888C10.0005 4.94751 10.1235 4.82397 10.2749 4.83191C10.6396 4.85107 10.9946 4.90833 11.3354 4.99927C11.4819 5.03833 11.5605 5.19373 11.5137 5.33765L11.1719 6.3905C11.1255 6.53442 11.2046 6.68787 11.3442 6.74585C11.4766 6.80066 11.605 6.86328 11.7285 6.93323C11.7939 6.97021 11.8711 6.98181 11.9434 6.9624L12.1704 6.90161C12.231 6.88525 12.2847 6.84863 12.3213 6.79785L12.876 6.03394C12.9648 5.9115 13.1367 5.88367 13.2544 5.97888C13.5337 6.20508 13.7886 6.46008 14.0151 6.73962C14.1104 6.85718 14.0825 7.02905 13.96 7.11792L13.064 7.76831C12.9414 7.85718 12.771 7.82935 12.6729 7.71436C12.584 7.61035 12.4893 7.5116 12.3892 7.41858C12.3228 7.35706 12.229 7.33655 12.1416 7.35986L11.9541 7.41016C11.8936 7.42627 11.8403 7.46289 11.8037 7.51367L11.0898 8.49573C11.02 8.59192 10.896 8.63208 10.7832 8.59534L10.1899 8.4021C10.0771 8.36536 10.0005 8.26013 10.0005 8.14148ZM8.23828 9.42554L5.34473 8.48523C5.20068 8.43848 5.12109 8.28345 5.17529 8.14209C5.30664 7.80103 5.4707 7.48096 5.6626 7.18494C5.74512 7.05786 5.91699 7.03113 6.03955 7.12012L6.93506 7.77039C7.05762 7.85925 7.22803 7.83142 7.32617 7.71655C7.41943 7.60742 7.51855 7.50476 7.62354 7.40881C7.67871 7.35803 7.71387 7.28833 7.71777 7.21338L7.72998 6.979C7.7334 6.91626 7.71484 6.85425 7.67773 6.80334L7.12207 6.03931C7.0332 5.91687 7.05957 5.74487 7.18652 5.66235C7.48828 5.46655 7.80957 5.30286 8.14502 5.17407C8.28662 5.11987 8.44141 5.19946 8.48828 5.34338L8.82959 6.39648C8.87646 6.54028 8.79736 6.69373 8.65771 6.75171C8.53174 6.80396 8.40869 6.8634 8.28906 6.92981C8.21045 6.97375 8.16162 7.05652 8.15723 7.14685L8.14697 7.3418C8.14355 7.40442 8.16162 7.46643 8.19873 7.51721L8.91211 8.49915C8.98193 8.59521 8.98193 8.72546 8.91211 8.82153L8.54492 9.32593C8.4751 9.422 8.35156 9.46216 8.23828 9.42554ZM14.6587 8.4845L11.7646 9.4248C11.6519 9.46143 11.5752 9.56665 11.5752 9.68542L11.5752 10.3092C11.5747 10.4281 11.6514 10.5333 11.7646 10.5701L12.9185 10.9451C12.978 10.9646 13.0293 11.0038 13.0635 11.0565L13.1699 11.2201C13.2192 11.2959 13.2285 11.3914 13.1904 11.4734C13.1328 11.5973 13.0684 11.7179 12.9971 11.8342C12.918 11.9633 12.9443 12.1339 13.0664 12.2229L13.9619 12.8739C14.0845 12.963 14.2563 12.9364 14.3389 12.8094C14.5347 12.5079 14.6982 12.1865 14.8271 11.851C14.8813 11.7096 14.8018 11.5548 14.6577 11.5081L13.7593 11.2167C13.6997 11.1973 13.6484 11.158 13.6143 11.1052L13.4863 10.9084C13.4453 10.8455 13.4326 10.7686 13.4478 10.6949C13.4761 10.5557 13.4961 10.4142 13.5073 10.2711C13.519 10.1204 13.6406 9.99768 13.792 9.99768L14.8989 9.99731C15.0503 9.99719 15.1738 9.87439 15.1655 9.72339C15.147 9.37097 15.0918 9.01562 14.9971 8.66272C14.958 8.51636 14.8027 8.43774 14.6587 8.4845ZM10.0005 9.21667C9.5708 9.21667 9.22217 9.56519 9.22217 9.99512C9.22217 10.425 9.5708 10.7736 10.0005 10.7736C10.4307 10.7736 10.7793 10.425 10.7793 9.99512C10.7793 9.56519 10.4307 9.21667 10.0005 9.21667ZM7.12451 13.9553L8.9126 11.4938C8.98242 11.3977 8.98242 11.2676 8.9126 11.1715L8.54639 10.6666C8.47656 10.5704 8.35254 10.5302 8.23975 10.5669L7.08496 10.942C7.02539 10.9614 6.96094 10.9597 6.90234 10.9371L6.72119 10.8677C6.63672 10.8353 6.57324 10.7637 6.55566 10.6749C6.5293 10.5408 6.51074 10.405 6.5 10.2687C6.48779 10.1179 6.3667 9.99536 6.21533 9.99524L5.10791 9.99475C4.95703 9.99475 4.8335 10.1173 4.84131 10.2684C4.85986 10.6276 4.9165 10.9838 5.00928 11.3309C5.04883 11.4772 5.2041 11.5557 5.34814 11.5088L6.24512 11.2168C6.30518 11.1974 6.36963 11.1991 6.42822 11.2216L6.64795 11.3058C6.71826 11.3328 6.77344 11.3875 6.80469 11.4558C6.86377 11.585 6.93066 11.7111 7.00537 11.8333C7.08447 11.9622 7.05811 12.1329 6.93604 12.2218L6.04053 12.8727C5.91797 12.9618 5.89062 13.1337 5.98584 13.2512C6.20801 13.5253 6.46191 13.7803 6.74561 14.0101C6.86328 14.1055 7.03516 14.0778 7.12451 13.9553ZM11.0898 11.5026L12.8784 13.964C12.9673 14.0865 12.9404 14.2587 12.8135 14.3412C12.5068 14.54 12.186 14.7025 11.8569 14.8292C11.7153 14.8835 11.5605 14.8042 11.5137 14.6602L11.1714 13.6075C11.1245 13.4637 10.9702 13.3861 10.8232 13.4213C10.6841 13.4547 10.5435 13.4795 10.4023 13.4956C10.3276 13.504 10.2583 13.5399 10.2109 13.5983L10.0635 13.7804C10.0239 13.8292 10.0024 13.8903 10.0024 13.9531L10.0029 14.8975C10.0029 15.0488 9.88037 15.1722 9.729 15.1644C9.37012 15.1456 9.01367 15.0892 8.6665 14.9961C8.52051 14.9569 8.44189 14.8015 8.48877 14.6576L8.83154 13.6047C8.87842 13.4611 9.03223 13.3833 9.17969 13.4186C9.3125 13.4504 9.44678 13.4746 9.58252 13.4911C9.67236 13.5018 9.76025 13.4634 9.81689 13.3932L9.93945 13.2423C9.979 13.1935 10.0005 13.1326 10.0005 13.0698L10.0005 11.8561C10.0005 11.7372 10.0771 11.632 10.1899 11.5953L10.7837 11.4028C10.8965 11.3662 11.02 11.4065 11.0898 11.5026Z" fill="rgb(255,254.745,254.745)" fill-rule="evenodd" />
</svg>
