<svg viewBox="0 0 20 20" xmlns="http://www.w3.org/2000/svg" xmlns:xlink="http://www.w3.org/1999/xlink" width="20.000000" height="20.000000" fill="none">
	<rect id="20 / Logo / Akola Mono" width="20.000000" height="20.000000" x="0.000000" y="0.000000" />
	<path id="Vector 12536" d="M1.66504 9.7395C1.66504 5.93311 1.66504 4.02991 2.84766 2.84741C4.02979 1.66492 5.93311 1.66492 9.73975 1.66492L10.2607 1.66492C14.0669 1.66492 15.9702 1.66492 17.1528 2.84741C18.335 4.02991 18.335 5.93311 18.335 9.7395L18.335 10.2604C18.335 14.0668 18.335 15.97 17.1528 17.1525C15.9702 18.335 14.0669 18.335 10.2607 18.335L9.73975 18.335C5.93311 18.335 4.02979 18.335 2.84766 17.1525C1.66504 15.97 1.66504 14.0668 1.66504 10.2604L1.66504 9.7395Z" fill="rgb(22,25,27)" fill-rule="evenodd" />
	<path id="Vector 12536" d="M8.56787 6.73621L8.00146 6.73621C7.47314 6.73621 7.05859 6.3269 7.05859 5.80603C7.05859 5.28516 7.47314 4.87585 8.00146 4.87585L13.5571 4.87585C14.085 4.87585 14.5 5.28516 14.5 5.80603C14.5 6.3269 14.085 6.73621 13.5571 6.73621L11.4292 6.73621L11.4204 6.72131C10.7964 5.62122 9.20068 5.62122 8.57666 6.72131L8.56787 6.73621ZM8.40283 7.02759L7.34814 8.88794L5.23096 8.88794C4.70557 8.88794 4.29297 8.47864 4.29297 7.95776C4.29297 7.43689 4.70557 7.02759 5.23096 7.02759L8.40283 7.02759ZM12.7666 8.88794L12.6489 8.88794L11.5942 7.02759L12.7666 7.02759C13.2915 7.02759 13.7041 7.43689 13.7041 7.95776C13.7041 8.47864 13.2915 8.88794 12.7666 8.88794ZM7.18311 9.1792L6.13574 11.0264C5.69385 10.9521 5.3667 10.5756 5.3667 10.1094C5.3667 9.5885 5.77539 9.1792 6.2959 9.1792L7.18311 9.1792ZM13.8691 11.0396L12.8145 9.1792L14.0684 9.1792C14.5884 9.1792 14.9976 9.5885 14.9976 10.1094C14.9976 10.6302 14.5884 11.0396 14.0684 11.0396L13.8691 11.0396ZM9.04541 13.1913L5.23096 13.1913C4.70557 13.1913 4.29297 12.782 4.29297 12.2611C4.29297 11.7402 4.70557 11.3309 5.23096 11.3309L9.04541 11.3309C9.5708 11.3309 9.9834 11.7402 9.9834 12.2611C9.9834 12.782 9.5708 13.1913 9.04541 13.1913ZM14.2949 11.7911L14.0342 11.3309L14.771 11.3309C15.2949 11.3309 15.707 11.7402 15.707 12.2611C15.707 12.782 15.2949 13.1913 14.771 13.1913L14.3867 13.1913C14.4648 13.0006 14.5068 12.7948 14.5068 12.5845C14.5068 12.3199 14.4404 12.0482 14.2949 11.7911ZM9.84814 14.2042L12.7173 14.2042C12.7319 14.2711 12.7402 14.3408 12.7402 14.4128C12.7402 14.9337 12.3271 15.343 11.8008 15.343L10.7642 15.343C10.2383 15.343 9.8252 14.9337 9.8252 14.4128C9.8252 14.3408 9.83301 14.2711 9.84814 14.2042Z" fill="rgb(22,25,27)" fill-rule="evenodd" />
	<path id="Vector 12536" d="M8.56787 6.73621L8.00146 6.73621C7.47314 6.73621 7.05859 6.3269 7.05859 5.80603C7.05859 5.28516 7.47314 4.87585 8.00146 4.87585L13.5571 4.87585C14.085 4.87585 14.5 5.28516 14.5 5.80603C14.5 6.3269 14.085 6.73621 13.5571 6.73621L11.4292 6.73621L11.4204 6.72131C10.7964 5.62122 9.20068 5.62122 8.57666 6.72131L8.56787 6.73621ZM8.40283 7.02759L7.34814 8.88794L5.23096 8.88794C4.70557 8.88794 4.29297 8.47864 4.29297 7.95776C4.29297 7.43689 4.70557 7.02759 5.23096 7.02759L8.40283 7.02759ZM12.7666 8.88794L12.6489 8.88794L11.5942 7.02759L12.7666 7.02759C13.2915 7.02759 13.7041 7.43689 13.7041 7.95776C13.7041 8.47864 13.2915 8.88794 12.7666 8.88794ZM7.18311 9.1792L6.13574 11.0264C5.69385 10.9521 5.3667 10.5756 5.3667 10.1094C5.3667 9.5885 5.77539 9.1792 6.2959 9.1792L7.18311 9.1792ZM13.8691 11.0396L12.8145 9.1792L14.0684 9.1792C14.5884 9.1792 14.9976 9.5885 14.9976 10.1094C14.9976 10.6302 14.5884 11.0396 14.0684 11.0396L13.8691 11.0396ZM9.04541 13.1913L5.23096 13.1913C4.70557 13.1913 4.29297 12.782 4.29297 12.2611C4.29297 11.7402 4.70557 11.3309 5.23096 11.3309L9.04541 11.3309C9.5708 11.3309 9.9834 11.7402 9.9834 12.2611C9.9834 12.782 9.5708 13.1913 9.04541 13.1913ZM14.2949 11.7911L14.0342 11.3309L14.771 11.3309C15.2949 11.3309 15.707 11.7402 15.707 12.2611C15.707 12.782 15.2949 13.1913 14.771 13.1913L14.3867 13.1913C14.4648 13.0006 14.5068 12.7948 14.5068 12.5845C14.5068 12.3199 14.4404 12.0482 14.2949 11.7911ZM9.84814 14.2042L12.7173 14.2042C12.7319 14.2711 12.7402 14.3408 12.7402 14.4128C12.7402 14.9337 12.3271 15.343 11.8008 15.343L10.7642 15.343C10.2383 15.343 9.8252 14.9337 9.8252 14.4128C9.8252 14.3408 9.83301 14.2711 9.84814 14.2042Z" fill="rgb(255,255,255)" fill-rule="evenodd" />
</svg>
