<svg viewBox="0 0 20 20" xmlns="http://www.w3.org/2000/svg" xmlns:xlink="http://www.w3.org/1999/xlink" width="20.000000" height="20.000000" fill="none">
	<rect id="20 / Logo / Sokol" width="20.000000" height="20.000000" x="0.000000" y="0.000000" />
	<path id="Вектор 50" d="M2 9.75C2 6.09656 2 4.2699 3.13477 3.13501C4.26953 2 6.09668 2 9.75 2L10.25 2C13.9033 2 15.7305 2 16.8652 3.13501C18 4.2699 18 6.09656 18 9.75L18 10.25C18 13.9034 18 15.7301 16.8652 16.8651C15.7305 18 13.9033 18 10.25 18L9.75 18C6.09668 18 4.26953 18 3.13477 16.8651C2 15.7301 2 13.9034 2 10.25L2 9.75Z" fill="rgb(0,85,255)" fill-rule="evenodd" />
	<path id="Вектор 50" d="M13.3301 9.651C13.2656 10.2449 12.9033 10.7324 12.3652 10.9603C11.6553 11.2601 10.8115 11.0237 10.3643 10.3636C10.0361 9.87903 10.0049 9.26501 10.2803 8.7478C10.5547 8.23059 11.0234 7.93555 11.5654 7.86279C11.666 7.84937 11.6982 7.71729 11.6182 7.65588C11.0254 7.26123 10.2803 7.16931 9.625 7.45569C9.04395 7.7085 8.63281 8.19128 8.44238 8.79858C8.12988 9.79468 8.44922 10.8704 9.13965 11.6404C10.0469 12.6538 11.4697 13.0562 12.7695 12.6625C13.5039 12.4402 14.123 11.9574 14.5039 11.288C14.9346 10.5352 14.9971 9.57446 14.7871 8.73438C14.5557 7.81299 14.0449 6.99988 13.3477 6.37146C11.7188 4.90125 9.31543 4.68286 7.44727 5.82068C6.05273 6.67029 5.14941 8.17981 5.09863 9.83301C5.06934 10.8024 5.31738 11.7382 5.82031 12.557C6.88281 14.287 8.84863 15.1566 10.8379 14.8386C11.8115 14.6824 12.7002 14.2477 13.417 13.5685C13.5391 13.4517 13.6572 13.3329 13.7676 13.2094C13.8574 13.1088 13.7324 12.9631 13.6182 13.035C13.4521 13.1384 13.2764 13.2285 13.0879 13.3032C11.6602 13.8732 10.0391 13.7946 8.67676 13.0819C7.50879 12.47 6.63184 11.3463 6.59766 9.99585C6.56738 8.78137 7.18848 7.65015 8.19824 7.00073C9.47168 6.18372 11.1318 6.30347 12.2783 7.29187C12.9385 7.86084 13.4268 8.7478 13.3291 9.651L13.3301 9.651Z" fill="rgb(0,85,255)" fill-rule="evenodd" />
	<path id="Вектор 50" d="M13.3301 9.651C13.2656 10.2449 12.9033 10.7324 12.3652 10.9603C11.6553 11.2601 10.8115 11.0237 10.3643 10.3636C10.0361 9.87903 10.0049 9.26501 10.2803 8.7478C10.5547 8.23059 11.0234 7.93555 11.5654 7.86279C11.666 7.84937 11.6982 7.71729 11.6182 7.65588C11.0254 7.26123 10.2803 7.16931 9.625 7.45569C9.04395 7.7085 8.63281 8.19128 8.44238 8.79858C8.12988 9.79468 8.44922 10.8704 9.13965 11.6404C10.0469 12.6538 11.4697 13.0562 12.7695 12.6625C13.5039 12.4402 14.123 11.9574 14.5039 11.288C14.9346 10.5352 14.9971 9.57446 14.7871 8.73438C14.5557 7.81299 14.0449 6.99988 13.3477 6.37146C11.7188 4.90125 9.31543 4.68286 7.44727 5.82068C6.05273 6.67029 5.14941 8.17981 5.09863 9.83301C5.06934 10.8024 5.31738 11.7382 5.82031 12.557C6.88281 14.287 8.84863 15.1566 10.8379 14.8386C11.8115 14.6824 12.7002 14.2477 13.417 13.5685C13.5391 13.4517 13.6572 13.3329 13.7676 13.2094C13.8574 13.1088 13.7324 12.9631 13.6182 13.035C13.4521 13.1384 13.2764 13.2285 13.0879 13.3032C11.6602 13.8732 10.0391 13.7946 8.67676 13.0819C7.50879 12.47 6.63184 11.3463 6.59766 9.99585C6.56738 8.78137 7.18848 7.65015 8.19824 7.00073C9.47168 6.18372 11.1318 6.30347 12.2783 7.29187C12.9385 7.86084 13.4268 8.7478 13.3291 9.651L13.3301 9.651Z" fill="rgb(255,254.745,254.745)" fill-rule="evenodd" />
</svg>
