<svg viewBox="0 0 20 20" xmlns="http://www.w3.org/2000/svg" xmlns:xlink="http://www.w3.org/1999/xlink" width="20.000000" height="20.000000" fill="none">
	<rect id="20 / Logo / Strelka Mono" width="20.000000" height="20.000000" x="0.000000" y="0.000000" />
	<path id="Vector 12532" d="M2.84766 2.84741C1.66504 4.0282 1.66504 5.9325 1.66504 9.73914L1.66504 10.2607C1.66504 14.0674 1.66504 15.9698 2.84766 17.1523C4.03076 18.335 5.93311 18.335 9.73975 18.335L10.2617 18.335C14.0688 18.335 15.9712 18.335 17.1523 17.1523C18.335 15.9698 18.335 14.0674 18.335 10.2607L18.335 9.73914C18.335 5.9325 18.335 4.0282 17.1523 2.8457C15.9712 1.66492 14.0688 1.66492 10.2603 1.66492L9.73975 1.66492C5.93506 1.66492 4.02881 1.66492 2.84766 2.84741Z" fill="rgb(22,25,27)" fill-rule="evenodd" />
	<path id="Vector 12532" d="M14.8867 8.91455L14.8867 5.34839L11.3203 5.34827L11.3203 7.32239L12.9126 7.32239L12.9126 8.91455L14.8867 8.91455ZM8.04785 5.71057C8.62988 5.46924 9.26221 5.34875 9.94482 5.34875L9.94482 7.32275C9.53516 7.32275 9.15527 7.39526 8.80566 7.54004C8.45557 7.68494 8.13623 7.90222 7.84619 8.19202C7.55664 8.48169 7.33936 8.80151 7.19434 9.15125C7.04932 9.50098 6.97705 9.88074 6.97705 10.2905C6.97705 10.7003 7.04932 11.0801 7.19434 11.4299C7.33936 11.7797 7.55664 12.0995 7.84619 12.3892C8.13623 12.6788 8.45557 12.8962 8.80566 13.0411C9.15527 13.1859 9.53516 13.2584 9.94482 13.2584C10.3545 13.2584 10.7344 13.1859 11.084 13.0411C11.4336 12.8962 11.7534 12.679 12.0435 12.3892C12.333 12.0995 12.5503 11.7797 12.6953 11.4299C12.8403 11.0801 12.9126 10.7004 12.9126 10.2906L14.8867 10.2906C14.8867 10.9729 14.7661 11.6053 14.5249 12.1877C14.2837 12.7701 13.9219 13.3026 13.439 13.785C12.9565 14.2675 12.4243 14.6294 11.8418 14.8706C11.2593 15.1119 10.627 15.2324 9.94482 15.2324C9.2627 15.2324 8.62988 15.1118 8.04785 14.8706C7.46533 14.6293 6.93262 14.2675 6.4502 13.785C5.96777 13.3026 5.60596 12.7701 5.36475 12.1877C5.12354 11.6053 5.00293 10.9729 5.00293 10.2906C5.00293 8.92603 5.48535 7.76111 6.4502 6.79614C6.93262 6.31372 7.46533 5.9519 8.04785 5.71057Z" fill="rgb(22,25,27)" fill-rule="evenodd" />
	<path id="Vector 12532" d="M14.8867 8.91455L14.8867 5.34839L11.3203 5.34827L11.3203 7.32239L12.9126 7.32239L12.9126 8.91455L14.8867 8.91455ZM8.04785 5.71057C8.62988 5.46924 9.26221 5.34875 9.94482 5.34875L9.94482 7.32275C9.53516 7.32275 9.15527 7.39526 8.80566 7.54004C8.45557 7.68494 8.13623 7.90222 7.84619 8.19202C7.55664 8.48169 7.33936 8.80151 7.19434 9.15125C7.04932 9.50098 6.97705 9.88074 6.97705 10.2905C6.97705 10.7003 7.04932 11.0801 7.19434 11.4299C7.33936 11.7797 7.55664 12.0995 7.84619 12.3892C8.13623 12.6788 8.45557 12.8962 8.80566 13.0411C9.15527 13.1859 9.53516 13.2584 9.94482 13.2584C10.3545 13.2584 10.7344 13.1859 11.084 13.0411C11.4336 12.8962 11.7534 12.679 12.0435 12.3892C12.333 12.0995 12.5503 11.7797 12.6953 11.4299C12.8403 11.0801 12.9126 10.7004 12.9126 10.2906L14.8867 10.2906C14.8867 10.9729 14.7661 11.6053 14.5249 12.1877C14.2837 12.7701 13.9219 13.3026 13.439 13.785C12.9565 14.2675 12.4243 14.6294 11.8418 14.8706C11.2593 15.1119 10.627 15.2324 9.94482 15.2324C9.2627 15.2324 8.62988 15.1118 8.04785 14.8706C7.46533 14.6293 6.93262 14.2675 6.4502 13.785C5.96777 13.3026 5.60596 12.7701 5.36475 12.1877C5.12354 11.6053 5.00293 10.9729 5.00293 10.2906C5.00293 8.92603 5.48535 7.76111 6.4502 6.79614C6.93262 6.31372 7.46533 5.9519 8.04785 5.71057Z" fill="rgb(255,254.745,254.745)" fill-rule="evenodd" />
</svg>
