<svg viewBox="0 0 20 20" xmlns="http://www.w3.org/2000/svg" xmlns:xlink="http://www.w3.org/1999/xlink" width="20.000000" height="20.000000" fill="none">
	<rect id="20 / Logo / Zabava Mono" width="20.000000" height="20.000000" x="0.000000" y="0.000000" />
	<path id="Vector 12520" d="M1.66504 9.73962C1.66504 5.93323 1.66504 4.03003 2.84766 2.84753C4.02979 1.66504 5.93311 1.66504 9.73975 1.66504L10.2607 1.66504C14.0669 1.66504 15.9702 1.66504 17.1528 2.84753C18.335 4.03003 18.335 5.93323 18.335 9.73962L18.335 10.2605C18.335 14.0669 18.335 15.9701 17.1528 17.1526C15.9702 18.3351 14.0669 18.3351 10.2607 18.3351L9.73975 18.3351C5.93311 18.3351 4.02979 18.3351 2.84766 17.1526C1.66504 15.9701 1.66504 14.0669 1.66504 10.2605L1.66504 9.73962Z" fill="rgb(22,25,27)" fill-rule="evenodd" />
	<path id="Vector 12520" d="M13.4902 9.39038C13.0635 7.26343 11.209 4.27686 9.2124 4.58936C6.896 4.95203 5.31934 6.95422 5.56885 7.32495C5.76611 7.61829 7.04492 7.24658 7.5708 7.07849C7.65967 7.05005 7.74414 7.13806 7.71045 7.2251L6.87988 9.36719C5.3374 9.59656 4.32324 9.9856 4.32324 10.427C4.32324 11.1323 6.91406 11.7041 10.1099 11.7041C11.1284 11.7041 12.0854 11.646 12.917 11.5441C13.0278 11.5304 13.0859 11.6689 12.9941 11.7322C12.5103 12.0645 12.0249 12.25 11.2617 12.2856C11.3345 12.4399 11.3784 12.6365 11.3784 12.8505C11.3784 13.3466 11.1436 13.7485 10.8535 13.7485C10.564 13.7485 10.3291 13.3466 10.3291 12.8505C10.3291 12.6315 10.3745 12.4308 10.4507 12.2749C10.1694 12.2577 9.85693 12.2278 9.50684 12.1849C9.61279 12.3494 9.6792 12.5865 9.6792 12.8505C9.6792 13.3466 9.44434 13.7485 9.15479 13.7485C8.86475 13.7485 8.62988 13.3466 8.62988 12.8505C8.62988 12.5537 8.71436 12.2906 8.84375 12.1271C8.14941 12.1082 7.63379 12.2393 7.25098 12.4188C6.66309 12.6942 6.60547 13.4641 6.99414 13.9839C7.65332 14.8654 8.68848 15.4331 9.85205 15.4331C11.8433 15.4331 13.457 13.7706 13.457 11.7197C13.457 11.636 13.4541 11.5527 13.4487 11.4702C14.9297 11.2389 15.896 10.8578 15.896 10.427C15.896 10.0001 14.9478 9.62231 13.4902 9.39038Z" fill="rgb(22,25,27)" fill-rule="evenodd" />
	<path id="Vector 12520" d="M13.4902 9.39038C13.0635 7.26343 11.209 4.27686 9.2124 4.58936C6.896 4.95203 5.31934 6.95422 5.56885 7.32495C5.76611 7.61829 7.04492 7.24658 7.5708 7.07849C7.65967 7.05005 7.74414 7.13806 7.71045 7.2251L6.87988 9.36719C5.3374 9.59656 4.32324 9.9856 4.32324 10.427C4.32324 11.1323 6.91406 11.7041 10.1099 11.7041C11.1284 11.7041 12.0854 11.646 12.917 11.5441C13.0278 11.5304 13.0859 11.6689 12.9941 11.7322C12.5103 12.0645 12.0249 12.25 11.2617 12.2856C11.3345 12.4399 11.3784 12.6365 11.3784 12.8505C11.3784 13.3466 11.1436 13.7485 10.8535 13.7485C10.564 13.7485 10.3291 13.3466 10.3291 12.8505C10.3291 12.6315 10.3745 12.4308 10.4507 12.2749C10.1694 12.2577 9.85693 12.2278 9.50684 12.1849C9.61279 12.3494 9.6792 12.5865 9.6792 12.8505C9.6792 13.3466 9.44434 13.7485 9.15479 13.7485C8.86475 13.7485 8.62988 13.3466 8.62988 12.8505C8.62988 12.5537 8.71436 12.2906 8.84375 12.1271C8.14941 12.1082 7.63379 12.2393 7.25098 12.4188C6.66309 12.6942 6.60547 13.4641 6.99414 13.9839C7.65332 14.8654 8.68848 15.4331 9.85205 15.4331C11.8433 15.4331 13.457 13.7706 13.457 11.7197C13.457 11.636 13.4541 11.5527 13.4487 11.4702C14.9297 11.2389 15.896 10.8578 15.896 10.427C15.896 10.0001 14.9478 9.62231 13.4902 9.39038Z" fill="rgb(255,254.745,254.745)" fill-rule="evenodd" />
</svg>
