<svg viewBox="0 0 20 20" xmlns="http://www.w3.org/2000/svg" xmlns:xlink="http://www.w3.org/1999/xlink" width="20.000000" height="20.000000" fill="none">
	<rect id="20 / Logo / Yozhka Mono " width="20.000000" height="20.000000" x="0.000000" y="0.000000" />
	<path id="Vector 12552" d="M1.66504 9.7395C1.66504 5.93323 1.66504 4.03003 2.84766 2.84753C4.03027 1.66504 5.93311 1.66504 9.73926 1.66504L10.2603 1.66504C14.0669 1.66504 15.9697 1.66504 17.1528 2.84753C18.335 4.03003 18.335 5.93323 18.335 9.7395L18.335 10.2605C18.335 14.0669 18.335 15.9701 17.1528 17.1526C15.9697 18.3351 14.0669 18.3351 10.2603 18.3351L9.73926 18.3351C5.93311 18.3351 4.03027 18.3351 2.84766 17.1526C1.66504 15.9701 1.66504 14.0669 1.66504 10.2605L1.66504 9.7395Z" fill="rgb(22,25,27)" fill-rule="evenodd" />
	<path id="Vector 12552" d="M9.23975 7.49817C9.3208 7.49817 9.3999 7.50818 9.47705 7.52734C8.97998 6.78613 8.26221 6.32068 7.46484 6.32068C5.96387 6.32068 4.74707 7.96802 4.74707 10.0001C4.74707 12.0321 5.96387 13.6794 7.46484 13.6794C8.83447 13.6794 9.96729 12.3075 10.1548 10.5232C9.91943 10.8369 9.59619 11.0304 9.23975 11.0304C8.51904 11.0304 7.93506 10.2397 7.93506 9.2644C7.93506 8.28894 8.51904 7.49817 9.23975 7.49817Z" fill="rgb(22,25,27)" fill-rule="evenodd" />
	<path id="Vector 12552" d="M9.23975 7.49817C9.3208 7.49817 9.3999 7.50818 9.47705 7.52734C8.97998 6.78613 8.26221 6.32068 7.46484 6.32068C5.96387 6.32068 4.74707 7.96802 4.74707 10.0001C4.74707 12.0321 5.96387 13.6794 7.46484 13.6794C8.83447 13.6794 9.96729 12.3075 10.1548 10.5232C9.91943 10.8369 9.59619 11.0304 9.23975 11.0304C8.51904 11.0304 7.93506 10.2397 7.93506 9.2644C7.93506 8.28894 8.51904 7.49817 9.23975 7.49817Z" fill="rgb(255,255,255)" fill-rule="evenodd" />
	<path id="Vector 12552" d="M10.3257 12.0907C10.8164 13.0507 11.6353 13.6794 12.5625 13.6794C13.9321 13.6794 15.0654 12.3075 15.2524 10.5231C15.0171 10.8368 14.6938 11.0304 14.3374 11.0304C13.6172 11.0304 13.0327 10.2397 13.0327 9.2644C13.0327 8.28894 13.6172 7.49817 14.3374 7.49817C14.4189 7.49817 14.498 7.50818 14.5747 7.52734C14.0776 6.78613 13.3604 6.32068 12.5625 6.32068C11.6353 6.32068 10.8164 6.94958 10.3257 7.90955C10.5967 8.53198 10.7476 9.24719 10.7476 10.0001C10.7476 10.7531 10.5967 11.4683 10.3257 12.0907Z" fill="rgb(22,25,27)" fill-rule="evenodd" />
	<path id="Vector 12552" d="M10.3257 12.0907C10.8164 13.0507 11.6353 13.6794 12.5625 13.6794C13.9321 13.6794 15.0654 12.3075 15.2524 10.5231C15.0171 10.8368 14.6938 11.0304 14.3374 11.0304C13.6172 11.0304 13.0327 10.2397 13.0327 9.2644C13.0327 8.28894 13.6172 7.49817 14.3374 7.49817C14.4189 7.49817 14.498 7.50818 14.5747 7.52734C14.0776 6.78613 13.3604 6.32068 12.5625 6.32068C11.6353 6.32068 10.8164 6.94958 10.3257 7.90955C10.5967 8.53198 10.7476 9.24719 10.7476 10.0001C10.7476 10.7531 10.5967 11.4683 10.3257 12.0907Z" fill="rgb(255,255,255)" fill-rule="evenodd" />
</svg>
