<svg viewBox="0 0 20 20" xmlns="http://www.w3.org/2000/svg" xmlns:xlink="http://www.w3.org/1999/xlink" width="20.000000" height="20.000000" fill="none">
	<rect id="20 / Logo / Teremok" width="20.000000" height="20.000000" x="0.000000" y="0.000000" />
	<path id="Vector 12528" d="M1.66504 9.7395C1.66504 5.93311 1.66504 4.02991 2.84766 2.84741C4.02979 1.66492 5.93311 1.66492 9.73975 1.66492L10.2607 1.66492C14.0669 1.66492 15.9702 1.66492 17.1528 2.84741C18.335 4.02991 18.335 5.93311 18.335 9.7395L18.335 10.2604C18.335 14.0668 18.335 15.97 17.1528 17.1525C15.9702 18.335 14.0669 18.335 10.2607 18.335L9.73975 18.335C5.93311 18.335 4.02979 18.335 2.84766 17.1525C1.66504 15.97 1.66504 14.0668 1.66504 10.2604L1.66504 9.7395Z" fill="rgb(0,85,255)" fill-rule="evenodd" />
	<path id="Vector 12528" d="M11.0747 5.17029L9.31348 5.17029C9.12549 5.17029 9.02441 5.39124 9.14746 5.53333L13.3423 10.3729C13.4653 10.5149 13.3647 10.7358 13.1768 10.7358L12.2422 10.7358C12.144 10.7358 12.0576 10.8013 12.0312 10.896L11.3867 13.1908C11.3604 13.2855 11.2739 13.351 11.1758 13.351L8.84131 13.351C8.74316 13.351 8.65674 13.2855 8.63037 13.1908L7.98438 10.8896C7.95801 10.795 7.87158 10.7296 7.77295 10.7296L6.84277 10.7296C6.65381 10.7296 6.55322 10.5067 6.67871 10.365L9.31152 7.38489C9.3833 7.30359 9.38477 7.18201 9.31494 7.09875L8.35742 5.95593C8.27051 5.85229 8.11133 5.8512 8.02295 5.95374L4.08838 10.5238C3.96582 10.6659 4.06689 10.8862 4.25439 10.8862L5.76562 10.8862C5.86426 10.8862 5.95068 10.9517 5.97705 11.0463L6.9917 14.6606C7.01807 14.7554 7.10449 14.8207 7.20264 14.8207L8.42529 14.8207L11.5605 14.8281L12.813 14.827C12.9111 14.827 12.9971 14.7616 13.0239 14.667L14.041 11.0436C14.0674 10.949 14.1538 10.8835 14.252 10.8835L15.7456 10.8835C15.9336 10.8835 16.0347 10.6626 15.9116 10.5206L11.4062 5.32166C11.3228 5.22559 11.2017 5.17029 11.0747 5.17029Z" fill="rgb(0,85,255)" fill-rule="evenodd" />
	<path id="Vector 12528" d="M11.0747 5.17029L9.31348 5.17029C9.12549 5.17029 9.02441 5.39124 9.14746 5.53333L13.3423 10.3729C13.4653 10.5149 13.3647 10.7358 13.1768 10.7358L12.2422 10.7358C12.144 10.7358 12.0576 10.8013 12.0312 10.896L11.3867 13.1908C11.3604 13.2855 11.2739 13.351 11.1758 13.351L8.84131 13.351C8.74316 13.351 8.65674 13.2855 8.63037 13.1908L7.98438 10.8896C7.95801 10.795 7.87158 10.7296 7.77295 10.7296L6.84277 10.7296C6.65381 10.7296 6.55322 10.5067 6.67871 10.365L9.31152 7.38489C9.3833 7.30359 9.38477 7.18201 9.31494 7.09875L8.35742 5.95593C8.27051 5.85229 8.11133 5.8512 8.02295 5.95374L4.08838 10.5238C3.96582 10.6659 4.06689 10.8862 4.25439 10.8862L5.76562 10.8862C5.86426 10.8862 5.95068 10.9517 5.97705 11.0463L6.9917 14.6606C7.01807 14.7554 7.10449 14.8207 7.20264 14.8207L8.42529 14.8207L11.5605 14.8281L12.813 14.827C12.9111 14.827 12.9971 14.7616 13.0239 14.667L14.041 11.0436C14.0674 10.949 14.1538 10.8835 14.252 10.8835L15.7456 10.8835C15.9336 10.8835 16.0347 10.6626 15.9116 10.5206L11.4062 5.32166C11.3228 5.22559 11.2017 5.17029 11.0747 5.17029Z" fill="rgb(255,255,255)" fill-rule="evenodd" />
</svg>
