<svg viewBox="0 0 20 20" xmlns="http://www.w3.org/2000/svg" xmlns:xlink="http://www.w3.org/1999/xlink" width="20.000000" height="20.000000" fill="none" customFrame="#000000">
	<rect id="20 / Lukit / Yozhka" width="20.000000" height="20.000000" x="0.000000" y="0.000000" />
	<path id="Avatar" d="M9.15885 6.02457C9.03517 5.99381 8.90771 5.97775 8.77745 5.97775C7.61895 5.97775 6.67981 7.24899 6.67981 8.81715C6.67981 10.3853 7.61895 11.6566 8.77745 11.6566C9.35061 11.6566 9.87007 11.3454 10.2487 10.8411C9.94711 13.7097 8.12561 15.9155 5.92359 15.9155C3.51071 15.9155 1.55469 13.267 1.55469 10C1.55469 6.73301 3.51071 4.08459 5.92359 4.08459C7.20615 4.08459 8.35961 4.83287 9.15885 6.02457ZM14.1196 15.9155C12.6288 15.9155 11.3124 14.9044 10.524 13.3611C10.9593 12.3605 11.2014 11.2106 11.2014 10.0001C11.2014 8.78961 10.9593 7.63967 10.5239 6.63903C11.3123 5.09567 12.6288 4.08459 14.1196 4.08459C15.4022 4.08459 16.5556 4.83287 17.3549 6.02461C17.2312 5.99383 17.1036 5.97775 16.9733 5.97775C15.8148 5.97775 14.8757 7.24899 14.8757 8.81715C14.8757 10.3853 15.8148 11.6566 16.9733 11.6566C17.5466 11.6566 18.0661 11.3453 18.4447 10.8409C18.1432 13.7096 16.3217 15.9155 14.1196 15.9155Z" fill="rgb(14,17,23)" fill-rule="evenodd" />
</svg>
