<svg viewBox="0 0 20 20" xmlns="http://www.w3.org/2000/svg" xmlns:xlink="http://www.w3.org/1999/xlink" width="20.000000" height="20.000000" fill="none" customFrame="#000000">
	<rect id="20 / Lukit / Akola" width="20.000000" height="20.000000" x="0.000000" y="0.000000" />
	<path id="Avatar" d="M7.86716 4.97598L7.0231 4.97598C6.23681 4.97598 5.61893 4.36637 5.61893 3.59059C5.61893 2.81481 6.23681 2.2052 7.0231 2.2052L15.2979 2.2052C16.0842 2.2052 16.702 2.81481 16.702 3.59059C16.702 4.36637 16.0842 4.97598 15.2979 4.97598L12.1284 4.97598L12.1156 4.9537C11.1858 3.31523 8.80975 3.31523 7.87989 4.9537L7.86716 4.97598ZM7.62125 5.40987L6.05027 8.18065L2.89685 8.18065C2.1147 8.18065 1.5 7.57104 1.5 6.79526C1.5 6.01948 2.1147 5.40987 2.89685 5.40987L7.62125 5.40987ZM14.12 8.18065L13.9453 8.18065L12.3743 5.40987L14.12 5.40987C14.9022 5.40987 15.5169 6.01948 15.5169 6.79526C15.5169 7.57104 14.9022 8.18065 14.12 8.18065ZM5.8042 8.61454L4.24436 11.3656C3.58668 11.2551 3.09931 10.6942 3.09931 9.99993C3.09931 9.22415 3.70813 8.61454 4.48279 8.61454L5.8042 8.61454ZM15.7623 11.3853L14.1913 8.61454L16.0593 8.61454C16.834 8.61454 17.4428 9.22415 17.4428 9.99993C17.4428 10.7757 16.834 11.3853 16.0593 11.3853L15.7623 11.3853ZM8.578 14.59L2.89733 14.59C2.11486 14.59 1.5 13.9804 1.5 13.2046C1.5 12.4288 2.11486 11.8192 2.89733 11.8192L8.578 11.8192C9.36047 11.8192 9.97533 12.4288 9.97533 13.2046C9.97533 13.9804 9.36047 14.59 8.578 14.59ZM16.3966 12.5046L16.0081 11.8192L17.1054 11.8192C17.8863 11.8192 18.5 12.4288 18.5 13.2046C18.5 13.9804 17.8863 14.59 17.1054 14.59L16.5337 14.59C16.6495 14.306 16.7121 13.9995 16.7121 13.6862C16.7121 13.2921 16.6131 12.8875 16.3966 12.5046ZM9.77351 16.0986L14.0468 16.0986C14.0691 16.1982 14.0809 16.302 14.0809 16.4093C14.0809 17.1851 13.4655 17.7947 12.6823 17.7947L11.138 17.7947C10.3548 17.7947 9.73944 17.1851 9.73944 16.4093C9.73944 16.302 9.75122 16.1982 9.77351 16.0986Z" fill="rgb(14,17,23)" fill-rule="evenodd" />
</svg>
