<svg viewBox="0 0 20 20" xmlns="http://www.w3.org/2000/svg" xmlns:xlink="http://www.w3.org/1999/xlink" width="20.000000" height="20.000000" fill="none" customFrame="#000000">
	<rect id="20 / Lukit / Yarmarka" width="20.000000" height="20.000000" x="0.000000" y="0.000000" />
	<path id="Avatar" d="M12.1169 4.8906L12.1169 2.27824C12.1169 1.84854 11.7683 1.5 11.3386 1.5L8.6622 1.5C8.23166 1.5 7.88396 1.84854 7.88396 2.27824L7.88396 4.8906L6.03702 3.04366C5.7329 2.73954 5.24 2.73954 4.93586 3.04366L3.04366 4.93588C2.73954 5.24 2.73954 5.7329 3.04366 6.03704L4.88974 7.88312L7.88396 7.88312L7.88396 4.8906L10 7.0075L12.1169 4.8906ZM12.1169 4.8906L13.9638 3.04366C14.2679 2.73954 14.76 2.73954 15.0641 3.04366L16.9572 4.93588C17.2613 5.24 17.2613 5.7329 16.9572 6.03704L15.1111 7.88312L12.1169 7.88312L12.1169 4.8906ZM4.8906 12.1169L2.27824 12.1169C1.84854 12.1169 1.5 11.7684 1.5 11.3387L1.5 8.66138C1.5 8.23168 1.84854 7.88314 2.27824 7.88314L4.88974 7.88312L7.00664 10.0009L4.8906 12.1169ZM4.8906 12.1169L7.88396 12.1169L7.88396 15.1102L6.03702 16.9572C5.7329 17.2604 5.24 17.2604 4.93672 16.9572L3.04366 15.0641C2.73954 14.76 2.73954 14.2671 3.04366 13.9638L4.8906 12.1169ZM17.7218 12.1169L15.1094 12.1169L12.9934 10.0009L15.1111 7.88312L17.7218 7.88314C18.1515 7.88314 18.5 8.23168 18.5 8.66138L18.5 11.3387C18.5 11.7684 18.1515 12.1169 17.7218 12.1169ZM12.1169 15.1111L13.9629 16.9572C14.2671 17.2604 14.76 17.2604 15.0641 16.9572L16.9563 15.0641C17.2604 14.76 17.2604 14.2671 16.9563 13.9638L15.1094 12.1169L12.1169 12.1169L12.1169 15.1111ZM12.1169 15.1111L12.1169 17.7218C12.1169 18.1515 11.7683 18.5 11.3386 18.5L8.6622 18.5C8.23166 18.5 7.88396 18.1515 7.88396 17.7218L7.88396 15.1102L10 12.9942L12.1169 15.1111Z" fill="rgb(14,17,23)" fill-rule="evenodd" />
</svg>
