<svg viewBox="0 0 20 20" xmlns="http://www.w3.org/2000/svg" xmlns:xlink="http://www.w3.org/1999/xlink" width="20.000000" height="20.000000" fill="none" customFrame="#000000">
	<rect id="20 / Lukit / Sirin" width="20.000000" height="20.000000" x="0.000000" y="0.000000" />
	<path id="Avatar" d="M9.99546 6.9431L9.99546 1.93367C9.99546 1.68441 10.1977 1.48106 10.4467 1.49411C11.0474 1.52569 11.6321 1.61985 12.1933 1.76971C12.4341 1.83403 12.5636 2.08982 12.4867 2.32684L11.924 4.06036C11.8471 4.29715 11.9774 4.5499 12.2074 4.64523C12.4254 4.73554 12.6366 4.83867 12.8401 4.9538C12.9477 5.01475 13.0746 5.03386 13.194 5.00193L13.5678 4.90171C13.6678 4.87491 13.7556 4.81455 13.8163 4.73088L14.7292 3.47327C14.8755 3.27168 15.1585 3.22576 15.3521 3.38261C15.8122 3.75493 16.2321 4.17491 16.6046 4.63497C16.7614 4.82865 16.7155 5.11158 16.5138 5.25795L15.0386 6.32875C14.8371 6.475 14.5567 6.4292 14.3949 6.23995C14.2486 6.06877 14.0925 5.90609 13.9276 5.75297C13.8185 5.6517 13.6642 5.61779 13.5205 5.65625L13.2119 5.73899C13.1121 5.76567 13.0244 5.82592 12.9636 5.90959L11.7888 7.52645C11.6737 7.6847 11.4699 7.75089 11.2838 7.6903L10.3071 7.37228C10.1213 7.3118 9.99546 7.13852 9.99546 6.9431ZM7.09407 9.05721L2.3297 7.50909C2.09262 7.43206 1.9617 7.17686 2.05107 6.94415C2.26677 6.38259 2.53701 5.85563 2.85292 5.36818C2.98851 5.15901 3.27179 5.11496 3.47345 5.26144L4.94827 6.33224C5.14975 6.47849 5.43036 6.43269 5.59216 6.24345C5.74551 6.06387 5.90895 5.89479 6.08141 5.73689C6.1726 5.65334 6.23005 5.53855 6.23652 5.41503L6.25673 5.0292C6.26215 4.92595 6.23191 4.82387 6.17103 4.74008L5.25614 3.48201C5.10955 3.28053 5.15342 2.99725 5.36236 2.86149C5.85872 2.53905 6.38789 2.26951 6.94054 2.05742C7.17319 1.96828 7.42805 2.09926 7.50496 2.33628L8.06751 4.07015C8.1443 4.30694 8.01408 4.55958 7.78411 4.6549C7.57651 4.74101 7.37398 4.8389 7.17768 4.94821C7.04763 5.02057 6.96769 5.15691 6.95988 5.30561L6.94304 5.62642C6.93763 5.72966 6.96786 5.83174 7.02864 5.91541L8.20298 7.53193C8.31793 7.69018 8.31788 7.9046 8.2028 8.06285L7.59859 8.89336C7.48363 9.05149 7.27993 9.11757 7.09407 9.05721ZM17.6642 7.50793L12.8999 9.05604C12.714 9.1164 12.5881 9.28957 12.588 9.48511L12.5874 10.5122C12.5873 10.7079 12.7132 10.8813 12.8993 10.9417L14.7992 11.5591C14.8976 11.5912 14.982 11.6558 15.0383 11.7427L15.2132 12.012C15.2942 12.1368 15.3097 12.294 15.247 12.429C15.1524 12.633 15.0461 12.8314 14.9286 13.0231C14.7986 13.2354 14.8418 13.5164 15.0431 13.6629L16.5173 14.7348C16.7189 14.8814 17.0021 14.8376 17.1379 14.6287C17.4603 14.1322 17.73 13.6031 17.942 13.0505C18.0313 12.8179 17.9002 12.5629 17.6632 12.486L16.1841 12.0063C16.0856 11.9743 16.0011 11.9095 15.9448 11.8227L15.7344 11.4988C15.6671 11.395 15.6461 11.2685 15.6707 11.1473C15.7175 10.918 15.7503 10.685 15.7689 10.4495C15.7885 10.2013 15.9886 9.99936 16.2376 9.99924L18.0602 9.99866C18.3094 9.99854 18.5126 9.79636 18.4994 9.54757C18.4685 8.96748 18.3774 8.38237 18.2217 7.80123C18.1572 7.56036 17.9013 7.4309 17.6642 7.50793ZM9.99546 8.71344C9.28765 8.71344 8.71385 9.28724 8.71385 9.99504C8.71385 10.7029 9.28765 11.2767 9.99546 11.2767C10.7033 11.2767 11.2771 10.7029 11.2771 9.99504C11.2771 9.28724 10.7033 8.71344 9.99546 8.71344ZM5.25964 16.5152L8.20403 12.4625C8.31893 12.3043 8.31898 12.0902 8.2042 11.9319L7.60086 11.1007C7.48596 10.9423 7.28215 10.876 7.09605 10.9365L5.19508 11.554C5.09673 11.5859 4.99039 11.5831 4.89385 11.5461L4.59599 11.4318C4.45709 11.3785 4.35215 11.2603 4.32349 11.1143C4.28002 10.8934 4.24931 10.67 4.2316 10.4454C4.21202 10.1972 4.01194 9.99539 3.76303 9.99528L1.94014 9.99446C1.69099 9.99435 1.48759 10.1963 1.50058 10.4451C1.53146 11.0362 1.6244 11.6227 1.77763 12.1944C1.84219 12.4352 2.09804 12.5644 2.335 12.4873L3.81238 12.0065C3.91085 11.9744 4.01724 11.9772 4.11385 12.0143L4.47544 12.1531C4.59087 12.1974 4.68223 12.2874 4.7335 12.4C4.8304 12.6127 4.94063 12.8202 5.06387 13.0214C5.19391 13.2337 5.1508 13.5147 4.94937 13.6611L3.47526 14.7328C3.27372 14.8794 3.2281 15.1625 3.38512 15.3561C3.75103 15.8071 4.16873 16.227 4.6362 16.6056C4.82993 16.7626 5.1131 16.7169 5.25964 16.5152ZM11.7888 12.4769L14.7331 16.5296C14.8797 16.7313 14.8356 17.0148 14.6265 17.1505C14.1219 17.4781 13.5935 17.7455 13.0514 17.9541C12.8188 18.0436 12.5637 17.9129 12.4867 17.6758L11.9229 15.9427C11.8459 15.7059 11.592 15.578 11.3498 15.6361C11.1203 15.6911 10.8887 15.7319 10.6564 15.7583C10.5335 15.7723 10.4196 15.8314 10.3418 15.9274L10.099 16.2272C10.0339 16.3076 9.99837 16.4081 9.99843 16.5116L9.99907 18.0664C9.99918 18.3156 9.79724 18.5189 9.54838 18.506C8.95728 18.475 8.37072 18.3821 7.79902 18.2288C7.55833 18.1643 7.42915 17.9084 7.50624 17.6715L8.07036 15.9381C8.14739 15.7014 8.40125 15.5735 8.64329 15.6316C8.86208 15.6841 9.08366 15.7238 9.30693 15.7509C9.45469 15.7687 9.59948 15.7054 9.69317 15.5897L9.89431 15.3414C9.95939 15.261 9.99487 15.1607 9.99487 15.0573L9.99505 13.059C9.99505 12.8633 10.1211 12.6901 10.3072 12.6297L11.2843 12.3128C11.4702 12.2525 11.6739 12.3188 11.7888 12.4769Z" fill="rgb(14,17,23)" fill-rule="evenodd" />
</svg>
