<svg viewBox="0 0 20 20" xmlns="http://www.w3.org/2000/svg" xmlns:xlink="http://www.w3.org/1999/xlink" width="20.000000" height="20.000000" fill="none" customFrame="#000000">
	<rect id="20 / Lukit / Zabava" width="20.000000" height="20.000000" x="0.000000" y="0.000000" />
	<path id="Avatar" d="M14.9661 9.1046C14.3387 5.9802 11.6145 1.59313 8.68187 2.05208C5.2795 2.58493 2.96353 5.526 3.32962 6.0707C3.61921 6.50159 5.49819 5.95555 6.27059 5.70862C6.40123 5.66686 6.52498 5.79606 6.4754 5.92396L5.25556 9.07049C2.99006 9.40746 1.5 9.979 1.5 10.6274C1.5 11.6635 5.30559 12.5034 10 12.5034C11.4964 12.5034 12.9025 12.4181 14.1238 12.2682C14.2866 12.2483 14.3721 12.4517 14.2369 12.5446C13.5265 13.0328 12.8132 13.3053 11.692 13.3577C11.7992 13.5844 11.8635 13.8731 11.8635 14.1874C11.8635 14.916 11.5184 15.5066 11.0928 15.5066C10.6671 15.5066 10.3221 14.916 10.3221 14.1874C10.3221 13.8656 10.3894 13.5708 10.5012 13.3418C10.0879 13.3167 9.62904 13.2727 9.1147 13.2098C9.27023 13.4512 9.3679 13.7997 9.3679 14.1874C9.3679 14.916 9.02285 15.5066 8.59721 15.5066C8.17156 15.5066 7.82651 14.916 7.82651 14.1874C7.82651 13.7515 7.95002 13.365 8.14041 13.1248C7.12076 13.0968 6.3633 13.2896 5.80041 13.5534C4.93719 13.9579 4.8525 15.0888 5.42345 15.8522C6.39185 17.1471 7.91226 17.9812 9.62139 17.9812C12.5462 17.9812 14.9168 15.539 14.9168 12.5264C14.9168 12.4033 14.9129 12.2811 14.9049 12.1598C17.0801 11.82 18.5 11.2603 18.5 10.6274C18.5 10.0004 17.1066 9.44526 14.9661 9.1046Z" fill="rgb(14,17,23)" fill-rule="evenodd" />
</svg>
