<svg viewBox="0 0 20 20" xmlns="http://www.w3.org/2000/svg" xmlns:xlink="http://www.w3.org/1999/xlink" width="20.000000" height="20.000000" fill="none" customFrame="#000000">
	<rect id="20 / Lukit / Alkion" width="20.000000" height="20.000000" x="0.000000" y="0.000000" />
	<path id="Avatar" d="M15.3784 9.55133C15.1094 10.5464 15.2366 11.6452 15.8221 12.5929L15.8238 12.5965L18.4954 16.9238C18.6291 16.9496 15.7814 17.1008 14.8109 16.9383C13.6723 16.7486 12.503 16.01 11.7494 14.7893C10.991 13.5622 10.8312 12.1726 11.2128 11.0804C11.2322 11.0218 11.1964 10.9617 11.1344 10.9536C9.98288 10.7996 8.80522 10.0204 8.0518 8.80143C7.2982 7.58209 7.21818 6.22677 7.50854 5.11339C7.65708 4.54505 8.79058 2.53909 9.10548 1.98877C9.14132 1.92553 9.23264 1.92377 9.27184 1.98699L11.8587 6.17485C12.4426 7.11971 13.3707 7.73151 14.3835 7.94415C14.9234 8.05613 15.4877 8.05613 16.0373 7.93461C16.1271 7.91519 16.1908 8.01727 16.132 8.08861C15.7765 8.52061 15.5204 9.02043 15.3784 9.55133ZM6.67846 16.9676C7.16114 16.9351 7.644 16.7889 8.08448 16.5194L8.08112 16.5194C9.6436 15.5636 10.0548 13.4502 8.88524 11.9744C7.99634 10.853 6.40436 10.4927 5.1142 11.1175C4.54834 11.392 4.11122 11.8056 3.81434 12.2927C3.81098 12.2945 3.80938 12.3026 3.80938 12.3026L3.61212 12.6873C3.61034 12.6904 3.60716 12.6968 3.60716 12.6968L1.51766 16.7614C1.46398 16.8652 1.53904 16.9871 1.6563 16.9871L6.27878 16.9676L6.67846 16.9676Z" fill="rgb(14,17,23)" fill-rule="evenodd" />
</svg>
