<svg viewBox="0 0 20 20" xmlns="http://www.w3.org/2000/svg" xmlns:xlink="http://www.w3.org/1999/xlink" width="20.000000" height="20.000000" fill="none" customFrame="#000000">
	<rect id="20 / Lukit / Teremok" width="20.000000" height="20.000000" x="0.000000" y="0.000000" />
	<path id="Avatar" d="M11.5311 3.11926L9.02164 3.11926C8.75397 3.11926 8.60991 3.43409 8.78541 3.63652L14.7624 10.5323C14.9379 10.7347 14.7941 11.0496 14.5264 11.0496L13.1948 11.0496C13.0547 11.0496 12.9317 11.1427 12.8939 11.2777L11.9761 14.5476C11.9382 14.6825 11.8152 14.7757 11.6752 14.7757L8.34896 14.7757C8.20886 14.7757 8.08586 14.6825 8.04802 14.5476L7.1278 11.2687C7.08996 11.1339 6.96696 11.0407 6.82686 11.0407L5.50133 11.0407C5.23213 11.0407 5.08899 10.723 5.26723 10.5212L9.0189 6.27485C9.12114 6.15894 9.12328 5.98566 9.02409 5.86716L7.65948 4.23878C7.53587 4.09106 7.3091 4.08953 7.18305 4.23558L1.5763 10.7473C1.40172 10.9499 1.54578 11.2638 1.81315 11.2638L3.96672 11.2638C4.10682 11.2638 4.22982 11.357 4.26766 11.4919L5.71315 16.6419C5.75099 16.7768 5.87399 16.87 6.01409 16.87L7.75593 16.87L12.2233 16.8806L14.0079 16.8791C14.1477 16.8791 14.2707 16.7858 14.3085 16.651L15.7577 11.4881C15.7955 11.3533 15.9185 11.26 16.0586 11.26L18.1869 11.26C18.4548 11.26 18.5986 10.9452 18.4231 10.7428L12.0036 3.33497C11.8848 3.19801 11.7124 3.11926 11.5311 3.11926Z" fill="rgb(14,17,23)" fill-rule="evenodd" />
</svg>
