<svg viewBox="0 0 20 20" xmlns="http://www.w3.org/2000/svg" xmlns:xlink="http://www.w3.org/1999/xlink" width="20.000000" height="20.000000" fill="none">
	<rect id="20 / Lukit / Snowflake" width="20.000000" height="20.000000" x="0.000000" y="0.000000" />
	<path id="Vector 8468" d="M16.6129 11.1636L14.8402 12.2107L14.3654 11.9367L15.7997 11.0894C15.9117 11.0232 15.9491 10.8787 15.8828 10.7665L15.608 10.3018C15.5418 10.1899 15.3973 10.1525 15.285 10.2187L13.3596 11.3562L12.3321 10.7631C11.7449 10.4241 11.7449 9.57683 12.3321 9.23781L13.3596 8.64477L15.285 9.78221C15.397 9.84843 15.5418 9.81135 15.608 9.69914L15.8828 9.23444C15.9491 9.12248 15.912 8.97777 15.7997 8.91156L14.3654 8.06425L14.8402 7.79025L16.6129 8.83739C16.7249 8.90361 16.8696 8.86653 16.9359 8.75433L17.2107 8.28962C17.2769 8.17766 17.2398 8.03295 17.1276 7.96674L15.8462 7.20973L16.9792 6.55577C17.0919 6.49076 17.1307 6.34654 17.0654 6.23385L16.7954 5.76626C16.7304 5.65358 16.5861 5.61481 16.4734 5.68006L15.3404 6.33402L15.3255 4.84624C15.3243 4.71598 15.2176 4.61173 15.0873 4.61293L14.5473 4.61847C14.417 4.61967 14.3127 4.72634 14.3139 4.8566L14.3346 6.91478L13.8601 7.18878L13.8433 5.52356C13.8421 5.39329 13.7354 5.28904 13.6051 5.29024L13.0651 5.29578C12.9348 5.29698 12.8305 5.40365 12.8317 5.53391L12.8543 7.76954L11.8268 8.36258C11.2396 8.7016 10.5055 8.27783 10.5055 7.60003L10.5055 6.41396L12.4535 5.31576C12.567 5.25172 12.607 5.10797 12.5431 4.99457L12.2777 4.52432C12.2136 4.41092 12.0698 4.37095 11.9566 4.43475L10.5055 5.25292L10.5055 4.70515L12.2989 3.69412C12.4123 3.63007 12.4523 3.48633 12.3885 3.37292L12.1231 2.90268C12.059 2.78927 11.9152 2.7493 11.802 2.81311L10.5055 3.54411L10.5055 2.23572C10.5055 2.10546 10.4 2 10.2697 2L9.72969 2C9.59938 2 9.49389 2.10546 9.49389 2.23572L9.49389 3.54363L8.19736 2.81263C8.08392 2.74858 7.94013 2.78879 7.8763 2.9022L7.61088 3.37244C7.54681 3.48585 7.58703 3.62959 7.70047 3.69364L9.49389 4.70467L9.49389 5.25244L8.04273 4.43427C7.92929 4.37023 7.7855 4.41044 7.72167 4.52384L7.45625 4.99409C7.39218 5.10749 7.4324 5.25124 7.54584 5.31528L9.49389 6.41348L9.49389 7.59955C9.49389 8.27735 8.75976 8.70112 8.17255 8.3621L7.14506 7.76906L7.1677 5.53343C7.16891 5.40317 7.06461 5.29674 6.93431 5.2953L6.39431 5.28976C6.26401 5.28856 6.15755 5.39282 6.15611 5.52308L6.13925 7.1883L5.66476 6.9143L5.68547 4.85612C5.68668 4.72586 5.58239 4.61943 5.45208 4.61799L4.91208 4.61245C4.78178 4.61125 4.67532 4.7155 4.67388 4.84577L4.65894 6.33354L3.52596 5.67958C3.41324 5.61457 3.26897 5.6531 3.20393 5.76578L2.93393 6.23337C2.8689 6.34606 2.90744 6.49029 3.02016 6.5553L4.15315 7.20925L2.87179 7.96626C2.75979 8.03247 2.72246 8.17694 2.7887 8.28914L3.06351 8.75385C3.12975 8.86581 3.27426 8.90313 3.3865 8.83692L5.1592 7.78977L5.63393 8.06378L4.19963 8.91108C4.08763 8.97729 4.0503 9.12176 4.11654 9.23396L4.39135 9.69866C4.45759 9.81063 4.6021 9.84795 4.71434 9.78173L6.63974 8.64429L7.66723 9.23733C8.25444 9.57635 8.25444 10.4236 7.66723 10.7627L6.63974 11.3557L4.71434 10.2183C4.60234 10.1521 4.45759 10.1891 4.39135 10.3013L4.11654 10.766C4.0503 10.878 4.08739 11.0227 4.19963 11.0889L5.63393 11.9362L5.1592 12.2102L3.3865 11.1631C3.2745 11.0969 3.12975 11.1339 3.06351 11.2462L2.7887 11.7109C2.72246 11.8228 2.75955 11.9675 2.87179 12.0337L4.15315 12.7907L3.02016 13.4447C2.90744 13.5097 2.86866 13.6539 2.93393 13.7666L3.20393 14.2342C3.26897 14.3469 3.41324 14.3857 3.52596 14.3204L4.65894 13.6665L4.67388 15.1542C4.67508 15.2845 4.78178 15.3888 4.91208 15.3875L5.45208 15.382C5.58239 15.3808 5.68668 15.2741 5.68547 15.1439L5.66476 13.0857L6.13925 12.8117L6.15611 14.4769C6.15731 14.6072 6.26401 14.7114 6.39431 14.7102L6.93431 14.7047C7.06461 14.7035 7.16891 14.5968 7.1677 14.4666L7.14506 12.2309L8.17255 11.6379C8.75976 11.2989 9.49389 11.7227 9.49389 12.4004L9.49389 13.5865L7.54584 14.6847C7.4324 14.7488 7.39242 14.8925 7.45625 15.0059L7.72167 15.4762C7.78574 15.5896 7.92953 15.6295 8.04273 15.5657L9.49389 14.7476L9.49389 15.2953L7.70047 16.3064C7.58703 16.3704 7.54705 16.5142 7.61088 16.6276L7.8763 17.0978C7.94037 17.2112 8.08416 17.2512 8.19736 17.1874L9.49389 16.4564L9.49389 17.7643C9.49389 17.8945 9.59938 18 9.72969 18L10.2697 18C10.4 18 10.5055 17.8945 10.5055 17.7643L10.5055 16.4564L11.802 17.1874C11.9155 17.2514 12.0592 17.2112 12.1231 17.0978L12.3885 16.6276C12.4526 16.5142 12.4123 16.3704 12.2989 16.3064L10.5055 15.2953L10.5055 14.7476L11.9566 15.5657C12.0701 15.6298 12.2139 15.5896 12.2777 15.4762L12.5431 15.0059C12.6072 14.8925 12.567 14.7488 12.4535 14.6847L10.5055 13.5865L10.5055 12.4004C10.5055 11.7227 11.2396 11.2989 11.8268 11.6379L12.8543 12.2309L12.8317 14.4666C12.8305 14.5968 12.9348 14.7033 13.0651 14.7047L13.6051 14.7102C13.7354 14.7114 13.8418 14.6072 13.8433 14.4769L13.8601 12.8117L14.3346 13.0857L14.3139 15.1439C14.3127 15.2741 14.417 15.3806 14.5473 15.382L15.0873 15.3875C15.2176 15.3888 15.324 15.2845 15.3255 15.1542L15.3404 13.6665L16.4734 14.3204C16.5861 14.3854 16.7304 14.3469 16.7954 14.2342L17.0654 13.7666C17.1305 13.6539 17.0919 13.5097 16.9792 13.4447L15.8462 12.7907L17.1276 12.0337C17.2396 11.9675 17.2769 11.8231 17.2107 11.7109L16.9359 11.2462C16.8696 11.1342 16.7251 11.0969 16.6129 11.1631L16.6129 11.1636Z" fill="rgb(14,17,23)" fill-rule="nonzero" />
</svg>
