<svg viewBox="0 0 20 20" xmlns="http://www.w3.org/2000/svg" xmlns:xlink="http://www.w3.org/1999/xlink" width="20.000000" height="20.000000" fill="none" customFrame="#000000">
	<rect id="20 / Lukit / Sokol" width="20.000000" height="20.000000" x="0.000000" y="0.000000" />
	<path id="Вектор 41" d="M15.4335 9.4308C15.3279 10.3997 14.7365 11.1951 13.8595 11.5671C12.7016 12.0562 11.3248 11.6702 10.5953 10.5935C10.0598 9.80269 10.0085 8.80099 10.4571 7.95709C10.9057 7.11319 11.6694 6.63189 12.5541 6.51309C12.7187 6.49119 12.7714 6.27559 12.6395 6.17559C11.6725 5.53169 10.4571 5.38169 9.38774 5.84889C8.44084 6.26149 7.76874 7.04909 7.45835 8.0399C6.94924 9.66519 7.46915 11.4202 8.59605 12.6762C10.0768 14.3302 12.3974 14.9862 14.5192 14.3442C15.7175 13.9812 16.7265 13.1942 17.3489 12.1012C18.0505 10.8732 18.1529 9.3058 17.8099 7.93519C17.4327 6.43179 16.5992 5.10509 15.4614 4.07989C12.804 1.68109 8.88325 1.32469 5.83475 3.18129C3.55925 4.56749 2.08615 7.03039 2.00385 9.72769C1.95575 11.3092 2.35934 12.8362 3.18045 14.1722C4.91425 16.9942 8.12115 18.4132 11.3667 17.8942C12.9562 17.6402 14.4059 16.9302 15.5747 15.8222C15.775 15.6322 15.9674 15.4382 16.1475 15.2362C16.2934 15.0722 16.09 14.8352 15.9038 14.9522C15.6321 15.1212 15.345 15.2672 15.0377 15.3892C12.7094 16.3192 10.0644 16.1912 7.84175 15.0282C5.93565 14.0302 4.50444 12.1972 4.44865 9.9934C4.39894 8.01179 5.41254 6.16619 7.06095 5.10659C9.13784 3.77359 11.8463 3.96889 13.7167 5.58169C14.794 6.51 15.5918 7.95709 15.4319 9.4308L15.4335 9.4308Z" fill="rgb(14,17,23)" fill-rule="nonzero" />
</svg>
