<svg viewBox="0 0 20 20" xmlns="http://www.w3.org/2000/svg" xmlns:xlink="http://www.w3.org/1999/xlink" width="20.000000" height="20.000000" fill="none">
	<rect id="20 / Lukit / Snowflake 3" width="20.000000" height="20.000000" x="0.000000" y="0.000000" />
	<path id="Vector 8471" d="M17.0257 11.354L16.4961 10.4573C16.3662 10.2374 16.0825 10.1644 15.8625 10.2943L14.1895 11.2828L13.3405 10.7926C12.7302 10.4402 12.7302 9.55935 13.3405 9.20698L14.1895 8.71671L15.8625 9.70525C16.0825 9.83513 16.3662 9.76219 16.4961 9.54221L17.0257 8.64559C17.1556 8.42561 17.0827 8.14183 16.8627 8.01195L16.1447 7.58777L17.0198 7.08264C17.2411 6.95481 17.3168 6.67195 17.1892 6.45059L16.6685 5.54872C16.5407 5.32737 16.2578 5.25168 16.0365 5.37928L15.1614 5.88441L15.1529 5.05045C15.1504 4.79503 14.9412 4.58991 14.6857 4.59243L13.6444 4.60295C13.389 4.60546 13.1838 4.81469 13.1864 5.07012L13.206 7.01312L12.357 7.50339C11.7467 7.85577 10.9838 7.41535 10.9838 6.71059L10.9838 5.73029L12.6764 4.77582C12.8989 4.65028 12.9776 4.3681 12.852 4.14561L12.3405 3.2387C12.215 3.01621 11.9328 2.93755 11.7103 3.06309L10.9838 3.47286L10.9838 2.4626C10.9838 2.20717 10.7766 2 10.5212 2L9.47985 2C9.22443 2 9.01725 2.20717 9.01725 2.4626L9.01725 3.47309L8.29077 3.06331C8.06827 2.93777 7.7861 3.01644 7.66056 3.23893L7.14902 4.14583C7.02348 4.36833 7.10215 4.65051 7.32464 4.77605L9.01725 5.73051L9.01725 6.71082C9.01725 7.41558 8.25441 7.856 7.64409 7.50362L6.79504 7.01335L6.81471 5.07034C6.81722 4.81492 6.61234 4.60569 6.35668 4.60317L5.31532 4.59265C5.0599 4.59014 4.85067 4.79503 4.84815 5.05068L4.83969 5.88464L3.96457 5.37951C3.74322 5.25168 3.46036 5.3276 3.33253 5.54895L2.81208 6.45082C2.68425 6.67217 2.76017 6.95504 2.98152 7.08286L3.85664 7.588L3.13862 8.01218C2.91864 8.14206 2.8457 8.42584 2.97558 8.64582L3.50518 9.54243C3.63506 9.76241 3.91884 9.83536 4.13882 9.70547L5.81177 8.71694L6.66082 9.2072C7.27114 9.55958 7.27114 10.4404 6.66082 10.7928L5.81177 11.2831L4.13882 10.2945C3.91884 10.1646 3.63506 10.2376 3.50518 10.4576L2.97558 11.3542C2.84569 11.5742 2.91864 11.8579 3.13862 11.9878L3.85664 12.412L2.98152 12.9171C2.76017 13.045 2.68448 13.3278 2.81208 13.5492L3.33276 14.4511C3.46059 14.6724 3.74345 14.7481 3.9648 14.6205L4.83992 14.1154L4.84838 14.9493C4.8509 15.2047 5.06013 15.4099 5.31555 15.4073L6.35692 15.3968C6.61234 15.3943 6.81746 15.1851 6.81494 14.9297L6.79527 12.9867L7.64432 12.4964C8.25464 12.144 9.01748 12.5844 9.01748 13.2892L9.01748 14.2695L7.32487 15.224C7.10238 15.3495 7.02372 15.6317 7.14926 15.8542L7.66079 16.7611C7.78633 16.9836 8.06851 17.0622 8.291 16.9367L9.01748 16.5269L9.01748 17.5374C9.01748 17.7928 9.22466 18 9.48008 18L10.5214 18C10.7769 18 10.984 17.7928 10.984 17.5374L10.984 16.5269L11.7105 16.9367C11.933 17.0622 12.2152 16.9836 12.3407 16.7611L12.8523 15.8542C12.9778 15.6317 12.8991 15.3495 12.6767 15.224L10.984 14.2695L10.984 13.2892C10.984 12.5844 11.7469 12.144 12.3572 12.4964L13.2063 12.9867L13.1866 14.9297C13.1841 15.1851 13.389 15.3943 13.6446 15.3968L14.686 15.4073C14.9414 15.4099 15.1506 15.205 15.1531 14.9493L15.1616 14.1154L16.0367 14.6205C16.2581 14.7483 16.5409 14.6724 16.6688 14.4511L17.1894 13.5492C17.3173 13.3278 17.2414 13.045 17.02 12.9171L16.1449 12.412L16.8629 11.9878C17.0829 11.8579 17.1558 11.5742 17.026 11.3542L17.0257 11.354Z" fill="rgb(29,29,27)" fill-rule="nonzero" />
</svg>
