<svg viewBox="0 0 20 20" xmlns="http://www.w3.org/2000/svg" xmlns:xlink="http://www.w3.org/1999/xlink" width="20.000000" height="20.000000" fill="none" customFrame="#000000">
	<rect id="20 / Lukit / Strelka" width="20.000000" height="20.000000" x="0.000000" y="0.000000" />
	<path id="Avatar" d="M18 7.773L18 2.00017L12.2268 2L12.2268 5.19553L14.8043 5.19553L14.8044 7.773L18 7.773ZM6.92887 2.58651C7.87164 2.19591 8.89529 2.00069 9.99981 2.00069L9.99981 5.19622C9.33653 5.19622 8.7218 5.31348 8.15563 5.54799C7.58943 5.7825 7.0718 6.13426 6.60275 6.60328C6.13372 7.0723 5.78194 7.58992 5.54742 8.15614C5.3129 8.72225 5.19564 9.33695 5.19564 10.0003C5.19564 10.6636 5.31291 11.2783 5.54742 11.8446C5.78194 12.4108 6.13372 12.9284 6.60278 13.3974C7.07182 13.8664 7.58943 14.2181 8.15561 14.4527C8.72178 14.6872 9.33659 14.8045 9.99988 14.8045C10.6632 14.8045 11.278 14.6872 11.8442 14.4527C12.4103 14.2182 12.9279 13.8664 13.397 13.3974C13.866 12.9284 14.2178 12.4108 14.4523 11.8446C14.6869 11.2783 14.8041 10.6637 14.8041 10.0004L17.9998 10.0004C17.9998 11.1049 17.8045 12.1285 17.414 13.0713C17.0235 14.0141 16.4377 14.876 15.6566 15.6569C14.8756 16.438 14.0137 17.0238 13.0709 17.4142C12.1281 17.8048 11.1044 18 9.99988 18C8.89534 18 7.87167 17.8047 6.92887 17.4142C5.98607 17.0236 5.12416 16.4379 4.34312 15.6569C3.56208 14.876 2.97629 14.0141 2.58577 13.0713C2.19529 12.1286 2 11.1049 2 10.0004C2 7.79137 2.78103 5.90582 4.34307 4.34377C5.12413 3.5628 5.98606 2.97705 6.92887 2.58651Z" fill="rgb(14,17,23)" fill-rule="evenodd" />
</svg>
