<svg viewBox="0 0 20 20" xmlns="http://www.w3.org/2000/svg" xmlns:xlink="http://www.w3.org/1999/xlink" width="20.000000" height="20.000000" fill="none">
	<rect id="20 / Lukit / Kokoshnik 4" width="20.000000" height="20.000000" x="0.000000" y="0.000000" />
	<path id="Vector 12440" d="M17.4633 10.695C17.9433 9.37504 17.6533 7.83504 16.5933 6.77504C15.7633 5.94504 14.6533 5.60504 13.5733 5.71504C13.1033 4.17504 11.6933 3.04504 10.0033 3.04504C8.31327 3.04504 6.90327 4.17504 6.43327 5.71504C5.35327 5.60504 4.23327 5.95504 3.41327 6.77504C2.35328 7.83504 2.07328 9.37504 2.54327 10.695C1.33327 12.165 1.40327 14.335 2.77327 15.715C3.23327 16.175 4.14328 16.565 5.17327 16.875C5.21328 14.325 7.29328 12.265 9.85327 12.265C12.4133 12.265 14.5433 14.365 14.5433 16.955C15.6833 16.635 16.7233 16.225 17.2233 15.725C18.6033 14.345 18.6633 12.175 17.4533 10.705L17.4633 10.695Z" fill="rgb(14,17,23)" fill-rule="nonzero" />
</svg>
