<svg viewBox="0 0 20 20" xmlns="http://www.w3.org/2000/svg" xmlns:xlink="http://www.w3.org/1999/xlink" width="20.000000" height="20.000000" fill="none" customFrame="#000000">
	<rect id="20 / Lukit / Mera" width="20.000000" height="20.000000" x="0.000000" y="0.000000" />
	<path id="Avatar" d="M7.63535 6.33316C7.63535 5.02717 8.69404 3.96851 10 3.96851C11.306 3.96851 12.3646 5.02717 12.3646 6.33316L12.3646 13.6668C12.3646 14.9728 11.306 16.0314 10 16.0314C8.69404 16.0314 7.63535 14.9728 7.63535 13.6668L7.63535 6.33316ZM16.1354 3.96851C14.8294 3.96851 13.7707 5.02717 13.7707 6.33316L13.7707 13.6668C13.7707 14.9728 14.8294 16.0314 16.1354 16.0314C17.4413 16.0314 18.5 14.9728 18.5 13.6668L18.5 6.33316C18.5 5.02717 17.4413 3.96851 16.1354 3.96851ZM1.5 11.986C1.5 10.6801 2.55868 9.62136 3.86464 9.62136C5.1706 9.62136 6.22929 10.6801 6.22929 11.986L6.22929 13.6668C6.22929 14.9727 5.1706 16.0314 3.86464 16.0314C2.55868 16.0314 1.5 14.9727 1.5 13.6668L1.5 11.986Z" fill="rgb(14,17,23)" fill-rule="evenodd" />
</svg>
