<svg viewBox="0 0 20 20" xmlns="http://www.w3.org/2000/svg" xmlns:xlink="http://www.w3.org/1999/xlink" width="20.000000" height="20.000000" fill="none">
	<rect id="20 / Lukit / Snowflake 2" width="20.000000" height="20.000000" x="0.000000" y="0.000000" />
	<path id="Vector 8469" d="M16.4509 11.1309L14.836 12.0851L14.577 11.9356L15.7483 11.2434C15.9171 11.1437 15.9732 10.926 15.8733 10.7572L15.6099 10.3113C15.5102 10.1425 15.2926 10.0864 15.1238 10.1864L13.3562 11.2308L12.6151 10.803C11.9975 10.4464 11.9975 9.55505 12.6151 9.19846L13.3562 8.7706L15.1238 9.81509C15.2926 9.91477 15.5102 9.85891 15.6099 9.69012L15.8733 9.24421C15.973 9.07542 15.9171 8.85776 15.7483 8.75808L14.577 8.06585L14.836 7.91633L16.4509 8.87052C16.6197 8.97021 16.8374 8.91435 16.937 8.74556L17.2005 8.29965C17.3001 8.13086 17.2443 7.9132 17.0755 7.81352L16.0568 7.21158L16.9255 6.71005C17.0952 6.61205 17.1535 6.39487 17.0555 6.22513L16.7964 5.77656C16.6984 5.60681 16.4813 5.54855 16.3115 5.64654L15.4428 6.14808L15.4308 4.96491C15.4288 4.76892 15.2682 4.61145 15.0722 4.61362L14.5543 4.61891C14.3583 4.62084 14.2009 4.78144 14.203 4.97743L14.2221 6.85307L13.963 7.00259L13.9493 5.64221C13.9473 5.44622 13.7867 5.28875 13.5907 5.29092L13.0728 5.29622C12.8769 5.29814 12.7194 5.45874 12.7215 5.65473L12.7423 7.70782L12.0012 8.13568C11.3836 8.49227 10.6114 8.04659 10.6114 7.33342L10.6114 6.4777L12.3996 5.46909C12.5703 5.37278 12.6308 5.15632 12.5345 4.98537L12.28 4.53416C12.1837 4.36345 11.9672 4.30302 11.7963 4.39933L10.6112 5.06772L10.6112 4.76868L12.2448 3.84723C12.4155 3.75092 12.476 3.53446 12.3796 3.36351L12.1251 2.9123C12.0288 2.74159 11.8124 2.68116 11.6414 2.77747L10.6109 3.3587L10.6109 2.3549C10.6109 2.15891 10.452 2 10.256 2L9.7381 2C9.54211 2 9.3832 2.15891 9.3832 2.3549L9.3832 3.35797L8.35268 2.77674C8.18197 2.68043 7.96528 2.74087 7.86897 2.91158L7.61447 3.36279C7.51816 3.5335 7.57859 3.7502 7.7493 3.84651L9.38296 4.76795L9.38296 5.067L8.19786 4.3986C8.02715 4.30229 7.81046 4.36273 7.71415 4.53344L7.45965 4.98465C7.36334 5.15536 7.42377 5.37206 7.59448 5.46837L9.38272 6.47698L9.38272 7.33269C9.38272 8.04587 8.61079 8.49154 7.99296 8.13496L7.25186 7.7071L7.27257 5.65401C7.27449 5.45802 7.11727 5.29742 6.92127 5.29549L6.40337 5.29019C6.20738 5.28827 6.04678 5.44549 6.04485 5.64149L6.03113 7.00187L5.77205 6.85234L5.79107 4.97671C5.793 4.78071 5.63577 4.62012 5.43978 4.61819L4.92188 4.61289C4.72588 4.61097 4.56529 4.76819 4.56336 4.96418L4.55132 6.14735L3.68261 5.64582C3.51286 5.54782 3.29568 5.60585 3.19768 5.77584L2.93861 6.2244C2.84061 6.39415 2.89864 6.61133 3.06863 6.70932L3.93735 7.21086L2.91863 7.8128C2.74984 7.91248 2.69374 8.13014 2.79366 8.29892L3.05707 8.74484C3.15675 8.91362 3.37441 8.96972 3.5432 8.8698L5.15808 7.91561L5.41715 8.06513L4.24578 8.75736C4.07699 8.85704 4.02089 9.0747 4.12082 9.24348L4.38422 9.6894C4.48391 9.85818 4.70157 9.91428 4.87035 9.81436L6.63788 8.76988L7.37899 9.19774C7.99658 9.55432 7.99658 10.4457 7.37899 10.8023L6.63788 11.2301L4.87035 10.1856C4.70157 10.086 4.48391 10.1418 4.38422 10.3106L4.12082 10.7565C4.02114 10.9253 4.07699 11.143 4.24578 11.2426L5.41715 11.9349L5.15808 12.0844L3.5432 11.1302C3.37441 11.0305 3.15675 11.0864 3.05707 11.2552L2.79366 11.7011C2.69398 11.8699 2.74984 12.0875 2.91863 12.1872L3.93735 12.7891L3.06863 13.2907C2.89888 13.3887 2.84061 13.6058 2.93861 13.7756L3.19768 14.2242C3.29568 14.3939 3.51286 14.4522 3.68261 14.3542L4.55132 13.8526L4.56336 15.0358C4.56529 15.2318 4.72588 15.3893 4.92188 15.3871L5.43978 15.3818C5.63577 15.3799 5.79324 15.2193 5.79107 15.0233L5.77205 13.1477L6.03113 12.9981L6.04485 14.3585C6.04678 14.5545 6.20738 14.712 6.40337 14.7098L6.92127 14.7045C7.11727 14.7026 7.27473 14.542 7.27257 14.346L7.25186 12.2929L7.99296 11.865C8.61055 11.5085 9.38272 11.9541 9.38272 12.6673L9.38272 13.523L7.59448 14.5316C7.42377 14.6279 7.36334 14.8444 7.45965 15.0154L7.71415 15.4666C7.81046 15.6373 8.02691 15.6977 8.19786 15.6014L9.38296 14.933L9.38296 15.232L7.7493 16.1535C7.57859 16.2498 7.51816 16.4663 7.61447 16.6372L7.86897 17.0884C7.96528 17.2591 8.18173 17.3196 8.35268 17.2233L9.3832 16.642L9.3832 17.6451C9.3832 17.8411 9.54211 18 9.7381 18L10.256 18C10.452 18 10.6109 17.8411 10.6109 17.6451L10.6109 16.642L11.6414 17.2233C11.8121 17.3196 12.0288 17.2591 12.1251 17.0884L12.3796 16.6372C12.476 16.4665 12.4155 16.25 12.2448 16.1535L10.6112 15.232L10.6112 14.933L11.7963 15.6014C11.967 15.6977 12.1837 15.6373 12.28 15.4666L12.5345 15.0154C12.6308 14.8446 12.5703 14.6279 12.3996 14.5316L10.6114 13.523L10.6114 12.6673C10.6114 11.9541 11.3833 11.5085 12.0012 11.865L12.7423 12.2929L12.7215 14.346C12.7196 14.542 12.8769 14.7026 13.0728 14.7045L13.5907 14.7098C13.7867 14.7117 13.9473 14.5545 13.9493 14.3585L13.963 12.9981L14.2221 13.1477L14.203 15.0233C14.2011 15.2193 14.3583 15.3799 14.5543 15.3818L15.0722 15.3871C15.2682 15.389 15.4288 15.2318 15.4308 15.0358L15.4428 13.8526L16.3115 14.3542C16.4813 14.4522 16.6984 14.3941 16.7964 14.2242L17.0555 13.7756C17.1535 13.6058 17.0955 13.3887 16.9255 13.2907L16.0568 12.7891L17.0755 12.1872C17.2443 12.0875 17.3004 11.8699 17.2005 11.7011L16.937 11.2552C16.8374 11.0864 16.6197 11.0303 16.4509 11.1302L16.4509 11.1309Z" fill="rgb(29,29,27)" fill-rule="nonzero" />
</svg>
