<svg viewBox="0 0 20 20" xmlns="http://www.w3.org/2000/svg" xmlns:xlink="http://www.w3.org/1999/xlink" width="20.000000" height="20.000000" fill="none">
	<rect id="20 / Lukit / Kokoshnik 1" width="20.000000" height="20.000000" x="0.000000" y="0.000000" />
	<path id="Vector 12452" d="M18.1205 10.0539C17.9405 9.12394 17.1605 8.41394 16.2005 8.34394L16.2005 8.32394C16.4305 7.58394 16.4605 6.75394 15.5605 5.73394C15.1305 5.24394 14.5505 4.87394 13.9005 4.81394C13.4305 4.76394 12.9905 4.84394 12.5905 5.00394C12.1105 3.21394 10.0105 2.03394 10.0005 2.03394C10.0005 2.03394 7.89048 3.22394 7.41048 5.00394C7.01048 4.83394 6.57048 4.76394 6.10048 4.81394C5.45048 4.87394 4.87048 5.24394 4.44048 5.73394C3.54048 6.75394 3.57048 7.58394 3.80048 8.32394L3.80048 8.34394C2.84048 8.42394 2.06048 9.12394 1.88048 10.0539C1.42048 11.7939 2.03048 15.0639 4.89048 17.1239C4.89048 17.1239 4.89048 17.1239 4.90049 17.1239C5.48049 17.5339 6.15049 17.8039 6.84049 17.9539C7.14049 18.0239 7.22049 17.7739 7.06049 17.5939C6.12049 16.5439 5.77049 15.0239 6.29049 13.6139C6.87049 12.0039 8.39049 11.0139 10.0005 11.0139C11.6205 11.0139 13.1305 12.0139 13.7105 13.6139C14.2205 15.0339 13.8805 16.5439 12.9405 17.5939C12.7805 17.7739 12.8605 18.0239 13.1605 17.9539C13.8505 17.8039 14.5305 17.5339 15.1005 17.1239C15.1005 17.1239 15.1005 17.1239 15.1105 17.1239C17.9705 15.0639 18.5805 11.7839 18.1205 10.0539L18.1205 10.0539Z" fill="rgb(14,17,23)" fill-rule="nonzero" />
</svg>
