<svg viewBox="0 0 20 20" xmlns="http://www.w3.org/2000/svg" xmlns:xlink="http://www.w3.org/1999/xlink" width="20.000000" height="20.000000" fill="none">
	<rect id="20 / Lukit / Kokoshnik 2" width="20.000000" height="20.000000" x="0.000000" y="0.000000" />
	<path id="Vector 12448" d="M16.8294 8.72006C15.7494 5.63006 12.3294 3.56006 9.9894 1.69006C7.6494 3.56006 4.2194 5.63006 3.1494 8.72006C1.0494 14.7301 6.0794 18.3101 6.0794 18.3101L6.2194 18.3101C5.7294 17.0201 5.4494 15.7001 5.4494 14.7601C5.4494 12.2501 7.4894 10.2101 9.9994 10.2101C12.5094 10.2101 14.5494 12.2501 14.5494 14.7601C14.5494 15.7001 14.2594 17.0201 13.7794 18.3101L13.9194 18.3101C13.9194 18.3101 18.9494 14.7301 16.8494 8.72006L16.8294 8.72006Z" fill="rgb(14,17,23)" fill-rule="nonzero" />
</svg>
