<svg viewBox="0 0 20 20" xmlns="http://www.w3.org/2000/svg" xmlns:xlink="http://www.w3.org/1999/xlink" width="20.000000" height="20.000000" fill="none">
	<rect id="20 / Navigation / Close All" width="20.000000" height="20.000000" x="0.000000" y="0.000000" />
	<path id="Форма 788" d="M8.91417 4.16501C8.91417 3.66501 8.51377 3.26501 8.01377 3.26501C7.51375 3.26501 7.11335 3.66501 7.11335 4.16501L7.11335 15.835C7.11335 16.335 7.51375 16.735 8.01377 16.735C8.51377 16.735 8.91417 16.335 8.91417 15.835L8.91417 4.16501ZM11.9845 3.26501C12.4845 3.26501 12.884 3.66501 12.884 4.16501L12.884 15.835C12.884 16.335 12.4845 16.735 11.9845 16.735C11.4845 16.735 11.0841 16.335 11.0841 15.835L11.0841 4.16501C11.0841 3.66501 11.4845 3.26501 11.9845 3.26501ZM6.41407 9.99501L6.41413 10.005L6.41413 9.98501L6.41407 9.99501L6.41407 9.99501ZM6.15337 9.36502C6.32095 9.53263 6.41159 9.75863 6.41407 9.99501C6.41159 10.2314 6.32095 10.4574 6.15337 10.625L3.65335 13.125C3.30373 13.475 2.73341 13.475 2.38379 13.125C2.03319 12.775 2.03319 12.205 2.38379 11.855L4.24319 9.99504L2.38379 8.13501C2.03319 7.78499 2.03319 7.21503 2.38379 6.86501C2.73341 6.51501 3.30373 6.51501 3.65335 6.86501L6.15337 9.36502ZM13.5842 9.99501C13.5867 9.75863 13.6764 9.53263 13.8439 9.36502L16.344 6.86501C16.6946 6.51501 17.2639 6.51501 17.6145 6.86501C17.9641 7.21499 17.9641 7.78499 17.6145 8.13501L15.7541 9.995L17.6145 11.855C17.9641 12.205 17.9641 12.775 17.6145 13.125C17.2639 13.475 16.6946 13.475 16.344 13.125L13.8439 10.625C13.6764 10.4574 13.5867 10.2314 13.5842 9.99501ZM13.5842 9.99501L13.5842 10.005L13.5842 9.98501L13.5842 9.99501Z" fill="rgb(14,17,23)" fill-rule="evenodd" />
</svg>
