<svg viewBox="0 0 20 20" xmlns="http://www.w3.org/2000/svg" xmlns:xlink="http://www.w3.org/1999/xlink" width="20.000000" height="20.000000" fill="none">
	<rect id="20 / Special / Ancor" width="20.000000" height="20.000000" x="0.000000" y="0.000000" fill="rgb(255,255,255)" fill-opacity="0" />
	<path id="Vector 8272" d="M18.2449 10.0751L14.3049 12.0551L15.2849 13.2151C14.4049 14.9251 12.7749 16.1151 10.8449 16.4051L10.8449 11.1151L12.3149 11.1151C12.8149 11.1151 13.2149 10.7151 13.2149 10.2151C13.2149 9.71509 12.8149 9.31509 12.3149 9.31509L10.8449 9.31509L10.8449 7.84509C12.1349 7.45509 13.0849 6.27509 13.0849 4.85509C13.0849 3.12509 11.6749 1.71509 9.94488 1.71509C8.21489 1.71509 6.80488 3.12509 6.80488 4.85509C6.80488 6.26509 7.75488 7.45509 9.04488 7.84509L9.04488 9.31509L7.71488 9.31509C7.21488 9.31509 6.81488 9.71509 6.81488 10.2151C6.81488 10.7151 7.21488 11.1151 7.71488 11.1151L9.04488 11.1151L9.04488 16.4051C7.15488 16.1251 5.53488 14.9551 4.64488 13.2951L5.69488 12.0551L1.75488 10.0751C1.75488 10.0751 2.08488 11.7151 2.47488 12.7751C3.66488 15.9751 6.48488 18.2851 9.94488 18.2851C13.0049 18.2851 15.6949 16.5451 16.9749 13.8951C17.5449 12.8951 18.2349 10.0751 18.2349 10.0751L18.2449 10.0751ZM8.61489 4.86509C8.61489 4.12509 9.21489 3.53509 9.94489 3.53509C10.6749 3.53509 11.2849 4.13509 11.2849 4.86509C11.2849 5.59509 10.6849 6.19509 9.94489 6.19509C9.20489 6.19509 8.61489 5.59509 8.61489 4.86509Z" fill="rgb(14,17,23)" fill-rule="nonzero" />
</svg>
