<svg viewBox="0 0 20 20" xmlns="http://www.w3.org/2000/svg" xmlns:xlink="http://www.w3.org/1999/xlink" width="20.000000" height="20.000000" fill="none">
	<rect id="20 / Text / H5" width="20.000000" height="20.000000" x="0.000000" y="0.000000" />
	<path id="Vector 13508" d="M3.21484 8.76001L7.61524 8.76001L7.61524 4.59009L9.41504 4.59009L9.41504 15.26L7.61524 15.26L7.61524 10.5601L3.21484 10.5601L3.21484 15.26L1.41504 15.26L1.41504 4.59009L3.21484 4.59009L3.21484 8.76001ZM16.9453 8.69007C17.4551 8.99011 17.8555 9.41003 18.1455 9.94007L18.1455 9.93995C18.4355 10.4698 18.585 11.0599 18.585 11.7599C18.585 12.4598 18.4258 13.0898 18.0957 13.6399C17.7656 14.1899 17.3154 14.6299 16.7354 14.9399C16.165 15.2499 15.4951 15.4099 14.7354 15.4099C14.0352 15.4099 13.4053 15.2799 12.8555 15.0099C12.2949 14.7499 11.8652 14.3899 11.5352 13.9299C11.2158 13.47 11.0449 12.9499 11.0254 12.35L12.9453 12.35C12.9756 12.78 13.165 13.13 13.5059 13.41C13.8457 13.68 14.2559 13.8201 14.7256 13.8201C15.1055 13.8201 15.4355 13.7301 15.7256 13.5601C16.0156 13.3901 16.2451 13.1501 16.415 12.8501C16.585 12.55 16.665 12.2101 16.665 11.8101C16.665 11.41 16.585 11.05 16.415 10.75C16.2451 10.4401 16.0156 10.2001 15.7158 10.02C15.4258 9.84997 15.0752 9.76001 14.6953 9.76001C14.375 9.75013 14.0654 9.81007 13.7559 9.94007C13.4453 10.0601 13.2051 10.2201 13.0254 10.42L11.2451 10.13L11.7949 4.61999L18.0254 4.61999L18.0254 6.26001L13.4355 6.26001L13.125 9.06007L13.1855 9.06007C13.3857 8.83009 13.665 8.63013 14.0254 8.47009C14.3857 8.31007 14.7852 8.23011 15.2256 8.23011C15.8652 8.23011 16.4453 8.39001 16.9453 8.69007Z" fill="rgb(14,17,23)" fill-rule="evenodd" />
</svg>
