<svg viewBox="0 0 20 20" xmlns="http://www.w3.org/2000/svg" xmlns:xlink="http://www.w3.org/1999/xlink" width="20.000000" height="20.000000" fill="none">
	<rect id="20 / Text / H4" width="20.000000" height="20.000000" x="0.000000" y="0.000000" />
	<path id="Vector 13505" d="M2.92968 8.83496L7.33008 8.83496L7.33008 4.66504L9.12988 4.66504L9.12988 15.335L7.33008 15.335L7.33008 10.635L2.92968 10.635L2.92968 15.335L1.12988 15.335L1.12988 4.66504L2.92968 4.66504L2.92968 8.83496ZM17.5107 11.765L18.8603 11.765L18.8603 13.375L17.5 13.375L17.5 15.335L15.6103 15.335L15.6103 13.375L10.5303 13.375L10.5303 11.8051L15.04 4.69506L17.5107 4.69506L17.5107 11.765ZM15.5703 6.91504L12.5605 11.6751L12.5605 11.765L15.6504 11.765L15.6504 6.91504L15.5703 6.91504Z" fill="rgb(14,17,23)" fill-rule="evenodd" />
</svg>
