<svg viewBox="0 0 20 20" xmlns="http://www.w3.org/2000/svg" xmlns:xlink="http://www.w3.org/1999/xlink" width="20.000000" height="20.000000" fill="none">
	<rect id="20 / Text / H6" width="20.000000" height="20.000000" x="0.000000" y="0.000000" />
	<path id="Vector 13513" d="M17.0854 8.77985C17.5854 9.07977 17.9751 9.47979 18.2651 9.99981L18.2446 9.99995C18.5347 10.52 18.6851 11.1199 18.6851 11.79C18.6851 12.5001 18.5249 13.1299 18.2056 13.69C17.8755 14.24 17.4253 14.6801 16.8452 15.0001C16.2651 15.31 15.5952 15.47 14.8247 15.47C14.3052 15.47 13.8052 15.3801 13.3149 15.2C12.8247 15.03 12.3853 14.74 11.9946 14.34C11.605 13.94 11.2954 13.41 11.0649 12.7501C10.8354 12.0901 10.7251 11.2701 10.7251 10.2901C10.7349 9.38007 10.8354 8.57013 11.0249 7.86005C11.2153 7.14997 11.4946 6.53997 11.8647 6.04999C12.2349 5.55999 12.6753 5.17999 13.1948 4.91999C13.7153 4.65997 14.2554 4.52997 14.9351 4.52997C15.6147 4.52997 16.2153 4.65997 16.7349 4.92999C17.2554 5.19001 17.6753 5.54999 17.9946 6.00995C18.3149 6.47003 18.5151 6.98005 18.5854 7.55999L16.6353 7.55999C16.5347 7.16009 16.3452 6.84003 16.0454 6.60003C15.7446 6.36005 15.3755 6.24005 14.9253 6.24005C14.1948 6.24005 13.6353 6.55999 13.2446 7.19001C12.855 7.83001 12.6548 8.70001 12.6548 9.80999L12.7349 9.80999C12.9048 9.49995 13.1255 9.22993 13.395 9.01997C13.6655 8.78999 13.9751 8.61993 14.3149 8.50995C14.6655 8.38995 15.0249 8.32989 15.4048 8.32989C16.0249 8.32989 16.5854 8.47979 17.0854 8.77985ZM3.11474 8.81977L7.51514 8.81977L7.51514 4.64985L9.31494 4.64985L9.31494 15.3198L7.51514 15.3198L7.51514 10.6198L3.11474 10.6198L3.11474 15.3198L1.31494 15.3198L1.31494 4.64985L3.11474 4.64985L3.11474 8.81977ZM15.8247 13.6098C16.1255 13.4199 16.355 13.1799 16.5249 12.8698L16.5151 12.8698C16.6851 12.5698 16.7651 12.2198 16.7651 11.8398C16.7749 11.4598 16.6948 11.1198 16.5249 10.8198C16.355 10.5098 16.1255 10.2698 15.8354 10.0898C15.5454 9.90973 15.2153 9.81977 14.8452 9.81977C14.5747 9.81977 14.3149 9.87983 14.0747 9.97979C13.8354 10.0898 13.6255 10.2298 13.4448 10.4197C13.2651 10.6098 13.1255 10.8198 13.0249 11.0698C12.9253 11.3097 12.8755 11.5698 12.8755 11.8498C12.8755 12.2098 12.9556 12.5497 13.1255 12.8598C13.2954 13.1697 13.5347 13.4098 13.8247 13.5998C14.1255 13.7898 14.4556 13.8798 14.8247 13.8798C15.1948 13.8798 15.5347 13.7898 15.8247 13.6098Z" fill="rgb(0,0,0)" fill-rule="evenodd" />
</svg>
