<svg viewBox="0 0 20 20" xmlns="http://www.w3.org/2000/svg" xmlns:xlink="http://www.w3.org/1999/xlink" width="20.000000" height="20.000000" fill="none" clip-path="url(#clipPath_118)" customFrame="url(#clipPath_118)">
	<defs>
		<clipPath id="clipPath_118">
			<rect width="20.000000" height="20.000000" x="0.000000" y="0.000000" rx="6.000000" fill="rgb(255,255,255)" />
		</clipPath>
	</defs>
	<rect id="20 / Yaga / Project-Pages / Team_accent" width="20.000000" height="20.000000" x="0.000000" y="0.000000" rx="6.000000" fill="rgb(0,85,255)" fill-opacity="0.100000001" />
	<path id="Vector" d="M13.5886 8.06079C13.5886 6.86078 12.5959 5.91791 11.4103 5.91791C10.2242 5.91791 9.23155 6.86078 9.23155 8.06079C9.23155 9.26074 10.2242 10.2036 11.4103 10.2036C12.5959 10.2036 13.5886 9.26074 13.5886 8.06079ZM15.2175 12.8465C13.3601 10.2607 9.4171 10.0036 7.69587 12.6179C7.5528 12.8322 7.35993 13.225 7.31744 13.5393C7.3028 13.6322 7.28864 13.9108 7.28864 13.9108C7.28864 14.8179 8.02449 15.5465 8.92441 15.5465L13.8889 15.5465C14.7961 15.5465 15.5676 14.8108 15.5247 13.9108C15.51 13.6393 15.4172 13.1179 15.2175 12.8465Z" fill="rgb(0,85,255)" fill-rule="evenodd" />
	<path id="Vector" d="M8.13192 8.70355C8.08895 8.4964 8.06063 8.2821 8.06063 8.06067C8.06063 7.81067 8.08895 7.56781 8.13924 7.33215C8.18172 7.13214 8.24618 6.93927 8.33163 6.75354C8.41024 6.57495 8.50351 6.40356 8.60312 6.2464C8.73203 6.05353 8.88193 5.86786 9.05332 5.69641C9.20323 5.54639 9.36778 5.41785 9.53917 5.30353C9.68908 5.20355 9.85314 5.11786 10.0245 5.04639C9.63927 4.68213 9.11045 4.45355 8.53915 4.45355C7.35309 4.45355 6.36039 5.39642 6.36039 6.59644C6.36039 7.65356 7.13189 8.51782 8.13192 8.70355Z" fill="rgb(0,85,255)" fill-rule="evenodd" />
	<path id="Vector" d="M8.13192 8.70355C8.08895 8.4964 8.06063 8.2821 8.06063 8.06067C8.06063 7.81067 8.08895 7.56781 8.13924 7.33215C8.18172 7.13214 8.24618 6.93927 8.33163 6.75354C8.41024 6.57495 8.50351 6.40356 8.60312 6.2464C8.73203 6.05353 8.88193 5.86786 9.05332 5.69641C9.20323 5.54639 9.36778 5.41785 9.53917 5.30353C9.68908 5.20355 9.85314 5.11786 10.0245 5.04639C9.63927 4.68213 9.11045 4.45355 8.53915 4.45355C7.35309 4.45355 6.36039 5.39642 6.36039 6.59644C6.36039 7.65356 7.13189 8.51782 8.13192 8.70355Z" fill="rgb(0,85,255)" fill-opacity="0.300000012" fill-rule="evenodd" />
	<path id="Vector" d="M6.11771 13.9106L6.09623 13.575C6.0889 12.9178 6.33891 12.5249 6.48198 12.2892C6.52446 12.2178 6.77446 11.8892 6.77446 11.8892L6.77446 11.8749C6.98882 11.6249 7.21051 11.3892 7.45319 11.1749C7.56745 11.075 7.68171 10.9821 7.8033 10.8892C7.97469 10.7606 8.1534 10.6392 8.33895 10.5249C8.51767 10.4178 8.69589 10.325 8.88193 10.2392C8.77451 10.1249 8.68173 9.99634 8.59628 9.8678C8.50351 9.72491 8.41757 9.56781 8.34628 9.4035C7.03179 9.45349 5.53909 10.0464 4.77442 11.2749C4.60303 11.575 4.47461 12.0392 4.47461 12.5464C4.48877 13.4464 5.15334 14.0821 6.05326 14.0821L6.13871 14.0821C6.13871 14.0821 6.11771 13.9678 6.11771 13.9106Z" fill="rgb(0,85,255)" fill-rule="evenodd" />
	<path id="Vector" d="M6.11771 13.9106L6.09623 13.575C6.0889 12.9178 6.33891 12.5249 6.48198 12.2892C6.52446 12.2178 6.77446 11.8892 6.77446 11.8892L6.77446 11.8749C6.98882 11.6249 7.21051 11.3892 7.45319 11.1749C7.56745 11.075 7.68171 10.9821 7.8033 10.8892C7.97469 10.7606 8.1534 10.6392 8.33895 10.5249C8.51767 10.4178 8.69589 10.325 8.88193 10.2392C8.77451 10.1249 8.68173 9.99634 8.59628 9.8678C8.50351 9.72491 8.41757 9.56781 8.34628 9.4035C7.03179 9.45349 5.53909 10.0464 4.77442 11.2749C4.60303 11.575 4.47461 12.0392 4.47461 12.5464C4.48877 13.4464 5.15334 14.0821 6.05326 14.0821L6.13871 14.0821C6.13871 14.0821 6.11771 13.9678 6.11771 13.9106Z" fill="rgb(0,85,255)" fill-opacity="0.300000012" fill-rule="evenodd" />
</svg>
