<svg viewBox="0 0 20 20" xmlns="http://www.w3.org/2000/svg" xmlns:xlink="http://www.w3.org/1999/xlink" width="20.000000" height="20.000000" fill="none" clip-path="url(#clipPath_50)" customFrame="url(#clipPath_50)">
	<defs>
		<clipPath id="clipPath_50">
			<rect width="20.000000" height="20.000000" x="0.000000" y="0.000000" rx="6.000000" fill="rgb(255,255,255)" />
		</clipPath>
	</defs>
	<rect id="20 / Yaga / Project-Pages / File_black" width="20.000000" height="20.000000" x="0.000000" y="0.000000" rx="6.000000" fill="rgb(241,243,249)" />
	<path id="Vector" d="M7.31737 10.0246C8.26757 6.78174 12.7104 6.53174 14.0674 9.53174L14.6958 9.66749C17.8672 10.3532 17.3672 15.0246 14.1245 15.0246L7.73144 15.0246C4.88867 14.996 4.50293 10.9389 7.21728 10.3317L7.31737 10.0246L7.31737 10.0246Z" fill="rgb(58,71,96)" fill-rule="evenodd" />
	<path id="Vector" d="M4.36035 11.8319C4.4248 11.5532 4.51758 11.2889 4.63916 11.0389C4.69629 10.9318 4.75342 10.8247 4.8247 10.7175C4.93896 10.5389 5.0747 10.3676 5.21777 10.2175C5.36767 10.0604 5.53173 9.92469 5.71044 9.79609C5.75341 9.76752 5.79638 9.73896 5.83886 9.71039C5.99609 9.61042 6.16064 9.52466 6.33203 9.45325C6.45361 9.10328 6.61034 8.77466 6.80322 8.47468C6.83886 8.42469 6.86767 8.36756 6.90331 8.31751C7.04638 8.10328 7.21044 7.9104 7.38915 7.72467C7.54638 7.56037 7.71776 7.4104 7.90331 7.26752C8.03173 7.16754 8.16747 7.07471 8.31054 6.9961C8.56786 6.83899 8.83886 6.71039 9.12499 6.61041C9.29637 6.54608 9.46776 6.4961 9.63915 6.45325C9.90331 6.38898 10.1821 6.34613 10.4604 6.33185C10.7246 6.31751 10.9819 6.31751 11.2392 6.33899C11.2964 6.33899 11.3535 6.36041 11.4106 6.36756C9.73192 4.14612 5.96777 4.61041 5.09619 7.56751L5.00341 7.8747C2.74609 8.38184 2.64649 11.2461 4.29638 12.2247C4.31054 12.0961 4.33203 11.9604 4.36035 11.8319L4.36035 11.8319Z" fill="rgb(58,71,96)" fill-rule="evenodd" />
	<path id="Vector" d="M4.36035 11.8319C4.4248 11.5532 4.51758 11.2889 4.63916 11.0389C4.69629 10.9318 4.75342 10.8247 4.8247 10.7175C4.93896 10.5389 5.0747 10.3676 5.21777 10.2175C5.36767 10.0604 5.53173 9.92469 5.71044 9.79609C5.75341 9.76752 5.79638 9.73896 5.83886 9.71039C5.99609 9.61042 6.16064 9.52466 6.33203 9.45325C6.45361 9.10328 6.61034 8.77466 6.80322 8.47468C6.83886 8.42469 6.86767 8.36756 6.90331 8.31751C7.04638 8.10328 7.21044 7.9104 7.38915 7.72467C7.54638 7.56037 7.71776 7.4104 7.90331 7.26752C8.03173 7.16754 8.16747 7.07471 8.31054 6.9961C8.56786 6.83899 8.83886 6.71039 9.12499 6.61041C9.29637 6.54608 9.46776 6.4961 9.63915 6.45325C9.90331 6.38898 10.1821 6.34613 10.4604 6.33185C10.7246 6.31751 10.9819 6.31751 11.2392 6.33899C11.2964 6.33899 11.3535 6.36041 11.4106 6.36756C9.73192 4.14612 5.96777 4.61041 5.09619 7.56751L5.00341 7.8747C2.74609 8.38184 2.64649 11.2461 4.29638 12.2247C4.31054 12.0961 4.33203 11.9604 4.36035 11.8319L4.36035 11.8319Z" fill="rgb(208,212,220)" fill-rule="evenodd" />
</svg>
