<svg viewBox="0 0 20 20" xmlns="http://www.w3.org/2000/svg" xmlns:xlink="http://www.w3.org/1999/xlink" width="20.000000" height="20.000000" fill="none" clip-path="url(#clipPath_98)" customFrame="url(#clipPath_98)">
	<defs>
		<clipPath id="clipPath_98">
			<rect width="20.000000" height="20.000000" x="0.000000" y="0.000000" rx="6.000000" fill="rgb(255,255,255)" />
		</clipPath>
	</defs>
	<rect id="20 / Yaga / Project-Pages / Dashboard_black" width="20.000000" height="20.000000" x="0.000000" y="0.000000" rx="6.000000" fill="rgb(241,243,249)" />
	<path id="Vector" d="M5.31104 13.5216C5.18946 13.2501 5.08253 12.9716 4.99659 12.6859C4.91797 12.4287 4.85401 12.1644 4.81104 11.9002C4.74659 11.5144 4.71094 11.1287 4.71094 10.7287C4.71094 10.2287 4.76075 9.73585 4.86817 9.25727C4.95362 8.8573 5.08253 8.46442 5.24659 8.07874C5.41114 7.693 5.60401 7.32874 5.83253 6.9787C6.08253 6.60016 6.37501 6.24298 6.70363 5.91443C7.03224 5.58588 7.38966 5.29297 7.76808 5.04297C8.11086 4.81445 8.48244 4.62158 8.86818 4.45728C9.25393 4.29297 9.64651 4.17157 10.0464 4.07874C10.0894 4.07159 10.1397 4.06445 10.1822 4.05731C7.36818 3.13586 4.31788 4.62872 3.33252 7.43585C2.49658 9.8216 3.41797 12.4002 5.41798 13.7573C5.38233 13.6787 5.33936 13.6073 5.31104 13.5287L5.31104 13.5216Z" fill="rgb(208,212,220)" fill-rule="evenodd" />
	<path id="Vector" d="M11.5181 5.27155C8.50393 5.27155 6.06105 7.71442 6.06105 10.7287C6.06105 11.8215 6.38234 12.8358 6.93263 13.693L6.32521 15.3001C6.11817 15.843 6.64698 16.3715 7.18947 16.1716L8.91799 15.5358C9.68948 15.9573 10.5752 16.193 11.5181 16.193C14.5323 16.193 16.9751 13.7501 16.9751 10.7358C16.9751 7.72156 14.5323 5.27869 11.5181 5.27869L11.5181 5.27155ZM11.5181 7.71442C12.1324 7.71442 12.6397 8.21442 12.6397 8.83582C12.6397 9.45728 12.1397 9.95728 11.5181 9.95728C10.897 9.95728 10.397 9.45728 10.397 8.83582C10.397 8.21442 10.897 7.71442 11.5181 7.71442ZM12.6324 13.2358C12.6324 13.5287 12.397 13.7644 12.104 13.7644L10.918 13.7644C10.6255 13.7644 10.3897 13.5287 10.3897 13.2358L10.3897 11.0287C10.3897 10.7358 10.6255 10.5001 10.918 10.5001L12.104 10.5001C12.397 10.5001 12.6324 10.7358 12.6324 11.0287L12.6324 13.2358Z" fill="rgb(208,212,220)" fill-rule="evenodd" />
	<path id="Vector" d="M11.5181 5.27155C8.50393 5.27155 6.06105 7.71442 6.06105 10.7287C6.06105 11.8215 6.38234 12.8358 6.93263 13.693L6.32521 15.3001C6.11817 15.843 6.64698 16.3715 7.18947 16.1716L8.91799 15.5358C9.68948 15.9573 10.5752 16.193 11.5181 16.193C14.5323 16.193 16.9751 13.7501 16.9751 10.7358C16.9751 7.72156 14.5323 5.27869 11.5181 5.27869L11.5181 5.27155ZM11.5181 7.71442C12.1324 7.71442 12.6397 8.21442 12.6397 8.83582C12.6397 9.45728 12.1397 9.95728 11.5181 9.95728C10.897 9.95728 10.397 9.45728 10.397 8.83582C10.397 8.21442 10.897 7.71442 11.5181 7.71442ZM12.6324 13.2358C12.6324 13.5287 12.397 13.7644 12.104 13.7644L10.918 13.7644C10.6255 13.7644 10.3897 13.5287 10.3897 13.2358L10.3897 11.0287C10.3897 10.7358 10.6255 10.5001 10.918 10.5001L12.104 10.5001C12.397 10.5001 12.6324 10.7358 12.6324 11.0287L12.6324 13.2358Z" fill="rgb(58,71,96)" fill-rule="evenodd" />
</svg>
