<svg viewBox="0 0 20 20" xmlns="http://www.w3.org/2000/svg" xmlns:xlink="http://www.w3.org/1999/xlink" width="20.000000" height="20.000000" fill="none" clip-path="url(#clipPath_94)" customFrame="url(#clipPath_94)">
	<defs>
		<clipPath id="clipPath_94">
			<rect width="20.000000" height="20.000000" x="0.000000" y="0.000000" rx="6.000000" fill="rgb(255,255,255)" />
		</clipPath>
	</defs>
	<rect id="20 / Yaga / Project-Pages / Dashboard_color" width="20.000000" height="20.000000" x="0.000000" y="0.000000" rx="6.000000" fill="rgb(59,188,158)" fill-opacity="0.100000001" />
	<path id="Vector" d="M5.31202 13.5214C5.19044 13.25 5.0835 12.9714 4.99757 12.6857C4.91895 12.4286 4.85499 12.1643 4.81202 11.9C4.74756 11.5143 4.71192 11.1286 4.71192 10.7286C4.71192 10.2286 4.76172 9.73572 4.86915 9.25714C4.9546 8.85718 5.0835 8.4643 5.24757 8.07862C5.41212 7.69287 5.60499 7.32862 5.83351 6.97858C6.08351 6.60004 6.37599 6.24286 6.7046 5.91431C7.03322 5.58576 7.39064 5.29285 7.76906 5.04285C8.11183 4.81433 8.48342 4.62146 8.86916 4.45715C9.2549 4.29285 9.64748 4.17145 10.0474 4.07861C10.0904 4.07147 10.1406 4.06433 10.1831 4.05719C7.36915 3.13574 4.31885 4.6286 3.3335 7.43573C2.49756 9.82148 3.41895 12.4 5.41895 13.7571C5.38331 13.6786 5.34034 13.6072 5.31202 13.5286L5.31202 13.5214Z" fill="rgb(59,188,158)" fill-opacity="0.300000012" fill-rule="evenodd" />
	<path id="Vector" d="M11.5191 5.27142C8.5049 5.27142 6.06202 7.7143 6.06202 10.7286C6.06202 11.8214 6.38331 12.8357 6.93361 13.6929L6.32618 15.3C6.11915 15.8428 6.64796 16.3714 7.19044 16.1715L8.91896 15.5357C9.69045 15.9572 10.5762 16.1929 11.5191 16.1929C14.5332 16.1929 16.9761 13.75 16.9761 10.7357C16.9761 7.72144 14.5332 5.27857 11.5191 5.27857L11.5191 5.27142ZM11.5191 7.7143C12.1333 7.7143 12.6407 8.2143 12.6407 8.8357C12.6407 9.45716 12.1407 9.95716 11.5191 9.95716C10.898 9.95716 10.398 9.45716 10.398 8.8357C10.398 8.2143 10.898 7.7143 11.5191 7.7143ZM12.6333 13.2357C12.6333 13.5286 12.398 13.7643 12.105 13.7643L10.919 13.7643C10.6265 13.7643 10.3906 13.5286 10.3906 13.2357L10.3906 11.0286C10.3906 10.7357 10.6265 10.5 10.919 10.5L12.105 10.5C12.398 10.5 12.6333 10.7357 12.6333 11.0286L12.6333 13.2357Z" fill="rgb(59,188,158)" fill-opacity="0.300000012" fill-rule="evenodd" />
	<path id="Vector" d="M11.5191 5.27142C8.5049 5.27142 6.06202 7.7143 6.06202 10.7286C6.06202 11.8214 6.38331 12.8357 6.93361 13.6929L6.32618 15.3C6.11915 15.8428 6.64796 16.3714 7.19044 16.1715L8.91896 15.5357C9.69045 15.9572 10.5762 16.1929 11.5191 16.1929C14.5332 16.1929 16.9761 13.75 16.9761 10.7357C16.9761 7.72144 14.5332 5.27857 11.5191 5.27857L11.5191 5.27142ZM11.5191 7.7143C12.1333 7.7143 12.6407 8.2143 12.6407 8.8357C12.6407 9.45716 12.1407 9.95716 11.5191 9.95716C10.898 9.95716 10.398 9.45716 10.398 8.8357C10.398 8.2143 10.898 7.7143 11.5191 7.7143ZM12.6333 13.2357C12.6333 13.5286 12.398 13.7643 12.105 13.7643L10.919 13.7643C10.6265 13.7643 10.3906 13.5286 10.3906 13.2357L10.3906 11.0286C10.3906 10.7357 10.6265 10.5 10.919 10.5L12.105 10.5C12.398 10.5 12.6333 10.7357 12.6333 11.0286L12.6333 13.2357Z" fill="rgb(59,188,158)" fill-rule="evenodd" />
</svg>
