<svg viewBox="0 0 20 20" xmlns="http://www.w3.org/2000/svg" xmlns:xlink="http://www.w3.org/1999/xlink" width="20.000000" height="20.000000" fill="none" clip-path="url(#clipPath_78)" customFrame="url(#clipPath_78)">
	<defs>
		<clipPath id="clipPath_78">
			<rect width="20.000000" height="20.000000" x="0.000000" y="0.000000" rx="6.000000" fill="rgb(255,255,255)" />
		</clipPath>
	</defs>
	<rect id="20 / Yaga / Project-Pages / Scrum_color" width="20.000000" height="20.000000" x="0.000000" y="0.000000" rx="6.000000" fill="rgb(255,71,71)" fill-opacity="0.100000001" />
	<path id="Vector" d="M10.3684 5.50493C10.5393 5.3692 10.7755 5.34776 10.9824 5.44778C11.1753 5.5478 11.3041 5.74777 11.3041 5.96925L11.3041 8.39776C11.3041 8.81921 11.6465 9.16207 12.0682 9.16207C12.4894 9.16207 12.8324 8.81921 12.8324 8.39776L12.8324 8.12638C12.8324 7.89781 12.9612 7.69776 13.1608 7.60491C13.361 7.51206 13.6039 7.5335 13.7754 7.6764C14.5109 8.26211 15.0181 8.89779 15.3324 9.60496C15.6541 10.305 15.7609 11.0407 15.7609 11.805C15.7609 14.2835 13.6466 16.2692 11.254 16.2692C8.86084 16.2692 6.89673 14.2549 6.89673 11.805C6.89673 9.91921 7.78967 8.34062 8.63928 7.25495C9.06836 6.71205 9.4895 6.27633 9.81787 5.98352C9.97534 5.83352 10.1182 5.71924 10.2109 5.64065C10.2537 5.59778 10.297 5.56924 10.3251 5.5478L10.3751 5.51919L10.3684 5.50493Z" fill="rgb(255,71,71)" fill-rule="evenodd" />
	<path id="Vector" d="M6.63184 15.0048C6.4176 14.6906 6.23938 14.3548 6.09656 13.9977C5.96777 13.6762 5.86768 13.3548 5.79626 13.0262C5.71082 12.6263 5.66809 12.2191 5.66809 11.7976C5.66809 11.712 5.66809 11.6262 5.66809 11.5405C5.70349 10.5977 5.91772 9.66195 6.31812 8.73338C6.64648 7.96197 7.09631 7.21193 7.6676 6.4834C7.85376 6.24765 8.03931 6.02624 8.2395 5.80484C8.4751 5.54765 8.72473 5.29771 8.9823 5.06196C9.01099 5.03335 9.06775 4.98338 9.11047 4.94768L9.11047 4.36914C9.11047 4.12622 8.96765 3.90482 8.75342 3.7977C8.53186 3.69051 8.2749 3.71194 8.08203 3.86194L8.03198 3.89764C8.0033 3.91908 7.96057 3.95479 7.91052 3.99767C7.81042 4.09051 7.65356 4.21197 7.48206 4.37624C7.125 4.70483 6.65381 5.18342 6.18201 5.7834C5.22498 6.98343 4.23926 8.72621 4.23926 10.8048C4.23926 12.6548 5.23901 14.2834 6.73193 15.1263C6.70325 15.0834 6.66052 15.0477 6.63184 15.0048Z" fill="rgb(255,71,71)" fill-rule="evenodd" />
	<path id="Vector" d="M6.63184 15.0048C6.4176 14.6906 6.23938 14.3548 6.09656 13.9977C5.96777 13.6762 5.86768 13.3548 5.79626 13.0262C5.71082 12.6263 5.66809 12.2191 5.66809 11.7976C5.66809 11.712 5.66809 11.6262 5.66809 11.5405C5.70349 10.5977 5.91772 9.66195 6.31812 8.73338C6.64648 7.96197 7.09631 7.21193 7.6676 6.4834C7.85376 6.24765 8.03931 6.02624 8.2395 5.80484C8.4751 5.54765 8.72473 5.29771 8.9823 5.06196C9.01099 5.03335 9.06775 4.98338 9.11047 4.94768L9.11047 4.36914C9.11047 4.12622 8.96765 3.90482 8.75342 3.7977C8.53186 3.69051 8.2749 3.71194 8.08203 3.86194L8.03198 3.89764C8.0033 3.91908 7.96057 3.95479 7.91052 3.99767C7.81042 4.09051 7.65356 4.21197 7.48206 4.37624C7.125 4.70483 6.65381 5.18342 6.18201 5.7834C5.22498 6.98343 4.23926 8.72621 4.23926 10.8048C4.23926 12.6548 5.23901 14.2834 6.73193 15.1263C6.70325 15.0834 6.66052 15.0477 6.63184 15.0048Z" fill="rgb(255,71,71)" fill-opacity="0.300000012" fill-rule="evenodd" />
</svg>
