<svg viewBox="0 0 20 20" xmlns="http://www.w3.org/2000/svg" xmlns:xlink="http://www.w3.org/1999/xlink" width="20.000000" height="20.000000" fill="none" clip-path="url(#clipPath_126)" customFrame="url(#clipPath_126)">
	<defs>
		<clipPath id="clipPath_126">
			<rect width="20.000000" height="20.000000" x="0.000000" y="0.000000" rx="6.000000" fill="rgb(255,255,255)" />
		</clipPath>
	</defs>
	<rect id="20 / Yaga / Project-Pages / Analytics_color" width="20.000000" height="20.000000" x="0.000000" y="0.000000" rx="6.000000" fill="rgb(153,36,255)" fill-opacity="0.100000001" />
	<path id="Vector" d="M14.9559 6.625C14.3411 5.73932 13.534 5.07501 12.62 4.64642C12.3412 4.51074 12.0131 4.66785 11.9056 4.96075L10.3412 9.26788C10.206 9.63213 10.477 10.025 10.87 10.025L15.4486 10.0679C15.763 10.0679 16.0198 9.81786 15.9915 9.51074C15.8983 8.44641 15.5272 7.46075 14.9486 6.63214L14.9559 6.625Z" fill="rgb(153,36,255)" fill-opacity="0.300000012" fill-rule="evenodd" />
	<path id="Vector" d="M15.4412 11.1965L10.8627 11.1536C10.7128 11.1536 10.5702 11.1322 10.4271 11.0965C10.2987 11.0608 10.1772 11.0108 10.0629 10.9465C9.94864 10.8822 9.84854 10.8108 9.74845 10.7251C9.64884 10.6393 9.55558 10.5322 9.47697 10.4179C9.39884 10.3036 9.33439 10.1822 9.28459 10.0608C9.24162 9.94646 9.20597 9.81793 9.19133 9.68932C9.16984 9.55364 9.16984 9.42504 9.17717 9.2965C9.19133 9.15362 9.22013 9.0108 9.26994 8.86791L10.8485 4.57507C10.8915 4.46081 10.9413 4.35364 11.0058 4.25366C10.6342 4.18219 10.2558 4.13934 9.87003 4.13934C6.6274 4.1322 4.00586 6.75366 4.00586 9.99651C4.00586 13.2394 6.6274 15.8608 9.87003 15.8608C12.6986 15.8608 15.0628 13.8536 15.6126 11.1822C15.5555 11.1822 15.4984 11.1965 15.4412 11.1965Z" fill="rgb(153,36,255)" fill-opacity="0.300000012" fill-rule="evenodd" />
	<path id="Vector" d="M15.4412 11.1965L10.8627 11.1536C10.7128 11.1536 10.5702 11.1322 10.4271 11.0965C10.2987 11.0608 10.1772 11.0108 10.0629 10.9465C9.94864 10.8822 9.84854 10.8108 9.74845 10.7251C9.64884 10.6393 9.55558 10.5322 9.47697 10.4179C9.39884 10.3036 9.33439 10.1822 9.28459 10.0608C9.24162 9.94646 9.20597 9.81793 9.19133 9.68932C9.16984 9.55364 9.16984 9.42504 9.17717 9.2965C9.19133 9.15362 9.22013 9.0108 9.26994 8.86791L10.8485 4.57507C10.8915 4.46081 10.9413 4.35364 11.0058 4.25366C10.6342 4.18219 10.2558 4.13934 9.87003 4.13934C6.6274 4.1322 4.00586 6.75366 4.00586 9.99651C4.00586 13.2394 6.6274 15.8608 9.87003 15.8608C12.6986 15.8608 15.0628 13.8536 15.6126 11.1822C15.5555 11.1822 15.4984 11.1965 15.4412 11.1965Z" fill="rgb(153,36,255)" fill-rule="evenodd" />
</svg>
