<svg viewBox="0 0 20 20" xmlns="http://www.w3.org/2000/svg" xmlns:xlink="http://www.w3.org/1999/xlink" width="20.000000" height="20.000000" fill="none" clip-path="url(#clipPath_74)" customFrame="url(#clipPath_74)">
	<defs>
		<clipPath id="clipPath_74">
			<rect width="20.000000" height="20.000000" x="0.000000" y="0.000000" rx="6.000000" fill="rgb(255,255,255)" />
		</clipPath>
	</defs>
	<rect id="20 / Yaga / Project-Pages / Scrum_gray" width="20.000000" height="20.000000" x="0.000000" y="0.000000" rx="6.000000" fill="rgb(241,243,249)" />
	<path id="Vector" d="M10.3678 5.50497C10.5387 5.36925 10.7749 5.34781 10.9818 5.44783C11.1747 5.54785 11.3035 5.74782 11.3035 5.9693L11.3035 8.39781C11.3035 8.81925 11.6459 9.16212 12.0676 9.16212C12.4888 9.16212 12.8318 8.81925 12.8318 8.39781L12.8318 8.12643C12.8318 7.89785 12.9606 7.69781 13.1602 7.60496C13.3604 7.51211 13.6033 7.53355 13.7748 7.67645C14.5103 8.26216 15.0175 8.89784 15.3318 9.605C15.6534 10.305 15.7603 11.0407 15.7603 11.805C15.7603 14.2836 13.646 16.2693 11.2534 16.2693C8.86023 16.2693 6.89612 14.255 6.89612 11.805C6.89612 9.91926 7.78906 8.34066 8.63867 7.255C9.06775 6.71209 9.48889 6.27638 9.81726 5.98356C9.97473 5.83357 10.1176 5.71928 10.2103 5.6407C10.2531 5.59782 10.2964 5.56929 10.3245 5.54785L10.3745 5.51924L10.3678 5.50497Z" fill="rgb(161,169,184)" fill-rule="evenodd" />
	<path id="Vector" d="M6.63184 15.0049C6.4176 14.6907 6.23938 14.3549 6.09656 13.9978C5.96777 13.6763 5.86768 13.3549 5.79626 13.0263C5.71082 12.6264 5.66809 12.2192 5.66809 11.7978C5.66809 11.7121 5.66809 11.6263 5.66809 11.5407C5.70349 10.5978 5.91772 9.66207 6.31812 8.7335C6.64648 7.96209 7.09631 7.21205 7.6676 6.48352C7.85376 6.24777 8.03931 6.02636 8.2395 5.80496C8.4751 5.54777 8.72473 5.29783 8.9823 5.06209C9.01099 5.03348 9.06775 4.9835 9.11047 4.9478L9.11047 4.36926C9.11047 4.12634 8.96765 3.90494 8.75342 3.79782C8.53186 3.69063 8.2749 3.71207 8.08203 3.86206L8.03198 3.89777C8.0033 3.9192 7.96057 3.95491 7.91052 3.99779C7.81042 4.09064 7.65356 4.2121 7.48206 4.37636C7.125 4.70496 6.65381 5.18355 6.18201 5.78352C5.22498 6.98355 4.23926 8.72633 4.23926 10.805C4.23926 12.6549 5.23901 14.2835 6.73193 15.1264C6.70325 15.0835 6.66052 15.0478 6.63184 15.0049Z" fill="rgb(161,169,184)" fill-rule="evenodd" />
	<path id="Vector" d="M6.63184 15.0049C6.4176 14.6907 6.23938 14.3549 6.09656 13.9978C5.96777 13.6763 5.86768 13.3549 5.79626 13.0263C5.71082 12.6264 5.66809 12.2192 5.66809 11.7978C5.66809 11.7121 5.66809 11.6263 5.66809 11.5407C5.70349 10.5978 5.91772 9.66207 6.31812 8.7335C6.64648 7.96209 7.09631 7.21205 7.6676 6.48352C7.85376 6.24777 8.03931 6.02636 8.2395 5.80496C8.4751 5.54777 8.72473 5.29783 8.9823 5.06209C9.01099 5.03348 9.06775 4.9835 9.11047 4.9478L9.11047 4.36926C9.11047 4.12634 8.96765 3.90494 8.75342 3.79782C8.53186 3.69063 8.2749 3.71207 8.08203 3.86206L8.03198 3.89777C8.0033 3.9192 7.96057 3.95491 7.91052 3.99779C7.81042 4.09064 7.65356 4.2121 7.48206 4.37636C7.125 4.70496 6.65381 5.18355 6.18201 5.78352C5.22498 6.98355 4.23926 8.72633 4.23926 10.805C4.23926 12.6549 5.23901 14.2835 6.73193 15.1264C6.70325 15.0835 6.66052 15.0478 6.63184 15.0049Z" fill="rgb(208,212,220)" fill-rule="evenodd" />
</svg>
