<svg viewBox="0 0 20 20" xmlns="http://www.w3.org/2000/svg" xmlns:xlink="http://www.w3.org/1999/xlink" width="20.000000" height="20.000000" fill="none" clip-path="url(#clipPath_58)" customFrame="url(#clipPath_58)">
	<defs>
		<clipPath id="clipPath_58">
			<rect width="20.000000" height="20.000000" x="0.000000" y="0.000000" rx="6.000000" fill="rgb(255,255,255)" />
		</clipPath>
	</defs>
	<rect id="20 / Yaga / Project-Pages / Article_gray" width="20.000000" height="20.000000" x="0.000000" y="0.000000" rx="6.000000" fill="rgb(241,243,249)" />
	<path id="Vector" d="M12.3423 7.31073L14.3423 7.31073C14.9209 7.31073 15.2139 6.60364 14.7993 6.19647L12.7993 4.22504C12.3926 3.81787 11.6924 4.11078 11.6924 4.68933L11.6924 6.66077C11.6924 7.01788 11.9854 7.31073 12.3423 7.31073Z" fill="rgb(161,169,184)" fill-rule="evenodd" />
	<path id="Vector" d="M13.6997 13.5679C13.8716 13.5679 14.043 13.5322 14.1997 13.4822C14.793 13.2822 15.2285 12.7537 15.2783 12.1108C15.2783 12.0679 15.293 12.0179 15.293 11.9751L15.293 8.36078C15.293 8.36078 15.2427 8.38934 15.2212 8.40363C15.1357 8.44653 15.043 8.48224 14.9429 8.51794C14.8716 8.53937 14.8071 8.56079 14.7358 8.57507C14.6069 8.60364 14.4785 8.61078 14.3428 8.61078L12.3428 8.61078C12.207 8.61078 12.0713 8.5965 11.9429 8.56793C11.8213 8.53937 11.6997 8.50366 11.5854 8.45367C11.4712 8.40363 11.3643 8.3465 11.2642 8.28223C11.1572 8.21082 11.0571 8.1322 10.9712 8.03937C10.8857 7.94653 10.7998 7.8465 10.7285 7.74652C10.6641 7.64648 10.6001 7.53937 10.5571 7.42505C10.5068 7.31079 10.4712 7.18939 10.4429 7.06793C10.4141 6.93939 10.3999 6.80365 10.3999 6.66791L10.3999 4.69653C10.3999 4.56079 10.4141 4.43219 10.4355 4.31079C10.4497 4.23938 10.4644 4.17505 10.4858 4.10364C10.5142 4.0108 10.5498 3.91791 10.6001 3.83221C10.6001 3.82507 10.6069 3.81793 10.6143 3.81079L8.62842 3.81079C8.56445 3.81079 8.50684 3.82507 8.44287 3.83221C7.66406 3.92505 7.05713 4.57507 7.03564 5.37506C7.03564 5.38934 7.03564 5.39648 7.03564 5.41077L7.03564 11.9894C7.03564 12.0394 7.04297 12.0822 7.0498 12.1251C7.10693 12.7679 7.53564 13.2965 8.12842 13.4965C8.28564 13.5465 8.44971 13.5822 8.62842 13.5822L13.707 13.5822L13.6997 13.5679Z" fill="rgb(161,169,184)" fill-rule="evenodd" />
	<path id="Vector" d="M13.6997 13.5679C13.8716 13.5679 14.043 13.5322 14.1997 13.4822C14.793 13.2822 15.2285 12.7537 15.2783 12.1108C15.2783 12.0679 15.293 12.0179 15.293 11.9751L15.293 8.36078C15.293 8.36078 15.2427 8.38934 15.2212 8.40363C15.1357 8.44653 15.043 8.48224 14.9429 8.51794C14.8716 8.53937 14.8071 8.56079 14.7358 8.57507C14.6069 8.60364 14.4785 8.61078 14.3428 8.61078L12.3428 8.61078C12.207 8.61078 12.0713 8.5965 11.9429 8.56793C11.8213 8.53937 11.6997 8.50366 11.5854 8.45367C11.4712 8.40363 11.3643 8.3465 11.2642 8.28223C11.1572 8.21082 11.0571 8.1322 10.9712 8.03937C10.8857 7.94653 10.7998 7.8465 10.7285 7.74652C10.6641 7.64648 10.6001 7.53937 10.5571 7.42505C10.5068 7.31079 10.4712 7.18939 10.4429 7.06793C10.4141 6.93939 10.3999 6.80365 10.3999 6.66791L10.3999 4.69653C10.3999 4.56079 10.4141 4.43219 10.4355 4.31079C10.4497 4.23938 10.4644 4.17505 10.4858 4.10364C10.5142 4.0108 10.5498 3.91791 10.6001 3.83221C10.6001 3.82507 10.6069 3.81793 10.6143 3.81079L8.62842 3.81079C8.56445 3.81079 8.50684 3.82507 8.44287 3.83221C7.66406 3.92505 7.05713 4.57507 7.03564 5.37506C7.03564 5.38934 7.03564 5.39648 7.03564 5.41077L7.03564 11.9894C7.03564 12.0394 7.04297 12.0822 7.0498 12.1251C7.10693 12.7679 7.53564 13.2965 8.12842 13.4965C8.28564 13.5465 8.44971 13.5822 8.62842 13.5822L13.707 13.5822L13.6997 13.5679Z" fill="rgb(161,169,184)" fill-rule="evenodd" />
	<path id="Vector" d="M13.6997 14.6321L8.62109 14.6321C7.15723 14.6321 5.96436 13.4393 5.96436 11.975L5.96436 6.01074C5.20703 6.53217 4.70703 7.38934 4.70703 8.375L4.70703 13.3107C4.70703 14.8965 6 16.1893 7.58545 16.1893L11.1997 16.1893C12.3071 16.1893 13.2642 15.5536 13.7427 14.625C13.7285 14.625 13.7144 14.625 13.6997 14.625L13.6997 14.6321ZM5.77148 13.3107C5.77148 13.3107 5.77148 13.3464 5.77148 13.3679C5.77148 13.3464 5.77148 13.3322 5.77148 13.3107Z" fill="rgb(161,169,184)" fill-rule="evenodd" />
	<path id="Vector" d="M13.6997 14.6321L8.62109 14.6321C7.15723 14.6321 5.96436 13.4393 5.96436 11.975L5.96436 6.01074C5.20703 6.53217 4.70703 7.38934 4.70703 8.375L4.70703 13.3107C4.70703 14.8965 6 16.1893 7.58545 16.1893L11.1997 16.1893C12.3071 16.1893 13.2642 15.5536 13.7427 14.625C13.7285 14.625 13.7144 14.625 13.6997 14.625L13.6997 14.6321ZM5.77148 13.3107C5.77148 13.3107 5.77148 13.3464 5.77148 13.3679C5.77148 13.3464 5.77148 13.3322 5.77148 13.3107Z" fill="rgb(208,212,220)" fill-rule="evenodd" />
</svg>
