<svg viewBox="0 0 20 20" xmlns="http://www.w3.org/2000/svg" xmlns:xlink="http://www.w3.org/1999/xlink" width="20.000000" height="20.000000" fill="none" clip-path="url(#clipPath_70)" customFrame="url(#clipPath_70)">
	<defs>
		<clipPath id="clipPath_70">
			<rect width="20.000000" height="20.000000" x="0.000000" y="0.000000" rx="6.000000" fill="rgb(255,255,255)" />
		</clipPath>
	</defs>
	<rect id="20 / Yaga / Project-Pages / Article_accent" width="20.000000" height="20.000000" x="0.000000" y="0.000000" rx="6.000000" fill="rgb(0,85,255)" fill-opacity="0.100000001" />
	<path id="Vector" d="M12.3423 7.31067L14.3423 7.31067C14.9209 7.31067 15.2139 6.60358 14.7993 6.19641L12.7993 4.22498C12.3926 3.81781 11.6924 4.11072 11.6924 4.68927L11.6924 6.66071C11.6924 7.01782 11.9854 7.31067 12.3423 7.31067Z" fill="rgb(0,85,255)" fill-rule="evenodd" />
	<path id="Vector" d="M13.6992 13.5678C13.8711 13.5678 14.0425 13.5321 14.1992 13.4821C14.7925 13.2821 15.228 12.7535 15.2778 12.1107C15.2778 12.0678 15.2925 12.0178 15.2925 11.975L15.2925 8.36066C15.2925 8.36066 15.2422 8.38922 15.2207 8.4035C15.1353 8.44641 15.0425 8.48212 14.9424 8.51782C14.8711 8.53925 14.8066 8.56067 14.7354 8.57495C14.6064 8.60352 14.478 8.61066 14.3423 8.61066L12.3423 8.61066C12.2065 8.61066 12.0708 8.59637 11.9424 8.56781C11.8208 8.53925 11.6992 8.50354 11.585 8.45355C11.4707 8.4035 11.3638 8.34637 11.2637 8.2821C11.1567 8.21069 11.0566 8.13208 10.9707 8.03925C10.8853 7.94641 10.7993 7.84637 10.728 7.7464C10.6636 7.64636 10.5996 7.53925 10.5566 7.42493C10.5063 7.31067 10.4707 7.18927 10.4424 7.06781C10.4136 6.93927 10.3994 6.80353 10.3994 6.66779L10.3994 4.69641C10.3994 4.56067 10.4136 4.43207 10.4351 4.31067C10.4492 4.23926 10.4639 4.17493 10.4854 4.10352C10.5137 4.01068 10.5493 3.91779 10.5996 3.83209C10.5996 3.82495 10.6064 3.81781 10.6138 3.81067L8.62793 3.81067C8.56396 3.81067 8.50635 3.82495 8.44238 3.83209C7.66357 3.92493 7.05664 4.57495 7.03516 5.37494C7.03516 5.38922 7.03516 5.39636 7.03516 5.41064L7.03516 11.9893C7.03516 12.0392 7.04248 12.0821 7.04932 12.1249C7.10645 12.7678 7.53516 13.2964 8.12793 13.4964C8.28516 13.5464 8.44922 13.5821 8.62793 13.5821L13.7065 13.5821L13.6992 13.5678Z" fill="rgb(0,85,255)" fill-rule="evenodd" />
	<path id="Vector" d="M13.6992 13.5678C13.8711 13.5678 14.0425 13.5321 14.1992 13.4821C14.7925 13.2821 15.228 12.7535 15.2778 12.1107C15.2778 12.0678 15.2925 12.0178 15.2925 11.975L15.2925 8.36066C15.2925 8.36066 15.2422 8.38922 15.2207 8.4035C15.1353 8.44641 15.0425 8.48212 14.9424 8.51782C14.8711 8.53925 14.8066 8.56067 14.7354 8.57495C14.6064 8.60352 14.478 8.61066 14.3423 8.61066L12.3423 8.61066C12.2065 8.61066 12.0708 8.59637 11.9424 8.56781C11.8208 8.53925 11.6992 8.50354 11.585 8.45355C11.4707 8.4035 11.3638 8.34637 11.2637 8.2821C11.1567 8.21069 11.0566 8.13208 10.9707 8.03925C10.8853 7.94641 10.7993 7.84637 10.728 7.7464C10.6636 7.64636 10.5996 7.53925 10.5566 7.42493C10.5063 7.31067 10.4707 7.18927 10.4424 7.06781C10.4136 6.93927 10.3994 6.80353 10.3994 6.66779L10.3994 4.69641C10.3994 4.56067 10.4136 4.43207 10.4351 4.31067C10.4492 4.23926 10.4639 4.17493 10.4854 4.10352C10.5137 4.01068 10.5493 3.91779 10.5996 3.83209C10.5996 3.82495 10.6064 3.81781 10.6138 3.81067L8.62793 3.81067C8.56396 3.81067 8.50635 3.82495 8.44238 3.83209C7.66357 3.92493 7.05664 4.57495 7.03516 5.37494C7.03516 5.38922 7.03516 5.39636 7.03516 5.41064L7.03516 11.9893C7.03516 12.0392 7.04248 12.0821 7.04932 12.1249C7.10645 12.7678 7.53516 13.2964 8.12793 13.4964C8.28516 13.5464 8.44922 13.5821 8.62793 13.5821L13.7065 13.5821L13.6992 13.5678Z" fill="rgb(0,85,255)" fill-rule="evenodd" />
	<path id="Vector" d="M13.6997 14.6321L8.62109 14.6321C7.15723 14.6321 5.96436 13.4393 5.96436 11.975L5.96436 6.01068C5.20703 6.5321 4.70703 7.38928 4.70703 8.37494L4.70703 13.3107C4.70703 14.8964 6 16.1893 7.58545 16.1893L11.1997 16.1893C12.3071 16.1893 13.2642 15.5535 13.7427 14.6249C13.7285 14.6249 13.7144 14.6249 13.6997 14.6249L13.6997 14.6321ZM5.77148 13.3107C5.77148 13.3107 5.77148 13.3464 5.77148 13.3678C5.77148 13.3464 5.77148 13.3321 5.77148 13.3107Z" fill="rgb(0,85,255)" fill-rule="evenodd" />
	<path id="Vector" d="M13.6997 14.6321L8.62109 14.6321C7.15723 14.6321 5.96436 13.4393 5.96436 11.975L5.96436 6.01068C5.20703 6.5321 4.70703 7.38928 4.70703 8.37494L4.70703 13.3107C4.70703 14.8964 6 16.1893 7.58545 16.1893L11.1997 16.1893C12.3071 16.1893 13.2642 15.5535 13.7427 14.6249C13.7285 14.6249 13.7144 14.6249 13.6997 14.6249L13.6997 14.6321ZM5.77148 13.3107C5.77148 13.3107 5.77148 13.3464 5.77148 13.3678C5.77148 13.3464 5.77148 13.3321 5.77148 13.3107Z" fill="rgb(0,85,255)" fill-opacity="0.300000012" fill-rule="evenodd" />
</svg>
