<svg viewBox="0 0 20 20" xmlns="http://www.w3.org/2000/svg" xmlns:xlink="http://www.w3.org/1999/xlink" width="20.000000" height="20.000000" fill="none" clip-path="url(#clipPath_54)" customFrame="url(#clipPath_54)">
	<defs>
		<clipPath id="clipPath_54">
			<rect width="20.000000" height="20.000000" x="0.000000" y="0.000000" rx="6.000000" fill="rgb(255,255,255)" />
		</clipPath>
	</defs>
	<rect id="20 / Yaga / Project-Pages / File_accent" width="20.000000" height="20.000000" x="0.000000" y="0.000000" rx="6.000000" fill="rgb(0,85,255)" fill-opacity="0.100000001" />
	<path id="Vector" d="M7.31737 10.0245C8.26757 6.78168 12.7104 6.53168 14.0674 9.53168L14.6958 9.66743C17.8672 10.3532 17.3672 15.0246 14.1245 15.0246L7.73144 15.0246C4.88867 14.996 4.50293 10.9389 7.21728 10.3317L7.31737 10.0245L7.31737 10.0245Z" fill="rgb(0,85,255)" fill-rule="evenodd" />
	<path id="Vector" d="M4.36035 11.8317C4.4248 11.5531 4.51758 11.2888 4.63916 11.0388C4.69629 10.9317 4.75342 10.8245 4.8247 10.7174C4.93896 10.5388 5.0747 10.3674 5.21777 10.2174C5.36767 10.0602 5.53173 9.92457 5.71044 9.79597C5.75341 9.7674 5.79638 9.73884 5.83886 9.71027C5.99609 9.6103 6.16064 9.52454 6.33203 9.45313C6.45361 9.10316 6.61034 8.77454 6.80322 8.47455C6.83886 8.42457 6.86767 8.36744 6.90331 8.31739C7.04638 8.10315 7.21044 7.91028 7.38915 7.72455C7.54638 7.56025 7.71776 7.41028 7.90331 7.2674C8.03173 7.16742 8.16747 7.07459 8.31054 6.99597C8.56786 6.83887 8.83886 6.71027 9.12499 6.61029C9.29637 6.54596 9.46776 6.49597 9.63915 6.45313C9.90331 6.38886 10.1821 6.34601 10.4604 6.33173C10.7246 6.31738 10.9819 6.31738 11.2392 6.33887C11.2964 6.33887 11.3535 6.36029 11.4106 6.36743C9.73192 4.146 5.96777 4.61029 5.09619 7.56739L5.00341 7.87458C2.74609 8.38172 2.64649 11.246 4.29638 12.2246C4.31054 12.096 4.33203 11.9603 4.36035 11.8317L4.36035 11.8317Z" fill="rgb(0,85,255)" fill-rule="evenodd" />
	<path id="Vector" d="M4.36035 11.8317C4.4248 11.5531 4.51758 11.2888 4.63916 11.0388C4.69629 10.9317 4.75342 10.8245 4.8247 10.7174C4.93896 10.5388 5.0747 10.3674 5.21777 10.2174C5.36767 10.0602 5.53173 9.92457 5.71044 9.79597C5.75341 9.7674 5.79638 9.73884 5.83886 9.71027C5.99609 9.6103 6.16064 9.52454 6.33203 9.45313C6.45361 9.10316 6.61034 8.77454 6.80322 8.47455C6.83886 8.42457 6.86767 8.36744 6.90331 8.31739C7.04638 8.10315 7.21044 7.91028 7.38915 7.72455C7.54638 7.56025 7.71776 7.41028 7.90331 7.2674C8.03173 7.16742 8.16747 7.07459 8.31054 6.99597C8.56786 6.83887 8.83886 6.71027 9.12499 6.61029C9.29637 6.54596 9.46776 6.49597 9.63915 6.45313C9.90331 6.38886 10.1821 6.34601 10.4604 6.33173C10.7246 6.31738 10.9819 6.31738 11.2392 6.33887C11.2964 6.33887 11.3535 6.36029 11.4106 6.36743C9.73192 4.146 5.96777 4.61029 5.09619 7.56739L5.00341 7.87458C2.74609 8.38172 2.64649 11.246 4.29638 12.2246C4.31054 12.096 4.33203 11.9603 4.36035 11.8317L4.36035 11.8317Z" fill="rgb(0,85,255)" fill-opacity="0.300000012" fill-rule="evenodd" />
</svg>
