<svg viewBox="0 0 20 20" xmlns="http://www.w3.org/2000/svg" xmlns:xlink="http://www.w3.org/1999/xlink" width="20.000000" height="20.000000" fill="none" clip-path="url(#clipPath_86)" customFrame="url(#clipPath_86)">
	<defs>
		<clipPath id="clipPath_86">
			<rect width="20.000000" height="20.000000" x="0.000000" y="0.000000" rx="6.000000" fill="rgb(255,255,255)" />
		</clipPath>
	</defs>
	<rect id="20 / Yaga / Project-Pages / Scrum_accent" width="20.000000" height="20.000000" x="0.000000" y="0.000000" rx="6.000000" fill="rgb(0,85,255)" fill-opacity="0.100000001" />
	<path id="Vector" d="M10.3672 5.50494C10.5391 5.3692 10.7744 5.34778 10.9819 5.44775C11.1748 5.54779 11.3032 5.74774 11.3032 5.96918L11.3032 8.39777C11.3032 8.81922 11.646 9.16205 12.0674 9.16205C12.4888 9.16205 12.8315 8.81922 12.8315 8.39777L12.8315 8.12634C12.8315 7.89777 12.9604 7.69776 13.1602 7.60492C13.3604 7.51209 13.603 7.53351 13.7744 7.67633C14.5103 8.26209 15.0176 8.89777 15.3315 9.60492C15.6533 10.3049 15.7603 11.0407 15.7603 11.8049C15.7603 14.2835 13.646 16.2692 11.2529 16.2692C8.86035 16.2692 6.896 14.2549 6.896 11.8049C6.896 9.91919 7.78906 8.34064 8.63867 7.25488C9.06738 6.71204 9.48877 6.27637 9.81738 5.98346C9.97461 5.8335 10.1172 5.71918 10.2104 5.64063C10.2529 5.59778 10.2959 5.56921 10.3247 5.54779L10.3745 5.51923L10.3672 5.50494Z" fill="rgb(0,85,255)" fill-rule="evenodd" />
	<path id="Vector" d="M6.63135 15.0048C6.41699 14.6906 6.23828 14.3548 6.09521 13.9977C5.9668 13.6763 5.8667 13.3548 5.79541 13.0263C5.70947 12.6262 5.66699 12.2191 5.66699 11.7977C5.66699 11.712 5.66699 11.6262 5.66699 11.5405C5.70264 10.5977 5.91699 9.66199 6.31689 8.7334C6.64551 7.96198 7.09521 7.21198 7.66699 6.4834C7.85254 6.24768 8.03809 6.02625 8.23828 5.80481C8.47412 5.54767 8.72412 5.29767 8.98096 5.06195C9.00977 5.03339 9.06689 4.9834 9.10986 4.94769L9.10986 4.36908C9.10986 4.12622 8.9668 3.90485 8.75244 3.79767C8.53125 3.69055 8.27393 3.71198 8.08105 3.86194L8.03125 3.89771C8.00244 3.91913 7.95947 3.95483 7.90967 3.99768C7.80957 4.09052 7.65234 4.21198 7.48096 4.37622C7.12402 4.70483 6.65234 5.18341 6.18115 5.78339C5.22412 6.9834 4.23828 8.72626 4.23828 10.8048C4.23828 12.6549 5.23828 14.2834 6.73096 15.1262C6.70264 15.0834 6.65967 15.0477 6.63135 15.0048Z" fill="rgb(0,85,255)" fill-rule="evenodd" />
	<path id="Vector" d="M6.63135 15.0048C6.41699 14.6906 6.23828 14.3548 6.09521 13.9977C5.9668 13.6763 5.8667 13.3548 5.79541 13.0263C5.70947 12.6262 5.66699 12.2191 5.66699 11.7977C5.66699 11.712 5.66699 11.6262 5.66699 11.5405C5.70264 10.5977 5.91699 9.66199 6.31689 8.7334C6.64551 7.96198 7.09521 7.21198 7.66699 6.4834C7.85254 6.24768 8.03809 6.02625 8.23828 5.80481C8.47412 5.54767 8.72412 5.29767 8.98096 5.06195C9.00977 5.03339 9.06689 4.9834 9.10986 4.94769L9.10986 4.36908C9.10986 4.12622 8.9668 3.90485 8.75244 3.79767C8.53125 3.69055 8.27393 3.71198 8.08105 3.86194L8.03125 3.89771C8.00244 3.91913 7.95947 3.95483 7.90967 3.99768C7.80957 4.09052 7.65234 4.21198 7.48096 4.37622C7.12402 4.70483 6.65234 5.18341 6.18115 5.78339C5.22412 6.9834 4.23828 8.72626 4.23828 10.8048C4.23828 12.6549 5.23828 14.2834 6.73096 15.1262C6.70264 15.0834 6.65967 15.0477 6.63135 15.0048Z" fill="rgb(0,85,255)" fill-opacity="0.300000012" fill-rule="evenodd" />
</svg>
