<svg viewBox="0 0 20 20" xmlns="http://www.w3.org/2000/svg" xmlns:xlink="http://www.w3.org/1999/xlink" width="20.000000" height="20.000000" fill="none" clip-path="url(#clipPath_25)" customFrame="url(#clipPath_25)">
	<defs>
		<clipPath id="clipPath_25">
			<rect width="20.000000" height="20.000000" x="0.000000" y="0.000000" rx="6.000000" fill="rgb(255,255,255)" />
		</clipPath>
	</defs>
	<rect id="20 / Yaga / Project-Pages / Task_black" width="20.000000" height="20.000000" x="0.000000" y="0.000000" rx="6.000000" fill="rgb(241,243,249)" />
	<path id="Vector" d="M10.7709 11.4785C10.6923 11.5571 10.6063 11.6285 10.5135 11.6857C10.4276 11.7428 10.3348 11.7856 10.2421 11.8286C10.1493 11.8643 10.0492 11.8928 9.95643 11.9142C9.85633 11.9357 9.7494 11.9428 9.64198 11.9428C9.53505 11.9428 9.43495 11.9357 9.32802 11.9142C9.22792 11.8928 9.13515 11.8643 9.04238 11.8286C8.94912 11.7928 8.85635 11.7428 8.7709 11.6857C8.67764 11.6285 8.59219 11.5571 8.51358 11.4785C8.43497 11.4 8.36368 11.3142 8.30655 11.2214C8.24943 11.1357 8.20646 11.0428 8.16349 10.95C8.12785 10.8571 8.09953 10.7571 8.07804 10.6642C8.05656 10.5642 8.04924 10.4571 8.04924 10.35C8.04924 10.2428 8.05656 10.1428 8.07804 10.0356C8.09953 9.93567 8.12785 9.84283 8.16349 9.74994C8.19913 9.6571 8.24943 9.56421 8.30655 9.47852C8.36368 9.38568 8.43497 9.29993 8.51358 9.22137L10.4276 7.30707C10.1776 7.2428 9.92078 7.19995 9.6493 7.19995C7.92082 7.19995 6.51362 8.60712 6.51362 10.3428C6.51362 12.0785 7.92082 13.4857 9.6493 13.4857C11.3778 13.4857 12.7923 12.0786 12.7923 10.3428C12.7923 10.0714 12.7493 9.81421 12.6849 9.56421L10.7709 11.4785L10.7709 11.4785Z" fill="rgb(58,71,96)" fill-rule="evenodd" />
	<path id="Vector" d="M15.0994 8.43567C15.0638 8.46423 15.0213 8.48566 14.9851 8.50714C14.9427 8.52856 14.9065 8.54999 14.864 8.57141C14.7781 8.60712 14.6927 8.64282 14.5994 8.66425C14.5066 8.68567 14.4212 8.70709 14.3284 8.71423C14.2854 8.71423 14.2352 8.71423 14.1927 8.71423C14.1424 8.71423 14.0994 8.71423 14.0569 8.71423C13.9642 8.70709 13.8709 8.69281 13.7855 8.66425L13.6424 8.62854L13.5496 8.72137C13.764 9.22137 13.8782 9.77142 13.8782 10.35C13.8782 12.6714 11.9852 14.5643 9.66395 14.5643C7.34271 14.5643 5.44967 12.6714 5.44967 10.35C5.44967 8.02856 7.34271 6.13568 9.66395 6.13568C10.2426 6.13568 10.7923 6.25 11.2923 6.46423L11.3856 6.3714L11.3426 6.22137C11.307 6.08569 11.2855 5.94281 11.2855 5.80713C11.2855 5.67139 11.307 5.52856 11.3426 5.39282C11.3783 5.25714 11.4354 5.12854 11.4999 5.00714C11.557 4.9071 11.6356 4.82141 11.7142 4.72852C11.0712 4.49286 10.3856 4.35712 9.66395 4.35712C6.36421 4.35712 3.68555 7.03571 3.68555 10.3357C3.68555 13.6357 6.36421 16.3143 9.66395 16.3143C12.9642 16.3143 15.6424 13.6357 15.6424 10.3357C15.6424 9.61426 15.5066 8.92139 15.2713 8.28571C15.221 8.33569 15.1638 8.38568 15.1067 8.42139L15.0994 8.43567Z" fill="rgb(58,71,96)" fill-rule="evenodd" />
	<path id="Vector" d="M15.0994 8.43567C15.0638 8.46423 15.0213 8.48566 14.9851 8.50714C14.9427 8.52856 14.9065 8.54999 14.864 8.57141C14.7781 8.60712 14.6927 8.64282 14.5994 8.66425C14.5066 8.68567 14.4212 8.70709 14.3284 8.71423C14.2854 8.71423 14.2352 8.71423 14.1927 8.71423C14.1424 8.71423 14.0994 8.71423 14.0569 8.71423C13.9642 8.70709 13.8709 8.69281 13.7855 8.66425L13.6424 8.62854L13.5496 8.72137C13.764 9.22137 13.8782 9.77142 13.8782 10.35C13.8782 12.6714 11.9852 14.5643 9.66395 14.5643C7.34271 14.5643 5.44967 12.6714 5.44967 10.35C5.44967 8.02856 7.34271 6.13568 9.66395 6.13568C10.2426 6.13568 10.7923 6.25 11.2923 6.46423L11.3856 6.3714L11.3426 6.22137C11.307 6.08569 11.2855 5.94281 11.2855 5.80713C11.2855 5.67139 11.307 5.52856 11.3426 5.39282C11.3783 5.25714 11.4354 5.12854 11.4999 5.00714C11.557 4.9071 11.6356 4.82141 11.7142 4.72852C11.0712 4.49286 10.3856 4.35712 9.66395 4.35712C6.36421 4.35712 3.68555 7.03571 3.68555 10.3357C3.68555 13.6357 6.36421 16.3143 9.66395 16.3143C12.9642 16.3143 15.6424 13.6357 15.6424 10.3357C15.6424 9.61426 15.5066 8.92139 15.2713 8.28571C15.221 8.33569 15.1638 8.38568 15.1067 8.42139L15.0994 8.43567Z" fill="rgb(208,212,220)" fill-rule="evenodd" />
	<path id="Vector" d="M12.5711 6.69287L12.3709 5.94287C12.3494 5.85004 12.3494 5.76428 12.3709 5.67145C12.3924 5.57861 12.4422 5.50714 12.5067 5.43573L14.1209 3.82147C14.221 3.72144 14.3421 3.67145 14.4852 3.67145C14.5564 3.67145 14.6209 3.68573 14.6853 3.70715C14.7493 3.73572 14.7996 3.77142 14.8567 3.82147C14.8709 3.83575 14.885 3.85718 14.8997 3.87146C14.9139 3.88574 14.928 3.90717 14.9353 3.92859C14.9568 3.96429 14.9778 4.00714 14.9851 4.05005L15.1922 4.80005L15.9422 5.00714C16.0139 5.02856 16.0711 5.05719 16.1209 5.10004C16.1707 5.14288 16.2136 5.19287 16.2493 5.25714C16.3211 5.3786 16.3352 5.51428 16.2996 5.65002C16.2849 5.69287 16.2708 5.73572 16.2493 5.77142C16.2278 5.80719 16.1995 5.8429 16.1707 5.8786L14.5564 7.49286C14.5564 7.49286 14.4852 7.55005 14.4495 7.57861C14.4139 7.60004 14.3709 7.62146 14.3211 7.6286C14.2781 7.64288 14.2278 7.65002 14.1854 7.64288C14.1424 7.64288 14.0921 7.64288 14.0496 7.62146L13.3065 7.42145L10.0067 10.7214C9.80653 10.9214 9.47792 10.9214 9.27089 10.7214C9.07119 10.5214 9.07119 10.1929 9.27089 9.98572L12.5711 6.68573L12.5711 6.69287Z" fill="rgb(58,71,96)" fill-rule="evenodd" />
	<path id="Vector" d="M12.5711 6.69287L12.3709 5.94287C12.3494 5.85004 12.3494 5.76428 12.3709 5.67145C12.3924 5.57861 12.4422 5.50714 12.5067 5.43573L14.1209 3.82147C14.221 3.72144 14.3421 3.67145 14.4852 3.67145C14.5564 3.67145 14.6209 3.68573 14.6853 3.70715C14.7493 3.73572 14.7996 3.77142 14.8567 3.82147C14.8709 3.83575 14.885 3.85718 14.8997 3.87146C14.9139 3.88574 14.928 3.90717 14.9353 3.92859C14.9568 3.96429 14.9778 4.00714 14.9851 4.05005L15.1922 4.80005L15.9422 5.00714C16.0139 5.02856 16.0711 5.05719 16.1209 5.10004C16.1707 5.14288 16.2136 5.19287 16.2493 5.25714C16.3211 5.3786 16.3352 5.51428 16.2996 5.65002C16.2849 5.69287 16.2708 5.73572 16.2493 5.77142C16.2278 5.80719 16.1995 5.8429 16.1707 5.8786L14.5564 7.49286C14.5564 7.49286 14.4852 7.55005 14.4495 7.57861C14.4139 7.60004 14.3709 7.62146 14.3211 7.6286C14.2781 7.64288 14.2278 7.65002 14.1854 7.64288C14.1424 7.64288 14.0921 7.64288 14.0496 7.62146L13.3065 7.42145L10.0067 10.7214C9.80653 10.9214 9.47792 10.9214 9.27089 10.7214C9.07119 10.5214 9.07119 10.1929 9.27089 9.98572L12.5711 6.68573L12.5711 6.69287Z" fill="rgb(58,71,96)" fill-rule="evenodd" />
</svg>
