<svg viewBox="0 0 20 20" xmlns="http://www.w3.org/2000/svg" xmlns:xlink="http://www.w3.org/1999/xlink" width="20.000000" height="20.000000" fill="none" clip-path="url(#clipPath_82)" customFrame="url(#clipPath_82)">
	<defs>
		<clipPath id="clipPath_82">
			<rect width="20.000000" height="20.000000" x="0.000000" y="0.000000" rx="6.000000" fill="rgb(255,255,255)" />
		</clipPath>
	</defs>
	<rect id="20 / Yaga / Project-Pages / Scrum_black" width="20.000000" height="20.000000" x="0.000000" y="0.000000" rx="6.000000" fill="rgb(241,243,249)" />
	<path id="Vector" d="M10.3677 5.50501C10.5396 5.36926 10.7749 5.34784 10.9824 5.44782C11.1753 5.54785 11.3037 5.7478 11.3037 5.96924L11.3037 8.39783C11.3037 8.81928 11.6465 9.16211 12.0679 9.16211C12.4893 9.16211 12.832 8.81928 12.832 8.39783L12.832 8.12641C12.832 7.89783 12.9609 7.69782 13.1606 7.60498C13.3608 7.51215 13.6035 7.53357 13.7749 7.67639C14.5107 8.26215 15.0181 8.89783 15.332 9.60498C15.6538 10.305 15.7607 11.0407 15.7607 11.805C15.7607 14.2836 13.6465 16.2693 11.2534 16.2693C8.86084 16.2693 6.89648 14.2549 6.89648 11.805C6.89648 9.91925 7.78955 8.3407 8.63916 7.25495C9.06787 6.7121 9.48926 6.27643 9.81787 5.98352C9.9751 5.83356 10.1177 5.71924 10.2109 5.64069C10.2534 5.59784 10.2964 5.56928 10.3252 5.54785L10.375 5.51929L10.3677 5.50501Z" fill="rgb(58,71,96)" fill-rule="evenodd" />
	<path id="Vector" d="M6.63232 15.005C6.41797 14.6907 6.23926 14.3549 6.09619 13.9978C5.96777 13.6764 5.86768 13.3549 5.79639 13.0264C5.71045 12.6263 5.66797 12.2192 5.66797 11.7978C5.66797 11.7121 5.66797 11.6263 5.66797 11.5407C5.70361 10.5978 5.91797 9.66211 6.31787 8.73352C6.64648 7.9621 7.09619 7.2121 7.66797 6.48352C7.85352 6.2478 8.03906 6.02637 8.23926 5.80493C8.4751 5.54779 8.7251 5.29779 8.98193 5.06207C9.01074 5.03351 9.06787 4.98352 9.11084 4.94782L9.11084 4.3692C9.11084 4.12634 8.96777 3.90497 8.75342 3.79779C8.53223 3.69067 8.2749 3.7121 8.08203 3.86206L8.03223 3.89783C8.00342 3.91925 7.96045 3.95496 7.91065 3.9978C7.81055 4.09064 7.65332 4.2121 7.48193 4.37634C7.125 4.70496 6.65332 5.18353 6.18213 5.78351C5.2251 6.98352 4.23926 8.72638 4.23926 10.8049C4.23926 12.655 5.23926 14.2835 6.73193 15.1263C6.70361 15.0835 6.66064 15.0478 6.63232 15.005Z" fill="rgb(58,71,96)" fill-rule="evenodd" />
	<path id="Vector" d="M6.63232 15.005C6.41797 14.6907 6.23926 14.3549 6.09619 13.9978C5.96777 13.6764 5.86768 13.3549 5.79639 13.0264C5.71045 12.6263 5.66797 12.2192 5.66797 11.7978C5.66797 11.7121 5.66797 11.6263 5.66797 11.5407C5.70361 10.5978 5.91797 9.66211 6.31787 8.73352C6.64648 7.9621 7.09619 7.2121 7.66797 6.48352C7.85352 6.2478 8.03906 6.02637 8.23926 5.80493C8.4751 5.54779 8.7251 5.29779 8.98193 5.06207C9.01074 5.03351 9.06787 4.98352 9.11084 4.94782L9.11084 4.3692C9.11084 4.12634 8.96777 3.90497 8.75342 3.79779C8.53223 3.69067 8.2749 3.7121 8.08203 3.86206L8.03223 3.89783C8.00342 3.91925 7.96045 3.95496 7.91065 3.9978C7.81055 4.09064 7.65332 4.2121 7.48193 4.37634C7.125 4.70496 6.65332 5.18353 6.18213 5.78351C5.2251 6.98352 4.23926 8.72638 4.23926 10.8049C4.23926 12.655 5.23926 14.2835 6.73193 15.1263C6.70361 15.0835 6.66064 15.0478 6.63232 15.005Z" fill="rgb(208,212,220)" fill-rule="evenodd" />
</svg>
