<svg viewBox="0 0 16 16" xmlns="http://www.w3.org/2000/svg" xmlns:xlink="http://www.w3.org/1999/xlink" width="16.000000" height="16.000000" fill="none">
	<rect id="16 / Action / Equaliser Сlear Fill" width="16.000000" height="16.000000" x="0.000000" y="0.000000" />
	<path id="Vector 12617" d="M10.6094 7.59998L10.6094 8.62C10.6094 9.07996 10.9893 9.45996 11.4502 9.45996C11.9102 9.45996 12.29 9.07996 12.29 8.62L12.29 7.59998C13.2393 7.25 13.9297 6.34998 13.9297 5.28004C13.9297 4.20996 13.2393 3.29994 12.29 2.95996L12.29 1.93994C12.29 1.47998 11.9102 1.09998 11.4502 1.09998C10.9893 1.09998 10.6094 1.47998 10.6094 1.93994L10.6094 2.95996C9.66016 3.30994 8.96974 4.20996 8.96974 5.28004C8.96974 6.34998 9.66016 7.26002 10.6094 7.59998ZM5.38966 8.34998L5.38966 2.04994C5.38966 1.58998 5.00976 1.20996 4.5498 1.20996C4.08888 1.20996 3.70898 1.58998 3.70898 2.04994L3.70898 8.34998C2.75976 8.69995 2.06934 9.59998 2.06934 10.6699C2.06934 11.74 2.75976 12.6499 3.70898 12.99L3.70898 13.86C3.70898 14.32 4.08888 14.7 4.5498 14.7C5.00976 14.7 5.38966 14.32 5.38966 13.86L5.38966 12.99C6.33888 12.64 7.0293 11.74 7.0293 10.6699C7.0293 9.59998 6.33888 8.68994 5.38966 8.34998ZM12.4893 10.1901C12.8193 9.85999 13.3496 9.85999 13.6787 10.1901L13.6592 10.1901C13.9893 10.52 13.9893 11.0501 13.6592 11.38L12.6191 12.42L13.6592 13.46C13.9893 13.79 13.9893 14.32 13.6592 14.65C13.499 14.82 13.2793 14.9 13.0693 14.9C12.8594 14.9 12.6397 14.8101 12.4795 14.65L11.4395 13.61L10.3994 14.65C10.2393 14.82 10.0195 14.9 9.80958 14.9C9.59962 14.9 9.37892 14.8101 9.21876 14.65C8.88966 14.32 8.88966 13.79 9.21876 13.46L10.2588 12.42L9.21876 11.38C8.88966 11.0501 8.88966 10.52 9.21876 10.1901C9.54884 9.85999 10.0791 9.85999 10.4092 10.1901L11.4492 11.23L12.4893 10.1901Z" fill="rgb(14,17,23)" fill-rule="evenodd" />
</svg>
