<svg viewBox="0 0 16 16" xmlns="http://www.w3.org/2000/svg" xmlns:xlink="http://www.w3.org/1999/xlink" width="16.000000" height="16.000000" fill="none">
	<rect id="16 / Action / Check Edit Fill" width="16.000000" height="16.000000" x="0.000000" y="0.000000" />
	<path id="Vector-4" d="M14.3726 5.13856C15.9026 2.83856 13.1626 0.0885572 10.8626 1.62856C10.8126 1.66856 10.7626 1.70856 10.7126 1.74856L9.27262 3.18856L4.66262 7.79856C4.44262 8.01856 4.32262 8.31856 4.32262 8.62856L4.32262 10.5086C4.32262 11.1586 4.85262 11.6786 5.49262 11.6786L7.37262 11.6786C7.68262 11.6786 7.98262 11.5586 8.20262 11.3386L14.2526 5.28856C14.2526 5.28856 14.3426 5.18856 14.3726 5.13856ZM3.02262 4.14856C2.93262 4.14856 2.86262 4.21856 2.86262 4.30856L2.86262 12.9786C2.86262 13.0686 2.93262 13.1386 3.02262 13.1386L11.6926 13.1386C11.7826 13.1386 11.8526 13.0686 11.8526 12.9786L11.8526 10.1686C11.8526 9.70856 12.2326 9.32856 12.6926 9.32856C13.1526 9.32856 13.5326 9.70856 13.5326 10.1686L13.5326 12.9786C13.5326 13.9986 12.7126 14.8186 11.6926 14.8186L3.02262 14.8186C2.00262 14.8186 1.18262 13.9986 1.18262 12.9786L1.18262 4.30856C1.18262 3.28856 2.00262 2.46856 3.02262 2.46856L5.83262 2.46856C6.29262 2.46856 6.67262 2.84856 6.67262 3.30856C6.67262 3.76856 6.29262 4.14856 5.83262 4.14856L3.02262 4.14856Z" fill="rgb(14,17,23)" fill-rule="evenodd" />
</svg>
