<svg viewBox="0 0 16 16" xmlns="http://www.w3.org/2000/svg" xmlns:xlink="http://www.w3.org/1999/xlink" width="16.000000" height="16.000000" fill="none">
	<rect id="16 / Action / Products" width="16.000000" height="16.000000" x="0.000000" y="0.000000" fill="rgb(255,255,255)" fill-opacity="0" />
	<path id="Vector 13534" d="M1.37513 2.67499C1.37513 1.94495 1.96515 1.34497 2.70513 1.34497L6.03509 1.34497C6.76513 1.34497 7.36511 1.93499 7.36511 2.67499L7.36511 6.00495C7.36511 6.73499 6.77515 7.33497 6.03509 7.33497L2.70513 7.33497C1.97509 7.33497 1.37513 6.74499 1.37513 6.00495L1.37513 2.67499ZM10.0351 1.34497C9.30511 1.34497 8.70515 1.93499 8.70515 2.67499L8.70515 6.00495C8.70515 6.73499 9.29511 7.33497 10.0351 7.33497L13.3651 7.33497C14.0951 7.33497 14.6951 6.74499 14.6951 6.00495L14.6951 2.67499C14.6951 1.94495 14.1051 1.34497 13.3651 1.34497L10.0351 1.34497ZM3.05511 5.66497L3.05511 3.02497L5.69513 3.02497L5.69513 5.66497L3.05511 5.66497ZM10.3851 3.02497L10.3851 5.66497L13.0251 5.66497L13.0251 3.02497L10.3851 3.02497ZM1.30481 9.98499C1.30481 9.25495 1.89483 8.65497 2.63483 8.65497L5.96479 8.65497C6.69483 8.65497 7.29481 9.24499 7.29481 9.98499L7.29481 13.3149C7.29481 14.045 6.70483 14.6449 5.96479 14.6449L2.63483 14.6449C1.90479 14.6449 1.30481 14.055 1.30481 13.3149L1.30481 9.98499ZM9.96479 8.66497C9.23481 8.66497 8.63483 9.25495 8.63483 9.99499L8.63483 13.325C8.63483 14.055 9.22479 14.655 9.96479 14.655L13.2948 14.655C14.0248 14.655 14.6248 14.0649 14.6248 13.325L14.6248 9.99499C14.6248 9.26495 14.0348 8.66497 13.2948 8.66497L9.96479 8.66497ZM2.98481 12.975L2.98481 10.335L5.62481 10.335L5.62481 12.975L2.98481 12.975ZM10.3148 10.335L10.3148 12.975L12.9548 12.975L12.9548 10.335L10.3148 10.335Z" fill="rgb(14,17,23)" fill-rule="evenodd" />
</svg>
