<svg viewBox="0 0 16 16" xmlns="http://www.w3.org/2000/svg" xmlns:xlink="http://www.w3.org/1999/xlink" width="16.000000" height="16.000000" fill="none">
	<rect id="16 / Avatar icon / Donkey Fill" width="16.000000" height="16.000000" x="0.000000" y="0.000000" />
	<path id="Vector" d="M14.8802 8.10027C13.9302 6.55027 12.5502 6.16027 11.6502 6.08027C11.4502 6.03027 11.2202 6.00027 10.9502 6.01027L6.93019 6.01027C6.74019 6.01027 6.56019 5.93027 6.42019 5.80027L5.25019 4.63027C5.25019 4.63027 5.19019 4.58027 5.16019 4.56027C5.05019 4.35027 5.02019 4.11027 5.12019 3.89027C5.32019 3.46027 6.2802 1.99027 5.51019 1.64027C4.77019 1.30027 4.40019 2.48027 4.03019 2.95027C3.87019 3.14027 3.74019 3.32027 3.52019 2.96027C3.30019 2.60027 2.87019 1.31027 2.14019 1.67027C1.15019 2.16027 2.73019 3.71027 2.62019 4.24027L1.37019 5.91027C0.990196 6.41027 0.860191 7.13027 1.21019 7.64027C1.35019 7.85027 1.70019 8.17027 2.06019 8.17027C2.06019 8.17027 2.68019 8.29027 3.12019 7.96027C3.30019 7.83027 3.47018 7.68027 3.61018 7.55027C3.80019 7.37027 4.10018 7.43027 4.21018 7.67027C4.56018 8.42027 4.47018 9.88027 4.49018 10.9403C4.50018 11.5403 4.49018 13.1103 4.49018 13.1103C4.49018 13.7003 5.06018 14.4203 5.75018 14.4203C6.44019 14.4203 7.02018 13.7103 7.02018 13.1103L7.02018 11.5803C7.02018 11.1803 7.34018 10.8603 7.74018 10.8603L9.90018 10.8603C10.3002 10.8603 10.6202 11.1803 10.6202 11.5803L10.6202 13.1603C10.6202 13.7503 11.1402 14.4103 11.8902 14.4103C12.6402 14.4103 13.1102 13.7503 13.1102 13.1603L13.1102 10.8103C13.1102 10.8103 13.1102 8.71027 13.1102 8.33027C13.2702 8.49027 13.4302 8.67027 13.5802 8.90027C13.7202 9.13027 13.9702 9.26027 14.2302 9.26027C14.3702 9.26027 14.5002 9.22027 14.6302 9.15027C14.9902 8.93027 15.1002 8.46027 14.8802 8.10027L14.8802 8.10027ZM3.91019 5.43027C3.83018 5.51027 3.72018 5.56027 3.60019 5.56027C3.51019 5.56027 3.43019 5.53027 3.36019 5.49027C3.29019 5.44027 3.23019 5.37027 3.20019 5.29027C3.17018 5.21027 3.16019 5.12027 3.18019 5.04027C3.20019 4.96027 3.24019 4.88027 3.30019 4.82027C3.36019 4.76027 3.44019 4.72027 3.52019 4.70027C3.6002 4.68027 3.69019 4.70027 3.77019 4.72027C3.8502 4.74027 3.9202 4.81027 3.97019 4.88027C4.02019 4.95027 4.04019 5.04027 4.04019 5.12027C4.04019 5.24027 3.99019 5.35027 3.91019 5.43027L3.91019 5.43027Z" fill="rgb(14,17,23)" fill-rule="nonzero" />
</svg>
