<svg viewBox="0 0 16 16" xmlns="http://www.w3.org/2000/svg" xmlns:xlink="http://www.w3.org/1999/xlink" width="16.000000" height="16.000000" fill="none">
	<rect id="16 / Avatar icon / Dog" width="16.000000" height="16.000000" x="0.000000" y="0.000000" />
	<path id="Vector" d="M13.8302 1.49804L14.7501 1.5481L14.7002 1.5581C15.4301 1.6081 16.0002 2.20808 16.0002 2.93806L16.0002 3.20808C16.0002 4.51808 15.0501 5.6081 13.7701 5.80806L13.5602 11.4881C13.5602 12.0681 13.3202 12.6581 12.9001 13.0581C12.5301 13.4081 12.0501 13.6081 11.5301 13.6081L11.4602 13.6081C10.3202 13.5781 9.48021 12.6981 9.44017 11.4881C9.44017 11.2481 9.40013 10.7781 9.37011 10.3681L6.88013 10.3681C6.68017 10.8481 6.42017 11.4681 6.26013 11.8781C5.94019 12.6781 5.17017 13.6081 4.03015 13.6081C3.43017 13.6081 2.91015 13.3581 2.57019 12.9181C2.14013 12.3481 2.03015 11.4981 2.27015 10.5781L3.33021 6.39808C3.39013 6.18806 3.47021 5.9881 3.57019 5.80812C2.78015 4.7381 2.87011 3.21808 3.85021 2.25806C4.18017 1.9281 4.71021 1.9281 5.04015 2.25806C5.37011 2.58808 5.37011 3.1181 5.04015 3.44806C4.71021 3.77808 4.66015 4.26808 4.86023 4.6681C5.06017 4.58808 5.27013 4.52808 5.49023 4.49812L8.92015 4.06806L8.98021 1.26806C8.98021 0.76806 9.28015 0.30804 9.74011 0.1081C10.2002 -0.09192 10.7401 -0.0119 11.1101 0.32806L11.2202 0.44806L11.4001 0.68806L12.4301 0.68806C13.0201 0.68806 13.5501 0.99804 13.8302 1.49804ZM13.3501 4.15808L13.5201 4.13806L13.5501 4.11804C14.0201 4.06806 14.3901 3.6681 14.3901 3.18806L13.5702 3.13806C13.0301 3.1081 12.5702 2.77808 12.3801 2.2981L10.9901 2.32806L10.6902 2.32806L10.6902 3.96808C10.6902 4.84808 10.0301 5.5981 9.16015 5.70808L5.73009 6.13806C5.38013 6.18806 5.10009 6.43806 5.01013 6.77808L3.95019 10.9681C3.82019 11.4481 3.88013 11.7681 3.95019 11.8581C3.95019 11.8681 3.97009 11.8881 4.07019 11.8881C4.32019 11.8881 4.61011 11.5381 4.74011 11.2181C4.92017 10.7581 5.24011 9.99806 5.43017 9.5481C5.66015 8.9881 6.16015 8.6581 6.72009 8.6581L9.69017 8.6581C10.4201 8.6581 11.0101 9.20808 11.0702 9.92806C11.1101 10.4081 11.1601 11.0881 11.1701 11.3981C11.1902 11.8981 11.4801 11.9081 11.5702 11.9081C11.6802 11.9081 11.7301 11.8881 11.7901 11.8281C11.8801 11.7481 11.9302 11.5981 11.9302 11.4381L12.1501 5.44806C12.1701 4.7881 12.6902 4.2281 13.3501 4.15808ZM11.7502 2.6681C11.8502 2.64808 11.9502 2.65808 12.0401 2.69806L12.0403 2.69806C12.1302 2.7381 12.2102 2.8081 12.2702 2.88806C12.3302 2.96808 12.3602 3.06806 12.3602 3.1681C12.3602 3.3081 12.3102 3.4281 12.2102 3.52808C12.1102 3.62806 11.9802 3.6781 11.8502 3.6781C11.7502 3.6781 11.6603 3.64808 11.5702 3.58808C11.4802 3.52808 11.4201 3.44806 11.3802 3.3581C11.3502 3.26808 11.3302 3.1681 11.3502 3.06806C11.3702 2.96808 11.4203 2.87806 11.4902 2.8081C11.5602 2.7381 11.6502 2.68806 11.7502 2.6681Z" fill="rgb(14,17,23)" fill-rule="evenodd" />
</svg>
