<svg viewBox="0 0 16 16" xmlns="http://www.w3.org/2000/svg" xmlns:xlink="http://www.w3.org/1999/xlink" width="16.000000" height="16.000000" fill="none">
	<rect id="16 / Avatar icon / Puzzle-piece" width="16.000000" height="16.000000" x="0.000000" y="0.000000" />
	<path id="Vector" d="M6.86035 3.5C6.86035 3.13549 6.5647 2.83984 6.2002 2.83984C5.8356 2.84002 5.54004 3.13584 5.54004 3.5C5.54004 3.64428 5.58581 3.77563 5.66406 3.88379C5.93393 4.2568 6.25881 4.9957 5.84961 5.70996C5.59075 6.16176 5.10957 6.44043 4.58887 6.44043L3.86426 6.44043C3.2987 6.44043 2.83984 6.89929 2.83984 7.46484L2.83984 12.3486C2.83997 12.7967 3.20332 13.16 3.65137 13.1602L4.13379 13.1602C4.22033 13.1602 4.29578 13.1014 4.31738 13.0176C4.32443 12.9902 4.32578 12.9614 4.32031 12.9336L4.30469 12.8545C4.28668 12.7636 4.24139 12.6783 4.10938 12.416C3.97027 12.1397 3.88373 11.8315 3.86426 11.5068L3.86035 11.3662C3.86063 10.0743 4.90825 9.02664 6.2002 9.02637L6.43945 9.03809C7.61944 9.15794 8.53978 10.1551 8.54004 11.3662L8.52734 11.6133C8.50146 11.8565 8.43745 12.0886 8.34277 12.3037C8.22244 12.5771 8.17769 12.6525 8.15137 12.7646L8.11523 12.9189C8.10735 12.9528 8.10893 12.9883 8.11914 13.0215C8.14458 13.1038 8.22048 13.1602 8.30664 13.1602L8.75586 13.1602C9.20017 13.1601 9.5605 12.7998 9.56055 12.3555L9.56055 11.4756C9.56059 10.9674 9.82221 10.4952 10.2529 10.2256L10.3887 10.1494C11.069 9.81398 11.7739 10.1094 12.1367 10.3506C12.2404 10.4195 12.3641 10.46 12.5 10.46C12.8645 10.46 13.1602 10.1643 13.1602 9.7998C13.16 9.43521 12.8642 9.13965 12.5 9.13965C12.3648 9.13965 12.2415 9.18015 12.1377 9.24902C11.7503 9.50613 10.9742 9.82434 10.2539 9.37402C9.82244 9.10423 9.56055 8.63094 9.56055 8.12207L9.56055 7.44727C9.56044 6.89134 9.10964 6.44054 8.55371 6.44043L7.83398 6.44043C7.3024 6.44043 6.81287 6.15217 6.55469 5.6875C6.16003 4.97712 6.4777 4.24925 6.74023 3.87793C6.81575 3.77116 6.86035 3.64202 6.86035 3.5ZM8.5332 3.68652C8.502 4.08 8.3712 4.44599 8.16895 4.76074L8.55371 4.76074C10.0375 4.76085 11.2401 5.9635 11.2402 7.44727L11.2402 7.8291C11.6041 7.59589 12.037 7.45996 12.5 7.45996C13.7924 7.45996 14.8396 8.50793 14.8398 9.7998L14.8281 10.0391C14.7083 11.219 13.7116 12.1396 12.5 12.1396C12.037 12.1396 11.6044 12.0029 11.2402 11.7695L11.2402 12.3555C11.2402 13.7276 10.128 14.8398 8.75586 14.8398L8.30664 14.8398C7.4829 14.8398 6.75499 14.3029 6.5127 13.5156C6.41489 13.1977 6.40356 12.859 6.47949 12.5352L6.51562 12.3809C6.58891 12.0686 6.75034 11.7526 6.80566 11.627C6.82317 11.5871 6.83642 11.5453 6.8457 11.502L6.86035 11.3662C6.86018 11.0016 6.56436 10.7061 6.2002 10.7061C5.83595 10.7062 5.54021 11.002 5.54004 11.3662L5.54492 11.4443C5.55406 11.5214 5.5761 11.594 5.60938 11.6602C5.68988 11.8201 5.8784 12.1561 5.95215 12.5293L5.96777 12.6074C6.02196 12.8816 6.01483 13.1649 5.94531 13.4355C5.73299 14.2622 4.98725 14.8398 4.13379 14.8398L3.65137 14.8398C2.27548 14.8397 1.16028 13.7245 1.16016 12.3486L1.16016 7.46484C1.16016 5.97145 2.37086 4.76074 3.86426 4.76074L4.23145 4.76074C4.02979 4.44687 3.89981 4.08187 3.86816 3.68945L3.86035 3.5C3.86035 2.20758 4.90832 1.16043 6.2002 1.16016L6.43945 1.17188C7.61942 1.2917 8.54004 2.28842 8.54004 3.5L8.5332 3.68652Z" fill="rgb(0,0,0)" fill-rule="nonzero" />
</svg>
