<svg viewBox="0 0 16 16" xmlns="http://www.w3.org/2000/svg" xmlns:xlink="http://www.w3.org/1999/xlink" width="16.000000" height="16.000000" fill="none">
	<rect id="16 / Avatar icon / Donkey" width="16.000000" height="16.000000" x="0.000000" y="0.000000" />
	<path id="Vector 8156" d="M10.0166 5.60311C10.573 5.59399 13.6233 5.544 14.8655 7.91386L14.8755 7.92388C15.0855 8.33385 14.9255 8.83385 14.5255 9.04387C14.4055 9.10386 14.2755 9.13383 14.1455 9.13383C13.8955 9.13383 13.6555 9.01385 13.4955 8.80383L13.4955 12.9738C13.4955 13.9638 12.6955 14.7638 11.7055 14.7638C10.7156 14.7638 9.91551 13.9638 9.91551 12.9738L9.91551 12.0038L8.35547 12.0038L8.35547 12.9738C8.35547 13.9638 7.55553 14.7638 6.56555 14.7638C5.57555 14.7638 4.77551 13.9638 4.77551 12.9738L4.77561 12.9543C4.77667 12.77 4.78491 11.3408 4.77551 10.8438C4.76551 10.3838 4.56555 9.65384 4.23547 8.84386C3.65551 9.26384 2.97547 9.21384 2.72547 9.18382C2.12549 9.15384 1.61549 8.73386 1.36549 8.36382C0.865487 7.65386 0.935547 6.64385 1.52551 5.85386C1.52551 5.85386 2.57557 4.59386 2.77551 4.16387C2.88215 3.93875 2.64877 3.53427 2.39505 3.09454C2.00633 2.42089 1.56993 1.66455 2.23547 1.34387C2.90599 1.01681 3.35583 1.91979 3.63425 2.47868C3.69635 2.60336 3.74993 2.71091 3.79553 2.78386C4.04323 3.17024 4.19279 2.98732 4.37055 2.76989L4.37549 2.76384C4.47989 2.6346 4.58429 2.45592 4.69513 2.26622C5.03027 1.69269 5.42433 1.01827 6.05553 1.30383C6.70297 1.60153 6.23723 2.5084 5.89887 3.16722C5.78257 3.39368 5.68133 3.59084 5.64551 3.72387C5.57885 3.97166 6.06603 4.45552 6.21587 4.60431C6.22325 4.61166 6.22983 4.61819 6.23547 4.62383C6.23547 4.62383 6.93555 5.38384 7.25549 5.51384C7.88549 5.77386 9.95555 5.60387 9.95555 5.60387C9.97021 5.60387 9.99069 5.60352 10.0166 5.60311ZM11.5555 11.8038L11.5555 12.9638L11.5655 12.9538C11.5655 13.1039 11.8354 13.1039 11.8354 12.9538L11.8354 8.44382C11.8354 8.34386 11.8155 7.99389 11.5355 7.71384C11.2355 7.41387 10.6955 7.25382 9.96545 7.25382L7.15551 7.25382C6.76549 7.25382 6.39551 7.10386 6.11547 6.82384L5.07543 5.78386C4.87549 5.59386 4.80555 5.50384 4.62549 5.28386C4.55555 5.19384 4.19555 5.08385 3.93555 5.37383C3.59545 5.75384 2.84545 6.83384 2.84545 6.83384C2.70545 7.03386 2.64551 7.29386 2.72547 7.41387C2.75549 7.45385 2.82545 7.52384 2.86547 7.53386C3.04553 7.55388 3.20545 7.53386 3.25549 7.49389C3.39551 7.39385 3.51551 7.28386 3.62549 7.18383C3.88549 6.93383 4.27551 6.82384 4.63549 6.89385C4.99549 6.96386 5.30553 7.20385 5.46545 7.54386C5.88549 8.45385 6.39551 9.75383 6.41553 10.7939C6.42553 11.3438 6.41553 12.9638 6.41553 12.9638C6.41553 13.1039 6.68555 13.1139 6.68555 12.9638L6.68555 11.8038C6.68555 10.9938 7.34545 10.3338 8.15551 10.3338L10.0854 10.3338C10.8955 10.3338 11.5555 10.9938 11.5555 11.8038ZM4.20545 5.66387C4.28553 5.64385 4.37549 5.65386 4.45545 5.68383C4.53539 5.71386 4.60547 5.77386 4.65551 5.84386C4.69543 5.91387 4.72547 5.99382 4.72547 6.08384C4.72547 6.20385 4.67541 6.31382 4.59545 6.39385C4.51551 6.47387 4.40551 6.52384 4.28553 6.52384C4.20545 6.52384 4.11547 6.50384 4.04541 6.45385C3.97547 6.40386 3.91541 6.33384 3.88549 6.25384C3.86547 6.17382 3.84545 6.08384 3.86547 6.00384C3.88549 5.92382 3.92541 5.84386 3.98547 5.78386C4.04541 5.72387 4.11547 5.68383 4.20545 5.66387Z" fill="rgb(14,17,23)" fill-rule="evenodd" />
</svg>
