<svg viewBox="0 0 16 16" xmlns="http://www.w3.org/2000/svg" xmlns:xlink="http://www.w3.org/1999/xlink" width="16.000000" height="16.000000" fill="none">
	<rect id="16 / Avatar icon / Dog Fill" width="16.000000" height="16.000000" x="0.000000" y="0.000000" />
	<path id="Vector" d="M14.4183 2.95931L12.6983 2.85931C12.6983 2.36931 12.2983 1.96931 11.8083 1.96931L10.3783 1.96931L9.66834 1.3093C9.35834 1.0193 8.84833 1.24931 8.84833 1.6693L8.84833 4.95931C8.84833 5.38931 8.52832 5.74931 8.09833 5.8093L3.49832 6.38931C3.49832 6.38931 3.49832 6.36931 3.47832 6.35931C2.96832 5.83931 2.97832 4.99931 3.49832 4.4893C3.82832 4.1593 3.82832 3.6293 3.49832 3.2993C3.16832 2.9693 2.63832 2.9693 2.30832 3.2993C1.73831 3.8593 1.41832 4.6093 1.40833 5.4093C1.39833 6.20931 1.70833 6.9693 2.26833 7.5393C2.30832 7.5793 2.35832 7.5993 2.39833 7.6293L1.14833 12.5593C0.818329 13.7893 1.18832 14.8193 2.22833 14.8193C3.02834 14.8193 3.63834 14.0893 3.88834 13.4493C4.08833 12.9393 4.42833 12.1293 4.64833 11.6093C4.77834 11.3093 5.06833 11.1193 5.38834 11.1193L8.48835 11.1193C8.90834 11.1193 9.25835 11.4393 9.28835 11.8593C9.32834 12.3693 9.37834 13.0093 9.38835 13.3193C9.41835 14.1693 9.92835 14.7993 10.7784 14.8193C11.5884 14.8493 12.1783 14.1593 12.1783 13.3193L12.4283 6.5793C12.4383 6.2493 12.6984 5.9693 13.0284 5.9393L13.1484 5.9393C14.1883 5.8093 14.9684 4.9393 14.9684 3.8893L14.9684 3.5793C14.9684 3.2493 14.7084 2.9793 14.3884 2.9593L14.4183 2.95931ZM11.5983 3.60931C11.5183 3.68931 11.4083 3.7393 11.2883 3.7393C11.1984 3.7393 11.1184 3.70931 11.0483 3.6693C10.9783 3.6193 10.9183 3.5593 10.8883 3.4793C10.8583 3.3993 10.8483 3.3093 10.8683 3.2293C10.8883 3.1493 10.9283 3.0693 10.9883 3.0093C11.0483 2.9493 11.1283 2.9093 11.2083 2.8893C11.2883 2.8693 11.3783 2.8893 11.4583 2.90929C11.5383 2.93929 11.6083 2.99929 11.6483 3.0693C11.6983 3.1393 11.7183 3.2193 11.7183 3.3093C11.7183 3.4193 11.6683 3.5293 11.5883 3.61929L11.5983 3.60931Z" fill="rgb(14,17,23)" fill-rule="nonzero" />
</svg>
