<svg viewBox="0 0 16 16" xmlns="http://www.w3.org/2000/svg" xmlns:xlink="http://www.w3.org/1999/xlink" width="16.000000" height="16.000000" fill="none">
	<rect id="16 / Document / Content Tree" width="16.000000" height="16.000000" x="0.000000" y="0.000000" />
	<path id="Вектор 11" d="M6.84008 5.71002C7.30004 5.71002 7.67994 5.33002 7.67994 4.87C7.67994 4.41002 7.30004 4.03002 6.84008 4.03002L3.92994 4.03002L3.92994 1.97002C3.92994 1.51 3.55004 1.13 3.09008 1.13C2.62988 1.13 2.25 1.51 2.25 1.97002L2.25 10.34C2.25 11.94 3.55004 13.24 5.1499 13.24L6.83008 13.24C7.29004 13.24 7.66992 12.86 7.66992 12.4C7.66992 11.94 7.29004 11.56 6.83008 11.56L5.1499 11.56C4.47998 11.56 3.92994 11.01 3.92994 10.34L3.92994 5.71002L6.84008 5.71002ZM13.5 3.44L11.8201 1.77002C11.6599 1.61004 11.45 1.52002 11.23 1.52002L9.55004 1.52002C9.08984 1.52002 8.70996 1.90002 8.70996 2.36004L8.70996 6.73998C8.70996 7.2 9.08984 7.58002 9.55004 7.58002L12.9099 7.58002C13.3699 7.58002 13.75 7.2 13.75 6.73998L13.75 4.04004C13.75 3.82 13.6599 3.60004 13.5 3.45L13.5 3.44ZM12.0701 5.89002L10.3899 5.89002L10.3899 3.19L10.8799 3.19L12.0701 4.37L12.0701 5.89002ZM11.23 8.82C11.45 8.82 11.6599 8.90002 11.8201 9.06001L11.8201 9.07L13.5 10.74C13.6599 10.9 13.75 11.12 13.75 11.34L13.75 14.04C13.75 14.5 13.3699 14.88 12.9099 14.88L9.55004 14.88C9.08984 14.88 8.70996 14.5 8.70996 14.04L8.70996 9.66002C8.70996 9.2 9.08984 8.82 9.55004 8.82L11.23 8.82ZM10.3899 13.19L12.0701 13.19L12.0701 11.67L10.8799 10.49L10.3899 10.49L10.3899 13.19Z" fill="rgb(14,17,23)" fill-rule="evenodd" />
</svg>
