<svg viewBox="0 0 16 16" xmlns="http://www.w3.org/2000/svg" xmlns:xlink="http://www.w3.org/1999/xlink" width="16.000000" height="16.000000" fill="none">
	<rect id="16 / Editor / Delete Row Above" width="16.000000" height="16.000000" x="0.000000" y="0.000000" />
	<path id="Vector 13031" d="M13.1602 8.17005C13.1602 7.71001 13.54 7.33001 14 7.33001C14.46 7.33001 14.8398 7.71001 14.8398 8.17005L14.8398 13.0001C14.8398 14.02 14.0205 14.84 13 14.84L3 14.84C1.98048 14.84 1.16016 14.02 1.16016 13.0001L1.16016 3.00005C1.16016 1.98003 1.98048 1.16003 3 1.16003L7.99024 1.16003C8.4502 1.16003 8.83008 1.54003 8.83008 2.00005C8.83008 2.46001 8.4502 2.84003 7.99024 2.84003L3 2.84003C2.91016 2.84003 2.83984 2.91003 2.83984 3.00005L2.83984 9.16003L13.1602 9.16003L13.1602 8.17005ZM11.1904 6.00005C10.8604 6.33001 10.3301 6.33001 10 6.00005C9.6709 5.67005 9.6709 5.14001 10 4.81005L10.8203 3.99005L10 3.17003C9.6709 2.84003 9.6709 2.31005 10 1.98003C10.3301 1.65003 10.8604 1.65003 11.1904 1.98003L12.0107 2.80005L12.8301 1.98003C13.1602 1.65003 13.6904 1.65003 14.0205 1.98003C14.3506 2.31005 14.3506 2.84003 14.0205 3.17003L13.2002 3.99005L14.0205 4.81005C14.3506 5.14001 14.3506 5.67005 14.0205 6.00005C13.6904 6.33001 13.1602 6.33001 12.8301 6.00005L12.0107 5.18005L11.1904 6.00005ZM13 13.15C13.0898 13.15 13.1602 13.08 13.1602 12.9901L13.1602 10.83L2.83984 10.83L2.83984 12.9901C2.83984 13.08 2.91016 13.15 3 13.15L13 13.15Z" fill="rgb(14,17,23)" fill-rule="evenodd" />
</svg>
