<svg viewBox="0 0 16 16" xmlns="http://www.w3.org/2000/svg" xmlns:xlink="http://www.w3.org/1999/xlink" width="16.000000" height="16.000000" fill="none">
	<rect id="16 / Editor / Tabs" width="16.000000" height="16.000000" x="0.000000" y="0.000000" />
	<path id="Vector 13112" d="M12.6753 5.44L13.0952 5.44C14.1148 5.44 14.9448 6.24 14.9448 7.22998L14.9448 12.6C14.9448 13.06 14.5649 13.44 14.105 13.44C13.645 13.44 13.2651 13.06 13.2651 12.6L13.2651 7.22998C13.2651 7.19 13.1948 7.12 13.0952 7.12L6.31494 7.12L6.31494 4.24L3.09522 4.24C2.89502 4.24 2.73486 4.40002 2.73486 4.59998L2.73486 12.59C2.73486 13.05 2.35498 13.43 1.89502 13.43C1.43506 13.43 1.05518 13.05 1.05518 12.59L1.05518 4.59998C1.05518 3.47998 1.96534 2.56 3.09522 2.56L10.9155 2.56C11.8853 2.56 12.6753 3.34998 12.6753 4.32L12.6753 5.44ZM8.00537 5.44L11.0054 5.44L11.0054 4.32C11.0054 4.27998 10.9253 4.24 10.9253 4.24L8.00537 4.24L8.00537 5.44ZM10.8648 8.40998L5.15478 8.40998C4.69482 8.40998 4.31494 8.78998 4.31494 9.25C4.31494 9.70996 4.69482 10.09 5.15478 10.09L10.8648 10.09C11.3247 10.09 11.7046 9.70996 11.7046 9.25C11.7046 8.78998 11.3247 8.40998 10.8648 8.40998ZM10.8648 11.1L5.15478 11.1C4.69482 11.1 4.31494 11.48 4.31494 11.94C4.31494 12.4 4.69482 12.78 5.15478 12.78L10.8648 12.78C11.3247 12.78 11.7046 12.4 11.7046 11.94C11.7046 11.48 11.3247 11.1 10.8648 11.1Z" fill="rgb(14,17,23)" fill-rule="evenodd" />
</svg>
