<svg viewBox="0 0 16 16" xmlns="http://www.w3.org/2000/svg" xmlns:xlink="http://www.w3.org/1999/xlink" width="16.000000" height="16.000000" fill="none">
	<rect id="16 / Logo / Teremok Mono" width="16.000000" height="16.000000" x="0.000000" y="0.000000" />
	<path id="Vector 12529" d="M1.33496 7.79163C1.33496 4.74792 1.33496 3.22607 2.28076 2.28052C3.22607 1.33496 4.74805 1.33496 7.7915 1.33496L8.20801 1.33496C11.252 1.33496 12.7739 1.33496 13.7192 2.28052C14.665 3.22607 14.665 4.74792 14.665 7.79163L14.665 8.20825C14.665 11.252 14.665 12.7738 13.7192 13.7195C12.7739 14.6649 11.252 14.6649 8.20801 14.6649L7.7915 14.6649C4.74805 14.6649 3.22607 14.6649 2.28076 13.7195C1.33496 12.7738 1.33496 11.252 1.33496 8.20825L1.33496 7.79163Z" fill="rgb(22,25,27)" fill-rule="evenodd" />
	<path id="Vector 12529" d="M8.85938 4.13806L7.45117 4.13806C7.30078 4.13806 7.22021 4.3147 7.31836 4.42834L10.6729 8.29822C10.7715 8.41187 10.6904 8.5885 10.5405 8.5885L9.79297 8.5885C9.71436 8.5885 9.64551 8.64087 9.62402 8.71655L9.10938 10.5516C9.08789 10.6273 9.01904 10.6796 8.94043 10.6796L7.07373 10.6796C6.99512 10.6796 6.92578 10.6273 6.90479 10.5516L6.38818 8.71155C6.36719 8.63586 6.29785 8.5835 6.21924 8.5835L5.47559 8.5835C5.32422 8.5835 5.24414 8.40527 5.34424 8.29199L7.44971 5.90894C7.50684 5.84387 7.5083 5.7467 7.45264 5.68018L6.68652 4.76636C6.61719 4.68347 6.49023 4.68262 6.41943 4.76453L3.27295 8.41895C3.1748 8.53259 3.25586 8.70874 3.40576 8.70874L4.61426 8.70874C4.69287 8.70874 4.76172 8.76111 4.7832 8.83679L5.59424 11.7269C5.61572 11.8026 5.68457 11.855 5.76318 11.855L6.74072 11.855L9.24805 11.8608L10.2495 11.86C10.3276 11.86 10.397 11.8077 10.418 11.7321L11.2314 8.83459C11.2524 8.75891 11.3218 8.70667 11.4004 8.70667L12.5947 8.70667C12.7451 8.70667 12.8257 8.52991 12.7271 8.41638L9.12451 4.25916C9.05811 4.18225 8.96094 4.13806 8.85938 4.13806Z" fill="rgb(22,25,27)" fill-rule="evenodd" />
	<path id="Vector 12529" d="M8.85938 4.13806L7.45117 4.13806C7.30078 4.13806 7.22021 4.3147 7.31836 4.42834L10.6729 8.29822C10.7715 8.41187 10.6904 8.5885 10.5405 8.5885L9.79297 8.5885C9.71436 8.5885 9.64551 8.64087 9.62402 8.71655L9.10938 10.5516C9.08789 10.6273 9.01904 10.6796 8.94043 10.6796L7.07373 10.6796C6.99512 10.6796 6.92578 10.6273 6.90479 10.5516L6.38818 8.71155C6.36719 8.63586 6.29785 8.5835 6.21924 8.5835L5.47559 8.5835C5.32422 8.5835 5.24414 8.40527 5.34424 8.29199L7.44971 5.90894C7.50684 5.84387 7.5083 5.7467 7.45264 5.68018L6.68652 4.76636C6.61719 4.68347 6.49023 4.68262 6.41943 4.76453L3.27295 8.41895C3.1748 8.53259 3.25586 8.70874 3.40576 8.70874L4.61426 8.70874C4.69287 8.70874 4.76172 8.76111 4.7832 8.83679L5.59424 11.7269C5.61572 11.8026 5.68457 11.855 5.76318 11.855L6.74072 11.855L9.24805 11.8608L10.2495 11.86C10.3276 11.86 10.397 11.8077 10.418 11.7321L11.2314 8.83459C11.2524 8.75891 11.3218 8.70667 11.4004 8.70667L12.5947 8.70667C12.7451 8.70667 12.8257 8.52991 12.7271 8.41638L9.12451 4.25916C9.05811 4.18225 8.96094 4.13806 8.85938 4.13806Z" fill="rgb(255,255,255)" fill-rule="evenodd" />
</svg>
