<svg viewBox="0 0 16 16" xmlns="http://www.w3.org/2000/svg" xmlns:xlink="http://www.w3.org/1999/xlink" width="16.000000" height="16.000000" fill="none">
	<rect id="16 / Logo / Yaga Mono" width="16.000000" height="16.000000" x="0.000000" y="0.000000" />
	<path id="Vector" d="M1.33301 7.79164C1.33301 4.7469 1.33301 3.22497 2.27862 2.27935C3.22424 1.33374 4.74617 1.33374 7.7909 1.33374L8.20757 1.33374C11.2523 1.33374 12.7742 1.33374 13.7199 2.27935C14.6663 3.22497 14.6663 4.7469 14.6663 7.79164L14.6663 8.2083C14.6663 11.253 14.6663 12.775 13.7199 13.7206C12.7742 14.6671 11.2523 14.6671 8.20757 14.6671L7.7909 14.6671C4.74617 14.6671 3.22424 14.6671 2.27862 13.7206C1.33301 12.775 1.33301 11.253 1.33301 8.2083L1.33301 7.79164Z" fill="rgb(22,25,27)" fill-rule="evenodd" />
	<path id="Vector" d="M7.62503 4.79533L10.3785 4.79533C10.8636 4.79533 11.2575 5.18919 11.2575 5.67515C11.2575 6.16024 10.8636 6.5541 10.3785 6.5541L8.00398 6.5541C7.6031 6.5541 7.21889 6.71375 6.93556 6.99708L6.45047 7.48217C6.26889 7.65761 5.96099 7.7427 5.71626 7.69357C5.31275 7.61287 5.08292 7.3348 5.08292 6.88919C5.08292 6.88568 5.10398 6.66638 5.10398 6.66638C5.16713 5.84884 6.15924 4.85586 7.49082 4.79796C7.53556 4.79621 7.58029 4.79533 7.62503 4.79533ZM10.3733 7.19972L8.61538 7.19972C7.91187 7.19972 7.41363 7.44533 6.98117 7.88042L5.05485 9.81901C5.03819 9.83568 5.02064 9.85235 5.00485 9.86989L4.96538 9.90936L4.96713 9.91112C4.77503 10.1348 4.69257 10.4015 4.76713 10.6471C4.8952 11.0638 5.43205 11.2769 6.00924 11.1602C6.30749 11.1129 6.58556 10.9725 6.80134 10.7559L8.03468 9.52164C8.44696 9.11024 8.78643 8.96901 9.36977 8.96901L10.3733 8.96901C10.861 8.96901 11.2566 8.57252 11.2566 8.0848C11.2566 7.59621 10.861 7.19972 10.3733 7.19972ZM9.59082 9.61112L10.461 9.61112C10.9013 9.61112 11.2575 9.96814 11.2575 10.4076C11.2575 10.848 10.9013 11.205 10.461 11.205L9.59082 11.205C9.15047 11.205 8.79345 10.848 8.79345 10.4076C8.79345 9.96814 9.15047 9.61112 9.59082 9.61112Z" fill="rgb(22,25,27)" fill-rule="evenodd" />
	<path id="Vector" d="M7.62503 4.79533L10.3785 4.79533C10.8636 4.79533 11.2575 5.18919 11.2575 5.67515C11.2575 6.16024 10.8636 6.5541 10.3785 6.5541L8.00398 6.5541C7.6031 6.5541 7.21889 6.71375 6.93556 6.99708L6.45047 7.48217C6.26889 7.65761 5.96099 7.7427 5.71626 7.69357C5.31275 7.61287 5.08292 7.3348 5.08292 6.88919C5.08292 6.88568 5.10398 6.66638 5.10398 6.66638C5.16713 5.84884 6.15924 4.85586 7.49082 4.79796C7.53556 4.79621 7.58029 4.79533 7.62503 4.79533ZM10.3733 7.19972L8.61538 7.19972C7.91187 7.19972 7.41363 7.44533 6.98117 7.88042L5.05485 9.81901C5.03819 9.83568 5.02064 9.85235 5.00485 9.86989L4.96538 9.90936L4.96713 9.91112C4.77503 10.1348 4.69257 10.4015 4.76713 10.6471C4.8952 11.0638 5.43205 11.2769 6.00924 11.1602C6.30749 11.1129 6.58556 10.9725 6.80134 10.7559L8.03468 9.52164C8.44696 9.11024 8.78643 8.96901 9.36977 8.96901L10.3733 8.96901C10.861 8.96901 11.2566 8.57252 11.2566 8.0848C11.2566 7.59621 10.861 7.19972 10.3733 7.19972ZM9.59082 9.61112L10.461 9.61112C10.9013 9.61112 11.2575 9.96814 11.2575 10.4076C11.2575 10.848 10.9013 11.205 10.461 11.205L9.59082 11.205C9.15047 11.205 8.79345 10.848 8.79345 10.4076C8.79345 9.96814 9.15047 9.61112 9.59082 9.61112Z" fill="rgb(255,255,255)" fill-rule="evenodd" />
</svg>
