<svg viewBox="0 0 16 16" xmlns="http://www.w3.org/2000/svg" xmlns:xlink="http://www.w3.org/1999/xlink" width="16.000000" height="16.000000" fill="none">
	<rect id="16 / Logo / Yarmarka Mono" width="16.000000" height="16.000000" x="0.000000" y="0.000000" />
	<path id="Vector 12549" d="M14.665 7.79163C14.665 4.74792 14.665 3.2262 13.7192 2.28052C12.7739 1.33496 11.252 1.33496 8.2085 1.33496L7.7915 1.33496C4.74805 1.33496 3.22607 1.33496 2.28076 2.28052C1.33496 3.2262 1.33496 4.74792 1.33496 7.79163L1.33496 8.20825C1.33496 11.2521 1.33496 12.7737 2.28076 13.7194C3.22607 14.6649 4.74805 14.6649 7.7915 14.6649L8.2085 14.6649C11.252 14.6649 12.7739 14.6649 13.7192 13.7194C14.665 12.7737 14.665 11.2517 14.665 8.20825L14.665 7.79163Z" fill="rgb(22,25,27)" fill-rule="evenodd" />
	<path id="Vector 12549" d="M6.99707 4.34314L6.99707 5.58032L8 6.58276L9.00195 5.58032L9.00195 4.34314C9.00195 4.13965 8.8374 3.97461 8.6333 3.97461L7.36572 3.97461C7.1626 3.97461 6.99707 4.13965 6.99707 4.34314Z" fill="rgb(22,25,27)" fill-rule="evenodd" />
	<path id="Vector 12549" d="M6.99707 4.34314L6.99707 5.58032L8 6.58276L9.00195 5.58032L9.00195 4.34314C9.00195 4.13965 8.8374 3.97461 8.6333 3.97461L7.36572 3.97461C7.1626 3.97461 6.99707 4.13965 6.99707 4.34314Z" fill="rgb(255,255,255)" fill-rule="evenodd" />
	<path id="Vector 12549" d="M6.99707 5.58032L6.12256 4.70557C5.97852 4.56165 5.74561 4.56165 5.60156 4.70557L4.70508 5.60168C4.56104 5.74573 4.56104 5.97925 4.70508 6.12317L5.57959 6.99744L6.99707 6.99744L6.99707 5.58032Z" fill="rgb(22,25,27)" fill-rule="evenodd" />
	<path id="Vector 12549" d="M6.99707 5.58032L6.12256 4.70557C5.97852 4.56165 5.74561 4.56165 5.60156 4.70557L4.70508 5.60168C4.56104 5.74573 4.56104 5.97925 4.70508 6.12317L5.57959 6.99744L6.99707 6.99744L6.99707 5.58032Z" fill="rgb(255,255,255)" fill-rule="evenodd" />
	<path id="Vector 12549" d="M9.87646 4.70557L9.00195 5.58032L9.00195 6.99744L10.4199 6.99744L11.2944 6.12317C11.438 5.97925 11.438 5.74573 11.2944 5.60168L10.3979 4.70557C10.2544 4.56165 10.0205 4.56165 9.87646 4.70557Z" fill="rgb(22,25,27)" fill-rule="evenodd" />
	<path id="Vector 12549" d="M9.87646 4.70557L9.00195 5.58032L9.00195 6.99744L10.4199 6.99744L11.2944 6.12317C11.438 5.97925 11.438 5.74573 11.2944 5.60168L10.3979 4.70557C10.2544 4.56165 10.0205 4.56165 9.87646 4.70557Z" fill="rgb(255,255,255)" fill-rule="evenodd" />
	<path id="Vector 12549" d="M11.2944 9.87708L10.4194 9.00244L9.00195 9.00244L9.00195 10.4199L9.87646 11.2946C10.0205 11.4382 10.2544 11.4382 10.3975 11.2946L11.2944 10.3982C11.438 10.2542 11.438 10.0206 11.2944 9.87708Z" fill="rgb(22,25,27)" fill-rule="evenodd" />
	<path id="Vector 12549" d="M11.2944 9.87708L10.4194 9.00244L9.00195 9.00244L9.00195 10.4199L9.87646 11.2946C10.0205 11.4382 10.2544 11.4382 10.3975 11.2946L11.2944 10.3982C11.438 10.2542 11.438 10.0206 11.2944 9.87708Z" fill="rgb(255,255,255)" fill-rule="evenodd" />
	<path id="Vector 12549" d="M6.99707 10.4204L6.99707 11.6567C6.99707 11.8601 7.1626 12.0253 7.36572 12.0253L8.6333 12.0253C8.8374 12.0253 9.00195 11.8601 9.00195 11.6567L9.00195 10.4199L8 9.41797L6.99707 10.4204Z" fill="rgb(22,25,27)" fill-rule="evenodd" />
	<path id="Vector 12549" d="M6.99707 10.4204L6.99707 11.6567C6.99707 11.8601 7.1626 12.0253 7.36572 12.0253L8.6333 12.0253C8.8374 12.0253 9.00195 11.8601 9.00195 11.6567L9.00195 10.4199L8 9.41797L6.99707 10.4204Z" fill="rgb(255,255,255)" fill-rule="evenodd" />
	<path id="Vector 12549" d="M5.58008 9.00244L6.99707 9.00244L6.99707 10.4204L6.12305 11.2946C5.979 11.4382 5.74561 11.4382 5.60156 11.2946L4.70557 10.3982C4.56152 10.2542 4.56152 10.0206 4.70557 9.87708L5.58008 9.00244Z" fill="rgb(22,25,27)" fill-rule="evenodd" />
	<path id="Vector 12549" d="M5.58008 9.00244L6.99707 9.00244L6.99707 10.4204L6.12305 11.2946C5.979 11.4382 5.74561 11.4382 5.60156 11.2946L4.70557 10.3982C4.56152 10.2542 4.56152 10.0206 4.70557 9.87708L5.58008 9.00244Z" fill="rgb(255,255,255)" fill-rule="evenodd" />
	<path id="Vector 12549" d="M5.58008 9.00244L4.34277 9.00244C4.13965 9.00244 3.97461 8.83728 3.97461 8.63391L3.97461 7.36597C3.97461 7.16248 4.13965 6.99744 4.34277 6.99744L5.57959 6.99744L6.58252 8.00037L5.58008 9.00244Z" fill="rgb(22,25,27)" fill-rule="evenodd" />
	<path id="Vector 12549" d="M5.58008 9.00244L4.34277 9.00244C4.13965 9.00244 3.97461 8.83728 3.97461 8.63391L3.97461 7.36597C3.97461 7.16248 4.13965 6.99744 4.34277 6.99744L5.57959 6.99744L6.58252 8.00037L5.58008 9.00244Z" fill="rgb(255,255,255)" fill-rule="evenodd" />
	<path id="Vector 12549" d="M11.6567 9.00244L10.4194 9.00244L9.41748 8.00037L10.4199 6.99744L11.6567 6.99744C11.8599 6.99744 12.0254 7.16248 12.0254 7.36597L12.0254 8.63391C12.0254 8.83728 11.8599 9.00244 11.6567 9.00244Z" fill="rgb(22,25,27)" fill-rule="evenodd" />
	<path id="Vector 12549" d="M11.6567 9.00244L10.4194 9.00244L9.41748 8.00037L10.4199 6.99744L11.6567 6.99744C11.8599 6.99744 12.0254 7.16248 12.0254 7.36597L12.0254 8.63391C12.0254 8.83728 11.8599 9.00244 11.6567 9.00244Z" fill="rgb(255,255,255)" fill-rule="evenodd" />
</svg>
