<svg viewBox="0 0 16 16" xmlns="http://www.w3.org/2000/svg" xmlns:xlink="http://www.w3.org/1999/xlink" width="16.000000" height="16.000000" fill="none">
	<rect id="16 / Logo / Sirin Mono" width="16.000000" height="16.000000" x="0.000000" y="0.000000" />
	<path id="Vector 12545" d="M1.33496 7.79175C1.33496 4.74805 1.33496 3.22632 2.28076 2.28076C3.22607 1.33521 4.74805 1.33521 7.7915 1.33521L8.2085 1.33521C11.252 1.33521 12.7739 1.33521 13.7192 2.28076C14.665 3.22632 14.665 4.74805 14.665 7.79175L14.665 8.20837C14.665 11.2521 14.665 12.7737 13.7192 13.7192C12.7739 14.6648 11.252 14.6648 8.2085 14.6648L7.7915 14.6648C4.74805 14.6648 3.22607 14.6648 2.28076 13.7192C1.33496 12.7737 1.33496 11.2517 1.33496 8.20837L1.33496 7.79175Z" fill="rgb(22,25,27)" fill-rule="evenodd" />
	<path id="Vector 12545" d="M8.00049 6.51392L8.00049 4.08093C8.00049 3.95984 8.09863 3.86108 8.21973 3.86743C8.51172 3.88281 8.79541 3.92859 9.06787 4.00134C9.18506 4.03259 9.24805 4.15674 9.21045 4.27185L8.93701 5.11389C8.8999 5.22888 8.96338 5.35156 9.07471 5.39795C9.18066 5.44177 9.2832 5.49182 9.38232 5.54773C9.43457 5.57739 9.49609 5.58667 9.5542 5.57117L9.73535 5.52246C9.78418 5.5094 9.82666 5.4801 9.85645 5.43945L10.2998 4.82874C10.3706 4.73083 10.5083 4.7085 10.6021 4.78467C10.8257 4.96545 11.0298 5.16943 11.2104 5.39294C11.2866 5.48694 11.2642 5.62439 11.1665 5.69543L10.4497 6.21558C10.3521 6.28662 10.2158 6.26428 10.1372 6.17236C10.0664 6.08923 9.99023 6.01025 9.91016 5.93591C9.85742 5.88672 9.78223 5.87024 9.7124 5.88892L9.56299 5.92908C9.51416 5.94202 9.47168 5.97131 9.44238 6.01196L8.87158 6.79724C8.81543 6.87415 8.7168 6.90625 8.62646 6.87683L8.15186 6.72241C8.06152 6.69299 8.00049 6.60889 8.00049 6.51392ZM6.59131 7.54065L4.27734 6.78882C4.16211 6.75146 4.09863 6.62744 4.14209 6.5144C4.24707 6.2417 4.37793 5.98572 4.53174 5.74902C4.59766 5.64746 4.73486 5.6261 4.83301 5.69714L5.54932 6.21729C5.64697 6.28833 5.7832 6.26599 5.86182 6.17407C5.93652 6.08691 6.01562 6.00476 6.09961 5.9281C6.14404 5.88757 6.17188 5.83179 6.1748 5.77173L6.18457 5.58435C6.1875 5.53418 6.17285 5.48462 6.14307 5.44397L5.69873 4.83301C5.62744 4.73511 5.64893 4.59753 5.75049 4.53162C5.99121 4.375 6.24854 4.24402 6.51709 4.14111C6.62988 4.09778 6.75342 4.16138 6.79102 4.27649L7.06396 5.11865C7.10156 5.23364 7.03809 5.35632 6.92676 5.40259C6.82568 5.44446 6.72754 5.49194 6.63184 5.54504C6.56885 5.5802 6.53027 5.64636 6.52637 5.71863L6.51807 5.87439C6.51562 5.92456 6.53027 5.97412 6.55957 6.01477L7.12988 6.79993C7.18604 6.87671 7.18604 6.98096 7.12988 7.05774L6.83643 7.46118C6.78076 7.53796 6.68164 7.57007 6.59131 7.54065ZM11.7251 6.78821L9.41113 7.54016C9.3208 7.56946 9.25977 7.65356 9.25977 7.74854L9.25928 8.24731C9.25928 8.34241 9.32031 8.42664 9.41113 8.45593L10.3335 8.75586C10.3813 8.77136 10.4224 8.80286 10.4497 8.84497L10.5347 8.97571C10.5742 9.03638 10.5815 9.11267 10.5513 9.17834C10.5054 9.27734 10.4536 9.37378 10.3965 9.4668C10.3335 9.56995 10.3545 9.70642 10.4521 9.77759L11.168 10.2982C11.2661 10.3694 11.4033 10.3481 11.4697 10.2466C11.626 10.0055 11.7568 9.74854 11.8599 9.4801C11.9033 9.36719 11.8398 9.24341 11.7246 9.20605L11.0063 8.97302C10.9585 8.95752 10.9175 8.92603 10.8901 8.88379L10.7881 8.72656C10.7554 8.67615 10.7451 8.61462 10.7568 8.55579C10.7798 8.44446 10.7954 8.3313 10.8047 8.21692C10.814 8.09631 10.9111 7.99829 11.0322 7.99817L11.9175 7.99792C12.0386 7.99792 12.1372 7.89966 12.1309 7.77881C12.1157 7.49707 12.0713 7.21289 11.9961 6.93066C11.9644 6.81372 11.8403 6.75085 11.7251 6.78821ZM8.00049 7.37378C7.65674 7.37378 7.37793 7.65247 7.37793 7.99622C7.37793 8.33997 7.65674 8.61865 8.00049 8.61865C8.34424 8.61865 8.62305 8.33997 8.62305 7.99622C8.62305 7.65247 8.34424 7.37378 8.00049 7.37378ZM5.70068 11.1628L7.13037 9.19458C7.18652 9.1178 7.18652 9.01379 7.13037 8.93689L6.8374 8.5332C6.78174 8.4563 6.68262 8.42407 6.59229 8.45349L5.66895 8.7533C5.62158 8.7688 5.56982 8.76746 5.52295 8.74951L5.37793 8.69397C5.31055 8.66809 5.25977 8.61072 5.24561 8.53979C5.22461 8.4325 5.20996 8.32397 5.20117 8.21497C5.19189 8.09436 5.09473 7.99634 4.97363 7.99634L4.08838 7.99585C3.96729 7.99585 3.86865 8.09387 3.875 8.21472C3.88965 8.50183 3.93506 8.78674 4.00928 9.06433C4.04053 9.18127 4.16504 9.24414 4.28027 9.20667L4.99756 8.97314C5.04541 8.95752 5.09717 8.95886 5.14404 8.97693L5.31982 9.04431C5.37549 9.0658 5.41992 9.1095 5.44482 9.16418C5.49219 9.26746 5.54541 9.36829 5.60547 9.46594C5.66846 9.56909 5.64746 9.70569 5.5498 9.77673L4.83398 10.2972C4.73584 10.3684 4.71387 10.5059 4.79004 10.5999C4.96777 10.819 5.1709 11.0229 5.39746 11.2068C5.4917 11.2831 5.62939 11.2609 5.70068 11.1628ZM8.87158 9.20154L10.3018 11.1699C10.3726 11.2678 10.3511 11.4055 10.25 11.4714C10.0049 11.6305 9.74805 11.7604 9.48486 11.8617C9.37158 11.9052 9.24805 11.8417 9.21045 11.7266L8.93652 10.8848C8.89941 10.7698 8.77588 10.7078 8.6582 10.736C8.54688 10.7626 8.43457 10.7825 8.32178 10.7953C8.26172 10.8021 8.20654 10.8308 8.16895 10.8774L8.05078 11.0231C8.01904 11.0621 8.00195 11.1108 8.00195 11.1611L8.00244 11.9163C8.00244 12.0374 7.9043 12.1361 7.7832 12.1298C7.49658 12.1147 7.21143 12.0696 6.93359 11.9951C6.81689 11.9639 6.75439 11.8396 6.7915 11.7245L7.06543 10.8826C7.10303 10.7677 7.22607 10.7056 7.34375 10.7338C7.4502 10.7593 7.55762 10.7786 7.66602 10.7916C7.73779 10.8003 7.80811 10.7695 7.85352 10.7134L7.95166 10.5928C7.98291 10.5537 8.00049 10.505 8.00049 10.4548L8.00049 9.48425C8.00049 9.38928 8.06152 9.30505 8.15186 9.27576L8.62646 9.12195C8.7168 9.09253 8.81592 9.12476 8.87158 9.20154Z" fill="rgb(22,25,27)" fill-rule="evenodd" />
	<path id="Vector 12545" d="M8.00049 6.51392L8.00049 4.08093C8.00049 3.95984 8.09863 3.86108 8.21973 3.86743C8.51172 3.88281 8.79541 3.92859 9.06787 4.00134C9.18506 4.03259 9.24805 4.15674 9.21045 4.27185L8.93701 5.11389C8.8999 5.22888 8.96338 5.35156 9.07471 5.39795C9.18066 5.44177 9.2832 5.49182 9.38232 5.54773C9.43457 5.57739 9.49609 5.58667 9.5542 5.57117L9.73535 5.52246C9.78418 5.5094 9.82666 5.4801 9.85645 5.43945L10.2998 4.82874C10.3706 4.73083 10.5083 4.7085 10.6021 4.78467C10.8257 4.96545 11.0298 5.16943 11.2104 5.39294C11.2866 5.48694 11.2642 5.62439 11.1665 5.69543L10.4497 6.21558C10.3521 6.28662 10.2158 6.26428 10.1372 6.17236C10.0664 6.08923 9.99023 6.01025 9.91016 5.93591C9.85742 5.88672 9.78223 5.87024 9.7124 5.88892L9.56299 5.92908C9.51416 5.94202 9.47168 5.97131 9.44238 6.01196L8.87158 6.79724C8.81543 6.87415 8.7168 6.90625 8.62646 6.87683L8.15186 6.72241C8.06152 6.69299 8.00049 6.60889 8.00049 6.51392ZM6.59131 7.54065L4.27734 6.78882C4.16211 6.75146 4.09863 6.62744 4.14209 6.5144C4.24707 6.2417 4.37793 5.98572 4.53174 5.74902C4.59766 5.64746 4.73486 5.6261 4.83301 5.69714L5.54932 6.21729C5.64697 6.28833 5.7832 6.26599 5.86182 6.17407C5.93652 6.08691 6.01562 6.00476 6.09961 5.9281C6.14404 5.88757 6.17188 5.83179 6.1748 5.77173L6.18457 5.58435C6.1875 5.53418 6.17285 5.48462 6.14307 5.44397L5.69873 4.83301C5.62744 4.73511 5.64893 4.59753 5.75049 4.53162C5.99121 4.375 6.24854 4.24402 6.51709 4.14111C6.62988 4.09778 6.75342 4.16138 6.79102 4.27649L7.06396 5.11865C7.10156 5.23364 7.03809 5.35632 6.92676 5.40259C6.82568 5.44446 6.72754 5.49194 6.63184 5.54504C6.56885 5.5802 6.53027 5.64636 6.52637 5.71863L6.51807 5.87439C6.51562 5.92456 6.53027 5.97412 6.55957 6.01477L7.12988 6.79993C7.18604 6.87671 7.18604 6.98096 7.12988 7.05774L6.83643 7.46118C6.78076 7.53796 6.68164 7.57007 6.59131 7.54065ZM11.7251 6.78821L9.41113 7.54016C9.3208 7.56946 9.25977 7.65356 9.25977 7.74854L9.25928 8.24731C9.25928 8.34241 9.32031 8.42664 9.41113 8.45593L10.3335 8.75586C10.3813 8.77136 10.4224 8.80286 10.4497 8.84497L10.5347 8.97571C10.5742 9.03638 10.5815 9.11267 10.5513 9.17834C10.5054 9.27734 10.4536 9.37378 10.3965 9.4668C10.3335 9.56995 10.3545 9.70642 10.4521 9.77759L11.168 10.2982C11.2661 10.3694 11.4033 10.3481 11.4697 10.2466C11.626 10.0055 11.7568 9.74854 11.8599 9.4801C11.9033 9.36719 11.8398 9.24341 11.7246 9.20605L11.0063 8.97302C10.9585 8.95752 10.9175 8.92603 10.8901 8.88379L10.7881 8.72656C10.7554 8.67615 10.7451 8.61462 10.7568 8.55579C10.7798 8.44446 10.7954 8.3313 10.8047 8.21692C10.814 8.09631 10.9111 7.99829 11.0322 7.99817L11.9175 7.99792C12.0386 7.99792 12.1372 7.89966 12.1309 7.77881C12.1157 7.49707 12.0713 7.21289 11.9961 6.93066C11.9644 6.81372 11.8403 6.75085 11.7251 6.78821ZM8.00049 7.37378C7.65674 7.37378 7.37793 7.65247 7.37793 7.99622C7.37793 8.33997 7.65674 8.61865 8.00049 8.61865C8.34424 8.61865 8.62305 8.33997 8.62305 7.99622C8.62305 7.65247 8.34424 7.37378 8.00049 7.37378ZM5.70068 11.1628L7.13037 9.19458C7.18652 9.1178 7.18652 9.01379 7.13037 8.93689L6.8374 8.5332C6.78174 8.4563 6.68262 8.42407 6.59229 8.45349L5.66895 8.7533C5.62158 8.7688 5.56982 8.76746 5.52295 8.74951L5.37793 8.69397C5.31055 8.66809 5.25977 8.61072 5.24561 8.53979C5.22461 8.4325 5.20996 8.32397 5.20117 8.21497C5.19189 8.09436 5.09473 7.99634 4.97363 7.99634L4.08838 7.99585C3.96729 7.99585 3.86865 8.09387 3.875 8.21472C3.88965 8.50183 3.93506 8.78674 4.00928 9.06433C4.04053 9.18127 4.16504 9.24414 4.28027 9.20667L4.99756 8.97314C5.04541 8.95752 5.09717 8.95886 5.14404 8.97693L5.31982 9.04431C5.37549 9.0658 5.41992 9.1095 5.44482 9.16418C5.49219 9.26746 5.54541 9.36829 5.60547 9.46594C5.66846 9.56909 5.64746 9.70569 5.5498 9.77673L4.83398 10.2972C4.73584 10.3684 4.71387 10.5059 4.79004 10.5999C4.96777 10.819 5.1709 11.0229 5.39746 11.2068C5.4917 11.2831 5.62939 11.2609 5.70068 11.1628ZM8.87158 9.20154L10.3018 11.1699C10.3726 11.2678 10.3511 11.4055 10.25 11.4714C10.0049 11.6305 9.74805 11.7604 9.48486 11.8617C9.37158 11.9052 9.24805 11.8417 9.21045 11.7266L8.93652 10.8848C8.89941 10.7698 8.77588 10.7078 8.6582 10.736C8.54688 10.7626 8.43457 10.7825 8.32178 10.7953C8.26172 10.8021 8.20654 10.8308 8.16895 10.8774L8.05078 11.0231C8.01904 11.0621 8.00195 11.1108 8.00195 11.1611L8.00244 11.9163C8.00244 12.0374 7.9043 12.1361 7.7832 12.1298C7.49658 12.1147 7.21143 12.0696 6.93359 11.9951C6.81689 11.9639 6.75439 11.8396 6.7915 11.7245L7.06543 10.8826C7.10303 10.7677 7.22607 10.7056 7.34375 10.7338C7.4502 10.7593 7.55762 10.7786 7.66602 10.7916C7.73779 10.8003 7.80811 10.7695 7.85352 10.7134L7.95166 10.5928C7.98291 10.5537 8.00049 10.505 8.00049 10.4548L8.00049 9.48425C8.00049 9.38928 8.06152 9.30505 8.15186 9.27576L8.62646 9.12195C8.7168 9.09253 8.81592 9.12476 8.87158 9.20154Z" fill="rgb(255,254.745,254.745)" fill-rule="evenodd" />
</svg>
