<svg viewBox="0 0 16 16" xmlns="http://www.w3.org/2000/svg" xmlns:xlink="http://www.w3.org/1999/xlink" width="16.000000" height="16.000000" fill="none">
	<rect id="16 / Logo / Alkion" width="16.000000" height="16.000000" x="0.000000" y="0.000000" />
	<path id="Vector 12517" d="M1.33496 7.79175C1.33496 4.74805 1.33496 3.2262 2.28076 2.28064C3.22607 1.33508 4.74805 1.33508 7.7915 1.33508L8.20801 1.33508C11.252 1.33508 12.7739 1.33508 13.7192 2.28064C14.665 3.2262 14.665 4.74805 14.665 7.79175L14.665 8.20837C14.665 11.2521 14.665 12.7739 13.7192 13.7196C12.7739 14.665 11.252 14.665 8.20801 14.665L7.7915 14.665C4.74805 14.665 3.22607 14.665 2.28076 13.7196C1.33496 12.7739 1.33496 11.2521 1.33496 8.20837L1.33496 7.79175Z" fill="rgb(0,85,255)" fill-rule="evenodd" />
	<path id="Vector 12517" d="M10.8232 8.9563C10.5396 8.4967 10.478 7.96387 10.6084 7.48132C10.6772 7.22388 10.8013 6.98157 10.9736 6.77197C11.0024 6.73743 10.9712 6.68799 10.9277 6.69739C10.6611 6.75623 10.3877 6.75623 10.126 6.70203C9.63477 6.59888 9.18457 6.30225 8.90137 5.84399L7.64697 3.81323C7.62793 3.78259 7.58398 3.78345 7.56641 3.81409C7.41357 4.08093 6.86426 5.05371 6.79199 5.32935C6.65137 5.86914 6.68994 6.52637 7.05566 7.11768C7.4209 7.70874 7.9917 8.08667 8.55029 8.16138C8.58057 8.16528 8.59766 8.19434 8.58838 8.22278C8.40332 8.75244 8.48096 9.42627 8.84863 10.0212C9.21387 10.6133 9.78076 10.9714 10.333 11.0634C10.8037 11.1422 12.1846 11.0688 12.1196 11.0564L10.8242 8.95801L10.8232 8.9563Z" fill="rgb(0,85,255)" fill-rule="evenodd" />
	<path id="Vector 12517" d="M10.8232 8.9563C10.5396 8.4967 10.478 7.96387 10.6084 7.48132C10.6772 7.22388 10.8013 6.98157 10.9736 6.77197C11.0024 6.73743 10.9712 6.68799 10.9277 6.69739C10.6611 6.75623 10.3877 6.75623 10.126 6.70203C9.63477 6.59888 9.18457 6.30225 8.90137 5.84399L7.64697 3.81323C7.62793 3.78259 7.58398 3.78345 7.56641 3.81409C7.41357 4.08093 6.86426 5.05371 6.79199 5.32935C6.65137 5.86914 6.68994 6.52637 7.05566 7.11768C7.4209 7.70874 7.9917 8.08667 8.55029 8.16138C8.58057 8.16528 8.59766 8.19434 8.58838 8.22278C8.40332 8.75244 8.48096 9.42627 8.84863 10.0212C9.21387 10.6133 9.78076 10.9714 10.333 11.0634C10.8037 11.1422 12.1846 11.0688 12.1196 11.0564L10.8242 8.95801L10.8232 8.9563Z" fill="rgb(255,255,255)" fill-rule="evenodd" />
	<path id="Vector 12517" d="M7.07129 10.8602C6.85791 10.991 6.62354 11.0619 6.38965 11.0776C6.38965 11.0776 6.38867 11.0776 6.38721 11.0776L6.1958 11.0776L3.9541 11.087C3.89746 11.087 3.86084 11.028 3.88721 10.9775L4.90039 9.00659C4.90039 9.00659 4.90186 9.00354 4.90283 9.00195L4.99805 8.81543C4.99805 8.81543 4.99902 8.81152 5.00049 8.81067C5.14453 8.57446 5.35645 8.3739 5.63086 8.24084C6.25684 7.93774 7.02881 8.11255 7.45947 8.65637C8.02686 9.37195 7.82715 10.3967 7.06982 10.8602L7.07129 10.8602Z" fill="rgb(0,85,255)" fill-rule="evenodd" />
	<path id="Vector 12517" d="M7.07129 10.8602C6.85791 10.991 6.62354 11.0619 6.38965 11.0776C6.38965 11.0776 6.38867 11.0776 6.38721 11.0776L6.1958 11.0776L3.9541 11.087C3.89746 11.087 3.86084 11.028 3.88721 10.9775L4.90039 9.00659C4.90039 9.00659 4.90186 9.00354 4.90283 9.00195L4.99805 8.81543C4.99805 8.81543 4.99902 8.81152 5.00049 8.81067C5.14453 8.57446 5.35645 8.3739 5.63086 8.24084C6.25684 7.93774 7.02881 8.11255 7.45947 8.65637C8.02686 9.37195 7.82715 10.3967 7.06982 10.8602L7.07129 10.8602Z" fill="rgb(255,255,255)" fill-rule="evenodd" />
</svg>
