<svg viewBox="0 0 16 16" xmlns="http://www.w3.org/2000/svg" xmlns:xlink="http://www.w3.org/1999/xlink" width="16.000000" height="16.000000" fill="none">
	<rect id="16 / Logo / Divo Mono" width="16.000000" height="16.000000" x="0.000000" y="0.000000" />
	<path id="Vector 12541" d="M1.33496 7.79163C1.33496 4.74792 1.33496 3.22607 2.28076 2.28052C3.22607 1.33496 4.74805 1.33496 7.7915 1.33496L8.20801 1.33496C11.252 1.33496 12.7739 1.33496 13.7192 2.28052C14.665 3.22607 14.665 4.74792 14.665 7.79163L14.665 8.20825C14.665 11.252 14.665 12.7738 13.7192 13.7195C12.7739 14.6649 11.252 14.6649 8.20801 14.6649L7.7915 14.6649C4.74805 14.6649 3.22607 14.6649 2.28076 13.7195C1.33496 12.7738 1.33496 11.252 1.33496 8.20825L1.33496 7.79163Z" fill="rgb(22,25,27)" fill-rule="evenodd" />
	<path id="Vector 12541" d="M6.89648 8.06165C5.12402 8.66077 4.65723 6.20667 6.23682 5.05103C7.81689 3.89539 9.67969 3.92236 10.9854 5.05042C12.54 6.39343 12.6328 9.14856 10.4619 11.6091L3.97559 11.6091L3.97559 9.69739C3.97559 9.69739 4.92236 10.103 6.0874 9.67639C7.25244 9.24976 7.74219 8.16003 7.74219 8.16003C7.99658 7.58862 7.92822 7.05554 7.56836 6.7157C7.24023 6.40466 6.81641 6.41357 6.44775 6.67603C5.94775 7.03137 6.18262 7.80322 6.89648 7.55225L6.89648 8.06165Z" fill="rgb(22,25,27)" fill-rule="evenodd" />
	<path id="Vector 12541" d="M6.89648 8.06165C5.12402 8.66077 4.65723 6.20667 6.23682 5.05103C7.81689 3.89539 9.67969 3.92236 10.9854 5.05042C12.54 6.39343 12.6328 9.14856 10.4619 11.6091L3.97559 11.6091L3.97559 9.69739C3.97559 9.69739 4.92236 10.103 6.0874 9.67639C7.25244 9.24976 7.74219 8.16003 7.74219 8.16003C7.99658 7.58862 7.92822 7.05554 7.56836 6.7157C7.24023 6.40466 6.81641 6.41357 6.44775 6.67603C5.94775 7.03137 6.18262 7.80322 6.89648 7.55225L6.89648 8.06165Z" fill="rgb(255,254.745,254.745)" fill-rule="evenodd" />
</svg>
