<svg viewBox="0 0 16 16" xmlns="http://www.w3.org/2000/svg" xmlns:xlink="http://www.w3.org/1999/xlink" width="16.000000" height="16.000000" fill="none">
	<rect id="16 / Logo / Strelka Mono" width="16.000000" height="16.000000" x="0.000000" y="0.000000" />
	<path id="Vector 12533" d="M2.28076 2.28052C1.33496 3.22473 1.33496 4.74744 1.33496 7.79138L1.33496 8.2085C1.33496 11.2524 1.33496 12.7737 2.28076 13.7194C3.22656 14.6649 4.74805 14.6649 7.79199 14.6649L8.20947 14.6649C11.2534 14.6649 12.7749 14.6649 13.7192 13.7194C14.665 12.7737 14.665 11.2524 14.665 8.2085L14.665 7.79138C14.665 4.74744 14.665 3.22473 13.7192 2.27917C12.7749 1.33496 11.2534 1.33496 8.20801 1.33496L7.79199 1.33496C4.74951 1.33496 3.2251 1.33496 2.28076 2.28052Z" fill="rgb(22,25,27)" fill-rule="evenodd" />
	<path id="Vector 12533" d="M11.9072 7.13208L11.9072 4.2804L9.05566 4.28027L9.05566 5.85889L10.3291 5.85889L10.3291 7.13208L11.9072 7.13208ZM6.43848 4.56995C6.9043 4.37708 7.41016 4.28064 7.95557 4.28064L7.95557 5.85913C7.62793 5.85913 7.32422 5.91711 7.04443 6.03296C6.76514 6.1488 6.50928 6.32251 6.27734 6.5542C6.0459 6.78589 5.87207 7.04163 5.75635 7.32129C5.64062 7.60095 5.58252 7.90466 5.58252 8.2323C5.58252 8.55994 5.64062 8.86365 5.75635 9.14331C5.87207 9.4231 6.0459 9.67883 6.27734 9.91052C6.50928 10.1421 6.76514 10.3159 7.04443 10.4318C7.32422 10.5476 7.62793 10.6056 7.95557 10.6056C8.2832 10.6056 8.58691 10.5476 8.8667 10.4318C9.14648 10.3159 9.40186 10.1422 9.63379 9.91052C9.86523 9.67883 10.0391 9.4231 10.1548 9.14331C10.271 8.86365 10.3286 8.56006 10.3286 8.23242L11.9072 8.23242C11.9072 8.77795 11.811 9.28369 11.6182 9.74939C11.4253 10.2151 11.1357 10.6409 10.75 11.0266C10.3643 11.4125 9.93848 11.7018 9.47266 11.8947C9.00684 12.0876 8.50146 12.1841 7.95557 12.1841C7.41016 12.1841 6.9043 12.0876 6.43848 11.8947C5.97314 11.7018 5.54736 11.4125 5.16113 11.0266C4.77539 10.6409 4.48633 10.2151 4.29346 9.74939C4.10059 9.28369 4.00391 8.77795 4.00391 8.23242C4.00391 7.14111 4.38965 6.20972 5.16113 5.43811C5.54736 5.05225 5.97314 4.76294 6.43848 4.56995Z" fill="rgb(22,25,27)" fill-rule="evenodd" />
	<path id="Vector 12533" d="M11.9072 7.13208L11.9072 4.2804L9.05566 4.28027L9.05566 5.85889L10.3291 5.85889L10.3291 7.13208L11.9072 7.13208ZM6.43848 4.56995C6.9043 4.37708 7.41016 4.28064 7.95557 4.28064L7.95557 5.85913C7.62793 5.85913 7.32422 5.91711 7.04443 6.03296C6.76514 6.1488 6.50928 6.32251 6.27734 6.5542C6.0459 6.78589 5.87207 7.04163 5.75635 7.32129C5.64062 7.60095 5.58252 7.90466 5.58252 8.2323C5.58252 8.55994 5.64062 8.86365 5.75635 9.14331C5.87207 9.4231 6.0459 9.67883 6.27734 9.91052C6.50928 10.1421 6.76514 10.3159 7.04443 10.4318C7.32422 10.5476 7.62793 10.6056 7.95557 10.6056C8.2832 10.6056 8.58691 10.5476 8.8667 10.4318C9.14648 10.3159 9.40186 10.1422 9.63379 9.91052C9.86523 9.67883 10.0391 9.4231 10.1548 9.14331C10.271 8.86365 10.3286 8.56006 10.3286 8.23242L11.9072 8.23242C11.9072 8.77795 11.811 9.28369 11.6182 9.74939C11.4253 10.2151 11.1357 10.6409 10.75 11.0266C10.3643 11.4125 9.93848 11.7018 9.47266 11.8947C9.00684 12.0876 8.50146 12.1841 7.95557 12.1841C7.41016 12.1841 6.9043 12.0876 6.43848 11.8947C5.97314 11.7018 5.54736 11.4125 5.16113 11.0266C4.77539 10.6409 4.48633 10.2151 4.29346 9.74939C4.10059 9.28369 4.00391 8.77795 4.00391 8.23242C4.00391 7.14111 4.38965 6.20972 5.16113 5.43811C5.54736 5.05225 5.97314 4.76294 6.43848 4.56995Z" fill="rgb(255,254.745,254.745)" fill-rule="evenodd" />
</svg>
