<svg viewBox="0 0 16 16" xmlns="http://www.w3.org/2000/svg" xmlns:xlink="http://www.w3.org/1999/xlink" width="16.000000" height="16.000000" fill="none">
	<rect id="16 / Logo / Akola Mono" width="16.000000" height="16.000000" x="0.000000" y="0.000000" />
	<path id="Vector 12537" d="M1.33496 7.79175C1.33496 4.74805 1.33496 3.2262 2.28076 2.28064C3.22607 1.33508 4.74805 1.33508 7.7915 1.33508L8.20801 1.33508C11.252 1.33508 12.7739 1.33508 13.7192 2.28064C14.665 3.2262 14.665 4.74805 14.665 7.79175L14.665 8.20837C14.665 11.2521 14.665 12.7739 13.7192 13.7196C12.7739 14.665 11.252 14.665 8.20801 14.665L7.7915 14.665C4.74805 14.665 3.22607 14.665 2.28076 13.7196C1.33496 12.7739 1.33496 11.2521 1.33496 8.20837L1.33496 7.79175Z" fill="rgb(22,25,27)" fill-rule="evenodd" />
	<path id="Vector 12537" d="M6.85449 5.39026L6.40137 5.39026C5.979 5.39026 5.64746 5.06287 5.64746 4.64636C5.64746 4.22986 5.979 3.90259 6.40137 3.90259L10.8442 3.90259C11.2661 3.90259 11.5981 4.22986 11.5981 4.64636C11.5981 5.06287 11.2661 5.39026 10.8442 5.39026L9.14258 5.39026L9.13574 5.3783C8.63623 4.49854 7.36084 4.49854 6.86133 5.3783L6.85449 5.39026ZM6.72266 5.62317L5.87891 7.11084L4.18604 7.11084C3.76611 7.11084 3.43604 6.78345 3.43604 6.36694C3.43604 5.95044 3.76611 5.62317 4.18604 5.62317L6.72266 5.62317ZM10.2119 7.11084L10.1177 7.11084L9.27441 5.62317L10.2119 5.62317C10.6318 5.62317 10.9614 5.95044 10.9614 6.36694C10.9614 6.78345 10.6318 7.11084 10.2119 7.11084ZM5.74707 7.34375L4.90967 8.8208C4.55615 8.76147 4.29492 8.46033 4.29492 8.08752C4.29492 7.67102 4.62158 7.34375 5.0376 7.34375L5.74707 7.34375ZM11.0933 8.83142L10.25 7.34375L11.2529 7.34375C11.6689 7.34375 11.9956 7.67102 11.9956 8.08752C11.9956 8.50403 11.6689 8.83142 11.2529 8.83142L11.0933 8.83142ZM7.23633 10.552L4.18604 10.552C3.76611 10.552 3.43604 10.2246 3.43604 9.80811C3.43604 9.3916 3.76611 9.06433 4.18604 9.06433L7.23633 9.06433C7.65625 9.06433 7.98633 9.3916 7.98633 9.80811C7.98633 10.2246 7.65625 10.552 7.23633 10.552ZM11.4341 9.43225L11.2256 9.06433L11.8145 9.06433C12.2339 9.06433 12.5635 9.3916 12.5635 9.80811C12.5635 10.2246 12.2339 10.552 11.8145 10.552L11.5073 10.552C11.5698 10.3995 11.6035 10.2349 11.6035 10.0668C11.6035 9.8551 11.5503 9.63794 11.4341 9.43225ZM7.87793 11.3619L10.1724 11.3619C10.1846 11.4154 10.1909 11.4711 10.1909 11.5287C10.1909 11.9452 9.86035 12.2726 9.43994 12.2726L8.61084 12.2726C8.18994 12.2726 7.85986 11.9452 7.85986 11.5287C7.85986 11.4711 7.86621 11.4154 7.87793 11.3619Z" fill="rgb(22,25,27)" fill-rule="evenodd" />
	<path id="Vector 12537" d="M6.85449 5.39026L6.40137 5.39026C5.979 5.39026 5.64746 5.06287 5.64746 4.64636C5.64746 4.22986 5.979 3.90259 6.40137 3.90259L10.8442 3.90259C11.2661 3.90259 11.5981 4.22986 11.5981 4.64636C11.5981 5.06287 11.2661 5.39026 10.8442 5.39026L9.14258 5.39026L9.13574 5.3783C8.63623 4.49854 7.36084 4.49854 6.86133 5.3783L6.85449 5.39026ZM6.72266 5.62317L5.87891 7.11084L4.18604 7.11084C3.76611 7.11084 3.43604 6.78345 3.43604 6.36694C3.43604 5.95044 3.76611 5.62317 4.18604 5.62317L6.72266 5.62317ZM10.2119 7.11084L10.1177 7.11084L9.27441 5.62317L10.2119 5.62317C10.6318 5.62317 10.9614 5.95044 10.9614 6.36694C10.9614 6.78345 10.6318 7.11084 10.2119 7.11084ZM5.74707 7.34375L4.90967 8.8208C4.55615 8.76147 4.29492 8.46033 4.29492 8.08752C4.29492 7.67102 4.62158 7.34375 5.0376 7.34375L5.74707 7.34375ZM11.0933 8.83142L10.25 7.34375L11.2529 7.34375C11.6689 7.34375 11.9956 7.67102 11.9956 8.08752C11.9956 8.50403 11.6689 8.83142 11.2529 8.83142L11.0933 8.83142ZM7.23633 10.552L4.18604 10.552C3.76611 10.552 3.43604 10.2246 3.43604 9.80811C3.43604 9.3916 3.76611 9.06433 4.18604 9.06433L7.23633 9.06433C7.65625 9.06433 7.98633 9.3916 7.98633 9.80811C7.98633 10.2246 7.65625 10.552 7.23633 10.552ZM11.4341 9.43225L11.2256 9.06433L11.8145 9.06433C12.2339 9.06433 12.5635 9.3916 12.5635 9.80811C12.5635 10.2246 12.2339 10.552 11.8145 10.552L11.5073 10.552C11.5698 10.3995 11.6035 10.2349 11.6035 10.0668C11.6035 9.8551 11.5503 9.63794 11.4341 9.43225ZM7.87793 11.3619L10.1724 11.3619C10.1846 11.4154 10.1909 11.4711 10.1909 11.5287C10.1909 11.9452 9.86035 12.2726 9.43994 12.2726L8.61084 12.2726C8.18994 12.2726 7.85986 11.9452 7.85986 11.5287C7.85986 11.4711 7.86621 11.4154 7.87793 11.3619Z" fill="rgb(255,255,255)" fill-rule="evenodd" />
</svg>
