<svg viewBox="0 0 16 16" xmlns="http://www.w3.org/2000/svg" xmlns:xlink="http://www.w3.org/1999/xlink" width="16.000000" height="16.000000" fill="none">
	<rect id="16 / Logo / Sokol / Mono" width="16.000000" height="16.000000" x="0.000000" y="0.000000" />
	<path id="Вектор 52" d="M1 7.78125C1 4.58447 1 2.98621 1.99316 1.99304C2.98633 1 4.58496 1 7.78125 1L8.21875 1C11.415 1 13.0137 1 14.0068 1.99304C15 2.98621 15 4.58447 15 7.78125L15 8.21875C15 11.4155 15 13.0138 14.0068 14.007C13.0137 15 11.415 15 8.21875 15L7.78125 15C4.58496 15 2.98633 15 1.99316 14.007C1 13.0138 1 11.4155 1 8.21875L1 7.78125Z" fill="rgb(14,17,23)" fill-rule="evenodd" />
	<path id="Вектор 52" d="M10.9141 7.6947C10.8574 8.21423 10.54 8.64087 10.0703 8.84033C9.44922 9.10266 8.71094 8.89563 8.31934 8.31824C8.03223 7.89417 8.00488 7.35693 8.24512 6.90442C8.48633 6.45178 8.89551 6.1936 9.37012 6.13C9.45801 6.11829 9.48633 6.00256 9.41602 5.94897C8.89746 5.60364 8.24512 5.52319 7.67188 5.7738C7.16406 5.99512 6.80371 6.41748 6.63672 6.94873C6.36426 7.82031 6.64258 8.7616 7.24707 9.4353C8.04102 10.3221 9.28613 10.6741 10.4238 10.3297C11.0664 10.1353 11.6074 9.71289 11.9414 9.12695C12.3174 8.46826 12.373 7.62769 12.1885 6.8927C11.9863 6.0863 11.5391 5.37488 10.9287 4.82507C9.50391 3.53857 7.40137 3.34741 5.7666 4.34314C4.5459 5.08655 3.75586 6.40735 3.71191 7.854C3.68652 8.70203 3.90234 9.52087 4.34277 10.2374C5.27246 11.7511 6.99219 12.5121 8.7334 12.2338C9.58594 12.0972 10.3633 11.7167 10.9902 11.1224C11.0977 11.0203 11.2002 10.9164 11.2969 10.8081C11.375 10.7202 11.2666 10.5929 11.166 10.6556C11.0205 10.7462 10.8672 10.825 10.7021 10.8904C9.45312 11.3889 8.03516 11.3203 6.84277 10.6968C5.82031 10.1611 5.05273 9.17822 5.02344 7.99634C4.99609 6.93372 5.54004 5.94397 6.42383 5.37561C7.53809 4.66077 8.99023 4.7655 9.99316 5.63049C10.5713 6.1283 10.999 6.90442 10.9131 7.6947L10.9141 7.6947Z" fill="rgb(14,17,23)" fill-rule="evenodd" />
	<path id="Вектор 52" d="M10.9141 7.6947C10.8574 8.21423 10.54 8.64087 10.0703 8.84033C9.44922 9.10266 8.71094 8.89563 8.31934 8.31824C8.03223 7.89417 8.00488 7.35693 8.24512 6.90442C8.48633 6.45178 8.89551 6.1936 9.37012 6.13C9.45801 6.11829 9.48633 6.00256 9.41602 5.94897C8.89746 5.60364 8.24512 5.52319 7.67188 5.7738C7.16406 5.99512 6.80371 6.41748 6.63672 6.94873C6.36426 7.82031 6.64258 8.7616 7.24707 9.4353C8.04102 10.3221 9.28613 10.6741 10.4238 10.3297C11.0664 10.1353 11.6074 9.71289 11.9414 9.12695C12.3174 8.46826 12.373 7.62769 12.1885 6.8927C11.9863 6.0863 11.5391 5.37488 10.9287 4.82507C9.50391 3.53857 7.40137 3.34741 5.7666 4.34314C4.5459 5.08655 3.75586 6.40735 3.71191 7.854C3.68652 8.70203 3.90234 9.52087 4.34277 10.2374C5.27246 11.7511 6.99219 12.5121 8.7334 12.2338C9.58594 12.0972 10.3633 11.7167 10.9902 11.1224C11.0977 11.0203 11.2002 10.9164 11.2969 10.8081C11.375 10.7202 11.2666 10.5929 11.166 10.6556C11.0205 10.7462 10.8672 10.825 10.7021 10.8904C9.45312 11.3889 8.03516 11.3203 6.84277 10.6968C5.82031 10.1611 5.05273 9.17822 5.02344 7.99634C4.99609 6.93372 5.54004 5.94397 6.42383 5.37561C7.53809 4.66077 8.99023 4.7655 9.99316 5.63049C10.5713 6.1283 10.999 6.90442 10.9131 7.6947L10.9141 7.6947Z" fill="rgb(255,254.745,254.745)" fill-rule="evenodd" />
</svg>
