<svg viewBox="0 0 16 16" xmlns="http://www.w3.org/2000/svg" xmlns:xlink="http://www.w3.org/1999/xlink" width="16.000000" height="16.000000" fill="none">
	<rect id="16 / Logo / Mera Mono" width="16.000000" height="16.000000" x="0.000000" y="0.000000" />
	<path id="Vector 12525" d="M1.33496 7.79163C1.33496 4.74792 1.33496 3.22607 2.28076 2.28052C3.22607 1.33496 4.74805 1.33496 7.7915 1.33496L8.20801 1.33496C11.252 1.33496 12.7739 1.33496 13.7192 2.28052C14.665 3.22607 14.665 4.74792 14.665 7.79163L14.665 8.20825C14.665 11.252 14.665 12.7738 13.7192 13.7195C12.7739 14.6649 11.252 14.6649 8.20801 14.6649L7.7915 14.6649C4.74805 14.6649 3.22607 14.6649 2.28076 13.7195C1.33496 12.7738 1.33496 11.252 1.33496 8.20825L1.33496 7.79163Z" fill="rgb(22,25,27)" fill-rule="evenodd" />
	<path id="Vector 12525" d="M6.84619 6.2113C6.84619 5.57422 7.36279 5.05774 8 5.05774C8.63721 5.05774 9.15332 5.57422 9.15332 6.2113L9.15332 9.7887C9.15332 10.4258 8.63721 10.9423 8 10.9423C7.36279 10.9423 6.84619 10.4258 6.84619 9.7887L6.84619 6.2113ZM10.9927 5.05774C10.356 5.05774 9.83936 5.57422 9.83936 6.2113L9.83936 9.7887C9.83936 10.4258 10.356 10.9423 10.9927 10.9423C11.6299 10.9423 12.1465 10.4258 12.1465 9.7887L12.1465 6.2113C12.1465 5.57422 11.6299 5.05774 10.9927 5.05774ZM3.85352 8.96875C3.85352 8.33179 4.37012 7.81531 5.00684 7.81531C5.64404 7.81531 6.16064 8.33179 6.16064 8.96875L6.16064 9.7887C6.16064 10.4258 5.64404 10.9423 5.00684 10.9423C4.37012 10.9423 3.85352 10.4258 3.85352 9.7887L3.85352 8.96875Z" fill="rgb(22,25,27)" fill-rule="evenodd" />
	<path id="Vector 12525" d="M6.84619 6.2113C6.84619 5.57422 7.36279 5.05774 8 5.05774C8.63721 5.05774 9.15332 5.57422 9.15332 6.2113L9.15332 9.7887C9.15332 10.4258 8.63721 10.9423 8 10.9423C7.36279 10.9423 6.84619 10.4258 6.84619 9.7887L6.84619 6.2113ZM10.9927 5.05774C10.356 5.05774 9.83936 5.57422 9.83936 6.2113L9.83936 9.7887C9.83936 10.4258 10.356 10.9423 10.9927 10.9423C11.6299 10.9423 12.1465 10.4258 12.1465 9.7887L12.1465 6.2113C12.1465 5.57422 11.6299 5.05774 10.9927 5.05774ZM3.85352 8.96875C3.85352 8.33179 4.37012 7.81531 5.00684 7.81531C5.64404 7.81531 6.16064 8.33179 6.16064 8.96875L6.16064 9.7887C6.16064 10.4258 5.64404 10.9423 5.00684 10.9423C4.37012 10.9423 3.85352 10.4258 3.85352 9.7887L3.85352 8.96875Z" fill="rgb(255,254.745,254.745)" fill-rule="evenodd" />
</svg>
