<svg viewBox="0 0 16 16" xmlns="http://www.w3.org/2000/svg" xmlns:xlink="http://www.w3.org/1999/xlink" width="16.000000" height="16.000000" fill="none">
	<rect id="16 / Logo / Zabava Mono" width="16.000000" height="16.000000" x="0.000000" y="0.000000" />
	<path id="Vector 12521" d="M1.33496 7.79175C1.33496 4.74805 1.33496 3.2262 2.28076 2.28064C3.22607 1.33508 4.74805 1.33508 7.7915 1.33508L8.20801 1.33508C11.252 1.33508 12.7739 1.33508 13.7192 2.28064C14.665 3.2262 14.665 4.74805 14.665 7.79175L14.665 8.20837C14.665 11.2521 14.665 12.7739 13.7192 13.7196C12.7739 14.665 11.252 14.665 8.20801 14.665L7.7915 14.665C4.74805 14.665 3.22607 14.665 2.28076 13.7196C1.33496 12.7739 1.33496 11.2521 1.33496 8.20837L1.33496 7.79175Z" fill="rgb(22,25,27)" fill-rule="evenodd" />
	<path id="Vector 12521" d="M10.791 7.51257C10.4492 5.81177 8.96631 3.42371 7.37012 3.67346C5.51807 3.96362 4.25732 5.56458 4.45654 5.86108C4.61426 6.0957 5.63672 5.79846 6.05713 5.66394C6.12842 5.64124 6.1958 5.71155 6.16895 5.78125L5.50488 7.49402C4.27148 7.67749 3.46045 7.98865 3.46045 8.34155C3.46045 8.90564 5.53223 9.36279 8.0874 9.36279C8.90186 9.36279 9.66748 9.31641 10.3325 9.23474C10.4209 9.22388 10.4673 9.33472 10.394 9.38525C10.0073 9.651 9.61865 9.79932 9.00879 9.82788C9.06689 9.95117 9.10205 10.1084 9.10205 10.2795C9.10205 10.6761 8.91406 10.9977 8.68213 10.9977C8.45068 10.9977 8.2627 10.6761 8.2627 10.2795C8.2627 10.1044 8.29932 9.94385 8.36035 9.81921C8.13525 9.80554 7.88574 9.78162 7.60547 9.74731C7.69043 9.87866 7.74365 10.0685 7.74365 10.2795C7.74365 10.6761 7.55566 10.9977 7.32373 10.9977C7.09229 10.9977 6.9043 10.6761 6.9043 10.2795C6.9043 10.0422 6.97168 9.83179 7.0752 9.70105C6.52002 9.68579 6.10791 9.79077 5.80127 9.93433C5.33154 10.1545 5.28564 10.7701 5.59619 11.1858C6.12354 11.8906 6.95117 12.3447 7.88135 12.3447C9.47363 12.3447 10.7642 11.0153 10.7642 9.37524C10.7642 9.30835 10.7617 9.24182 10.7573 9.17578C11.9414 8.99072 12.7144 8.68604 12.7144 8.34155C12.7144 8.00024 11.9561 7.69812 10.791 7.51257Z" fill="rgb(22,25,27)" fill-rule="evenodd" />
	<path id="Vector 12521" d="M10.791 7.51257C10.4492 5.81177 8.96631 3.42371 7.37012 3.67346C5.51807 3.96362 4.25732 5.56458 4.45654 5.86108C4.61426 6.0957 5.63672 5.79846 6.05713 5.66394C6.12842 5.64124 6.1958 5.71155 6.16895 5.78125L5.50488 7.49402C4.27148 7.67749 3.46045 7.98865 3.46045 8.34155C3.46045 8.90564 5.53223 9.36279 8.0874 9.36279C8.90186 9.36279 9.66748 9.31641 10.3325 9.23474C10.4209 9.22388 10.4673 9.33472 10.394 9.38525C10.0073 9.651 9.61865 9.79932 9.00879 9.82788C9.06689 9.95117 9.10205 10.1084 9.10205 10.2795C9.10205 10.6761 8.91406 10.9977 8.68213 10.9977C8.45068 10.9977 8.2627 10.6761 8.2627 10.2795C8.2627 10.1044 8.29932 9.94385 8.36035 9.81921C8.13525 9.80554 7.88574 9.78162 7.60547 9.74731C7.69043 9.87866 7.74365 10.0685 7.74365 10.2795C7.74365 10.6761 7.55566 10.9977 7.32373 10.9977C7.09229 10.9977 6.9043 10.6761 6.9043 10.2795C6.9043 10.0422 6.97168 9.83179 7.0752 9.70105C6.52002 9.68579 6.10791 9.79077 5.80127 9.93433C5.33154 10.1545 5.28564 10.7701 5.59619 11.1858C6.12354 11.8906 6.95117 12.3447 7.88135 12.3447C9.47363 12.3447 10.7642 11.0153 10.7642 9.37524C10.7642 9.30835 10.7617 9.24182 10.7573 9.17578C11.9414 8.99072 12.7144 8.68604 12.7144 8.34155C12.7144 8.00024 11.9561 7.69812 10.791 7.51257Z" fill="rgb(255,254.745,254.745)" fill-rule="evenodd" />
</svg>
