<svg viewBox="0 0 16 16" xmlns="http://www.w3.org/2000/svg" xmlns:xlink="http://www.w3.org/1999/xlink" width="16.000000" height="16.000000" fill="none">
	<rect id="16 / Logo / Yozhka Mono" width="16.000000" height="16.000000" x="0.000000" y="0.000000" />
	<path id="Vector 12553" d="M1.33496 7.79175C1.33496 4.74805 1.33496 3.2262 2.28027 2.28064C3.22607 1.33508 4.74805 1.33508 7.7915 1.33508L8.20801 1.33508C11.252 1.33508 12.7739 1.33508 13.7192 2.28064C14.665 3.2262 14.665 4.74805 14.665 7.79175L14.665 8.20837C14.665 11.2521 14.665 12.7739 13.7192 13.7195C12.7739 14.665 11.252 14.665 8.20801 14.665L7.7915 14.665C4.74805 14.665 3.22607 14.665 2.28027 13.7195C1.33496 12.7739 1.33496 11.2521 1.33496 8.20837L1.33496 7.79175Z" fill="rgb(22,25,27)" fill-rule="evenodd" />
	<path id="Vector 12553" d="M7.39209 5.99951C7.45654 5.99951 7.52002 6.00757 7.58154 6.02283C7.18408 5.43005 6.61035 5.05786 5.97266 5.05786C4.77246 5.05786 3.79932 6.37512 3.79932 8.00012C3.79932 9.625 4.77246 10.9424 5.97266 10.9424C7.06787 10.9424 7.97363 9.84521 8.12402 8.41846C7.93555 8.66931 7.67676 8.8241 7.39209 8.8241C6.81543 8.8241 6.34863 8.19177 6.34863 7.41174C6.34863 6.63184 6.81543 5.99951 7.39209 5.99951Z" fill="rgb(22,25,27)" fill-rule="evenodd" />
	<path id="Vector 12553" d="M7.39209 5.99951C7.45654 5.99951 7.52002 6.00757 7.58154 6.02283C7.18408 5.43005 6.61035 5.05786 5.97266 5.05786C4.77246 5.05786 3.79932 6.37512 3.79932 8.00012C3.79932 9.625 4.77246 10.9424 5.97266 10.9424C7.06787 10.9424 7.97363 9.84521 8.12402 8.41846C7.93555 8.66931 7.67676 8.8241 7.39209 8.8241C6.81543 8.8241 6.34863 8.19177 6.34863 7.41174C6.34863 6.63184 6.81543 5.99951 7.39209 5.99951Z" fill="rgb(255,255,255)" fill-rule="evenodd" />
	<path id="Vector 12553" d="M8.26074 9.67188C8.65283 10.4395 9.30762 10.9424 10.0493 10.9424C11.144 10.9424 12.0503 9.84521 12.2002 8.41833C12.0117 8.66919 11.7534 8.8241 11.4683 8.8241C10.8921 8.8241 10.4253 8.19177 10.4253 7.41174C10.4253 6.63184 10.8921 5.99951 11.4683 5.99951C11.5332 5.99951 11.5967 6.00757 11.6582 6.02283C11.2607 5.43005 10.687 5.05786 10.0493 5.05786C9.30762 5.05786 8.65283 5.56079 8.26074 6.32837C8.47705 6.82617 8.59766 7.39807 8.59766 8.00024C8.59766 8.60229 8.47705 9.17419 8.26074 9.67188Z" fill="rgb(22,25,27)" fill-rule="evenodd" />
	<path id="Vector 12553" d="M8.26074 9.67188C8.65283 10.4395 9.30762 10.9424 10.0493 10.9424C11.144 10.9424 12.0503 9.84521 12.2002 8.41833C12.0117 8.66919 11.7534 8.8241 11.4683 8.8241C10.8921 8.8241 10.4253 8.19177 10.4253 7.41174C10.4253 6.63184 10.8921 5.99951 11.4683 5.99951C11.5332 5.99951 11.5967 6.00757 11.6582 6.02283C11.2607 5.43005 10.687 5.05786 10.0493 5.05786C9.30762 5.05786 8.65283 5.56079 8.26074 6.32837C8.47705 6.82617 8.59766 7.39807 8.59766 8.00024C8.59766 8.60229 8.47705 9.17419 8.26074 9.67188Z" fill="rgb(255,255,255)" fill-rule="evenodd" />
</svg>
