<svg viewBox="0 0 16 16" xmlns="http://www.w3.org/2000/svg" xmlns:xlink="http://www.w3.org/1999/xlink" width="16.000000" height="16.000000" fill="none" customFrame="#000000">
	<rect id="16 / Lukit / Mera" width="16.000000" height="16.000000" x="0.000000" y="0.000000" />
	<path id="Avatar" d="M6.05264 4.98032C6.05264 3.9048 6.92451 3.03296 8 3.03296C9.07549 3.03296 9.94735 3.9048 9.94735 4.98032L9.94735 11.0198C9.94735 12.0953 9.07549 12.9671 8 12.9671C6.92451 12.9671 6.05264 12.0953 6.05264 11.0198L6.05264 4.98032ZM13.0526 3.03296C11.9771 3.03296 11.1053 3.9048 11.1053 4.98032L11.1053 11.0198C11.1053 12.0953 11.9771 12.9671 13.0526 12.9671C14.1281 12.9671 15 12.0953 15 11.0198L15 4.98032C15 3.9048 14.1281 3.03296 13.0526 3.03296ZM1 9.63561C1 8.56013 1.87186 7.68825 2.94735 7.68825C4.02285 7.68825 4.89471 8.56013 4.89471 9.63561L4.89471 11.0198C4.89471 12.0953 4.02285 12.9671 2.94735 12.9671C1.87186 12.9671 1 12.0953 1 11.0198L1 9.63561Z" fill="rgb(14,17,23)" fill-rule="evenodd" />
</svg>
