<svg viewBox="0 0 16 16" xmlns="http://www.w3.org/2000/svg" xmlns:xlink="http://www.w3.org/1999/xlink" width="16.000000" height="16.000000" fill="none">
	<rect id="16 / Lukit / Snowflake 3" width="16.000000" height="16.000000" x="0.000000" y="0.000000" />
	<path id="Vector 8471" d="M14.1475 10.1847L13.6841 9.40017C13.5705 9.20769 13.3221 9.14386 13.1297 9.25751L11.6658 10.1225L10.9229 9.6935C10.3889 9.38517 10.3889 8.61444 10.9229 8.3061L11.6658 7.87712L13.1297 8.74209C13.3221 8.85574 13.5705 8.79191 13.6841 8.59943L14.1475 7.81489C14.2612 7.62241 14.1973 7.3741 14.0048 7.26046L13.3766 6.8893L14.1423 6.44731C14.336 6.33546 14.4022 6.08795 14.2906 5.89427L13.835 5.10513C13.7231 4.91145 13.4756 4.84522 13.2819 4.95687L12.5162 5.39886L12.5088 4.66914C12.5066 4.44565 12.3235 4.26617 12.1 4.26837L11.1888 4.27758C10.9653 4.27978 10.7859 4.46286 10.7881 4.68635L10.8053 6.38648L10.0623 6.81547C9.52832 7.1238 8.86083 6.73843 8.86083 6.12177L8.86083 5.264L10.3419 4.42884C10.5366 4.31899 10.6054 4.07209 10.4955 3.87741L10.0479 3.08387C9.9381 2.88918 9.69119 2.82035 9.49651 2.9302L8.86083 3.28875L8.86083 2.40477C8.86083 2.18128 8.67956 2 8.45606 2L7.54487 2C7.32137 2 7.1401 2.18128 7.1401 2.40477L7.1401 3.28895L6.50442 2.9304C6.30974 2.82055 6.06283 2.88938 5.95299 3.08406L5.50539 3.8776C5.39555 4.07229 5.46438 4.31919 5.65906 4.42904L7.1401 5.2642L7.1401 6.12197C7.1401 6.73863 6.47261 7.124 5.93858 6.81566L5.19566 6.38668L5.21287 4.68655C5.21507 4.46306 5.03579 4.27998 4.8121 4.27778L3.90091 4.26857C3.67741 4.26637 3.49433 4.44565 3.49213 4.66934L3.48473 5.39906L2.719 4.95707C2.52532 4.84522 2.27781 4.91165 2.16596 5.10533L1.71057 5.89447C1.59872 6.08815 1.66515 6.33566 1.85883 6.44751L2.62456 6.8895L1.99629 7.26066C1.80381 7.3743 1.73998 7.62261 1.85363 7.81509L2.31703 8.59963C2.43068 8.79211 2.67899 8.85594 2.87147 8.74229L4.3353 7.87732L5.07821 8.3063C5.61224 8.61464 5.61224 9.38537 5.07821 9.6937L4.3353 10.1227L2.87147 9.25771C2.67899 9.14406 2.43068 9.20789 2.31703 9.40037L1.85363 10.1849C1.73998 10.3774 1.80381 10.6257 1.99629 10.7393L2.62456 11.1105L1.85883 11.5525C1.66515 11.6643 1.59892 11.9118 1.71057 12.1055L2.16617 12.8947C2.27801 13.0884 2.52552 13.1546 2.7192 13.0429L3.48493 12.6009L3.49233 13.3307C3.49454 13.5542 3.67761 13.7336 3.90111 13.7314L4.8123 13.7222C5.0358 13.72 5.21527 13.5369 5.21307 13.3134L5.19587 11.6133L5.93878 11.1843C6.47281 10.876 7.1403 11.2614 7.1403 11.878L7.1403 12.7358L5.65926 13.571C5.46458 13.6808 5.39575 13.9277 5.5056 14.1224L5.95319 14.9159C6.06304 15.1106 6.30994 15.1794 6.50463 15.0696L7.1403 14.711L7.1403 15.5952C7.1403 15.8187 7.32158 16 7.54507 16L8.45626 16C8.67976 16 8.86104 15.8187 8.86104 15.5952L8.86104 14.711L9.49671 15.0696C9.69139 15.1794 9.9383 15.1106 10.0481 14.9159L10.4957 14.1224C10.6056 13.9277 10.5368 13.6808 10.3421 13.571L8.86104 12.7358L8.86104 11.878C8.86104 11.2614 9.52852 10.876 10.0626 11.1843L10.8055 11.6133L10.7883 13.3134C10.7861 13.5369 10.9653 13.72 11.189 13.7222L12.1002 13.7314C12.3237 13.7336 12.5068 13.5544 12.509 13.3307L12.5164 12.6009L13.2821 13.0429C13.4758 13.1548 13.7233 13.0884 13.8352 12.8947L14.2908 12.1055C14.4026 11.9118 14.3362 11.6643 14.1425 11.5525L13.3768 11.1105L14.005 10.7393C14.1975 10.6257 14.2614 10.3774 14.1477 10.1849L14.1475 10.1847Z" fill="rgb(29,29,27)" fill-rule="nonzero" />
</svg>
