<svg viewBox="0 0 16 16" xmlns="http://www.w3.org/2000/svg" xmlns:xlink="http://www.w3.org/1999/xlink" width="16.000000" height="16.000000" fill="none">
	<rect id="16 / Lukit / Kokoshnik 1" width="16.000000" height="16.000000" x="0.000000" y="0.000000" />
	<path id="Vector 12453" d="M14.899 8.04475C14.749 7.25475 14.089 6.65475 13.269 6.59475C13.269 6.59475 13.269 6.58475 13.269 6.57475C13.469 5.95475 13.489 5.24475 12.729 4.38475C12.359 3.96475 11.869 3.65475 11.319 3.60475C10.919 3.56475 10.549 3.62475 10.209 3.76475C9.80895 2.25475 8.01895 1.25475 8.00896 1.24475C8.00896 1.24475 6.21896 2.25475 5.80896 3.76475C5.46896 3.62475 5.09896 3.56475 4.69896 3.60475C4.14896 3.65475 3.65896 3.97475 3.28896 4.38475C2.52895 5.25475 2.54896 5.95475 2.74895 6.57475C2.74895 6.57475 2.74895 6.58475 2.74895 6.59475C1.93896 6.65475 1.26895 7.25475 1.11896 8.04475C0.728958 9.51475 1.24895 12.2948 3.66896 14.0347C4.15896 14.3848 4.72896 14.6147 5.31896 14.7448C5.57896 14.8048 5.63896 14.5948 5.50896 14.4347C4.70896 13.5448 4.41897 12.2647 4.84896 11.0648C5.33896 9.70475 6.62896 8.85475 7.99896 8.85475C9.36896 8.85475 10.649 9.69475 11.149 11.0648C11.579 12.2647 11.289 13.5548 10.489 14.4347C10.349 14.5847 10.419 14.7948 10.679 14.7448C11.269 14.6147 11.839 14.3848 12.329 14.0347C14.749 12.2847 15.269 9.51475 14.879 8.04475L14.899 8.04475Z" fill="rgb(14,17,23)" fill-rule="nonzero" />
</svg>
