<svg viewBox="0 0 16 16" xmlns="http://www.w3.org/2000/svg" xmlns:xlink="http://www.w3.org/1999/xlink" width="16.000000" height="16.000000" fill="none" customFrame="#000000">
	<rect id="16 / Lukit / Sokol" width="16.000000" height="16.000000" x="0.000000" y="0.000000" />
	<path id="Вектор 40" d="M12.7543 7.50168C12.6619 8.34948 12.1445 9.04548 11.3771 9.37088C10.3639 9.79888 9.1592 9.46118 8.52086 8.51897C8.05229 7.82708 8.00747 6.95058 8.39998 6.21218C8.79249 5.47378 9.4607 5.05257 10.2349 4.94868C10.3788 4.92958 10.425 4.74088 10.3096 4.65327C9.4634 4.08998 8.39998 3.95868 7.4642 4.36748C6.63572 4.72848 6.04763 5.41768 5.77599 6.28468C5.33051 7.70678 5.7855 9.24238 6.77153 10.3419C8.06723 11.7889 10.0977 12.3629 11.9543 11.8009C13.0028 11.4839 13.8856 10.7939 14.4303 9.83858C15.0442 8.76378 15.1338 7.39228 14.8336 6.19298C14.5036 4.87758 13.7743 3.71667 12.7787 2.81958C10.4535 0.720581 7.02279 0.408875 4.35534 2.03338C2.36426 3.24628 1.07535 5.40128 1.00337 7.76147C0.961268 9.14528 1.31439 10.4809 2.03286 11.6509C3.54994 14.1199 6.35593 15.3619 9.1959 14.9079C10.5866 14.6849 11.8552 14.0639 12.8779 13.0939C13.0531 12.9279 13.2215 12.7579 13.379 12.5819C13.5067 12.4379 13.3288 12.2299 13.1658 12.3329C12.9281 12.4809 12.6769 12.6089 12.408 12.7159C10.3707 13.5289 8.05636 13.4169 6.11146 12.3999C4.44362 11.5259 3.19139 9.92197 3.14249 7.99388C3.09903 6.25998 3.98592 4.64508 5.4283 3.71798C7.24553 2.55157 9.6155 2.72248 11.2521 4.13367C12.1947 4.94598 12.8928 6.21218 12.7529 7.50168L12.7543 7.50168Z" fill="rgb(14,17,23)" fill-rule="nonzero" />
</svg>
