<svg viewBox="0 0 16 16" xmlns="http://www.w3.org/2000/svg" xmlns:xlink="http://www.w3.org/1999/xlink" width="16.000000" height="16.000000" fill="none" customFrame="#000000">
	<rect id="16 / Lukit / Zabava" width="16.000000" height="16.000000" x="0.000000" y="0.000000" />
	<path id="Avatar" d="M12.0897 7.26261C11.573 4.68958 9.3296 1.0767 6.91448 1.45465C4.11253 1.89347 2.20526 4.31553 2.50675 4.76411C2.74523 5.11895 4.29262 4.66928 4.92872 4.46592C5.03631 4.43153 5.13822 4.53793 5.09739 4.64326L4.09281 7.23452C2.22711 7.51203 1 7.98271 1 8.51664C1 9.36994 4.13402 10.0617 8 10.0617C9.23234 10.0617 10.3903 9.99136 11.3961 9.86796C11.5302 9.85154 11.6006 10.0191 11.4892 10.0956C10.9042 10.4976 10.3167 10.722 9.3934 10.7652C9.48171 10.9518 9.53461 11.1896 9.53461 11.4485C9.53461 12.0485 9.25045 12.5349 8.89992 12.5349C8.54939 12.5349 8.26523 12.0485 8.26523 11.4485C8.26523 11.1835 8.32065 10.9406 8.41273 10.7521C8.07235 10.7314 7.6945 10.6952 7.27093 10.6434C7.39901 10.8421 7.47945 11.1292 7.47945 11.4485C7.47945 12.0485 7.19529 12.5349 6.84476 12.5349C6.49423 12.5349 6.21006 12.0485 6.21006 11.4485C6.21006 11.0895 6.31178 10.7712 6.46858 10.5733C5.62886 10.5503 5.00507 10.7091 4.54152 10.9263C3.83063 11.2594 3.76088 12.1908 4.23108 12.8195C5.02859 13.8858 6.28068 14.5728 7.6882 14.5728C10.0969 14.5728 12.0491 12.5616 12.0491 10.0805C12.0491 9.97918 12.0459 9.87853 12.0393 9.77863C13.8306 9.4988 15 9.03788 15 8.51664C15 8.00032 13.8525 7.54315 12.0897 7.26261Z" fill="rgb(14,17,23)" fill-rule="evenodd" />
</svg>
