<svg viewBox="0 0 16 16" xmlns="http://www.w3.org/2000/svg" xmlns:xlink="http://www.w3.org/1999/xlink" width="16.000000" height="16.000000" fill="none" customFrame="#000000">
	<rect id="16 / Lukit / Alkion" width="16.000000" height="16.000000" x="0.000000" y="0.000000" />
	<path id="Avatar" d="M12.4293 6.92781C12.2078 7.74725 12.3125 8.65223 12.7946 9.43269L12.7961 9.43559L14.9962 12.9993C15.1063 13.0206 12.7612 13.1451 11.962 13.0112C11.0243 12.855 10.0613 12.2468 9.44066 11.2415C8.8161 10.2309 8.68448 9.08653 8.99878 8.18709C9.01478 8.13879 8.98526 8.08935 8.9342 8.08265C7.9859 7.95583 7.01608 7.31413 6.3956 6.31025C5.77498 5.30609 5.7091 4.18995 5.9482 3.27305C6.07052 2.80501 7.004 1.15303 7.26332 0.699833C7.29286 0.647753 7.36806 0.646293 7.40034 0.698373L9.53068 4.14719C10.0115 4.92531 10.7758 5.42915 11.61 5.60425C12.0546 5.69647 12.5193 5.69647 12.9719 5.59641C13.0458 5.58041 13.0983 5.66447 13.0499 5.72323C12.7571 6.07899 12.5462 6.49061 12.4293 6.92781ZM5.26462 13.0354C5.66212 13.0086 6.05976 12.8882 6.4225 12.6662L6.41974 12.6662C7.7065 11.8791 8.0451 10.1387 7.08196 8.92333C6.34994 7.99975 5.03888 7.70305 3.9764 8.21763C3.5104 8.44365 3.15042 8.78429 2.90592 9.18543C2.90316 9.18689 2.90184 9.19357 2.90184 9.19357L2.73938 9.51035C2.73794 9.51297 2.73532 9.51821 2.73532 9.51821L1.01454 12.8655C0.97032 12.951 1.03214 13.0514 1.12872 13.0514L4.93548 13.0354L5.26462 13.0354Z" fill="rgb(14,17,23)" fill-rule="evenodd" />
</svg>
