<svg viewBox="0 0 16 16" xmlns="http://www.w3.org/2000/svg" xmlns:xlink="http://www.w3.org/1999/xlink" width="16.000000" height="16.000000" fill="none" customFrame="#000000">
	<rect id="16 / Lukit / Sirin" width="16.000000" height="16.000000" x="0.000000" y="0.000000" />
	<path id="Avatar" d="M7.99626 5.48251L7.99626 1.3571C7.99626 1.15182 8.16281 0.98436 8.36784 0.995109C8.8626 1.02112 9.34411 1.09866 9.80624 1.22207C10.0046 1.27504 10.1112 1.48569 10.0478 1.68089L9.58446 3.10849C9.52112 3.30349 9.62846 3.51164 9.8179 3.59014C9.9974 3.66452 10.1713 3.74945 10.3389 3.84426C10.4275 3.89445 10.532 3.91019 10.6304 3.8839L10.9382 3.80137C11.0206 3.77929 11.0928 3.72958 11.1429 3.66068L11.8946 2.62501C12.0151 2.45898 12.2482 2.42117 12.4077 2.55034C12.7865 2.85696 13.1323 3.20282 13.4391 3.5817C13.5682 3.74119 13.5304 3.9742 13.3643 4.09474L12.1495 4.97657C11.9835 5.09701 11.7525 5.0593 11.6193 4.90345C11.4988 4.76247 11.3703 4.6285 11.2345 4.5024C11.1447 4.41901 11.0176 4.39108 10.8992 4.42275L10.6451 4.49089C10.5629 4.51286 10.4907 4.56248 10.4406 4.63138L9.47309 5.96292C9.37837 6.09324 9.21047 6.14775 9.05726 6.09785L8.25292 5.83596C8.09985 5.78615 7.99626 5.64345 7.99626 5.48251ZM5.60688 7.22354L1.68328 5.94862C1.48804 5.88519 1.38022 5.67502 1.45383 5.48337C1.63146 5.02091 1.85401 4.58695 2.11417 4.18552C2.22583 4.01326 2.45913 3.97698 2.6252 4.09762L3.83975 4.97945C4.00568 5.09989 4.23676 5.06218 4.37001 4.90633C4.49631 4.75844 4.6309 4.61919 4.77293 4.48916C4.84802 4.42035 4.89533 4.32582 4.90066 4.2241L4.91731 3.90635C4.92177 3.82133 4.89687 3.73726 4.84673 3.66826L4.09329 2.6322C3.97257 2.46628 4.0087 2.23298 4.18077 2.12118C4.58954 1.85564 5.02532 1.63367 5.48044 1.45901C5.67204 1.3856 5.88192 1.49346 5.94526 1.68866L6.40854 3.11655C6.47178 3.31155 6.36454 3.51961 6.17515 3.59811C6.00418 3.66903 5.83739 3.74964 5.67574 3.83966C5.56864 3.89925 5.5028 4.01153 5.49637 4.13399L5.48251 4.39818C5.47804 4.48321 5.50295 4.56728 5.55299 4.63618L6.5201 5.96743C6.61477 6.09775 6.61472 6.27433 6.51995 6.40465L6.02237 7.08861C5.9277 7.21883 5.75995 7.27325 5.60688 7.22354ZM14.3117 5.94766L10.3882 7.22258C10.2351 7.27229 10.1314 7.41489 10.1313 7.57593L10.1308 8.42178C10.1307 8.5829 10.2344 8.7257 10.3877 8.77551L11.9523 9.28394C12.0333 9.31033 12.1028 9.36359 12.1492 9.43509L12.2932 9.65687C12.36 9.75965 12.3727 9.88911 12.3211 10.0003C12.2432 10.1683 12.1556 10.3317 12.0589 10.4896C11.9518 10.6644 11.9874 10.8958 12.1531 11.0164L13.3672 11.8992C13.5332 12.02 13.7664 11.9839 13.8782 11.8118C14.1438 11.403 14.3659 10.9672 14.5405 10.5121C14.614 10.3206 14.5061 10.1106 14.3109 10.0473L13.0928 9.65217C13.0117 9.62587 12.9421 9.57251 12.8957 9.50102L12.7225 9.23423C12.667 9.14882 12.6497 9.0446 12.67 8.9448C12.7085 8.75593 12.7356 8.5641 12.7509 8.37015C12.767 8.16574 12.9318 7.99943 13.1369 7.99933L14.6378 7.99885C14.843 7.99876 15.0104 7.83225 14.9995 7.62737C14.974 7.14964 14.899 6.66779 14.7708 6.18921C14.7177 5.99085 14.507 5.88423 14.3117 5.94766ZM7.99626 6.94044C7.41336 6.94044 6.94082 7.41298 6.94082 7.99588C6.94082 8.57878 7.41336 9.05132 7.99626 9.05132C8.57916 9.05132 9.0517 8.57878 9.0517 7.99588C9.0517 7.41298 8.57916 6.94044 7.99626 6.94044ZM4.09617 13.3654L6.52096 10.0279C6.61559 9.89765 6.61563 9.72126 6.52111 9.59094L6.02424 8.90641C5.92962 8.77599 5.76177 8.72138 5.60851 8.77119L4.04301 9.27972C3.96201 9.30601 3.87444 9.30371 3.79493 9.27319L3.54964 9.17905C3.43525 9.13519 3.34883 9.03788 3.32522 8.91764C3.28943 8.73568 3.26414 8.55172 3.24955 8.36679C3.23343 8.16238 3.06866 7.99616 2.86367 7.99607L1.36247 7.9954C1.15729 7.9953 0.98978 8.16161 1.00048 8.3665C1.02591 8.85334 1.10244 9.33634 1.22864 9.80715C1.28181 10.0054 1.4925 10.1118 1.68765 10.0483L2.90431 9.65236C2.98541 9.62597 3.07302 9.62827 3.15258 9.65879L3.45036 9.77308C3.54542 9.80955 3.62066 9.88373 3.66288 9.97644C3.74268 10.1516 3.83346 10.3225 3.93495 10.4881C4.04205 10.663 4.00654 10.8945 3.84066 11.015L2.62668 11.8976C2.46071 12.0183 2.42314 12.2514 2.55245 12.4108C2.85379 12.7823 3.19778 13.1281 3.58275 13.4399C3.7423 13.5691 3.97549 13.5315 4.09617 13.3654ZM9.47309 10.0398L11.8979 13.3773C12.0186 13.5434 11.9822 13.7768 11.8101 13.8886C11.3945 14.1584 10.9594 14.3786 10.5129 14.5504C10.3214 14.6241 10.1113 14.5164 10.0478 14.3212L9.58359 12.8939C9.52016 12.6989 9.31105 12.5936 9.11163 12.6414C8.92262 12.6867 8.73189 12.7203 8.54058 12.7421C8.43938 12.7536 8.34558 12.8023 8.28152 12.8813L8.08152 13.1283C8.02788 13.1945 7.99866 13.2772 7.9987 13.3624L7.99923 14.6429C7.99933 14.8481 7.83302 15.0156 7.62808 15.0049C7.14129 14.9794 6.65824 14.9029 6.18743 14.7766C5.98921 14.7235 5.88283 14.5128 5.94631 14.3177L6.41089 12.8902C6.47432 12.6953 6.68339 12.5899 6.88271 12.6378C7.06289 12.681 7.24537 12.7137 7.42924 12.736C7.55092 12.7506 7.67016 12.6985 7.74732 12.6032L7.91296 12.3987C7.96656 12.3325 7.99578 12.25 7.99578 12.1648L7.99592 10.5191C7.99592 10.358 8.09976 10.2153 8.25302 10.1656L9.05765 9.90465C9.21076 9.85494 9.37846 9.90955 9.47309 10.0398Z" fill="rgb(14,17,23)" fill-rule="evenodd" />
</svg>
