<svg viewBox="0 0 16 16" xmlns="http://www.w3.org/2000/svg" xmlns:xlink="http://www.w3.org/1999/xlink" width="16.000000" height="16.000000" fill="none" customFrame="#000000">
	<rect id="16 / Lukit / Akola" width="16.000000" height="16.000000" x="0.000000" y="0.000000" />
	<path id="Avatar" d="M6.24354 3.86263L5.54843 3.86263C4.9009 3.86263 4.39206 3.3606 4.39206 2.72172C4.39206 2.08284 4.9009 1.58081 5.54843 1.58081L12.363 1.58081C13.0105 1.58081 13.5193 2.08284 13.5193 2.72172C13.5193 3.3606 13.0105 3.86263 12.363 3.86263L9.75279 3.86263L9.7423 3.84428C8.97654 2.49495 7.01979 2.49495 6.25403 3.84428L6.24354 3.86263ZM6.04103 4.21995L4.74728 6.50177L2.15035 6.50177C1.50623 6.50177 1 5.99974 1 5.36086C1 4.72198 1.50623 4.21995 2.15035 4.21995L6.04103 4.21995ZM11.393 6.50177L11.249 6.50177L9.9553 4.21995L11.393 4.21995C12.0371 4.21995 12.5433 4.72198 12.5433 5.36086C12.5433 5.99974 12.0371 6.50177 11.393 6.50177ZM4.54463 6.85909L3.26006 9.12466C2.71844 9.03369 2.31708 8.57177 2.31708 8C2.31708 7.36112 2.81846 6.85909 3.45642 6.85909L4.54463 6.85909ZM12.7454 9.14091L11.4517 6.85909L12.99 6.85909C13.628 6.85909 14.1294 7.36112 14.1294 8C14.1294 8.63888 13.628 9.14091 12.99 9.14091L12.7454 9.14091ZM6.82894 11.7801L2.15074 11.7801C1.50636 11.7801 1 11.278 1 10.6391C1 10.0003 1.50636 9.49823 2.15074 9.49823L6.82894 9.49823C7.47333 9.49823 7.97968 10.0003 7.97968 10.6391C7.97968 11.278 7.47333 11.7801 6.82894 11.7801ZM13.2678 10.0627L12.9478 9.49823L13.8515 9.49823C14.4946 9.49823 15 10.0003 15 10.6391C15 11.278 14.4946 11.7801 13.8515 11.7801L13.3807 11.7801C13.4761 11.5462 13.5276 11.2937 13.5276 11.0358C13.5276 10.7112 13.4461 10.378 13.2678 10.0627ZM7.81348 13.0224L11.3327 13.0224C11.351 13.1045 11.3607 13.1899 11.3607 13.2783C11.3607 13.9172 10.854 14.4192 10.2089 14.4192L8.93721 14.4192C8.29218 14.4192 7.78542 13.9172 7.78542 13.2783C7.78542 13.1899 7.79512 13.1045 7.81348 13.0224Z" fill="rgb(14,17,23)" fill-rule="evenodd" />
</svg>
