<svg viewBox="0 0 16 16" xmlns="http://www.w3.org/2000/svg" xmlns:xlink="http://www.w3.org/1999/xlink" width="16.000000" height="16.000000" fill="none" customFrame="#000000">
	<rect id="16 / Lukit / Teremok" width="16.000000" height="16.000000" x="0.000000" y="0.000000" />
	<path id="Avatar" d="M9.2609 2.33362L7.19429 2.33362C6.97386 2.33362 6.85522 2.59289 6.99975 2.7596L11.922 8.43849C12.0665 8.60514 11.9481 8.86447 11.7277 8.86447L10.631 8.86447C10.5156 8.86447 10.4144 8.9412 10.3832 9.05229L9.62737 11.7452C9.5962 11.8563 9.49491 11.933 9.37954 11.933L6.64032 11.933C6.52495 11.933 6.42365 11.8563 6.39248 11.7452L5.63466 9.04494C5.60349 8.93391 5.5022 8.85712 5.38683 8.85712L4.29521 8.85712C4.07352 8.85712 3.95564 8.59553 4.10243 8.42932L7.19203 4.93234C7.27624 4.83689 7.27799 4.69418 7.19631 4.59659L6.07251 3.25557C5.97072 3.13392 5.78396 3.13266 5.68016 3.25293L1.06284 8.61557C0.919065 8.7824 1.0377 9.04092 1.25789 9.04092L3.03142 9.04092C3.14679 9.04092 3.24808 9.11764 3.27925 9.22874L4.46965 13.4699C4.50082 13.581 4.60211 13.6577 4.71748 13.6577L6.15194 13.6577L9.83097 13.6665L11.3006 13.6652C11.4157 13.6652 11.517 13.5884 11.5482 13.4774L12.7416 9.2256C12.7728 9.11456 12.8741 9.03778 12.9894 9.03778L14.7421 9.03778C14.9628 9.03778 15.0812 8.77851 14.9367 8.61186L9.64999 2.51126C9.55222 2.39847 9.4102 2.33362 9.2609 2.33362Z" fill="rgb(14,17,23)" fill-rule="evenodd" />
</svg>
