<svg viewBox="0 0 16 16" xmlns="http://www.w3.org/2000/svg" xmlns:xlink="http://www.w3.org/1999/xlink" width="16.000000" height="16.000000" fill="none" customFrame="#000000">
	<rect id="16 / Lukit / Yozhka" width="16.000000" height="16.000000" x="0.000000" y="0.000000" />
	<path id="Avatar" d="M7.31578 5.06709C7.21229 5.04137 7.10562 5.02791 6.99664 5.02791C6.02729 5.02791 5.24149 6.09161 5.24149 7.40375C5.24149 8.71587 6.02729 9.77957 6.99664 9.77957C7.47622 9.77957 7.91088 9.51921 8.22768 9.09723C7.97534 11.4975 6.45122 13.3431 4.60872 13.3431C2.58981 13.3431 0.953125 11.1271 0.953125 8.39349C0.953125 5.65987 2.58981 3.44385 4.60872 3.44385C5.68188 3.44385 6.64702 4.06995 7.31578 5.06709ZM11.4666 13.3431C10.2192 13.3431 9.1177 12.4971 8.458 11.2058C8.82228 10.3686 9.02485 9.40643 9.02485 8.39357C9.02485 7.38069 8.82226 6.41851 8.45796 5.58123C9.11765 4.28985 10.2192 3.44385 11.4666 3.44385C12.5398 3.44385 13.5049 4.06997 14.1737 5.06713C14.0701 5.04137 13.9634 5.02791 13.8544 5.02791C12.8851 5.02791 12.0992 6.09161 12.0992 7.40375C12.0992 8.71587 12.8851 9.77957 13.8544 9.77957C14.334 9.77957 14.7688 9.51915 15.0856 9.09705C14.8333 11.4974 13.3091 13.3431 11.4666 13.3431Z" fill="rgb(14,17,23)" fill-rule="evenodd" />
</svg>
