<svg viewBox="0 0 16 16" xmlns="http://www.w3.org/2000/svg" xmlns:xlink="http://www.w3.org/1999/xlink" width="16.000000" height="16.000000" fill="none">
	<rect id="16 / Lukit / Kokoshnik 4" width="16.000000" height="16.000000" x="0.000000" y="0.000000" />
	<path id="Vector 12441" d="M14.2765 8.58503C14.6765 7.47503 14.4365 6.17503 13.5465 5.28503C12.8465 4.58503 11.9065 4.30502 11.0065 4.39503C10.6165 3.09502 9.42651 2.15503 7.9965 2.15503C6.5665 2.15503 5.3865 3.10503 4.9865 4.39503C4.0765 4.30503 3.1365 4.59502 2.4465 5.28503C1.5565 6.17503 1.31651 7.47503 1.7165 8.58503C0.696503 9.82503 0.7565 11.655 1.9165 12.805C2.3065 13.195 3.0765 13.515 3.93649 13.775C3.96649 11.625 5.71649 9.89503 7.87649 9.89503C10.0365 9.89503 11.8265 11.665 11.8265 13.845C12.7865 13.575 13.6565 13.235 14.0865 12.805C15.2465 11.645 15.2965 9.82503 14.2865 8.58503L14.2765 8.58503Z" fill="rgb(14,17,23)" fill-rule="nonzero" />
</svg>
