<svg viewBox="0 0 16 16" xmlns="http://www.w3.org/2000/svg" xmlns:xlink="http://www.w3.org/1999/xlink" width="16.000000" height="16.000000" fill="none" customFrame="#000000">
	<rect id="16 / Lukit / Yarmarka" width="16.000000" height="16.000000" x="0.000000" y="0.000000" />
	<path id="Avatar" d="M9.74332 3.79226L9.74332 1.6409C9.74332 1.28704 9.45628 1 9.1024 1L6.89828 1C6.54372 1 6.25738 1.28704 6.25738 1.6409L6.25738 3.79226L4.73638 2.27126C4.48592 2.0208 4.08 2.0208 3.82954 2.27126L2.27126 3.82954C2.0208 4.08 2.0208 4.48592 2.27126 4.73638L3.79156 6.25668L6.25738 6.25668L6.25738 3.79226L8 5.53558L9.74332 3.79226ZM9.74332 3.79226L11.2643 2.27126C11.5148 2.0208 11.92 2.0208 12.1704 2.27126L13.7294 3.82954C13.9799 4.08 13.9799 4.48592 13.7294 4.73638L12.2091 6.25668L9.7433 6.25668L9.74332 3.79226ZM3.79226 9.7433L1.6409 9.74334C1.28704 9.74334 1 9.4563 1 9.10244L1 6.8976C1 6.54374 1.28704 6.2567 1.6409 6.2567L3.79156 6.25668L5.53488 8.00072L3.79226 9.7433ZM3.79226 9.7433L6.25738 9.7433L6.25738 12.2084L4.73638 13.7294C4.48592 13.9792 4.08 13.9792 3.83024 13.7294L2.27126 12.1704C2.0208 11.92 2.0208 11.5141 2.27126 11.2643L3.79226 9.7433ZM14.3591 9.74334L12.2077 9.7433L10.4651 8.00072L12.2091 6.25668L14.3591 6.2567C14.713 6.2567 15 6.54374 15 6.8976L15 9.10244C15 9.4563 14.713 9.74334 14.3591 9.74334ZM9.7433 12.2091L11.2636 13.7294C11.5141 13.9792 11.92 13.9792 12.1704 13.7294L13.7287 12.1704C13.9792 11.92 13.9792 11.5141 13.7287 11.2643L12.2077 9.7433L9.7433 9.7433L9.7433 12.2091ZM9.7433 12.2091L9.74332 14.3591C9.74332 14.713 9.45628 15 9.1024 15L6.89828 15C6.54372 15 6.25738 14.713 6.25738 14.3591L6.25738 12.2084L8 10.4658L9.7433 12.2091Z" fill="rgb(14,17,23)" fill-rule="evenodd" />
</svg>
