<svg viewBox="0 0 16 16" xmlns="http://www.w3.org/2000/svg" xmlns:xlink="http://www.w3.org/1999/xlink" width="16.000000" height="16.000000" fill="none" customFrame="#000000">
	<rect id="16 / Lukit / Strelka" width="16.000000" height="16.000000" x="0.000000" y="0.000000" />
	<path id="Avatar" d="M14.5 6.19056L14.5 1.50014L9.80929 1.5L9.80925 4.09637L11.9035 4.09637L11.9035 6.19056L14.5 6.19056ZM5.50471 1.97654C6.27071 1.65917 7.10242 1.50056 7.99985 1.50056L7.99985 4.09693C7.46093 4.09693 6.96146 4.1922 6.50145 4.38274C6.04141 4.57328 5.62084 4.85909 5.23974 5.24016C4.85864 5.62124 4.57283 6.04181 4.38228 6.50186C4.19173 6.96182 4.09646 7.46127 4.09646 8.00021C4.09646 8.53915 4.19174 9.03864 4.38228 9.4987C4.57283 9.95875 4.85865 10.3793 5.23976 10.7604C5.62085 11.1414 6.04141 11.4272 6.50143 11.6178C6.96144 11.8084 7.46098 11.9036 7.9999 11.9036C8.53886 11.9036 9.03835 11.8084 9.49838 11.6178C9.9584 11.4273 10.379 11.1415 10.7601 10.7604C11.1411 10.3793 11.427 9.95875 11.6175 9.4987C11.8081 9.03864 11.9033 8.53929 11.9033 8.00035L14.4998 8.00035C14.4998 8.89774 14.3412 9.72943 14.0239 10.4954C13.7066 11.2614 13.2306 11.9617 12.596 12.5963C11.9614 13.2308 11.2611 13.7068 10.4951 14.024C9.7291 14.3414 8.89735 14.5 7.9999 14.5C7.10246 14.5 6.27073 14.3413 5.50471 14.024C4.73869 13.7067 4.03838 13.2308 3.40378 12.5963C2.76919 11.9617 2.29324 11.2614 1.97594 10.4954C1.65867 9.72953 1.5 8.89774 1.5 8.00035C1.5 6.20549 2.13459 4.67348 3.40375 3.40431C4.03835 2.76978 4.73867 2.29385 5.50471 1.97654Z" fill="rgb(14,17,23)" fill-rule="evenodd" />
</svg>
