<svg viewBox="0 0 16 16" xmlns="http://www.w3.org/2000/svg" xmlns:xlink="http://www.w3.org/1999/xlink" width="16.000000" height="16.000000" fill="none">
	<rect id="16 / Lukit / Kokoshnik 2" width="16.000000" height="16.000000" x="0.000000" y="0.000000" />
	<path id="Vector 12449" d="M13.7529 6.925C12.8429 4.32501 9.96287 2.57501 7.99287 1.005C6.02287 2.57501 3.13287 4.32501 2.23286 6.925C0.462867 11.985 4.70287 14.995 4.70287 14.995L4.82287 14.995C4.41287 13.915 4.17287 12.805 4.17287 12.005C4.17287 9.885 5.89287 8.175 8.00287 8.175C10.1129 8.175 11.8329 9.895 11.8329 12.005C11.8329 12.795 11.5929 13.905 11.1829 14.995L11.3029 14.995C11.3029 14.995 15.5329 11.985 13.7729 6.925L13.7529 6.925Z" fill="rgb(14,17,23)" fill-rule="nonzero" />
</svg>
