<svg viewBox="0 0 16 16" xmlns="http://www.w3.org/2000/svg" xmlns:xlink="http://www.w3.org/1999/xlink" width="16.000000" height="16.000000" fill="none">
	<rect id="16 / Lukit / Snowflake 2" width="16.000000" height="16.000000" x="0.000000" y="0.000000" />
	<path id="Vector 8469" d="M13.6469 8.97003L12.2342 9.80475L12.0076 9.67395L13.0323 9.06839C13.18 8.98119 13.229 8.79078 13.1416 8.64313L12.9112 8.25304C12.824 8.10539 12.6336 8.05631 12.4859 8.14372L10.9397 9.05744L10.2914 8.68315C9.75112 8.3712 9.75112 7.59145 10.2914 7.27951L10.9397 6.90522L12.4859 7.81893C12.6336 7.90613 12.824 7.85727 12.9112 7.70962L13.1416 7.31953C13.2288 7.17188 13.18 6.98147 13.0323 6.89427L12.0076 6.2887L12.2342 6.1579L13.6469 6.99263C13.7946 7.07983 13.985 7.03096 14.0722 6.88331L14.3026 6.49323C14.3898 6.34557 14.341 6.15516 14.1933 6.06796L13.3021 5.54139L14.0621 5.10265C14.2106 5.01692 14.2615 4.82693 14.1758 4.67844L13.9492 4.28603C13.8635 4.13754 13.6735 4.08657 13.525 4.17229L12.765 4.61104L12.7545 3.576C12.7528 3.40455 12.6123 3.26679 12.4409 3.26869L11.9878 3.27332C11.8163 3.27501 11.6786 3.4155 11.6805 3.58695L11.6971 5.22776L11.4705 5.35856L11.4585 4.1685C11.4568 3.99705 11.3163 3.8593 11.1449 3.86119L10.6918 3.86583C10.5203 3.86751 10.3826 4.008 10.3845 4.17946L10.4026 5.9755L9.75428 6.34979C9.21401 6.66173 8.53852 6.27185 8.53852 5.64797L8.53852 4.89939L10.1029 4.01706C10.2522 3.93281 10.3051 3.74345 10.2208 3.5939L9.99819 3.19918C9.91393 3.04985 9.72458 2.99698 9.57503 3.08123L8.53831 3.66594L8.53831 3.40434L9.96743 2.59826C10.1168 2.514 10.1696 2.32465 10.0854 2.1751L9.86275 1.78038C9.7785 1.63104 9.58914 1.57817 9.43959 1.66243L8.5381 2.17089L8.5381 1.29277C8.5381 1.12132 8.39908 0.9823 8.22763 0.9823L7.77456 0.9823C7.60311 0.9823 7.4641 1.12132 7.4641 1.29277L7.4641 2.17025L6.5626 1.66179C6.41326 1.57754 6.22369 1.63041 6.13944 1.77975L5.91681 2.17447C5.83256 2.3238 5.88542 2.51337 6.03476 2.59762L7.46389 3.4037L7.46389 3.66531L6.42716 3.0806C6.27783 2.99634 6.08826 3.04921 6.00401 3.19855L5.78137 3.59327C5.69712 3.74261 5.74999 3.93217 5.89933 4.01643L7.46367 4.89876L7.46367 5.64734C7.46367 6.27122 6.78839 6.6611 6.24792 6.34915L5.5996 5.97486L5.61771 4.17882C5.6194 4.00737 5.48186 3.86688 5.3104 3.86519L4.85734 3.86056C4.68589 3.85888 4.5454 3.99642 4.54371 4.16787L4.5317 5.35793L4.30507 5.22713L4.32171 3.58632C4.32339 3.41487 4.18585 3.27438 4.0144 3.27269L3.56133 3.26806C3.38988 3.26637 3.24939 3.40391 3.2477 3.57537L3.23717 4.6104L2.47722 4.17166C2.32872 4.08593 2.13874 4.1367 2.05301 4.2854L1.82637 4.6778C1.74064 4.8263 1.79141 5.01629 1.94011 5.10201L2.70006 5.54076L1.80889 6.06733C1.66124 6.15453 1.61216 6.34494 1.69957 6.49259L1.93 6.88268C2.0172 7.03033 2.20761 7.07941 2.35526 6.992L3.76796 6.15727L3.9946 6.28807L2.96988 6.89363C2.82223 6.98083 2.77315 7.17124 2.86056 7.31889L3.09099 7.70898C3.1782 7.85663 3.3686 7.90571 3.51626 7.8183L5.06249 6.90458L5.71081 7.27887C6.25108 7.59082 6.25108 8.37057 5.71081 8.68251L5.06249 9.0568L3.51626 8.14309C3.3686 8.05589 3.17819 8.10476 3.09099 8.25241L2.86056 8.64249C2.77336 8.79015 2.82223 8.98055 2.96988 9.06776L3.9946 9.67332L3.76796 9.80412L2.35526 8.96939C2.20761 8.88219 2.0172 8.93106 1.93 9.07871L1.69957 9.46879C1.61237 9.61645 1.66124 9.80686 1.80889 9.89406L2.70006 10.4206L1.94011 10.8594C1.79162 10.9451 1.74064 11.1351 1.82637 11.2836L2.05301 11.676C2.13874 11.8245 2.32872 11.8755 2.47722 11.7897L3.23717 11.351L3.2477 12.386C3.24939 12.5575 3.38988 12.6952 3.56133 12.6933L4.0144 12.6887C4.18585 12.687 4.3236 12.5465 4.32171 12.3751L4.30507 10.7343L4.5317 10.6035L4.54371 11.7935C4.5454 11.965 4.68589 12.1027 4.85734 12.1008L5.3104 12.0962C5.48186 12.0945 5.61961 11.954 5.61771 11.7826L5.5996 9.98653L6.24792 9.61224C6.78818 9.30029 7.46367 9.69017 7.46367 10.3141L7.46367 11.0626L5.89933 11.945C5.74999 12.0292 5.69712 12.2186 5.78137 12.3681L6.00401 12.7628C6.08826 12.9122 6.27762 12.965 6.42716 12.8808L7.46389 12.2961L7.46389 12.5577L6.03476 13.3638C5.88542 13.448 5.83256 13.6374 5.91681 13.7869L6.13944 14.1816C6.2237 14.331 6.41305 14.3839 6.5626 14.2996L7.4641 13.7911L7.4641 14.6686C7.4641 14.8401 7.60311 14.9791 7.77456 14.9791L8.22763 14.9791C8.39908 14.9791 8.5381 14.8401 8.5381 14.6686L8.5381 13.7911L9.43959 14.2996C9.58893 14.3839 9.7785 14.331 9.86275 14.1816L10.0854 13.7869C10.1696 13.6376 10.1168 13.4482 9.96743 13.3638L8.53831 12.5577L8.53831 12.2961L9.57503 12.8808C9.72437 12.965 9.91393 12.9122 9.99819 12.7628L10.2208 12.3681C10.3051 12.2188 10.2522 12.0292 10.1029 11.945L8.53852 11.0626L8.53852 10.3141C8.53852 9.69017 9.2138 9.30029 9.75428 9.61224L10.4026 9.98653L10.3845 11.7826C10.3828 11.954 10.5203 12.0945 10.6918 12.0962L11.1449 12.1008C11.3163 12.1025 11.4568 11.965 11.4585 11.7935L11.4705 10.6035L11.6971 10.7343L11.6805 12.3751C11.6788 12.5465 11.8163 12.687 11.9878 12.6887L12.4409 12.6933C12.6123 12.695 12.7528 12.5575 12.7545 12.386L12.765 11.351L13.525 11.7897C13.6735 11.8755 13.8635 11.8247 13.9492 11.676L14.1758 11.2836C14.2616 11.1351 14.2108 10.9451 14.0621 10.8594L13.3021 10.4206L14.1933 9.89406C14.341 9.80686 14.39 9.61645 14.3026 9.4688L14.0722 9.07871C13.985 8.93106 13.7946 8.88198 13.6469 8.96939L13.6469 8.97003Z" fill="rgb(29,29,27)" fill-rule="nonzero" />
</svg>
