<svg viewBox="0 0 16 16" xmlns="http://www.w3.org/2000/svg" xmlns:xlink="http://www.w3.org/1999/xlink" width="16.000000" height="16.000000" fill="none">
	<rect id="16 / Lukit / Snowflake" width="16.000000" height="16.000000" x="0.000000" y="0.000000" />
	<path id="Vector 8468" d="M13.787 9.06609L12.2359 9.98234L11.8205 9.74259L13.0755 9.0012C13.1735 8.94326 13.2062 8.81685 13.1482 8.71868L12.9077 8.31206C12.8498 8.21409 12.7233 8.18144 12.6251 8.23938L10.9404 9.23464L10.0413 8.71573C9.52754 8.41909 9.52754 7.6777 10.0413 7.38106L10.9404 6.86215L12.6251 7.85741C12.7231 7.91535 12.8498 7.8829 12.9077 7.78472L13.1482 7.37811C13.2062 7.28014 13.1737 7.15352 13.0755 7.09559L11.8205 6.3542L12.2359 6.11444L13.787 7.03069C13.885 7.08863 14.0116 7.05619 14.0696 6.95801L14.3101 6.55139C14.368 6.45343 14.3356 6.32681 14.2374 6.26887L13.1162 5.60649L14.1075 5.03428C14.2062 4.97739 14.2401 4.85119 14.183 4.7526L13.9467 4.34345C13.8898 4.24485 13.7636 4.21093 13.665 4.26803L12.6736 4.84024L12.6605 3.53844C12.6595 3.42446 12.5661 3.33323 12.4521 3.33429L11.9796 3.33913C11.8656 3.34019 11.7743 3.43352 11.7754 3.5475L11.7935 5.3484L11.3783 5.58816L11.3636 4.13108C11.3625 4.01711 11.2692 3.92588 11.1552 3.92693L10.6827 3.93178C10.5686 3.93283 10.4774 4.02617 10.4784 4.14014L10.4983 6.09632L9.5992 6.61523C9.08539 6.91187 8.44303 6.54107 8.44303 5.948L8.44303 4.91019L10.1476 3.94927C10.2468 3.89323 10.2818 3.76745 10.226 3.66822L9.99372 3.25676C9.93766 3.15753 9.81184 3.12255 9.71279 3.17838L8.44303 3.89428L8.44303 3.41498L10.0123 2.53033C10.1115 2.47429 10.1465 2.34851 10.0907 2.24928L9.85842 1.83782C9.80236 1.73859 9.67654 1.70361 9.57749 1.75944L8.44303 2.39907L8.44303 1.25423C8.44303 1.14025 8.35072 1.04797 8.23671 1.04797L7.76421 1.04797C7.65019 1.04797 7.55789 1.14025 7.55789 1.25423L7.55789 2.39865L6.42342 1.75902C6.32416 1.70298 6.19834 1.73817 6.14249 1.8374L5.91025 2.24886C5.85419 2.34809 5.88939 2.47387 5.98865 2.52991L7.55788 3.41456L7.55788 3.89386L6.28812 3.17796C6.18886 3.12192 6.06304 3.15711 6.00719 3.25634L5.77495 3.6678C5.71889 3.76703 5.75408 3.89281 5.85335 3.94885L7.55788 4.90977L7.55788 5.94758C7.55788 6.54065 6.91552 6.91145 6.40171 6.61481L5.50266 6.0959L5.52247 4.13972C5.52352 4.02575 5.43227 3.93263 5.31825 3.93136L4.84576 3.92652C4.73174 3.92546 4.63859 4.01669 4.63733 4.13067L4.62257 5.58774L4.2074 5.34798L4.22552 3.54708C4.22657 3.4331 4.13532 3.33998 4.02131 3.33871L3.54881 3.33387C3.43479 3.33281 3.34164 3.42404 3.34038 3.53802L3.32731 4.83982L2.33595 4.26761C2.23732 4.21072 2.11108 4.24443 2.05418 4.34303L1.81793 4.75218C1.76102 4.85077 1.79474 4.97697 1.89337 5.03386L2.88474 5.60607L1.76355 6.26845C1.66555 6.32639 1.63289 6.4528 1.69084 6.55098L1.93131 6.95759C1.98926 7.05556 2.11571 7.08821 2.21392 7.03028L3.76503 6.11402L4.18042 6.35378L2.92541 7.09517C2.82741 7.1531 2.79474 7.27951 2.8527 7.37769L3.09316 7.7843C3.15112 7.88227 3.27757 7.91493 3.37578 7.85699L5.06051 6.86173L5.95956 7.38064C6.47337 7.67728 6.47337 8.41867 5.95956 8.71531L5.06051 9.23422L3.37578 8.23896C3.27778 8.18102 3.15112 8.21346 3.09316 8.31164L2.8527 8.71826C2.79474 8.81622 2.8272 8.94284 2.92541 9.00078L4.18042 9.74217L3.76503 9.98193L2.21392 9.06567C2.11592 9.00773 1.98926 9.04018 1.93131 9.13836L1.69084 9.54497C1.63289 9.64294 1.66534 9.76956 1.76355 9.8275L2.88474 10.4899L1.89337 11.0621C1.79474 11.119 1.76081 11.2452 1.81793 11.3438L2.05418 11.7529C2.11108 11.8515 2.23732 11.8854 2.33595 11.8283L3.32731 11.2561L3.34038 12.5579C3.34143 12.6719 3.43479 12.7631 3.54881 12.7621L4.02131 12.7572C4.13532 12.7562 4.22657 12.6628 4.22552 12.5489L4.2074 10.748L4.62257 10.5082L4.63733 11.9653C4.63838 12.0793 4.73174 12.1705 4.84576 12.1694L5.31825 12.1646C5.43227 12.1635 5.52352 12.0702 5.52247 11.9562L5.50266 10L6.40171 9.48113C6.91552 9.18449 7.55788 9.55529 7.55788 10.1484L7.55788 11.1862L5.85335 12.1471C5.75408 12.2031 5.7191 12.3289 5.77495 12.4281L6.00719 12.8396C6.06325 12.9388 6.18907 12.9738 6.28812 12.918L7.55788 12.2021L7.55788 12.6814L5.98865 13.566C5.88938 13.6221 5.8544 13.7479 5.91025 13.8471L6.14249 14.2586C6.19855 14.3578 6.32437 14.3928 6.42342 14.3369L7.55789 13.6973L7.55789 14.8417C7.55789 14.9557 7.65019 15.048 7.76421 15.048L8.23671 15.048C8.35072 15.048 8.44303 14.9557 8.44303 14.8417L8.44303 13.6973L9.57749 14.3369C9.67675 14.393 9.80257 14.3578 9.85842 14.2586L10.0907 13.8471C10.1467 13.7479 10.1115 13.6221 10.0123 13.566L8.44303 12.6814L8.44303 12.2021L9.71279 12.918C9.81205 12.974 9.93787 12.9388 9.99372 12.8396L10.226 12.4281C10.282 12.3289 10.2468 12.2031 10.1476 12.1471L8.44303 11.1862L8.44303 10.1484C8.44303 9.55529 9.08539 9.18449 9.5992 9.48113L10.4983 10L10.4784 11.9562C10.4774 12.0702 10.5686 12.1633 10.6827 12.1646L11.1552 12.1694C11.2692 12.1705 11.3623 12.0793 11.3636 11.9653L11.3783 10.5082L11.7935 10.748L11.7754 12.5489C11.7743 12.6628 11.8656 12.756 11.9796 12.7572L12.4521 12.7621C12.5661 12.7631 12.6593 12.6719 12.6605 12.5579L12.6736 11.2561L13.665 11.8283C13.7636 11.8852 13.8898 11.8515 13.9467 11.7529L14.183 11.3438C14.2399 11.2452 14.2062 11.119 14.1075 11.0621L13.1162 10.4899L14.2374 9.8275C14.3354 9.76956 14.368 9.64315 14.3101 9.54497L14.0696 9.13836C14.0116 9.04039 13.8852 9.00773 13.787 9.06567L13.787 9.06609Z" fill="rgb(14,17,23)" fill-rule="nonzero" />
</svg>
