<svg viewBox="0 0 16 16" xmlns="http://www.w3.org/2000/svg" xmlns:xlink="http://www.w3.org/1999/xlink" width="16.000000" height="16.000000" fill="none">
	<rect id="16 / Navigation / Close All" width="16.000000" height="16.000000" x="0.000000" y="0.000000" />
	<path id="Форма 789" d="M7.0295 3.335C7.0295 2.875 6.64962 2.495 6.18964 2.495C5.72966 2.495 5.34976 2.875 5.34976 3.335L5.34976 12.665C5.34976 13.125 5.72966 13.505 6.18964 13.505C6.64962 13.505 7.0295 13.125 7.0295 12.665L7.0295 3.335ZM9.80988 2.495C10.2699 2.495 10.6498 2.875 10.6498 3.335L10.6498 12.665C10.6498 13.125 10.2699 13.505 9.80988 13.505C9.3499 13.505 8.97002 13.125 8.97002 12.665L8.97002 3.335C8.97002 2.875 9.34014 2.495 9.80988 2.495ZM10.9701 8.00497C10.9701 7.78498 11.0599 7.56497 11.2201 7.41498L13.2202 5.41498C13.5503 5.085 14.0805 5.085 14.4106 5.41498C14.7398 5.745 14.7398 6.27499 14.4106 6.60498L13.0004 8.01497L14.4106 9.425C14.7398 9.75497 14.7398 10.285 14.4106 10.615C14.0805 10.945 13.5503 10.945 13.2202 10.615L11.2201 8.615C11.0599 8.455 10.9701 8.245 10.9701 8.02499L10.9701 8.00497ZM4.77942 7.41502C4.93958 7.56499 5.02944 7.785 5.02944 8.00501L5.02944 8.02499C5.02944 8.245 4.93958 8.455 4.77942 8.615L2.77936 10.615C2.44926 10.945 1.91896 10.945 1.58888 10.615C1.25976 10.285 1.25976 9.75501 1.58888 9.425L2.99908 8.01497L1.58888 6.60498C1.25976 6.27499 1.25976 5.745 1.58888 5.41502C1.91896 5.085 2.44926 5.085 2.77936 5.41502L4.77942 7.41502Z" fill="rgb(14,17,23)" fill-rule="evenodd" />
</svg>
