<svg viewBox="0 0 16 16" xmlns="http://www.w3.org/2000/svg" xmlns:xlink="http://www.w3.org/1999/xlink" width="16.000000" height="16.000000" fill="none">
	<rect id="16 / Navigation / Arrows Right" width="16.000000" height="16.000000" x="0.000000" y="0.000000" />
	<path id="Vector" d="M8.55786 2.24842L13.7759 7.4468L13.7659 7.4468C14.0781 7.76796 14.0781 8.2798 13.7659 8.59084L8.58814 13.7492C8.427 13.9197 8.20532 14 7.9939 14C7.78222 14 7.56054 13.9097 7.39942 13.7492C7.06714 13.418 7.06714 12.8861 7.39942 12.555L11.9526 8.01882L7.35914 3.44264C7.02686 3.11146 7.02686 2.5796 7.35914 2.24842C7.69166 1.91724 8.22558 1.91724 8.55786 2.24842ZM3.448 2.24842L8.66602 7.4468L8.656 7.4468C8.96826 7.76796 8.96826 8.2798 8.656 8.59084L3.47828 13.7492C3.31714 13.9197 3.09546 14 2.88404 14C2.67236 14 2.45068 13.9097 2.28956 13.7492C1.95728 13.418 1.95728 12.8861 2.28956 12.555L6.84278 8.01882L2.24926 3.44264C1.917 3.11146 1.917 2.5796 2.24926 2.24842C2.58178 1.91724 3.11572 1.91724 3.448 2.24842Z" fill="rgb(14,17,23)" fill-rule="evenodd" />
</svg>
