<svg viewBox="0 0 16 16" xmlns="http://www.w3.org/2000/svg" xmlns:xlink="http://www.w3.org/1999/xlink" width="16.000000" height="16.000000" fill="none">
	<rect id="16 / Special / Ancor" width="16.000000" height="16.000000" x="0.000000" y="0.000000" fill="rgb(255,255,255)" fill-opacity="0" />
	<path id="Vector 8273" d="M14.8545 7.97502L11.4645 9.67502L12.2645 10.625C11.5745 11.925 10.3445 12.855 8.87453 13.105L8.87453 9.01502L9.96453 9.01502C10.4245 9.01502 10.8045 8.63502 10.8045 8.17502C10.8045 7.71502 10.4245 7.33502 9.96453 7.33502L8.87453 7.33502L8.87453 6.31502C9.93453 5.96502 10.6945 4.97502 10.6945 3.80502C10.6945 2.33502 9.50453 1.14502 8.03453 1.14502C6.56453 1.14502 5.37453 2.33502 5.37453 3.80502C5.37453 4.97502 6.14452 5.96502 7.19453 6.31502L7.19453 7.33502L6.21452 7.33502C5.75452 7.33502 5.37453 7.71502 5.37453 8.17502C5.37453 8.63502 5.75452 9.01502 6.21452 9.01502L7.19453 9.01502L7.19453 13.105C5.71452 12.845 4.45453 11.895 3.77453 10.575L4.53453 9.67502L1.14453 7.97502C1.14453 7.97502 1.28453 9.01502 1.65453 10.005C1.87453 10.615 2.17453 11.165 2.38454 11.515C3.50454 13.535 5.62453 14.855 8.03454 14.855C10.8345 14.855 13.0745 13.035 14.1345 10.515C14.6745 9.23502 14.8545 7.96502 14.8545 7.96502L14.8545 7.97502ZM8.03453 2.82502C8.57453 2.82502 9.01453 3.26502 9.01453 3.80502C9.01453 4.34502 8.57453 4.78502 8.03453 4.78502C7.49453 4.78502 7.05453 4.34502 7.05453 3.80502C7.05453 3.26502 7.49453 2.82502 8.03453 2.82502L8.03453 2.82502Z" fill="rgb(14,17,23)" fill-rule="nonzero" />
</svg>
