<svg viewBox="0 0 16 16" xmlns="http://www.w3.org/2000/svg" xmlns:xlink="http://www.w3.org/1999/xlink" width="16.000000" height="16.000000" fill="none">
	<rect id="16 / Text / H5" width="16.000000" height="16.000000" x="0.000000" y="0.000000" />
	<path id="Vector 13507" d="M13.8306 6.91504C14.2397 7.15504 14.5601 7.48498 14.7905 7.91504L14.7798 7.91492C15.02 8.33484 15.1304 8.81482 15.1304 9.36486C15.1304 9.93494 15.0005 10.455 14.73 10.8949C14.4702 11.345 14.0903 11.6949 13.6099 11.955C13.1304 12.205 12.5698 12.335 11.9399 12.335C11.3501 12.335 10.8198 12.225 10.3599 12.005C9.89991 11.785 9.54053 11.485 9.27003 11.105C9.00049 10.725 8.85987 10.2949 8.85009 9.79492L10.6001 9.79492C10.6196 10.125 10.7602 10.395 11.02 10.605C11.2798 10.8051 11.5806 10.915 11.9399 10.915C12.2202 10.915 12.4702 10.8451 12.6899 10.7251C12.9097 10.5951 13.0806 10.415 13.1997 10.1951C13.3306 9.96508 13.3901 9.70508 13.3901 9.40504C13.3901 9.10498 13.3306 8.84498 13.1997 8.615C13.0806 8.38502 12.8999 8.21496 12.6802 8.08496C12.4604 7.95496 12.2104 7.88502 11.9204 7.88502C11.6704 7.88502 11.4302 7.93506 11.1899 8.04504C10.9497 8.14514 10.77 8.28504 10.6401 8.46508L9.02979 8.17506L9.43017 3.66504L14.6499 3.66504L14.6499 5.14502L10.9204 5.14502L10.6997 7.28504L10.7505 7.28504C10.8999 7.07508 11.1304 6.89502 11.4302 6.76502C11.7397 6.625 12.0698 6.55506 12.4497 6.55506C12.9702 6.55506 13.4204 6.67504 13.8306 6.91504ZM2.54931 6.77502L5.83935 6.77502L5.83935 3.67504L7.52003 3.67504L7.52003 12.2151L5.83935 12.2151L5.83935 8.45508L2.54931 8.45508L2.54931 12.2151L0.869629 12.2151L0.869629 3.67504L2.54931 3.67504L2.54931 6.77502Z" fill="rgb(14,17,23)" fill-rule="evenodd" />
</svg>
