<svg viewBox="0 0 16 16" xmlns="http://www.w3.org/2000/svg" xmlns:xlink="http://www.w3.org/1999/xlink" width="16.000000" height="16.000000" fill="none">
	<rect id="16 / Text / H4" width="16.000000" height="16.000000" x="0.000000" y="0.000000" />
	<path id="Vector 13506" d="M14.3003 9.32495L15.3599 9.32495L15.3599 10.775L14.3003 10.775L14.3003 12.275L12.5698 12.275L12.5698 10.775L8.47022 10.775L8.47022 9.34498L12.0405 3.72498L14.3003 3.72498L14.3003 9.32495ZM2.31982 6.83496L5.60986 6.83496L5.60986 3.73498L7.29054 3.73498L7.29054 12.275L5.60986 12.275L5.60986 8.505L2.31982 8.505L2.31982 12.275L0.640137 12.275L0.640137 3.73498L2.31982 3.73498L2.31982 6.83496ZM12.5405 5.69496L10.2905 9.255L10.2905 9.32495L12.6099 9.32495L12.6099 5.69496L12.5405 5.69496Z" fill="rgb(14,17,23)" fill-rule="evenodd" />
</svg>
