<svg viewBox="0 0 16 16" xmlns="http://www.w3.org/2000/svg" xmlns:xlink="http://www.w3.org/1999/xlink" width="16.000000" height="16.000000" fill="none">
	<rect id="16 / Text / H6" width="16.000000" height="16.000000" x="0.000000" y="0.000000" />
	<path id="Vector 13514" d="M13.9502 7.00989C14.3399 7.24989 14.6504 7.56983 14.8799 7.98987C15.1104 8.39991 15.2197 8.86987 15.2197 9.40991C15.2197 9.98998 15.0899 10.5 14.8203 10.9499C14.5606 11.4 14.1797 11.76 13.7002 12.01C13.2197 12.26 12.6602 12.39 12.0303 12.39C11.5899 12.38 11.1699 12.3101 10.7598 12.17C10.3604 12.0201 9.99023 11.79 9.66991 11.4601C9.35059 11.14 9.08985 10.7001 8.90039 10.17C8.70995 9.63 8.62011 8.97009 8.62011 8.19007C8.62987 7.46996 8.70995 6.83009 8.87011 6.27003C9.03027 5.70007 9.27051 5.22009 9.57031 4.82007C9.87987 4.43005 10.2402 4.13001 10.6699 3.92005C11.0899 3.70997 11.5703 3.60999 12.1006 3.60999C12.6699 3.60999 13.1699 3.71997 13.6104 3.93995C14.0498 4.15991 14.4004 4.45997 14.6602 4.83997C14.9199 5.21997 15.0801 5.64001 15.1397 6.10999L13.3604 6.10999C13.29 5.81007 13.1397 5.58009 12.9199 5.41003C12.6904 5.23999 12.4199 5.16003 12.0899 5.16003C11.5303 5.16003 11.1104 5.40003 10.8203 5.88001C10.5303 6.36999 10.3799 7.02003 10.3799 7.85999L10.4404 7.85999C10.5703 7.59999 10.7402 7.39001 10.96 7.20997C11.1797 7.02991 11.4297 6.88988 11.71 6.79993C11.9902 6.69995 12.29 6.64991 12.6006 6.64991C13.1006 6.64991 13.5498 6.76991 13.9502 7.00989ZM2.45995 6.82983L5.74999 6.82983L5.74999 3.72987L7.43067 3.72987L7.43067 12.2699L5.74999 12.2699L5.74999 8.50989L2.45995 8.50989L2.45995 12.2699L0.780273 12.2699L0.780273 3.72987L2.45995 3.72987L2.45995 6.82983ZM12.7598 10.7699C12.9805 10.6299 13.1504 10.4498 13.2803 10.2299L13.2598 10.23C13.3897 10 13.4502 9.75001 13.4502 9.45996C13.4502 9.16993 13.3897 8.91993 13.2598 8.68995C13.1397 8.46996 12.9697 8.28992 12.75 8.15991C12.54 8.02003 12.29 7.95997 12.0098 7.95997C11.7998 7.95997 11.6104 8.00001 11.4297 8.06995C11.2598 8.14991 11.1006 8.25989 10.9697 8.39991C10.8399 8.53992 10.7402 8.69983 10.6602 8.87988C10.5899 9.0598 10.5498 9.25989 10.5498 9.45984C10.5498 9.73987 10.6104 9.98987 10.7402 10.2198C10.8701 10.4498 11.04 10.6299 11.2598 10.7599C11.4805 10.8999 11.7305 10.9698 12.0098 10.9698C12.29 10.9698 12.54 10.8999 12.7598 10.7699Z" fill="rgb(0,0,0)" fill-rule="evenodd" />
</svg>
