<svg viewBox="0 0 32 32" xmlns="http://www.w3.org/2000/svg" xmlns:xlink="http://www.w3.org/1999/xlink" width="32.000000" height="32.000000" fill="none" clip-path="url(#clipPath_87)" customFrame="url(#clipPath_87)">
	<defs>
		<clipPath id="clipPath_87">
			<rect width="32.000000" height="32.000000" x="0.000000" y="0.000000" rx="9.000000" fill="rgb(255,255,255)" />
		</clipPath>
	</defs>
	<rect id="32 / Yaga / Project-Pages / Dashboard_gray" width="32.000000" height="32.000000" x="0.000000" y="0.000000" rx="9.000000" fill="rgb(241,243,249)" />
	<path id="Vector" d="M8.49747 21.6345C8.30294 21.2002 8.13185 20.7545 7.99435 20.2974C7.86856 19.886 7.76622 19.4631 7.69747 19.0403C7.59435 18.4231 7.53731 17.806 7.53731 17.1659C7.53731 16.3659 7.617 15.5774 7.78888 14.8116C7.9256 14.1717 8.13185 13.5431 8.39435 12.926C8.65763 12.3088 8.96622 11.726 9.33185 11.1659C9.73185 10.5603 10.1998 9.98878 10.7256 9.46309C11.2514 8.93741 11.8233 8.46876 12.4287 8.06876C12.9772 7.70313 13.5717 7.39454 14.1889 7.13165C14.8061 6.86876 15.4342 6.67452 16.0741 6.52598C16.1428 6.51456 16.2233 6.50313 16.2912 6.49171C11.7889 5.01739 6.90841 7.40596 5.33184 11.8974C3.99433 15.7146 5.46856 19.8403 8.66857 22.0116C8.61154 21.886 8.54279 21.7717 8.49747 21.6459L8.49747 21.6345Z" fill="rgb(208,212,220)" fill-rule="evenodd" />
	<path id="Vector" d="M18.4288 8.43448C13.6061 8.43448 9.69748 12.3431 9.69748 17.1659C9.69748 18.9145 10.2115 20.5373 11.092 21.9088L10.1201 24.4802C9.78888 25.3488 10.635 26.1945 11.503 25.8745L14.2686 24.8573C15.503 25.5317 16.9202 25.9088 18.4288 25.9088C23.2514 25.9088 27.16 22.0002 27.16 17.1774C27.16 12.3545 23.2514 8.44591 18.4288 8.44591L18.4288 8.43448ZM18.4288 12.3431C19.4116 12.3431 20.2233 13.1431 20.2233 14.1373C20.2233 15.1317 19.4233 15.9317 18.4288 15.9317C17.435 15.9317 16.635 15.1317 16.635 14.1373C16.635 13.1431 17.435 12.3431 18.4288 12.3431ZM20.2116 21.1774C20.2116 21.6459 19.835 22.0231 19.3663 22.0231L17.4686 22.0231C17.0006 22.0231 16.6233 21.6459 16.6233 21.1774L16.6233 17.6459C16.6233 17.1774 17.0006 16.8002 17.4686 16.8002L19.3663 16.8002C19.835 16.8002 20.2116 17.1774 20.2116 17.6459L20.2116 21.1774Z" fill="rgb(208,212,220)" fill-rule="evenodd" />
	<path id="Vector" d="M18.4288 8.43448C13.6061 8.43448 9.69748 12.3431 9.69748 17.1659C9.69748 18.9145 10.2115 20.5373 11.092 21.9088L10.1201 24.4802C9.78888 25.3488 10.635 26.1945 11.503 25.8745L14.2686 24.8573C15.503 25.5317 16.9202 25.9088 18.4288 25.9088C23.2514 25.9088 27.16 22.0002 27.16 17.1774C27.16 12.3545 23.2514 8.44591 18.4288 8.44591L18.4288 8.43448ZM18.4288 12.3431C19.4116 12.3431 20.2233 13.1431 20.2233 14.1373C20.2233 15.1317 19.4233 15.9317 18.4288 15.9317C17.435 15.9317 16.635 15.1317 16.635 14.1373C16.635 13.1431 17.435 12.3431 18.4288 12.3431ZM20.2116 21.1774C20.2116 21.6459 19.835 22.0231 19.3663 22.0231L17.4686 22.0231C17.0006 22.0231 16.6233 21.6459 16.6233 21.1774L16.6233 17.6459C16.6233 17.1774 17.0006 16.8002 17.4686 16.8002L19.3663 16.8002C19.835 16.8002 20.2116 17.1774 20.2116 17.6459L20.2116 21.1774Z" fill="rgb(161,169,184)" fill-rule="evenodd" />
</svg>
