<svg viewBox="0 0 32 32" xmlns="http://www.w3.org/2000/svg" xmlns:xlink="http://www.w3.org/1999/xlink" width="32.000000" height="32.000000" fill="none" clip-path="url(#clipPath_91)" customFrame="url(#clipPath_91)">
	<defs>
		<clipPath id="clipPath_91">
			<rect width="32.000000" height="32.000000" x="0.000000" y="0.000000" rx="9.000000" fill="rgb(255,255,255)" />
		</clipPath>
	</defs>
	<rect id="32 / Yaga / Project-Pages / Dashboard_color" width="32.000000" height="32.000000" x="0.000000" y="0.000000" rx="9.000000" fill="rgb(59,188,158)" fill-opacity="0.100000001" />
	<path id="Vector" d="M8.49845 21.6343C8.30392 21.2 8.13282 20.7543 7.99532 20.2972C7.86954 19.8857 7.7672 19.4629 7.69845 19.04C7.59532 18.4228 7.53829 17.8058 7.53829 17.1657C7.53829 16.3657 7.61798 15.5771 7.78985 14.8114C7.92657 14.1715 8.13282 13.5429 8.39532 12.9258C8.65861 12.3086 8.9672 11.7258 9.33283 11.1657C9.73283 10.5601 10.2008 9.98857 10.7266 9.46288C11.2524 8.9372 11.8242 8.46854 12.4297 8.06854C12.9782 7.70292 13.5727 7.39432 14.1899 7.13143C14.8071 6.86854 15.4352 6.6743 16.075 6.52577C16.1438 6.51434 16.2243 6.50292 16.2922 6.49149C11.7899 5.01717 6.90938 7.40575 5.33281 11.8972C3.99531 15.7144 5.46953 19.84 8.66954 22.0114C8.61251 21.8857 8.54376 21.7715 8.49845 21.6457L8.49845 21.6343Z" fill="rgb(59,188,158)" fill-opacity="0.300000012" fill-rule="evenodd" />
	<path id="Vector" d="M18.4297 8.43427C13.6071 8.43427 9.69845 12.3429 9.69845 17.1657C9.69845 18.9143 10.2125 20.5371 11.093 21.9086L10.1211 24.48C9.78986 25.3485 10.636 26.1942 11.5039 25.8743L14.2696 24.8571C15.5039 25.5314 16.9211 25.9086 18.4297 25.9086C23.2524 25.9086 27.161 22 27.161 17.1771C27.161 12.3543 23.2524 8.44569 18.4297 8.44569L18.4297 8.43427ZM18.4297 12.3429C19.4125 12.3429 20.2243 13.1429 20.2243 14.1371C20.2243 15.1314 19.4243 15.9314 18.4297 15.9314C17.436 15.9314 16.636 15.1314 16.636 14.1371C16.636 13.1429 17.436 12.3429 18.4297 12.3429ZM20.2126 21.1771C20.2126 21.6457 19.836 22.0229 19.3672 22.0229L17.4696 22.0229C17.0016 22.0229 16.6243 21.6457 16.6243 21.1771L16.6243 17.6457C16.6243 17.1771 17.0016 16.8 17.4696 16.8L19.3672 16.8C19.836 16.8 20.2126 17.1771 20.2126 17.6457L20.2126 21.1771Z" fill="rgb(59,188,158)" fill-opacity="0.300000012" fill-rule="evenodd" />
	<path id="Vector" d="M18.4297 8.43427C13.6071 8.43427 9.69845 12.3429 9.69845 17.1657C9.69845 18.9143 10.2125 20.5371 11.093 21.9086L10.1211 24.48C9.78986 25.3485 10.636 26.1942 11.5039 25.8743L14.2696 24.8571C15.5039 25.5314 16.9211 25.9086 18.4297 25.9086C23.2524 25.9086 27.161 22 27.161 17.1771C27.161 12.3543 23.2524 8.44569 18.4297 8.44569L18.4297 8.43427ZM18.4297 12.3429C19.4125 12.3429 20.2243 13.1429 20.2243 14.1371C20.2243 15.1314 19.4243 15.9314 18.4297 15.9314C17.436 15.9314 16.636 15.1314 16.636 14.1371C16.636 13.1429 17.436 12.3429 18.4297 12.3429ZM20.2126 21.1771C20.2126 21.6457 19.836 22.0229 19.3672 22.0229L17.4696 22.0229C17.0016 22.0229 16.6243 21.6457 16.6243 21.1771L16.6243 17.6457C16.6243 17.1771 17.0016 16.8 17.4696 16.8L19.3672 16.8C19.836 16.8 20.2126 17.1771 20.2126 17.6457L20.2126 21.1771Z" fill="rgb(59,188,158)" fill-rule="evenodd" />
</svg>
