<svg viewBox="0 0 32 32" xmlns="http://www.w3.org/2000/svg" xmlns:xlink="http://www.w3.org/1999/xlink" width="32.000000" height="32.000000" fill="none" clip-path="url(#clipPath_131)" customFrame="url(#clipPath_131)">
	<defs>
		<clipPath id="clipPath_131">
			<rect width="32.000000" height="32.000000" x="0.000000" y="0.000000" rx="9.000000" fill="rgb(255,255,255)" />
		</clipPath>
	</defs>
	<rect id="32 / Yaga / Project-Pages / Analytics_accent" width="32.000000" height="32.000000" x="0.000000" y="0.000000" rx="9.000000" fill="rgb(0,85,255)" fill-opacity="0.100000001" />
	<path id="Vector" d="M23.9302 10.6C22.9466 9.18288 21.6552 8.11999 20.1928 7.43425C19.7467 7.21716 19.2217 7.46853 19.0498 7.93718L16.5467 14.8286C16.3303 15.4114 16.7639 16.04 17.3928 16.04L24.7185 16.1086C25.2216 16.1086 25.6325 15.7086 25.5872 15.2172C25.438 13.5142 24.8442 11.9372 23.9185 10.6114L23.9302 10.6Z" fill="rgb(0,85,255)" fill-opacity="0.300000012" fill-rule="evenodd" />
	<path id="Vector" d="M24.7067 17.9143L17.3811 17.8458C17.1412 17.8458 16.9131 17.8115 16.6842 17.7544C16.4788 17.6972 16.2842 17.6172 16.1014 17.5143C15.9186 17.4115 15.7584 17.2972 15.5983 17.1601C15.4389 17.0229 15.2897 16.8515 15.1639 16.6686C15.0389 16.4858 14.9358 16.2915 14.8561 16.0972C14.7874 15.9143 14.7303 15.7087 14.7069 15.5029C14.6725 15.2858 14.6725 15.08 14.6842 14.8744C14.7069 14.6458 14.753 14.4173 14.8327 14.1886L17.3584 7.32009C17.4272 7.13728 17.5069 6.9658 17.61 6.80583C17.0155 6.69148 16.41 6.62292 15.7928 6.62292C10.6046 6.6115 6.41016 10.8058 6.41016 15.9944C6.41016 21.183 10.6046 25.3772 15.7928 25.3772C20.3185 25.3772 24.1013 22.1658 24.981 17.8915C24.8896 17.8915 24.7982 17.9143 24.7067 17.9143Z" fill="rgb(0,85,255)" fill-opacity="0.300000012" fill-rule="evenodd" />
	<path id="Vector" d="M24.7067 17.9143L17.3811 17.8458C17.1412 17.8458 16.9131 17.8115 16.6842 17.7544C16.4788 17.6972 16.2842 17.6172 16.1014 17.5143C15.9186 17.4115 15.7584 17.2972 15.5983 17.1601C15.4389 17.0229 15.2897 16.8515 15.1639 16.6686C15.0389 16.4858 14.9358 16.2915 14.8561 16.0972C14.7874 15.9143 14.7303 15.7087 14.7069 15.5029C14.6725 15.2858 14.6725 15.08 14.6842 14.8744C14.7069 14.6458 14.753 14.4173 14.8327 14.1886L17.3584 7.32009C17.4272 7.13728 17.5069 6.9658 17.61 6.80583C17.0155 6.69148 16.41 6.62292 15.7928 6.62292C10.6046 6.6115 6.41016 10.8058 6.41016 15.9944C6.41016 21.183 10.6046 25.3772 15.7928 25.3772C20.3185 25.3772 24.1013 22.1658 24.981 17.8915C24.8896 17.8915 24.7982 17.9143 24.7067 17.9143Z" fill="rgb(0,85,255)" fill-rule="evenodd" />
</svg>
