<svg viewBox="0 0 32 32" xmlns="http://www.w3.org/2000/svg" xmlns:xlink="http://www.w3.org/1999/xlink" width="32.000000" height="32.000000" fill="none" clip-path="url(#clipPath_34)" customFrame="url(#clipPath_34)">
	<defs>
		<clipPath id="clipPath_34">
			<rect width="32.000000" height="32.000000" x="0.000000" y="0.000000" rx="9.000000" fill="rgb(255,255,255)" />
		</clipPath>
	</defs>
	<rect id="32 / Yaga / Project-Pages / Task_gray" width="32.000000" height="32.000000" x="0.000000" y="0.000000" rx="9.000000" fill="rgb(241,243,249)" />
	<path id="Vector" d="M17.234 18.3656C17.1082 18.4913 16.9707 18.6057 16.8223 18.6971C16.6848 18.7885 16.5363 18.857 16.3879 18.9257C16.2395 18.9828 16.0793 19.0285 15.9309 19.0628C15.7707 19.0971 15.5996 19.1085 15.4278 19.1085C15.2567 19.1085 15.0965 19.0971 14.9254 19.0628C14.7653 19.0285 14.6168 18.9828 14.4684 18.9257C14.3192 18.8685 14.1707 18.7885 14.034 18.6971C13.8848 18.6057 13.7481 18.4913 13.6223 18.3656C13.4965 18.2399 13.3825 18.1027 13.2911 17.9542C13.1997 17.8171 13.1309 17.6685 13.0622 17.5199C13.0051 17.3714 12.9598 17.2113 12.9255 17.0628C12.8911 16.9027 12.8794 16.7313 12.8794 16.56C12.8794 16.3885 12.8911 16.2285 12.9255 16.057C12.9598 15.8971 13.0051 15.7485 13.0622 15.5999C13.1192 15.4514 13.1997 15.3027 13.2911 15.1656C13.3825 15.0171 13.4965 14.8799 13.6223 14.7542L16.6848 11.6913C16.2848 11.5885 15.8738 11.5199 15.4395 11.5199C12.6739 11.5199 10.4224 13.7714 10.4224 16.5485C10.4224 19.3256 12.6739 21.577 15.4395 21.577C18.205 21.577 20.4683 19.3257 20.4683 16.5485C20.4683 16.1142 20.3995 15.7027 20.2964 15.3027L17.234 18.3656L17.234 18.3656Z" fill="rgb(161,169,184)" fill-rule="evenodd" />
	<path id="Vector" d="M24.1596 13.4971C24.1026 13.5428 24.0346 13.577 23.9768 13.6114C23.9088 13.6457 23.851 13.68 23.7831 13.7143C23.6456 13.7714 23.5089 13.8285 23.3596 13.8628C23.2112 13.8971 23.0745 13.9313 22.9261 13.9428C22.8573 13.9428 22.7768 13.9428 22.7089 13.9428C22.6284 13.9428 22.5597 13.9428 22.4917 13.9428C22.3433 13.9313 22.194 13.9085 22.0573 13.8628L21.8284 13.8057L21.68 13.9542C22.0229 14.7542 22.2058 15.6343 22.2058 16.56C22.2058 20.2742 19.1769 23.3028 15.4629 23.3028C11.7489 23.3028 8.72007 20.2742 8.72007 16.56C8.72007 12.8457 11.7489 9.81709 15.4629 9.81709C16.3887 9.81709 17.2683 10 18.0683 10.3428L18.2175 10.1942L18.1488 9.9542C18.0918 9.73711 18.0574 9.50849 18.0574 9.2914C18.0574 9.07422 18.0918 8.8457 18.1488 8.62851C18.2058 8.41142 18.2972 8.20566 18.4004 8.01142C18.4918 7.85136 18.6175 7.71425 18.7433 7.56562C17.7144 7.18857 16.6176 6.97138 15.4629 6.97138C10.1833 6.97138 5.89746 11.2571 5.89746 16.5371C5.89746 21.8171 10.1833 26.1028 15.4629 26.1028C20.7433 26.1028 25.0284 21.8171 25.0284 16.5371C25.0284 15.3828 24.8112 14.2742 24.4346 13.2571C24.3542 13.3371 24.2627 13.4171 24.1713 13.4742L24.1596 13.4971Z" fill="rgb(161,169,184)" fill-rule="evenodd" />
	<path id="Vector" d="M24.1596 13.4971C24.1026 13.5428 24.0346 13.577 23.9768 13.6114C23.9088 13.6457 23.851 13.68 23.7831 13.7143C23.6456 13.7714 23.5089 13.8285 23.3596 13.8628C23.2112 13.8971 23.0745 13.9313 22.9261 13.9428C22.8573 13.9428 22.7768 13.9428 22.7089 13.9428C22.6284 13.9428 22.5597 13.9428 22.4917 13.9428C22.3433 13.9313 22.194 13.9085 22.0573 13.8628L21.8284 13.8057L21.68 13.9542C22.0229 14.7542 22.2058 15.6343 22.2058 16.56C22.2058 20.2742 19.1769 23.3028 15.4629 23.3028C11.7489 23.3028 8.72007 20.2742 8.72007 16.56C8.72007 12.8457 11.7489 9.81709 15.4629 9.81709C16.3887 9.81709 17.2683 10 18.0683 10.3428L18.2175 10.1942L18.1488 9.9542C18.0918 9.73711 18.0574 9.50849 18.0574 9.2914C18.0574 9.07422 18.0918 8.8457 18.1488 8.62851C18.2058 8.41142 18.2972 8.20566 18.4004 8.01142C18.4918 7.85136 18.6175 7.71425 18.7433 7.56562C17.7144 7.18857 16.6176 6.97138 15.4629 6.97138C10.1833 6.97138 5.89746 11.2571 5.89746 16.5371C5.89746 21.8171 10.1833 26.1028 15.4629 26.1028C20.7433 26.1028 25.0284 21.8171 25.0284 16.5371C25.0284 15.3828 24.8112 14.2742 24.4346 13.2571C24.3542 13.3371 24.2627 13.4171 24.1713 13.4742L24.1596 13.4971Z" fill="rgb(208,212,220)" fill-rule="evenodd" />
	<path id="Vector" d="M20.1144 10.7086L19.7941 9.50859C19.7597 9.36006 19.7597 9.22285 19.7941 9.07431C19.8285 8.92578 19.9081 8.81142 20.0113 8.69716L22.594 6.11435C22.7542 5.95429 22.9479 5.87431 23.1768 5.87431C23.2909 5.87431 23.394 5.89716 23.4971 5.93144C23.5995 5.97715 23.6799 6.03427 23.7713 6.11435C23.794 6.1372 23.8167 6.17148 23.8401 6.19433C23.8628 6.21718 23.8854 6.25146 23.8971 6.28574C23.9315 6.34287 23.9651 6.41142 23.9768 6.48007L24.3081 7.68008L25.508 8.01142C25.6229 8.0457 25.7143 8.0915 25.794 8.16006C25.8737 8.22861 25.9424 8.30859 25.9994 8.41142C26.1143 8.60576 26.1369 8.82285 26.0799 9.04004C26.0565 9.10859 26.0338 9.17715 25.9994 9.23427C25.9651 9.2915 25.9197 9.34863 25.8737 9.40576L23.2909 11.9886C23.2909 11.9886 23.1768 12.0801 23.1198 12.1258C23.0628 12.1601 22.994 12.1943 22.9143 12.2058C22.8456 12.2286 22.7651 12.24 22.6972 12.2286C22.6284 12.2286 22.5479 12.2286 22.48 12.1943L21.2909 11.8743L16.0113 17.1543C15.691 17.4743 15.1653 17.4743 14.834 17.1543C14.5145 16.8343 14.5145 16.3086 14.834 15.9771L20.1144 10.6972L20.1144 10.7086Z" fill="rgb(161,169,184)" fill-rule="evenodd" />
	<path id="Vector" d="M20.1144 10.7086L19.7941 9.50859C19.7597 9.36006 19.7597 9.22285 19.7941 9.07431C19.8285 8.92578 19.9081 8.81142 20.0113 8.69716L22.594 6.11435C22.7542 5.95429 22.9479 5.87431 23.1768 5.87431C23.2909 5.87431 23.394 5.89716 23.4971 5.93144C23.5995 5.97715 23.6799 6.03427 23.7713 6.11435C23.794 6.1372 23.8167 6.17148 23.8401 6.19433C23.8628 6.21718 23.8854 6.25146 23.8971 6.28574C23.9315 6.34287 23.9651 6.41142 23.9768 6.48007L24.3081 7.68008L25.508 8.01142C25.6229 8.0457 25.7143 8.0915 25.794 8.16006C25.8737 8.22861 25.9424 8.30859 25.9994 8.41142C26.1143 8.60576 26.1369 8.82285 26.0799 9.04004C26.0565 9.10859 26.0338 9.17715 25.9994 9.23427C25.9651 9.2915 25.9197 9.34863 25.8737 9.40576L23.2909 11.9886C23.2909 11.9886 23.1768 12.0801 23.1198 12.1258C23.0628 12.1601 22.994 12.1943 22.9143 12.2058C22.8456 12.2286 22.7651 12.24 22.6972 12.2286C22.6284 12.2286 22.5479 12.2286 22.48 12.1943L21.2909 11.8743L16.0113 17.1543C15.691 17.4743 15.1653 17.4743 14.834 17.1543C14.5145 16.8343 14.5145 16.3086 14.834 15.9771L20.1144 10.6972L20.1144 10.7086Z" fill="rgb(161,169,184)" fill-rule="evenodd" />
</svg>
