<svg viewBox="0 0 32 32" xmlns="http://www.w3.org/2000/svg" xmlns:xlink="http://www.w3.org/1999/xlink" width="32.000000" height="32.000000" fill="none" clip-path="url(#clipPath_83)" customFrame="url(#clipPath_83)">
	<defs>
		<clipPath id="clipPath_83">
			<rect width="32.000000" height="32.000000" x="0.000000" y="0.000000" rx="9.000000" fill="rgb(255,255,255)" />
		</clipPath>
	</defs>
	<rect id="32 / Yaga / Project-Pages / Scrum_accent" width="32.000000" height="32.000000" x="0.000000" y="0.000000" rx="9.000000" fill="rgb(0,85,255)" fill-opacity="0.100000001" />
	<path id="Vector" d="M16.5885 8.80789C16.8635 8.5907 17.24 8.55642 17.5721 8.71638C17.8807 8.87644 18.0861 9.19636 18.0861 9.55066L18.0861 13.4364C18.0861 14.1107 18.6346 14.6593 19.3088 14.6593C19.983 14.6593 20.5314 14.1107 20.5314 13.4364L20.5314 13.0021C20.5314 12.6364 20.7377 12.3164 21.0572 12.1679C21.3775 12.0193 21.7658 12.0536 22.04 12.2821C23.2174 13.2193 24.0291 14.2364 24.5314 15.3679C25.0463 16.4879 25.2174 17.665 25.2174 18.8879C25.2174 22.8536 21.8346 26.0308 18.0057 26.0308C14.1775 26.0308 11.0346 22.8079 11.0346 18.8879C11.0346 15.8707 12.4635 13.345 13.8229 11.6078C14.5088 10.7392 15.183 10.0422 15.7088 9.57351C15.9604 9.33357 16.1885 9.15066 16.3377 9.02498C16.4057 8.95642 16.4744 8.91072 16.5205 8.87644L16.6002 8.83074L16.5885 8.80789Z" fill="rgb(0,85,255)" fill-rule="evenodd" />
	<path id="Vector" d="M10.6111 24.0077C10.2682 23.5049 9.98223 22.9677 9.75332 22.3963C9.54785 21.882 9.3877 21.3677 9.27363 20.842C9.13613 20.2019 9.06816 19.5506 9.06816 18.8763C9.06816 18.7391 9.06816 18.6019 9.06816 18.4648C9.1252 16.9562 9.46816 15.4592 10.108 13.9734C10.6338 12.7391 11.3533 11.5391 12.2682 10.3734C12.565 9.99627 12.8619 9.64197 13.1822 9.28767C13.5596 8.87625 13.9596 8.47625 14.3705 8.0991C14.4166 8.05339 14.508 7.97341 14.5768 7.91629L14.5768 6.9905C14.5768 6.60193 14.3479 6.24773 14.0049 6.07625C13.651 5.90486 13.2393 5.93914 12.9307 6.17908L12.851 6.2363C12.8049 6.27058 12.7361 6.32771 12.6564 6.39627C12.4963 6.5448 12.2447 6.73914 11.9705 7.00193C11.3994 7.52771 10.6447 8.29343 9.89082 9.2534C8.35957 11.1734 6.78223 13.962 6.78223 17.2877C6.78223 20.2477 8.38223 22.8534 10.7705 24.2019C10.7252 24.1334 10.6564 24.0763 10.6111 24.0077Z" fill="rgb(0,85,255)" fill-rule="evenodd" />
	<path id="Vector" d="M10.6111 24.0077C10.2682 23.5049 9.98223 22.9677 9.75332 22.3963C9.54785 21.882 9.3877 21.3677 9.27363 20.842C9.13613 20.2019 9.06816 19.5506 9.06816 18.8763C9.06816 18.7391 9.06816 18.6019 9.06816 18.4648C9.1252 16.9562 9.46816 15.4592 10.108 13.9734C10.6338 12.7391 11.3533 11.5391 12.2682 10.3734C12.565 9.99627 12.8619 9.64197 13.1822 9.28767C13.5596 8.87625 13.9596 8.47625 14.3705 8.0991C14.4166 8.05339 14.508 7.97341 14.5768 7.91629L14.5768 6.9905C14.5768 6.60193 14.3479 6.24773 14.0049 6.07625C13.651 5.90486 13.2393 5.93914 12.9307 6.17908L12.851 6.2363C12.8049 6.27058 12.7361 6.32771 12.6564 6.39627C12.4963 6.5448 12.2447 6.73914 11.9705 7.00193C11.3994 7.52771 10.6447 8.29343 9.89082 9.2534C8.35957 11.1734 6.78223 13.962 6.78223 17.2877C6.78223 20.2477 8.38223 22.8534 10.7705 24.2019C10.7252 24.1334 10.6564 24.0763 10.6111 24.0077Z" fill="rgb(0,85,255)" fill-opacity="0.300000012" fill-rule="evenodd" />
</svg>
