<svg viewBox="0 0 32 32" xmlns="http://www.w3.org/2000/svg" xmlns:xlink="http://www.w3.org/1999/xlink" width="32.000000" height="32.000000" fill="none" clip-path="url(#clipPath_103)" customFrame="url(#clipPath_103)">
	<defs>
		<clipPath id="clipPath_103">
			<rect width="32.000000" height="32.000000" x="0.000000" y="0.000000" rx="9.000000" fill="rgb(255,255,255)" />
		</clipPath>
	</defs>
	<rect id="32 / Yaga / Project-Pages / Team_gray" width="32.000000" height="32.000000" x="0.000000" y="0.000000" rx="9.000000" fill="rgb(241,243,249)" />
	<path id="Vector" d="M21.7415 12.8973C21.7415 10.9772 20.1532 9.46864 18.2563 9.46864C16.3586 9.46864 14.7703 10.9772 14.7703 12.8973C14.7703 14.8172 16.3586 16.3258 18.2563 16.3258C20.1532 16.3258 21.7415 14.8172 21.7415 12.8973ZM24.3478 20.5544C21.3759 16.4172 15.0672 16.0058 12.3132 20.1887C12.0843 20.5315 11.7757 21.16 11.7077 21.6629C11.6843 21.8115 11.6616 22.2572 11.6616 22.2572C11.6616 23.7087 12.839 24.8744 14.2789 24.8744L22.222 24.8744C23.6736 24.8744 24.908 23.6973 24.8393 22.2572C24.8158 21.8229 24.6674 20.9887 24.3478 20.5544Z" fill="rgb(161,169,184)" fill-rule="evenodd" />
	<path id="Vector" d="M13.0109 13.9257C12.9421 13.5942 12.8968 13.2514 12.8968 12.8971C12.8968 12.4971 12.9421 12.1085 13.0226 11.7314C13.0906 11.4114 13.1937 11.1028 13.3304 10.8057C13.4562 10.5199 13.6054 10.2457 13.7648 9.99423C13.971 9.68563 14.2109 9.38856 14.4851 9.11425C14.725 8.87421 14.9883 8.66854 15.2625 8.48563C15.5023 8.32567 15.7648 8.18856 16.0391 8.07421C15.4226 7.49139 14.5765 7.12567 13.6624 7.12567C11.7647 7.12567 10.1764 8.63426 10.1764 10.5543C10.1764 12.2457 11.4108 13.6285 13.0109 13.9257Z" fill="rgb(161,169,184)" fill-rule="evenodd" />
	<path id="Vector" d="M13.0109 13.9257C12.9421 13.5942 12.8968 13.2514 12.8968 12.8971C12.8968 12.4971 12.9421 12.1085 13.0226 11.7314C13.0906 11.4114 13.1937 11.1028 13.3304 10.8057C13.4562 10.5199 13.6054 10.2457 13.7648 9.99423C13.971 9.68563 14.2109 9.38856 14.4851 9.11425C14.725 8.87421 14.9883 8.66854 15.2625 8.48563C15.5023 8.32567 15.7648 8.18856 16.0391 8.07421C15.4226 7.49139 14.5765 7.12567 13.6624 7.12567C11.7647 7.12567 10.1764 8.63426 10.1764 10.5543C10.1764 12.2457 11.4108 13.6285 13.0109 13.9257Z" fill="rgb(208,212,220)" fill-rule="evenodd" />
	<path id="Vector" d="M9.78814 22.257L9.75377 21.7199C9.74205 20.6684 10.1421 20.0398 10.371 19.6628C10.4389 19.5484 10.8389 19.0227 10.8389 19.0227L10.8389 18.9999C11.1819 18.5999 11.5366 18.2227 11.9249 17.8799C12.1077 17.7199 12.2905 17.5713 12.4851 17.4227C12.7593 17.217 13.0452 17.0227 13.3421 16.8398C13.6281 16.6684 13.9132 16.5199 14.2109 16.3827C14.039 16.1999 13.8906 15.9941 13.7539 15.7885C13.6054 15.5599 13.4679 15.3085 13.3538 15.0456C11.2507 15.1256 8.86234 16.0742 7.63888 18.0398C7.36465 18.5199 7.15918 19.2628 7.15918 20.0742C7.18184 21.5141 8.24514 22.5313 9.68502 22.5313L9.82174 22.5313C9.82174 22.5313 9.78814 22.3484 9.78814 22.257Z" fill="rgb(161,169,184)" fill-rule="evenodd" />
	<path id="Vector" d="M9.78814 22.257L9.75377 21.7199C9.74205 20.6684 10.1421 20.0398 10.371 19.6628C10.4389 19.5484 10.8389 19.0227 10.8389 19.0227L10.8389 18.9999C11.1819 18.5999 11.5366 18.2227 11.9249 17.8799C12.1077 17.7199 12.2905 17.5713 12.4851 17.4227C12.7593 17.217 13.0452 17.0227 13.3421 16.8398C13.6281 16.6684 13.9132 16.5199 14.2109 16.3827C14.039 16.1999 13.8906 15.9941 13.7539 15.7885C13.6054 15.5599 13.4679 15.3085 13.3538 15.0456C11.2507 15.1256 8.86234 16.0742 7.63888 18.0398C7.36465 18.5199 7.15918 19.2628 7.15918 20.0742C7.18184 21.5141 8.24514 22.5313 9.68502 22.5313L9.82174 22.5313C9.82174 22.5313 9.78814 22.3484 9.78814 22.257Z" fill="rgb(208,212,220)" fill-rule="evenodd" />
</svg>
