<svg viewBox="0 0 32 32" xmlns="http://www.w3.org/2000/svg" xmlns:xlink="http://www.w3.org/1999/xlink" width="32.000000" height="32.000000" fill="none" clip-path="url(#clipPath_55)" customFrame="url(#clipPath_55)">
	<defs>
		<clipPath id="clipPath_55">
			<rect width="32.000000" height="32.000000" x="0.000000" y="0.000000" rx="9.000000" fill="rgb(255,255,255)" />
		</clipPath>
	</defs>
	<rect id="32 / Yaga / Project-Pages / Article_gray" width="32.000000" height="32.000000" x="0.000000" y="0.000000" rx="9.000000" fill="rgb(241,243,249)" />
	<path id="Vector" d="M19.7477 11.6972L22.9477 11.6972C23.8734 11.6972 24.3422 10.5658 23.6789 9.91435L20.4789 6.76005C19.8281 6.10859 18.7078 6.57724 18.7078 7.50292L18.7078 10.6572C18.7078 11.2286 19.1766 11.6972 19.7477 11.6972Z" fill="rgb(161,169,184)" fill-rule="evenodd" />
	<path id="Vector" d="M21.9195 21.7087C22.1945 21.7087 22.4688 21.6516 22.7195 21.5716C23.6688 21.2516 24.3656 20.4059 24.4453 19.3772C24.4453 19.3087 24.4688 19.2287 24.4688 19.1602L24.4688 13.3772C24.4688 13.3772 24.3883 13.4229 24.3539 13.4458C24.2172 13.5144 24.0688 13.5716 23.9086 13.6287C23.7945 13.663 23.6914 13.6973 23.5773 13.7201C23.3711 13.7658 23.1656 13.7772 22.9484 13.7772L19.7484 13.7772C19.5312 13.7772 19.3141 13.7544 19.1086 13.7087C18.9141 13.663 18.7195 13.6059 18.5367 13.5259C18.3539 13.4458 18.1828 13.3544 18.0227 13.2516C17.8516 13.1373 17.6914 13.0115 17.5539 12.863C17.4172 12.7144 17.2797 12.5544 17.1656 12.3944C17.0625 12.2344 16.9602 12.063 16.8914 11.8801C16.8109 11.6973 16.7539 11.503 16.7086 11.3087C16.6625 11.103 16.6398 10.8858 16.6398 10.6686L16.6398 7.51445C16.6398 7.29726 16.6625 7.0915 16.6969 6.89726C16.7195 6.783 16.743 6.68007 16.7773 6.56581C16.8227 6.41728 16.8797 6.26865 16.9602 6.13154C16.9602 6.12011 16.9711 6.10869 16.9828 6.09726L13.8055 6.09726C13.7031 6.09726 13.6109 6.12011 13.5086 6.13154C12.2625 6.28007 11.2914 7.32011 11.257 8.60009C11.257 8.62294 11.257 8.63437 11.257 8.65722L11.257 19.183C11.257 19.263 11.2688 19.3315 11.2797 19.4001C11.3711 20.4287 12.057 21.2744 13.0055 21.5944C13.257 21.6744 13.5195 21.7315 13.8055 21.7315L21.9313 21.7315L21.9195 21.7087Z" fill="rgb(161,169,184)" fill-rule="evenodd" />
	<path id="Vector" d="M21.9195 21.7087C22.1945 21.7087 22.4688 21.6516 22.7195 21.5716C23.6688 21.2516 24.3656 20.4059 24.4453 19.3772C24.4453 19.3087 24.4688 19.2287 24.4688 19.1602L24.4688 13.3772C24.4688 13.3772 24.3883 13.4229 24.3539 13.4458C24.2172 13.5144 24.0688 13.5716 23.9086 13.6287C23.7945 13.663 23.6914 13.6973 23.5773 13.7201C23.3711 13.7658 23.1656 13.7772 22.9484 13.7772L19.7484 13.7772C19.5312 13.7772 19.3141 13.7544 19.1086 13.7087C18.9141 13.663 18.7195 13.6059 18.5367 13.5259C18.3539 13.4458 18.1828 13.3544 18.0227 13.2516C17.8516 13.1373 17.6914 13.0115 17.5539 12.863C17.4172 12.7144 17.2797 12.5544 17.1656 12.3944C17.0625 12.2344 16.9602 12.063 16.8914 11.8801C16.8109 11.6973 16.7539 11.503 16.7086 11.3087C16.6625 11.103 16.6398 10.8858 16.6398 10.6686L16.6398 7.51445C16.6398 7.29726 16.6625 7.0915 16.6969 6.89726C16.7195 6.783 16.743 6.68007 16.7773 6.56581C16.8227 6.41728 16.8797 6.26865 16.9602 6.13154C16.9602 6.12011 16.9711 6.10869 16.9828 6.09726L13.8055 6.09726C13.7031 6.09726 13.6109 6.12011 13.5086 6.13154C12.2625 6.28007 11.2914 7.32011 11.257 8.60009C11.257 8.62294 11.257 8.63437 11.257 8.65722L11.257 19.183C11.257 19.263 11.2688 19.3315 11.2797 19.4001C11.3711 20.4287 12.057 21.2744 13.0055 21.5944C13.257 21.6744 13.5195 21.7315 13.8055 21.7315L21.9313 21.7315L21.9195 21.7087Z" fill="rgb(161,169,184)" fill-rule="evenodd" />
	<path id="Vector" d="M21.9195 23.4114L13.7938 23.4114C11.4516 23.4114 9.54297 21.5029 9.54297 19.1601L9.54297 9.61718C8.33125 10.4515 7.53125 11.8229 7.53125 13.4L7.53125 21.2972C7.53125 23.8344 9.6 25.9029 12.1367 25.9029L17.9195 25.9029C19.6914 25.9029 21.2227 24.8857 21.9883 23.4C21.9656 23.4 21.943 23.4 21.9195 23.4L21.9195 23.4114ZM9.23438 21.2972C9.23438 21.2972 9.23438 21.3543 9.23438 21.3886C9.23438 21.3543 9.23438 21.3314 9.23438 21.2972Z" fill="rgb(161,169,184)" fill-rule="evenodd" />
	<path id="Vector" d="M21.9195 23.4114L13.7938 23.4114C11.4516 23.4114 9.54297 21.5029 9.54297 19.1601L9.54297 9.61718C8.33125 10.4515 7.53125 11.8229 7.53125 13.4L7.53125 21.2972C7.53125 23.8344 9.6 25.9029 12.1367 25.9029L17.9195 25.9029C19.6914 25.9029 21.2227 24.8857 21.9883 23.4C21.9656 23.4 21.943 23.4 21.9195 23.4L21.9195 23.4114ZM9.23438 21.2972C9.23438 21.2972 9.23438 21.3543 9.23438 21.3886C9.23438 21.3543 9.23438 21.3314 9.23438 21.2972Z" fill="rgb(208,212,220)" fill-rule="evenodd" />
</svg>
