<svg viewBox="0 0 32 32" xmlns="http://www.w3.org/2000/svg" xmlns:xlink="http://www.w3.org/1999/xlink" width="32.000000" height="32.000000" fill="none" clip-path="url(#clipPath_47)" customFrame="url(#clipPath_47)">
	<defs>
		<clipPath id="clipPath_47">
			<rect width="32.000000" height="32.000000" x="0.000000" y="0.000000" rx="9.000000" fill="rgb(255,255,255)" />
		</clipPath>
	</defs>
	<rect id="32 / Yaga / Project-Pages / File_black" width="32.000000" height="32.000000" x="0.000000" y="0.000000" rx="9.000000" fill="rgb(241,243,249)" />
	<path id="Vector" d="M11.7068 16.0394C13.2271 10.8508 20.3357 10.4508 22.5068 15.2508L23.5123 15.468C28.5865 16.5652 27.7865 24.0394 22.5982 24.0394L12.3693 24.0394C7.82089 23.9937 7.20371 17.5023 11.5467 16.5308L11.7068 16.0394L11.7068 16.0394Z" fill="rgb(58,71,96)" fill-rule="evenodd" />
	<path id="Vector" d="M6.97558 18.931C7.07871 18.4852 7.22714 18.0623 7.42167 17.6623C7.51308 17.4909 7.60449 17.3196 7.71855 17.1481C7.90136 16.8623 8.11855 16.5881 8.34745 16.3481C8.5873 16.0966 8.8498 15.8795 9.13573 15.6737C9.20448 15.628 9.27323 15.5823 9.3412 15.5366C9.59276 15.3767 9.85604 15.2395 10.1303 15.1252C10.3248 14.5653 10.5756 14.0395 10.8842 13.5595C10.9412 13.4795 10.9873 13.3881 11.0443 13.308C11.2732 12.9652 11.5357 12.6567 11.8217 12.3595C12.0732 12.0966 12.3474 11.8567 12.6443 11.628C12.8498 11.4681 13.067 11.3195 13.2959 11.1938C13.7076 10.9424 14.1412 10.7366 14.599 10.5767C14.8732 10.4737 15.1474 10.3938 15.4217 10.3252C15.8443 10.2224 16.2904 10.1538 16.7357 10.131C17.1584 10.108 17.5701 10.108 17.9818 10.1424C18.0732 10.1424 18.1646 10.1767 18.256 10.1881C15.5701 6.63379 9.54745 7.37667 8.15292 12.108L8.00449 12.5995C4.39277 13.411 4.2334 17.9938 6.87324 19.5595C6.89589 19.3538 6.93027 19.1366 6.97558 18.931L6.97558 18.931Z" fill="rgb(58,71,96)" fill-rule="evenodd" />
	<path id="Vector" d="M6.97558 18.931C7.07871 18.4852 7.22714 18.0623 7.42167 17.6623C7.51308 17.4909 7.60449 17.3196 7.71855 17.1481C7.90136 16.8623 8.11855 16.5881 8.34745 16.3481C8.5873 16.0966 8.8498 15.8795 9.13573 15.6737C9.20448 15.628 9.27323 15.5823 9.3412 15.5366C9.59276 15.3767 9.85604 15.2395 10.1303 15.1252C10.3248 14.5653 10.5756 14.0395 10.8842 13.5595C10.9412 13.4795 10.9873 13.3881 11.0443 13.308C11.2732 12.9652 11.5357 12.6567 11.8217 12.3595C12.0732 12.0966 12.3474 11.8567 12.6443 11.628C12.8498 11.4681 13.067 11.3195 13.2959 11.1938C13.7076 10.9424 14.1412 10.7366 14.599 10.5767C14.8732 10.4737 15.1474 10.3938 15.4217 10.3252C15.8443 10.2224 16.2904 10.1538 16.7357 10.131C17.1584 10.108 17.5701 10.108 17.9818 10.1424C18.0732 10.1424 18.1646 10.1767 18.256 10.1881C15.5701 6.63379 9.54745 7.37667 8.15292 12.108L8.00449 12.5995C4.39277 13.411 4.2334 17.9938 6.87324 19.5595C6.89589 19.3538 6.93027 19.1366 6.97558 18.931L6.97558 18.931Z" fill="rgb(208,212,220)" fill-rule="evenodd" />
</svg>
