<svg viewBox="0 0 32 32" xmlns="http://www.w3.org/2000/svg" xmlns:xlink="http://www.w3.org/1999/xlink" width="32.000000" height="32.000000" fill="none" clip-path="url(#clipPath_95)" customFrame="url(#clipPath_95)">
	<defs>
		<clipPath id="clipPath_95">
			<rect width="32.000000" height="32.000000" x="0.000000" y="0.000000" rx="9.000000" fill="rgb(255,255,255)" />
		</clipPath>
	</defs>
	<rect id="32 / Yaga / Project-Pages / Dashboard_black" width="32.000000" height="32.000000" x="0.000000" y="0.000000" rx="9.000000" fill="rgb(241,243,249)" />
	<path id="Vector" d="M8.49747 21.6345C8.30294 21.2002 8.13185 20.7545 7.99435 20.2974C7.86856 19.8859 7.76622 19.4631 7.69747 19.0402C7.59435 18.423 7.53731 17.8059 7.53731 17.1659C7.53731 16.3659 7.617 15.5773 7.78888 14.8116C7.9256 14.1717 8.13185 13.543 8.39435 12.926C8.65763 12.3088 8.96622 11.726 9.33185 11.1659C9.73185 10.5602 10.1998 9.98875 10.7256 9.46306C11.2514 8.93738 11.8233 8.46873 12.4287 8.06873C12.9772 7.7031 13.5717 7.39451 14.1889 7.13162C14.8061 6.86873 15.4342 6.67449 16.0741 6.52595C16.1428 6.51453 16.2233 6.5031 16.2912 6.49168C11.7889 5.01736 6.90841 7.40593 5.33184 11.8973C3.99433 15.7145 5.46856 19.8402 8.66857 22.0116C8.61154 21.8859 8.54279 21.7717 8.49747 21.6459L8.49747 21.6345Z" fill="rgb(208,212,220)" fill-rule="evenodd" />
	<path id="Vector" d="M18.4288 8.43445C13.6061 8.43445 9.69748 12.343 9.69748 17.1659C9.69748 18.9144 10.2115 20.5373 11.092 21.9088L10.1201 24.4802C9.78888 25.3487 10.635 26.1944 11.503 25.8745L14.2686 24.8573C15.503 25.5316 16.9202 25.9088 18.4288 25.9088C23.2514 25.9088 27.16 22.0002 27.16 17.1773C27.16 12.3545 23.2514 8.44588 18.4288 8.44588L18.4288 8.43445ZM18.4288 12.343C19.4116 12.343 20.2233 13.143 20.2233 14.1373C20.2233 15.1316 19.4233 15.9316 18.4288 15.9316C17.435 15.9316 16.635 15.1316 16.635 14.1373C16.635 13.143 17.435 12.343 18.4288 12.343ZM20.2116 21.1773C20.2116 21.6459 19.835 22.023 19.3663 22.023L17.4686 22.023C17.0006 22.023 16.6233 21.6459 16.6233 21.1773L16.6233 17.6459C16.6233 17.1773 17.0006 16.8002 17.4686 16.8002L19.3663 16.8002C19.835 16.8002 20.2116 17.1773 20.2116 17.6459L20.2116 21.1773Z" fill="rgb(208,212,220)" fill-rule="evenodd" />
	<path id="Vector" d="M18.4288 8.43445C13.6061 8.43445 9.69748 12.343 9.69748 17.1659C9.69748 18.9144 10.2115 20.5373 11.092 21.9088L10.1201 24.4802C9.78888 25.3487 10.635 26.1944 11.503 25.8745L14.2686 24.8573C15.503 25.5316 16.9202 25.9088 18.4288 25.9088C23.2514 25.9088 27.16 22.0002 27.16 17.1773C27.16 12.3545 23.2514 8.44588 18.4288 8.44588L18.4288 8.43445ZM18.4288 12.343C19.4116 12.343 20.2233 13.143 20.2233 14.1373C20.2233 15.1316 19.4233 15.9316 18.4288 15.9316C17.435 15.9316 16.635 15.1316 16.635 14.1373C16.635 13.143 17.435 12.343 18.4288 12.343ZM20.2116 21.1773C20.2116 21.6459 19.835 22.023 19.3663 22.023L17.4686 22.023C17.0006 22.023 16.6233 21.6459 16.6233 21.1773L16.6233 17.6459C16.6233 17.1773 17.0006 16.8002 17.4686 16.8002L19.3663 16.8002C19.835 16.8002 20.2116 17.1773 20.2116 17.6459L20.2116 21.1773Z" fill="rgb(58,71,96)" fill-rule="evenodd" />
</svg>
