<svg viewBox="0 0 32 32" xmlns="http://www.w3.org/2000/svg" xmlns:xlink="http://www.w3.org/1999/xlink" width="32.000000" height="32.000000" fill="none" clip-path="url(#clipPath_79)" customFrame="url(#clipPath_79)">
	<defs>
		<clipPath id="clipPath_79">
			<rect width="32.000000" height="32.000000" x="0.000000" y="0.000000" rx="9.000000" fill="rgb(255,255,255)" />
		</clipPath>
	</defs>
	<rect id="32 / Yaga / Project-Pages / Scrum_black" width="32.000000" height="32.000000" x="0.000000" y="0.000000" rx="9.000000" fill="rgb(241,243,249)" />
	<path id="Vector" d="M16.5887 8.80803C16.8637 8.59085 17.2402 8.55657 17.5723 8.71653C17.8809 8.87659 18.0863 9.19651 18.0863 9.55081L18.0863 13.4366C18.0863 14.1109 18.6348 14.6594 19.309 14.6594C19.9832 14.6594 20.5316 14.1109 20.5316 13.4366L20.5316 13.0023C20.5316 12.6366 20.7379 12.3165 21.0574 12.168C21.3777 12.0195 21.766 12.0537 22.0402 12.2823C23.2176 13.2195 24.0293 14.2366 24.5316 15.368C25.0465 16.488 25.2176 17.6652 25.2176 18.888C25.2176 22.8537 21.8348 26.0309 18.0059 26.0309C14.1777 26.0309 11.0348 22.8079 11.0348 18.888C11.0348 15.8708 12.4637 13.3451 13.823 11.6079C14.509 10.7394 15.1832 10.0423 15.709 9.57366C15.9605 9.33372 16.1887 9.15081 16.3379 9.02512C16.4059 8.95657 16.4746 8.91087 16.5207 8.87659L16.6004 8.83089L16.5887 8.80803Z" fill="rgb(58,71,96)" fill-rule="evenodd" />
	<path id="Vector" d="M10.6121 24.0079C10.2691 23.5051 9.9832 22.9679 9.7543 22.3965C9.54883 21.8823 9.38867 21.3679 9.27461 20.8422C9.13711 20.2022 9.06914 19.5508 9.06914 18.8765C9.06914 18.7394 9.06914 18.6022 9.06914 18.4651C9.12617 16.9565 9.46914 15.4594 10.109 13.9737C10.6348 12.7394 11.3543 11.5394 12.2691 10.3737C12.566 9.99651 12.8629 9.64221 13.1832 9.28792C13.5605 8.87649 13.9605 8.47649 14.3715 8.09934C14.4176 8.05364 14.509 7.97366 14.5777 7.91653L14.5777 6.99075C14.5777 6.60217 14.3488 6.24797 14.0059 6.07649C13.652 5.9051 13.2402 5.93938 12.9316 6.17932L12.852 6.23655C12.8059 6.27083 12.7371 6.32795 12.6574 6.39651C12.4973 6.54504 12.2457 6.73938 11.9715 7.00217C11.4004 7.52796 10.6457 8.29368 9.8918 9.25364C8.36055 11.1737 6.7832 13.9622 6.7832 17.2879C6.7832 20.248 8.3832 22.8536 10.7715 24.2022C10.7262 24.1336 10.6574 24.0765 10.6121 24.0079Z" fill="rgb(58,71,96)" fill-rule="evenodd" />
	<path id="Vector" d="M10.6121 24.0079C10.2691 23.5051 9.9832 22.9679 9.7543 22.3965C9.54883 21.8823 9.38867 21.3679 9.27461 20.8422C9.13711 20.2022 9.06914 19.5508 9.06914 18.8765C9.06914 18.7394 9.06914 18.6022 9.06914 18.4651C9.12617 16.9565 9.46914 15.4594 10.109 13.9737C10.6348 12.7394 11.3543 11.5394 12.2691 10.3737C12.566 9.99651 12.8629 9.64221 13.1832 9.28792C13.5605 8.87649 13.9605 8.47649 14.3715 8.09934C14.4176 8.05364 14.509 7.97366 14.5777 7.91653L14.5777 6.99075C14.5777 6.60217 14.3488 6.24797 14.0059 6.07649C13.652 5.9051 13.2402 5.93938 12.9316 6.17932L12.852 6.23655C12.8059 6.27083 12.7371 6.32795 12.6574 6.39651C12.4973 6.54504 12.2457 6.73938 11.9715 7.00217C11.4004 7.52796 10.6457 8.29368 9.8918 9.25364C8.36055 11.1737 6.7832 13.9622 6.7832 17.2879C6.7832 20.248 8.3832 22.8536 10.7715 24.2022C10.7262 24.1336 10.6574 24.0765 10.6121 24.0079Z" fill="rgb(208,212,220)" fill-rule="evenodd" />
</svg>
