<svg viewBox="0 0 32 32" xmlns="http://www.w3.org/2000/svg" xmlns:xlink="http://www.w3.org/1999/xlink" width="32.000000" height="32.000000" fill="none" clip-path="url(#clipPath_59)" customFrame="url(#clipPath_59)">
	<defs>
		<clipPath id="clipPath_59">
			<rect width="32.000000" height="32.000000" x="0.000000" y="0.000000" rx="9.000000" fill="rgb(255,255,255)" />
		</clipPath>
	</defs>
	<rect id="32 / Yaga / Project-Pages / Article_color" width="32.000000" height="32.000000" x="0.000000" y="0.000000" rx="9.000000" fill="rgb(0,85,255)" fill-opacity="0.100000001" />
	<path id="Vector" d="M19.7486 11.6971L22.9486 11.6971C23.8744 11.6971 24.3432 10.5657 23.6799 9.91426L20.4799 6.75997C19.8291 6.1085 18.7088 6.57715 18.7088 7.50284L18.7088 10.6571C18.7088 11.2285 19.1775 11.6971 19.7486 11.6971Z" fill="rgb(0,85,255)" fill-rule="evenodd" />
	<path id="Vector" d="M21.9197 21.7085C22.1947 21.7085 22.4689 21.6514 22.7197 21.5714C23.6689 21.2514 24.3658 20.4057 24.4455 19.3771C24.4455 19.3085 24.4689 19.2285 24.4689 19.16L24.4689 13.3771C24.4689 13.3771 24.3885 13.4228 24.3541 13.4456C24.2174 13.5143 24.0689 13.5714 23.9088 13.6285C23.7947 13.6628 23.6916 13.6971 23.5775 13.7199C23.3713 13.7656 23.1658 13.7771 22.9486 13.7771L19.7486 13.7771C19.5314 13.7771 19.3143 13.7542 19.1088 13.7085C18.9143 13.6628 18.7197 13.6057 18.5369 13.5257C18.3541 13.4456 18.183 13.3542 18.0229 13.2514C17.8518 13.1371 17.6916 13.0113 17.5541 12.8628C17.4174 12.7143 17.2799 12.5542 17.1658 12.3942C17.0627 12.2342 16.9604 12.0628 16.8916 11.8799C16.8111 11.6971 16.7541 11.5028 16.7088 11.3085C16.6627 11.1028 16.64 10.8857 16.64 10.6685L16.64 7.51426C16.64 7.29708 16.6627 7.09131 16.6971 6.89708C16.7197 6.78282 16.7432 6.67989 16.7775 6.56563C16.8229 6.4171 16.8799 6.26846 16.9604 6.13135C16.9604 6.11993 16.9713 6.1085 16.983 6.09708L13.8057 6.09708C13.7033 6.09708 13.6111 6.11993 13.5088 6.13135C12.2627 6.27989 11.2916 7.31993 11.2572 8.59991C11.2572 8.62276 11.2572 8.63419 11.2572 8.65704L11.2572 19.1828C11.2572 19.2628 11.2689 19.3314 11.2799 19.3999C11.3713 20.4285 12.0572 21.2742 13.0057 21.5942C13.2572 21.6742 13.5197 21.7314 13.8057 21.7314L21.9314 21.7314L21.9197 21.7085Z" fill="rgb(0,85,255)" fill-rule="evenodd" />
	<path id="Vector" d="M21.9197 21.7085C22.1947 21.7085 22.4689 21.6514 22.7197 21.5714C23.6689 21.2514 24.3658 20.4057 24.4455 19.3771C24.4455 19.3085 24.4689 19.2285 24.4689 19.16L24.4689 13.3771C24.4689 13.3771 24.3885 13.4228 24.3541 13.4456C24.2174 13.5143 24.0689 13.5714 23.9088 13.6285C23.7947 13.6628 23.6916 13.6971 23.5775 13.7199C23.3713 13.7656 23.1658 13.7771 22.9486 13.7771L19.7486 13.7771C19.5314 13.7771 19.3143 13.7542 19.1088 13.7085C18.9143 13.6628 18.7197 13.6057 18.5369 13.5257C18.3541 13.4456 18.183 13.3542 18.0229 13.2514C17.8518 13.1371 17.6916 13.0113 17.5541 12.8628C17.4174 12.7143 17.2799 12.5542 17.1658 12.3942C17.0627 12.2342 16.9604 12.0628 16.8916 11.8799C16.8111 11.6971 16.7541 11.5028 16.7088 11.3085C16.6627 11.1028 16.64 10.8857 16.64 10.6685L16.64 7.51426C16.64 7.29708 16.6627 7.09131 16.6971 6.89708C16.7197 6.78282 16.7432 6.67989 16.7775 6.56563C16.8229 6.4171 16.8799 6.26846 16.9604 6.13135C16.9604 6.11993 16.9713 6.1085 16.983 6.09708L13.8057 6.09708C13.7033 6.09708 13.6111 6.11993 13.5088 6.13135C12.2627 6.27989 11.2916 7.31993 11.2572 8.59991C11.2572 8.62276 11.2572 8.63419 11.2572 8.65704L11.2572 19.1828C11.2572 19.2628 11.2689 19.3314 11.2799 19.3999C11.3713 20.4285 12.0572 21.2742 13.0057 21.5942C13.2572 21.6742 13.5197 21.7314 13.8057 21.7314L21.9314 21.7314L21.9197 21.7085Z" fill="rgb(0,85,255)" fill-rule="evenodd" />
	<path id="Vector" d="M21.9205 23.4113L13.7947 23.4113C11.4525 23.4113 9.54395 21.5028 9.54395 19.16L9.54395 9.6171C8.33223 10.4514 7.53223 11.8229 7.53223 13.3999L7.53223 21.2971C7.53223 23.8343 9.60098 25.9028 12.1377 25.9028L17.9205 25.9028C19.6924 25.9028 21.2236 24.8857 21.9893 23.3999C21.9666 23.3999 21.9439 23.3999 21.9205 23.3999L21.9205 23.4113ZM9.23535 21.2971C9.23535 21.2971 9.23535 21.3542 9.23535 21.3885C9.23535 21.3542 9.23535 21.3314 9.23535 21.2971Z" fill="rgb(0,85,255)" fill-rule="evenodd" />
	<path id="Vector" d="M21.9205 23.4113L13.7947 23.4113C11.4525 23.4113 9.54395 21.5028 9.54395 19.16L9.54395 9.6171C8.33223 10.4514 7.53223 11.8229 7.53223 13.3999L7.53223 21.2971C7.53223 23.8343 9.60098 25.9028 12.1377 25.9028L17.9205 25.9028C19.6924 25.9028 21.2236 24.8857 21.9893 23.3999C21.9666 23.3999 21.9439 23.3999 21.9205 23.3999L21.9205 23.4113ZM9.23535 21.2971C9.23535 21.2971 9.23535 21.3542 9.23535 21.3885C9.23535 21.3542 9.23535 21.3314 9.23535 21.2971Z" fill="rgb(0,85,255)" fill-opacity="0.300000012" fill-rule="evenodd" />
</svg>
