<svg viewBox="0 0 32 32" xmlns="http://www.w3.org/2000/svg" xmlns:xlink="http://www.w3.org/1999/xlink" width="32.000000" height="32.000000" fill="none" clip-path="url(#clipPath_71)" customFrame="url(#clipPath_71)">
	<defs>
		<clipPath id="clipPath_71">
			<rect width="32.000000" height="32.000000" x="0.000000" y="0.000000" rx="9.000000" fill="rgb(255,255,255)" />
		</clipPath>
	</defs>
	<rect id="32 / Yaga / Project-Pages / Scrum_gray" width="32.000000" height="32.000000" x="0.000000" y="0.000000" rx="9.000000" fill="rgb(241,243,249)" />
	<path id="Vector" d="M16.5889 8.80798C16.8623 8.59082 17.2402 8.55652 17.5713 8.71655C17.8799 8.87658 18.0859 9.19653 18.0859 9.5509L18.0859 13.4365C18.0859 14.1108 18.6338 14.6594 19.3086 14.6594C19.9824 14.6594 20.5312 14.1108 20.5312 13.4365L20.5312 13.0023C20.5312 12.6366 20.7373 12.3165 21.0566 12.168C21.377 12.0194 21.7656 12.0537 22.04 12.2823C23.2168 13.2195 24.0283 14.2366 24.5312 15.368C25.0459 16.488 25.2168 17.6651 25.2168 18.888C25.2168 22.8537 21.834 26.0309 18.0059 26.0309C14.1768 26.0309 11.0342 22.808 11.0342 18.888C11.0342 15.8708 12.4629 13.3451 13.8223 11.608C14.5088 10.7394 15.1826 10.0422 15.708 9.57373C15.96 9.33374 16.1885 9.15088 16.3369 9.02514C16.4053 8.95654 16.4746 8.91088 16.5195 8.87658L16.5996 8.83081L16.5889 8.80798Z" fill="rgb(161,169,184)" fill-rule="evenodd" />
	<path id="Vector" d="M10.6113 24.0079C10.2686 23.5051 9.9834 22.9679 9.75488 22.3965C9.54883 21.8822 9.38867 21.3679 9.27441 20.8421C9.1377 20.2023 9.06934 19.5508 9.06934 18.8764C9.06934 18.7394 9.06934 18.6022 9.06934 18.4651C9.12598 16.9565 9.46875 15.4593 10.1094 13.9736C10.6348 12.7394 11.3545 11.5393 12.2686 10.3737C12.5664 9.99645 12.8633 9.64221 13.1836 9.28796C13.5605 8.87646 13.96 8.47656 14.3721 8.09936C14.418 8.05359 14.5088 7.97363 14.5771 7.9165L14.5771 6.99084C14.5771 6.60217 14.3486 6.24792 14.0059 6.07654C13.6514 5.90503 13.2402 5.93933 12.9316 6.17932L12.8516 6.23645C12.8057 6.27075 12.7373 6.32788 12.6572 6.39648C12.4971 6.54504 12.2461 6.73938 11.9717 7.0022C11.4004 7.52795 10.6465 8.2937 9.8916 9.25366C8.36035 11.1737 6.7832 13.9621 6.7832 17.2879C6.7832 20.2479 8.38281 22.8536 10.7715 24.2022C10.7256 24.1336 10.6572 24.0765 10.6113 24.0079Z" fill="rgb(161,169,184)" fill-rule="evenodd" />
	<path id="Vector" d="M10.6113 24.0079C10.2686 23.5051 9.9834 22.9679 9.75488 22.3965C9.54883 21.8822 9.38867 21.3679 9.27441 20.8421C9.1377 20.2023 9.06934 19.5508 9.06934 18.8764C9.06934 18.7394 9.06934 18.6022 9.06934 18.4651C9.12598 16.9565 9.46875 15.4593 10.1094 13.9736C10.6348 12.7394 11.3545 11.5393 12.2686 10.3737C12.5664 9.99645 12.8633 9.64221 13.1836 9.28796C13.5605 8.87646 13.96 8.47656 14.3721 8.09936C14.418 8.05359 14.5088 7.97363 14.5771 7.9165L14.5771 6.99084C14.5771 6.60217 14.3486 6.24792 14.0059 6.07654C13.6514 5.90503 13.2402 5.93933 12.9316 6.17932L12.8516 6.23645C12.8057 6.27075 12.7373 6.32788 12.6572 6.39648C12.4971 6.54504 12.2461 6.73938 11.9717 7.0022C11.4004 7.52795 10.6465 8.2937 9.8916 9.25366C8.36035 11.1737 6.7832 13.9621 6.7832 17.2879C6.7832 20.2479 8.38281 22.8536 10.7715 24.2022C10.7256 24.1336 10.6572 24.0765 10.6113 24.0079Z" fill="rgb(208,212,220)" fill-rule="evenodd" />
</svg>
