<svg viewBox="0 0 32 32" xmlns="http://www.w3.org/2000/svg" xmlns:xlink="http://www.w3.org/1999/xlink" width="32.000000" height="32.000000" fill="none" clip-path="url(#clipPath_51)" customFrame="url(#clipPath_51)">
	<defs>
		<clipPath id="clipPath_51">
			<rect width="32.000000" height="32.000000" x="0.000000" y="0.000000" rx="9.000000" fill="rgb(255,255,255)" />
		</clipPath>
	</defs>
	<rect id="32 / Yaga / Project-Pages / File_accent" width="32.000000" height="32.000000" x="0.000000" y="0.000000" rx="9.000000" fill="rgb(0,85,255)" fill-opacity="0.100000001" />
	<path id="Vector" d="M11.7068 16.0393C13.2271 10.8507 20.3357 10.4507 22.5068 15.2507L23.5123 15.4679C28.5865 16.565 27.7865 24.0393 22.5982 24.0393L12.3693 24.0393C7.82089 23.9936 7.20371 17.5022 11.5467 16.5307L11.7068 16.0393L11.7068 16.0393Z" fill="rgb(0,85,255)" fill-rule="evenodd" />
	<path id="Vector" d="M6.97558 18.9308C7.07871 18.485 7.22714 18.0621 7.42167 17.6621C7.51308 17.4907 7.60449 17.3192 7.71855 17.1479C7.90136 16.8621 8.11855 16.5879 8.34745 16.3479C8.5873 16.0964 8.8498 15.8793 9.13573 15.6735C9.20448 15.6278 9.27323 15.5821 9.3412 15.5364C9.59276 15.3765 9.85604 15.2393 10.1303 15.125C10.3248 14.565 10.5756 14.0393 10.8842 13.5593C10.9412 13.4793 10.9873 13.3879 11.0443 13.3078C11.2732 12.965 11.5357 12.6564 11.8217 12.3593C12.0732 12.0964 12.3474 11.8564 12.6443 11.6278C12.8498 11.4679 13.067 11.3193 13.2959 11.1935C13.7076 10.9422 14.1412 10.7364 14.599 10.5765C14.8732 10.4735 15.1474 10.3935 15.4217 10.325C15.8443 10.2222 16.2904 10.1536 16.7357 10.1308C17.1584 10.1078 17.5701 10.1078 17.9818 10.1422C18.0732 10.1422 18.1646 10.1765 18.256 10.1879C15.5701 6.63358 9.54745 7.37645 8.15292 12.1078L8.00449 12.5993C4.39277 13.4107 4.2334 17.9936 6.87324 19.5593C6.89589 19.3536 6.93027 19.1364 6.97558 18.9308L6.97558 18.9308Z" fill="rgb(0,85,255)" fill-rule="evenodd" />
	<path id="Vector" d="M6.97558 18.9308C7.07871 18.485 7.22714 18.0621 7.42167 17.6621C7.51308 17.4907 7.60449 17.3192 7.71855 17.1479C7.90136 16.8621 8.11855 16.5879 8.34745 16.3479C8.5873 16.0964 8.8498 15.8793 9.13573 15.6735C9.20448 15.6278 9.27323 15.5821 9.3412 15.5364C9.59276 15.3765 9.85604 15.2393 10.1303 15.125C10.3248 14.565 10.5756 14.0393 10.8842 13.5593C10.9412 13.4793 10.9873 13.3879 11.0443 13.3078C11.2732 12.965 11.5357 12.6564 11.8217 12.3593C12.0732 12.0964 12.3474 11.8564 12.6443 11.6278C12.8498 11.4679 13.067 11.3193 13.2959 11.1935C13.7076 10.9422 14.1412 10.7364 14.599 10.5765C14.8732 10.4735 15.1474 10.3935 15.4217 10.325C15.8443 10.2222 16.2904 10.1536 16.7357 10.1308C17.1584 10.1078 17.5701 10.1078 17.9818 10.1422C18.0732 10.1422 18.1646 10.1765 18.256 10.1879C15.5701 6.63358 9.54745 7.37645 8.15292 12.1078L8.00449 12.5993C4.39277 13.4107 4.2334 17.9936 6.87324 19.5593C6.89589 19.3536 6.93027 19.1364 6.97558 18.9308L6.97558 18.9308Z" fill="rgb(0,85,255)" fill-opacity="0.300000012" fill-rule="evenodd" />
</svg>
