<svg viewBox="0 0 32 32" xmlns="http://www.w3.org/2000/svg" xmlns:xlink="http://www.w3.org/1999/xlink" width="32.000000" height="32.000000" fill="none" clip-path="url(#clipPath_75)" customFrame="url(#clipPath_75)">
	<defs>
		<clipPath id="clipPath_75">
			<rect width="32.000000" height="32.000000" x="0.000000" y="0.000000" rx="9.000000" fill="rgb(255,255,255)" />
		</clipPath>
	</defs>
	<rect id="32 / Yaga / Project-Pages / Scrum_color" width="32.000000" height="32.000000" x="0.000000" y="0.000000" rx="9.000000" fill="rgb(255,71,71)" fill-opacity="0.100000001" />
	<path id="Vector" d="M16.5889 8.80786C16.8623 8.59069 17.2402 8.55639 17.5713 8.71643C17.8799 8.87646 18.0859 9.19641 18.0859 9.55078L18.0859 13.4364C18.0859 14.1107 18.6338 14.6593 19.3086 14.6593C19.9824 14.6593 20.5312 14.1107 20.5312 13.4364L20.5312 13.0022C20.5312 12.6365 20.7373 12.3164 21.0566 12.1678C21.377 12.0193 21.7656 12.0536 22.04 12.2822C23.2168 13.2194 24.0283 14.2364 24.5312 15.3679C25.0459 16.4879 25.2168 17.665 25.2168 18.8879C25.2168 22.8536 21.834 26.0307 18.0059 26.0307C14.1768 26.0307 11.0342 22.8078 11.0342 18.8879C11.0342 15.8707 12.4629 13.345 13.8223 11.6079C14.5088 10.7393 15.1826 10.0421 15.708 9.5736C15.96 9.33361 16.1885 9.15075 16.3369 9.02502C16.4053 8.95642 16.4746 8.91076 16.5195 8.87646L16.5996 8.83068L16.5889 8.80786Z" fill="rgb(255,71,71)" fill-rule="evenodd" />
	<path id="Vector" d="M10.6104 24.0077C10.2676 23.5049 9.98242 22.9676 9.75391 22.3962C9.54785 21.8819 9.3877 21.3677 9.27344 20.8419C9.13672 20.202 9.06836 19.5505 9.06836 18.8762C9.06836 18.7391 9.06836 18.6019 9.06836 18.4648C9.125 16.9563 9.46777 15.4591 10.1084 13.9734C10.6338 12.7391 11.3535 11.5391 12.2676 10.3734C12.5654 9.99621 12.8623 9.64196 13.1826 9.28772C13.5596 8.87622 13.959 8.47632 14.3711 8.09912C14.417 8.05334 14.5078 7.97339 14.5762 7.91626L14.5762 6.9906C14.5762 6.60193 14.3477 6.24768 14.0049 6.07629C13.6504 5.90479 13.2393 5.93909 12.9307 6.17908L12.8506 6.23621C12.8047 6.27051 12.7363 6.32764 12.6562 6.39624C12.4961 6.5448 12.2451 6.73913 11.9707 7.00195C11.3994 7.52771 10.6455 8.29345 9.89062 9.25341C8.35938 11.1735 6.78223 13.9619 6.78223 17.2877C6.78223 20.2477 8.38184 22.8534 10.7705 24.202C10.7246 24.1334 10.6562 24.0763 10.6104 24.0077Z" fill="rgb(255,71,71)" fill-rule="evenodd" />
	<path id="Vector" d="M10.6104 24.0077C10.2676 23.5049 9.98242 22.9676 9.75391 22.3962C9.54785 21.8819 9.3877 21.3677 9.27344 20.8419C9.13672 20.202 9.06836 19.5505 9.06836 18.8762C9.06836 18.7391 9.06836 18.6019 9.06836 18.4648C9.125 16.9563 9.46777 15.4591 10.1084 13.9734C10.6338 12.7391 11.3535 11.5391 12.2676 10.3734C12.5654 9.99621 12.8623 9.64196 13.1826 9.28772C13.5596 8.87622 13.959 8.47632 14.3711 8.09912C14.417 8.05334 14.5078 7.97339 14.5762 7.91626L14.5762 6.9906C14.5762 6.60193 14.3477 6.24768 14.0049 6.07629C13.6504 5.90479 13.2393 5.93909 12.9307 6.17908L12.8506 6.23621C12.8047 6.27051 12.7363 6.32764 12.6562 6.39624C12.4961 6.5448 12.2451 6.73913 11.9707 7.00195C11.3994 7.52771 10.6455 8.29345 9.89062 9.25341C8.35938 11.1735 6.78223 13.9619 6.78223 17.2877C6.78223 20.2477 8.38184 22.8534 10.7705 24.202C10.7246 24.1334 10.6562 24.0763 10.6104 24.0077Z" fill="rgb(255,71,71)" fill-opacity="0.300000012" fill-rule="evenodd" />
</svg>
