<svg viewBox="0 0 64 64" xmlns="http://www.w3.org/2000/svg" xmlns:xlink="http://www.w3.org/1999/xlink" width="64.000000" height="64.000000" fill="none">
	<rect id="yaga" width="64.000000" height="64.000000" x="0.000000" y="0.000000" />
	<path id="Squircle" d="M0 30.9995C0 16.3861 0 9.07947 4.53973 4.53973C9.07947 0 16.3861 0 30.9995 0L33.0005 0C47.6139 0 54.9205 0 59.4603 4.53973C64 9.07947 64 16.3861 64 30.9995L64 33.0005C64 47.6139 64 54.9205 59.4603 59.4603C54.9205 64 47.6139 64 33.0005 64L30.9995 64C16.3861 64 9.07947 64 4.53973 59.4603C0 54.9205 0 47.6139 0 33.0005L0 30.9995Z" fill="rgb(0,85,255)" fill-rule="nonzero" />
	<path id="Avatar" d="M30.2061 16.6193L43.42 16.6193L43.42 16.6172C45.7517 16.6172 47.6419 18.5073 47.6419 20.839C47.6419 23.1708 45.7517 25.0609 43.42 25.0609L32.0237 25.0609C30.0995 25.0609 28.2541 25.8246 26.8952 27.1857L24.5677 29.5153C23.6931 30.358 22.2168 30.7654 21.0413 30.5286C19.1064 30.1425 18.0013 28.807 18.0035 26.6694L18.0013 26.6694C18.0013 26.6524 18.1037 25.6006 18.1037 25.6006C18.4088 21.6732 23.1683 16.9073 29.5597 16.6321C29.7752 16.6236 29.9907 16.6193 30.2061 16.6193ZM34.9571 28.1607L43.3965 28.1607L43.3944 28.1628C45.7368 28.1628 47.6376 30.0636 47.6376 32.406C47.6376 34.7484 45.7389 36.6492 43.3944 36.6492L38.5795 36.6492C35.7784 36.6492 34.1485 37.3276 32.1709 39.3052L26.2531 45.2295C25.2141 46.2684 23.8808 46.9404 22.4493 47.1708C19.6781 47.7276 17.1011 46.7079 16.4888 44.7068C16.1283 43.5271 16.5251 42.2471 17.4467 41.174L17.4403 41.1634L17.628 40.9735C17.7048 40.8903 17.7859 40.8092 17.8691 40.7303L27.1128 31.4247C29.1885 29.3362 31.58 28.1607 34.9571 28.1607ZM43.8168 39.7319L39.6397 39.7319C37.5277 39.7319 35.8147 41.445 35.8147 43.557C35.8147 45.6689 37.5277 47.382 39.6397 47.382L43.8168 47.382C45.9288 47.382 47.6419 45.6689 47.6419 43.557C47.6419 41.445 45.9288 39.7319 43.8168 39.7319Z" fill="rgb(255,255,255)" fill-rule="evenodd" />
</svg>
