<svg viewBox="0 0 24 24" xmlns="http://www.w3.org/2000/svg" xmlns:xlink="http://www.w3.org/1999/xlink" width="24.000000" height="24.000000" fill="none">
	<rect id="24 / Action / Settings Fill" width="24.000000" height="24.000000" x="0.000000" y="0.000000" />
	<path id="Vector" d="M21.36 13.79L20.03 13.02C19.69 12.82 19.5 12.45 19.51 12.06L19.51 11.93C19.51 11.54 19.69 11.16 20.03 10.97L21.36 10.2C21.84 9.91999 22 9.30999 21.73 8.82999L19.61 5.14999C19.33 4.66999 18.72 4.50999 18.24 4.77999L16.91 5.54999C16.57 5.74999 16.15 5.71999 15.82 5.51999C15.78 5.49999 15.75 5.47999 15.71 5.45999C15.37 5.26999 15.14 4.91999 15.14 4.52999L15.14 2.98999C15.14 2.43999 14.69 1.98999 14.14 1.98999L9.89002 1.98999C9.34002 1.98999 8.89002 2.43999 8.89002 2.98999L8.89002 4.52999C8.89002 4.91999 8.66002 5.26999 8.32002 5.45999C8.28002 5.47999 8.25002 5.49999 8.21002 5.51999C7.87002 5.71999 7.45002 5.73999 7.12002 5.54999L5.79002 4.77999C5.31002 4.49999 4.70002 4.66999 4.42002 5.14999L2.30002 8.82999C2.02002 9.30999 2.19002 9.91999 2.67002 10.2L4.00002 10.97C4.34002 11.17 4.53002 11.54 4.52002 11.93L4.52002 12.06C4.52002 12.45 4.34002 12.83 4.00002 13.02L2.67002 13.79C2.19002 14.07 2.03002 14.68 2.30002 15.16L4.42002 18.84C4.70002 19.32 5.31002 19.48 5.79002 19.21L7.12002 18.44C7.46002 18.24 7.88002 18.27 8.21002 18.47C8.25002 18.49 8.28002 18.51 8.32002 18.53C8.66002 18.72 8.89002 19.07 8.89002 19.46L8.89002 21C8.89002 21.55 9.34002 22 9.89002 22L14.14 22C14.69 22 15.14 21.55 15.14 21L15.14 19.46C15.14 19.07 15.37 18.72 15.71 18.53C15.75 18.51 15.78 18.49 15.82 18.47C16.16 18.27 16.58 18.25 16.91 18.44L18.24 19.21C18.72 19.49 19.33 19.32 19.61 18.84L21.73 15.16C22.01 14.68 21.84 14.07 21.36 13.79L21.36 13.79ZM12 15.12C10.27 15.12 8.88002 13.72 8.88002 12C8.88002 10.28 10.28 8.87999 12 8.87999C13.72 8.87999 15.12 10.28 15.12 12C15.12 13.72 13.72 15.12 12 15.12Z" fill="rgb(14,17,23)" fill-rule="evenodd" />
</svg>
