<svg viewBox="0 0 24 24" xmlns="http://www.w3.org/2000/svg" xmlns:xlink="http://www.w3.org/1999/xlink" width="24.000000" height="24.000000" fill="none">
	<rect id="24 / Action / Filter" width="24.000000" height="24.000000" x="0.000000" y="0.000000" />
	<path id="Vector" d="M1.9978 4.49902C1.13475 3.53241 1.82086 2 3.11671 2L20.8833 2C22.1791 2 22.8652 3.5324 22.0022 4.49902L16.2622 10.9278C15.7713 11.4776 15.5 12.1888 15.5 12.9259L15.5 17.1439C15.5 17.6263 15.2679 18.0793 14.8764 18.3612L10.8764 21.2412C9.88422 21.9556 8.49998 21.2465 8.49998 20.0239L8.49998 12.9259C8.49998 12.1888 8.22867 11.4776 7.73779 10.9278L1.9978 4.49902ZM4.23343 4L9.22967 9.59579C10.0478 10.5121 10.5 11.6975 10.5 12.9259L10.5 19.0478L13.5 16.8878L13.5 12.9259C13.5 11.6975 13.9522 10.5121 14.7703 9.59579L19.7665 4L4.23343 4Z" fill="rgb(14,17,23)" fill-rule="evenodd" />
</svg>
