<svg viewBox="0 0 24 24" xmlns="http://www.w3.org/2000/svg" xmlns:xlink="http://www.w3.org/1999/xlink" width="24.000000" height="24.000000" fill="none">
	<rect id="24 / Action / Kanban board" width="24.000000" height="24.000000" x="0.000000" y="0.000000" />
	<path id="Вектор 3" d="M19.58 2.05499L4.54999 2.05499C3.17999 2.05499 2.06 3.17499 2.06 4.54498L2.06 19.455C2.06 20.825 3.17999 21.945 4.54999 21.945L10.48 21.945C11.85 21.945 12.97 20.825 12.97 19.455L12.97 13.955C13.15 13.995 13.34 14.025 13.53 14.025L19.58 14.025C20.88 14.025 21.94 12.965 21.94 11.665L21.94 4.41498C21.94 3.11499 20.88 2.05499 19.58 2.05499ZM10.97 19.455C10.97 19.725 10.75 19.945 10.48 19.945L4.54999 19.945C4.28 19.945 4.06 19.725 4.06 19.455L4.06 4.54498C4.06 4.27496 4.28 4.05499 4.54999 4.05499L10.97 4.05499L10.97 19.455ZM19.94 11.655C19.94 11.855 19.78 12.015 19.58 12.015L13.53 12.015C13.26 12.015 13.04 11.795 13.04 11.525L13.04 4.05499L19.59 4.05499C19.79 4.05499 19.95 4.21497 19.95 4.41498L19.95 11.655L19.94 11.655Z" fill="rgb(14,17,23)" fill-rule="evenodd" />
</svg>
