<svg viewBox="0 0 24 24" xmlns="http://www.w3.org/2000/svg" xmlns:xlink="http://www.w3.org/1999/xlink" width="24.000000" height="24.000000" fill="none">
	<rect id="24 / Action / Check Edit Fill" width="24.000000" height="24.000000" x="0.000000" y="0.000000" />
	<path id="Vector-2" d="M21.3503 7.56006C23.4903 4.34006 19.6603 0.510062 16.4403 2.65006C16.3703 2.69006 16.3103 2.75006 16.2503 2.80006L14.0903 4.96006L7.18026 11.8701C6.90026 12.1501 6.74026 12.5301 6.74026 12.9301L6.74026 15.7501C6.74026 16.5801 7.41026 17.2501 8.24026 17.2501L11.0603 17.2501C11.4603 17.2501 11.8403 17.0901 12.1203 16.8101L21.1903 7.74006C21.2503 7.68006 21.3003 7.62006 21.3403 7.55006L21.3503 7.56006ZM4.53027 5.97006C4.25027 5.97006 4.03027 6.19006 4.03027 6.47006L4.03027 19.4701C4.03027 19.7501 4.25027 19.9701 4.53027 19.9701L17.5303 19.9701C17.8103 19.9701 18.0303 19.7501 18.0303 19.4701L18.0303 15.2601C18.0303 14.7101 18.4803 14.2601 19.0303 14.2601C19.5803 14.2601 20.0303 14.7101 20.0303 15.2601L20.0303 19.4701C20.0303 20.8501 18.9103 21.9701 17.5303 21.9701L4.53027 21.9701C3.15028 21.9701 2.03027 20.8501 2.03027 19.4701L2.03027 6.47006C2.03027 5.09006 3.15028 3.97006 4.53027 3.97006L8.74027 3.97006C9.29028 3.97006 9.74027 4.42006 9.74027 4.97006C9.74027 5.52006 9.29028 5.97006 8.74027 5.97006L4.53027 5.97006Z" fill="rgb(14,17,23)" fill-rule="evenodd" />
</svg>
