<svg viewBox="0 0 24 24" xmlns="http://www.w3.org/2000/svg" xmlns:xlink="http://www.w3.org/1999/xlink" width="24.000000" height="24.000000" fill="none">
	<rect id="24 / Action / Notification Fill" width="24.000000" height="24.000000" x="0.000000" y="0.000000" />
	<path id="Vector" d="M2.06512 18.134C2.22818 18.6124 2.7017 19.2498 3.54015 19.2498L7.88554 19.2498C7.87871 19.3324 7.87522 19.4158 7.87522 19.5C7.87522 21.6297 9.9418 23 12.0002 23C14.0586 23 16.1252 21.6297 16.1252 19.5C16.1252 19.4158 16.1217 19.3324 16.1148 19.2498L20.4458 19.2498C21.2844 19.2498 21.7578 18.6122 21.9209 18.134C22.0844 17.6546 22.087 16.9421 21.5866 16.4089C20.635 15.3948 20.0422 14.0402 19.6908 12.6967C19.341 11.3595 19.2496 10.1065 19.2496 9.37432C19.2496 5.33423 16.0172 2.03467 11.9998 2.03467C7.98237 2.03467 4.74986 5.33423 4.74986 9.37432C4.74986 10.105 4.65629 11.3577 4.30386 12.6952C3.9498 14.0389 3.354 15.3942 2.40035 16.4088C1.89933 16.9418 1.90164 17.6544 2.06512 18.134ZM9.87522 19.5C9.87522 20.1317 10.6068 21 12.0002 21C13.3935 21 14.1252 20.1317 14.1252 19.5C14.1252 19.4159 14.1149 19.3324 14.0943 19.2498L11.9998 19.2498L9.90605 19.2498C9.88544 19.3324 9.87522 19.4159 9.87522 19.5Z" fill="rgb(14,17,23)" fill-rule="evenodd" />
</svg>
