<svg viewBox="0 0 24 24" xmlns="http://www.w3.org/2000/svg" xmlns:xlink="http://www.w3.org/1999/xlink" width="24.000000" height="24.000000" fill="none">
	<rect id="24 / Action / Check Edit" width="24.000000" height="24.000000" x="0.000000" y="0.000000" />
	<path id="Vector" d="M17.573 4.31185L16.1789 5.70593L18.2941 7.82113L19.6882 6.42705C20.523 5.05878 18.9412 3.47709 17.573 4.31185ZM16.8799 9.23535L14.7647 7.12015L8.70588 13.179L8.70588 15.2942L10.8211 15.2942L16.8799 9.23535ZM21.3147 7.59549C23.4582 4.37557 19.6245 0.541726 16.4045 2.6854C16.3379 2.72976 16.2758 2.78062 16.2192 2.83723L14.0576 4.99882L7.14522 11.9113C6.86391 12.1926 6.70588 12.5741 6.70588 12.9719L6.70588 15.7942C6.70588 16.6227 7.37746 17.2942 8.20588 17.2942L11.0282 17.2942C11.426 17.2942 11.8075 17.1362 12.0889 16.8549L21.1628 7.78085C21.2194 7.72424 21.2703 7.66216 21.3147 7.59549ZM4.5 6.00011C4.22386 6.00011 4 6.22397 4 6.50011L4 19.5001C4 19.7763 4.22386 20.0001 4.5 20.0001L17.5 20.0001C17.7761 20.0001 18 19.7763 18 19.5001L18 15.2858C18 14.7335 18.4477 14.2858 19 14.2858C19.5523 14.2858 20 14.7335 20 15.2858L20 19.5001C20 20.8808 18.8807 22.0001 17.5 22.0001L4.5 22.0001C3.11929 22.0001 2 20.8808 2 19.5001L2 6.50011C2 5.1194 3.11929 4.00011 4.5 4.00011L8.71429 4.00011C9.26657 4.00011 9.71429 4.44783 9.71429 5.00011C9.71429 5.5524 9.26657 6.00011 8.71429 6.00011L4.5 6.00011Z" fill="rgb(14,17,23)" fill-rule="evenodd" />
</svg>
