<svg viewBox="0 0 24 24" xmlns="http://www.w3.org/2000/svg" xmlns:xlink="http://www.w3.org/1999/xlink" width="24.000000" height="24.000000" fill="none">
	<rect id="24 / Action / Filters Fill" width="24.000000" height="24.000000" x="0.000000" y="0.000000" />
	<path id="Vector" d="M2 7.00087C2 6.44859 2.44772 6.00087 3 6.00087L5.10334 6.00087C5.487 4.44205 6.8942 3.28589 8.57142 3.28589C10.2487 3.28589 11.6559 4.44205 12.0395 6.00087L21 6.00087C21.5523 6.00087 22 6.44859 22 7.00087C22 7.55315 21.5523 8.00087 21 8.00087L11.9559 8.00087C11.4791 9.41247 10.1439 10.4287 8.57142 10.4287C6.99892 10.4287 5.6638 9.41247 5.187 8.00087L3 8.00087C2.44772 8.00087 2 7.55315 2 7.00087ZM2 16C2 15.4477 2.44772 15 3 15L11.9607 15C12.3447 13.4416 13.7516 12.2859 15.4286 12.2859C17.0312 12.2859 18.3873 13.3415 18.8394 14.7953C18.8604 14.8627 18.8794 14.931 18.8964 15L21 15C21.5523 15 22 15.4477 22 16C22 16.5523 21.5523 17 21 17L18.8133 17C18.3367 18.4121 17.0014 19.4287 15.4286 19.4287C13.8558 19.4287 12.5204 18.4121 12.0439 17L3 17C2.44772 17 2 16.5523 2 16Z" fill="rgb(14,17,23)" fill-rule="evenodd" />
</svg>
