<svg viewBox="0 0 24 24" xmlns="http://www.w3.org/2000/svg" xmlns:xlink="http://www.w3.org/1999/xlink" width="24.000000" height="24.000000" fill="none">
	<rect id="24 / Action / Catalog Fill" width="24.000000" height="24.000000" x="0.000000" y="0.000000" />
	<path id="Vector" d="M13.158 6.12857L16.0367 3.24989C16.6225 2.66411 17.5723 2.66411 18.1581 3.24989L21.0367 6.12857C21.6225 6.71437 21.6225 7.66411 21.0367 8.24989L18.1581 11.1286C17.5723 11.7144 16.6225 11.7144 16.0367 11.1286L13.158 8.24989C12.5723 7.66411 12.5723 6.71437 13.158 6.12857ZM3.09766 5.18945L3.09766 9.18945C3.09766 10.294 3.9931 11.1894 5.09766 11.1894L9.09766 11.1894C10.2023 11.1894 11.0977 10.294 11.0977 9.18945L11.0977 5.18945C11.0977 4.08489 10.2023 3.18945 9.09766 3.18945L5.09766 3.18945C3.9931 3.18945 3.09766 4.08489 3.09766 5.18945ZM5.09766 13.1894L9.09766 13.1894C10.2023 13.1894 11.0977 14.085 11.0977 15.1894L11.0977 19.1894C11.0977 20.294 10.2023 21.1894 9.09766 21.1894L5.09766 21.1894C3.9931 21.1894 3.09766 20.294 3.09766 19.1894L3.09766 15.1894C3.09766 14.085 3.9931 13.1894 5.09766 13.1894ZM15.0977 13.1894L19.0977 13.1894C20.2023 13.1894 21.0977 14.085 21.0977 15.1894L21.0977 19.1894C21.0977 20.294 20.2023 21.1894 19.0977 21.1894L15.0977 21.1894C13.9931 21.1894 13.0977 20.294 13.0977 19.1894L13.0977 15.1894C13.0977 14.085 13.9931 13.1894 15.0977 13.1894Z" fill="rgb(14,17,23)" fill-rule="evenodd" />
</svg>
