<svg viewBox="0 0 24 24" xmlns="http://www.w3.org/2000/svg" xmlns:xlink="http://www.w3.org/1999/xlink" width="24.000000" height="24.000000" fill="none">
	<rect id="24 / Action / Settings" width="24.000000" height="24.000000" x="0.000000" y="0.000000" />
	<path id="Vector" d="M15.1263 3C15.1263 2.44772 14.6786 2 14.1263 2L9.87629 2C9.32399 2 8.87629 2.44772 8.87629 3L8.87629 4.53872C8.87629 4.92954 8.64551 5.27938 8.30559 5.47224C8.26921 5.4929 8.23301 5.51384 8.19701 5.53506C7.85991 5.73386 7.44095 5.75912 7.10203 5.56346L5.76867 4.79364C5.29039 4.5175 4.67879 4.68138 4.40265 5.15966L2.27765 8.84028C2.00151 9.31856 2.16539 9.93016 2.64367 10.2063L3.97875 10.9771C4.31701 11.1724 4.50473 11.5468 4.50153 11.9374L4.50127 12L4.50153 12.0625C4.50473 12.4531 4.31699 12.8275 3.97875 13.0228L2.64347 13.7937C2.16519 14.0698 2.00131 14.6814 2.27745 15.1597L4.40245 18.8403C4.67859 19.3186 5.29019 19.4825 5.76847 19.2064L7.10193 18.4365C7.44085 18.2408 7.85983 18.2661 8.19693 18.4649C8.23295 18.4861 8.26919 18.5071 8.30559 18.5278C8.64551 18.7206 8.87629 19.0705 8.87629 19.4613L8.87629 21C8.87629 21.5523 9.32399 22 9.87629 22L14.1263 22C14.6786 22 15.1263 21.5523 15.1263 21L15.1263 19.4613C15.1263 19.0705 15.357 18.7206 15.697 18.5278C15.7331 18.5072 15.7691 18.4864 15.8049 18.4654C16.1419 18.2666 16.5609 18.2414 16.8997 18.437L18.2321 19.2063C18.7104 19.4824 19.322 19.3186 19.5982 18.8403L21.7232 15.1597C21.9993 14.6814 21.8354 14.0698 21.3571 13.7936L20.0238 13.0238C19.6855 12.8285 19.4978 12.4541 19.501 12.0635L19.5013 12L19.501 11.9364C19.4978 11.5458 19.6855 11.1714 20.0238 10.9761L21.3569 10.2064C21.8352 9.93022 21.9991 9.31862 21.723 8.84034L19.598 5.15972C19.3218 4.68144 18.7102 4.51756 18.2319 4.7937L16.8996 5.56292C16.5607 5.75856 16.1418 5.73332 15.8048 5.5346C15.769 5.51352 15.7331 5.49274 15.697 5.47224C15.357 5.27938 15.1263 4.92954 15.1263 4.53872L15.1263 3ZM10.8763 4.53872L10.8763 4L13.1263 4L13.1263 4.53872C13.1263 5.74218 13.829 6.7119 14.71 7.21176C14.7365 7.22678 14.7628 7.24202 14.789 7.25748C15.6631 7.77282 16.8561 7.89742 17.8996 7.29496L18.3659 7.02576L19.4909 8.9743L19.0238 9.244C17.9826 9.84512 17.4927 10.938 17.5011 11.9531L17.5013 12L17.5011 12.0469C17.4927 13.0619 17.9826 14.1548 19.0238 14.7559L19.4911 15.0257L18.3661 16.9742L17.8997 16.705C16.8562 16.1025 15.6632 16.2271 14.7891 16.7425C14.7629 16.758 14.7365 16.7732 14.71 16.7882C13.829 17.2881 13.1263 18.2578 13.1263 19.4613L13.1263 20L10.8763 20L10.8763 19.4613C10.8763 18.2578 10.1736 17.2881 9.29255 16.7882C9.26585 16.7731 9.23931 16.7577 9.21289 16.7421C8.33871 16.2266 7.14557 16.1019 6.10193 16.7044L5.63451 16.9743L4.50951 15.0258L4.97875 14.7548C6.01979 14.1538 6.50975 13.0611 6.50147 12.0462L6.50129 12L6.50147 11.9537C6.50977 10.9388 6.01981 9.8461 4.97875 9.24506L4.50969 8.97424L5.63469 7.0257L6.10203 7.2955C7.14565 7.89804 8.33879 7.77332 9.21295 7.25782C9.23935 7.24226 9.26587 7.2269 9.29255 7.21176C10.1736 6.7119 10.8763 5.74218 10.8763 4.53872ZM12.001 8.5C10.068 8.5 8.50103 10.067 8.50103 12C8.50103 13.933 10.068 15.5 12.001 15.5C13.934 15.5 15.501 13.933 15.501 12C15.501 10.067 13.934 8.5 12.001 8.5ZM10.501 12C10.501 11.1716 11.1726 10.5 12.001 10.5C12.8295 10.5 13.501 11.1716 13.501 12C13.501 12.8284 12.8295 13.5 12.001 13.5C11.1726 13.5 10.501 12.8284 10.501 12Z" fill="rgb(14,17,23)" fill-rule="evenodd" />
</svg>
