<svg viewBox="0 0 24 24" xmlns="http://www.w3.org/2000/svg" xmlns:xlink="http://www.w3.org/1999/xlink" width="24.000000" height="24.000000" fill="none">
	<rect id="24 / Action / Kanban board Fill" width="24.000000" height="24.000000" x="0.000000" y="0.000000" />
	<path id="Vector" d="M2 4.5C2 3.11929 3.11929 2 4.5 2L11 2L11 19.5C11 20.8807 9.88071 22 8.5 22L4.5 22C3.11929 22 2 20.8807 2 19.5L2 4.5ZM13 2L19.5 2C20.8807 2 22 3.11929 22 4.5L22 11.5C22 12.8807 20.8807 14 19.5 14L14.5 14C13.6716 14 13 13.3284 13 12.5L13 2Z" fill="rgb(14,17,23)" fill-rule="evenodd" />
</svg>
