<svg viewBox="0 0 24 24" xmlns="http://www.w3.org/2000/svg" xmlns:xlink="http://www.w3.org/1999/xlink" width="24.000000" height="24.000000" fill="none">
	<rect id="24 / Action / Equaliser" width="24.000000" height="24.000000" x="0.000000" y="0.000000" />
	<path id="Vector" d="M19.0001 2C19.5524 2 20.0001 2.44772 20.0001 3L20.0001 12.8363C21.5222 13.2451 22.6427 14.6346 22.6427 16.2857C22.6427 17.9369 21.5222 19.3263 20.0001 19.7352L20.0001 21C20.0001 21.5523 19.5524 22 19.0001 22C18.4478 22 18.0001 21.5523 18.0001 21L18.0001 19.6937C16.551 19.2387 15.4998 17.885 15.4998 16.2857C15.4998 14.8064 16.3992 13.5371 17.6811 12.9949C17.785 12.951 17.8914 12.9118 18.0001 12.8777L18.0001 3C18.0001 2.44772 18.4478 2 19.0001 2ZM5.99951 3C5.99951 2.44772 5.55179 2 4.99951 2C4.44723 2 3.99951 2.44772 3.99951 3L3.99951 12.8363C2.47743 13.2451 1.35693 14.6346 1.35693 16.2857C1.35693 17.9369 2.47743 19.3263 3.99951 19.7352L3.99951 21C3.99951 21.5523 4.44723 22 4.99951 22C5.55179 22 5.99951 21.5523 5.99951 21L5.99951 19.6937C6.10817 19.6596 6.21461 19.6204 6.31853 19.5765C7.60035 19.0343 8.49979 17.7651 8.49979 16.2857C8.49979 14.6865 7.44861 13.3327 5.99951 12.8777L5.99951 3ZM12.9998 3C12.9998 2.44772 12.5521 2 11.9998 2C11.4475 2 10.9998 2.44772 10.9998 3L10.9998 4.28474C9.51407 4.71722 8.42835 6.08896 8.42835 7.71428C8.42835 9.3396 9.51407 10.7113 10.9998 11.1438L10.9998 21C10.9998 21.5523 11.4475 22 11.9998 22C12.5521 22 12.9998 21.5523 12.9998 21L12.9998 11.1438C14.4855 10.7113 15.5712 9.3396 15.5712 7.71428C15.5712 6.08896 14.4855 4.71722 12.9998 4.28474L12.9998 3ZM11.9998 6.14286C11.1319 6.14286 10.4284 6.84642 10.4284 7.71428C10.4284 8.58216 11.1319 9.28572 11.9998 9.28572C12.8677 9.28572 13.5712 8.58216 13.5712 7.71428C13.5712 6.84642 12.8677 6.14286 11.9998 6.14286ZM17.4998 16.2857C17.4998 15.4178 18.2034 14.7143 19.0712 14.7143C19.9391 14.7143 20.6427 15.4178 20.6427 16.2857C20.6427 17.1536 19.9391 17.8571 19.0712 17.8571C18.2034 17.8571 17.4998 17.1536 17.4998 16.2857ZM4.92835 14.7143C4.06049 14.7143 3.35693 15.4178 3.35693 16.2857C3.35693 17.1536 4.06049 17.8571 4.92835 17.8571C5.79623 17.8571 6.49979 17.1536 6.49979 16.2857C6.49979 15.4178 5.79623 14.7143 4.92835 14.7143Z" fill="rgb(14,17,23)" fill-rule="evenodd" />
</svg>
