<svg viewBox="0 0 24 24" xmlns="http://www.w3.org/2000/svg" xmlns:xlink="http://www.w3.org/1999/xlink" width="24.000000" height="24.000000" fill="none">
	<rect id="24 / Action / Add" width="24.000000" height="24.000000" x="0.000000" y="0.000000" />
	<path id="Vector" d="M10.9739 13.017L10.9739 17.9741C10.9739 18.5436 11.4213 18.991 11.9907 18.991C12.5602 18.991 13.0077 18.5436 13.0077 17.9741L13.0077 13.017L17.9648 13.017C18.5343 13.017 18.9817 12.5696 18.9817 12.0001C18.9817 11.4307 18.5343 10.9832 17.9648 10.9832L13.0077 10.9832L13.0077 6.02618C13.0077 5.45673 12.5602 5.00928 11.9907 5.00928C11.4213 5.00928 10.9739 5.45673 10.9739 6.02618L10.9739 10.9832L6.01685 10.9832C5.44739 10.9832 5 11.4307 5 12.0001C5 12.5696 5.44739 13.017 6.01685 13.017L10.9739 13.017Z" fill="rgb(14,17,23)" fill-rule="evenodd" />
</svg>
