<svg viewBox="0 0 24 24" xmlns="http://www.w3.org/2000/svg" xmlns:xlink="http://www.w3.org/1999/xlink" width="24.000000" height="24.000000" fill="none">
	<rect id="24 / Action / Trash fill" width="24.000000" height="24.000000" x="0.000000" y="0.000000" />
	<path id="Vector" d="M7.625 4C7.625 2.89543 8.52043 2 9.625 2L14.375 2C15.4796 2 16.375 2.89543 16.375 4L16.375 6L21 6C21.5523 6 22 6.44772 22 7C22 7.55228 21.5523 8 21 8L19.6729 8L18.6957 20.1602C18.6122 21.1993 17.7446 22 16.7021 22L7.29787 22C6.25542 22 5.38779 21.1993 5.30429 20.1602L4.32713 8L3 8C2.44772 8 2 7.55228 2 7C2 6.44772 2.44772 6 3 6L7.625 6L7.625 4ZM10 10.25C9.58579 10.25 9.25 10.5858 9.25 11L9.25 15.5C9.25 15.9142 9.58579 16.25 10 16.25C10.4142 16.25 10.75 15.9142 10.75 15.5L10.75 11C10.75 10.5858 10.4142 10.25 10 10.25ZM14 10.25C13.5858 10.25 13.25 10.5858 13.25 11L13.25 15.5C13.25 15.9142 13.5858 16.25 14 16.25C14.4142 16.25 14.75 15.9142 14.75 15.5L14.75 11C14.75 10.5858 14.4142 10.25 14 10.25Z" fill="rgb(14,17,23)" fill-rule="evenodd" />
</svg>
