<svg viewBox="0 0 24 24" xmlns="http://www.w3.org/2000/svg" xmlns:xlink="http://www.w3.org/1999/xlink" width="24.000000" height="24.000000" fill="none">
	<rect id="24 / Action / Catalog" width="24.000000" height="24.000000" x="0.000000" y="0.000000" />
	<path id="Vector" d="M16.0372 11.1286C16.623 11.7144 17.5728 11.7144 18.1586 11.1286L21.0372 8.24989C21.623 7.66411 21.623 6.71437 21.0372 6.12857L18.1586 3.24989C17.5728 2.66411 16.623 2.66411 16.0372 3.24989L13.1585 6.12857C12.5728 6.71437 12.5728 7.66411 13.1585 8.24989L16.0372 11.1286ZM9.09814 3.18945C10.2027 3.18945 11.0981 4.08489 11.0981 5.18945L11.0981 9.18945C11.0981 10.294 10.2027 11.1894 9.09814 11.1894L5.09814 11.1894C3.99358 11.1894 3.09814 10.294 3.09814 9.18945L3.09814 5.18945C3.09814 4.08489 3.99358 3.18945 5.09814 3.18945L9.09814 3.18945ZM19.2695 7.18917L17.0979 5.01759L14.9263 7.18917L17.0979 9.36075L19.2695 7.18917ZM9.09814 9.18945L5.09814 9.18945L5.09814 5.18945L9.09814 5.18945L9.09814 9.18945ZM3.09814 19.1894C3.09814 20.294 3.99358 21.1894 5.09814 21.1894L9.09814 21.1894C10.2027 21.1894 11.0981 20.294 11.0981 19.1894L11.0981 15.1894C11.0981 14.085 10.2027 13.1894 9.09814 13.1894L5.09814 13.1894C3.99358 13.1894 3.09814 14.085 3.09814 15.1894L3.09814 19.1894ZM13.0981 19.1894C13.0981 20.294 13.9935 21.1894 15.0981 21.1894L19.0981 21.1894C20.2027 21.1894 21.0981 20.294 21.0981 19.1894L21.0981 15.1894C21.0981 14.085 20.2027 13.1894 19.0981 13.1894L15.0981 13.1894C13.9935 13.1894 13.0981 14.085 13.0981 15.1894L13.0981 19.1894ZM9.09814 19.1894L5.09814 19.1894L5.09814 15.1894L9.09814 15.1894L9.09814 19.1894ZM19.0981 19.1894L15.0981 19.1894L15.0981 15.1894L19.0981 15.1894L19.0981 19.1894Z" fill="rgb(14,17,23)" fill-rule="evenodd" />
</svg>
