<svg viewBox="0 0 24 24" xmlns="http://www.w3.org/2000/svg" xmlns:xlink="http://www.w3.org/1999/xlink" width="24.000000" height="24.000000" fill="none">
	<rect id="24 / Action / Attachment" width="24.000000" height="24.000000" x="0.000000" y="0.000000" />
	<path id="Vector" d="M17.757 5.05364C16.8489 4.14547 15.3774 4.14238 14.4654 5.04674L6.22582 13.2175C4.67638 14.754 4.67113 17.2573 6.21412 18.8002C7.75253 20.3387 10.2468 20.3387 11.7852 18.8002L19.2926 11.2929C19.6831 10.9024 20.3163 10.9024 20.7068 11.2929C21.0973 11.6834 21.0973 12.3166 20.7068 12.7071L13.1994 20.2144C10.88 22.5339 7.11937 22.5339 4.7999 20.2145C2.47355 17.8881 2.48147 14.1139 4.81756 11.7973L13.0571 3.6266C14.7511 1.94679 17.4843 1.95252 19.1712 3.63943C20.8647 5.33285 20.8629 8.07897 19.1674 9.77027L10.9567 17.9604C9.87496 19.0394 8.1237 19.0382 7.04335 17.9579C5.96203 16.8766 5.96204 15.1234 7.04335 14.0421L14.2926 6.7929C14.6831 6.40237 15.3163 6.40237 15.7068 6.7929C16.0973 7.18342 16.0973 7.81659 15.7068 8.20711L8.45756 15.4563C8.1573 15.7566 8.1573 16.2434 8.45756 16.5437C8.75756 16.8437 9.24386 16.844 9.54424 16.5444L17.7549 8.35428C18.6678 7.44374 18.6687 5.96532 17.757 5.05364Z" fill="rgb(14,17,23)" fill-rule="evenodd" />
</svg>
