<svg viewBox="0 0 24 24" xmlns="http://www.w3.org/2000/svg" xmlns:xlink="http://www.w3.org/1999/xlink" width="24.000000" height="24.000000" fill="none">
	<rect id="24 / Action / Search" width="24.000000" height="24.000000" x="0.000000" y="0.000000" />
	<path id="Vector" d="M10.0006 18C5.58234 18 2.00061 14.4183 2.00061 10C2.00061 5.58173 5.58234 2 10.0006 2C14.4189 2 18.0006 5.58173 18.0006 10C18.0006 11.8487 17.3735 13.551 16.3205 14.9056L21.4577 20.0429C21.8482 20.4334 21.8482 21.0666 21.4577 21.4571C21.0672 21.8476 20.434 21.8476 20.0435 21.4571L14.9063 16.3199C13.5516 17.3729 11.8493 18 10.0006 18ZM14.2433 14.2426C15.3312 13.1547 16.0006 11.6574 16.0006 10C16.0006 6.6863 13.3143 4 10.0006 4C6.68691 4 4.00061 6.6863 4.00061 10C4.00061 13.3137 6.68691 16 10.0006 16C11.658 16 13.1553 15.3306 14.2433 14.2426Z" fill="rgb(14,17,23)" fill-rule="evenodd" />
</svg>
