<svg viewBox="0 0 24 24" xmlns="http://www.w3.org/2000/svg" xmlns:xlink="http://www.w3.org/1999/xlink" width="24.000000" height="24.000000" fill="none">
	<rect id="24 / Action / Equaliser Fill" width="24.000000" height="24.000000" x="0.000000" y="0.000000" />
	<path id="Vector" d="M12 2C12.5523 2 13 2.44772 13 3L13 4.28474C14.4858 4.71722 15.5715 6.08896 15.5715 7.71428C15.5715 9.3169 14.5159 10.673 13.0621 11.1252C13.0415 11.1316 13.0208 11.1378 13 11.1438L13 21C13 21.5523 12.5523 22 12 22C11.4478 22 11 21.5523 11 21L11 11.1438C9.51432 10.7113 8.4286 9.3396 8.4286 7.71428C8.4286 6.11168 9.48418 4.7556 10.938 4.30342C10.9586 4.29702 10.9793 4.29078 11 4.28474L11 3C11 2.44772 11.4478 2 12 2ZM5.99976 3C5.99976 2.44772 5.55204 2 4.99976 2C4.44748 2 3.99976 2.44772 3.99976 3L3.99976 12.8363C2.47768 13.2451 1.35718 14.6346 1.35718 16.2857C1.35718 17.9369 2.47768 19.3263 3.99976 19.7352L3.99976 21C3.99976 21.5523 4.44748 22 4.99976 22C5.55204 22 5.99976 21.5523 5.99976 21L5.99976 19.6937C6.10842 19.6596 6.21486 19.6204 6.31878 19.5765C7.6006 19.0343 8.50004 17.765 8.50004 16.2857C8.50004 14.6865 7.44886 13.3327 5.99976 12.8777L5.99976 3ZM20.0003 3C20.0003 2.44772 19.5526 2 19.0003 2C18.448 2 18.0003 2.44772 18.0003 3L18.0003 12.8777C16.5512 13.3327 15.5 14.6865 15.5 16.2857C15.5 17.885 16.5512 19.2387 18.0003 19.6937L18.0003 21C18.0003 21.5523 18.448 22 19.0003 22C19.5526 22 20.0003 21.5523 20.0003 21L20.0003 19.7352C21.5224 19.3263 22.6429 17.9369 22.6429 16.2857C22.6429 14.6346 21.5224 13.2451 20.0003 12.8363L20.0003 3Z" fill="rgb(14,17,23)" fill-rule="evenodd" />
</svg>
