<svg viewBox="0 0 24 24" xmlns="http://www.w3.org/2000/svg" xmlns:xlink="http://www.w3.org/1999/xlink" width="24.000000" height="24.000000" fill="none">
	<rect id="24 / Action / View" width="24.000000" height="24.000000" x="0.000000" y="0.000000" />
	<path id="Vector" d="M12.1296 6.06193C14.3066 2.79641 19.1051 2.79641 21.2822 6.06193L22.0589 7.22707C22.3948 7.73091 22.3948 8.38733 22.0589 8.89117L21.2822 10.0563C19.1051 13.3218 14.3066 13.3218 12.1296 10.0563L11.3529 8.89117C11.017 8.38733 11.017 7.73091 11.3529 7.22707L12.1296 6.06193ZM4.5 4.00029C3.11928 4.00029 2 5.11959 2 6.50029L2 10.7146C2 11.2669 2.44772 11.7146 3 11.7146C3.55228 11.7146 4 11.2669 4 10.7146L4 6.50029C4 6.22415 4.22386 6.00029 4.5 6.00029L9.07142 6.00029C9.62372 6.00029 10.0714 5.55259 10.0714 5.00029C10.0714 4.44801 9.62372 4.00029 9.07142 4.00029L4.5 4.00029ZM19.6181 7.17133C18.2327 5.09327 15.1791 5.09327 13.7937 7.17135L13.2019 8.05913L13.7937 8.94691C15.1791 11.025 18.2327 11.025 19.6181 8.94691L20.2099 8.05913L19.6181 7.17133ZM17.8529 8.05909C17.8529 8.70883 17.3262 9.23557 16.6765 9.23557C16.0267 9.23557 15.5 8.70883 15.5 8.05909C15.5 7.40935 16.0267 6.88263 16.6765 6.88263C17.3262 6.88263 17.8529 7.40935 17.8529 8.05909ZM21 14.7146C21 14.1623 20.5523 13.7146 20 13.7146C19.4477 13.7146 19 14.1623 19 14.7146L19 19.5003C19 19.7765 18.7761 20.0003 18.5 20.0003L13.9286 20.0003C13.3763 20.0003 12.9286 20.448 12.9286 21.0003C12.9286 21.5526 13.3763 22.0003 13.9286 22.0003L18.5 22.0003C19.8807 22.0003 21 20.881 21 19.5003L21 14.7146ZM4 15.286C4 14.7337 3.55228 14.286 3 14.286C2.44772 14.286 2 14.7337 2 15.286L2 19.5003C2 20.881 3.11928 22.0003 4.5 22.0003L9.07142 22.0003C9.62372 22.0003 10.0714 21.5526 10.0714 21.0003C10.0714 20.448 9.62372 20.0003 9.07142 20.0003L4.5 20.0003C4.22386 20.0003 4 19.7765 4 19.5003L4 15.286Z" fill="rgb(14,17,23)" fill-rule="evenodd" />
</svg>
