<svg viewBox="0 0 24 24" xmlns="http://www.w3.org/2000/svg" xmlns:xlink="http://www.w3.org/1999/xlink" width="24.000000" height="24.000000" fill="none">
	<rect id="24 / Action / Home" width="24.000000" height="24.000000" x="0.000000" y="0.000000" />
	<path id="Vector" d="M12.9 2.05C12.3667 1.65 11.6334 1.65 11.1 2.05L1.424 9.30702C0.647569 9.88937 1.05936 11.125 2.03002 11.125L3.9997 11.125L3.9997 20.5C3.9997 21.3284 4.67127 22 5.4997 22L9.4997 22C10.3281 22 10.9997 21.3284 10.9997 20.5L10.9997 15L13 15L13 20.5C13 21.3284 13.6716 22 14.5 22L18.5 22C19.3284 22 20 21.3284 20 20.5L20 11.125L21.97 11.125C22.9406 11.125 23.3526 9.88941 22.576 9.307L12.9 2.05ZM12 3.875L18 8.375L18 10.125L18 11.125L18 20L15 20L15 14.5C15 13.6716 14.3284 13 13.5 13L10.4997 13C9.67127 13 8.9997 13.6716 8.9997 14.5L8.9997 20L5.9997 20L5.9997 10.125L6.00002 11.125L6.00002 8.375L12 3.875Z" fill="rgb(14,17,23)" fill-rule="evenodd" />
</svg>
