<svg viewBox="0 0 24 24" xmlns="http://www.w3.org/2000/svg" xmlns:xlink="http://www.w3.org/1999/xlink" width="24.000000" height="24.000000" fill="none">
	<rect id="24 / Action / Home Fill" width="24.000000" height="24.000000" x="0.000000" y="0.000000" />
	<path id="Vector" d="M11.1 2.05C11.6334 1.65 12.3667 1.65 12.9 2.05L22.576 9.307C23.3526 9.88941 22.9406 11.125 21.97 11.125L20 11.125L20.0003 20.5C20.0003 21.3284 19.3288 22 18.5003 22L15.0005 22C14.172 22 13.5005 21.3284 13.5005 20.5L13.5005 15L10.5005 15L10.5005 20.5C10.5005 21.3284 9.8289 22 9.00047 22L5.50002 22C4.67159 22 4.00002 21.3284 4.00002 20.5L4.00002 11.125L2.03002 11.125C1.05936 11.125 0.647569 9.88937 1.424 9.30702L11.1 2.05Z" fill="rgb(14,17,23)" fill-rule="evenodd" />
</svg>
