<svg viewBox="0 0 24 24" xmlns="http://www.w3.org/2000/svg" xmlns:xlink="http://www.w3.org/1999/xlink" width="24.000000" height="24.000000" fill="none">
	<rect id="24 / Action / Copy Fill" width="24.000000" height="24.000000" x="0.000000" y="0.000000" />
	<path id="Vector" d="M3.36914 4C3.36914 2.89543 4.26457 2 5.36914 2L15.3691 2C16.4737 2 17.3691 2.89543 17.3691 4L17.3691 16C17.3691 17.1046 16.4737 18 15.3691 18L5.36914 18C4.26457 18 3.36914 17.1046 3.36914 16L3.36914 4ZM20.3689 6.07617C20.9212 6.07617 21.3689 6.52389 21.3689 7.07617L21.3689 17.9961C21.3689 20.2052 19.5781 21.9961 17.3689 21.9961L8.40235 21.9962C7.85007 21.9962 7.40235 21.5485 7.40234 20.9962C7.40234 20.4439 7.85005 19.9962 8.40234 19.9962L17.3689 19.9961C18.4735 19.9961 19.3689 19.1007 19.3689 17.9961L19.3689 7.07617C19.3689 6.52389 19.8166 6.07617 20.3689 6.07617Z" fill="rgb(14,17,23)" fill-rule="evenodd" />
</svg>
