<svg viewBox="0 0 24 24" xmlns="http://www.w3.org/2000/svg" xmlns:xlink="http://www.w3.org/1999/xlink" width="24.000000" height="24.000000" fill="none">
	<rect id="24 / Alert / Information Fill" width="24.000000" height="24.000000" x="0.000000" y="0.000000" />
	<path id="Vector" d="M12.0011 21.885C17.4511 21.885 21.8811 17.455 21.8811 12.005C21.8811 6.55499 17.4511 2.11499 12.0011 2.11499C6.5511 2.11499 2.12109 6.54499 2.12109 11.995C2.12109 17.445 6.55109 21.875 12.0011 21.875L12.0011 21.885ZM13.0011 16.785C13.0011 17.335 12.5511 17.785 12.0011 17.785C11.4511 17.785 11.0011 17.335 11.0011 16.785L11.0011 11.365C11.0011 10.815 11.4511 10.365 12.0011 10.365C12.5511 10.365 13.0011 10.815 13.0011 11.365L13.0011 16.785ZM12.0011 6.43499C12.6711 6.43499 13.2111 6.97499 13.2111 7.64499C13.2111 8.31499 12.6711 8.85499 12.0011 8.85499C11.3311 8.85499 10.7911 8.31499 10.7911 7.64499C10.7911 6.97499 11.3311 6.43499 12.0011 6.43499Z" fill="rgb(14,17,23)" fill-rule="nonzero" />
</svg>
