<svg viewBox="0 0 24 24" xmlns="http://www.w3.org/2000/svg" xmlns:xlink="http://www.w3.org/1999/xlink" width="24.000000" height="24.000000" fill="none">
	<rect id="24 / Alert / Information" width="24.000000" height="24.000000" x="0.000000" y="0.000000" />
	<path id="Vector" d="M12.001 2.12C12.7356 2.12 13.4526 2.19788 14.1524 2.35352C14.729 2.4817 15.294 2.66284 15.8472 2.89686C16.4055 3.13294 16.9336 3.41492 17.4314 3.74279C17.9878 4.10914 18.5064 4.53284 18.9873 5.01379C19.4683 5.49475 19.8919 6.01344 20.2583 6.56982C20.5862 7.06764 20.8682 7.5957 21.1043 8.15393C21.3381 8.70716 21.5193 9.27209 21.6477 9.84875C21.8032 10.5485 21.8811 11.2656 21.8811 12C21.8811 12.7344 21.8032 13.4514 21.6477 14.1513C21.5193 14.7279 21.3381 15.2929 21.1043 15.8461C20.8682 16.4042 20.5862 16.9323 20.2586 17.4301C19.8921 17.9865 19.4683 18.5053 18.9873 18.9862C18.5064 19.4672 17.9878 19.8908 17.4314 20.2571C16.9336 20.585 16.4055 20.8671 15.8472 21.1032C15.294 21.3372 14.729 21.5183 14.1524 21.6466C13.4524 21.8021 12.7354 21.88 12.001 21.88C11.2666 21.88 10.5496 21.8021 9.84985 21.6465C9.27319 21.5183 8.70825 21.3372 8.15503 21.1032C7.59693 20.8671 7.06885 20.5851 6.57105 20.2573C6.01465 19.8909 5.49585 19.4672 5.01489 18.9862C4.53393 18.5053 4.11035 17.9867 3.74389 17.4303C3.41601 16.9324 3.13403 16.4043 2.89795 15.8461C2.66405 15.2929 2.48291 14.7279 2.35449 14.1513C2.19897 13.4515 2.12109 12.7344 2.12109 12C2.12109 11.2656 2.19897 10.5485 2.35449 9.84875C2.48291 9.27209 2.66405 8.70716 2.89795 8.15393C3.13403 7.5957 3.41601 7.06764 3.74389 6.56969C4.11035 6.01332 4.53393 5.49475 5.01489 5.01379C5.49585 4.53284 6.01441 4.10925 6.57079 3.74279C7.06861 3.41492 7.59667 3.13294 8.15503 2.89686C8.70825 2.66284 9.27319 2.4817 9.84985 2.35352C10.5496 2.19788 11.2666 2.12 12.001 2.12ZM12.001 4.12C11.4019 4.12 10.8174 4.18482 10.2476 4.31433C9.80053 4.41602 9.36279 4.5575 8.93407 4.73889C8.49561 4.92431 8.08031 5.1454 7.68847 5.40197C7.23779 5.69701 6.81811 6.03905 6.42919 6.42798C6.04003 6.81702 5.69799 7.23669 5.40307 7.68725C5.14649 8.07922 4.92553 8.49451 4.73999 8.93312C4.55859 9.36181 4.41699 9.79955 4.31543 10.2465C4.18579 10.8162 4.12109 11.4008 4.12109 12C4.12109 12.5992 4.18579 13.1838 4.31543 13.7535C4.41699 14.2004 4.55859 14.6382 4.73999 15.0669C4.92553 15.5055 5.14649 15.9208 5.40307 16.3128C5.69823 16.7633 6.04003 17.183 6.42919 17.572C6.81811 17.9609 7.23779 18.303 7.68823 18.5979C8.08031 18.8546 8.49561 19.0757 8.93407 19.2611C9.36279 19.4425 9.80077 19.584 10.2476 19.6857C10.8174 19.8152 11.4019 19.88 12.001 19.88C12.6003 19.88 13.1848 19.8152 13.7544 19.6857C14.2014 19.584 14.6392 19.4425 15.0681 19.2611C15.5066 19.0757 15.9219 18.8546 16.314 18.5979C16.7644 18.303 17.1841 17.9609 17.573 17.572C17.9622 17.183 18.304 16.7633 18.5991 16.3128C18.8557 15.9208 19.0767 15.5055 19.2622 15.0669C19.4436 14.6382 19.585 14.2004 19.6868 13.7535C19.8164 13.1837 19.8811 12.5992 19.8811 12C19.8811 11.4008 19.8164 10.8163 19.6868 10.2466C19.5852 9.79967 19.4436 9.36181 19.2622 8.93312C19.0767 8.49451 18.8557 8.07922 18.5991 7.68738Q18.1567 7.01154 17.573 6.42798C17.1841 6.03905 16.7644 5.69701 16.314 5.40209C15.9219 5.1454 15.5066 4.92431 15.0681 4.73889C14.6394 4.5575 14.2014 4.41602 13.7546 4.31433C13.1848 4.18482 12.6003 4.12 12.001 4.12ZM10.7913 7.6499C10.7913 6.9817 11.333 6.43994 12.0012 6.43994C12.6694 6.43994 13.2112 6.9817 13.2112 7.6499C13.2112 8.31824 12.6694 8.85999 12.0012 8.85999C11.333 8.85999 10.7913 8.31824 10.7913 7.6499ZM13.0013 11.1728L13.0012 16.7899C13.0012 17.35 12.5613 17.7899 12.0012 17.7899C11.4412 17.7899 11.0012 17.35 11.0012 16.7899L11.0013 11.1728C11.0013 10.6127 11.4413 10.1728 12.0013 10.1728C12.5614 10.1728 13.0013 10.6127 13.0013 11.1728Z" fill="rgb(14,17,23)" fill-rule="evenodd" />
</svg>
