<svg viewBox="0 0 24 24" xmlns="http://www.w3.org/2000/svg" xmlns:xlink="http://www.w3.org/1999/xlink" width="24.000000" height="24.000000" fill="none">
	<rect id="24 / Communication / Comments" width="24.000000" height="24.000000" x="0.000000" y="0.000000" />
	<path id="Vector" d="M4.5 4C3.11928 4 2 5.11928 2 6.5L2 15.5C2 16.8807 3.11928 18 4.5 18L8.25 18C8.40738 18 8.55558 18.0741 8.65 18.2L10.8 21.0667C11.4 21.8667 12.6 21.8667 13.2 21.0667L15.35 18.2C15.4444 18.0741 15.5926 18 15.75 18L19.5 18C20.8807 18 22 16.8807 22 15.5L22 6.5C22 5.11928 20.8807 4 19.5 4L4.5 4ZM4 6.5C4 6.22386 4.22386 6 4.5 6L19.5 6C19.7761 6 20 6.22386 20 6.5L20 15.5C20 15.7761 19.7761 16 19.5 16L15.75 16C14.9631 16 14.2221 16.3705 13.75 17L12 19.3333L10.25 17C9.77786 16.3705 9.0369 16 8.25 16L4.5 16C4.22386 16 4 15.7761 4 15.5L4 6.5ZM7 9C7 8.44772 7.44772 8 8 8L16 8C16.5523 8 17 8.44772 17 9C17 9.55228 16.5523 10 16 10L8 10C7.44772 10 7 9.55228 7 9ZM7 13C7 12.4477 7.44772 12 8 12L16 12C16.5523 12 17 12.4477 17 13C17 13.5523 16.5523 14 16 14L8 14C7.44772 14 7 13.5523 7 13Z" fill="rgb(14,17,23)" fill-rule="evenodd" />
</svg>
