<svg viewBox="0 0 24 24" xmlns="http://www.w3.org/2000/svg" xmlns:xlink="http://www.w3.org/1999/xlink" width="24.000000" height="24.000000" fill="none">
	<rect id="24 / Communication / Parent Branch connection" width="24.000000" height="24.000000" x="0.000000" y="0.000000" />
	<path id="Vector" d="M3 15C3 17.2091 4.79086 19 7 19L13.126 19C13.5701 20.7252 15.1362 22 17 22C19.2091 22 21 20.2091 21 18C21 15.7909 19.2091 14 17 14C15.1362 14 13.5701 15.2748 13.126 17L7 17C5.89543 17 5 16.1046 5 15L5 10L13.126 10C13.5701 11.7252 15.1362 13 17 13C19.2091 13 21 11.2091 21 9C21 6.79086 19.2091 5 17 5C15.1362 5 13.5701 6.27477 13.126 8L5 8L5 3C5 2.44771 4.55229 2 4 2C3.44771 2 3 2.44771 3 3L3 9L3 15ZM17 20C18.1046 20 19 19.1046 19 18C19 16.8954 18.1046 16 17 16C15.8954 16 15 16.8954 15 18C15 19.1046 15.8954 20 17 20ZM17 11C18.1046 11 19 10.1046 19 9C19 7.89543 18.1046 7 17 7C15.8954 7 15 7.89543 15 9C15 10.1046 15.8954 11 17 11Z" fill="rgb(14,17,23)" fill-rule="evenodd" />
</svg>
