<svg viewBox="0 0 24 24" xmlns="http://www.w3.org/2000/svg" xmlns:xlink="http://www.w3.org/1999/xlink" width="24.000000" height="24.000000" fill="none">
	<rect id="24 / Communication / Connect" width="24.000000" height="24.000000" x="0.000000" y="0.000000" />
	<path id="Vector" d="M15.999 6C15.999 8.20914 14.2082 10 11.999 10C9.78988 10 7.99902 8.20914 7.99902 6C7.99902 3.79086 9.78988 2 11.999 2C14.2082 2 15.999 3.79086 15.999 6ZM11.999 8C13.1036 8 13.999 7.10456 13.999 6C13.999 4.89544 13.1036 4 11.999 4C10.8945 4 9.99902 4.89544 9.99902 6C9.99902 7.10456 10.8945 8 11.999 8ZM4.05022 12.09C4.2966 9.91392 5.41598 8.00252 7.04966 6.71436C7.154 7.44378 7.41578 8.1224 7.79944 8.71472C6.8877 9.60834 6.25994 10.7906 6.06404 12.1136C5.7209 12.0392 5.36464 12 4.9992 12C4.67472 12 4.35746 12.0309 4.05022 12.09ZM17.934 12.1138C17.7381 10.7907 17.1104 9.60838 16.1986 8.71472C16.5823 8.1224 16.844 7.44378 16.9484 6.71436C18.582 8.0025 19.7014 9.91386 19.9478 12.0898C19.6408 12.0309 19.3237 12 18.9994 12C18.6338 12 18.2773 12.0393 17.934 12.1138ZM22.999 17C22.999 19.2091 21.2082 21 18.999 21C16.7899 21 14.999 19.2091 14.999 17C14.999 14.7909 16.7899 13 18.999 13C21.2082 13 22.999 14.7909 22.999 17ZM8.99902 17C8.99902 19.2091 7.20816 21 4.99902 21C2.78988 21 0.999023 19.2091 0.999023 17C0.999023 14.7909 2.78988 13 4.99902 13C7.20816 13 8.99902 14.7909 8.99902 17ZM18.999 19C20.1036 19 20.999 18.1046 20.999 17C20.999 15.8954 20.1036 15 18.999 15C17.8945 15 16.999 15.8954 16.999 17C16.999 18.1046 17.8945 19 18.999 19ZM4.99902 19C6.10358 19 6.99902 18.1046 6.99902 17C6.99902 15.8954 6.10358 15 4.99902 15C3.89446 15 2.99902 15.8954 2.99902 17C2.99902 18.1046 3.89446 19 4.99902 19ZM8.74598 20.3109C9.73986 20.7538 10.8407 21 11.999 21C13.1575 21 14.2585 20.7538 15.2525 20.3107C14.8081 19.8082 14.4633 19.2157 14.2489 18.5639C13.5541 18.8451 12.7946 19 11.999 19C11.2036 19 10.4443 18.8452 9.74968 18.5641C9.53522 19.2159 9.19036 19.8084 8.74598 20.3109Z" fill="rgb(14,17,23)" fill-rule="evenodd" />
</svg>
