<svg viewBox="0 0 24 24" xmlns="http://www.w3.org/2000/svg" xmlns:xlink="http://www.w3.org/1999/xlink" width="24.000000" height="24.000000" fill="none">
	<rect id="24 / Communication / Comments Fill" width="24.000000" height="24.000000" x="0.000000" y="0.000000" />
	<path id="Vector" d="M4.5 4C3.11929 4 2 5.11929 2 6.5L2 15.5C2 16.8807 3.11929 18 4.5 18L8.25 18C8.40738 18 8.55557 18.0741 8.65 18.2L10.8 21.0667C11.4 21.8667 12.6 21.8667 13.2 21.0667L15.35 18.2C15.4444 18.0741 15.5926 18 15.75 18L19.5 18C20.8807 18 22 16.8807 22 15.5L22 6.5C22 5.11929 20.8807 4 19.5 4L4.5 4ZM7 9C7 8.44772 7.44772 8 8 8L16 8C16.5523 8 17 8.44772 17 9C17 9.55228 16.5523 10 16 10L8 10C7.44772 10 7 9.55228 7 9ZM8 12C7.44772 12 7 12.4477 7 13C7 13.5523 7.44772 14 8 14L16 14C16.5523 14 17 13.5523 17 13C17 12.4477 16.5523 12 16 12L8 12Z" fill="rgb(14,17,23)" fill-rule="evenodd" />
</svg>
