<svg viewBox="0 0 24 24" xmlns="http://www.w3.org/2000/svg" xmlns:xlink="http://www.w3.org/1999/xlink" width="24.000000" height="24.000000" fill="none">
	<rect id="24 / Communication / Task Remove Fill" width="24.000000" height="24.000000" x="0.000000" y="0.000000" />
	<path id="Vector" d="M9 1C7.89544 1 7 1.89544 7 3L7 5C7 6.10456 7.89544 7 9 7L15 7C16.1046 7 17 6.10456 17 5L17 3C17 1.89544 16.1046 1 15 1L9 1ZM4 6.00002C4 4.76864 4.74192 3.71052 5.80312 3.2483L5.80312 5.49984C5.80312 6.88054 6.9224 7.99984 8.30312 7.99984L15.6971 7.99984C17.0778 7.99984 18.1971 6.88054 18.1971 5.49984L18.1971 3.2484C19.2582 3.71066 20 4.76872 20 6.00002L20 19C20 20.6569 18.6569 22 17 22L7 22C5.34314 22 4 20.6569 4 19L4 6.00002ZM10.7071 12.2931C10.3166 11.9026 9.68342 11.9026 9.2929 12.2931C8.90236 12.6837 8.90236 13.3168 9.2929 13.7073L10.5858 15.0002L9.2929 16.2931C8.90236 16.6836 8.90236 17.3168 9.2929 17.7073C9.68342 18.0979 10.3166 18.0979 10.7071 17.7073L12 16.4144L13.2929 17.7073C13.6834 18.0979 14.3166 18.0979 14.7071 17.7073C15.0976 17.3168 15.0976 16.6836 14.7071 16.2931L13.4142 15.0002L14.7071 13.7073C15.0976 13.3168 15.0976 12.6837 14.7071 12.2931C14.3166 11.9026 13.6834 11.9026 13.2929 12.2931L12 13.586L10.7071 12.2931Z" fill="rgb(14,17,23)" fill-rule="evenodd" />
</svg>
