<svg viewBox="0 0 24 24" xmlns="http://www.w3.org/2000/svg" xmlns:xlink="http://www.w3.org/1999/xlink" width="24.000000" height="24.000000" fill="none">
	<rect id="24 / Communication / Parent connection" width="24.000000" height="24.000000" x="0.000000" y="0.000000" />
	<path id="Vector" d="M5 6C5 4.89543 5.89543 4 7 4C8.10457 4 9 4.89543 9 6C9 7.10457 8.10457 8 7 8C5.89543 8 5 7.10457 5 6ZM10.874 5C10.4299 3.27477 8.86384 2 7 2C4.79086 2 3 3.79086 3 6C3 8.20914 4.79086 10 7 10C8.86384 10 10.4299 8.72523 10.874 7L16 7C17.1046 7 18 7.89543 18 9L18 20C18 20.5523 18.4477 21 19 21C19.5523 21 20 20.5523 20 20L20 9C20 6.79086 18.2091 5 16 5L10.874 5Z" fill="rgb(14,17,23)" fill-rule="evenodd" />
</svg>
