<svg viewBox="0 0 24 24" xmlns="http://www.w3.org/2000/svg" xmlns:xlink="http://www.w3.org/1999/xlink" width="24.000000" height="24.000000" fill="none">
	<rect id="24 / Document / Document Fill" width="24.000000" height="24.000000" x="0.000000" y="0.000000" />
	<path id="Vector" d="M4 4.5C4 3.11929 5.11929 2 6.5 2L15 2C15.2652 2 15.5196 2.10536 15.7071 2.29289L19.7071 6.29289C19.8946 6.48043 20 6.73478 20 7L20 19.5C20 20.8807 18.8807 22 17.5 22L6.5 22C5.11929 22 4 20.8807 4 19.5L4 4.5ZM14 4.20711L14 7.5C14 7.77614 14.2239 8 14.5 8L17.7929 8C18.2383 8 18.4614 7.46143 18.1464 7.14645L14.8536 3.85355C14.5386 3.53857 14 3.76165 14 4.20711Z" fill="rgb(14,17,23)" fill-rule="evenodd" />
</svg>
