<svg viewBox="0 0 24 24" xmlns="http://www.w3.org/2000/svg" xmlns:xlink="http://www.w3.org/1999/xlink" width="24.000000" height="24.000000" fill="none">
	<rect id="24 / Document / Folder Open" width="24.000000" height="24.000000" x="0.000000" y="0.000000" />
	<path id="Vector" d="M3 6.5C3 6.22386 3.22386 6 3.5 6L8.37868 6C8.51129 6 8.63846 6.05268 8.73223 6.14645L9.85355 7.26777C10.3224 7.73661 10.9583 8 11.6213 8L18.5 8C18.7761 8 19 8.22386 19 8.5L19 12L6 12C5.6581 12 5.3399 12.1747 5.15634 12.4631L3 15.8517L3 6.5ZM4.00349 18L17.9256 18L20.259 14L6.54895 14L4.00349 18ZM21 12L21 8.5C21 7.11929 19.8807 6 18.5 6L11.6213 6C11.4887 6 11.3615 5.94732 11.2678 5.85355L10.1464 4.73223C9.6776 4.26339 9.04172 4 8.37868 4L3.5 4C2.11929 4 1 5.11929 1 6.5L1 17.5C1 18.8807 2.11929 20 3.5 20L18.481 20C18.5203 20.0007 18.5596 19.9991 18.5985 19.9952C18.7429 19.9811 18.8784 19.9362 18.9981 19.8673C19.1181 19.7986 19.225 19.7042 19.31 19.5866C19.333 19.5549 19.3541 19.5218 19.3733 19.4875L22.8638 13.5039C23.0442 13.1946 23.0455 12.8124 22.8671 12.5019C22.6888 12.1914 22.3581 12 22 12L21 12Z" fill="rgb(14,17,23)" fill-rule="evenodd" />
</svg>
