<svg viewBox="0 0 24 24" xmlns="http://www.w3.org/2000/svg" xmlns:xlink="http://www.w3.org/1999/xlink" width="24.000000" height="24.000000" fill="none">
	<rect id="24 / Document / Folder Open Fill" width="24.000000" height="24.000000" x="0.000000" y="0.000000" />
	<path id="Vector" d="M3.5 4C2.11928 4 1 5.11928 1 6.5L1 17.5C1 17.7739 1.04406 18.0375 1.12546 18.2842L5.1778 12.4308C5.3646 12.161 5.67186 12 6 12L21 12L21 8.5C21 7.11928 19.8807 6 18.5 6L11.6213 6C11.4887 6 11.3615 5.94732 11.2678 5.85356L10.1464 4.73224C9.6776 4.2634 9.04172 4 8.37868 4L3.5 4ZM2.54322 19.2154L6.35088 13.7154C6.44428 13.5805 6.5979 13.5 6.76198 13.5L21.7188 13.5C22.0837 13.5 22.3257 13.8782 22.1727 14.2095L19.9022 19.1286C19.657 19.6598 19.1253 20 18.5403 20L2.95432 20C2.551 20 2.31366 19.547 2.54322 19.2154Z" fill="rgb(14,17,23)" fill-rule="evenodd" />
</svg>
