<svg viewBox="0 0 24 24" xmlns="http://www.w3.org/2000/svg" xmlns:xlink="http://www.w3.org/1999/xlink" width="24.000000" height="23.999969" fill="none">
	<rect id="24 / Editor / List Fill" width="24.000000" height="24.000000" x="0.000000" y="0.000000" />
	<path id="Vector" d="M19.3049 1.995L4.69487 1.995C3.20487 1.995 1.99487 3.20499 1.99487 4.69499L1.99487 19.305C1.99487 20.795 3.20487 22.005 4.69487 22.005L19.3049 22.005C20.7949 22.005 22.0049 20.795 22.0049 19.305L22.0049 4.69499C22.0049 3.20499 20.7949 1.995 19.3049 1.995ZM6.70487 18.515C5.87487 18.515 5.20487 17.845 5.20487 17.015C5.20487 16.185 5.87487 15.515 6.70487 15.515C7.53487 15.515 8.20487 16.185 8.20487 17.015C8.20487 17.845 7.53487 18.515 6.70487 18.515ZM6.70487 13.495C5.87487 13.495 5.20487 12.825 5.20487 11.995C5.20487 11.165 5.87487 10.495 6.70487 10.495C7.53487 10.495 8.20487 11.165 8.20487 11.995C8.20487 12.825 7.53487 13.495 6.70487 13.495ZM6.70487 8.475C5.87487 8.475 5.20487 7.805 5.20487 6.975C5.20487 6.145 5.87487 5.475 6.70487 5.475C7.53487 5.475 8.20487 6.145 8.20487 6.975C8.20487 7.805 7.53487 8.475 6.70487 8.475ZM17.7949 18.015L10.4649 18.015C9.91487 18.015 9.46487 17.565 9.46487 17.015C9.46487 16.465 9.91487 16.015 10.4649 16.015L17.7949 16.015C18.3449 16.015 18.7949 16.465 18.7949 17.015C18.7949 17.565 18.3449 18.015 17.7949 18.015ZM17.7949 12.995L10.4649 12.995C9.91487 12.995 9.46487 12.545 9.46487 11.995C9.46487 11.445 9.91487 10.995 10.4649 10.995L17.7949 10.995C18.3449 10.995 18.7949 11.445 18.7949 11.995C18.7949 12.545 18.3449 12.995 17.7949 12.995ZM17.7949 7.975L10.4649 7.975C9.91487 7.975 9.46487 7.525 9.46487 6.975C9.46487 6.425 9.91487 5.975 10.4649 5.975L17.7949 5.975C18.3449 5.975 18.7949 6.425 18.7949 6.975C18.7949 7.525 18.3449 7.975 17.7949 7.975Z" fill="rgb(14,17,23)" fill-rule="evenodd" />
</svg>
