<svg viewBox="0 0 24 24" xmlns="http://www.w3.org/2000/svg" xmlns:xlink="http://www.w3.org/1999/xlink" width="24.000000" height="24.000000" fill="none">
	<rect id="24 / Entertainment / Palette Fill" width="24.000000" height="24.000000" x="0.000000" y="0.000000" />
	<path id="Vector" d="M2 12C2 6.47715 6.47715 2 12 2C17.5228 2 22 6.47715 22 12C22 12.7624 21.9145 13.5059 21.7522 14.2213C21.6935 14.4801 21.5343 14.7049 21.3097 14.8463C21.0851 14.9877 20.8136 15.034 20.5548 14.975L17.9798 14.3882C15.8252 13.8973 13.8973 15.8252 14.3882 17.9798L14.975 20.5548C15.034 20.8136 14.9877 21.0851 14.8463 21.3097C14.7049 21.5343 14.4801 21.6935 14.2213 21.7522C13.5059 21.9145 12.7623 22 12 22C6.47715 22 2 17.5228 2 12ZM12 8.5C12.8284 8.5 13.5 7.82843 13.5 7C13.5 6.17157 12.8284 5.5 12 5.5C11.1716 5.5 10.5 6.17157 10.5 7C10.5 7.82843 11.1716 8.5 12 8.5ZM9.5 9C9.5 9.82843 8.82843 10.5 8 10.5C7.17157 10.5 6.5 9.82843 6.5 9C6.5 8.17157 7.17157 7.5 8 7.5C8.82843 7.5 9.5 8.17157 9.5 9ZM8.5 13C8.5 13.8284 7.82843 14.5 7 14.5C6.17157 14.5 5.5 13.8284 5.5 13C5.5 12.1716 6.17157 11.5 7 11.5C7.82843 11.5 8.5 12.1716 8.5 13ZM17.5 9C17.5 9.82843 16.8284 10.5 16 10.5C15.1716 10.5 14.5 9.82843 14.5 9C14.5 8.17157 15.1716 7.5 16 7.5C16.8284 7.5 17.5 8.17157 17.5 9Z" fill="rgb(14,17,23)" fill-rule="evenodd" />
</svg>
