<svg viewBox="0 0 24 24" xmlns="http://www.w3.org/2000/svg" xmlns:xlink="http://www.w3.org/1999/xlink" width="24.000000" height="24.000000" fill="none">
	<rect id="24 / Entertainment / Palette" width="24.000000" height="24.000000" x="0.000000" y="0.000000" />
	<path id="Vector" d="M12 2C6.47716 2 2 6.47716 2 12C2 17.5228 6.47716 22 12 22C12.7624 22 13.506 21.9145 14.2213 21.7522C14.4801 21.6935 14.7049 21.5343 14.8463 21.3097C14.9877 21.0851 15.034 20.8136 14.975 20.5548L14.3882 17.9798C13.8973 15.8252 15.8252 13.8973 17.9798 14.3882L20.5548 14.975C20.8136 15.034 21.0851 14.9877 21.3097 14.8463C21.5343 14.7049 21.6935 14.4801 21.7522 14.2213C21.9145 13.506 22 12.7624 22 12C22 6.47716 17.5228 2 12 2ZM4 12C4 7.58172 7.58172 4 12 4C16.4183 4 20 7.58172 20 12C20 12.2663 19.987 12.5294 19.9617 12.7886L18.4241 12.4382C14.8332 11.62 11.62 14.8332 12.4382 18.4241L12.7886 19.9617C12.5294 19.987 12.2663 20 12 20C7.58172 20 4 16.4183 4 12ZM12 8.5C12.8284 8.5 13.5 7.82842 13.5 7C13.5 6.17158 12.8284 5.5 12 5.5C11.1716 5.5 10.5 6.17158 10.5 7C10.5 7.82842 11.1716 8.5 12 8.5ZM9.5 9C9.5 9.82842 8.82842 10.5 8 10.5C7.17158 10.5 6.5 9.82842 6.5 9C6.5 8.17158 7.17158 7.5 8 7.5C8.82842 7.5 9.5 8.17158 9.5 9ZM17.5 9C17.5 9.82842 16.8284 10.5 16 10.5C15.1716 10.5 14.5 9.82842 14.5 9C14.5 8.17158 15.1716 7.5 16 7.5C16.8284 7.5 17.5 8.17158 17.5 9ZM8.5 13C8.5 13.8284 7.82842 14.5 7 14.5C6.17158 14.5 5.5 13.8284 5.5 13C5.5 12.1716 6.17158 11.5 7 11.5C7.82842 11.5 8.5 12.1716 8.5 13Z" fill="rgb(14,17,23)" fill-rule="evenodd" />
</svg>
