<svg viewBox="0 0 20 20" xmlns="http://www.w3.org/2000/svg" xmlns:xlink="http://www.w3.org/1999/xlink" width="20.000000" height="20.000000" fill="none">
	<rect id="20 / Navigation / Repeat" width="20.000000" height="20.000000" x="0.000000" y="0.000000" />
	<path id="Union" d="M6.58461 3.03035L5.49483 4.12013L14.064 4.12013C14.2885 4.12013 14.5075 4.144 14.7213 4.19172C14.8952 4.23055 15.0656 4.28519 15.2325 4.35563C15.5919 4.50729 15.9098 4.72137 16.1863 4.99788C16.3295 5.14104 16.4559 5.2953 16.5656 5.46066C16.6678 5.6147 16.7554 5.77836 16.8286 5.95165C16.899 6.11854 16.9536 6.28895 16.9925 6.46288C17.0402 6.67664 17.064 6.89572 17.064 7.12013L17.064 9.61037C17.064 10.0304 16.7341 10.3604 16.314 10.3604C15.894 10.3604 15.564 10.0304 15.564 9.61037L15.564 7.12013C15.564 6.9155 15.5249 6.72043 15.4466 6.53492C15.3709 6.35565 15.264 6.19686 15.1256 6.05855C14.9873 5.92023 14.8285 5.81324 14.6493 5.73758C14.5755 5.70645 14.5002 5.68151 14.4235 5.66275C14.3071 5.63434 14.1873 5.62013 14.064 5.62013L5.49483 5.62013L6.58461 6.70992C6.8816 7.00691 6.8816 7.4736 6.58461 7.77058C6.28763 8.06757 5.82094 8.06757 5.52395 7.77058L3.15384 5.40046C2.97706 5.22369 2.88867 5.04691 2.88867 4.87013C2.88867 4.69336 2.97706 4.51658 3.15384 4.3398L5.52395 1.96969C5.82094 1.6727 6.28763 1.6727 6.58461 1.96969C6.8816 2.26667 6.8816 2.73336 6.58461 3.03035ZM4.43417 10.3906C4.43417 9.97064 4.10417 9.64064 3.68417 9.64064C3.26417 9.64064 2.93417 9.97064 2.93417 10.3906L2.93417 12.8809C2.93417 13.1053 2.95803 13.3244 3.00575 13.5381C3.04459 13.7121 3.09922 13.8825 3.16966 14.0494C3.32132 14.4087 3.53541 14.7266 3.81192 15.0031C3.95508 15.1463 4.10934 15.2727 4.2747 15.3824C4.42873 15.4846 4.59239 15.5722 4.76568 15.6454C5.13765 15.8024 5.52715 15.8809 5.93417 15.8809L14.5037 15.8809L13.414 16.9707C13.1171 17.2677 13.1171 17.7344 13.4141 18.0314C13.7112 18.3283 14.1779 18.3283 14.4748 18.0313L16.8444 15.6612C17.1979 15.3076 17.1979 14.9541 16.8444 14.6006L14.4748 12.2305C14.1779 11.9335 13.7112 11.9334 13.4141 12.2304C13.1171 12.5273 13.1171 12.994 13.414 13.291L14.5037 14.3809L5.93417 14.3809C5.81088 14.3809 5.69107 14.3667 5.57473 14.3382C5.49796 14.3195 5.4227 14.2946 5.34896 14.2634C5.26568 14.2283 5.18682 14.1864 5.11238 14.1377C5.02658 14.0816 4.94664 14.0165 4.87258 13.9425C4.73426 13.8042 4.62728 13.6454 4.55161 13.4661C4.52049 13.3923 4.49555 13.3171 4.4768 13.2403C4.44838 13.124 4.43417 13.0042 4.43417 12.8809L4.43417 10.3906Z" fill="rgb(14,17,23)" fill-rule="evenodd" />
</svg>
