<svg viewBox="0 0 24 24" xmlns="http://www.w3.org/2000/svg" xmlns:xlink="http://www.w3.org/1999/xlink" width="24.000000" height="24.000000" fill="none">
	<rect id="24 / Navigation / Caret Sort" width="24.000000" height="24.000000" x="0.000000" y="0.000000" />
	<path id="Vector" d="M12 3C12.3513 3 12.6768 3.1843 12.8575 3.4855L15.8575 8.4855C16.0429 8.79444 16.0477 9.17919 15.8702 9.4927C15.6927 9.80621 15.3603 10 15 10L9 10C8.63973 10 8.30731 9.80621 8.1298 9.4927C7.95229 9.17919 7.95715 8.79444 8.14251 8.4855L11.1425 3.4855C11.3232 3.1843 11.6487 3 12 3ZM8.1298 14.5073C8.30731 14.1938 8.63973 14 9 14L15 14C15.3603 14 15.6927 14.1938 15.8702 14.5073C16.0477 14.8208 16.0429 15.2056 15.8575 15.5145L12.8575 20.5145C12.6768 20.8157 12.3513 21 12 21C11.6487 21 11.3232 20.8157 11.1425 20.5145L8.14251 15.5145C7.95715 15.2056 7.95229 14.8208 8.1298 14.5073Z" fill="rgb(14,17,23)" fill-rule="evenodd" />
</svg>
