<svg viewBox="0 0 24 24" xmlns="http://www.w3.org/2000/svg" xmlns:xlink="http://www.w3.org/1999/xlink" width="24.000000" height="24.000000" fill="none">
	<rect id="24 / Navigation / Chevron Up Mini" width="24.000000" height="24.000000" x="0.000000" y="0.000000" />
	<path id="Форма" d="M5.23828 14.8438C5.23828 14.5838 5.33828 14.3338 5.52828 14.1338L11.1583 8.51378C11.3883 8.28378 11.6883 8.15378 12.0183 8.15378C12.3483 8.15378 12.6583 8.28378 12.8883 8.51378L18.4683 14.0938C18.8583 14.4838 18.8583 15.1138 18.4683 15.5038C18.0783 15.8938 17.4483 15.8938 17.0583 15.5038L12.0283 10.4738L6.94828 15.5538C6.55828 15.9438 5.92828 15.9438 5.53828 15.5538C5.33828 15.3538 5.24828 15.1038 5.24828 14.8438L5.23828 14.8438Z" fill="rgb(14,17,23)" fill-rule="nonzero" />
</svg>
