<svg viewBox="0 0 24 24" xmlns="http://www.w3.org/2000/svg" xmlns:xlink="http://www.w3.org/1999/xlink" width="24.000000" height="24.000000" fill="none">
	<rect id="24 / Navigation / Chevron Down Mini" width="24.000000" height="24.000000" x="0.000000" y="0.000000" />
	<path id="Форма" d="M18.7608 9.15628C18.7608 9.41628 18.6608 9.66628 18.4708 9.86628L12.8408 15.4863C12.6108 15.7163 12.3108 15.8463 11.9808 15.8463C11.6508 15.8463 11.3408 15.7163 11.1108 15.4863L5.53078 9.90628C5.14078 9.51628 5.14078 8.88628 5.53078 8.49628C5.92078 8.10627 6.55078 8.10628 6.94078 8.49628L11.9708 13.5263L17.0508 8.44627C17.4408 8.05627 18.0708 8.05627 18.4608 8.44627C18.6608 8.64627 18.7508 8.89627 18.7508 9.15627L18.7608 9.15628Z" fill="rgb(14,17,23)" fill-rule="nonzero" />
</svg>
