<svg viewBox="0 0 24 24" xmlns="http://www.w3.org/2000/svg" xmlns:xlink="http://www.w3.org/1999/xlink" width="24.000000" height="24.000000" fill="none">
	<rect id="24 / Navigation / Check Edit Fill" width="24.000000" height="24.000000" x="0.000000" y="0.000000" />
	<path id="Vector" d="M21.3148 7.59537C23.4584 4.37544 19.6247 0.541604 16.4047 2.68527C16.3381 2.72964 16.276 2.7805 16.2194 2.83711L7.14539 11.9111C6.86409 12.1925 6.70605 12.574 6.70605 12.9718L6.70605 15.7941C6.70605 16.6225 7.37763 17.2941 8.20605 17.2941L11.0284 17.2941C11.4262 17.2941 11.8077 17.1361 12.089 16.8548L21.163 7.78073C21.2196 7.72412 21.2705 7.66203 21.3148 7.59537ZM4.5 5.99999C4.22386 5.99999 4 6.22385 4 6.49999L4 19.5C4 19.7761 4.22386 20 4.5 20L17.5 20C17.7761 20 18 19.7761 18 19.5L18 15.2857C18 14.7334 18.4477 14.2857 19 14.2857C19.5523 14.2857 20 14.7334 20 15.2857L20 19.5C20 20.8807 18.8807 22 17.5 22L4.5 22C3.11929 22 2 20.8807 2 19.5L2 6.49999C2 5.11928 3.11929 3.99999 4.5 3.99999L8.71429 3.99999C9.26657 3.99999 9.71429 4.44771 9.71429 4.99999C9.71429 5.55228 9.26657 5.99999 8.71429 5.99999L4.5 5.99999Z" fill="rgb(14,17,23)" fill-rule="evenodd" />
</svg>
