<svg viewBox="0 0 24 24" xmlns="http://www.w3.org/2000/svg" xmlns:xlink="http://www.w3.org/1999/xlink" width="24.000000" height="24.000000" fill="none">
	<rect id="24 / Navigation / Chevron Left Mini" width="24.000000" height="24.000000" x="0.000000" y="0.000000" />
	<path id="Форма" d="M14.8443 18.7612C14.5843 18.7612 14.3343 18.6612 14.1343 18.4713L8.5143 12.8412C8.2843 12.6112 8.1543 12.3113 8.1543 11.9813C8.1543 11.6513 8.2843 11.3413 8.5143 11.1112L14.0943 5.53125C14.4843 5.14125 15.1143 5.14125 15.5043 5.53125C15.8943 5.92125 15.8943 6.55125 15.5043 6.94125L10.4743 11.9713L15.5543 17.0513C15.9443 17.4413 15.9443 18.0713 15.5543 18.4613C15.3543 18.6613 15.1043 18.7513 14.8443 18.7513L14.8443 18.7612Z" fill="rgb(14,17,23)" fill-rule="nonzero" />
</svg>
