<svg viewBox="0 0 24 24" xmlns="http://www.w3.org/2000/svg" xmlns:xlink="http://www.w3.org/1999/xlink" width="24.000000" height="24.000000" fill="none">
	<rect id="24 / Navigation / Chevron Right Mini" width="24.000000" height="24.000000" x="0.000000" y="0.000000" />
	<path id="Форма" d="M9.1568 5.23875C9.4168 5.23875 9.6668 5.33875 9.8668 5.52875L15.4868 11.1588C15.7168 11.3888 15.8468 11.6888 15.8468 12.0188C15.8468 12.3488 15.7168 12.6588 15.4868 12.8888L9.9068 18.4688C9.5168 18.8587 8.8868 18.8587 8.4968 18.4688C8.1068 18.0788 8.1068 17.4487 8.4968 17.0588L13.5268 12.0288L8.4468 6.94875C8.0568 6.55875 8.0568 5.92875 8.4468 5.53875C8.6468 5.33875 8.8968 5.24875 9.1568 5.24875L9.1568 5.23875Z" fill="rgb(14,17,23)" fill-rule="nonzero" />
</svg>
