<svg viewBox="0 0 24 24" xmlns="http://www.w3.org/2000/svg" xmlns:xlink="http://www.w3.org/1999/xlink" width="24.000000" height="24.000000" fill="none">
	<rect id="24 / Navigation / Repeat" width="24.000000" height="24.000000" x="0.000000" y="0.000000" />
	<path id="Union" d="M7.90193 3.63639L6.59418 4.94414L16.8773 4.94414C17.1465 4.94414 17.4094 4.97277 17.6659 5.03004C17.8747 5.07664 18.0792 5.1422 18.2794 5.22673C18.7106 5.40872 19.0921 5.66562 19.424 5.99744C19.5957 6.16923 19.7475 6.35434 19.8791 6.55277C20.0017 6.73761 20.1069 6.93401 20.1947 7.14196C20.2792 7.34222 20.3447 7.54671 20.3913 7.75544C20.4486 8.01194 20.4773 8.27484 20.4773 8.54414L20.4773 11.5324C20.4773 12.0364 20.0813 12.4324 19.5773 12.4324C19.0733 12.4324 18.6772 12.0364 18.6772 11.5324L18.6772 8.54414C18.6772 8.29858 18.6303 8.06449 18.5363 7.84188C18.4455 7.62676 18.3171 7.43621 18.1512 7.27023C17.9852 7.10425 17.7946 6.97587 17.5795 6.88507C17.491 6.84771 17.4007 6.81778 17.3085 6.79528C17.1689 6.76118 17.0252 6.74414 16.8773 6.74414L6.59418 6.74414L7.90193 8.05188C8.25831 8.40826 8.25831 8.96829 7.90193 9.32467C7.54555 9.68106 6.98552 9.68106 6.62914 9.32467L3.78499 6.48053C3.57286 6.2684 3.4668 6.05627 3.4668 5.84414C3.4668 5.632 3.57286 5.41987 3.78499 5.20774L6.62914 2.3636C6.98552 2.00722 7.54555 2.00722 7.90193 2.3636C8.25831 2.71998 8.25831 3.28001 7.90193 3.63639ZM5.32139 12.4687C5.32139 11.9647 4.92539 11.5687 4.42139 11.5687C3.91739 11.5687 3.52139 11.9647 3.52139 12.4687L3.52139 15.457C3.52139 15.7263 3.55002 15.9892 3.60729 16.2457C3.65389 16.4544 3.71946 16.6589 3.80398 16.8592C3.98597 17.2904 4.24288 17.6719 4.57469 18.0037C4.74648 18.1755 4.9316 18.3272 5.13003 18.4589C5.31487 18.5815 5.51126 18.6867 5.71921 18.7744C6.16557 18.9628 6.63297 19.057 7.12139 19.057L17.4048 19.057L16.0972 20.3648C15.7409 20.7213 15.7409 21.2813 16.0974 21.6376C16.4538 21.994 17.0138 21.9939 17.3702 21.6375L20.2137 18.7934C20.6378 18.3691 20.6378 17.9449 20.2137 17.5207L17.3702 14.6766C17.0138 14.3201 16.4538 14.3201 16.0974 14.6764C15.7409 15.0328 15.7409 15.5928 16.0972 15.9492L17.4048 17.257L7.12139 17.257C6.97345 17.257 6.82967 17.24 6.69006 17.2059C6.59794 17.1834 6.50763 17.1534 6.41914 17.1161C6.31921 17.0739 6.22458 17.0236 6.13525 16.9652C6.03228 16.8979 5.93636 16.8198 5.84748 16.7309C5.68151 16.565 5.55312 16.3744 5.46232 16.1593C5.42497 16.0708 5.39505 15.9805 5.37255 15.8884C5.33844 15.7488 5.32139 15.605 5.32139 15.457L5.32139 12.4687Z" fill="rgb(14,17,23)" fill-rule="evenodd" />
</svg>
