<svg viewBox="0 0 24 24" xmlns="http://www.w3.org/2000/svg" xmlns:xlink="http://www.w3.org/1999/xlink" width="24.000000" height="24.000000" fill="none">
	<rect id="24 / Organize / Calendar Fill" width="24.000000" height="24.000000" x="0.000000" y="0.000000" />
	<path id="Vector" d="M8 2C8.55228 2 9 2.44772 9 3L9 5L15 5L15 3C15 2.44772 15.4477 2 16 2C16.5523 2 17 2.44772 17 3L17 5L19.5 5C20.8807 5 22 6.11928 22 7.5L22 9L2 9L2 7.5C2 6.11928 3.11928 5 4.5 5L7 5L7 3C7 2.44772 7.44772 2 8 2ZM2 19.5L2 11L22 11L22 19.5C22 20.8807 20.8807 22 19.5 22L4.5 22C3.11928 22 2 20.8807 2 19.5Z" fill="rgb(14,17,23)" fill-rule="evenodd" />
</svg>
