<svg viewBox="0 0 24 24" xmlns="http://www.w3.org/2000/svg" xmlns:xlink="http://www.w3.org/1999/xlink" width="24.000000" height="24.000000" fill="none">
	<rect id="24 / Organize / History Action" width="24.000000" height="24.000000" x="0.000000" y="0.000000" />
	<path id="Vector" d="M20.0003 12C20.0003 7.58172 16.4186 4 12.0003 4C11.6453 4 11.2958 4.02306 10.9539 4.06768C10.4062 4.1391 9.90436 3.75306 9.83292 3.20542C9.76148 2.65778 10.1475 2.1559 10.6952 2.08448C11.1227 2.0287 11.5586 2 12.0003 2C17.5232 2 22.0003 6.47716 22.0003 12C22.0003 17.5228 17.5232 22 12.0003 22C9.32498 22 6.8942 20.9484 5.10056 19.2383L5.08328 19.2221C4.75978 18.9122 4.45706 18.5808 4.17742 18.2301C3.8331 17.7983 3.90402 17.1691 4.33584 16.8248C4.76766 16.4805 5.39684 16.5514 5.74116 16.9832C5.83646 17.1027 5.93528 17.2193 6.03714 17.3331L6.0479 17.3451C7.51382 18.9764 9.63688 20 12.0003 20C16.4186 20 20.0003 16.4183 20.0003 12ZM7.13026 5.65232C7.56818 5.3158 7.65038 4.688 7.31386 4.25008C6.97734 3.81216 6.34954 3.72996 5.91162 4.06648C5.21922 4.59856 4.59856 5.21922 4.06648 5.91162C3.72996 6.34954 3.81216 6.97734 4.25008 7.31386C4.688 7.65038 5.3158 7.56818 5.65232 7.13026C6.07848 6.5757 6.5757 6.07848 7.13026 5.65232ZM11 8C11.5523 8 12 8.44772 12 9L12 11.3319L14.5834 13.1878C15.032 13.5101 15.1344 14.1349 14.8122 14.5834C14.4899 15.032 13.8651 15.1344 13.4166 14.8122L10.4166 12.657C10.155 12.4691 10 12.1668 10 11.8448L10 9C10 8.44772 10.4477 8 11 8ZM4.06768 10.9539C4.1391 10.4062 3.75306 9.90436 3.20542 9.83292C2.65778 9.76148 2.1559 10.1475 2.08448 10.6952C2.0287 11.1227 2 11.5582 2 12C2 12.4539 2.0303 12.9013 2.08912 13.34C2.1625 13.8874 2.66574 14.2717 3.21312 14.1983C3.76052 14.1249 4.14478 13.6217 4.0714 13.0743C4.02436 12.7234 4 12.3648 4 12C4 11.645 4.02306 11.2958 4.06768 10.9539Z" fill="rgb(14,17,23)" fill-rule="evenodd" />
</svg>
