<svg viewBox="0 0 24 24" xmlns="http://www.w3.org/2000/svg" xmlns:xlink="http://www.w3.org/1999/xlink" width="24.000000" height="24.000000" fill="none">
	<rect id="24 / Organize / History" width="24.000000" height="24.000000" x="0.000000" y="0.000000" />
	<path id="Vector" d="M12 4C9.47462 4 7.2215 5.16986 5.75446 7L8 7C8.55228 7 9 7.44772 9 8C9 8.55228 8.55228 9 8 9L3.5 9C2.94772 9 2.5 8.55228 2.5 8L2.5 4C2.5 3.44772 2.94772 3 3.5 3C4.05228 3 4.5 3.44772 4.5 4L4.5 5.38564C6.33156 3.31048 9.0123 2 12 2C17.5228 2 22 6.47716 22 12C22 17.5228 17.5228 22 12 22C6.47716 22 2 17.5228 2 12C2 11.4477 2.44772 11 3 11C3.55228 11 4 11.4477 4 12C4 16.4183 7.58172 20 12 20C16.4183 20 20 16.4183 20 12C20 7.58172 16.4183 4 12 4ZM13 9C13 8.44772 12.5523 8 12 8C11.4477 8 11 8.44772 11 9L11 11.8448C11 12.1668 11.155 12.4691 11.4166 12.657L14.4166 14.8122C14.8651 15.1344 15.4899 15.032 15.8122 14.5834C16.1344 14.1349 16.032 13.5101 15.5834 13.1878L13 11.3319L13 9Z" fill="rgb(14,17,23)" fill-rule="evenodd" />
</svg>
