<svg viewBox="0 0 24 24" xmlns="http://www.w3.org/2000/svg" xmlns:xlink="http://www.w3.org/1999/xlink" width="24.000000" height="24.000000" fill="none">
	<rect id="24 / Organize / Time Fill" width="24.000000" height="24.000000" x="0.000000" y="0.000000" />
	<path id="Vector" d="M2 11.8447C2 6.32188 6.47715 1.84473 12 1.84473C17.5228 1.84473 22 6.32188 22 11.8447C22 17.3676 17.5228 21.8447 12 21.8447C6.47715 21.8447 2 17.3676 2 11.8447ZM13 9C13 8.44772 12.5523 8 12 8C11.4477 8 11 8.44772 11 9L11 11.8448C11 12.1668 11.155 12.4691 11.4166 12.657L14.4166 14.8122C14.8651 15.1344 15.4899 15.032 15.8122 14.5834C16.1344 14.1349 16.032 13.5101 15.5834 13.1878L13 11.3319L13 9Z" fill="rgb(14,17,23)" fill-rule="evenodd" />
</svg>
