<svg viewBox="0 0 24 24" xmlns="http://www.w3.org/2000/svg" xmlns:xlink="http://www.w3.org/1999/xlink" width="24.000000" height="24.000000" fill="none">
	<rect id="24 / Priority / High Fill" width="24.000000" height="24.000000" x="0.000000" y="0.000000" />
	<path id="Vector" d="M10.6622 4.0496L2.83098 7.95216C2.32182 8.20588 2 8.72582 2 9.2947L2 10.9862L12.0003 6.00284L22.0005 10.9862L22.0005 9.2947C22.0005 8.72582 21.6787 8.20588 21.1696 7.95216L13.3383 4.0496C12.4957 3.6297 11.5048 3.6297 10.6622 4.0496ZM2 19.2256L2 13.2208L12.0003 8.2374L22.0005 13.2207L22.0005 19.2256C22.0005 19.9684 21.2194 20.4519 20.5545 20.1206L12.8923 16.3024C12.3305 16.0225 11.67 16.0225 11.1083 16.3024L3.446 20.1206C2.78118 20.4519 2 19.9684 2 19.2256Z" fill="rgb(238,145,35)" fill-rule="evenodd" />
</svg>
