<svg viewBox="0 0 24 24" xmlns="http://www.w3.org/2000/svg" xmlns:xlink="http://www.w3.org/1999/xlink" width="24.000000" height="24.000000" fill="none">
	<rect id="24 / Rating / Favorite Fill" width="24.000000" height="24.000000" x="0.000000" y="0.000000" />
	<path id="Vector" d="M4 4.5C4 3.11926 5.11914 2 6.5 2L17.5 2C18.8809 2 20 3.11926 20 4.5L20 21C20 21.3564 19.8105 21.686 19.502 21.8649C19.1934 22.0438 18.8135 22.0451 18.5039 21.8682L12.248 18.2935C12.0947 18.2057 11.9053 18.2057 11.752 18.2935L5.49609 21.8682C5.18652 22.0451 4.80664 22.0438 4.49805 21.8649C4.18945 21.686 4 21.3564 4 21L4 4.5Z" fill="rgb(14,17,23)" fill-rule="evenodd" />
</svg>
