<svg viewBox="0 0 24 24" xmlns="http://www.w3.org/2000/svg" xmlns:xlink="http://www.w3.org/1999/xlink" width="24.000000" height="24.000000" fill="none">
	<rect id="24 / Rating / Tags Fill" width="24.000000" height="24.000000" x="0.000000" y="0.000000" />
	<path id="Vector" d="M4 4C4 3.44772 4.44772 3 5 3L9.58579 3C10.7565 3 11.8793 3.46507 12.7071 4.29289C13.1599 4.74565 13.7739 5 14.4142 5L18.4902 5C19.324 5 20 5.67595 20 6.50979L20 13C20 14.1046 19.1046 15 18 15L14.4142 15C13.2435 15 12.1207 14.5349 11.2929 13.7071C10.8401 13.2544 10.2261 13 9.58579 13L6 13L6 20C6 20.5523 5.55228 21 5 21C4.44772 21 4 20.5523 4 20L4 4Z" fill="rgb(14,17,23)" fill-rule="evenodd" />
</svg>
