<svg viewBox="0 0 24 24" xmlns="http://www.w3.org/2000/svg" xmlns:xlink="http://www.w3.org/1999/xlink" width="24.000000" height="24.000000" fill="none">
	<rect id="24 / Rating / Star" width="24.000000" height="24.000000" x="0.000000" y="0.000000" />
	<path id="Vector 1590" d="M12 2C12.4131 2 12.7842 2.25482 12.9326 2.64099L15.2061 8.55139L21.0762 9.00293C21.4766 9.03369 21.8193 9.30054 21.9473 9.68073C22.0752 10.061 21.9639 10.4809 21.6641 10.7474L17.5996 14.3603L18.9775 20.7905C19.0606 21.1777 18.9072 21.5775 18.5859 21.8098C18.2656 22.0422 17.8379 22.0634 17.4961 21.8638L12 18.6577L6.50391 21.8638C6.16114 22.0634 5.7334 22.0422 5.41309 21.8098C5.0918 21.5775 4.93848 21.1777 5.02149 20.7905L6.39942 14.3602L2.33594 10.7474C2.03614 10.4808 1.92383 10.0609 2.05274 9.68073C2.18067 9.30054 2.52344 9.03369 2.92286 9.00293L8.79297 8.55139L11.0664 2.64099C11.2148 2.25482 11.5859 2 12 2ZM12 5.78571L10.4326 9.85901C10.2949 10.2191 9.96094 10.4675 9.57618 10.4971L5.42383 10.8165L8.16407 13.2526C8.4336 13.4919 8.55274 13.8574 8.47754 14.2095L7.45215 18.9951L11.4961 16.6362C11.8076 16.4546 12.1924 16.4546 12.5039 16.6362L16.5469 18.9951L15.5215 14.2095C15.4463 13.8574 15.5664 13.4919 15.835 13.2526L18.5762 10.8165L14.4229 10.4971C14.0381 10.4675 13.7051 10.2191 13.5664 9.85901L12 5.78571Z" fill="rgb(14,17,23)" fill-rule="evenodd" />
</svg>
