<svg viewBox="0 0 24 24" xmlns="http://www.w3.org/2000/svg" xmlns:xlink="http://www.w3.org/1999/xlink" width="24.000000" height="24.000000" fill="none">
	<rect id="24 / Users / User Fill" width="24.000000" height="24.000000" x="0.000000" y="0.000000" />
	<path id="Vector" d="M12 3C9.79086 3 8 4.79086 8 7C8 9.20914 9.79086 11 12 11C14.2091 11 16 9.20914 16 7C16 4.79086 14.2091 3 12 3ZM19.6517 16.1872C15.9334 10.8754 8.0666 10.8754 4.34828 16.1872C4.1216 16.5111 4 16.8968 4 17.2921L4 18.5C4 19.8807 5.11928 21 6.5 21L17.5 21C18.8807 21 20 19.8807 20 18.5L20 17.2921C20 16.8968 19.8784 16.5111 19.6517 16.1872Z" fill="rgb(14,17,23)" fill-rule="evenodd" />
</svg>
