<svg viewBox="0 0 24 24" xmlns="http://www.w3.org/2000/svg" xmlns:xlink="http://www.w3.org/1999/xlink" width="24.000000" height="24.000000" fill="none">
	<rect id="24 / Users / Users Fill" width="24.000000" height="24.000000" x="0.000000" y="0.000000" />
	<path id="Vector" d="M4.19298 8.3379C4.19298 6.47192 5.73564 5 7.58772 5C9.4398 5 10.9825 6.47192 10.9825 8.3379C10.9825 10.2039 9.4398 11.6758 7.58772 11.6758C5.73564 11.6758 4.19298 10.2039 4.19298 8.3379ZM13.193 8.3379C13.193 6.47192 14.7356 5 16.5877 5C18.4398 5 19.9825 6.47192 19.9825 8.3379C19.9825 10.2039 18.4398 11.6758 16.5877 11.6758C14.7356 11.6758 13.193 10.2039 13.193 8.3379ZM1.32684 15.3535C4.40028 11.067 10.7752 11.067 13.8486 15.3534C14.0611 15.6499 14.1754 16.0055 14.1754 16.3702L14.1754 16.9687C14.1754 18.3494 13.0562 19.4687 11.6754 19.4687L3.5 19.4687C2.11928 19.4687 1 18.3494 1 16.9687L1 16.3702C1 16.0055 1.1143 15.6499 1.32684 15.3535ZM13.5843 12.7423C14.3477 13.3291 15.0407 14.064 15.6279 14.9472C15.8699 15.3112 16 15.7478 16 16.1956L16 16.9304C16 17.9855 15.5065 18.9162 14.7548 19.4687L20.6754 19.4687C22.0562 19.4687 23.1754 18.3494 23.1754 16.9687L23.1754 16.3702C23.1754 16.0055 23.0611 15.6499 22.8486 15.3535C20.646 12.2816 16.7478 11.4112 13.5843 12.7423Z" fill="rgb(14,17,23)" fill-rule="evenodd" />
</svg>
