<svg viewBox="0 0 24 24" xmlns="http://www.w3.org/2000/svg" xmlns:xlink="http://www.w3.org/1999/xlink" width="24.000000" height="24.000000" fill="none">
	<rect id="24 / Work / Milestones Fill" width="24.000000" height="24.000000" x="0.000000" y="0.000000" />
	<path id="Vector" d="M3 4C2.44772 4 2 4.44772 2 5L2 10C2 10.5523 2.44772 11 3 11L11 11L11 21C11 21.5523 11.4477 22 12 22C12.5523 22 13 21.5523 13 21L13 11L19 11C19.3038 11 19.5911 10.8619 19.7809 10.6247L21.7809 8.12469C22.073 7.75948 22.073 7.24052 21.7809 6.87531L19.7809 4.37531C19.5911 4.13809 19.3038 4 19 4L13 4L13 3C13 2.44772 12.5523 2 12 2C11.4477 2 11 2.44772 11 3L11 4L3 4Z" fill="rgb(14,17,23)" fill-rule="nonzero" />
</svg>
