<svg viewBox="0 0 24 24" xmlns="http://www.w3.org/2000/svg" xmlns:xlink="http://www.w3.org/1999/xlink" width="24.000000" height="24.000000" fill="none">
	<rect id="24 / Work / Board" width="24.000000" height="24.000000" x="0.000000" y="0.000000" />
	<path id="Vector" d="M6.5 2C5.11929 2 4 3.11929 4 4.5L4 19.5C4 20.8807 5.11929 22 6.5 22L12 22L17.5 22C18.8807 22 20 20.8807 20 19.5L20 4.5C20 3.11929 18.8807 2 17.5 2L12 2L6.5 2ZM6.5 4C6.22386 4 6 4.22386 6 4.5L6 19.5C6 19.7761 6.22386 20 6.5 20L11 20L11 4L6.5 4ZM17.5 20C17.7761 20 18 19.7761 18 19.5L18 4.5C18 4.22386 17.7761 4 17.5 4L13 4L13 20L17.5 20Z" fill="rgb(14,17,23)" fill-rule="evenodd" />
</svg>
