<svg viewBox="0 0 24 24" xmlns="http://www.w3.org/2000/svg" xmlns:xlink="http://www.w3.org/1999/xlink" width="24.000000" height="24.000000" fill="none">
	<rect id="24 / Work / List Fill" width="24.000000" height="24.000000" x="0.000000" y="0.000000" />
	<path id="Vector" d="M19.2961 1.99498L4.69609 1.99498C3.20609 1.99498 1.99609 3.20498 1.99609 4.69498L1.99609 19.305C1.99609 20.795 3.20609 22.005 4.69609 22.005L19.3061 22.005C20.7961 22.005 22.0061 20.795 22.0061 19.305L22.0061 4.69498C22.0061 3.20498 20.7961 1.99498 19.3061 1.99498L19.2961 1.99498ZM18.5361 16.615L9.24609 16.615C9.18609 16.615 9.13609 16.595 9.07609 16.585C8.98609 17.165 8.50609 17.615 7.90609 17.615L6.31609 17.615C5.64609 17.615 5.10609 17.075 5.10609 16.405L5.10609 14.815C5.10609 14.145 5.64609 13.605 6.31609 13.605L7.90609 13.605C8.51609 13.605 8.99609 14.055 9.07609 14.635C9.13609 14.625 9.18609 14.605 9.24609 14.605L18.5361 14.605C19.0861 14.605 19.5361 15.055 19.5361 15.605C19.5361 16.155 19.0861 16.605 18.5361 16.605L18.5361 16.615ZM18.5361 9.38498L9.24609 9.38498C9.18609 9.38498 9.13609 9.36498 9.07609 9.35498C8.98609 9.93498 8.50609 10.385 7.90609 10.385L6.31609 10.385C5.64609 10.385 5.10609 9.84498 5.10609 9.17498L5.10609 7.58498C5.10609 6.91498 5.64609 6.37498 6.31609 6.37498L7.90609 6.37498C8.51609 6.37498 8.99609 6.82498 9.07609 7.40498C9.13609 7.39498 9.18609 7.37498 9.24609 7.37498L18.5361 7.37498C19.0861 7.37498 19.5361 7.82498 19.5361 8.37498C19.5361 8.92498 19.0861 9.37498 18.5361 9.37498L18.5361 9.38498Z" fill="rgb(14,17,23)" fill-rule="evenodd" />
</svg>
