<svg viewBox="0 0 24 24" xmlns="http://www.w3.org/2000/svg" xmlns:xlink="http://www.w3.org/1999/xlink" width="24.000000" height="24.000000" fill="none">
	<rect id="24 / Work / List" width="24.000000" height="24.000000" x="0.000000" y="0.000000" />
	<path id="Vector" d="M5 4C3.61929 4 2.5 5.11929 2.5 6.5L2.5 8.5C2.5 9.88071 3.61929 11 5 11L7 11C8.38071 11 9.5 9.88071 9.5 8.5L20.5 8.5C21.0523 8.5 21.5 8.05228 21.5 7.5C21.5 6.94772 21.0523 6.5 20.5 6.5L9.5 6.5C9.5 5.11929 8.38071 4 7 4L5 4ZM7.5 6.5C7.5 6.22386 7.27614 6 7 6L5 6C4.72386 6 4.5 6.22386 4.5 6.5L4.5 8.5C4.5 8.77614 4.72386 9 5 9L7 9C7.27614 9 7.5 8.77614 7.5 8.5L7.5 6.5ZM2.5 15.5C2.5 14.1193 3.61929 13 5 13L7 13C8.38071 13 9.5 14.1193 9.5 15.5L20.5 15.5C21.0523 15.5 21.5 15.9477 21.5 16.5C21.5 17.0523 21.0523 17.5 20.5 17.5L9.5 17.5C9.5 18.8807 8.38071 20 7 20L5 20C3.61929 20 2.5 18.8807 2.5 17.5L2.5 15.5ZM7.5 15.5C7.5 15.2239 7.27614 15 7 15L5 15C4.72386 15 4.5 15.2239 4.5 15.5L4.5 17.5C4.5 17.7761 4.72386 18 5 18L7 18C7.27614 18 7.5 17.7761 7.5 17.5L7.5 15.5Z" fill="rgb(14,17,23)" fill-rule="evenodd" />
</svg>
